<svg width="24" height="24" viewBox="0 0 24 24" fill="none" xmlns="http://www.w3.org/2000/svg">
    <path d="M20.9473 13.7879C20.7367 15.7538 19.9064 17.3139 18.669 18.4299C17.2157 19.7406 15.1237 20.5062 12.6191 20.5062C7.76828 20.5062 4 16.6945 4 11.8275C4 7.00703 7.68552 3.10752 12.4223 3.00219C12.4255 3.01663 12.4289 3.0319 12.4325 3.04821L12.4356 3.06212C12.4506 3.12897 12.4688 3.21038 12.4905 3.29567C12.5784 3.64209 12.7393 4.13206 13.1587 4.57341C13.445 4.87465 13.8086 5.10912 14.2543 5.27986C14.2428 5.32339 14.2303 5.36981 14.2168 5.41987C14.1845 5.53936 14.1466 5.67964 14.1035 5.8512C14.0033 6.24969 13.8893 6.77866 13.9163 7.31734C13.9449 7.88474 14.1342 8.51859 14.6839 9.02148C15.585 9.84588 16.4085 10.0402 17.1369 10.051C17.2987 10.0534 17.4496 10.0469 17.5721 10.0412C17.5869 10.0405 17.6013 10.0398 17.6151 10.0391C17.7242 10.0339 17.8046 10.0301 17.8828 10.0298C17.9033 10.0297 17.9222 10.0299 17.9396 10.0303C17.9504 10.163 17.9514 10.333 17.9529 10.5748C17.9531 10.6078 17.9533 10.6421 17.9536 10.6779C17.9559 11.0149 17.9625 11.4785 18.069 11.9194C18.1803 12.3802 18.4239 12.9153 18.9699 13.2826C19.3043 13.5076 19.6971 13.6182 20.0099 13.6803C20.3296 13.7438 20.6595 13.774 20.9473 13.7879ZM17.9099 9.83912C17.9099 9.83906 17.9104 9.84038 17.9113 9.84328C17.9103 9.84064 17.9099 9.83919 17.9099 9.83912Z"
          stroke="#958FB2" stroke-width="2"/>
    <circle cx="10.2806" cy="9.28056" r="1.28056" fill="#958FB2"/>
    <circle cx="9.10188" cy="15.1019" r="1.10188" fill="#958FB2"/>
    <circle cx="14.7034" cy="13.8526" r="1.10188" fill="#958FB2"/>
</svg>
