<svg width="24" height="24" viewBox="0 0 24 24" fill="none" xmlns="http://www.w3.org/2000/svg">
<path fill-rule="evenodd" clip-rule="evenodd" d="M5 2C4.44772 2 4 2.44772 4 3V21C4 21.5523 4.44772 22 5 22H19C19.5523 22 20 21.5523 20 21V9H13V2H5ZM6 12H10V14H6V12ZM10 18H6V20H10V18ZM6 15H13V17H6V15ZM18 15H15V17H18V15ZM12 12H18V14H12V12ZM18 20V18H12V20H18Z" fill="#958FB2"/>
<path d="M15 2.08982V7H19.9102C19.861 6.89201 19.7926 6.79261 19.7071 6.70711L15.2929 2.29289C15.2074 2.20739 15.108 2.13896 15 2.08982Z" fill="#958FB2"/>
</svg>
