<svg width="969" height="426" fill="none" xmlns="http://www.w3.org/2000/svg"><path fill-rule="evenodd" clip-rule="evenodd" d="M390.257 253c16.718 0 28.109-9.93 28.109-25.993h-.148v-27.014c0-15.917-11.243-25.993-28.109-25.993C371.764 174 362 184.076 362 199.993v27.014C362 243.07 373.54 253 390.257 253zm-.148-15.041c-6.805 0-10.948-4.38-10.948-11.244v-26.284c0-6.864 4.143-11.244 10.948-11.244 6.805 0 10.948 4.38 10.948 11.244v26.284c0 6.864-4.143 11.244-10.948 11.244z" fill="#F4F2FF"/><path d="M462.897 251.978l20.712-76.81h-17.31l-12.131 52.131-12.131-52.131H423.84l20.564 76.81h18.493zm45.418-31.542v16.355h32.547v15.187h-49.708v-76.81h48.525v15.187h-31.364v15.186h27.813v14.895h-27.813z" fill="#F4F2FF"/><path fill-rule="evenodd" clip-rule="evenodd" d="M578.736 224.817l10.208 27.161h18.641l-12.132-31.25c7.102-4.235 11.54-11.682 11.54-21.32 0-14.602-11.392-24.24-26.926-24.24h-28.7v76.81h17.161v-27.161h10.208zm-10.208-14.895v-19.859h9.764c6.953 0 11.244 3.796 11.244 9.783 0 6.279-4.291 10.076-11.244 10.076h-9.764z" fill="#F4F2FF"/><path d="M692.652 175.168l-15.83 76.81h-15.83l-8.581-48.335-8.58 48.335h-15.83l-15.978-76.81h17.309l7.397 47.604 8.137-47.604h15.83l8.137 47.75 7.397-47.75h16.422z" fill="#F4F2FF"/><path fill-rule="evenodd" clip-rule="evenodd" d="M727.122 253c16.718 0 28.109-9.93 28.109-25.993v-27.014c0-15.917-11.243-25.993-28.109-25.993-18.345 0-28.109 9.93-28.109 25.993v27.014c0 15.917 11.392 25.993 28.109 25.993zm-.148-15.041c-6.805 0-10.948-4.38-10.948-11.244v-26.284c0-6.864 4.143-11.244 10.948-11.244 6.806 0 10.948 4.38 10.948 11.244v26.284c0 6.864-4.142 11.244-10.948 11.244z" fill="#F4F2FF"/><path d="M784.228 236.791h28.997v15.187h-46.158v-76.81h17.161v61.623zm53.408 15.187v-29.352h27.813V207.44h-27.813v-17.085H869v-15.187h-48.525v76.81h17.161zM141.241 114.125l45.777 36.231c-17.94 25.425-30.93 54.663-35.879 85.809l14.846-3.178c-.742 3.051-1.484 8.848-2.227 14.645-.494 3.864-.989 7.729-1.484 10.78-7.424-6.992-16.084-12.077-25.363-15.891l-8.661-26.696 19.177-27.967-6.186-73.733z" fill="#F4F2FF"/><path d="M202.484 222.181l-35.261-18.433c7.423 19.705 9.897 22.247 35.261 18.433z" fill="#F4F2FF"/><path fill-rule="evenodd" clip-rule="evenodd" d="M284.759 114.125l-6.186 73.733 19.177 27.967-8.661 26.696c-34.374 13.318-45.649 40.876-52.528 57.691-.673 1.644-1.303 3.185-1.91 4.6h-42.684l-5.567-13.348c3.093-31.145 19.795-71.19 47.633-101.064l-22.27 4.449c13.687-35.698 25.581-44.701 55.506-67.35 5.242-3.967 11.036-8.353 17.49-13.374zm-85.368 155.092L213 289.558l13.609-20.341h-27.218zm23.507-47.036l35.261-18.433c-7.424 19.704-9.898 22.247-35.261 18.433z" fill="#F4F2FF"/></svg>