<svg width="208" height="62" fill="none" xmlns="http://www.w3.org/2000/svg"><path fill-rule="evenodd" clip-rule="evenodd" d="M78.578 41.771c4.5 0 7.567-2.686 7.567-7.031h-.04v-7.308c0-4.306-3.026-7.032-7.567-7.032-4.938 0-7.567 2.726-7.567 7.032v7.308c0 4.345 3.107 7.031 7.607 7.031zm-.04-4.068c-1.832 0-2.947-1.186-2.947-3.042v-7.11c0-1.857 1.115-3.043 2.948-3.043 1.832 0 2.947 1.186 2.947 3.042v7.11c0 1.858-1.115 3.043-2.948 3.043z" fill="#F4F2FF"/><path d="M98.133 41.495l5.576-20.779h-4.66l-3.266 14.103-3.266-14.103H87.62l5.536 20.779h4.978zm12.227-8.533v4.424h8.762v4.109H105.74V20.716h13.063v4.108h-8.443v4.109h7.487v4.03h-7.487z" fill="#F4F2FF"/><path fill-rule="evenodd" clip-rule="evenodd" d="M129.317 34.147l2.748 7.348h5.018l-3.265-8.454c1.911-1.145 3.106-3.16 3.106-5.767 0-3.95-3.066-6.558-7.248-6.558h-7.727v20.779h4.62v-7.348h2.748zm-2.748-4.03v-5.372h2.629c1.872 0 3.027 1.027 3.027 2.647 0 1.699-1.155 2.726-3.027 2.726h-2.629z" fill="#F4F2FF"/><path d="M159.984 20.716l-4.262 20.779h-4.261l-2.31-13.076-2.31 13.076h-4.261l-4.302-20.779h4.66l1.991 12.878 2.191-12.878h4.261l2.191 12.918 1.991-12.918h4.421z" fill="#F4F2FF"/><path fill-rule="evenodd" clip-rule="evenodd" d="M169.263 41.771c4.501 0 7.567-2.686 7.567-7.031v-7.308c0-4.306-3.027-7.032-7.567-7.032-4.938 0-7.567 2.686-7.567 7.032v7.308c0 4.306 3.067 7.031 7.567 7.031zm-.04-4.068c-1.832 0-2.947-1.186-2.947-3.042v-7.11c0-1.857 1.115-3.043 2.947-3.043s2.948 1.186 2.948 3.042v7.11c0 1.858-1.116 3.043-2.948 3.043z" fill="#F4F2FF"/><path d="M184.636 37.386h7.806v4.109h-12.426V20.716h4.62v16.67zm14.378 4.109v-7.94h7.487v-4.109h-7.487v-4.622h8.443v-4.108h-13.063v20.779h4.62zM11.622 4.28l12.298 9.734c-4.82 6.83-8.31 14.685-9.639 23.052l3.989-.854c-.2.82-.4 2.377-.599 3.934-.133 1.039-.265 2.077-.398 2.897-1.995-1.879-4.321-3.245-6.814-4.27l-2.327-7.171 5.152-7.514L11.622 4.28z" fill="#F4F2FF"/><path d="M28.075 33.31l-9.473-4.953c1.994 5.294 2.659 5.977 9.473 4.952z" fill="#F4F2FF"/><path fill-rule="evenodd" clip-rule="evenodd" d="M50.178 4.28l-1.662 19.808 5.152 7.514-2.327 7.172c-9.234 3.577-12.263 10.98-14.111 15.498-.181.442-.35.856-.513 1.236H25.25l-1.496-3.586c.83-8.367 5.318-19.125 12.796-27.15l-5.982 1.195c3.677-9.59 6.872-12.01 14.911-18.094 1.408-1.066 2.965-2.244 4.699-3.593zM27.244 45.946L30.9 51.41l3.656-5.464h-7.312zm6.315-12.637l9.473-4.952c-1.994 5.294-2.66 5.977-9.473 4.952z" fill="#F4F2FF"/></svg>