<svg width="120" height="120" fill="none" xmlns="http://www.w3.org/2000/svg"><path d="M21.898 7.5l24.306 19.238c-9.525 13.5-16.423 29.025-19.05 45.562l7.882-1.688c-.394 1.62-.788 4.698-1.182 7.776-.263 2.052-.526 4.105-.788 5.724-3.942-3.712-8.54-6.412-13.468-8.437L15 61.5l10.183-14.85L21.898 7.5z" fill="#F4F2FF"/><path d="M54.416 64.875l-18.723-9.788C39.635 65.55 40.95 66.9 54.416 64.876z" fill="#F4F2FF"/><path fill-rule="evenodd" clip-rule="evenodd" d="M98.102 7.5l-3.285 39.15L105 61.5l-4.599 14.175c-18.251 7.071-24.238 21.704-27.89 30.632-.358.873-.693 1.692-1.015 2.443H48.832l-2.956-7.088c1.642-16.537 10.51-37.8 25.292-53.662l-11.825 2.362c7.267-18.955 13.583-23.735 29.472-35.76A851.319 851.319 0 0 0 98.103 7.5zM52.774 89.85L60 100.65l7.226-10.8H52.774zm12.481-24.975l18.723-9.788C80.037 65.55 78.723 66.9 65.256 64.876z" fill="#F4F2FF"/></svg>