<svg width="784" height="678" fill="none" xmlns="http://www.w3.org/2000/svg"><path fill-rule="evenodd" clip-rule="evenodd" d="M139.483 576.125c18.813 0 31.633-11.077 31.633-28.995h-.167v-30.135c0-17.755-12.653-28.995-31.632-28.995-20.645 0-31.633 11.24-31.633 28.995v30.135c0 17.918 12.986 28.995 31.799 28.995zm-.166-16.778c-7.659 0-12.32-4.887-12.32-12.543v-29.32c0-7.656 4.661-12.543 12.32-12.543 7.658 0 12.32 4.887 12.32 12.543v29.32c0 7.656-4.662 12.543-12.32 12.543z" fill="#F4F2FF"/><path d="M221.228 574.984l23.308-85.681h-19.479l-13.652 58.153-13.652-58.153h-20.477l23.141 85.681h20.811zM272.34 539.8v18.244h36.627v16.94h-55.94v-85.681h54.608v16.941H272.34v16.941h31.299V539.8H272.34z" fill="#F4F2FF"/><path fill-rule="evenodd" clip-rule="evenodd" d="M351.588 544.686l11.488 30.298h20.977l-13.652-34.859c7.992-4.724 12.986-13.031 12.986-23.782 0-16.289-12.819-27.04-30.301-27.04h-32.298v85.681H340.1v-30.298h11.488zM340.1 528.071v-22.153h10.989c7.824 0 12.653 4.235 12.653 10.914 0 7.004-4.829 11.239-12.653 11.239H340.1z" fill="#F4F2FF"/><path d="M479.783 489.303l-17.814 85.681h-17.814l-9.656-53.917-9.657 53.917h-17.814l-17.98-85.681h19.479l8.324 53.103 9.157-53.103h17.814l9.157 53.266 8.324-53.266h18.48z" fill="#F4F2FF"/><path fill-rule="evenodd" clip-rule="evenodd" d="M518.574 576.125c18.814 0 31.633-11.077 31.633-28.995v-30.135c0-17.755-12.653-28.995-31.633-28.995-20.644 0-31.632 11.077-31.632 28.995v30.135c0 17.755 12.819 28.995 31.632 28.995zm-.166-16.778c-7.658 0-12.32-4.887-12.32-12.543v-29.32c0-7.656 4.662-12.543 12.32-12.543s12.32 4.887 12.32 12.543v29.32c0 7.656-4.662 12.543-12.32 12.543z" fill="#F4F2FF"/><path d="M582.839 558.044h32.631v16.94h-51.944v-85.681h19.313v68.741zm60.102 16.94v-32.741h31.3v-16.941h-31.3v-19.058h35.296v-16.941h-54.608v85.681h19.312zM291.029 119.875l64.413 50.979c-25.243 35.775-43.522 76.917-50.486 120.741l20.891-4.472c-1.045 4.293-2.089 12.45-3.134 20.606-.696 5.438-1.393 10.876-2.089 15.169-10.445-9.838-22.631-16.993-35.688-22.359l-12.186-37.564 26.984-39.352-8.705-103.748z" fill="#F4F2FF"/><path d="M377.203 271.919l-49.615-25.937c10.445 27.726 13.927 31.303 49.615 25.937z" fill="#F4F2FF"/><path fill-rule="evenodd" clip-rule="evenodd" d="M492.971 119.875l-8.705 103.748 26.984 39.352-12.186 37.564c-48.368 18.738-64.232 57.515-73.912 81.175-.947 2.313-1.834 4.482-2.687 6.474h-60.06l-7.834-18.782c4.352-43.825 27.854-100.17 67.024-142.206l-31.336 6.261c19.258-50.231 35.996-62.899 78.102-94.768 7.375-5.582 15.528-11.753 24.61-18.818zM372.85 338.102L392 366.723l19.15-28.621h-38.3zm33.077-66.183l49.615-25.937c-10.445 27.725-13.927 31.303-49.615 25.937z" fill="#F4F2FF"/></svg>