<svg width="30" height="30" viewBox="0 0 30 30" fill="none" xmlns="http://www.w3.org/2000/svg">
<path d="M2 6H29V22.0312C29 22.5662 28.5662 23 28.0312 23H2.96883C2.43376 23 2 22.5662 2 22.0312V6Z" fill="#6C5C99"/>
<path d="M2.30347 22.8638L21.1159 10.934" stroke="#403366" stroke-width="0.5"/>
<path d="M3.24308 6.97834L28.5918 23.0111" stroke="#403366" stroke-width="0.5"/>
<path opacity="0.7" d="M16.6185 16.63C15.9606 17.1417 15.0394 17.1417 14.3815 16.63L1.99999 7L1.99999 6L29 6L29 7L16.6185 16.63Z" fill="#403366"/>
<path d="M16.6509 16.0623C15.9808 16.6083 15.0193 16.6083 14.3492 16.0623L2 6L29 6L16.6509 16.0623Z" fill="#8E7CBF"/>
</svg>
