<svg width="21" height="30" viewBox="0 0 21 30" fill="none" xmlns="http://www.w3.org/2000/svg">
<path fill-rule="evenodd" clip-rule="evenodd" d="M6.64124 25.7451C6.18948 26.5738 6.52108 27.616 7.38188 28.0729C8.24268 28.5299 9.30672 28.2284 9.75847 27.3997C10.2102 26.571 9.87864 25.5288 9.01784 25.0719C8.15703 24.615 7.09299 24.9164 6.64124 25.7451ZM5.08262 24.9178C4.1791 26.5753 4.84229 28.6597 6.5639 29.5735C8.2855 30.4873 10.4136 29.8844 11.3171 28.227C12.2206 26.5696 11.5574 24.4852 9.83582 23.5714C8.11421 22.6576 5.98614 23.2604 5.08262 24.9178Z" fill="#6C5C99"/>
<path d="M4.2233 2.49945L2.56068 0L0.871364 1.04491L2.53398 3.54436L0 5.11173L1.10841 6.77803L3.64239 5.21066L5.30501 7.71011L6.99433 6.66519L5.33171 4.16575L7.8657 2.59838L6.75728 0.932078L4.2233 2.49945Z" fill="#6C5C99"/>
<path d="M18.7632 15.6077L17.4211 14.9231L16.9705 15.7848L18.3126 16.4695L17.6367 17.7621L18.5314 18.2186L19.2073 16.9259L20.5494 17.6106L21 16.7488L19.6579 16.0642L20.3338 14.7715L19.4391 14.3151L18.7632 15.6077Z" fill="#6C5C99"/>
</svg>
