<svg width="24" height="24" fill="none" xmlns="http://www.w3.org/2000/svg"><path d="M20.947 13.788c-.21 1.966-1.04 3.526-2.278 4.642-1.453 1.31-3.545 2.076-6.05 2.076C7.77 20.506 4 16.695 4 11.828c0-4.821 3.686-8.72 8.422-8.826l.01.046.004.014c.015.067.033.148.055.234.087.346.248.836.668 1.277.286.302.65.536 1.095.707l-.037.14c-.033.12-.07.26-.114.431-.1.399-.214.928-.187 1.466.029.568.218 1.202.768 1.704.901.825 1.725 1.02 2.453 1.03a7.002 7.002 0 0 0 .478-.012 6.207 6.207 0 0 1 .325-.009c.01.133.011.303.013.545v.103c.003.337.01.8.116 1.241.111.461.355.996.9 1.364.335.225.728.335 1.04.397.32.064.65.094.938.108zM17.91 9.839a.05.05 0 0 1 0 0z" stroke="#958FB2" stroke-width="2"/><circle cx="10.281" cy="9.281" r="1.281" fill="#958FB2"/><circle cx="9.102" cy="15.102" r="1.102" fill="#958FB2"/><circle cx="14.703" cy="13.853" r="1.102" fill="#958FB2"/></svg>