<svg width="128" height="96" fill="none" xmlns="http://www.w3.org/2000/svg"><path d="M60.409 21.709a30.14 30.14 0 0 0-.566-.715c.071 1.15-1.536 1.464-3.25 1.255.672.994 1.661 1.046 2.827.14a8.62 8.62 0 0 1 .67-.47c.1-.066.207-.135.319-.21zm-1.537-.767c-.936.889-1.519.889-1.89 0h1.89zm1.342 9.693c-.053-1.046-.777-1.76-1.766-1.935a8.824 8.824 0 0 1-.425.292c-.228.15-.417.273-.564.44-.048.053-.1.107-.152.163-.332.349-.71.749-.695 1.11.015.395.379.816.706 1.195.048.056.096.11.141.165.174.208.4.365.649.537.104.072.213.147.323.23 1.165-.297 1.836-1.099 1.783-2.197z" fill="#484266"/><path fill-rule="evenodd" clip-rule="evenodd" d="M40.77 30.53c.199-.237.383-.463.56-.68v-.002c.2-.246.392-.481.588-.712.76-.854 1.748-1.15 2.79-.785.817.277 1.597.655 2.38 1.033.3.146.601.291.905.432.582.274 1.162.558 1.743.843l.003.001c.97.475 1.942.952 2.934 1.387.338.155.733.188 1.13.22v.001h.007c.182.016.364.031.541.058a4.68 4.68 0 0 0 .07-.174l.016-.04.006-.015.01-.024a1.49 1.49 0 0 1 .04-.095 2.407 2.407 0 0 1-.194-.147c-.166-.13-.335-.264-.513-.29-1.749-.174-3.214-.871-4.415-2.126-.136-.135-.28-.264-.424-.393a7.395 7.395 0 0 1-.654-.636c-1.183-1.342-2.631-1.918-4.503-1.395 1.43-1.586 3.108-1.883 4.715-.697.692.506 1.313 1.11 1.935 1.715l.002.002c.362.352.724.704 1.1 1.038.62.57 1.262 1.117 1.97 1.721l.556.475c.066-.276.115-.522.16-.746v-.003l.001-.003c.088-.438.159-.79.299-1.113.14-.363.352-.7.604-1.1.1-.156.205-.323.314-.504a24.527 24.527 0 0 1-.69-.483h-.001l-.002-.002c-.514-.368-1.03-.737-1.603-1.015-.775-.377-1.578-.701-2.38-1.025a46.46 46.46 0 0 1-1.912-.805c-2.56-1.186-2.72-2.737-.406-4.341 1.06-.733 2.208-1.343 3.356-1.9 1.29-.628 2.154-1.57 2.667-2.86.09-.235.183-.47.276-.705.288-.726.579-1.46.819-2.224-.536.447-.975 1.013-1.414 1.58-.965 1.244-1.93 2.489-3.92 2.465.014-.068.025-.14.036-.216v-.004c.019-.119.038-.246.07-.373.865-3.069 2.12-5.91 4.45-8.194.389-.384.848-.715 1.307-1.029 1.29-.854 2.614-.872 3.868.018.483.35.92.763 1.36 1.179.283.268.567.538.865.79.336.28.724.593 1.148.68 8.513 2.006 14.5 6.992 18.05 14.872.158.349.406.715.706.977.58.509 1.17 1.011 1.76 1.514l.002.002.004.003c.722.615 1.447 1.231 2.154 1.863.442.401.813.418 1.343.21a411.014 411.014 0 0 1 4.275-1.717l.024-.01a538.82 538.82 0 0 0 2.8-1.116c-2.949 5.388-2.278 10.827-1.024 16.284l.056.002.02.002h.012l.018.002.026.003h.002l.058.005a1.422 1.422 0 0 0 .073.004c.035-.297.07-.593.088-.89.041-1.053.073-2.109.104-3.165.063-2.107.126-4.217.267-6.319.106-1.586.442-3.155.813-4.69.105-.436.635-.924 1.094-1.098.49-.186.976-.394 1.463-.602 1.567-.67 3.144-1.343 4.895-1.316 1.558.03 3.117.137 4.675.243h.002l.292.02.488.033c3.232.21 6.464.436 9.678.663.071 0 .142.015.212.03.036.009.071.016.106.022l.032.07.01.021.02.04c.022.044.044.087.062.13-.141.073-.281.161-.423.25-.303.19-.612.383-.937.43a62.5 62.5 0 0 1-3.035.365c-.592.062-1.183.123-1.769.194l-.498.05c-.651.064-1.306.128-1.939.28-1.43.315-1.625 1.117-.583 2.145.233.223.475.437.716.65.418.37.833.737 1.192 1.146.208.24.311.556.421.897.058.179.118.365.197.55-.636-.249-1.253-.48-1.854-.707-1.337-.503-2.597-.977-3.815-1.542-.813-.383-1.537-1.046-2.172-1.726-.954-1.011-1.643-1.168-2.808-.383-1.03.69-2.059 1.37-3.095 2.056l-.013.008-.006.004-1.037.686c.018.035.031.07.044.105.014.035.027.07.045.104.675-.16 1.35-.33 2.097-.518l.015-.004.696-.175c-.029.17-.056.339-.083.506l-.06.373c-.137.848-.269 1.667-.44 2.486-.618 3.033-1.484 5.98-3.108 8.648-1.604 2.643-1.625 2.632-4.377 1.283l-.02-.01c-2.001-.988-4.006-1.98-6.01-2.971-1.996-.988-3.991-1.975-5.982-2.958-.265-.122-.53-.244-.707-.33 0 .149.01.3.021.45.023.323.046.641-.039.926-.989 3.54-2.825 6.608-5.492 9.189-.115.113-.225.227-.336.34-.11.113-.22.226-.335.34 2.225-.768 5.369-4.394 7.982-9.223a36.283 36.283 0 0 0 .244.26l.11.117c.407.434.8.853 1.13 1.314.141.191.07.61-.035.889-3.268 8.647-9.396 14.261-18.526 16.266-13.9 3.051-27.233-5.509-30.27-19.213-2.685-12.204 4.573-24.844 16.583-28.836.151-.05.312-.091.488-.136l.003-.001h.002l.213-.055c-.035.662-.265 1.028-.883 1.272-3.885 1.535-7.1 3.958-9.59 7.306a3.22 3.22 0 0 0-.441.767c2.896-2.86 6.146-5.16 10.049-6.573.123.697-.195 1.011-.76 1.273-7.152 3.434-11.515 9.013-12.663 16.79-1.041 6.973 1.59 12.744 6.747 17.486.07.07.177.105.353.052l-.001-.001c-.371-.47-.741-.94-1.094-1.428-2.278-3.069-3.514-6.538-3.885-10.322-.035-.313.106-.68.265-.959.404-.679.821-1.351 1.24-2.025v-.001c.258-.416.517-.832.773-1.251.795-1.273 2.367-1.587 3.673-.802.171.104.342.21.512.316.851.528 1.702 1.055 2.614 1.462 2.137.977 4.345 1.203 6.588.28.207-.089.39-.2.579-.317l.009-.006.1-.061a.78.78 0 0 0 .138-.111l.042-.039a.367.367 0 0 1 .032-.025c-.35 0-.702.02-1.051.04-.778.045-1.544.088-2.251-.092-1.268-.316-2.491-.817-3.705-1.314-.326-.133-.65-.266-.975-.395-.413-.166-.798-.406-1.183-.646-.14-.088-.282-.176-.424-.26-1.219-.75-2.437-.785-3.656-.035a5.232 5.232 0 0 1-.414.214l-.028.013-.058.029-.022.01-.026.013c-.03.015-.059.005-.162-.03l-.067-.023zm24.213-17.417c.477 1.883.918 3.627 1.395 5.353.053.192.247.4.424.488 1.536.82 2.702 1.883 2.472 3.748a468.44 468.44 0 0 1 3.603-.54l.037.08a3.624 3.624 0 0 1 .058.148l.013.03.003.008.006.014a1.242 1.242 0 0 0 .024.051c-2.44.44-3.742 2.172-5.054 3.918l-.121.161-.158.21c-.3.401-.618.802-.99 1.098l-.382.311-.264.214c-1.142.93-2.285 1.86-3.504 2.666-.53.349-.918.61-.918 1.325.115-.044.22-.078.32-.111s.192-.063.28-.098c4.116-1.761 7.648-4.29 10.562-7.671.565-.663 1.448-1.169 2.296-1.465.404-.14.88-.068 1.395.01.25.038.511.078.777.095-2.861-4.83-6.888-8.16-12.274-10.043zm12.344 22.334a5.874 5.874 0 0 1-.296-.04.485.485 0 0 0-.18-.012c-.614.197-1.229.392-1.844.588l-.016.005a295.73 295.73 0 0 0-4.675 1.516c-.225.07-.394.316-.551.545l-.001.002a6.81 6.81 0 0 1-.119.168c-.314.454-.601.938-.888 1.421-.618 1.04-1.234 2.078-2.114 2.816-1.81 1.51-3.81 2.814-5.813 4.118l-.005.003c-.653.425-1.306.85-1.953 1.284-.176.122-.618.034-.848-.088-1.801-.976-3.602-1.952-5.386-2.981-1.06-.61-2.084-1.029-3.126.07l-1.157-.967-.004-.003-.01-.009a652.787 652.787 0 0 0-2.467-2.055l-.194.192.528.61c.88 1.02 1.761 2.04 2.703 2.999.23.227.919.227 1.272.052.583-.296.954-.192 1.448.14.918.609 1.843 1.208 2.769 1.807l.005.003c1.139.737 2.278 1.475 3.407 2.234.513.35.919.35 1.431.035.6-.36 1.21-.709 1.82-1.058h.001l.001-.001c1.042-.596 2.086-1.193 3.088-1.852 2.366-1.534 4.733-3.226 5.916-5.84.865-1.901 2.243-2.965 4.027-3.819.664-.328 1.301-.718 1.976-1.13.4-.246.815-.5 1.255-.753zM56.871 26.56l-.004-.003-.002-.001v-.001c-.418-.324-.807-.626-1.225-.871-.68-.41-1.368-.798-2.057-1.186-.689-.388-1.378-.776-2.058-1.185-1.342-.82-1.342-1.325.036-2.162.777-.471 1.571-.924 2.401-1.273 1.113-.47 1.82-1.22 2.226-2.319.247-.68.53-1.36.9-1.97.212-.366.618-.802.972-.854.265-.035.688.47.883.82.406.731.742 1.516 1.06 2.3.353.872.953 1.482 1.836 1.9A24.94 24.94 0 0 1 64.7 21.29c1.113.715 1.113 1.22-.017 1.9-.654.393-1.32.759-1.987 1.125s-1.334.732-1.987 1.125c-.465.27-.89.604-1.361.975-.227.179-.465.366-.723.559.309.104.556.192.773.268.216.076.401.142.587.203a1.35 1.35 0 0 1-.089-.28c.532-.293 1.064-.582 1.595-.871l.008-.004.003-.002.004-.002a156.577 156.577 0 0 0 3.227-1.79c.755-.428 1.518-.86 2.192-1.393.76-.61.742-1.36.036-2.04-.406-.4-.901-.767-1.43-.993-1.06-.488-2.173-.907-3.268-1.29-.618-.21-.936-.558-1.183-1.151l-.04-.098c-.517-1.258-1.039-2.529-1.762-3.65-.741-1.151-1.854-1.03-2.649.087a2.63 2.63 0 0 0-.353.61c-.971 2.755-2.914 4.568-5.598 5.7a3.902 3.902 0 0 0-.53.297c-.105.071-.214.14-.324.207-.59.367-1.184.736-1.124 1.59.041.781.608 1.045 1.174 1.309.154.071.307.143.45.224.53.312 1.066.614 1.603.916 1.147.647 2.295 1.294 3.378 2.03.688.437 1.165.628 2.013.053a24.968 24.968 0 0 1-.17-.13 17.417 17.417 0 0 1-.245-.189l-.004-.003-.016-.012-.012-.01zm4.774-6.072a2.776 2.776 0 0 1-.167-.207c-.193-.254-.459-.603-.805-.734-.794-.314-1.395-.715-1.854-1.447-.459-.75-1.024-.68-1.625-.018-.635.698-1.306 1.377-2.03 1.97-.619.523-.848 1.081-.354 1.726.671.907 1.36 1.831 2.19 2.598.353.331 1.077.488 1.572.401 1.218-.21 3.073-2.72 3.073-4.289zm.241 12.462h.002c.208.064.368.113.534.143 2.649.506 5.121 0 7.453-1.29 3.267-1.83 4.91-4.916 6.499-8.107-1.201.018-1.855.697-2.42 1.622-2.137 3.539-5.139 5.997-9.254 6.956-.698.166-1.405.26-2.186.363h-.002c-.365.049-.745.099-1.15.16.21.057.38.109.524.153zm-3.844-5.122c-1.66 0-2.985 1.273-2.985 2.912a2.977 2.977 0 0 0 3.003 2.999c1.607-.018 2.967-1.36 2.967-2.964 0-1.64-1.343-2.947-2.985-2.947zm5.404-17.644c.6 1.64.636 1.692 2.049 2.127 4.009 1.256 7.453 3.4 10.42 6.33.097.095.198.187.3.278a9.1 9.1 0 0 1 .3.279c-3.126-4.725-7.506-7.619-13.069-9.014z" fill="#484266"/><path d="M89.745 69.018v-.003a78.15 78.15 0 0 0-.02-2.709c-.017-.61.195-.802.813-.802h.053c.974-.009 1.46-.013 1.702.225.24.236.24.71.24 1.658v7.375c-.246 0-.492.003-.735.006h-.015c-.607.007-1.204.014-1.793-.023-.212-.018-.459-.314-.6-.54-.638-1.01-1.269-2.02-1.93-3.08h-.001l-.013-.02-.009-.014-.016-.026c-.39-.623-.79-1.265-1.21-1.934v5.579h-2.667a5.968 5.968 0 0 0-.017-.074 2.075 2.075 0 0 1-.071-.467c-.014-1.018-.023-2.04-.031-3.062-.013-1.531-.026-3.065-.058-4.591-.017-.733.195-.925.972-1.03 1.995-.278 3.267.402 4.026 2.233.22.512.537.98.864 1.462v.001c.173.255.349.514.514.786l.002-.95zm13.655-2.522l.003-.005.006-.015.138-.34.236-.58c-.869 0-1.71-.009-2.534-.018h-.054a118.07 118.07 0 0 0-4.158.001c-1.713.087-2.172.733-2.084 2.441a9.683 9.683 0 0 0 .022.3c.016.19.03.377.03.572.036 1.464.372 1.918 1.82 2.214.616.124 1.233.216 1.85.309.513.077 1.027.154 1.541.249.209.036.4.132.593.228.084.041.168.083.254.12-.035.105-.07.227-.106.332-1.518 0-3.037 0-4.556.017-.247 0-.618.087-.742.262-.31.472-.573.971-.857 1.513-.105.198-.212.403-.326.614.733 0 1.457.004 2.175.008h.03c1.916.01 3.785.02 5.654-.043.442-.017 1.077-.453 1.289-.872 1.007-1.9-.053-3.8-2.172-4.114a125.037 125.037 0 0 1-3.55-.54v-1.082h2.208l-.027.41-.016.238-.005.079-.005.093c.17 0 .337 0 .502.002.483.003.944.006 1.405-.02.194-.017.495-.14.565-.296.3-.667.574-1.343.871-2.077zm-46.317 7.746c-.987-.896-1.96-1.78-2.926-2.67a.647.647 0 0 1-.212-.454c-.018-1.813-.018-3.643-.018-5.596.239 0 .47-.003.698-.005.663-.006 1.285-.012 1.916.04.159.017.424.418.424.662.053 1.046.07 2.092 0 3.138-.053.837.159 1.448.865 1.936.256.179.493.39.8.663.201.18.432.385.719.627l.22-.276c.452-.563.889-1.107 1.299-1.677.159-.21.212-.54.212-.802.017-1.22.017-2.44 0-3.661 0-.488.176-.645.67-.663l.053-.002c2.314-.102 2.314-.102 2.314 2.217 0 .249-.002.498-.005.747a25.3 25.3 0 0 0 .023 1.868c.053.715-.159 1.238-.742 1.726-1.05.888-2.054 1.81-3.084 2.756l-.006.005-.005.005c-.423.388-.85.78-1.285 1.174-.637-.582-1.267-1.154-1.89-1.721l-.04-.037zm17.807-1.903h-5.28c0-.436 0-.733-.018-1.133h2.526v-2.04h-2.526v-1.134c.356 0 .708.002 1.057.004h.021c.683.004 1.357.008 2.03-.004.302-.005.551 0 .757.003.472.007.717.011.84-.108.134-.128.127-.398.112-.96a29.375 29.375 0 0 1-.013-.818c-.018-.209-.389-.592-.6-.592-1.38-.033-2.76-.032-4.14-.03-.828 0-1.655.001-2.483-.005-.477-.018-.6.226-.583.645.009.366.013.728.017 1.09.005.361.01.723.018 1.09.008.242.02.486.03.729.087 1.87.172 3.735-1.125 5.355-.022.033-.03.087-.043.167-.006.046-.015.1-.027.164 2.649 0 5.245 0 7.859-.017.14 0 .335-.122.406-.244.33-.577.633-1.154.977-1.805v-.002l.015-.026.173-.33zM34.006 68.05h-5.51v4.219h5.528c-.074.137-.146.27-.215.401a32.136 32.136 0 0 1-1.04 1.848c-.105.157-.44.244-.688.244-1.413.018-2.826.035-4.239 0-1.5-.035-2.207-.75-2.243-2.214a200.086 200.086 0 0 1-.052-4.603c0-1.395.741-2.284 2.154-2.37 1.501-.088 3.002-.053 4.486-.018.212 0 .512.174.618.348.29.448.543.922.831 1.46.116.217.238.445.37.685zm4.468 6.695h3.161c-.77-2.49.435-4.35 1.629-6.193l.002-.004.277-.428c.265-.419.53-.855.777-1.273.173-.27.33-.54.518-.863.08-.137.164-.284.259-.445-.267 0-.52.001-.761.003h-.007c-.684.003-1.282.006-1.881-.02-.513-.035-.813.14-1.025.61-.296.7-.63 1.38-.995 2.124v.002c-.136.275-.274.559-.417.855-.22-.433-.423-.842-.619-1.236l-.002-.004v-.002l-.002-.003a87.213 87.213 0 0 0-.896-1.77c-.124-.227-.371-.524-.583-.541-.661-.037-1.331-.03-2.048-.024h-.001c-.297.003-.602.006-.918.006.066.136.117.251.161.351.075.169.132.296.21.416l.551.91v.002c.66 1.09 1.319 2.178 2.01 3.255.441.68.688 1.377.618 2.197-.038.484-.031.967-.024 1.464.003.201.006.404.006.61zm-15.541 0h-2.844a5.627 5.627 0 0 0-.035-.342 3.493 3.493 0 0 1-.035-.425c0-.632 0-1.264.002-1.896.003-1.896.006-3.792-.02-5.688-.018-.68.194-.89.9-.89h.052c.981.01 1.476.013 1.726.26.254.25.254.752.254 1.763v7.218zm54.571-.018h2.843c0-2.946 0-5.823-.017-8.7 0-.174-.265-.47-.424-.488-.55-.037-1.101-.03-1.677-.023h-.002c-.236.003-.477.006-.723.006v9.205zm33.005-45.291l-.023-.02-.002-.003c-.504-.447-.972-.861-1.579-1.393.332-.091.633-.185.914-.272h.003c.523-.164.979-.305 1.449-.373.601-.087 1.007.732.654 1.342-.2.297-.462.549-.711.789l-.152.147c-.049.049-.098.097-.144.145l-.409-.362z" fill="#484266"/></svg>