<svg width="128" height="96" fill="none" xmlns="http://www.w3.org/2000/svg"><path d="M67.204 34.204l-.08-.221a5.733 5.733 0 0 0-.08-.222c-2.371 2.074-3.54 2.252-4.796.532 1.717.461 3.168.248 4.55-.727a16.605 16.605 0 0 0-.213-.284h-.001c-.08-.104-.165-.218-.265-.354.1.026.196.04.283.053.148.022.27.04.337.106.146.17.257.368.369.568.063.113.127.227.197.337-.053.035-.102.07-.15.106l-.15.106zm-2.051-1.23c.176-.084.352-.167.529-.241a1.874 1.874 0 0 0-.087-.179l-.055-.105c-.575.235-.887.363-1.208.397-.382.04-.777-.053-1.642-.255l.048.06c.295.366.679.842 1.014.809.486-.051.944-.27 1.401-.486zm.187 3.271c-.284.202-.568.405-.88.53-.105.047-.28-.085-.495-.247-.11-.082-.229-.172-.354-.25.778-.194 1.362-.336 1.946-.478h.001c.053.07.106.142.142.195-.121.079-.24.164-.36.25zm-1.016 11.891c.02.112.041.226.066.34 1.504.017 2.655-1.1 2.69-2.589.053-1.666-1.009-2.836-2.726-2.925a9.532 9.532 0 0 1-.088.745c-1.47.496-1.948 1.046-1.912 2.11.035.974.584 1.56 1.894 1.932.029.124.052.255.076.387z" fill="#484266"/><path fill-rule="evenodd" clip-rule="evenodd" d="M58.94 48.688h-.003c-2.956.532-5.664-.319-8.249-1.648a38.419 38.419 0 0 1-2.992-1.72c-1.788-1.152-3.523-1.17-5.293.018-.062.044-.124.08-.186.115-.061.035-.123.07-.185.115-.06.03-.114.065-.171.103-.046.03-.093.06-.148.092 1.009-2.854 3.399-4.042 6.143-2.907.887.36 1.73.833 2.575 1.307.57.32 1.141.64 1.726.927 1.735.85 3.488 1.701 5.276 2.446.41.176.866.22 1.338.265.241.024.487.047.733.09.088-.798-.106-1.082-.78-1.117-2.035-.142-3.823-.887-5.31-2.323a38.754 38.754 0 0 0-.956-.878c-.579-.52-1.16-1.041-1.681-1.621-1.293-1.419-2.904-1.543-4.62-1.33a5.235 5.235 0 0 0-.49.074l-.077.015a1.085 1.085 0 0 1-.089-.213c.335-.162.666-.338.998-.513.756-.4 1.513-.8 2.313-1.047.62-.178 1.469.088 2.088.39 1.692.79 2.957 2.128 4.22 3.464l.295.312c.695.735 1.483 1.385 2.277 2.04.298.245.597.492.891.743.092.08.22.124.38.178.089.03.187.062.293.106.018-1.56.425-2.907 1.646-4.078-.413-.204-.808-.408-1.194-.607-.755-.39-1.473-.76-2.222-1.077-.78-.332-1.57-.641-2.36-.95-1.02-.4-2.041-.798-3.04-1.248-2.053-.94-2.956-2.978-2.336-4.946.3-.94.85-1.684 1.735-2.145.49-.256.987-.5 1.486-.747.4-.197.803-.396 1.204-.6 2.426-1.224 4.249-3.032 5.453-5.496.53-1.1 1.08-2.199 1.752-3.546-.192.151-.369.282-.531.402-.332.245-.606.447-.832.697-.476.497-.933 1.019-1.39 1.54-.326.37-.65.74-.982 1.102-.991 1.081-2.107 1.967-3.647 2.481.025-.112.046-.213.065-.308v-.001c.036-.175.067-.328.112-.488 1.133-4.149 2.815-8.013 5.966-11.08 1.186-1.153 2.514-2.234 4.32-2.057.76.071 1.593.32 2.212.745a19.839 19.839 0 0 1 2.957 2.641c.495.532.973.851 1.664 1.01 6.426 1.543 12.055 4.54 16.675 9.29 5.063 5.195 8.037 11.417 9.029 18.615 2.39 17.232-8.94 33.045-25.28 36.804-18.782 4.325-36.467-7.854-40.06-25.742-3.275-16.31 5.948-32.495 21.632-37.938.202-.071.404-.135.648-.211l.397-.126c-.118.452-.241.886-.363 1.31v.002c-.226.793-.443 1.555-.593 2.34-.195.975-.637 1.507-1.558 1.968-9.081 4.503-14.516 11.807-16.198 21.806-.53 3.155-.53 6.346.284 9.484.046.157.096.314.155.493.053.165.113.35.18.571l.234-.308a3.92 3.92 0 0 0 .298-.419 2730.3 2730.3 0 0 0 4.567-7.481c1.045-1.702 3.151-2.163 4.815-1.028 1.912 1.294 3.86 2.5 6.125 3.084 2.514.639 4.957.55 7.258-.78.16-.088.301-.195.443-.301a.565.565 0 0 0 .086-.172c.02-.053.046-.122.09-.218-.476.088-.847.16-1.218.23zm19.983-13.385c1.718-.709 3.328-.992 5.205-.78a33.72 33.72 0 0 0-.458.202c-.241.108-.428.19-.622.26-1.983.726-3.664 1.825-4.797 3.687-.443.727-1.01 1.383-1.576 2.02-1.876 2.2-3.824 4.327-6.514 5.497-.885.372-1.151.922-1.31 1.861 2.814-1.276 5.47-2.588 7.913-4.29 2.637-1.844 4.868-4.113 6.939-6.542 1.115-1.294 2.443-2.02 4.195-1.773.32.046.632.129.994.224.2.053.414.11.653.166-3.824-6.595-9.117-11.062-16.198-13.526l-.014.162c-.01.116-.016.177-.004.228l.421 1.556c.458 1.697.915 3.39 1.403 5.074.07.284.3.585.548.727 2.036 1.1 3.594 2.482 3.222 5.247zM89.545 51.95a6.106 6.106 0 0 0-.08-.177 6.971 6.971 0 0 1-.08-.177l-2.336.782a635.329 635.329 0 0 0-7.01 2.373c-.248.089-.425.444-.55.727-1.256 3.014-3.133 5.567-5.788 7.446-1.736 1.217-3.511 2.374-5.284 3.53-.938.611-1.875 1.222-2.806 1.842-.496.319-.867.283-1.363-.018a483.261 483.261 0 0 0-5.406-3.053l-.008-.005-2.357-1.32c-.992-.55-1.965-.657-2.868.105-.39.337-.655.213-.974-.07a505.139 505.139 0 0 0-3.166-2.724l-.463-.397c-.337-.284-.673-.567-1.009-.868-.07.07-.141.142-.194.212.547.64 1.091 1.286 1.636 1.931a250.58 250.58 0 0 0 2.771 3.246c.55.638 1.257.656 1.912.16.62-.461 1.08-.302 1.664.088a538.298 538.298 0 0 0 4.797 3.184h.001c1.23.81 2.46 1.62 3.682 2.436.442.301.796.355 1.274.053a291.69 291.69 0 0 1 2.892-1.765c1.856-1.123 3.713-2.246 5.517-3.447 2.496-1.666 4.585-3.794 6.09-6.435.206-.358.392-.735.577-1.111.4-.817.8-1.627 1.405-2.222.604-.581 1.405-.949 2.21-1.318.423-.194.846-.389 1.242-.614.871-.487 1.735-1.003 2.6-1.52l.002-.001c.489-.292.978-.585 1.47-.873zm-24.27-11.364c.017.063.03.13.044.196.013.066.027.133.044.195.185.005.381.032.578.059.427.058.854.116 1.157-.042.614-.33 1.187-.742 1.76-1.154.502-.36 1.004-.72 1.533-1.026.708-.417 1.447-.785 2.186-1.153.74-.367 1.478-.735 2.186-1.152 2.496-1.49 2.496-3.209-.035-4.592-1.434-.797-2.974-1.4-4.532-1.932-1.08-.372-1.629-.975-2.036-2.039-.602-1.613-1.31-3.226-2.248-4.662-.956-1.472-2.39-1.348-3.363.124-.514.78-.903 1.649-1.293 2.517-.92 2.075-2.354 3.652-4.372 4.698a45.334 45.334 0 0 0-2.868 1.596c-.496.301-.991.638-1.416 1.063-.85.852-.708 1.986.319 2.624.3.186.62.342.938.497.318.155.637.31.938.496.505.301 1.011.6 1.518.898 1.52.894 3.04 1.788 4.5 2.772.094.063.18.122.259.177.89.614.938.647 2.255-.053-.13-.114-.253-.23-.374-.343-.274-.257-.535-.5-.83-.685a173.76 173.76 0 0 0-3.612-2.178h-.001l-1.378-.818c-.708-.426-1.416-.851-2.072-1.348-.743-.567-.743-1.046-.035-1.666a10.71 10.71 0 0 1 1.664-1.153c.92-.514 1.859-1.01 2.833-1.453 1.009-.444 1.663-1.17 2.088-2.163l.08-.192c.398-.966.802-1.944 1.284-2.875l.108-.235c.255-.562.557-1.23 1.237-1.06.531.125 1.044.799 1.345 1.33.388.687.691 1.43.992 2.168.11.272.221.543.336.81.425 1.029 1.115 1.756 2.142 2.235 1.328.638 2.638 1.311 3.877 2.11 1.54.974 1.505 1.595 0 2.552-.421.27-.859.513-1.298.757-.336.186-.673.373-1.003.573-.371.218-.742.433-1.113.647a88.517 88.517 0 0 0-2.835 1.693c-.413.207-.76.527-1.104.843-.127.117-.254.234-.383.345zm-.868-2.464c.2-.1.41-.184.613-.267.446-.18.867-.35 1.122-.655.956-1.099 1.859-2.287 2.567-3.545.744-1.33.266-2.464-1.186-2.925-.956-.32-1.593-.816-2.107-1.667-.708-1.152-1.522-1.188-2.248-.035-.655 1.063-1.522 1.826-2.549 2.5-1.062.69-1.221 1.347-.513 2.375a35.159 35.159 0 0 0 2.726 3.35c.245.247.6.407.98.58.195.09.397.181.595.29zm23.794-1.794a1.137 1.137 0 0 0-.232.004c-1.416.195-2.248 1.117-2.956 2.287-3.116 5.176-7.559 8.474-13.595 9.449-.653.107-1.315.153-1.98.2-.22.015-.439.03-.658.048.23.266.478.355.726.425 3.841.905 7.4.142 10.727-1.914 3.963-2.441 5.981-6.395 8.015-10.381l.058-.114c-.035 0-.07-.002-.105-.004zm-23.935 13.3c2.195 0 3.93-1.72 3.93-3.9 0-2.145-1.841-3.954-3.948-3.936-2.107.018-3.877 1.808-3.877 3.918a3.857 3.857 0 0 0 3.895 3.918z" fill="#484266"/></svg>