<svg width="91" height="60" fill="none" xmlns="http://www.w3.org/2000/svg"><path d="M3.88 38.478c2.62 14.04 21.36 16.66 39.35 14.999 11.055-1.022 24.315-4.968 32.335-9.76v6.9c-8.835 4.857-21.552 7.988-31.265 8.93C19.745 61.927 3.673 54.755.67 42.072-1.696 32.184 2.394 23.813 9.934 17.2v2.444c-4.185 4.569-7.333 11.9-6.054 18.834zm15.945-27.715C45.898-5.1 86.333-3.773 90.599 17.04c2.284 11.165-5.592 20.27-13.276 23.098v-4.984c6.39-3.802 9.969-10.415 8.834-16.757C82.787-.786 45.866-.866 19.825 12.52v-1.757z" fill="#484266"/><path d="M69.398 14.006h4.714V39.93c-3.531-.335-4.713-2.476-4.713-4.936v-20.99zm-51.41 7.667h-4.73v13.721c0 2.476 1.2 4.6 4.73 4.936V21.673zm-4.729-7.029h4.713v4.473h-4.713v-4.473zm32.958 25.463c-3.818 0-5.432-2.652-5.432-5.272v-18.21h4.681v5.032h3.515v3.77h-3.515v9.12c0 1.071.512 1.662 1.614 1.662h1.901v3.898h-2.764z" fill="#484266"/><path fill-rule="evenodd" clip-rule="evenodd" d="M58.95 36.513c-2.63 0-4.131-1.75-4.138-4.137h11.87v-1.694c0-5.287-2.875-9.313-7.86-9.313-4.92 0-8.659 3.435-8.659 9.521 0 7.108 4.282 9.552 8.755 9.552 3.435 0 5.368-1.118 7.221-2.939l-2.891-2.747c-1.199 1.182-2.221 1.757-4.298 1.757zm-3.69-9.361c.527-1.102 1.757-1.933 3.354-1.933 2.397 0 3.308 1.949 3.403 3.946h-7.205c.032-.83.144-1.342.448-2.013z" fill="#484266"/><path d="M30.672 25.443c1.374 0 1.933.67 1.933 1.773v12.923h4.681v-12.94c0-2.619-1.39-5.526-5.495-5.526h-9.65v18.466h4.681V25.443h3.85z" fill="#484266"/><path fill-rule="evenodd" clip-rule="evenodd" d="M79.671 17.009h.351c.064 0 .08-.032.08-.048 0-.008-.004-.02-.008-.032s-.008-.024-.008-.032l-.495-.847c.256-.096.416-.271.416-.607v-.032c0-.543-.336-.719-.927-.719-.16 0-.448 0-.575.032-.112.016-.144.064-.144.176v2.029c0 .032.032.08.08.08h.32c.047 0 .08-.048.08-.08v-.799h.223a.12.12 0 0 1 .064.032l.479.799c0 .032.032.048.064.048zm-.543-1.917c.303 0 .447.08.447.303v.032c0 .224-.144.32-.447.32-.024 0-.088-.004-.152-.008a3.905 3.905 0 0 0-.152-.008v-.64h.304z" fill="#484266"/><path fill-rule="evenodd" clip-rule="evenodd" d="M77.323 15.89c0 1.039.83 1.87 1.869 1.87a1.876 1.876 0 0 0 1.885-1.87 1.885 1.885 0 0 0-1.885-1.869c-1.039 0-1.87.831-1.87 1.87zm.32 0c0-.862.686-1.565 1.549-1.565.862 0 1.565.703 1.565 1.565 0 .847-.703 1.55-1.565 1.55a1.54 1.54 0 0 1-1.55-1.55z" fill="#484266"/></svg>