<svg width="64" height="70" fill="none" xmlns="http://www.w3.org/2000/svg"><path d="M14.666 46.911L31.832 10.94l20.561 35.165-37.727.807zm17.24-34.798L15.6 46.324l35.861-.807-19.554-33.404z" fill="#484266"/><path d="M2.015 17.399l-.186-.514L31.347 1.468l.858 10.278L2.015 17.4zm28.81-15.05L3.731 16.518l27.838-5.249-.746-8.92z" fill="#484266"/><path d="M62.021 17.473l-30.264-5.727-.784-10.314 31.235 15.49-.187.55zM32.28 11.268l27.876 5.25L31.608 2.385l.671 8.883zm1.38 57.594l-.373-.404L51.833 45.48l10.636 5.102-28.809 18.28zm18.323-22.721L34.78 67.467 61.311 50.62l-9.33-4.478z" fill="#484266"/><path d="M33.361 68.862L1.231 50.435l13.994-4.148.112.147 18.398 22.024-.373.404zM2.65 50.62l29.668 16.995L15.04 46.949l-12.39 3.67zm59.707.219l-10.785-4.882 10.225-28.852.56.11V50.84zm-10.113-5.176l9.516 4.295V18.831l-9.516 26.832z" fill="#484266"/><path d="M1.642 50.876V18.39l.522-.11 13.323 28.521-13.845 4.075zm.597-31.201v30.467l12.501-3.708-12.5-26.76zM51.983 46.47L31.459 11.123l30.973 5.837-10.45 29.512zM32.54 11.894L51.834 45.15l9.851-27.75-29.144-5.507z" fill="#484266"/><path d="M15.076 47.279L1.567 16.922l30.824-5.8L15.076 47.28zM2.351 17.326L15.076 45.92l16.308-34.064-29.033 5.47zm60.529-.147a.822.822 0 0 1-1.642 0 .821.821 0 0 1 1.642 0z" fill="#484266"/><path d="M62.058 19.088c-1.082 0-1.94-.845-1.94-1.91 0-1.064.858-1.908 1.94-1.908 1.083 0 1.94.844 1.94 1.909.038 1.064-.857 1.909-1.94 1.909zm0-2.203a.292.292 0 0 0-.298.294c0 .184.15.294.298.294a.292.292 0 0 0 .299-.294.292.292 0 0 0-.299-.294zM52.729 45.81a.822.822 0 0 1-1.642 0 .822.822 0 0 1 1.642 0z" fill="#484266"/><path d="M51.908 47.719c-1.082 0-1.94-.844-1.94-1.909 0-1.064.858-1.909 1.94-1.909 1.082 0 1.94.845 1.94 1.91 0 1.064-.858 1.908-1.94 1.908zm0-2.203a.292.292 0 0 0-.298.294c0 .184.149.294.298.294a.292.292 0 0 0 .299-.294c0-.184-.112-.294-.299-.294zm10.972 4.882a.822.822 0 0 1-1.642 0 .822.822 0 0 1 1.642 0z" fill="#484266"/><path d="M62.058 52.307c-1.082 0-1.94-.844-1.94-1.909 0-1.064.858-1.908 1.94-1.908 1.083 0 1.94.844 1.94 1.908.038 1.065-.857 1.91-1.94 1.91zm0-2.202a.292.292 0 0 0-.298.294c0 .183.15.293.298.293a.292.292 0 0 0 .299-.294c0-.183-.112-.293-.299-.293zm-27.726 17.95a.821.821 0 0 1-1.642 0 .822.822 0 0 1 1.642 0z" fill="#484266"/><path d="M33.51 70c-1.081 0-1.94-.844-1.94-1.909 0-1.064.859-1.908 1.94-1.908 1.083 0 1.941.844 1.941 1.908 0 1.028-.858 1.909-1.94 1.909zm0-2.24a.292.292 0 0 0-.298.294c0 .184.15.294.299.294a.292.292 0 0 0 .298-.293.292.292 0 0 0-.298-.294zM15.934 46.618a.822.822 0 0 1-1.641 0 .822.822 0 0 1 1.642 0z" fill="#484266"/><path d="M15.113 48.526c-1.082 0-1.94-.844-1.94-1.908 0-1.065.858-1.909 1.94-1.909 1.083 0 1.94.844 1.94 1.909.038 1.064-.857 1.908-1.94 1.908zm0-2.202a.292.292 0 0 0-.298.294c0 .183.15.293.298.293a.292.292 0 0 0 .299-.293c.037-.184-.112-.294-.299-.294zM2.761 17.142a.822.822 0 0 1-1.642 0 .822.822 0 0 1 1.642 0z" fill="#484266"/><path d="M1.94 19.05C.858 19.05 0 18.208 0 17.143c0-1.064.858-1.909 1.94-1.909 1.083 0 1.941.845 1.941 1.91 0 1.064-.858 1.908-1.94 1.908zm0-2.201a.292.292 0 0 0-.298.293c0 .184.15.294.298.294a.292.292 0 0 0 .299-.294c0-.183-.112-.293-.299-.293zm30.75-5.323a.822.822 0 0 1-1.642 0c0-.44.373-.808.82-.808.448 0 .822.33.822.808z" fill="#484266"/><path d="M31.869 13.435c-1.082 0-1.94-.845-1.94-1.91 0-1.064.858-1.908 1.94-1.908 1.082 0 1.94.844 1.94 1.909 0 1.028-.858 1.909-1.94 1.909zm0-2.24a.292.292 0 0 0-.299.294c0 .184.15.294.299.294a.292.292 0 0 0 .298-.294.292.292 0 0 0-.298-.294zm.037-9.286a.822.822 0 0 1-1.642 0 .822.822 0 0 1 1.642 0z" fill="#484266"/><path d="M31.085 3.818c-1.082 0-1.94-.845-1.94-1.91 0-1.064.858-1.908 1.94-1.908 1.082 0 1.94.844 1.94 1.909 0 1.064-.858 1.909-1.94 1.909zm0-2.203a.292.292 0 0 0-.299.294c0 .183.15.293.3.293a.292.292 0 0 0 .298-.293c0-.147-.15-.294-.299-.294zM3.023 50.509a.822.822 0 0 1-1.642 0 .822.822 0 0 1 1.642 0z" fill="#484266"/><path d="M2.202 52.454c-1.083 0-1.94-.844-1.94-1.909 0-1.064.857-1.908 1.94-1.908 1.082 0 1.94.844 1.94 1.908 0 1.028-.858 1.91-1.94 1.91zm0-2.239c-.15 0-.299.147-.299.294 0 .183.15.293.299.293a.292.292 0 0 0 .298-.293c0-.147-.15-.294-.298-.294zM33.51 69.743L14.48 46.911.932 16.628l30.936-5.8.15.037 31.01 5.837-10.45 29.475-.074.074L33.51 69.743zM15.749 46.251L33.51 67.504l17.763-22.06 9.852-27.751-29.257-5.506-28.92 5.469 12.799 28.595z" fill="#484266"/><path d="M37.616 29.99l-1.157 2.386c-.373.77-.71 1.505-1.082 2.239a73.81 73.81 0 0 1-1.232 2.422c-.373.771-.783 1.579-1.194 2.386h-.82l-2.501-4.955-2.24-4.515h-.036v11.673h-.97V27.75h.97c.522 1.065 1.044 2.13 1.567 3.157.522 1.065 1.045 2.092 1.567 3.12l1.008 2.093c.336.697.671 1.394 1.045 2.055l.746-1.431 1.306-2.717c.522-1.064 1.045-2.092 1.567-3.157.523-1.064 1.045-2.092 1.53-3.12h.933v13.876h-.97V29.99h-.037z" fill="#484266"/></svg>