<svg width="97" height="25" fill="none" xmlns="http://www.w3.org/2000/svg"><path d="M72.743 3.231c-.84 1.477-1.664 2.929-2.494 4.381-.406-.272-.807-.55-1.218-.812-1.07-.676-2.233-1.067-3.457-1.245-1.124-.16-2.249-.183-3.362.107-2.533.652-4.197 2.62-4.58 5.383-.19 1.387-.146 2.75.283 4.079.596 1.85 1.77 3.118 3.49 3.806 1.447.575 2.933.64 4.447.367a8.119 8.119 0 0 0 2.382-.8c.084-.048.179-.178.179-.273.01-1.144.005-2.294.005-3.48h-5.455v-4.44h10.643c.005.083.017.178.017.273v10.67c0 .16-.012.285-.162.404-1.269 1.007-2.7 1.683-4.191 2.21-1.948.694-3.947 1.103-6.006 1.009-2.85-.137-5.46-1.026-7.659-3.018-1.91-1.73-3.061-3.942-3.551-6.556a14.94 14.94 0 0 1-.267-3.113c.044-1.956.395-3.847 1.23-5.602 1.185-2.496 3.017-4.286 5.427-5.407C59.846.522 61.31.178 62.83.06c1.96-.154 3.874.095 5.733.747 1.52.533 2.905 1.34 4.18 2.424zm23.377-.005c-.834 1.47-1.67 2.928-2.493 4.38-.495-.326-.963-.675-1.47-.96-1.235-.7-2.56-1.073-3.962-1.168-1.014-.065-2.01-.018-2.99.297-1.63.527-2.894 1.547-3.595 3.207-1.035 2.454-1.013 4.926.195 7.321.645 1.28 1.686 2.123 2.96 2.62 1.815.712 3.652.676 5.495.12.467-.143.912-.357 1.363-.558.078-.036.173-.16.173-.25.01-1.155.005-2.311.005-3.497h-5.449v-4.446H96.99c.005.107.011.207.011.314v10.612c0 .166-.011.302-.167.427-1.263 1.002-2.683 1.677-4.163 2.199-1.915.682-3.869 1.09-5.895 1.014-2.894-.107-5.538-.996-7.776-3.006-1.658-1.488-2.76-3.379-3.35-5.608a14.622 14.622 0 0 1-.485-4.085c.045-1.956.395-3.847 1.236-5.596 1.286-2.68 3.278-4.529 5.911-5.614C84.153.19 86.063-.076 88.016.02c1.781.088 3.501.51 5.138 1.286 1.063.51 2.032 1.156 2.967 1.92zM0 12.646c.006-2.336.445-4.393 1.42-6.308 1.007-1.98 2.426-3.54 4.269-4.666C7.253.718 8.934.202 10.726.06c2.438-.19 4.742.314 6.874 1.583 1.692 1.008 3.045 2.413 4.052 4.185a12.962 12.962 0 0 1 1.625 5.175 14.094 14.094 0 0 1-.445 5.259c-.618 2.193-1.731 4.055-3.34 5.566a10.965 10.965 0 0 1-5.187 2.751 11.976 11.976 0 0 1-4.57.142c-1.881-.296-3.584-1.043-5.115-2.223-1.314-1.014-2.355-2.288-3.14-3.8A13.215 13.215 0 0 1 0 12.645zm11.7 6.663c.284-.024.573-.042.857-.083 2.232-.32 3.835-1.577 4.76-3.764.584-1.382.706-2.84.461-4.334-.295-1.82-1.09-3.326-2.532-4.375-1.38-1.002-2.923-1.298-4.576-1.038-1.358.214-2.532.83-3.456 1.903-1.525 1.767-1.987 3.877-1.609 6.201.523 3.285 2.989 5.484 6.095 5.49zm19.72-1.198v6.379h-5.499V.38h.256c3.802 0 7.61-.041 11.41.018 2.205.03 4.186.8 5.762 2.52 1.04 1.138 1.664 2.519 1.92 4.072.139.836.234 1.701.217 2.55-.039 2.127-.646 4.048-1.998 5.667-1.253 1.494-2.828 2.37-4.66 2.72-.611.12-1.246.167-1.87.178-1.736.024-3.467.006-5.203.006h-.334zm.067-5.17h4.87c.123 0 .245.007.362-.01 1.364-.22 2.388-.955 2.8-2.39.429-1.488.24-2.893-.835-4.049-.734-.788-1.68-.984-2.677-.99-1.408-.012-2.816 0-4.225 0-.1 0-.195.006-.295.012v7.428zM47.74 25c-1.113-.024-2.031-.26-2.71-1.126-.396-.498-.568-1.097-.63-1.731-.083-.819.012-1.619.385-2.342.412-.806 1.085-1.275 1.92-1.452.83-.178 1.664-.16 2.455.183.79.344 1.341.943 1.597 1.832.284.984.278 1.95-.122 2.899-.429 1.014-1.225 1.476-2.199 1.66-.267.053-.534.06-.696.077z" fill="#484266"/></svg>