<svg width="81" height="38" fill="none" xmlns="http://www.w3.org/2000/svg"><path d="M66.07 37.987c-.183-.052-.366-.098-.543-.163-1.07-.384-1.71-1.367-1.766-2.708-.063-1.517.76-2.773 2.044-3.053 2.323-.502 3.683 1.263 3.462 3.34-.152 1.412-.842 2.174-2.203 2.538-.019.007-.031.026-.05.04-.31.006-.627.006-.943.006zm2.02-3.02c-.07-.326-.114-.684-.234-1.01-.228-.618-.71-.924-1.355-.918-.62.007-1.082.326-1.316.931a2.803 2.803 0 0 0-.038 1.94c.221.664.728 1.022 1.386 1.022.664-.006 1.158-.364 1.373-1.041.089-.28.12-.586.184-.925zm-49.737 3.02c-.025-.02-.05-.046-.076-.052-1.107-.228-1.804-.912-2.076-2.025-.29-1.198-.114-2.317.772-3.216.867-.872 2.405-.97 3.399-.254.532.384.823.905.898 1.608-.373 0-.72.007-1.063-.006-.063 0-.139-.104-.17-.176-.203-.501-.576-.768-1.09-.814-.556-.045-1.03.15-1.31.67-.43.821-.436 1.667-.024 2.494.265.534.829.788 1.417.71.589-.085.905-.462 1.044-1.022.02-.072.038-.144.064-.235h1.151c.032 1.023-.721 1.986-1.753 2.253-.082.02-.158.052-.234.078-.316-.013-.633-.013-.949-.013zM0 32.128h4.595v1.048H2.93v4.661H1.696V33.17H.006C0 32.825 0 32.474 0 32.129zm46.224-15.852c1.67 3.196 3.316 6.34 4.98 9.524-.12.013-.208.026-.297.026-2.278 0-4.556 0-6.835.006-.227 0-.329-.084-.43-.28-1.557-2.988-3.126-5.97-4.677-8.964-.133-.26-.285-.338-.563-.332-1.17.013-2.342.006-3.512.006h-.361v-6.197h10.056V6.588H33.231v19.219h-6.834V6.595h-8.088v19.212h-6.854V6.575H3.43V.013H46.2c2.462 0 4.392 1.556 4.892 3.958.07.345.101.71.101 1.068.006 2.05.006 4.101.006 6.152 0 2.813-1.987 4.941-4.727 5.065-.063 0-.127.006-.247.02zm24.41-.99V.02H77.5v25.786c-.095.007-.196.02-.291.02-2.31 0-4.62 0-6.93.006-.221 0-.335-.084-.456-.26l-10.08-15.43c-.045-.07-.096-.136-.197-.292v15.956h-6.873V.026c.114-.006.24-.02.36-.02 2.406 0 4.81.007 7.215-.006.24 0 .38.078.507.28l9.74 14.921c.025.033.05.072.075.104.02-.006.045-.012.064-.019zM58.192 36.014l.98-3.9c.342 0 .671-.012.994.014.082.006.196.137.215.234.279 1.1.544 2.207.817 3.307.025.105.057.209.107.398.317-1.361.62-2.644.918-3.933h1.215c-.506 1.914-1 3.802-1.5 5.71h-1.24c-.304-1.244-.614-2.5-.924-3.763h-.07c-.304 1.256-.601 2.506-.905 3.77h-1.26c-.487-1.889-.98-3.79-1.486-5.73.386 0 .746-.013 1.1.013.07.007.165.137.19.228.26 1.081.5 2.168.754 3.255.019.105.044.202.095.398zm-13.772-.175V32.14h1.127v5.716c-.367 0-.74.013-1.114-.013-.082-.007-.177-.13-.234-.221-.664-1.081-1.323-2.168-1.98-3.25a.674.674 0 0 0-.229-.24v3.704h-1.145v-5.722c.373 0 .734-.013 1.101.013.095.006.203.13.26.234.658 1.068 1.31 2.149 1.968 3.223.057.097.12.195.177.293.019-.02.044-.026.07-.04zm30.46 2.018c-.291 0-.608-.013-.924.006-.196.013-.266-.078-.285-.247-.044-.365-.082-.73-.126-1.1-.083-.651-.317-.88-.943-.892-.393-.013-.779 0-1.216 0v2.22H70.14V32.12h.57c.854 0 1.708-.013 2.563.007 1.17.032 1.885 1.191 1.385 2.285-.133.293-.41.52-.626.775.532.221.652.748.696 1.321.05.436.101.873.152 1.348zm-3.487-4.753V34.7c.519 0 1.025.033 1.519-.006.48-.04.677-.332.652-.853-.026-.469-.254-.71-.722-.73-.468-.019-.943-.006-1.45-.006zm-66.128-.989H6.98c.475 0 .95-.007 1.424.006.728.02 1.304.482 1.475 1.153.19.761-.057 1.386-.709 1.803-.025.02-.044.046-.076.072.646.267.728.84.779 1.438.038.41.082.814.133 1.257-.317 0-.684.006-1.038-.007-.057 0-.146-.117-.159-.195-.057-.352-.095-.71-.132-1.061-.083-.736-.323-.964-1.038-.97-.367-.007-.735 0-1.133 0v2.22H5.272c-.007-1.895-.007-3.79-.007-5.716zm1.24 2.558c.57 0 1.108.033 1.64-.013.367-.026.525-.293.538-.716.012-.462-.12-.748-.487-.788-.557-.052-1.12-.013-1.69-.013v1.53zm26.473-2.539c1.114 0 2.21-.032 3.304.013.652.026 1.183.567 1.31 1.185.152.755-.095 1.36-.709 1.752-.025.02-.05.039-.088.078.512.221.696.65.746 1.172.051.5.108 1.009.165 1.53-.304 0-.652.012-.994-.007-.07-.007-.183-.11-.196-.182-.057-.3-.076-.6-.12-.899-.032-.221-.038-.475-.14-.657-.107-.19-.31-.417-.487-.437-.506-.058-1.025-.02-1.57-.02v2.188h-1.208c-.013-1.9-.013-3.795-.013-5.716zM34.2 34.68c.563 0 1.088.032 1.607-.013.412-.033.583-.313.583-.781 0-.45-.197-.736-.602-.769-.519-.039-1.044-.006-1.582-.006-.006.534-.006 1.048-.006 1.569zm43.553.592c-.215.235-.417.417-.576.625a.662.662 0 0 0-.113.378c-.013.514-.007 1.035-.007 1.562h-1.221v-5.703h1.215v2.305c.12-.11.19-.163.247-.228.588-.638 1.17-1.276 1.772-1.9a.745.745 0 0 1 .43-.19c.399-.026.797-.006 1.228-.006-.747.748-1.462 1.471-2.183 2.194L81 37.857c-.525 0-.994.006-1.462-.007-.076 0-.164-.11-.221-.195-.513-.775-1.02-1.556-1.564-2.383zm-52.863-.97c.848 1.23 1.64 2.364 2.462 3.555-.525 0-.993.013-1.462-.013-.082-.007-.183-.124-.24-.215-.513-.768-1.013-1.543-1.55-2.357-.229.235-.437.443-.627.67-.057.072-.063.203-.07.3-.006.521 0 1.042 0 1.589h-1.228v-5.69h1.215v2.35l.532-.573c.494-.534.981-1.074 1.487-1.595a.736.736 0 0 1 .43-.195c.4-.026.798-.007 1.21-.007l-2.159 2.181zm2.968 3.542v-5.71h4.184v1.042h-2.93V34.4h2.69v.976h-2.69v1.413h2.974v1.055H27.86zm20.062-4.687V34.4h2.696v.97h-2.69v1.42h2.988v1.04h-4.24v-5.702h4.176v1.022c-.968.007-1.93.007-2.93.007zm-37.572 4.7c.246-.677.48-1.296.708-1.92.437-1.185.88-2.364 1.31-3.555.076-.209.171-.287.386-.274.323.026.728-.09.95.065.221.157.278.58.392.892.544 1.491 1.088 2.976 1.633 4.466.031.092.063.183.114.32-.418 0-.798.006-1.184-.007-.057 0-.133-.117-.164-.196-.108-.28-.178-.579-.298-.852-.044-.098-.183-.209-.284-.209-.557-.02-1.114-.02-1.678 0-.095 0-.221.104-.265.196-.127.286-.203.592-.323.878-.038.085-.152.183-.234.19-.33.019-.665.006-1.063.006zm2.778-4.238h-.07c-.228.657-.456 1.315-.69 1.998h1.437a406.36 406.36 0 0 1-.677-1.998zm39.889-.443h-1.67v-1.029h4.568v1.01H54.25v4.687h-1.24c.006-1.55.006-3.093.006-4.668z" fill="#484266"/></svg>