<svg width="57" height="57" fill="none" xmlns="http://www.w3.org/2000/svg"><path d="M56.96 27.306c0-2.114-.94-3.759-2.902-4.699-.314-.156-.55-.313-.628-.705a25.225 25.225 0 0 0-4.472-10.416c-.157-.157-.392-.313-.235-.548.941-1.253-.079-1.958-.785-2.741C39.935.443 30.442-1.828 19.771 1.46 15.299 2.87 11.533 5.455 8.395 8.9c-.47.47-.706 1.019-.314 1.567.314.47.157.705-.157 1.018a25.652 25.652 0 0 0-4.393 10.181c-.079.47-.314.705-.707.862-1.569.783-2.51 2.036-2.746 3.76-.156 1.017 0 2.035-.078 2.975v2.35c0 3.446 2.354 5.639 5.806 5.482.863-.078 1.334-.47 1.334-1.253.078-2.271.078-4.543.078-6.735 0-2.428-.078-4.856.392-7.284C10.2 8.04 26.048.522 38.445 7.335c7.375 4.073 11.22 10.416 11.376 18.875.079 3.133 0 6.265 0 9.398 0 .783.235 1.41 1.02 1.566 2.668.549 5.492-1.331 5.963-4.072.314-1.958.157-3.838.157-5.796zm-23.537 13.55c.471.078.942.156 1.491.234 1.412.157 2.903.392 4.315.47 1.962.078 3.452-.548 4.55-1.723 1.335-1.488 1.962-3.21 1.884-5.09-.079-1.958-1.805-3.055-4.08-2.663-2.04.391-3.844 1.174-5.727 1.88-1.648.626-3.139 1.41-4.316 2.505-1.726 1.645-.784 3.681 1.883 4.386zm-6.433-2.428c.078-.47 0-.94-.079-1.332a3.97 3.97 0 0 0-.706-1.253c-1.098-1.645-2.51-3.133-4.001-4.386a19.05 19.05 0 0 0-2.511-1.88c-1.883-1.33-3.452-2.114-3.452-2.114-2.275-1.175-4.394 0-4.943 2.584-.628 2.898-.157 5.718 1.49 8.224 1.1 1.723 2.747 2.584 4.787 2.74 1.255.158 2.51.158 3.766.314 1.02 0 2.04.078 3.06-.235 1.333-.47 2.353-1.253 2.589-2.663zm23.066 2.427c-.313-.235-.784-.078-.941.314-.157.47-.392 1.253-.785 2.114-.863 2.115-2.197 3.838-3.766 5.248-1.961 1.88-4.393 3.132-6.669 4.072-.549.235-1.177.47-1.726.627a5.781 5.781 0 0 1-1.098.313c-.157.078-.314.078-.55.157-.313.078-.705.156-1.02.234h-.078c-.157 0-.314.079-.47.079h-.079l-.941.235h-.079c-.157 0-.235.078-.392.078h-.079c-.313.078-.549.078-.784.157h-.079c-.078 0-.235 0-.314.078h-.078c-.157 0-.235 0-.314.078-.078 0-.235 0-.314.079h-.392c-.785.078-1.177.078-1.255.156-9.73 1.018 2.432 3.133 11.612 1.567h.078c.235 0 .392-.079.628-.157.157 0 .392-.078.549-.157.157 0 .314-.078.392-.078.079 0 .157-.078.236-.078 1.255-.314 2.353-.705 3.295-1.175 5.649-2.741 6.198-7.284 6.198-7.284.157-.861.314-1.88.235-2.976.236-1.253-.313-3.054-1.02-3.68z" fill="#484266"/></svg>