<svg width="63" height="63" fill="none" xmlns="http://www.w3.org/2000/svg"><path d="M63 32.617v.43a.148.148 0 0 0 0 .185v.308c-.08.492-.043.997-.093 1.496a27.61 27.61 0 0 1-.99 5.188 29.97 29.97 0 0 1-2.209 5.501c-1.28 2.468-2.793 4.788-4.626 6.874-1.237 1.41-2.646 2.66-4.122 3.822-1.686 1.336-3.483 2.505-5.414 3.447a31.034 31.034 0 0 1-8.454 2.738c-.646.11-1.298.21-1.944.29-.08.012-.16.018-.246.018-.227.006-.344-.099-.344-.333-.007-.307 0-.615 0-.923V58.52c0-.45.018-.468.443-.536 2.497-.381 4.91-1.04 7.229-2.049a25.733 25.733 0 0 0 6.533-4.117c1.588-1.36 3.027-2.856 4.252-4.548a26.708 26.708 0 0 0 4.19-8.844 25.27 25.27 0 0 0 .78-4.449c.111-1.39.111-2.782.025-4.179a26.908 26.908 0 0 0-1.046-5.926c-1.058-3.6-2.762-6.856-5.18-9.73a24.488 24.488 0 0 0-6.915-5.699c-2.455-1.36-5.076-2.301-7.82-2.892a35.92 35.92 0 0 0-3.248-.535c-.043-.007.012 0-.03-.007-.505-.055-.505-.049-.518.462-.092 4.05-.012 8.099-.067 12.148-.111 8.16-.08 16.327-.031 24.488.037 6.265 0 12.53.037 18.794.006.616-.093 1.225-.062 1.84a.362.362 0 0 1-.08.259h-3.137c-.087-.092-.087-.203-.087-.32V5.484c0-.541 0-.547-.553-.486-2.227.252-4.418.696-6.54 1.416-3.1 1.046-5.95 2.547-8.466 4.658a25.296 25.296 0 0 0-4.995 5.68 27.015 27.015 0 0 0-2.929 6.08 27.567 27.567 0 0 0-1.341 6.463c-.092 1.114-.154 2.234-.099 3.348.105 2.27.462 4.504 1.12 6.683a25.996 25.996 0 0 0 3.009 6.548 24.09 24.09 0 0 0 2.313 3.028c.597.664 1.187 1.33 1.833 1.95 1.766 1.705 3.722 3.152 5.906 4.272 2.775 1.428 5.722 2.35 8.805 2.824.535.08.566.117.566.671v3.785c0 .456-.093.535-.554.486-3.101-.369-6.11-1.108-8.983-2.35a30.95 30.95 0 0 1-7.985-5.029 31.987 31.987 0 0 1-7.1-8.652C2.086 43.744.935 40.414.345 36.894.172 35.86.043 34.826.03 33.78c0-.043 0-.08-.031-.11v-.308a.148.148 0 0 0 0-.185v-3.139a.148.148 0 0 0 0-.184v-.37c.08-.43.05-.873.092-1.31a29.87 29.87 0 0 1 1.028-5.459c1.23-4.302 3.347-8.13 6.22-11.551a29.08 29.08 0 0 1 1.95-2.13c2.276-2.215 4.793-4.092 7.61-5.575A29.99 29.99 0 0 1 23.92.8c1.6-.382 3.212-.677 4.854-.745.21-.006.425.013.634-.055h.185c.037.037.08.03.123.03s.086.007.123-.03h3.384c.037.037.08.03.123.03s.086.007.123-.03h.184c.492.074.997.043 1.495.098a29.01 29.01 0 0 1 8.78 2.357c2.227.997 4.288 2.271 6.263 3.7 1.378.996 2.725 2.036 3.888 3.285 2.03 2.173 3.833 4.511 5.248 7.133a30.978 30.978 0 0 1 2.756 7.053c.419 1.618.702 3.268.85 4.93.036.424.011.855.067 1.28v.492a.647.647 0 0 0 0 .43v.308c-.05.228-.05.45 0 .677v.37a.881.881 0 0 0 0 .504z" fill="#484266"/><path d="M63 31.755a.813.813 0 0 1 0-.677v.677zm0 .862a.46.46 0 0 1 0-.492v.492zm0-1.847c-.086-.14-.11-.288 0-.43v.43zm-63-.922c.105.061.08.123 0 .184v-.184zm63 3.384c-.105-.061-.086-.123 0-.184v.184zM0 33.17c.08.062.098.124 0 .185v-.184zM29.716.05c-.05.005-.105.024-.123-.05h.123c.018.012.024.025.018.037-.006.006-.012.012-.018.012z" fill="#484266"/><path d="M29.716.05V0h.123c-.019.068-.074.062-.123.05zm3.63 0c-.056.012-.105.012-.123-.05h.123c.018.012.024.025.018.03-.006.013-.012.02-.018.02z" fill="#484266"/><path d="M33.346.05V0h.123c-.013.08-.068.062-.123.05zM13.467 40.993c2.172 4.486 5.704 7.41 10.145 9.446v-.344c0-6.044 0-12.08.007-18.124 0-.29-.087-.339-.357-.35-4.756-.155-9.512-.05-14.274-.056-.812 0-1.618-.013-2.43-.007-.203 0-.283-.036-.277-.264.246-7.422 2.892-13.767 8.521-18.721 3.372-2.966 7.322-4.831 11.72-5.736.542-.11 1.09-.184 1.63-.289.148-.03.216.006.198.16-.006.05 0 .105 0 .154 0 4.966 0 9.927.006 14.893 0 .27-.056.357-.345.357a181.152 181.152 0 0 0-4.09 0c-.247 0-.32-.043-.32-.314.011-2.892.005-5.785.005-8.677 0-.376 0-.376-.326-.234-6.035 2.658-9.837 7.231-11.572 13.564-.068.252.012.276.233.283 3.144.11 6.294.098 9.444.086 2.234-.012 4.473-.037 6.706-.012.216 0 .271.061.271.276-.006 9.736-.006 19.466.006 29.202 0 .344-.154.252-.35.221-3.261-.566-6.356-1.6-9.26-3.206-4.362-2.406-7.542-5.914-9.708-10.376-.99-2.043-1.723-4.172-2.258-6.375-.05-.21-.055-.302.215-.296 3.864.012 7.734.006 11.597 0 .222 0 .296.043.29.283a237.302 237.302 0 0 0 0 4.185c0 .246-.074.277-.29.277-1.685-.012-3.377-.006-5.137-.006zm25.902-28.315v.412c0 14.019 0 28.038.006 42.057 0 .29-.086.4-.357.474-1.366.37-2.731.702-4.134.917-.29.043-.258-.098-.258-.283V6.93c0-.413 0-.419.4-.357 4.823.793 9.203 2.59 12.92 5.821 2.682 2.327 4.73 5.145 6.312 8.315 1.045 2.092 1.802 4.27 2.122 6.597.27 1.938.32 3.877.172 5.828-.197 2.646-.72 5.206-1.612 7.68-.793 2.191-1.82 4.247-3.334 6.038a11.99 11.99 0 0 1-1.249 1.255v-2.093c.006-2.123.018-4.246.03-6.369 0-.13.025-.24.075-.357a19.532 19.532 0 0 0 1.451-8.499c-.221-4.283-1.488-8.216-4.152-11.637-.148-.191-.308-.376-.523-.628v.43c0 10.617 0 21.233.006 31.848a.676.676 0 0 1-.258.573c-1.299 1.138-2.732 2.05-4.332 2.69-.037.011-.074.024-.141.042v-.381c0-12.955 0-25.91.006-38.858 0-.258-.068-.437-.27-.603-.591-.486-1.274-.812-1.951-1.144-.308-.148-.603-.284-.93-.444z" fill="#484266"/></svg>