<svg width="99" height="60" fill="none" xmlns="http://www.w3.org/2000/svg"><path fill-rule="evenodd" clip-rule="evenodd" d="M61.66 0l-1.37 4.382.035 20.225h5.104v2.696h2.74l2.741-2.696h4.796l8.906-8.764V0H61.661zm20.555 14.494l-3.769 3.708H72.28l-3.425 3.371v-3.37h-5.139V2.36h18.498v12.134zm-6.167-7.752h2.398v6.741h-2.398V6.742zm-6.166 0h2.398v6.741h-2.398V6.742zM99 38.09v15.843L90.093 60h-5.48v-2.697L80.501 60h-4.796v-2.697L72.623 60h-8.907l-2.74-2.697L60.29 60l-7.845-.034-3.117-2.663L48.986 60l-8.906-.034-.343-2.663-2.398 2.663L23.637 60l-2.74-1.348V60H13.36l-8.222-5.056L0 49.888V27.64h10.62l5.138 5.057h23.294V27.64h19.183v5.057h4.796v2.696l2.74-2.696h5.824l5.139-5.057h10.962v5.057h5.823L99 38.09zm-85.64-3.034H8.564V30H2.398v18.876l3.768 4.045h7.194v-6.404H8.564v-5.393h4.796v-6.068zm25.692 0h-6.166v11.46h-2.398v-11.46h-5.824v11.46h-2.398v-11.46h-6.508v17.865H34.94l4.11-4.045v-13.82zm8.221 0H41.45v17.865h5.823V35.056zm0-5.056H41.45v2.697h5.823V30zm13.36 5.056h-4.796V30h-6.166v18.876l3.768 4.045h7.194v-6.404h-4.796v-5.393h4.796v-6.068zm15.758 0h-9.592l-3.768 3.708v10.112l4.11 4.045h9.25v-6.404H69.54v-5.393h6.851v-6.068zm20.211 3.708l-4.11-3.708h-7.194V30h-6.51v22.921h6.51V41.124h4.795V52.92h6.51V38.764z" fill="#484266"/></svg>