<svg width="216" height="179" viewBox="0 0 216 179" fill="none" xmlns="http://www.w3.org/2000/svg">
<path d="M165.672 166.414C179.85 147.892 166.358 64.886 162.242 65.1147C160.598 65.206 154.207 64.5711 152.638 67.1727C156.953 77.0053 167.273 129.141 162.242 149.493C161.271 153.421 154.62 160.697 151.495 160.011V169.158C153.401 169.768 160.824 172.748 165.672 166.414Z" fill="#403366"/>
<path d="M162.7 65.3434L156.068 71.2887L154.696 72.432L142.577 62.828C145.092 60.4651 152.135 59.3523 153.782 59.1694C155.428 58.9864 162.242 64.5049 162.7 65.3434Z" fill="#6C5C99"/>
<path d="M57.2067 21.0741C37.9987 36.8063 46.0021 53.5447 52.4047 59.9474H139.298V21.0741C131.981 18.1472 118.87 22.2936 113.23 24.7328C101.705 16.3178 82.2075 21.2265 73.8993 24.7328C70.2407 21.257 61.2465 20.8454 57.2067 21.0741Z" fill="#58468A"/>
<path d="M139.527 60.176C146.735 59.7983 149.588 54.688 146.158 52.4013C156.403 29.9005 146.922 21.51 139.527 21.074C122.455 20.0673 123.827 60.9987 139.527 60.176Z" fill="#403366"/>
<path d="M146.158 52.4013C149.588 54.688 146.735 59.7983 139.527 60.176C123.827 60.9987 122.455 20.0673 139.527 21.074C146.922 21.51 156.403 29.9005 146.158 52.4013ZM146.158 52.4013C136.175 58.026 127.485 38.132 136.403 30.1287C142.348 24.7941 152.639 33.33 144.178 46.1353C142.741 48.3106 136.083 45.2188 140.291 36.3027" stroke="#6C5C99" stroke-width="0.457333"/>
<rect x="71.6904" y="58.9407" width="84.6066" height="117.992" rx="15.5493" fill="#554977"/>
<rect x="46.9946" y="58.9407" width="84.6066" height="117.992" rx="15.5493" fill="#6C5C99"/>
<rect x="43.3359" y="58.9407" width="87.808" height="51.2213" rx="6.86" fill="#8E7CBF"/>
<path d="M78.9913 64.9432L83.6698 68.609C81.8363 71.1815 80.5086 74.1399 80.0028 77.2912L81.5202 76.9696C81.4443 77.2783 81.3685 77.8648 81.2926 78.4514C81.242 78.8424 81.1914 79.2334 81.1409 79.5421C80.3822 78.8347 79.4971 78.3202 78.5487 77.9343L77.6636 75.2332L79.6235 72.4034L78.9913 64.9432Z" fill="#403366"/>
<path d="M85.2504 75.8763L81.6467 74.0112C82.4053 76.0049 82.6582 76.2622 85.2504 75.8763Z" fill="#403366"/>
<path fill-rule="evenodd" clip-rule="evenodd" d="M93.6591 64.9432L93.0269 72.4034L94.9868 75.2332L94.1017 77.9343C90.5885 79.2817 89.4362 82.0701 88.7331 83.7714C88.6644 83.9378 88.5999 84.0937 88.538 84.2369H84.1756L83.6066 82.8864C83.9227 79.735 85.6297 75.6834 88.4748 72.6607L86.1987 73.1109C87.5975 69.4989 88.8132 68.588 91.8716 66.2963C92.4073 65.8949 92.9995 65.4512 93.6591 64.9432ZM84.9343 80.6354L86.3252 82.6934L87.7161 80.6354H84.9343ZM87.3368 75.8763L90.9405 74.0112C90.1818 76.0049 89.9289 76.2622 87.3368 75.8763Z" fill="#403366"/>
<path d="M63.0013 31.272L67.346 32.8727C69.0228 32.1867 72.9711 30.9062 75.3493 31.272M66.8886 37.9034C65.7453 37.446 62.9098 36.3942 60.7146 35.8454M67.346 43.3914C68.8704 43.8487 72.8797 44.489 76.7213 43.3914M59.5713 53.6814H73.9773" stroke="#403366" stroke-width="0.914666" stroke-linecap="round"/>
<path d="M102.56 31.272L106.905 32.8727C108.582 32.1867 112.53 30.9062 114.908 31.272M106.448 37.9034C105.304 37.446 102.469 36.3942 100.274 35.8454M106.905 43.3914C108.429 43.8487 112.439 44.489 116.28 43.3914M99.1304 53.6814H113.536" stroke="#403366" stroke-width="0.914666" stroke-linecap="round"/>
<path d="M64.8292 35.1594C65.6882 19.1527 75.8064 23.9547 75.8064 23.9547C75.8064 23.9547 74.5626 24.4319 74.2046 24.8694C72.745 26.6532 70.7296 31.3508 70.5471 35.388C68.7178 75.862 68.7178 126.626 68.7178 126.626H62.9999C62.9237 100.863 64.4082 43.0057 64.8292 35.1594Z" fill="#6C5C99"/>
<path d="M104.621 35.1594C105.48 19.1527 115.14 23.9547 115.14 23.9547C115.14 23.9547 114.355 24.4319 113.997 24.8694C112.537 26.6532 110.522 31.3508 110.339 35.388C108.51 75.862 108.51 126.626 108.51 126.626H102.792C102.716 100.863 104.2 43.0057 104.621 35.1594Z" fill="#6C5C99"/>
<rect x="59.7998" y="116.107" width="11.8907" height="6.40266" fill="#58468A"/>
<rect x="99.5879" y="116.107" width="11.8907" height="6.40266" fill="#58468A"/>
<rect x="57.0562" y="136.23" width="62.6546" height="33.3853" rx="8.68933" fill="#6C5C99"/>
<rect x="51.5679" y="136.23" width="62.6546" height="33.3853" rx="8.68933" fill="#8E7CBF"/>
<line opacity="0.5" x1="57.0562" y1="143.776" x2="104.619" y2="143.776" stroke="#403366" stroke-width="2.28667" stroke-dasharray="3.2 3.2"/>
<line opacity="0.5" x1="141.143" y1="59" x2="141.143" y2="106.563" stroke="#403366" stroke-width="2.28667" stroke-dasharray="3.2 3.2"/>
<circle opacity="0.4" cx="65.288" cy="159.097" r="7.31733" fill="#6C5C99"/>
<circle opacity="0.7" cx="65.288" cy="159.097" r="5.03066" fill="#6C5C99"/>
<rect opacity="0.7" x="140.748" y="113.821" width="19.6653" height="50.3066" rx="8.68933" fill="#403366"/>
<rect x="145.321" y="113.821" width="15.092" height="50.3066" rx="7.546" fill="#403366"/>
<ellipse cx="156.068" cy="130.742" rx="1.60067" ry="2.28667" fill="#6C5C99"/>
<ellipse cx="156.068" cy="138.517" rx="1.60067" ry="2.28667" fill="#6C5C99"/>
<rect x="170" y="32" width="2" height="12" rx="1" fill="#E6004C"/>
<rect x="177" y="37" width="2" height="12" rx="1" transform="rotate(90 177 37)" fill="#E6004C"/>
<rect x="25" y="71" width="2" height="12" rx="1" fill="#E6004C"/>
<rect x="32" y="76" width="2" height="12" rx="1" transform="rotate(90 32 76)" fill="#E6004C"/>
<rect x="154.5" y="7" width="1" height="6" rx="0.5" fill="#E6004C"/>
<rect x="158" y="9.5" width="1" height="6" rx="0.5" transform="rotate(90 158 9.5)" fill="#E6004C"/>
</svg>
