<svg width="24" height="24" viewBox="0 0 24 24" fill="none" xmlns="http://www.w3.org/2000/svg">
<path d="M3.77735 12.5182C3.44507 12.2967 3 12.5349 3 12.9343V15.7324C3 15.8996 3.08355 16.0557 3.22265 16.1484L11.7226 21.8151C11.8906 21.9271 12.1094 21.9271 12.2774 21.8151L20.7773 16.1484C20.9165 16.0557 21 15.8996 21 15.7324V12.9343C21 12.5349 20.5549 12.2967 20.2227 12.5182L12.2774 17.8151C12.1094 17.9271 11.8906 17.9271 11.7226 17.8151L3.77735 12.5182Z" fill="#797399"/>
<path d="M11.5516 1.90849C11.735 1.53687 12.265 1.53687 12.4484 1.90849L13.9409 4.93272C14.0137 5.08029 14.1545 5.18258 14.3174 5.20624L17.6548 5.6912C18.0649 5.75079 18.2287 6.25478 17.9319 6.54404L15.5169 8.89808C15.3991 9.01294 15.3453 9.17844 15.3731 9.34064L15.9432 12.6646C16.0133 13.073 15.5846 13.3845 15.2178 13.1917L12.2327 11.6223C12.087 11.5457 11.913 11.5457 11.7673 11.6223L8.78224 13.1917C8.41543 13.3845 7.98671 13.073 8.05676 12.6646L8.62687 9.34064C8.65468 9.17844 8.60091 9.01294 8.48307 8.89808L6.06808 6.54404C5.77132 6.25478 5.93508 5.75079 6.34519 5.6912L9.68262 5.20624C9.84547 5.18258 9.98626 5.08029 10.0591 4.93272L11.5516 1.90849Z" fill="#797399"/>
</svg>
