<svg width="80" height="82" fill="none" xmlns="http://www.w3.org/2000/svg"><path d="M39.213 13.85h10.274l3.272-12.074H39.213V13.85z" fill="#8E7CBF"/><path d="M39.926 13.85H29.922L26.38 1.776h13.546V13.85z" fill="#8E7CBF"/><path opacity=".4" d="M59.307 8.965l-2.52 5.212c13.666 5.64 23.065 17.955 23.065 32.24 0 19.617-17.876 35.52-39.926 35.52S0 66.034 0 46.417c0-14.285 9.4-26.6 23.064-32.24l-2.52-5.212v-.193c0-1.173 8.678-2.124 19.382-2.124s19.381.95 19.381 2.124v.193z" fill="#6C5C99"/><path opacity=".7" d="M6.585 42.603c-.38 1.723-.77 3.5-.77 5.317 0 15.893 15.162 28.776 33.866 28.776S73.547 63.813 73.547 47.92c0-1.817-.09-3.935-.468-5.659l-66.494.342z" fill="url(#paint0_linear)"/><path d="M73.08 42.261c0 2.131-14.472 3.255-32.979 3.255-18.506 0-33.509-1.431-33.509-3.196 0-1.766 15.003-3.197 33.51-3.197 18.506 0 32.978 1.373 32.978 3.139z" fill="#AC033B"/><ellipse rx="2.285" ry="2.278" transform="matrix(-1 0 0 1 51.707 65.296)" fill="#7F0D46"/><ellipse rx="3.947" ry="3.935" transform="matrix(-1 0 0 1 37.164 65.296)" fill="#7F0D46"/><ellipse rx="3.947" ry="3.935" transform="matrix(-1 0 0 1 57.938 54.527)" fill="#7F0D46"/><ellipse cx="46.305" cy="57.012" rx="2.285" ry="2.278" fill="#7F0D46"/><path d="M25.037 21.584c-3.577 1.157-6.162 3.029-8 4.927m-5.11 7.926l1.221-2.578" stroke="#B2A1E6" stroke-width="3.324" stroke-linecap="round" stroke-linejoin="round"/><path d="M52.7 1.776c0 .98-5.9 1.775-13.18 1.775-7.28 0-13.182-.795-13.182-1.775C26.338.795 32.24 0 39.52 0 51.276 0 52.7.795 52.7 1.776z" fill="#403366"/><defs><linearGradient id="paint0_linear" x1="39.681" y1="42.603" x2="39.478" y2="80.451" gradientUnits="userSpaceOnUse"><stop stop-color="#F05"/><stop offset="1" stop-color="#F05" stop-opacity="0"/></linearGradient></defs></svg>