<svg width="183" height="408" fill="none" xmlns="http://www.w3.org/2000/svg"><path d="M159.137 86.337c1.013-40.307-20.963-43.045-30.812-37.258l-3.377 4.234c-2.814 9.879-5.824 27.435 4.643 18.629 10.468-8.807 24.059 5.927 29.546 14.395z" fill="url(#paint0_linear)"/><path d="M144.364 126.982c4.39-25.065-10.27-31.048-18.149-30.907-3.94 6.209-10.384 17.697-4.643 13.972 5.74-3.726 17.587 9.737 22.792 16.935z" fill="url(#paint1_linear)"/><path d="M110.176 165.934c11.818-18.291 7.457-31.049 3.799-35.141-5.206 4.233-14.351 12.871-9.286 13.548 5.065.677 5.768 14.677 5.487 21.593z" fill="url(#paint2_linear)"/><path opacity=".2" d="M129.169 72.789s-.428-2.965-.422-7.622c21.104-6.774 31.949 22.748 30.39 20.747-21.104-27.097-29.968-13.125-29.968-13.125zm-9.286 30.907c-.004 3.292-2.888 6.353-4.579 7.864-.788.544-1.198.988-1.198.988s.496-.361 1.198-.988c3.42-2.36 13.966-6.602 29.062 15.422 1.435 2.093-3.378-30.06-24.483-23.286zm-24.48 38.528s5.896-4.462 8.863-8.044c20.557 8.295 4.561 33.772 4.788 31.242 2.941-32.751-13.651-23.198-13.651-23.198z" fill="#201C33"/><path d="M66.7 14.784L38.843 34.26c8.02 6.633 19.331 19.391 32.5 13.972 13.17-5.42 23.074-34.436 22.37-47.843L77.676 8.01c.703 2.258.168 5.08-2.533 8.468-2.701 3.387-6.331 1.129-8.442-1.694z" fill="url(#paint3_linear)"/><path d="M58.15 133.223c4.728-4.403 3.377-11.149 2.11-13.972V33.303c18.291-11.713 57.742-20.83 69.222 36.412 14.351 71.552-45.163 74.939-48.117 120.665-2.364 36.581 27.533 63.195 40.098 75.787-23.528 25.09-44.21 29.323-51.808 31.44-8.441.847-22.394-3.581-33.875-19.162-14.35-19.476-13.929-50.383-10.974-80.867 2.954-30.484 27.435-58.851 33.344-64.355z" fill="#484266"/><path d="M2.087 207.469c-1.796-11.693 6.797-16.881 11.318-18.013 3.09 1.524.192 10.273-1.643 14.457-.844-.663-3.117-1.093-5.462 2.487-2.346 3.581-3.786 2.204-4.213 1.069z" fill="#BDA894"/><path opacity=".2" d="M17.115 195.698C9.71 193.789 5.362 203.434 6.2 206.546c3.096-6.318 12.87-.839 13.226-3.354.285-2.012-.819-5.998-2.312-7.494z" fill="#201C33"/><path d="M15.112 184.654c1.766-1.72 8.16 2.173 8.567 2.282.956 4.635-6.123 19.834-7.372 21.253-1.25 1.42-6.72-2.665-5.47-4.085 1.25-1.419 2.51-17.73 4.275-19.45z" fill="#5D5780"/><g filter="url(#filter0_d)"><path d="M23.896 186.117l5.303 1.413c-1.35 8.401-2.063 28.002-5.5 27.788-4.296-.269-10.556-6.316-7.133-9.347 2.738-2.425 6.654-15.653 7.33-19.854z" fill="#5A5380"/></g><path d="M46.43 318.354c-6.49-5.705-17.263-49.082-18.67-53.881 6.347-3.685 14.402-13.004 22.37-17.359 8.814-4.816 16.04-5.782 16.04-4.657 0 2.117 23.324 30.171 38.097 39.062 0 0-19.838 14.345-32.078 16.512-12.24 2.167-18.053 27.097-25.759 20.323z" fill="url(#paint4_linear)"/><g filter="url(#filter1_d)"><path d="M28.181 264.897c-5.74-9.823-5.768-37.682-5.065-50.384 0 0 14.466-9.001 24.904-11.008 6.483-1.246 16.883-.846 16.883-.846-.422 5.504.14 29.637 1.688 41.068-11.396-.847-23.214 26.25-27.013 28.791-3.039 2.032-8.864-4.234-11.397-7.621z" fill="url(#paint5_linear)"/></g><g filter="url(#filter2_d)"><path d="M23.538 215.36c-1.35-16.935 4.221-35 7.176-41.915l41.364-2.54c-5.74 10.5-7.457 26.25-7.175 31.754-18.572 0-24.481 19.899-30.39 22.439-4.728 2.033-9.286-5.645-10.975-9.738z" fill="url(#paint6_linear)"/></g><g filter="url(#filter3_d)"><path d="M31.137 173.445c3.04-11.178 15.055-26.956 20.683-33.448l34.61 5.928c-5.065 4.741-12.24 19.758-15.195 26.673-2.7-4.065-30.811 9.435-35.455 11.855-4.643 2.419-4.643-11.008-4.643-11.008z" fill="url(#paint7_linear)"/></g><g filter="url(#filter4_d)"><path d="M86.43 145.924c10.805-13.548 8.442-34.435 5.91-43.185l-32.08 16.512c1.689 4.657 1.267 6.774.423 10.161-.676 2.71-5.628 7.057-8.02 8.891-2.813 7.48-7.26 21.509-2.532 17.783 4.727-3.726 26.169-8.327 36.3-10.162z" fill="url(#paint8_linear)"/></g><g filter="url(#filter5_d)"><path d="M92.87 124.865c3.715-9.145-.422-21.734-2.532-30.06-11.396 5.786-33.852 18.629-30.813 22.016 3.04 3.387 1.548 10.726.422 13.972l3.8 3.387c6.415 3.726 22.51-6.916 29.123-9.315z" fill="url(#paint9_linear)"/></g><path d="M83.835 147.305c12.493-13.21 9.316-43.609 6.502-52.924l11.818 12.279-6.924 25.826-8.02 19.476-15.194 30.484-6.754 23.71 41.946 73.246-4.221 2.964c-67.112-31.331-34.77-118.549-19.153-135.061z" fill="#484266"/><path d="M177.753 374.642c9.593-24.852-2.118-53.73-12.724-67.79l-17.466 100.537c3.699-2.379 20.597-7.896 30.19-32.747z" fill="url(#paint10_linear)"/><path d="M42.218 28.8c-7.09-.678-5.768 12.136-4.22 18.628-1.689 1.017-9.145-.987-12.663-2.116-4.761.166-5.782 4.704-10.129 10.16-4.515 5.67-12.274 12.395-12.663 19.9-2.11 40.645 12.24 31.331 15.195 33.871 2.363 2.032.985 16.936 0 24.133 3.617.585 9.272-11.314 14.352-10.628 9.708 0 13.612 14.412 15.194 14.015 3.376-.846 7.175-14.818 16.883-27.52 7.766-10.161 21.526-13.83 27.435-14.395l9.708.423c9.455-2.032 10.13-11.008 9.286-15.242-1.829 2.258-6.5 6.605-10.552 5.928-4.052-.678-1.688-4.799 0-6.774 21.526-7.198 33.345-28.79 35.033-33.872 1.688-5.08 3.799-30.907 1.688-26.673-2.11 4.234-28.279 20.746-31.656 24.133-2.701 2.71-1.126 9.032 0 11.855-4.39 4.742-10.552 1.976-13.085 0-.422-2.681.845-8.891-5.487-15.242-5.886-5.905-20.26-6.774-25.325-5.504-5.065 1.27-10.13-4.234-18.994-5.08z" fill="#443E65"/><path d="M101.769 238.334c4.052-5.758-1.864-13.125-5.522-16.089-1.548-.282-7.345 2.371-13.085 10.161-5.74 7.791 1.02 9.879 4.679 10.585l13.928-4.657z" fill="#625A8A"/><path d="M97.942 229.865c-7.766 2.71-9.426 9.315-9.285 12.279 1.125.705 3.292 3.472 2.955 8.891-.338 5.419 1.547 5.645 2.532 5.081 12.831-12.533 7.879-22.722 3.798-26.251z" fill="#ECD2BA"/><path opacity=".2" d="M97.935 229.865c-7.598-.847-10.553 9.315-9.287 12.278 4.644-6.774 13.507-3.387 13.507-5.927 0-2.032-2.532-5.081-4.22-6.351z" fill="#201C33"/><g filter="url(#filter6_d)"><path d="M86.574 218.857c-6.754 0-8.723 10.162-8.864 15.242-.416 3.726 2.922 5.787 4.643 6.351-3.377-6.774 7.984-14.395 11.36-16.512 2.702-1.694 5.206.564 5.91 2.117l-.809-2.964c-1.266-1.411-5.487-4.234-12.24-4.234z" fill="#625A8A"/></g><path d="M46.019 95.651c2.026-2.71-1.267-10.726-2.11-14.818L10.985 97.345l2.532 27.097-4.959 4.657c-3.039 7.451-1.372 10.443 1.582 11.855 16.462 2.963 16.462-22.44 16.462-27.521 0-5.08 16.883-14.395 19.416-17.782z" fill="#443E65"/><path d="M45.052 154.926c-.637 1.694-1.53 3.811 0 3.811 1.529 0 1.389-1.694 0-3.811zm-22.043-23.715c-3.465-6.66-5.63-21.119-3.704-26.668 6.93.783 14.452 6.264 14.773 8.059-1.765.49-5.006 2.155-3.85 4.897 1.443 3.428-1.444 4.897-2.407 3.918-.77-.784-.962-3.265-.962-4.407-2.31 4.309.962 8.279 1.443 14.201.51 6.282.77 15.67-3.85 15.67-5.774 0 2.888-7.345-1.443-15.67z" fill="#78EF40"/><path opacity=".4" d="M46.44 131.639c4.052-.338 6.368-17.366 8.478-27.809-2.954 0-8.441 5.504-11.818 6.774-3.377 1.27-13.085-5.928-14.773-6.774-1.689-.847-13.929 2.54-10.974 4.233 2.954 1.694 4.83 18.396 6.717 19.343 2.532 1.27 1.266-4.791 9.25-4.791 4.643 0 10.78 9.22 13.12 9.024z" fill="#161326"/><path d="M50.085 151.957c-3.465-6.66-4.24-19.002-2.315-24.552 6.93.784 13.063 4.148 13.384 5.943-1.765.49-5.005 2.155-3.85 4.897 1.444 3.428-1.444 4.897-2.407 3.918-.77-.784-.962-3.265-.962-4.408-2.31 4.31.84 8.66 1.444 14.202.647 5.932.77 15.67-3.85 15.67-5.775 0 2.887-7.345-1.444-15.67z" fill="#78EF40"/><path d="M78.941 99.885c2.026-2.71-1.266-10.726-2.11-14.818l-22.37 15.665-7.914 27.52-5.065 5.081c-3.04 7.452 2.11 12.137 5.065 13.548 16.461 2.964 15.933-24.556 15.933-29.637 0-5.08 13.929-13.972 16.461-17.359z" fill="#443E65"/><path opacity=".4" d="M105.11 87.184c.282 19.758-37.675 87.062-41.364 67.742-3.295-17.263-20.461-2.558-23.116-.107l-.1.107c-.372.355-.305.267.1-.107 1.166-1.261 12.241-13.393 15.94-23.18 3.14-8.311 3.799-22.439 3.799-22.439l44.741-22.016z" fill="#201C33"/><path d="M48.993 131.639c-2.297 1.466-5.507-3.387-6.332-4.567-2.054-2.941-1.773 18.46 6.332 17.782 10.13-.846 7.155-17.782 0-13.215zm-37.354-4.803c-2.297 1.466-5.507-3.387-6.331-4.567-2.055-2.941-1.773 18.46 6.33 17.782 10.13-.846 7.157-17.782 0-13.215z" fill="#797399"/><path d="M50.26 131.216c-2.364 1.355-5.783-7.327-8.442-4.657-2.53 2.54-1.773 18.46 6.331 17.782 10.13-.847 5.065-14.818 2.11-13.125z" fill="#D3CFE5"/><path d="M52.227 129.847c-1.013-1.355-4.098-1.313-5.786-.748 0 0 2.456 2.036 3.377 3.387.82 1.204.299 3.387 1.987 3.387 1.689 0 1.435-4.671.422-6.026z" fill="#5FC131"/><path d="M12.272 126.649c-2.364 1.354-5.783-7.327-8.442-4.658-2.53 2.541-1.773 18.46 6.331 17.783 10.13-.847 5.065-14.819 2.11-13.125zm30.495-12.792c-2.955-3.811-5.628-2.964-6.754-2.117-.703 1.835-2.194 6.097-.844 6.774 1.35.678 5.769-2.963 7.598-4.657z" fill="#D3CFE5"/><path opacity=".2" d="M40.234 115.975c1.266-2.541-1.266-3.67-3.377-4.658 3.377-1.694 4.784.988 5.487 2.541 0 0 .632-.304.422 0-.469.68-2.532 2.117-2.532 2.117z" fill="#797399"/><path d="M7.609 106.659c4.326-2.115 6.747 1.104 7.385 2.362-.174 1.958-.706 6.443-2.216 6.455-1.51.011-4.27-6.488-5.169-8.817z" fill="#D3CFE5"/><path opacity=".2" d="M8.414 107.614c1.497-.747 1.512 5.547 5.945 5.397 2.114-7.622-2.075-6.825-3.772-6.925 0 0 .055-.701-.152-.395-.333.491-1.43 1.432-2.021 1.923a1.377 1.377 0 0 0-.386.316s.154-.123.386-.316z" fill="#797399"/><path d="M42.345 114.281c2.026 0 6.33-6.492 7.597-8.891 0 0-4.875 4.471-7.597 4.657-2.194.15-5.487-1.694-5.487-1.694l-.845 3.387c2.364-.677 4.221-.846 6.332 2.541z" fill="#797399"/><path d="M61.228 33.88c-5.065 1.27-12.677-5.97-21.54-6.818-7.03 2.258-24.466 28.41-24.466 28.41s-12.05 12.41-12.664 19.9c-1.28 15.622-1.964 34.082 11.82 33.404 5.015-.246 1.25-2.963 9.692-2.963 7.408 0 10.561 6.35 19.006 4.657 8.445-1.694 8.445-7.198 21.108-8.891 12.652-1.692 21.525-6.167 27.434-6.731l9.708.423c9.455-2.032 10.13-11.008 9.286-15.242-1.829 2.258-6.5 6.605-10.552 5.928-4.052-.678-1.689-4.799 0-6.774 21.526-7.198 33.344-28.79 35.033-33.872 1.688-5.08 3.798-30.907 1.688-26.673-2.11 4.234-28.28 20.746-31.656 24.133-2.702 2.71-1.126 9.032 0 11.855-4.39 4.742-10.552 1.976-13.085 0-.422-2.681.844-8.891-5.487-15.242-5.887-5.905-20.26-6.774-25.325-5.504z" fill="url(#paint11_linear)"/><path d="M39.265 64.32c1.013 0 1.83-5.644 2.11-8.467 0 7.621 0 7.621-2.11 10.585-1.688 2.37-3.517 19.9-4.22 28.367v8.468h-2.111V86.76c1.688-7.48 5.318-22.44 6.331-22.44zm57.403 63.515c-3.73 10.155-11.115 5.357-13.928 4.228 2.391-10.303 12.746-31.416 21.526-31.754 8.779-.339 14.773 4.234 5.909 19.899-2.11-.282-11.143 1.192-13.507 7.627z" fill="#3C385B"/><path opacity=".2" d="M106.619 101.575c-.989-2.293-5.357-.955-7.418 0l-.422 8.895s3.377 6.351 6.331 2.964c2.955-3.387 2.498-9.566 1.509-11.859z" fill="#201C33"/><path d="M89.198 131.759c1.688 0 7.598-6.774 7.598-11.432l-8.864 4.658-4.221 5.08c1.126.565 3.799 1.694 5.487 1.694z" fill="#322D4C"/><path d="M98.778 97.888c-2.363-.678-7.738 1.693-10.13 2.963l5.91 21.17c1.407-1.412 4.896-5.081 7.597-8.468 3.377-4.234-2.11-9.738-2.11-11.855 0-2.117 1.688-2.964-1.267-3.81z" fill="#6C5C99"/><path d="M99.75 114.823c3.376-7.452-1.97-13.266-5.066-15.242-15.617 0-18.571 13.548-20.26 17.359-1.35 3.048 8.442 6.915 13.507 8.468 7.471 0 8.442-3.134 11.818-10.585z" fill="#6C5C99"/><path d="M81.473 131.216s5.909-3.388 6.33 0c.247 1.976-3.798 2.541-3.798 2.541l-2.532-2.541zm-5.781-5.491c-.563-3.246-1.325-8.254.716-8.481 3.799-.423 4.642 1.27 5.065 2.54 2.673 0 8.02 1.27 6.33 4.234-1.184 2.08-3.95 3.118-6.624 4.247l-3.377-1.27-2.11-1.27z" fill="#B2ADCC"/><path d="M75.69 127.101c-.562-3.246-1.181-9.653.845-9.314 2.532.423 3.799 1.693 4.22 2.964 2.674 0 7.514.592 7.176 2.963-.337 2.371-4.08 4.799-6.753 5.928l-3.377-1.27-2.11-1.271z" fill="#D3CFE5"/><path d="M80.629 120.208l-2.955 8.044h.422l2.955-7.621-.422-.423zm-59.935-15.459c-.844-1.477-4.221-1.9-4.668.424.675 5.419 4.808 4.939 6.778 4.657 2.026 2.71 4.784 1.129 5.91 0 0 1.355 2.572 1.179 4.22.847 3.188-.642 7.176-4.441 4.221-6.981-2.205-1.897-6.613.207-8.442 1.477-3.376-2.71-6.753-1.412-8.02-.424z" fill="#B2ADCC"/><path d="M20.694 106.443c-.845-.988-2.955-2.625-4.643-1.27.675 5.419 4.783 6.633 6.753 6.351 2.026 2.709 4.784 1.129 5.909 0 0 1.354 2.573 1.178 4.22.846 3.188-.642 6.585-5.504 4.222-7.197-2.364-1.694-6.613.423-8.442 1.693-3.377-2.709-6.753-1.411-8.02-.423z" fill="#D3CFE5"/><path opacity=".7" d="M60.791 59.284L41.376 86.381s11.263-.654 16.039-5.504c5.925-6.018 3.376-21.593 3.376-21.593zM36.733 66.86c0 5.145-4.157 10.162-9.286 10.162-5.128 0-8.02-4.17-8.02-9.315 0-5.144 5.846-10.584 10.975-10.584 5.128 0 6.331 4.593 6.331 9.738z" fill="#332E4D"/><path d="M33.778 67.328c0 5.144-2.891 9.314-8.02 9.314-5.128 0-8.019-4.17-8.019-9.314 0-5.145 5.846-10.585 10.974-10.585 5.129 0 5.065 5.44 5.065 10.584z" fill="url(#paint12_linear)"/><path opacity=".7" d="M24.493 91.461c0 3.04-2.268 5.504-5.065 5.504-2.797 0-5.065-2.464-5.065-5.504 0-3.04 3.956-7.621 6.753-7.621s3.377 4.581 3.377 7.621z" fill="#332E4D"/><path d="M22.804 91.461c0 3.04-2.267 5.504-5.065 5.504-2.797 0-5.065-2.464-5.065-5.504 0-3.04 3.956-7.621 6.754-7.621 2.797 0 3.376 4.581 3.376 7.621z" fill="url(#paint13_linear)"/><path d="M56.877 77.6c-4.871 6.634-14.812 7.594-14.812 7.594s-4.348-11.496.523-18.13c4.871-6.636 17.117-5.897 17.117-5.897s2.043 9.797-2.828 16.432z" fill="url(#paint14_linear)"/><path opacity=".7" d="M3.391 76.219c1.866 4.105 7.084 5.738 7.084 5.738s3.617-5.675 1.751-9.78c-1.866-4.105-7.15-5.74-7.15-5.74s-3.551 5.677-1.685 9.782z" fill="#332E4D"/><path d="M4.236 74.992c1.866 4.105 7.084 5.738 7.084 5.738s3.617-5.675 1.75-9.78c-1.866-4.105-8.509-5.086-8.509-5.086s-2.192 5.023-.325 9.128z" fill="url(#paint15_linear)"/><path opacity=".7" d="M36.49 95.305c-3.027 2.5-7.739 1.778-7.739 1.778s-.67-5.835 2.358-8.336c3.029-2.5 8.608-.72 8.608-.72s-.198 4.778-3.226 7.278z" fill="#332E4D"/><path d="M35.647 94.527c-3.029 2.5-7.74 1.777-7.74 1.777s-.67-5.834 2.358-8.335c3.029-2.5 8.608-.72 8.608-.72s-.198 4.778-3.226 7.278z" fill="url(#paint16_linear)"/><path opacity=".7" d="M4.233 92.688c1.26 1.605 4.22 1.27 4.22 1.27s.245-1.841-1.016-3.446c-1.261-1.604-3.454-2.482-3.454-2.482s-1.011 3.053.25 4.658z" fill="#332E4D"/><path d="M4.828 92.016c1.261 1.605 3.732 1.76 3.732 1.76s.982-2.886-.279-4.49c-1.26-1.605-4.288-1.32-4.288-1.32s-.426 2.446.835 4.05z" fill="url(#paint17_linear)"/><defs><filter id="filter0_d" x="9.659" y="182.733" width="20.386" height="35.97" filterUnits="userSpaceOnUse" color-interpolation-filters="sRGB"><feFlood flood-opacity="0" result="BackgroundImageFix"/><feColorMatrix in="SourceAlpha" values="0 0 0 0 0 0 0 0 0 0 0 0 0 0 0 0 0 0 127 0"/><feOffset dx="-2.538"/><feGaussianBlur stdDeviation="1.692"/><feColorMatrix values="0 0 0 0 0.292345 0 0 0 0 0.264147 0 0 0 0 0.433333 0 0 0 0.6 0"/><feBlend in2="BackgroundImageFix" result="effect1_dropShadow"/><feBlend in="SourceGraphic" in2="effect1_dropShadow" result="shape"/></filter><filter id="filter1_d" x="20.265" y="200.906" width="50.556" height="77.085" filterUnits="userSpaceOnUse" color-interpolation-filters="sRGB"><feFlood flood-opacity="0" result="BackgroundImageFix"/><feColorMatrix in="SourceAlpha" values="0 0 0 0 0 0 0 0 0 0 0 0 0 0 0 0 0 0 127 0"/><feOffset dx=".846" dy="1.692"/><feGaussianBlur stdDeviation="1.692"/><feColorMatrix values="0 0 0 0 0.292345 0 0 0 0 0.264147 0 0 0 0 0.433333 0 0 0 0.6 0"/><feBlend in2="BackgroundImageFix" result="effect1_dropShadow"/><feBlend in="SourceGraphic" in2="effect1_dropShadow" result="shape"/></filter><filter id="filter2_d" x="20.793" y="169.213" width="55.515" height="61.298" filterUnits="userSpaceOnUse" color-interpolation-filters="sRGB"><feFlood flood-opacity="0" result="BackgroundImageFix"/><feColorMatrix in="SourceAlpha" values="0 0 0 0 0 0 0 0 0 0 0 0 0 0 0 0 0 0 127 0"/><feOffset dx=".846" dy="1.692"/><feGaussianBlur stdDeviation="1.692"/><feColorMatrix values="0 0 0 0 0.292345 0 0 0 0 0.264147 0 0 0 0 0.433333 0 0 0 0.6 0"/><feBlend in2="BackgroundImageFix" result="effect1_dropShadow"/><feBlend in="SourceGraphic" in2="effect1_dropShadow" result="shape"/></filter><filter id="filter3_d" x="28.599" y="138.305" width="62.061" height="51.515" filterUnits="userSpaceOnUse" color-interpolation-filters="sRGB"><feFlood flood-opacity="0" result="BackgroundImageFix"/><feColorMatrix in="SourceAlpha" values="0 0 0 0 0 0 0 0 0 0 0 0 0 0 0 0 0 0 127 0"/><feOffset dx=".846" dy="1.692"/><feGaussianBlur stdDeviation="1.692"/><feColorMatrix values="0 0 0 0 0.292345 0 0 0 0 0.264147 0 0 0 0 0.433333 0 0 0 0.6 0"/><feBlend in2="BackgroundImageFix" result="effect1_dropShadow"/><feBlend in="SourceGraphic" in2="effect1_dropShadow" result="shape"/></filter><filter id="filter4_d" x="45.518" y="101.047" width="53.19" height="60.733" filterUnits="userSpaceOnUse" color-interpolation-filters="sRGB"><feFlood flood-opacity="0" result="BackgroundImageFix"/><feColorMatrix in="SourceAlpha" values="0 0 0 0 0 0 0 0 0 0 0 0 0 0 0 0 0 0 127 0"/><feOffset dx=".846" dy="1.692"/><feGaussianBlur stdDeviation="1.692"/><feColorMatrix values="0 0 0 0 0.292345 0 0 0 0 0.264147 0 0 0 0 0.433333 0 0 0 0.6 0"/><feBlend in2="BackgroundImageFix" result="effect1_dropShadow"/><feBlend in="SourceGraphic" in2="effect1_dropShadow" result="shape"/></filter><filter id="filter5_d" x="56.707" y="93.113" width="41.884" height="46.927" filterUnits="userSpaceOnUse" color-interpolation-filters="sRGB"><feFlood flood-opacity="0" result="BackgroundImageFix"/><feColorMatrix in="SourceAlpha" values="0 0 0 0 0 0 0 0 0 0 0 0 0 0 0 0 0 0 127 0"/><feOffset dx=".846" dy="1.692"/><feGaussianBlur stdDeviation="1.692"/><feColorMatrix values="0 0 0 0 0.292345 0 0 0 0 0.264147 0 0 0 0 0.433333 0 0 0 0.6 0"/><feBlend in2="BackgroundImageFix" result="effect1_dropShadow"/><feBlend in="SourceGraphic" in2="effect1_dropShadow" result="shape"/></filter><filter id="filter6_d" x="75.137" y="217.165" width="28.716" height="28.361" filterUnits="userSpaceOnUse" color-interpolation-filters="sRGB"><feFlood flood-opacity="0" result="BackgroundImageFix"/><feColorMatrix in="SourceAlpha" values="0 0 0 0 0 0 0 0 0 0 0 0 0 0 0 0 0 0 127 0"/><feOffset dx=".846" dy="1.692"/><feGaussianBlur stdDeviation="1.692"/><feColorMatrix values="0 0 0 0 0.292345 0 0 0 0 0.264147 0 0 0 0 0.433333 0 0 0 0.6 0"/><feBlend in2="BackgroundImageFix" result="effect1_dropShadow"/><feBlend in="SourceGraphic" in2="effect1_dropShadow" result="shape"/></filter><linearGradient id="paint0_linear" x1="155.761" y1="117.244" x2="114.761" y2="94.911" gradientUnits="userSpaceOnUse"><stop stop-color="#ECD2BA"/><stop offset="1" stop-color="#ECD2BA"/></linearGradient><linearGradient id="paint1_linear" x1="155.761" y1="117.244" x2="114.761" y2="94.911" gradientUnits="userSpaceOnUse"><stop stop-color="#ECD2BA"/><stop offset="1" stop-color="#ECD2BA"/></linearGradient><linearGradient id="paint2_linear" x1="155.761" y1="117.244" x2="114.761" y2="94.911" gradientUnits="userSpaceOnUse"><stop stop-color="#ECD2BA"/><stop offset="1" stop-color="#ECD2BA"/></linearGradient><linearGradient id="paint3_linear" x1="87.805" y1="5.893" x2="45.906" y2="42.6" gradientUnits="userSpaceOnUse"><stop stop-color="#443A61"/><stop offset="1" stop-color="#231842"/></linearGradient><linearGradient id="paint4_linear" x1="97.567" y1="244.99" x2="53.321" y2="313.777" gradientUnits="userSpaceOnUse"><stop stop-color="#666183"/><stop offset="1" stop-color="#817AA4"/></linearGradient><linearGradient id="paint5_linear" x1="66.962" y1="206.459" x2="5.932" y2="252.417" gradientUnits="userSpaceOnUse"><stop stop-color="#666183"/><stop offset="1" stop-color="#817AA4"/></linearGradient><linearGradient id="paint6_linear" x1="72.49" y1="173.899" x2="23.395" y2="226.973" gradientUnits="userSpaceOnUse"><stop stop-color="#666183"/><stop offset="1" stop-color="#817AA4"/></linearGradient><linearGradient id="paint7_linear" x1="86.898" y1="142.455" x2="49.542" y2="198.274" gradientUnits="userSpaceOnUse"><stop stop-color="#666183"/><stop offset="1" stop-color="#817AA4"/></linearGradient><linearGradient id="paint8_linear" x1="94.871" y1="105.703" x2="46.176" y2="156.359" gradientUnits="userSpaceOnUse"><stop stop-color="#666183"/><stop offset="1" stop-color="#817AA4"/></linearGradient><linearGradient id="paint9_linear" x1="94.659" y1="97.01" x2="58.45" y2="135.299" gradientUnits="userSpaceOnUse"><stop stop-color="#666183"/><stop offset="1" stop-color="#817AA4"/></linearGradient><linearGradient id="paint10_linear" x1="144.26" y1="356.882" x2="183.131" y2="374.152" gradientUnits="userSpaceOnUse"><stop stop-color="#484266" stop-opacity="0"/><stop offset="1" stop-color="#484266"/></linearGradient><linearGradient id="paint11_linear" x1="102.566" y1="123.595" x2="30.544" y2="34.901" gradientUnits="userSpaceOnUse"><stop stop-color="#77488C"/><stop offset="1" stop-color="#6C5C99"/></linearGradient><linearGradient id="paint12_linear" x1="25.759" y1="56.743" x2="25.759" y2="76.642" gradientUnits="userSpaceOnUse"><stop stop-color="#61CF0A"/><stop offset="1" stop-color="#EEA210"/></linearGradient><linearGradient id="paint13_linear" x1="17.739" y1="83.84" x2="17.739" y2="96.965" gradientUnits="userSpaceOnUse"><stop stop-color="#CFB00A"/><stop offset="1" stop-color="#EEA210"/></linearGradient><linearGradient id="paint14_linear" x1="58.553" y1="60.318" x2="40.863" y2="84.308" gradientUnits="userSpaceOnUse"><stop stop-color="#61CF0A"/><stop offset="1" stop-color="#EEA210"/></linearGradient><linearGradient id="paint15_linear" x1="5.274" y1="65.538" x2="12.067" y2="80.388" gradientUnits="userSpaceOnUse"><stop stop-color="#61CF0A"/><stop offset="1" stop-color="#EEA210"/></linearGradient><linearGradient id="paint16_linear" x1="38.439" y1="86.721" x2="27.445" y2="95.742" gradientUnits="userSpaceOnUse"><stop stop-color="#CFB00A"/><stop offset="1" stop-color="#EEA210"/></linearGradient><linearGradient id="paint17_linear" x1="4.271" y1="87.745" x2="8.855" y2="93.542" gradientUnits="userSpaceOnUse"><stop stop-color="#CFB00A"/><stop offset="1" stop-color="#EEA210"/></linearGradient></defs></svg>