<svg width="71" height="69" fill="none" xmlns="http://www.w3.org/2000/svg"><g filter="url(#filter0_d)"><path d="M23.373 50.276l-2.202 2.488L9.8 35.864 23.71 8.245l19.988 4.389 19.68 17.43-7.755 19.075-12.784-1.422-19.466 2.56z" fill="#484266" fill-opacity=".2"/><path d="M17.182 33.868l3.875 19.818-5.51-4.88-5.748-12.942 7.383-1.996z" fill="#7B749D"/><path d="M9.8 35.864l6.773 7.023.61-9.019-7.384 1.995zm33.576 11.643l-20.002 2.768-6.164-16.042 18.542-5.085 7.623 18.359z" fill="#726C8F"/><path d="M23.374 50.276L17.21 34.233l-.637 8.653 4.484 10.8 2.317-3.411z" fill="#8984A6"/><path d="M55.624 49.138l-12.248-1.63-7.624-18.359 19.872 19.99z" fill="#918DAA"/><path d="M63.209 30.253l-7.586 18.885-19.844-19.624L52.75 20.65l10.458 9.603z" fill="#726C8F"/><path d="M52.752 20.65l-16.945 9.23 7.695-17.422 9.25 8.192z" fill="#79729B"/><path d="M23.88 8.053L9.63 36.055l26.515-6.558 7.16-17.213-9.094-1.227-10.33-3.004z" fill="#484266"/><path d="M43.67 12.267l-29.234 14.39 10.889 5.547 10.82-2.707 7.526-17.23z" fill="#5C5677"/></g><defs><filter id="filter0_d" x="9.63" y="2.977" width="61.361" height="52.401" filterUnits="userSpaceOnUse" color-interpolation-filters="sRGB"><feFlood flood-opacity="0" result="BackgroundImageFix"/><feColorMatrix in="SourceAlpha" values="0 0 0 0 0 0 0 0 0 0 0 0 0 0 0 0 0 0 127 0"/><feOffset dx="4.23" dy="-1.692"/><feGaussianBlur stdDeviation="1.692"/><feColorMatrix values="0 0 0 0 0 0 0 0 0 0 0 0 0 0 0 0 0 0 0.35 0"/><feBlend in2="BackgroundImageFix" result="effect1_dropShadow"/><feBlend in="SourceGraphic" in2="effect1_dropShadow" result="shape"/></filter></defs></svg>