<svg width="350" height="204" fill="none" xmlns="http://www.w3.org/2000/svg"><path d="M44.843 110.614l6.142-4.829-6.018 8.812-.124-3.983z" fill="#0B0D2C"/><path d="M31.932 102.64c1.42-4.462 6.51-4.429 11.694-2.093 5.186 2.336 7.878 7.783 6.015 12.167.879-.016-.463-9.221-6.814-11.536-8.851-3.571-11.023 1.866-10.895 1.462z" fill="#0F1344"/><g filter="url(#filter0_f)"><path d="M47.633 110.815c-1.327 2.749-5.879 2.804-9.464.399-3.585-2.404-5.161-6.481-3.52-9.105 1.643-2.625 5.418-2.302 9.003.102 3.585 2.405 5.623 5.979 3.981 8.604z" fill="#10DAE7" fill-opacity=".4"/></g><path opacity=".7" d="M156.626 127.822c-19.374 7.748-86.76-17.365-109.382-30.426l-11.495 30.76c40.628 33.338 102.445 8.983 120.877-.334z" fill="url(#paint0_linear)"/><path opacity=".7" d="M136.572 130.563c-21.659 2.053-63.221-17.622-82.344-28.543l-4.95 32.645c31.91 14.824 71.747 3.629 87.294-4.102z" fill="url(#paint1_linear)"/><g filter="url(#filter1_d)"><path d="M6.759 108.165c2.534.848 10.637-25.102 14.989-36.91 3.25 6.729 25.737 30.185 42.32 36.267-.726 4.788.72 20.593 2.606 30.677-18.737 2.496-67.23-32.481-59.915-30.034z" fill="url(#paint2_linear)"/></g><path d="M3.914 107.288c1.231-2.485 12.088-26.218 16.44-38.025 3.25 6.728 27.142 32.179 43.725 38.261-.726 4.788.01 21.525 2.958 31.176-14.783 1.761-64.428-28.777-63.123-31.412z" fill="#101235"/><path d="M6.671 105.925c2.162-.741 10.504-37.817 14.44-36.102 4.712 2.051 26.385 31.618 42.968 37.701-.726 4.788-.473 19.669 2.475 29.32-14.783 1.762-62.585-29.994-59.883-30.919z" fill="url(#paint3_linear)"/><path d="M17.569 90.215c-1.44-6.275 3.619-7.911 6.328-7.945 1.669.254 15.595 9.94 15.55 13.05-.036 2.489 9.136 7.326 13.55 9.185 2.146 1.81 5.296 6.593 6.367 8.537 1.072 1.944-.213 5.163-.99 6.529 2.357 2.288 3.931 10.84 1.23 11.765-5.925 2.029-15.865-3.153-19.547-6.087-1.047-.605-4.123-5.792-4.966-6.989s-3.456-.674-4.657-.263c-5.52-3.955-16.256-12.177-15.043-13.418 1.213-1.241-.212-3.298-1.076-4.171-.541-1.122-1.058-3.724 1.21-5.16 2.267-1.437 2.307-3.954 2.044-5.033z" fill="#141744"/><path d="M57.855 116.689l-8.632-7.592-5.327 7.241 13.96.351z" fill="#2C338D"/><path d="M43.895 116.338l13.96.351-8.592-5.834-5.368 5.483z" fill="#0B0D2C"/><path d="M26.208 95.34l10.609 4.12-3.538 8.331-7.071-12.45z" fill="#2D338D"/><path d="M33.28 107.792l-7.07-12.451 9.101 4.936-2.03 7.515z" fill="#0B0D2C"/><path d="M44.954 123.766l3.803-11-7.53-3.32 3.727 14.32z" fill="#2D338D"/><path d="M35.335 111.172l9.619 12.594.923-11.697-10.542-.897z" fill="#0B0D2C"/><path d="M24.419 109.959l10.719 2.519-2.107-10.203-8.612 7.684z" fill="#2D338D"/><path d="M33.032 102.275l-8.612 7.683 8.87-1.748-.258-5.935z" fill="#0B0D2C"/><path d="M44.055 115.614l-9.977 3.81.177-9.717 9.8 5.907z" fill="#2D338D"/><path d="M38.542 112.55l-4.465 6.873-1.817-10.499 6.282 3.626z" fill="#0B0D2C"/><path d="M36.874 103.372l9.273-4.362-2.221 9.014-7.052-4.652z" fill="#2D338D"/><path d="M44.123 106.718l2.023-7.708.435 10.736-2.458-3.028z" fill="#0B0D2C"/><path d="M33.408 106.615l3.689-9.87 4.518 7.928-8.207 1.942z" fill="#2D338D"/><path d="M40.87 103.616l-3.773-6.871 7.589 7.176-3.816-.305z" fill="#0B0D2C"/><path d="M41.171 103.301l9.77 2.435-5.892 7.61-3.878-10.045z" fill="#2D338D"/><path d="M49.22 113.689c-2.09 4.173-8.4 4.702-13.144 1.52-4.745-3.182-6.552-9.02-4.037-13.042 2.515-4.02 7.714-3.917 12.459-.736 4.744 3.182 7.238 8.237 4.723 12.258z" fill="#191D5C"/><path d="M49.22 113.69c-2.09 4.173-8.4 4.701-13.144 1.52-4.745-3.182-6.552-9.021-4.037-13.042-.868-.132-.49 8.64 5.405 11.997 7.467 4.251 11.966-.854 11.777-.475z" fill="#20267C"/><g filter="url(#filter2_d)"><path d="M36.463 101.053c.005.144.001.295-.01.454-.009 1.358.116 5.4 1.828 7.201 1.368 1.44 2.608 2.779 4.501 2.237.502-.143.82-.228 1.207-.593 1.2-1.132-.167-2.842-1.244-4.073-.823-.94-2.502-2.84-2.74-1.581-.087.466-.195 1.251.135 1.574.312.306.843-.649.843-.649s.833.913.919 1.305c.086.392-.173 1.139-.173 1.139s-1.173.044-1.82-.277c-1.399-.692-1.835-2.135-1.666-3.748.08-.76.154-1.276.652-1.843 1.189-1.353 2.833.375 4.253 1.423 2.767 2.043 5.434 6.297 2.795 8.58-.898.777-.843.649-2.778 1.132-1.935.482-5.32-1.338-6.82-4.143-1.367-2.56-.035-5.684.108-7.684.002-.287.01-.454.01-.454z" fill="#E5004C"/></g><path d="M141.337 175.86l1.325-4.634.204 6.489-1.529-1.855z" fill="#0B0D2C"/><path d="M131.879 176.944c-.925-2.669 1.658-4.581 5.137-5.431 3.479-.849 6.844.732 7.517 3.531.438-.341-3.629-4.228-7.689-2.927-5.785 1.649-4.881 5.069-4.965 4.827z" fill="#0F1344"/><g filter="url(#filter3_f)"><path d="M142.822 174.899c.342 1.816-1.937 3.567-4.634 3.777-2.696.211-4.993-1.139-5.13-3.015-.137-1.875 1.889-3.152 4.586-3.362 2.696-.211 5.041.724 5.178 2.6z" fill="#10DAE7" fill-opacity=".4"/></g><path opacity=".4" d="M204.134 141.714c-6.934 11.043-50.216 24.587-66.451 26.923l5.518 19.047c32.795.523 55.053-34.535 60.933-45.97z" fill="url(#paint4_linear)"/><path opacity=".5" d="M195.013 150.624c-10.184 9.188-38.42 15.544-52.1 17.575l9.518 17.466c21.575-5.013 37.576-25.457 42.582-35.041z" fill="url(#paint5_linear)"/><g filter="url(#filter4_d)"><path d="M121.198 189.124c1.593-.556-3.868-16.019-6.017-23.307 4.119 1.981 24.112 4.661 34.727 1.281 1.396 2.562 7.945 9.562 12.611 13.662-8.546 8.293-45.916 9.967-41.321 8.364z" fill="url(#paint6_linear)"/></g><path d="M119.439 189.782c-.293-1.653-3.547-17.101-5.695-24.389 4.118 1.982 25.556 5.081 36.171 1.701 1.396 2.562 7.929 10.276 12.971 13.767-6.819 6.444-43.136 10.675-43.447 8.921z" fill="#101235"/><path d="M120.329 188.087c.819-1.173-8.617-22.04-5.997-22.713 3.135-.806 24.967 5.1 35.582 1.72 1.396 2.562 7.002 9.573 12.045 13.065-6.819 6.444-42.654 9.394-41.63 7.928z" fill="url(#paint7_linear)"/><path d="M120.051 176.454c-3.037-2.451-1.084-5.149.272-6.192.936-.511 11.536-1.163 12.659.339.898 1.202 7.311.036 10.225-.749 1.75.051 5.102 1.142 6.359 1.664 1.257.522 1.793 2.547 1.904 3.493 2.033.2 5.976 3.687 4.952 5.153-2.246 3.214-9.174 4.506-12.114 4.501-.752.108-4.215-1.204-5.082-1.456-.866-.252-1.993.988-2.448 1.639-4.245.203-12.695.345-12.539-.707.156-1.052-1.321-1.494-2.079-1.584-.686-.33-1.905-1.377-1.288-2.923.616-1.545-.29-2.762-.821-3.178z" fill="#141744"/><path d="M150.147 173.83l-7.156-.354-.025 5.477 7.181-5.123z" fill="#202453"/><path d="M142.966 178.953l7.181-5.123-6.488.47-.693 4.653z" fill="#0B0D2C"/><path d="M126.302 175.628l6.876-2.053 1.28 5.32-8.156-3.267z" fill="#202453"/><path d="M134.457 178.894l-8.156-3.266 6.415-1.092 1.741 4.358z" fill="#0B0D2C"/><path d="M146.235 182.099l-2.128-6.694-5.026 1.268 7.154 5.426z" fill="#202453"/><path d="M136.74 179.73l9.495 2.369-3.839-5.936-5.656 3.567z" fill="#0B0D2C"/><path d="M130.78 183.287l6.342-2.859-4.821-4.074-1.521 6.933z" fill="#202453"/><path d="M132.301 176.354l-1.521 6.933 3.837-4.196-2.316-2.737z" fill="#0B0D2C"/><path d="M142.78 178.546l-3.638 5.601-3.488-4.708 7.126-.893z" fill="#202453"/><path d="M138.868 179.172l.275 4.975-4.783-4.326 4.508-.649z" fill="#0B0D2C"/><path d="M134.644 175.422l3.078-5.597 2.196 5.146-5.274.451z" fill="#202453"/><path d="M139.539 174.272l-1.816-4.447 4.172 4.961-2.356-.514z" fill="#0B0D2C"/><path d="M134.088 178.284l-1.771-6.112 5.202 2.074-3.431 4.038z" fill="#202453"/><path d="M136.753 174.023l-4.435-1.851 6.475.551-2.04 1.3z" fill="#0B0D2C"/><path d="M136.79 173.758l5.832-2.539-.175 5.867-5.657-3.328z" fill="#202453"/><path d="M144.68 175.67c.48 2.785-2.512 5.429-6.08 5.708-3.568.278-6.63-1.825-6.84-4.699-.21-2.873 2.454-4.794 6.022-5.073 3.567-.278 6.688 1.19 6.898 4.064z" fill="#21244B"/><path d="M144.679 175.669c.481 2.786-2.512 5.429-6.08 5.708-3.567.279-6.63-1.825-6.84-4.698-.487.266 2.933 4.312 7.147 3.681 5.337-.8 5.73-4.943 5.773-4.691z" fill="#202453"/><g filter="url(#filter5_d)"><path d="M133.584 174.47c.055.066.109.14.162.22.496.652 2.047 2.535 3.574 2.746 1.222.169 2.341.339 3.098-.637.201-.259.33-.42.391-.741.189-.995-1.131-1.294-2.128-1.473-.762-.137-2.309-.408-1.965.283.127.255.361.671.646.701.271.028.188-.63.188-.63s.756.12.944.275c.188.155.332.609.332.609s-.576.466-1.021.558c-.962.199-1.713-.324-2.221-1.159-.24-.393-.392-.667-.349-1.127.102-1.097 1.568-.894 2.672-.932 2.149-.073 5.063.947 4.57 3.038-.167.711-.187.63-.987 1.593-.799.964-3.179 1.378-4.969.606-1.634-.704-2.111-2.701-2.775-3.71-.105-.138-.162-.22-.162-.22z" fill="#E5004C" fill-opacity=".5"/></g><path d="M174.057 129.905l1.885-3.146-1.136 4.828-.749-1.682z" fill="#0B0D2C"/><path d="M166.933 128.767c-.147-2.159 2.119-3.04 4.829-2.953 2.71.086 4.855 1.942 4.791 4.144.388-.161-1.812-3.861-5.036-3.734-4.554.03-4.571 2.738-4.584 2.543z" fill="#0F1344"/><g filter="url(#filter6_f)"><path d="M175.331 129.5c-.11 1.41-2.122 2.234-4.134 1.837-2.011-.397-3.421-1.864-3.15-3.275.272-1.412 2.005-1.938 4.016-1.541 2.012.397 3.54 1.568 3.268 2.979z" fill="#10DAE7" fill-opacity=".4"/></g><path opacity=".2" d="M226.701 117.59c-7.254 6.724-41.558 7.844-53.882 6.239l.256 15.18c23.855 7.107 47.064-14.19 53.626-21.419z" fill="url(#paint8_linear)"/><path opacity=".3" d="M218.273 122.292c-9.262 4.69-31.15 3.591-41.546 2.286l3.492 14.833c16.755.724 32.497-11.076 38.054-17.119z" fill="url(#paint9_linear)"/><g filter="url(#filter7_d)"><path d="M156.715 135.561c1.273-.083.349-12.608.224-18.424 2.615 2.306 16.691 8.38 25.116 8.062.512 2.176 3.909 8.681 6.504 12.662-7.886 4.365-35.519-2.059-31.844-2.3z" fill="url(#paint10_linear)"/></g><path d="M155.3 135.686c.113-1.279.798-13.34.673-19.156 2.616 2.306 17.663 8.985 26.088 8.668.512 2.176 3.756 9.204 6.748 12.813-6.259 3.355-33.63-.968-33.509-2.325z" fill="#161A4A"/><path d="M156.285 134.618c.831-.698-.941-15.699 1.106-15.658 2.45.048 16.244 6.555 24.669 6.237.512 2.176 3.218 8.496 6.21 12.105-6.259 3.355-33.023-1.813-31.985-2.684z" fill="url(#paint11_linear)"/><path d="M158.388 125.981c-1.733-2.43.228-4.02 1.426-4.512.785-.185 8.658 1.507 9.181 2.845.417 1.07 5.334 1.525 7.618 1.543 1.269.396 3.501 1.888 4.316 2.531.815.642.805 2.245.698 2.966 1.446.564 3.635 3.944 2.597 4.816-2.278 1.91-7.596 1.443-9.742.836-.571-.074-2.841-1.751-3.424-2.115-.583-.363-1.652.321-2.114.708-3.141-.72-9.342-2.347-9.02-3.091.323-.744-.669-1.373-1.204-1.595-.436-.384-1.119-1.406-.363-2.42.757-1.013.336-2.097.031-2.512z" fill="#1A1E55"/><path d="M180.894 130.214l-5.157-1.728-1.104 4.034 6.261-2.306z" fill="#202453"/><path d="M174.844 132.825l6.261-2.307-4.832-.983-1.429 3.29z" fill="#171A4A"/><path d="M163.119 126.653l5.429-.105-.119 4.186-5.31-4.081z" fill="#202453"/><path d="M168.429 130.733l-5.311-4.08 4.903.509.408 3.571z" fill="#171A4A"/><path d="M176.398 135.511l-.229-5.374-3.922-.095 4.151 5.469z" fill="#202453"/><path d="M169.931 131.817l6.467 3.693-1.628-5.165-4.839 1.472z" fill="#171A4A"/><path d="M164.872 133.22l5.2-.809-2.714-3.993-2.486 4.802z" fill="#202453"/><path d="M167.358 128.418l-2.486 4.802 3.635-2.309-1.149-2.493z" fill="#171A4A"/><path d="M174.578 132.182l-3.767 3.386-1.615-4.187 5.382.801z" fill="#202453"/><path d="M171.596 131.842l-.785 3.726-2.637-4.171 3.422.445z" fill="#171A4A"/><path d="M169.255 128.21l3.357-3.497.585 4.246-3.942-.749z" fill="#202453"/><path d="M173.058 128.365l-.446-3.652 2.065 4.515-1.619-.863z" fill="#171A4A"/><path d="M168.281 130.207l-.082-4.87 3.389 2.595-3.307 2.275z" fill="#202453"/><path d="M171.072 127.611l-2.873-2.274 4.621 1.733-1.748.541z" fill="#171A4A"/><path d="M171.152 127.424l4.763-.678-1.29 4.292-3.473-3.614z" fill="#202453"/><path d="M176.538 130.45c-.202 2.153-2.912 3.489-5.573 2.964-2.662-.526-4.483-2.705-4.066-4.867.416-2.163 2.743-3.034 5.404-2.508 2.662.526 4.651 2.249 4.235 4.411z" fill="#191D5C"/><path d="M176.537 130.45c-.201 2.153-2.911 3.489-5.573 2.964-2.662-.526-4.482-2.705-4.066-4.868-.409.097 1.288 3.782 4.491 4.18 4.058.504 5.166-2.471 5.148-2.276z" fill="#202453"/><g filter="url(#filter8_d)"><path d="M168.669 127.291c.027.061.052.126.075.196.232.583.992 2.289 2.066 2.758.859.375 1.643.73 2.389.165.198-.15.325-.242.433-.466.336-.695-.569-1.186-1.262-1.523-.53-.257-1.607-.774-1.492-.194.042.214.131.569.333.649.192.076.262-.426.262-.426s.529.244.635.397c.107.152.122.517.122.517s-.513.225-.856.202c-.742-.05-1.188-.59-1.394-1.31-.096-.339-.154-.572-.031-.903.292-.788 1.323-.338 2.136-.14 1.585.387 3.512 1.737 2.737 3.178-.263.49-.261.426-1.036.973-.776.547-2.596.364-3.751-.572-1.053-.854-1.007-2.424-1.291-3.305-.05-.123-.075-.196-.075-.196z" fill="#E5004C" fill-opacity=".2"/></g><path fill="#434343" d="M344.922 43.205l.76.376-32.173 65.526-.759-.376z"/><rect width="5.328" height=".383" rx=".192" transform="rotate(-25.77 374.872 -649.444) skewX(-.161)" fill="#3B3653"/><rect width="5.633" height=".37" rx=".185" transform="rotate(-51.057 265.504 -285.491) skewX(-.201)" fill="#3B3653"/><rect width="6.961" height=".325" rx=".163" transform="rotate(-11.759 632.169 -1493.262) skewX(-.082)" fill="#3B3653"/><path d="M320.378 99.264c1.466 2.616 3.579 4.922 2.214 5.692-1.365.771-3.477-1.422-4.943-4.037-1.467-2.616-1.988-6.835-.623-7.606 1.366-.77 1.886 3.336 3.352 5.951z" fill="#3B3653"/><path d="M317.451 99.782l.865.776-1.289 1.294-3.61 7.762-1.289-1.294 5.323-8.538z" fill="#3B3653"/><path d="M348.787 39.382c0 20.645-16.084 41.63-41.481 44.179-20.571 0-34.285-23.534-34.285-44.18C271.751 15.169 290.967.726 311.539.726s37.248 18.011 37.248 38.657z" fill="url(#paint12_linear)"/><path d="M278.523 60.197l56.296 10.62-19.047 22.089-25.82-11.045-11.429-21.664z" fill="url(#paint13_linear)"/><path d="M317.042 89.083c0 4.927-5.685 8.071-12.699 8.071-7.013 0-15.661-7.392-15.661-12.32 0-4.926 8.976-6.43 15.238-5.521 6.315.916 13.122 4.843 13.122 9.77z" fill="#797399"/><path d="M313.656 88.162c0 3.933-4.073 6.443-9.098 6.443-5.024 0-11.22-5.901-11.22-9.834 0-3.934 6.431-5.135 10.917-4.41 4.524.733 9.401 3.868 9.401 7.8z" fill="#484266"/><path d="M308.516 1.149c-11.428 5.38-33.015 21.665-10.158 78.162-12.699-22.514-22.857-67.967 10.158-78.162z" fill="#B2ADCC"/><path d="M315.289.724c-6.772 5.098-18.624 27.867-11.852 78.163-1.698-38.232 1.355-66.948 11.852-78.163zm9.773 2.149c4.578 7.147 7.78 32.634-16.033 77.408 14.867-35.241 21.978-63.225 16.033-77.408zm13.137 9.321c4.577 7.147 10.952 31.436-21.217 73.49 23.703-38.231 27.161-59.306 21.217-73.49z" fill="#B2ADCC"/><path d="M288.622 54.25c-6.772-1.36-10.158 2.831-11.005 5.097 0 4.078 5.644 11.328 8.466 14.443.338-4.078 5.784-4.248 8.465-3.823 3.386-3.738 6.773-1.558 8.042 0 4.403-3.738 9.454-.991 11.429.85 8.127.34 9.594 4.672 9.312 6.796 2.37.68 2.399 3.115 2.116 4.248 1.552-1.84 5.334-6.372 8.043-9.77 2.709-3.398-1.694-6.514-4.233-7.646 2.032-7.817-5.926-10.054-10.159-10.195-3.047-6.797-13.545-8.072-17.777-3.824-8.466-2.039-11.993 1.7-12.699 3.823z" fill="url(#paint14_linear)"/><path fill="#434343" d="M272.496 31.734l.84-.1 3.926 33.132-.84.1z"/><path d="M320.791 24.09c-14.391-14.444-39.364-6.514-47.406 4.672 5.502-19.54 20.74-32.71 48.253-26.762 22.01 4.758 26.949 24.921 26.666 34.408-1.354-12.914-18.906-13.593-27.513-12.319z" fill="url(#paint15_linear)"/><rect width="4.234" height="7.645" rx="1.692" transform="rotate(13.078 75.498 1407.292) skewX(.09)" fill="#717070"/><path d="M271.385 25.983a1.693 1.693 0 0 1 1.383-1.2l.059-.008a1.69 1.69 0 0 1 1.929 1.574l.239 4.004a1.693 1.693 0 0 1-1.69 1.794h-1.471a1.691 1.691 0 0 1-1.623-2.168l1.174-3.996z" fill="url(#paint16_linear)"/><path fill="#434343" d="M320.68 27.063l.83.17-14.703 72.17-.83-.17z"/><path d="M330.527 130.713c-7.196-13.593-36.261-45.427-52.487-66.242-2.97-3.823-19.893-3.823-38.518 2.973-14.899 5.438-18.06 16.683-17.354 20.79l4.656-1.275s17.91-4.764 29.206-2.974c8.042 1.275 23.28.85 28.36 35.259 16.914 18.664 42.327 31.859 42.327 31.859 2.399-2.973 6.198-15.878 3.81-20.39z" fill="#274A7D"/><path d="M280.58 71.666l-2.963-1.274-33.862 10.62s21.034 3.165 29.63 11.045c8.595 7.88 11.005 28.886 11.005 28.886h4.233l-8.043-49.277z" fill="#274A7D"/><path d="M250.951 78.946l.423 3.398c.282 2.974 1.355 8.666 3.386 7.646 2.54-1.274 20.318-5.58 22.434-5.58 1.824 0 3.527.624 4.233.907-.565-4.106-1.101-12.121-3.81-12.801-2.709-.68-19.047 3.598-26.666 6.43z" fill="url(#paint17_linear)"/><path d="M250.528 86.11l-.847-6.74-22.434 5.947.424 3.399 22.857-2.607z" fill="url(#paint18_linear)"/><path opacity=".5" d="M269.152 86.11l8.465-11.47v1.7l-6.772 9.345-1.693.424zm-4.656.85l10.582-14.444h2.116L265.765 87.81l-1.269-.85z" fill="#D3CFE5"/><path d="M201.851 115.817l2.539-8.071 2.963-2.549 4.233-11.469c4.092-2.832 14.984-8.836 25.82-10.195 16.508-2.071 35.555 2.124 37.248 10.195 2.822 3.398 8.55 12.574 8.889 22.089l-2.54 1.7-65.184 12.319-13.968-14.019z" fill="url(#paint19_linear)"/><path d="M248.411 41.503a.847.847 0 0 1 1.693 0v26.343a.846.846 0 1 1-1.693 0V41.503z" fill="#332E4D"/><path d="M225.132 100.553l.423-11.47c-3.809-.425-12.266 4.652-13.122 6.372-.845 1.7-2.963 7.646-2.963 10.62l15.662-5.522z" fill="#213E6A"/><path d="M223.438 100.128l2.116-9.346c-3.007-.339-11.376 3.737-12.052 5.11-.667 1.358-1.915 6.958-1.916 9.333l11.852-5.097z" fill="#152946"/><path d="M244.178 95.03l-.423-10.62c3.45-1.676 11.832.84 13.545 1.7 1.693.85 4.937 2.719 5.926 5.522l-19.048 3.398zm-24.086-2.406c.628-.356 1.309.375.909.977a.68.68 0 0 1-.27.237l-8.066 3.961a.42.42 0 0 1-.392-.742l7.819-4.433zm.154 2.918c.569-.302 1.141.395.735.895a.592.592 0 0 1-.2.16l-9.073 4.415a.416.416 0 0 1-.376-.743l8.914-4.727zm.836 2.502c.59-.301 1.171.418.753.933a.614.614 0 0 1-.22.17l-9.898 4.549a.39.39 0 0 1-.34-.704l9.705-4.948z" fill="#213E6A"/><path d="M245.448 94.606l-.423-9.77c2.722-1.328 10.581 1.274 11.852 2.123 1.27.85 5.558 2.434 6.349 4.673l-17.778 2.974z" fill="#112441"/><path d="M244.178 85.26l.424 1.183 1.426.102 11.695.839-1.01-.94-10.685-.76-1.85-.424zm.701 2.589l-.007 1.275 16.057.347-1.298-.845-14.752-.777z" fill="#213E6A"/><path d="M300.897 155.776l-16.508-6.372c-1.355 10.195 2.878 16.05 7.195 16.992 9.737 2.124 14.393-8.921 9.313-10.62z" fill="#282340"/><path d="M302.674 151.528l-16.508-6.372c-1.596 10.195.52 15.718 7.196 16.992 6.659 1.271 10.3-7.363 9.312-10.62z" fill="#171425"/><path d="M272.961 61.943c-35.555-1.02-49.805 14.868-52.486 22.939l2.963 1.274 54.179-15.717 1.27-1.7c0-3.398-3.951-5.947-5.926-6.796z" fill="#274A7D"/><path d="M215.746 148.77c-15.238-2.974-15.097-19.541-12.698-26.762 6.434-7.477 13.736-6.938 20.371-2.432 19.84 13.477 3.859 31.445-7.673 29.194z" fill="url(#paint20_linear)"/><path d="M229.291 132.628c0 6.099-1.921 9.38-6.349 11.044-5.079 1.909-12.193-3.5-13.122-9.77-.836-5.651 3.133-13.593 8.043-13.593 4.909 0 11.428 6.219 11.428 12.319z" fill="#282340"/><path d="M232.438 131.988c0 6.1-1.92 9.38-6.349 11.044-5.079 1.909-12.193-3.5-13.121-9.77-.837-5.651 3.133-13.593 8.042-13.593s11.428 6.219 11.428 12.319z" fill="#221D35"/><path d="M256.876 65.72c-18.2-.425-32.036 12.046-33.862 17.416 0 0 26.262-8.658 37.249-11.47 0-2.26-2.041-5.381-3.387-5.947z" fill="#1F3962"/><path d="M262.379 107.774c-16.508 3.965-56.126 13.764-58.835 14.443l101.163 36.958 22.857-7.647c-1.694-11.469-43.88-35.116-65.185-43.754z" fill="#161326"/><path d="M242.63 82.286l-4.656-4.248v14.868l3.809 2.55.847-13.17z" fill="#201C33"/><path d="M223.438 100.978l-3.81-2.55 18.201-5.946 3.81 2.973-18.201 5.523z" fill="#2A2544"/><path d="M219.35 85.685l18.624-7.647v14.868l-17.778 5.947-.846-13.168z" fill="#332E4D"/><path d="M283.966 112.86c-9.143-30.585-13.686-21.523-14.815-13.168l-60.528 16.991 17.778 11.47 58.412-8.909-.847-6.384z" fill="#161326"/><path d="M265.511 105.981c3.809-1.7 11.428 0 11.428 0-.424 11.186 3.049 32.209 2.371 33.228-3.668 5.523-11.401 1.605-14.646.755-12.19-15.292-2.962-32.284.847-33.983z" fill="#332E4D"/><path d="M273.255 105.225c-9.735 4.248-12.614 24.214-2.116 36.108m-1.27-36.108c-9.735 4.248-12.614 24.214-2.117 36.108" stroke="#201C33" stroke-width=".846"/><path d="M283.712 123.822c0 9.385-3.412 16.992-7.619 16.992-4.208 0-7.619-7.607-7.619-16.992 0-9.384 3.411-17.841 7.619-17.841 4.207 0 7.619 8.457 7.619 17.841z" fill="#282340"/><path d="M283.543 124.341c0 7.783-3.218 13.5-7.027 13.924-3.273 0-5.503-8.496-5.503-14.443 0-7.782 3.923-15.292 7.196-15.292 3.273 0 5.334 8.029 5.334 15.811z" fill="#E0BC00"/><path d="M281.427 124.766c0 7.782-.847 13.169-4.657 13.594-3.272 0-5.925-8.072-5.925-14.019 0-7.782 3.076-13.593 6.349-13.593s4.233 6.236 4.233 14.018z" fill="#A28A07"/><path d="M199.311 116.695v10.195c.173-.148 1.981 2.356 2.54 2.124 0-.85 0-2.549.32-3.352 10.05-3.491 43.143-11.893 60.631-16.189 1.129.142 3.81.51 5.503.85 1.693.34 1.834-6.372 1.693-9.77l-7.196-2.124c-27.089 2.718-53.615 13.31-63.491 18.266z" fill="url(#paint21_linear)"/><path d="M328.417 151.643c1.244 3.788 1.326 7.516-.007 7.957-1.332.44-3.574-2.574-4.817-6.362-1.243-3.788-.748-6.792.584-7.232 1.332-.44 2.997 1.849 4.24 5.637z" fill="#171425"/><path d="M328.411 151.528c.843 2.571 1.138 5.519.501 5.729-.637.211-1.931-1.909-2.775-4.48-.844-2.571-.48-4.437.157-4.647.637-.211 1.273.828 2.117 3.398z" fill="#A28A07"/><path d="M300.751 93.331l21.31 23.789 1.693 10.195-20.317-18.691-2.686-15.293z" fill="#111F2A"/><path d="M260.263 62.746l5.503-.85 5.502-.425 2.116 2.55 2.54 5.097-13.968 2.124-1.693-8.496z" fill="#1F3962"/><path d="M267.883 66.144c.099.222.122 2.168-.848 2.974-.757.63-1.693.85-1.693.85-2.539-.85-2.115-1.7-2.539-2.55l3.81-2.548s1.079.85 1.27 1.274z" fill="#AA8014"/><ellipse rx="2.118" ry="2.547" transform="rotate(29.364 4.937 539.219) skewX(.175)" fill="#CF9C17"/><path d="M272.115 65.294c.099.222.122 2.168-.848 2.974-.757.63-1.693.85-1.693.85-2.539-.85-2.115-1.7-2.539-2.55l3.81-2.548s1.08.85 1.27 1.274z" fill="#8B1313"/><path d="M281.427 85.26c-.677-9.515-2.822-12.46-3.81-12.744l.424 11.894 3.386.85z" fill="#8FAAD5"/><ellipse rx="2.118" ry="2.547" transform="rotate(29.364 8.674 546.868) skewX(.175)" fill="#9E1414"/><path d="M260.005 62.044c-1.711 1.104.713 6.592 2.138 9.198-.713-2.453-1.882-7.543-.856-8.278 1.283-.92 7.271-1.38 9.409-.92 1.71.368 4.658 5.694 5.228 7.074-.423-2.55-2.807-7.305-4.232-8.071-2.994-.154-9.977-.107-11.687.997z" fill="url(#paint22_linear)"/><path d="M225.431 88.753a2.534 2.534 0 0 1-2.423-.737l-10.552-11.294c-1.291-1.38-.67-3.641 1.146-4.172l19.825-5.8c2.025-.594 3.843 1.402 3.067 3.366l-6.495 16.45a2.543 2.543 0 0 1-1.791 1.544l-2.777.643z" fill="url(#paint23_linear)"/><path d="M280.157 72.94l10.582 8.497 7.195 45.453-9.312-5.522-8.465-48.427z" fill="#111F2A"/><path d="M286.083 79.738l-3.81-2.974 3.386 22.514 3.387 1.699-2.963-21.24zm3.386 2.548l-2.54-2.124 3.386 21.665 2.54 1.699-3.386-21.24zm3.809 22.939l-2.539-1.274 2.539 15.718 2.963 2.124-2.963-16.568zm-3.809-2.124l-3.386-2.124 2.539 15.718 3.387 2.124-2.54-15.718z" fill="#3C5E8F"/><path d="M243.332 99.703v-6.797c4.092 0 20.148-1.699 21.164-1.699 1.016 0 2.116 1.84 1.693 3.399l-3.386 2.124-19.471 2.973z" fill="#446EAD"/><path d="M265.342 92.481c-.549-1.031-4.233.425-4.233.425v2.974s2.117-.425 4.233-1.7c.723-.434.398-.953 0-1.699z" fill="#1D3A65"/><path d="M244.178 98.428v-5.097l16.931-.425v2.974l-16.931 2.549z" fill="#9BB6DE"/><path d="M297.934 92.906h2.54l10.582 42.055h-3.81l-9.312-42.055z" fill="#8C8A99"/><path d="M296.241 93.756s2.007-1.605 2.54 0c3.81 11.469 11.005 42.479 11.005 42.479l-2.539.85-11.006-43.33z" fill="#A19EB2"/><ellipse rx="4.691" ry="5.749" transform="rotate(-20.546 393.755 -777.704) skewX(-.135)" fill="#86829A"/><path d="M302.167 86.785c1.107 2.976.424 5.696-.486 6.475-2.426.91-5.29-.766-6.398-3.741-1.107-2.976-.488-6.733 2.388-7.035 1.533-.16 3.389 1.325 4.496 4.301z" fill="#A19EB2"/><ellipse rx="3.999" ry="4.901" transform="rotate(-20.546 525.578 -787.306) skewX(-.135)" fill="#A19EB2"/><path d="M327.563 122.217l-.846.001-2.081 21.359 2.081-.545.846-20.815z" fill="#8C8A98"/><path d="M313.305 132.724c.944 2.537 1.422 4.297.102 5.327-1.511 1.178-3.617-.988-4.561-3.525s-.776-5.604 1.142-5.662c1.023-.031 2.373 1.323 3.317 3.86z" fill="#8D8A9D"/><path d="M326.717 122.217h-1.27l-2.117 20.39h2.117l1.27-20.39z" fill="#A19EB2"/><ellipse rx="2.62" ry="2.637" transform="matrix(-.81486 .57966 .5769 .81682 324.024 142.881)" fill="#C4C4C4"/><path d="M321.889 144.4a2.617 2.617 0 0 0 3.655.635c1.179-.839-.823.39-2.213-1.578-1.693-2.398 1.27-3.823-.829-2.729a2.638 2.638 0 0 0-.613 3.672z" fill="#979595"/><path d="M304.707 98.853l2.539 2.306.847 4.916-2.54-2.549-.846-4.673zm3.386 3.399l2.54 2.549.423 4.247-2.54-2.548-.423-4.248zm2.963 2.973l2.54 3.399.846 3.398-2.539-2.124-.847-4.673zm2.963 3.824l2.328 2.154.635 3.368-1.905-1.593-1.058-3.929zm2.963 2.973l1.905 1.73.635 3.368-1.905-1.593-.635-3.505zm2.54 3.399l1.269 1.153.424 2.245-1.27-1.062-.423-2.336zm-13.545-10.196l2.539 2.307.847 4.915-2.54-2.549-.846-4.673z" fill="#8BA6D0"/><path opacity=".4" d="M237.974 78.038l-5.926 2.124-3.386 7.647 9.312 5.522V78.038z" fill="#161326"/><path d="M309.363 108.624l2.539 2.549.424 4.248-2.54-2.549-.423-4.248zm2.963 2.973l2.54 2.549.846 4.248-2.54-2.124-.846-4.673zm2.963 2.974l2.116 2.124.847 4.248-1.905-1.593-1.058-4.779zm2.963 2.549l1.693 1.274.846 5.098-1.904-1.593-.635-4.779zm2.116 1.699l1.27 1.153.423 2.245-1.27-1.062-.423-2.336z" fill="#8BA6D0"/><rect width="1.697" height="18.065" rx=".848" transform="matrix(.63369 -.77359 .77135 .6364 308.389 118.245)" fill="#465F85"/><rect width="1.697" height="18.065" rx=".848" transform="matrix(.63369 -.77359 .77135 .6364 308.516 122.68)" fill="#465F85"/><path d="M325.296 146.426c.299-.913-3.694-.751-5.502.425-1.966 1.279.574 12.324 4.232 14.018 2.063.956 3.669-.424 4.233-1.274-4.233-5.943-3.659-11.04-2.963-13.169z" fill="#282340"/><path d="M319.521 147.705c.299-.913-2.847-1.176-4.656 0-1.966 1.279-.011 11.636 3.647 13.331 2.062.955 4.255.263 4.819-.587-4.233-5.947-4.505-10.616-3.81-12.744z" fill="#282340"/><path d="M228.662 87.809l5.079-21.24c2.032-.34 3.246 1.558 3.387 2.549l-7.196 18.69h-1.27z" fill="#332E4D"/><path opacity=".4" d="M278.778 116.695c-1.016.68-1.443-1.133-2.431-2.124-4.546 5.947-2.68 14.16-.846 17.841l1.584.425c0-.708.338-2.124 1.693-2.124h.956s.374-4.282.423-7.221c.047-2.781-.423-6.797-.423-6.797-.282-.142.06-.68-.956 0z" fill="#282340"/><path d="M199.311 126.89l2.963-1.274s-.423 2.549-.423 3.823c0 1.408-2.54-2.549-2.54-2.549z" fill="#302D40"/><path d="M262.803 109.473V98.429l7.195 2.124-.423 9.77-6.772-.85z" fill="#282439"/><rect width="9.316" height="2.547" rx="1.273" transform="rotate(-20.09 437.022 -514.709) skewX(-.132)" fill="#111F2A"/><rect width="9.314" height="2.548" rx="1.274" transform="rotate(-15.338 517.31 -856.596) skewX(-.105)" fill="#111F2A"/><path d="M284.39 90.782l1.693-11.044.423 2.549-1.693 11.894-.423-3.398zm5.079-8.495l-.846-.85-.776 4.673.466 2.973 1.156-6.796zm-3.809 16.991l.846.425 1.301-7.646-.409-3.246-1.738 10.467z" fill="#8FAAD5"/><path d="M244.178 98.429l5.926-5.098h.847l-4.233 4.673-2.54.425zm5.08-.849l3.809-4.249h2.117l-2.54 3.823-3.386.425z" fill="#B5CAEB"/><path opacity=".4" d="M279.069 116.695c-1.016.68-1.443-1.133-2.431-2.124-4.546 5.947-2.68 14.16-.846 17.842l1.584.424c0-.708.338-2.124 1.693-2.124h.956s-2.166-4.282-2.117-7.221c.047-2.781 2.117-6.797 2.117-6.797-.282-.142.06-.68-.956 0z" fill="#282340"/><path opacity=".3" d="M235.713 115.42l-11.852-15.698c.935.059 17.778-5.097 17.778-5.097l.846-12.32s9.033-.223 14.392.85c7.345 1.472 16.931 5.098 17.354 7.222.149.745 10.159 14.018 10.159 27.187l-24.974 6.352-23.703-8.496z" fill="#201C33"/><path opacity=".3" d="M304.707 114.995l-26.666-31.01.423 12.744 6.349 29.736 30.053 28.461 9.312-3.398 3.386-1.7 2.539-6.371-3.386-2.124-22.01-26.338z" fill="#201C33"/><defs><filter id="filter0_f" x="30.616" y="96.887" width="20.977" height="19.448" filterUnits="userSpaceOnUse" color-interpolation-filters="sRGB"><feFlood flood-opacity="0" result="BackgroundImageFix"/><feBlend in="SourceGraphic" in2="BackgroundImageFix" result="shape"/><feGaussianBlur stdDeviation="1.692" result="effect1_foregroundBlur"/></filter><filter id="filter1_d" x="5.168" y="70.41" width="67.429" height="73.838" filterUnits="userSpaceOnUse" color-interpolation-filters="sRGB"><feFlood flood-opacity="0" result="BackgroundImageFix"/><feColorMatrix in="SourceAlpha" values="0 0 0 0 0 0 0 0 0 0 0 0 0 0 0 0 0 0 127 0"/><feOffset dx="2.538" dy="2.538"/><feGaussianBlur stdDeviation="1.692"/><feColorMatrix values="0 0 0 0 0.898039 0 0 0 0 0 0 0 0 0 0.298039 0 0 0 0.7 0"/><feBlend in2="BackgroundImageFix" result="effect1_dropShadow"/><feBlend in="SourceGraphic" in2="effect1_dropShadow" result="shape"/></filter><filter id="filter2_d" x="32.35" y="97.669" width="18.061" height="19.127" filterUnits="userSpaceOnUse" color-interpolation-filters="sRGB"><feFlood flood-opacity="0" result="BackgroundImageFix"/><feColorMatrix in="SourceAlpha" values="0 0 0 0 0 0 0 0 0 0 0 0 0 0 0 0 0 0 127 0"/><feOffset/><feGaussianBlur stdDeviation="1.692"/><feColorMatrix values="0 0 0 0 0.898039 0 0 0 0 0 0 0 0 0 0.298039 0 0 0 0.7 0"/><feBlend in2="BackgroundImageFix" result="effect1_dropShadow"/><feBlend in="SourceGraphic" in2="effect1_dropShadow" result="shape"/></filter><filter id="filter3_f" x="130.919" y="170.137" width="14.07" height="10.693" filterUnits="userSpaceOnUse" color-interpolation-filters="sRGB"><feFlood flood-opacity="0" result="BackgroundImageFix"/><feBlend in="SourceGraphic" in2="BackgroundImageFix" result="shape"/><feGaussianBlur stdDeviation="1.066" result="effect1_foregroundBlur"/></filter><filter id="filter4_d" x="114.648" y="165.284" width="51.602" height="28.119" filterUnits="userSpaceOnUse" color-interpolation-filters="sRGB"><feFlood flood-opacity="0" result="BackgroundImageFix"/><feColorMatrix in="SourceAlpha" values="0 0 0 0 0 0 0 0 0 0 0 0 0 0 0 0 0 0 127 0"/><feOffset dx="1.599" dy="1.599"/><feGaussianBlur stdDeviation="1.066"/><feColorMatrix values="0 0 0 0 0.898039 0 0 0 0 0 0 0 0 0 0.298039 0 0 0 0.5 0"/><feBlend in2="BackgroundImageFix" result="effect1_dropShadow"/><feBlend in="SourceGraphic" in2="effect1_dropShadow" result="shape"/></filter><filter id="filter5_d" x="131.451" y="171.027" width="13.214" height="9.908" filterUnits="userSpaceOnUse" color-interpolation-filters="sRGB"><feFlood flood-opacity="0" result="BackgroundImageFix"/><feColorMatrix in="SourceAlpha" values="0 0 0 0 0 0 0 0 0 0 0 0 0 0 0 0 0 0 127 0"/><feOffset/><feGaussianBlur stdDeviation="1.066"/><feColorMatrix values="0 0 0 0 0.898039 0 0 0 0 0 0 0 0 0 0.298039 0 0 0 0.7 0"/><feBlend in2="BackgroundImageFix" result="effect1_dropShadow"/><feBlend in="SourceGraphic" in2="effect1_dropShadow" result="shape"/></filter><filter id="filter6_f" x="166.396" y="124.775" width="10.585" height="8.28" filterUnits="userSpaceOnUse" color-interpolation-filters="sRGB"><feFlood flood-opacity="0" result="BackgroundImageFix"/><feBlend in="SourceGraphic" in2="BackgroundImageFix" result="shape"/><feGaussianBlur stdDeviation=".809" result="effect1_foregroundBlur"/></filter><filter id="filter7_d" x="155.975" y="116.733" width="35.416" height="25.476" filterUnits="userSpaceOnUse" color-interpolation-filters="sRGB"><feFlood flood-opacity="0" result="BackgroundImageFix"/><feColorMatrix in="SourceAlpha" values="0 0 0 0 0 0 0 0 0 0 0 0 0 0 0 0 0 0 127 0"/><feOffset dx="1.214" dy="1.214"/><feGaussianBlur stdDeviation=".809"/><feColorMatrix values="0 0 0 0 0.898039 0 0 0 0 0 0 0 0 0 0.298039 0 0 0 0.4 0"/><feBlend in2="BackgroundImageFix" result="effect1_dropShadow"/><feBlend in="SourceGraphic" in2="effect1_dropShadow" result="shape"/></filter><filter id="filter8_d" x="167.051" y="125.287" width="9.567" height="8.001" filterUnits="userSpaceOnUse" color-interpolation-filters="sRGB"><feFlood flood-opacity="0" result="BackgroundImageFix"/><feColorMatrix in="SourceAlpha" values="0 0 0 0 0 0 0 0 0 0 0 0 0 0 0 0 0 0 127 0"/><feOffset/><feGaussianBlur stdDeviation=".809"/><feColorMatrix values="0 0 0 0 0.898039 0 0 0 0 0 0 0 0 0 0.298039 0 0 0 0.7 0"/><feBlend in2="BackgroundImageFix" result="effect1_dropShadow"/><feBlend in="SourceGraphic" in2="effect1_dropShadow" result="shape"/></filter><linearGradient id="paint0_linear" x1="26.717" y1="113.133" x2="139.458" y2="141.153" gradientUnits="userSpaceOnUse"><stop stop-color="#E5004C"/><stop offset="1" stop-color="#595A93" stop-opacity="0"/></linearGradient><linearGradient id="paint1_linear" x1="43.923" y1="116.485" x2="125.177" y2="135.434" gradientUnits="userSpaceOnUse"><stop stop-color="#E5004C"/><stop offset="1" stop-color="#595A93" stop-opacity="0"/></linearGradient><linearGradient id="paint2_linear" x1="44.333" y1="72.907" x2="35.101" y2="133.655" gradientUnits="userSpaceOnUse"><stop stop-color="#E5004C"/><stop offset="1" stop-color="#E5004C" stop-opacity="0"/></linearGradient><linearGradient id="paint3_linear" x1="67.695" y1="117.019" x2="11.548" y2="113.442" gradientUnits="userSpaceOnUse"><stop stop-color="#191D5C"/><stop offset="1" stop-color="#191D5C" stop-opacity="0"/></linearGradient><linearGradient id="paint4_linear" x1="133.109" y1="183.932" x2="200.659" y2="155.269" gradientUnits="userSpaceOnUse"><stop stop-color="#E5004C"/><stop offset="1" stop-color="#595A93" stop-opacity="0"/></linearGradient><linearGradient id="paint5_linear" x1="143.033" y1="179.012" x2="191.237" y2="157.689" gradientUnits="userSpaceOnUse"><stop stop-color="#E5004C"/><stop offset="1" stop-color="#595A93" stop-opacity="0"/></linearGradient><linearGradient id="paint6_linear" x1="127.197" y1="158.046" x2="144.939" y2="190.533" gradientUnits="userSpaceOnUse"><stop stop-color="#E5004C"/><stop offset="1" stop-color="#E5004C" stop-opacity="0"/></linearGradient><linearGradient id="paint7_linear" x1="155.236" y1="170.259" x2="125.699" y2="190.038" gradientUnits="userSpaceOnUse"><stop stop-color="#191D5C"/><stop offset="1" stop-color="#191D5C" stop-opacity="0"/></linearGradient><linearGradient id="paint8_linear" x1="166.446" y1="134.173" x2="234.298" y2="123.296" gradientUnits="userSpaceOnUse"><stop offset=".26" stop-color="#E5004C"/><stop offset=".652" stop-color="#5724E7" stop-opacity=".56"/><stop offset="1" stop-color="#2E10E7" stop-opacity="0"/></linearGradient><linearGradient id="paint9_linear" x1="174.671" y1="132.578" x2="214.099" y2="126.629" gradientUnits="userSpaceOnUse"><stop stop-color="#E5004C"/><stop offset="1" stop-color="#14047A" stop-opacity="0"/></linearGradient><linearGradient id="paint10_linear" x1="167.257" y1="113.868" x2="173.768" y2="141.469" gradientUnits="userSpaceOnUse"><stop stop-color="#E5004C"/><stop offset="1" stop-color="#E5004C" stop-opacity="0"/></linearGradient><linearGradient id="paint11_linear" x1="185.321" y1="128.622" x2="159.806" y2="137.109" gradientUnits="userSpaceOnUse"><stop stop-color="#191D5C"/><stop offset="1" stop-color="#191D5C" stop-opacity="0"/></linearGradient><linearGradient id="paint12_linear" x1="283.12" y1="15.593" x2="339.597" y2="66.367" gradientUnits="userSpaceOnUse"><stop stop-color="#F4F2FF"/><stop offset="1" stop-color="#CDC7E9"/></linearGradient><linearGradient id="paint13_linear" x1="286.066" y1="66.068" x2="305.722" y2="99.294" gradientUnits="userSpaceOnUse"><stop stop-color="#F4F2FF"/><stop offset="1" stop-color="#CDC7E9"/></linearGradient><linearGradient id="paint14_linear" x1="278.04" y1="58.073" x2="322.744" y2="62.265" gradientUnits="userSpaceOnUse"><stop stop-color="#528AA6"/><stop offset="1" stop-color="#496D80"/></linearGradient><linearGradient id="paint15_linear" x1="293.702" y1="4.124" x2="348.364" y2="27.346" gradientUnits="userSpaceOnUse"><stop stop-color="#528AA6"/><stop offset="1" stop-color="#496D80"/></linearGradient><linearGradient id="paint16_linear" x1="270.422" y1="24.514" x2="274.674" y2="30.446" gradientUnits="userSpaceOnUse"><stop stop-color="#717070"/><stop offset="1" stop-color="#4D4D4D"/></linearGradient><linearGradient id="paint17_linear" x1="254.337" y1="72.444" x2="266.677" y2="92.867" gradientUnits="userSpaceOnUse"><stop stop-color="#A4BFE9"/><stop offset="1" stop-color="#A4BFE9" stop-opacity="0"/><stop offset="1" stop-color="#6184B9"/></linearGradient><linearGradient id="paint18_linear" x1="254.337" y1="72.444" x2="266.677" y2="92.867" gradientUnits="userSpaceOnUse"><stop stop-color="#A4BFE9"/><stop offset="1" stop-color="#A4BFE9" stop-opacity="0"/><stop offset="1" stop-color="#6184B9"/></linearGradient><linearGradient id="paint19_linear" x1="212.433" y1="89.508" x2="280.172" y2="101.742" gradientUnits="userSpaceOnUse"><stop stop-color="#4E47A3"/><stop offset=".193" stop-color="#476CA3"/><stop offset="1" stop-color="#274A7D"/></linearGradient><linearGradient id="paint20_linear" x1="198.888" y1="127.74" x2="226.86" y2="140.831" gradientUnits="userSpaceOnUse"><stop stop-color="#332E4C"/><stop offset="1" stop-color="#1E1A2F"/></linearGradient><linearGradient id="paint21_linear" x1="201.004" y1="115.42" x2="275.093" y2="102.765" gradientUnits="userSpaceOnUse"><stop stop-color="#6B5072"/><stop offset=".237" stop-color="#565072"/><stop offset="1" stop-color="#2E2945"/></linearGradient><linearGradient id="paint22_linear" x1="260.686" y1="61.047" x2="267.704" y2="71.218" gradientUnits="userSpaceOnUse"><stop stop-color="#3862A2"/><stop offset="1" stop-color="#3862A2" stop-opacity="0"/></linearGradient><linearGradient id="paint23_linear" x1="228.947" y1="87.96" x2="212.943" y2="71.724" gradientUnits="userSpaceOnUse"><stop stop-color="#393452"/><stop offset="1" stop-color="#58517B"/></linearGradient></defs></svg>