<svg width="103" height="114" fill="none" xmlns="http://www.w3.org/2000/svg"><g filter="url(#filter0_d)"><path d="M16.07 74.77l-5.42 1.175 1.625-33.001 46.096-23.059L80.72 44.64l8.952 41.59-29.36 17.687L44.64 89.903 16.071 74.77z" fill="#484266" fill-opacity=".2"/><path d="M24.131 47.337L9.579 77.05 7.072 65.403l5.203-22.46 11.856 4.394z" fill="#7B749D"/><path d="M12.277 42.943l2.06 15.66 9.795-11.267-11.856-4.393zm33.287 47.196l-29.492-15.37 7.733-26.925 29.848 10.938-8.089 31.357z" fill="#726C8F"/><path d="M16.07 74.77l7.733-26.926-9.466 10.76-4.758 18.445 6.492-2.28z" fill="#8984A6"/><path d="M60.313 103.917L45.564 90.138l8.089-31.356 6.66 45.135z" fill="#918DAA"/><path d="M89.254 86.32l-28.943 17.596-6.987-44.628 31.513 4.483 4.417 22.549z" fill="#726C8F"/><path d="M84.838 63.77l-31.84-3.976 27.633-15.57 4.207 19.547z" fill="#79729B"/><path d="M53.831 59.614l26.486-15.229-13.861-13.834-38.815 4.706-15.458 7.958 41.648 16.398z" fill="#5C5677"/></g><g filter="url(#filter1_d)"><path d="M34.015 15.811c-.956-4.46-2.678-7.508-6.693-9.82-1.49-.859-2.406-1.52-4.12-1.551 0 0 8.164-.201 13.388 0 5.24.202 13.386 1.034 13.386 1.034l13.45-1.31c.18 0 .419 0 .598.06 3.348.361 7.016 6.127 8.093 11.07l-38.102.517z" fill="#201C33"/></g><path d="M17.024 16.329l16.99 1.034c-1.008-4.447-2.389-12.454-7.722-12.923-5.694-.5-8.856 1.965-9.268 11.889z" fill="url(#paint0_linear)"/><path d="M34.015 3.407H22.688l-.515 1.55c5.355-.827 10.812 5.686 10.812 11.372l7.209.517c.824-1.655-2.575-10.855-6.179-13.44z" fill="#52447A"/><path d="M70.838 16.867l-38.177.842 2.765 26.323 33.468-4.135 1.944-23.03z" fill="#201C33"/><path d="M33.92 16.867H17.14l1.811 23.03 16.476 4.135-1.506-27.165z" fill="url(#paint1_linear)"/><path d="M66.453 3.407H55.125v1.55c5.355-.827 9.783 6.892 11.328 10.855h6.693c.824-1.654-4.29-9.132-6.693-12.405z" fill="#4D3D7A"/><ellipse cx="69.422" cy="11.039" rx=".91" ry=".913" fill="#332E4D"/><ellipse cx="34.41" cy="8.972" rx=".91" ry=".913" fill="#332E4D"/><path fill="#5F4F89" d="M43.798 17.362h7.208v1.033h-7.208zm16.476 0h12.357v1.033H60.274z"/><path d="M66.968 20.463h-1.545v-6.202h9.268v6.202h-7.723z" fill="#544680"/><path d="M60.274 14.765l-4.368-3.782-4.709 3.5-.097 6.557 4.54 3.029 4.634-4.136v-5.168z" fill="#332E4D"/><g filter="url(#filter2_d)"><path d="M57.916 18.34l-1.118-5.966-3.862 3.034 4.98 2.932z" fill="#3995D8"/><path d="M52.877 20.567l5.038-2.226-4.98-2.932-.058 5.158z" fill="#34A6F9"/><path d="M56.395 22.704l1.52-4.364-5.038 2.227 3.518 2.137z" fill="#0085E5"/><path d="M60.274 19.934l-2.359-1.594-1.52 4.363 3.88-2.769z" fill="#085288"/><path d="M57.916 18.339l2.412-3.543v5.136l-2.412-1.593z" fill="#0362A6"/><path d="M60.327 14.796l-3.53-2.422 1.118 5.966 2.412-3.543z" fill="#0085E5"/></g><path d="M33.5 22.53l-2.059-.516V14.26h12.357v7.753l-10.297.517z" fill="#5F4F89"/><path d="M34.016 14.26H31.44v7.754l2.575.517v-8.27z" fill="#6A5899"/><path d="M32.47 18.632v-1.787l-15.447-.797v1.831l15.447.753z" fill="#6A5899"/><ellipse cx="38.529" cy="18.275" rx=".91" ry=".913" fill="#332E4D"/><path opacity=".2" d="M76.712 40.873l-7.819-.976-38.616 3.101 40.142 6.72 9.65-5.475-3.357-3.37z" fill="#161326"/><ellipse cx="72.512" cy="17.242" rx=".91" ry=".913" fill="#332E4D"/><path d="M34.397 40.93l-15.962-4.134-1.03-.517 1.03 4.135 16.991 4.135 33.468-4.652 1.03-2.068h-1.03l-34.497 3.102z" fill="url(#paint2_linear)"/><path d="M22.173 4.957l.515-1.55c5.766-.414 10.297 7.064 11.842 10.854h-1.545c-3.295-7.443-8.581-9.304-10.812-9.304z" fill="#6A5899"/><defs><filter id="filter0_d" x="7.072" y="11.508" width="95.166" height="95.201" filterUnits="userSpaceOnUse" color-interpolation-filters="sRGB"><feFlood flood-opacity="0" result="BackgroundImageFix"/><feColorMatrix in="SourceAlpha" values="0 0 0 0 0 0 0 0 0 0 0 0 0 0 0 0 0 0 127 0"/><feOffset dx="6.981" dy="-2.792"/><feGaussianBlur stdDeviation="2.792"/><feColorMatrix values="0 0 0 0 0 0 0 0 0 0 0 0 0 0 0 0 0 0 0.35 0"/><feBlend in2="BackgroundImageFix" result="effect1_dropShadow"/><feBlend in="SourceGraphic" in2="effect1_dropShadow" result="shape"/></filter><filter id="filter1_d" x="19.05" y="4.163" width="57.22" height="19.954" filterUnits="userSpaceOnUse" color-interpolation-filters="sRGB"><feFlood flood-opacity="0" result="BackgroundImageFix"/><feColorMatrix in="SourceAlpha" values="0 0 0 0 0 0 0 0 0 0 0 0 0 0 0 0 0 0 127 0"/><feOffset dy="4.153"/><feGaussianBlur stdDeviation="2.077"/><feColorMatrix values="0 0 0 0 0 0 0 0 0 0 0 0 0 0 0 0 0 0 0.25 0"/><feBlend in2="BackgroundImageFix" result="effect1_dropShadow"/><feBlend in="SourceGraphic" in2="effect1_dropShadow" result="shape"/></filter><filter id="filter2_d" x="44.571" y="4.068" width="24.064" height="26.942" filterUnits="userSpaceOnUse" color-interpolation-filters="sRGB"><feFlood flood-opacity="0" result="BackgroundImageFix"/><feColorMatrix in="SourceAlpha" values="0 0 0 0 0 0 0 0 0 0 0 0 0 0 0 0 0 0 127 0"/><feOffset/><feGaussianBlur stdDeviation="4.153"/><feColorMatrix values="0 0 0 0 0.270833 0 0 0 0 0.78125 0 0 0 0 1 0 0 0 1 0"/><feBlend in2="BackgroundImageFix" result="effect1_dropShadow"/><feBlend in="SourceGraphic" in2="effect1_dropShadow" result="shape"/></filter><linearGradient id="paint0_linear" x1="38.134" y1="13.227" x2="18.346" y2="20.082" gradientUnits="userSpaceOnUse"><stop stop-color="#3F3F6E"/><stop offset="1" stop-color="#201C33"/></linearGradient><linearGradient id="paint1_linear" x1="16.891" y1="32.144" x2="32.878" y2="23.924" gradientUnits="userSpaceOnUse"><stop stop-color="#1F1D34"/><stop offset="1" stop-color="#443B6F"/></linearGradient><linearGradient id="paint2_linear" x1="66.319" y1="38.863" x2="16.376" y2="38.863" gradientUnits="userSpaceOnUse"><stop stop-color="#5F4F89"/><stop offset="1" stop-color="#524379"/></linearGradient></defs></svg>