<svg width="528" height="756" fill="none" xmlns="http://www.w3.org/2000/svg"><path d="M37.627 194.66L27.21 213.833l-1.185-23.152m-13.534 9.618l13.965 14.098-18.434-2.255" stroke="#201C33" stroke-width=".562"/><g opacity=".5"><path d="M24.53 216.305l7.889-2.034 1.621 7.014-7.179 2.104-2.33-7.084z" fill="#797399"/><path d="M24.53 221.285l-1.838-6.079 1.837 1.099 2.33 7.084-2.33-2.104z" fill="url(#paint0_linear)"/><path d="M29.177 213.336l3.243.935-7.874 2.104-1.853-1.169 6.484-1.87z" fill="#484266"/><path d="M32.42 221.751l-2.085-7.013-2.084-1.169m.695 9.351l-2.084-7.247-2.084-1.169" stroke="#332E4D" stroke-width=".466"/></g><path d="M55.352 145.405l-25.696 12.408m-2.234-27.634l.559 25.941m-10.614-24.249l10.055 25.942m20.11-23.122L29.656 156.12" stroke="#332E4D" stroke-width=".562"/><path d="M34.961 129.501c-5.035 1.44-17.37 4.609-18.88 2.881-1.51-1.729 12.587-2.881 18.88-2.881z" fill="#161326"/><path d="M39.712 124.54c15.174 3.339 17.32 17.482 15.644 20.865-4.117 8.313-8.94-9.023-18.996-12.97-7.127-2.799-16.79-2.256-19.55 0 1.116-3.384 5.585-11.706 22.902-7.895z" fill="url(#paint1_linear)"/><path d="M17.336 189.302c10.614-5.075 21.227 5.64 21.227 5.64s-6.648-2.809-16.2 2.255c-6.77 3.59-14.395 12.107-14.523 15.69-1.795-3.072-6.521-15.925 9.496-23.585z" fill="url(#paint2_linear)"/><path d="M26.789 156.834c0 .934.75 3.384 1.676 3.384.925 0 1.675-2.45 1.675-3.384 0-.934-.75-1.692-1.675-1.692-.926 0-1.676.758-1.676 1.692z" fill="#484266"/><g opacity=".3"><g filter="url(#filter0_d)"><path d="M263.501 688.603c-4.663-13.45-33.804-25.622-47.75-28.218 12.024 12.95 24.202 24.013 28.679 27.229 3.885 2.79 1.403-7.864 19.071.989z" fill="#403865"/></g><g filter="url(#filter1_d)"><path d="M250.598 663.234c-10.32-18.472-55.288-31.114-70.583-24.956 4.899 1.312 33.349 17.289 39.037 25.796 5.39-6.55 21.812-3.156 31.546-.84z" fill="#403865"/></g><g filter="url(#filter2_d)"><path d="M157.073 591.267c.626.52 1.252 1.015 1.881 1.489 7.888 8.474 19.02 44.975 19.02 44.975l24.336 6.169s2.502 1.342 7.278-.023c11.374-3.25 22.56-3.37 28.032-2.789-44.414-38.255-62.415-36.087-78.666-48.332-.652-.7-1.281-1.209-1.881-1.489z" fill="url(#paint3_linear)"/></g><path d="M181.729 565.304c17.955-60.716 77.115-77.14 103.548-73.906l-30.392-28.05c-19.793 8.984-64.614 36.036-85.551 72.371-26.173 45.419-7.861 75.428 28.179 124.668 28.831 39.393 87.879 47.008 113.798 45.892-54.856-7.468-152.025-65.08-129.582-140.975z" fill="#777198"/><g filter="url(#filter3_d)"><path d="M193.887 529.993c-5.715 2.329-5.503-26.383-5.281-36.99.022-2.088 8.609-8.882 12.9-12.018 14.884 7.783 41.499 18.853 40.262 19.132-11.133 2.508-33.002 20.884-33.002 20.884s-9.163 6.663-14.879 8.992z" fill="url(#paint4_linear)"/></g><g filter="url(#filter4_d)"><path d="M207.366 511.682c-6.168.138 4.233-26.621 8.209-36.457.763-1.943 11.2-5.231 16.324-6.632 11.141 12.582 38.543 26.716 37.317 27.042-14.369 3.812-28.648 9.686-44.753 12.948-6.651 1.346-10.929 2.96-17.097 3.099z" fill="url(#paint5_linear)"/></g><g filter="url(#filter5_d)"><path d="M236.253 500.87c-6.168.139.242-19.497 4.218-29.332.763-1.943 43.917-25.306 49.041-26.707 10.443 11.793 31.955 46.314 34.067 49.701.052.08.104.162.154.245.041.068-.013-.019-.154-.245-10.68-16.478-65.215 4.689-74.118 6.528-2.251-.181-7.041-.329-13.208-.19z" fill="url(#paint6_linear)"/></g><path d="M127.347 560.47c-6.457-105.446 112.724-140.183 143.155-154.582l30.461 47.407-44.168 11.611c-22.339 5.909-71.737 35.096-87.009 91.408-15.272 56.312 32.98 108.109 59.016 126.968 3.905 4.511 23.795 15.04 72.111 21.073 48.317 6.032 61.051 36.631 61.378 51.177-8.192-26.157-52.145-42.15-73.097-46.876-53.96-6.769-155.594-46.077-161.847-148.186z" fill="#484266"/><path d="M230.325 708.308c-14.151-1.352-32.859-26.827-38.68-39.783 15.409 8.633 29.024 17.864 33.204 21.459 3.626 3.12-7.296 3.227 5.476 18.324z" fill="#564E81"/><g filter="url(#filter6_d)"><path d="M202.662 701.76c-20.362-5.668-43.275-46.433-40.924-62.775 2.433 4.456 24.669 28.358 34.267 31.878-5.076 6.797 2.105 21.973 6.657 30.897z" fill="#564E81"/></g><g filter="url(#filter7_d)"><path d="M178.107 694.376c-23.368-10.891-37.137-62.516-37.809-83.57 5.431 6.769 20.426 26.322 20.426 26.322l11.747 22.221s1.894 2.117 1.702 7.088c-.459 11.839 2.074 22.752 3.934 27.939z" fill="url(#paint7_linear)"/></g></g><path d="M137.453 366.475l-4.233-92.212 393.598 24.533-20.738 118.438c-10.016 10.857-31.403 31.894-36.82 29.186-5.417-2.707-59.251 33.558-85.491 52.028-.988 2.256-3.217 7.53-4.233 10.575-1.269 3.807-7.194 3.807-14.389 2.961-5.756-.677-14.531 8.178-18.199 12.69-7.787 24.364-15.941 22.841-19.045 19.034-18.198-19.034-22.177-39.761-29.625-39.761-9.311 0-18.199-12.267-14.39-19.034 3.047-5.415-9.593-14.805-14.39-19.881h-41.052l-57.982-40.607-33.011-57.95z" fill="#484266"/><path d="M238.18 437.961l-14.813-44.414-13.966 58.796 19.045 12.689 9.734-27.071z" fill="#B2ADCC"/><path d="M170.464 426.117l-33.435-57.527 33.435 25.803v31.724z" fill="#A29EBA"/><path d="M137.03 368.167l-6.349-94.75 24.547 24.957-18.198 69.793zm33.434 25.38l33.012-28.341 19.891 28.341-13.966 58.796-38.937-26.226v-32.57z" fill="#726C8F"/><path d="M258.494 365.629h-55.019l19.892 28.341 35.127-28.341z" fill="#5C5677"/><path d="M280.502 379.165l-21.584-14.805-35.551 29.61 14.39 43.568 44.438-13.959-1.693-44.414z" fill="#726C8F"/><path d="M330.019 478.568l-48.247-54.989-43.592 13.536-9.311 27.917h40.629l11.427 19.881-1.692 3.807 2.539 10.574 15.659 8.037 11.85 9.729 20.738-38.492z" fill="#5C5677"/><path d="M269.498 465.032l-31.742-27.494-9.311 27.494h41.053z" fill="#726C8F"/><path d="M137.029 368.59l13.967-55.412 53.326 51.182-33.858 30.033-33.435-25.803z" fill="#B2ADCC"/><path d="M330.019 478.568l-48.247-54.989-1.27-45.26 2.539-6.768 7.618-6.345 66.023 4.653 19.045 17.343-45.708 91.366z" fill="#50496F"/><path d="M338.061 527.635l-28.356-10.152 13.966 19.881 7.195 8.459 7.195-18.188z" fill="#484266"/><path d="M346.102 525.943l-7.618 1.692-7.618 18.189 7.618-4.23 7.618-15.651z" fill="#332E4C"/><path d="M338.06 528.058l-8.041-49.49-20.738 38.492 28.779 10.998z" fill="#726C8F"/><path d="M418.473 412.581l23.277-51.605v-8.883l85.068-54.565-20.738 123.513-34.281 26.648-5.925-1.691-44.862 26.648-2.539-60.065z" fill="#3C3755"/><path d="M418.473 412.158l2.539 60.488 45.285-25.379h5.079l-2.539-94.328-10.158-8.459-16.082 13.535-24.124 54.143z" fill="#484266"/><path d="M421.012 473.069l46.132-121.398 4.655 96.019-6.349 3.807-44.438 21.572z" fill="#50496E"/><path d="M418.473 412.581l-42.322-25.379v-11.421l66.446-16.497-24.124 53.297z" fill="#726C8F"/><path d="M402.814 430.347l-26.663-42.722-46.132 90.943 42.323-.846 30.472-47.375z" fill="#3C3755"/><path d="M418.473 412.581l-14.813 17.766-27.509-43.145 42.322 25.379z" fill="#50496E"/><path d="M421.436 472.646l-17.352-43.145 14.39-17.343 2.962 60.488z" fill="#726C8F"/><path d="M385.885 496.334l-12.273-19.881 30.049-46.106 18.198 42.299-35.974 23.688z" fill="#50496E"/><path d="M127.295 266.226c-1.354-8.798 23.137-16.637 35.551-19.457 2.822-1.269 12.612-4.822 29.202-8.883 20.738-5.076 206.533-6.345 218.807-5.922 12.273.423 83.375 24.956 87.184 25.379 3.047.339 18.481 15.087 25.817 22.419l3.385 17.766c-1.551 3.243-5.671 10.574-9.734 13.958-4.063 3.384-8.464 11.28-10.157 14.805-7.195 2.538-11.85 12.267-13.966 16.074-2.117 3.807-22.431 10.152-25.394 10.152-2.962 0-8.888-.846-15.236 0-5.079.676-11.145 6.203-13.543 8.882-5.756-1.015-24.97 8.319-33.858 13.113l-30.049 13.113-13.543-10.152c-2.539 1.269-8.634 4.061-12.697 5.076-4.063 1.015-40.911-6.627-58.828-10.575l-9.734 7.614c-2.68-2.115-9.819-7.275-16.929-10.998-8.888-4.653-52.056-1.692-60.944-2.115-7.11-.338-10.016-8.037-10.581-11.844 0 0-24.329-13.265-25.816-16.073l-3.809-7.191c-3.104-3.807-9.734-12.182-11.427-15.228-1.693-3.045 2.116-12.548 4.232-16.919-8.747-7.332-26.578-24.196-27.933-32.994z" fill="#362B68"/><path d="M127.295 266.226c-1.354-8.798 23.137-16.637 35.551-19.457 2.822-1.269 12.612-4.822 29.202-8.883 20.738-5.076 206.533-6.345 218.807-5.922 12.273.423 83.375 24.956 87.184 25.379 3.047.339 18.481 15.087 25.817 22.419l3.385 17.766c-1.551 3.243-5.671 10.574-9.734 13.958-4.063 3.384-8.464 11.28-10.157 14.805-7.195 2.538-11.85 12.267-13.966 16.074-2.117 3.807-22.431 10.152-25.394 10.152-2.962 0-8.888-.846-15.236 0-5.079.676-11.145 6.203-13.543 8.882-5.756-1.015-24.97 8.319-33.858 13.113l-30.049 13.113-13.543-10.152c-2.539 1.269-8.634 4.061-12.697 5.076-4.063 1.015-40.911-6.627-58.828-10.575l-9.734 7.614c-2.68-2.115-9.819-7.275-16.929-10.998-8.888-4.653-52.056-1.692-60.944-2.115-7.11-.338-10.016-8.037-10.581-11.844 0 0-24.329-13.265-25.816-16.073l-3.809-7.191c-3.104-3.807-9.734-12.182-11.427-15.228-1.693-3.045 2.116-12.548 4.232-16.919-8.747-7.332-26.578-24.196-27.933-32.994z" fill="#CAC6DD"/><path d="M279.761 307.981s-58.455-24.526-68.621-32.137l5.506-5.497c59.726 34.674 78.364-.846 113.098-7.189 27.787-5.074 86.835-10.43 97.425 0l-56.761 28.31 10.59 22.01-30.922 19.874-70.315-25.371z" fill="#B2ADCC"/><path opacity=".2" d="M499.309 257.69L459.526 245l-.847 13.959 20.315 21.15-19.045 16.919 66.869-3.807-3.386-13.112-11.427-11.844-12.696-10.575z" fill="#161326"/><path d="M402.814 342.712l1.693-9.729h1.27l-.847 9.306-14.813 24.534 14.39 8.037-3.809 24.533 2.539-24.11-15.236-7.191 14.813-25.38z" fill="#2F2949"/><path d="M297.431 507.332l-28.356-42.723 9.311 24.111 2.539 10.998 16.506 7.614z" fill="#726C8F"/><path d="M370.225 291.107l23.701-10.575 37.667-21.572 50.787 4.653 6.771-1.269-5.502-9.306 2.54.846 5.078 9.729-5.078 3.807-6.772 12.266s-24.97 26.649-50.364 32.148c-5.976 1.294-15.236.846-15.236.846l-7.618 20.303-53.749 1.692-82.105 37.223 12.273 26.649 27.51 24.956-13.967 52.451 12.697-51.605-27.889-25.802-13.164-27.918 82.952-37.646-5.079-12.69 34.281-6.767-9.734-22.419z" fill="url(#paint8_linear)"/><ellipse cx="200.418" cy="129.66" rx="12.602" ry="12.604" fill="#797399"/><ellipse cx="208.572" cy="158.575" rx="15.567" ry="15.569" fill="#797399"/><ellipse cx="226.363" cy="155.61" rx="8.895" ry="8.897" fill="#797399"/><path d="M264.169 188.973c0 2.866-.099 5.189-2.965 5.189a5.189 5.189 0 1 1 0-10.379c2.866 0 2.965 2.323 2.965 5.19z" fill="#797399"/><ellipse cx="254.532" cy="203.059" rx="8.895" ry="8.897" fill="#797399"/><ellipse cx="233.776" cy="183.041" rx="22.239" ry="22.242" fill="#797399"/><ellipse cx="207.831" cy="186.007" rx="18.532" ry="18.535" fill="#797399"/><ellipse cx="191.152" cy="121.134" rx="20.385" ry="20.389" fill="#797399"/><ellipse cx="188.928" cy="153.015" rx="20.385" ry="20.389" fill="#797399"/><ellipse cx="217.098" cy="139.669" rx="20.385" ry="20.389" fill="#797399"/><ellipse cx="254.161" cy="132.255" rx="20.385" ry="20.389" fill="#797399"/><ellipse cx="248.231" cy="170.808" rx="31.505" ry="31.51" fill="#797399"/><ellipse cx="203.012" cy="131.514" rx="21.868" ry="21.871" fill="#B2ADCC"/><ellipse cx="196.341" cy="150.791" rx="19.644" ry="19.647" fill="#B2ADCC"/><ellipse cx="254.903" cy="217.517" rx="18.162" ry="18.164" fill="#B2ADCC"/><ellipse cx="228.957" cy="150.049" rx="18.162" ry="18.164" fill="#B2ADCC"/><ellipse cx="240.076" cy="153.756" rx="15.196" ry="15.199" fill="#B2ADCC"/><ellipse cx="223.027" cy="187.861" rx="46.33" ry="42.631" fill="#B2ADCC"/><path d="M119.359 107.886c10.082-12.752 49.667 1.853 68.199 10.75l-2.965 1.483c-13.22-6.549-42.698-16.014-54.855-1.483-12.157 14.532 39.176 55.014 51.407 67-13.714-12.233-80.465-54.122-61.786-77.75zm5.931-41.616c-8.478 10.122 1.112 27.653 8.525 32.72 0 0-15.116-17.424-4.077-31.14 6.449-8.014 25.574-6.302 25.574-6.302-13.085-3.062-24.204-2.224-30.022 4.723zm-13.343-4.722c-3.262 4.152.618 9.886 2.965 12.233-2.965-2.965-8.006-10.009-4.448-14.457s11.366-3.09 14.826-1.853c-3.089-.371-10.082-.074-13.343 4.077zm155.206 68.362c5.807 15.184-31.19 43.204-48.307 54.589l4.456-4.76c12.384-8.018 43.703-29.723 37.427-47.6-6.276-17.878-49.067-12.368-65.619-7.978 17.522-5.538 64.784-13.23 72.043 5.749zm32.734 26.366c-4.366-12.461-24.333-13.176-32.475-9.392 0 0 22.698-4.091 28.844 12.408 3.592 9.641-7.653 25.207-7.653 25.207 9.318-9.684 14.281-19.671 11.284-28.223zm10.877-9.058c-1.901-4.925-8.811-4.52-12.028-3.702 4.064-1.034 12.693-1.768 14.698 3.564 2.004 5.333-3.154 11.351-5.984 13.693 1.897-2.466 5.216-8.629 3.314-13.555z" fill="#B2ADCC"/><ellipse rx="8.007" ry="6.29" transform="rotate(117.656 109.412 130.752) skewX(-.007)" fill="#B2ADCC"/><ellipse rx="4.487" ry="3.525" transform="rotate(117.656 110.645 132.08) skewX(-.007)" fill="#D3CFE5"/><ellipse rx="3.5" ry="2.75" transform="rotate(117.656 117.74 127.37) skewX(-.007)" fill="#B2ADCC"/><ellipse rx="2.036" ry="1.6" transform="rotate(117.656 127.76 120.086) skewX(-.007)" fill="#F4F2FF"/><ellipse rx="4.475" ry="3.516" transform="rotate(117.656 96.79 134.018) skewX(-.007)" fill="#B2ADCC"/><ellipse cx="201.901" cy="128.919" rx="12.602" ry="12.604" fill="#D3CFE5"/><ellipse cx="266.764" cy="181.188" rx="6.301" ry="6.302" fill="#D3CFE5"/><ellipse cx="211.537" cy="159.317" rx="15.567" ry="15.569" fill="#D3CFE5"/><ellipse cx="236.37" cy="187.119" rx="21.868" ry="21.871" fill="#D3CFE5"/><ellipse cx="226.363" cy="163.765" rx="14.826" ry="14.828" fill="#D3CFE5"/><ellipse cx="207.831" cy="185.266" rx="14.826" ry="14.828" fill="#D3CFE5"/><ellipse cx="229.328" cy="223.818" rx="11.861" ry="11.862" fill="#D3CFE5"/><path d="M263.428 202.469c0 6.551 2.102 11.862-4.448 11.862-6.55 0-11.861-5.311-11.861-11.862 0-6.552 5.311-11.863 11.861-11.863 6.55 0 4.448 5.311 4.448 11.863z" fill="#D3CFE5"/><ellipse cx="184.967" cy="201.093" rx="31.323" ry="31.751" fill="#B2ADCC"/><ellipse rx="2.595" ry="4.448" transform="rotate(-30.797 318.778 -321.135) skewX(-.008)" fill="#0C0103"/><ellipse rx="1.56" ry="2.674" transform="rotate(-30.797 292.658 -305.165) skewX(-.008)" fill="#0C0103"/><ellipse rx="2.884" ry="4.171" transform="rotate(-42.368 273.765 -179.573) skewX(-.009)" fill="#0C0103"/><ellipse rx="2.3" ry="3.326" transform="rotate(-42.368 292.426 -162.42) skewX(-.009)" fill="#0C0103"/><ellipse rx="1.197" ry="1.731" transform="rotate(-42.368 350.888 -193.06) skewX(-.009)" fill="#0C0103"/><ellipse rx="2.908" ry="4.206" transform="rotate(-18.006 755.17 -637.796) skewX(-.005)" fill="#0C0103"/><ellipse rx="2.048" ry="2.963" transform="rotate(-18.006 801.756 -688.882) skewX(-.005)" fill="#0C0103"/><ellipse opacity=".2" rx="1.197" ry="1.731" transform="rotate(-42.377 52.001 -122.919) skewX(-.027)" fill="#D3CFE5"/><ellipse opacity=".2" rx="2.908" ry="4.206" transform="rotate(-18.006 114.665 -333.896) skewX(-.005)" fill="#D3CFE5"/><ellipse opacity=".2" rx="2.048" ry="2.963" transform="rotate(-18.006 161.248 -384.98) skewX(-.005)" fill="#D3CFE5"/><ellipse rx="1.434" ry="2.075" transform="rotate(2.551 -4988.148 5630.586) skewX(.001)" fill="#0C0103"/><ellipse rx="2.768" ry="4.003" transform="rotate(-45.004 421.59 -176.03)" fill="#0C0103"/><path d="M248.586 84.27c3.339 2.795 2.696 9.07-1.437 14.014-4.132 4.945-10.188 6.688-13.527 3.893-3.338-2.795-2.472-11.064 1.66-16.009s9.966-4.692 13.304-1.898z" fill="#797399"/><path d="M245.712 89.949c2.334 1.952 1.884 6.334-1.005 9.788-2.888 3.454-7.121 4.672-9.454 2.72-2.334-1.952-1.728-7.728 1.16-11.182 2.889-3.454 6.966-3.278 9.299-1.326z" fill="#B2ADCC"/><path d="M243.25 94.448c1.505 1.259 1.215 4.085-.648 6.312-1.862 2.227-4.592 3.012-6.096 1.753-1.505-1.258-1.114-4.983.748-7.21 1.863-2.227 4.492-2.113 5.996-.855z" fill="#D3CFE5"/><path d="M163.847 95.529c-3.348 3.871-10.709 2.996-16.442-1.954-5.733-4.95-7.667-12.102-4.319-15.973 3.347-3.871 13.049-2.697 18.782 2.253 5.733 4.95 5.326 11.802 1.979 15.674z" fill="#797399"/><path d="M158.265 91.7c-2.373 2.746-7.59 2.126-11.653-1.386-4.063-3.511-5.434-8.584-3.061-11.33 2.372-2.745 9.247-1.912 13.311 1.6 4.063 3.51 3.775 8.37 1.403 11.117z" fill="#B2ADCC"/><ellipse rx="2.224" ry="2.966" transform="rotate(-23.69 176.16 -269.057) skewX(-.007)" fill="#B2ADCC"/><ellipse rx="1.453" ry="1.938" transform="rotate(-23.704 160.419 -195.368) skewX(-.035)" fill="#B2ADCC"/><ellipse rx="2.386" ry="3.182" transform="rotate(-23.69 245.032 -385.989) skewX(-.007)" fill="#B2ADCC"/><ellipse rx="3.89" ry="5.188" transform="rotate(.397 -3808.453 30229.93)" fill="#B2ADCC"/><ellipse rx="2.377" ry="3.17" transform="rotate(-30.004 234.817 -281.025) skewX(-.008)" fill="#B2ADCC"/><ellipse rx="1.081" ry="1.442" transform="rotate(-5.887 958.449 -1741.645) skewX(-.002)" fill="#21191A"/><ellipse cx="199.696" cy="47.965" rx="15.567" ry="15.569" fill="#797399"/><ellipse cx="215.263" cy="56.862" rx="15.567" ry="15.569" fill="#797399"/><ellipse cx="198.956" cy="63.534" rx="15.567" ry="15.569" fill="#797399"/><ellipse cx="207.109" cy="76.138" rx="11.119" ry="11.121" fill="#797399"/><ellipse cx="215.264" cy="74.655" rx="11.119" ry="11.121" fill="#797399"/><ellipse cx="214.522" cy="83.552" rx="8.154" ry="8.155" fill="#797399"/><ellipse cx="198.584" cy="48.336" rx="12.231" ry="12.233" fill="#B2ADCC"/><ellipse cx="205.997" cy="57.233" rx="12.231" ry="12.233" fill="#B2ADCC"/><ellipse cx="201.55" cy="65.388" rx="12.231" ry="12.233" fill="#B2ADCC"/><ellipse cx="214.151" cy="66.871" rx="8.525" ry="8.526" fill="#B2ADCC"/><ellipse cx="211.928" cy="83.182" rx="5.56" ry="5.561" fill="#B2ADCC"/><ellipse cx="208.592" cy="53.154" rx="11.119" ry="11.121" fill="#D3CFE5"/><ellipse cx="208.592" cy="66.5" rx="5.93" ry="5.931" fill="#D3CFE5"/><path opacity=".2" d="M104.244 77.138l87.879 109.804-7.403 14.48c-6.662-4.827-20.948-15.223-24.798-18.193-3.849-2.97-1.604-9.654 0-12.624-26.278-13.737-5.922-32.77-13.324-34.9-5.922-1.705-7.649-6.156-7.773-8.169-20.134 3.565-24.674-19.554-24.428-31.559-4.441-3.564-6.045-8.168-6.291-10.024-2.824-1.647-5.859-4.288-8.865-7.457a47.483 47.483 0 0 0-4.83 1.887c-41.75 19.01 38.246 89.518 65.511 117.116C121.183 163.96 18.98 85.21 75.535 67.389a75.333 75.333 0 0 1 12.722-2.82c-5.605-8.333-9.536-16.311-9.172-18.867l14.67 18.33c51.467-3.241 104.959 42.489 129.217 63.504-24.961-18.179-77.892-59.236-118.728-50.398z" fill="#F4F2FF"/><path d="M299.111 135.41l.422-8.04-8.882 4.655 8.46 3.385z" fill="#332E4D"/><path d="M261.464 255.585l-17.343-115.52 55.835 13.117-5.076 107.904-33.416-5.501z" fill="url(#paint9_linear)"/><path d="M232.278 264.894l-17.343-82.091 33.839 20.734 7.614 72.782-24.11-11.425z" fill="url(#paint10_linear)"/><path d="M280.076 261.932l6.345-80.399-37.647 22.004 7.614 72.782 23.688-14.387z" fill="url(#paint11_linear)"/><path d="M213.243 183.193l38.915-20.701 34.686 19.041-37.956 22.427-35.645-20.767z" fill="#484266"/><path d="M217.896 182.803l34.262-18.619 30.456 16.926-33.84 19.465-30.878-17.772z" fill="#332E4D"/><path opacity=".3" d="M249.62 200.152l-15.651-16.08 13.113 7.194 17.766-16.503 13.113 9.309-28.341 16.08z" fill="#201C33"/><path d="M246.236 186.188l-14.381-6.77 20.726-10.579 12.69 5.924-19.035 11.425z" fill="url(#paint12_linear)"/><path d="M233.969 184.496l-2.114-4.232 13.535 6.347.846 5.078-12.267-7.193z" fill="url(#paint13_linear)"/><path d="M263.579 180.687l-16.92 11.002v-4.655l18.612-11.848-1.692 5.501z" fill="#363054"/><path d="M190.401 155.298l-34.686-17.772 33.84-14.81 33.839 13.964-32.993 18.618z" fill="#797399"/><path d="M190.401 155.298l-30.878-16.25 29.293-11.255 29.926 12.272-28.341 15.233z" fill="#332E4D"/><path opacity=".4" d="M189.978 133.294l-17.765 1.693 16.919-7.194 28.764 12.272-7.191 4.231-20.727-11.002z" fill="#201C33"/><path opacity=".5" d="M174.75 146.835l10.998-6.347 2.115 1.269 2.115 13.541-15.228-8.463z" fill="#201C33"/><path d="M193.785 282.243l-38.492-145.14 35.954 18.618 27.072 136.255-24.534-9.733z" fill="url(#paint14_linear)"/><path d="M235.661 279.281L223.395 136.68l-32.994 18.195 27.918 137.524 17.342-13.118z" fill="url(#paint15_linear)"/><path d="M299.533 153.182l-55.412-13.118 41.454-15.233 13.958 2.539-8.883 4.654 11.844 3.385 8.883-5.924 14.382 4.232-26.226 19.465z" fill="#484266"/><path d="M299.956 153.182l-48.644-11.848 34.263-13.541 9.739 2.03 3.373-1.606-2.961 1.692-.412-.086-5.509 2.625v3.808l12.689 3.386 8.037-5.501 10.575 3.808-21.15 15.233z" fill="#332E4D"/><path opacity=".4" d="M268.232 141.334l16.92-13.541-33.417 13.541 41.454 9.733-24.957-9.733zm52.028-3.808l-9.729-3.385-8.037 5.501 5.499-.847 12.267-1.269z" fill="#201C33"/><path d="M312.646 247.122l12.69-113.405-25.38 19.465-5.922 108.327 18.612-14.387z" fill="url(#paint16_linear)"/><path d="M130.484 184.449l-20.069 20.417c-6.349-5.003-9.371-7.866-14.236-13.786l20.209-20.658 14.096 14.027z" fill="#4F331F"/><path d="M109.439 209.709l-6.492 6.67s-6.197-5.331-9.69-8.849c-3.493-3.518-8.198-9.167-8.198-9.167l6.197-6.367c.708-.727 3.676-.946 5.072-.965 0 0 4.559 5.012 7.281 7.684 2.84 2.786 6.962 6.191 6.962 6.191l-1.132 4.803z" fill="#826349"/><path d="M110.571 204.906l-.852 3.908c-2.517-1.862-9.557-7.893-17.577-17.122.893-.311 2.79-.642 4.186-.661 0 0 4.558 5.012 7.281 7.683 2.84 2.787 6.962 6.192 6.962 6.192z" fill="#544027"/><path d="M103.219 214.885l-4.848-4.723 4.721-4.851 5.439 4.117-5.312 5.457z" fill="#7E2E06"/><path d="M103.187 212.492l1.476-1.516m1.475-1.516l-1.475 1.516m0 0c-.997.013-2.874-.201-2.409-1.165.466-.964 1.572-1.816 2.066-2.122l.909.885m-4.45 2.753s.156-.704-.016-1.197l-.311-.894.016 1.197c.007.496.311.894.311.894z" stroke="#826349" stroke-width=".846"/><path d="M90.49 202.486l-4.242-4.133 5.312-5.457 3.652 4.74-4.721 4.85z" fill="#7E2E06"/><path d="M91.354 199.173c.487-.905 1.339-2.831.854-3.303m-2.632 4.523c-.907-.686-1.892-2.787 1.42-5.704m-.55 3.598s1.112-.469.885-.909a.591.591 0 0 0-.303-.296.67.67 0 0 0-.894.311c-.16.333.311.894.311.894z" stroke="#826349" stroke-width=".846"/><path d="M97.764 209.571l-6.667-6.494 4.722-4.851 6.667 6.495-4.722 4.85z" fill="#7E2E06"/><path d="M97.255 207.304c-.513-1.091-1.244-3.575-.063-4.787 1.18-1.213.274-1.899-.327-2.091m-2.632 4.524c-.243-.236-.629-.77-.791-1.007l1.357-1.394-.566 2.401zm5.088.232c-.52-.058-.7-.674-.614-1.189.082-.489.393-.965.885-.91.519.058.701.674.614 1.189-.082.489-.393.965-.885.91z" stroke="#826349" stroke-width=".846"/><path d="M104.439 216.664c-.869 2.106-2.943 3.63-2.943 3.63-1.713-.486-6.62-4.117-11.484-8.824-5.472-5.296-8.716-10.455-8.716-10.455s2.05-3.521 3.445-3.54c0 0 6.393 7.981 9.115 10.652 2.84 2.787 10.745 8.146 10.583 8.537z" fill="#8D0E03"/><path d="M98.17 217.646l3.247-3.335m-7.784-.495l2.951-3.031m-7.194-1.102l2.951-3.031m-6.898-1.405l2.95-3.031" stroke="#000" stroke-opacity=".16" stroke-width=".423"/><path d="M97.411 214.8c-.121-.028-.26-.028-.355-.117a3.154 3.154 0 0 0-.295-.251c-.27-.196-.442-.524-.61-.803-.132-.22-.348-.458-.307-.743.045-.307.386-.612.697-.585.106.009.248.127.343.176.16.083.338.132.491.224.336.201.621.421.9.693.441.429.74.874.786 1.496.032.455-.285.911-.596 1.23-.127.131-.268.342-.476.316-.233-.028-.39-.299-.596-.395-.113-.052-.19-.168-.294-.237-.124-.083-.24-.18-.365-.261a5.357 5.357 0 0 1-.808-.675l-.825-.804m-2.523-2.791c-.121-.027-.26-.028-.355-.116a3.008 3.008 0 0 0-.296-.252c-.27-.196-.441-.524-.61-.803-.131-.22-.347-.458-.306-.742.045-.307.386-.612.697-.585.106.009.248.126.343.176.16.083.337.131.491.223.336.201.62.421.9.693.441.43.74.874.786 1.497.032.454-.285.91-.596 1.229-.128.132-.268.342-.476.317-.233-.029-.39-.3-.597-.395-.112-.053-.19-.169-.293-.238-.124-.083-.24-.179-.365-.261a5.299 5.299 0 0 1-.808-.675l-.825-.804m-1.343-4.003c-.12-.028-.26-.028-.355-.117a3.166 3.166 0 0 0-.295-.251c-.27-.196-.442-.524-.61-.803-.132-.22-.348-.458-.306-.742.044-.307.385-.613.697-.586.106.009.247.127.343.177.159.082.337.131.49.223.336.201.621.421.9.693.442.43.741.874.786 1.497.033.454-.285.91-.596 1.229-.127.131-.267.342-.476.316-.232-.028-.39-.299-.596-.395-.113-.052-.19-.168-.294-.237-.124-.083-.24-.179-.365-.261a5.357 5.357 0 0 1-.808-.675l-.825-.804m-1.342-4.003c-.121-.028-.26-.028-.355-.117a3.215 3.215 0 0 0-.295-.252c-.27-.195-.442-.523-.61-.802-.132-.22-.348-.458-.307-.743.045-.307.386-.612.697-.585.106.009.248.127.343.176.16.083.338.132.491.224.336.2.621.421.9.693.441.429.74.874.786 1.496.032.454-.285.911-.596 1.23-.127.131-.268.342-.476.316-.232-.028-.39-.299-.596-.395-.113-.052-.19-.168-.294-.237-.124-.084-.24-.18-.365-.262a5.299 5.299 0 0 1-.808-.675l-.825-.803m18.511 16.607c-.088 0-.194.023-.251-.029a1.155 1.155 0 0 0-.183-.143c-.172-.105-.247-.329-.327-.516-.063-.147-.187-.294-.106-.522.087-.245.4-.54.633-.573.08-.011.168.055.232.077.108.037.235.044.337.088.222.098.402.219.568.381.263.256.416.548.342 1.022-.053.346-.374.754-.667 1.054-.12.124-.264.311-.419.327-.172.018-.247-.164-.387-.202-.077-.021-.117-.098-.184-.133-.08-.043-.152-.098-.234-.139a2.07 2.07 0 0 1-.501-.383l-.492-.479" stroke="#7F3D1E" stroke-width=".423" stroke-linecap="round" stroke-linejoin="round"/><path d="M114.178 175.524l20.339-20.148c6.281 5.086 9.265 7.989 14.051 13.974l-20.482 20.386-13.908-14.212z" fill="#4F331F"/><path d="M135.557 150.546l6.58-6.582s6.126 5.412 9.572 8.976c3.445 3.564 8.075 9.275 8.075 9.275l-6.281 6.284c-.718.718-3.689.898-5.085.898 0 0-4.491-5.073-7.178-7.78-2.803-2.824-6.879-6.283-6.879-6.283l1.196-4.788z" fill="#826349"/><path d="M134.361 155.334l.904-3.896c2.492 1.895 9.451 8.018 17.347 17.354-.897.299-2.798.605-4.193.605 0 0-4.492-5.072-7.179-7.78-2.803-2.824-6.879-6.283-6.879-6.283z" fill="#544027"/><path d="M141.845 145.453l4.785 4.788-4.785 4.787-5.384-4.189 5.384-5.386z" fill="#7E2E06"/><path d="M141.845 147.847l-1.496 1.496m-1.495 1.496l1.495-1.496m0 0c.997 0 2.872.239 2.393 1.197-.479.957-1.595 1.795-2.094 2.094l-.897-.897m4.486-2.693s-.165.701 0 1.197l.3.897v-1.197c0-.495-.3-.897-.3-.897z" stroke="#826349" stroke-width=".846"/><path d="M154.406 158.02l4.188 4.189-5.384 5.386-3.589-4.788 4.785-4.787z" fill="#7E2E06"/><path d="M153.499 161.322c-.498.897-1.375 2.812-.897 3.291m2.692-4.488c.897.698 1.855 2.812-1.495 5.685m.598-3.591s-1.119.455-.898.898a.591.591 0 0 0 .3.299c.33.165.732.031.897-.299.165-.331-.299-.898-.299-.898z" stroke="#826349" stroke-width=".846"/><path d="M147.229 150.839l6.58 6.582-4.786 4.788-6.58-6.583 4.786-4.787z" fill="#7E2E06"/><path d="M147.708 153.113c.498 1.097 1.196 3.591 0 4.787-1.197 1.197-.3 1.895.299 2.095m2.692-4.488c.239.239.618.778.777 1.017L150.1 157.9l.599-2.393zm-5.085-.299c.518.064.691.682.598 1.196-.089.488-.406.96-.897.898-.519-.065-.692-.683-.598-1.197.088-.488.405-.959.897-.897z" stroke="#826349" stroke-width=".846"/><path d="M140.647 143.657c.898-2.094 2.992-3.59 2.992-3.59 1.707.509 6.565 4.204 11.368 8.975 5.403 5.367 8.578 10.568 8.578 10.568s-2.096 3.492-3.492 3.492c0 0-6.288-8.063-8.975-10.769-2.803-2.824-10.637-8.287-10.471-8.676z" fill="#8D0E03"/><path d="M146.93 142.76l-3.29 3.292m7.776.598l-2.991 2.992m7.179 1.197l-2.991 2.992m6.879 1.496l-2.991 2.992" stroke="#000" stroke-opacity=".16" stroke-width=".423"/><path d="M147.651 145.616c.121.029.26.031.354.121.096.092.185.176.291.256.267.199.435.529.599.811.13.221.343.462.297.746-.049.306-.393.607-.704.576-.106-.011-.247-.13-.341-.181-.158-.085-.336-.136-.488-.23a4.743 4.743 0 0 1-.891-.705c-.435-.435-.729-.884-.765-1.507-.027-.454.297-.906.612-1.221.129-.13.272-.339.48-.31.232.031.387.304.591.403.112.054.188.171.29.241.124.085.238.183.362.266.301.203.542.429.799.686l.814.815m2.486 2.823c.121.029.26.032.354.121.096.092.185.177.291.256.267.199.435.53.599.811.129.221.342.462.297.746-.049.307-.393.607-.705.576-.106-.01-.246-.13-.34-.181-.158-.084-.336-.135-.488-.23a4.743 4.743 0 0 1-.891-.705c-.435-.435-.729-.884-.765-1.506-.027-.455.296-.907.612-1.222.129-.129.272-.338.48-.31.232.032.387.305.591.403.112.054.188.171.29.241.124.085.238.183.362.266.301.204.542.429.799.686l.814.815m1.289 4.02c.121.03.26.032.354.122.095.091.185.176.291.255.267.2.435.53.599.811.129.222.342.463.297.747-.049.306-.393.607-.705.576-.106-.011-.246-.13-.34-.181-.159-.085-.336-.136-.488-.23a4.743 4.743 0 0 1-.891-.705c-.435-.435-.729-.884-.765-1.507-.027-.454.296-.906.611-1.222.13-.129.273-.338.481-.309.232.031.386.304.591.402.112.054.188.171.29.242.123.085.238.182.362.266.3.203.542.428.799.686l.814.814m1.289 4.021c.121.029.261.032.354.121.096.092.185.176.292.256.267.199.435.53.599.811.129.221.342.462.297.746-.049.306-.394.607-.705.576-.106-.011-.246-.13-.341-.181-.158-.085-.335-.136-.488-.23a4.705 4.705 0 0 1-.89-.705c-.436-.435-.729-.884-.766-1.507-.027-.454.297-.906.612-1.221.129-.13.272-.338.48-.31.232.032.387.304.591.403.112.054.188.171.291.241.123.085.237.183.361.266.301.203.542.429.799.686l.815.815m-18.29-16.852c.088.002.195-.02.251.033.058.054.112.103.18.146.171.107.243.332.321.52.061.148.183.296.099.523-.09.244-.407.534-.641.564-.08.01-.167-.057-.231-.08-.107-.038-.234-.046-.335-.092a1.868 1.868 0 0 1-.564-.389c-.259-.259-.407-.554-.328-1.026.058-.345.385-.749.681-1.045.122-.122.268-.308.423-.322.173-.015.245.168.385.208.077.022.115.099.182.135.08.044.151.1.232.143.196.104.343.236.496.389l.486.486" stroke="#7F3D1E" stroke-width=".423" stroke-linecap="round" stroke-linejoin="round"/><path opacity=".2" d="M179.826 228.504l5.922-36.815 4.653-2.539-2.538 71.09-8.037-31.736z" fill="#201C33"/><path opacity=".3" d="M179.827 228.503l2.538-11.425 4.653 5.501.846 37.66-8.037-31.736z" fill="#201C33"/><path d="M175.545 120.177c-8.46 0-34.492 32.018-42.247 49.508-6.486 7.194-23.435 19.635-25.803 25.39-2.369 5.754 9.358 28.351 19.034 35.121 2.544 3.159 9.626 11.057 14.382 13.541 2.888 1.508 5.283-1.732 5.922-2.116 1.692-1.015-2.115-5.783-4.23-8.04l-8.088-18.618c9.728-2.116 30.117-5.078 33.839 0 3.722 5.077 10.857 6.347 13.959 6.347l2.589 4.231.846-1.269.846-1.27-.474-4.231-2.961-1.269c-1.974-1.552-6.26-5.501-7.614-8.887-1.354-3.385-.564-8.181 0-10.155l1.692-7.194c2.82 1.27 8.967 3.047 10.998 0 2.03-3.047 1.743-5.642.897-6.77l-4.704 4.231c-.987-2.539-4.146-7.616-8.883-7.616-4.738 0-6.768 9.309-7.191 13.964-2.538 0-9.137-1.693-15.228-8.463-6.091-6.771 12.408-33.853 22.419-46.547l5.922-1.693 10.203-4.654-1.743-11.425c-1.269-.424-5.922-2.116-14.382-2.116z" fill="url(#paint17_linear)"/><path d="M168.355 195.075c-2.538 0-9.137-1.693-15.228-8.463l12.741 26.658c.683.336 2.146 1.145 2.538 1.693 3.723 5.077 9.165 5.924 12.267 5.924l1.269-4.655c-1.974-1.551-5.043-4.231-6.397-7.617-1.353-3.385-.564-8.18 0-10.155l1.692-7.194 2.167.847c.987-2.257 2.792-7.025 2.115-8.04-.846-1.27-3.064-2.962-5.974-2.962-4.737 0-6.767 9.309-7.19 13.964z" fill="#190E05"/><path d="M179.404 182.38l-1.269 9.309m2.961-8.039l-2.115 8.463m1.692 23.273l-2.961 5.077m3.806-4.654l-2.537 5.078" stroke="#7E2E06" stroke-width=".423"/><path d="M144.136 147.377c-2.538-1.269-4.653 8.04-9.729 8.886-.705 7.617-.423 23.189 6.345 24.543 6.768 1.354 9.024-4.796 9.729-8.463.705-3.667-1.692-3.808-1.692-3.808.282 0 1.184-.593 2.538-2.962 1.353-2.37-1.974-3.244-3.807-3.386.705-1.269 2.961-2.961 2.961-6.77 0-2.464-3.948-1.834-6.345-1.269.846-.847 1.938-5.801 0-6.771z" fill="url(#paint18_linear)"/><path d="M167.983 193.805c-5.753-2.708-10.011-7.335-11.421-9.309l-17.766-22.004-22.418 41.469c9.729 17.349 35.616 8.547 37.646 8.886 2.03.338-5.499 8.322-6.345 12.271 6.768-2.962 12.126 5.924 15.228 8.04 10.152-10.579 10.829-36.645 5.076-39.353z" fill="url(#paint19_linear)"/><path opacity=".3" d="M157.831 210.731l8.46-13.541s.318 2.928 0 5.078c-.722 4.877-8.46 8.463-8.46 8.463z" fill="#161326"/><path d="M167.137 194.228c7.191 12.272-1.692 37.238-4.23 36.814-1.586-.915-2.875-4.228-5.499-5.924-2.496-1.612-8.037-2.115-8.037-2.115s3.384-2.963 5.499-7.194c.513-1.027.846-2.539 1.269-3.808" stroke="#9F3605" stroke-opacity=".7" stroke-width=".423" stroke-linecap="round" stroke-linejoin="round"/><path d="M174.751 120.177c-2.707 0-10.152 6.77-13.536 10.155l9.306 16.503 5.922-6.77s5.056.573 8.037-.423c6.345-2.12 8.459-6.771 8.459-6.771-.704-3.667-3.891-10.832-4.229-11.848-.423-1.269-10.575-.846-13.959-.846zm-33.84 109.173l-11.844 4.231c1.269 3.809 10.998 10.579 12.69 11.002 1.692.423 5.922-2.116 6.345-3.808.339-1.354-2.115-5.078-5.076-6.771l-2.115-4.654z" fill="#332E4C"/><path d="M144.718 239.505l-.117 1.795c1.755.765 3.365-.56 3.501-1.371 0 0-.418-1.731-1.152-2.531-.716-.78-2.349-1.35-2.349-1.35l-1.265 1.407 1.382 2.05z" fill="#85581F"/><path d="M134.898 241.935c-.014-.338.947-.992 1.145-1.019.607.881.85 1.793.604 2.209-.536-.227-1.695.144-1.749-1.19z" fill="#2E1B0B"/><path d="M136.224 243.144c-.57-.114-1.549-.521-.904-1.228.644-.708-.33-2.411-.33-3.257 1.691-.846 3.806-1.109 3.268 2.696-.238 1.676-1.324 1.898-2.034 1.789z" fill="#7E531D"/><path opacity=".5" d="M122.3 219.617c-16.92-20.734 6.345-15.656 22.628-29.665l7.404-10.957c9.729 25.812-15.651 50.355-21.995 50.355l-8.037-9.733z" fill="#201C33"/><path d="M143.079 236.613c-.214.262.282 1.128.423 1.269 1.015-.339 1.586-1.281 1.639-1.761-.564-.141-1.216-.541-2.062.492z" fill="#2E1B0B"/><g filter="url(#filter8_d)"><path d="M140.927 238.659l.846 1.693s-1.152.262-1.269.846c-.137.688.637.967 1.269 1.27 1.054.504 2.945.282 3.368-.424.423-.705.742-1.765.407-2.538-.42-.972-2.522-2.116-2.522-2.116l-2.099 1.269z" fill="#85581F"/></g><path opacity=".2" d="M142.603 240.775c0-.339 5.499-7.194-5.076-3.385-1.184.426-1.244 2.823-1.269 2.962-.846 4.654 1.692 2.116 4.23 1.692 1.597.143 2.115-1.091 2.115-1.269z" fill="#161326"/><path d="M140.911 237.586c-.33.304-.195.894 0 1.073 1.403-.429 2.115-1.09 2.115-1.269l-.006-.006c-.581-.533-.944-.866-2.109.202z" fill="#2E1B0B"/><path d="M139.642 227.657l-10.575 5.924-1.692-1.693 11.421-5.924.846 1.693z" fill="#332E4C"/><path opacity=".5" d="M178.558 130.756c-2.708 0-2.961.423-6.345 3.808l-1.692 12.271 5.922-6.77s5.055.573 8.036-.423c6.345-2.12 8.46-6.771 8.46-6.771-.705-3.667-3.891-10.832-4.23-11.848-.423-1.269-6.768 9.733-10.151 9.733z" fill="#161326"/><path d="M187.017 223.003c-.705 1.128-2.199 3.3-2.537 2.962-.077-.077-.126-.227-.155-.424-.23 0-.776-.169-1.115-.846-.338-.677-.141-1.128 0-1.269l-.845-2.116.845-3.808 2.961 1.269.846 4.232z" fill="#2E1B0B"/><path d="M184.325 225.541c-.23 0-.269-.423-.269-1.269 0-.846.423-1.693.423-1.693-.109.655-.251 2.291-.154 2.962z" fill="#1C0101"/><path d="M189.555 183.65l-.317.423s-2.492.271-3.49 1.269c-.998.999-1.269 3.385-1.269 3.385l.423 4.232s2.538-.423 4.653-1.27c2.115-.846 0-8.039 0-8.039z" fill="#2E1B0B"/><path d="M102.18 199.56c-1.552-2.302-.323-14.387.486-20.142l14.557 18.703c-1.617 1.439-3.785 3.741-3.396 5.276.485 1.918-5.823 4.795-6.794 4.795-.97 0-.485-.082-.485-1.438 0-.96-.162-1.759-.485-2.398-.486.479-1.456 1.918-2.912 1.438-.693-.228-.507-1.216-.121-2.189-.971.957-2.163-.349-1.82-.688.485-.48.809-2.238.97-3.357z" fill="url(#paint20_linear)"/><path opacity=".7" d="M188.286 185.765l.846-1.692s-2.387.269-3.384 1.269c-.888.891-1.269 3.385-1.269 3.385.846.423 2.538-1.269 3.807-2.962z" fill="#161326"/><path d="M184.903 186.612l1.692 1.692-.846.846 1.269.424v1.692h-1.269l1.269 1.693-1.623 1.217c-.008.037-.035.052-.069.052l.069-.052c.024-.116-.147-.448-.915-1.217h-1.269l.846-5.078.423.423.423-1.692z" fill="url(#paint21_linear)"/><path d="M185.584 220.261l.032-2.393-1.136-.366-2.538-.847-2.052 4.429 2.241.366-.189.283.423.423.508-.434.885.909 1.212-1.181-.582-1.205 1.196.016z" fill="url(#paint22_linear)"/><path d="M185.749 140.488l2.115 1.27c-4.653-15.234-6.537-23.039-11.844-31.782-2.961-5.456-9.729-13.919-9.729-13.919l-.846-.423v.847s4.018 4.443 9.306 13.54c5.287 9.098 10.998 30.467 10.998 30.467z" fill="#484266"/><path d="M159.523 132.025l8.46 18.619 4.23-5.925-9.306-16.502-3.384 3.808zm5.076 23.697l-15.228-11.426c.338-1.354 2.961-4.513 4.23-5.924l14.382 12.272s-1.155 1.642-1.692 2.539c-.601 1.002-1.692 2.539-1.692 2.539z" fill="#332E4D"/><path opacity=".5" d="M171.367 145.989l-6.768-19.465.423-.423 7.191 18.619-.846 1.269zm-1.269 1.693l-9.729-16.503v-.423l10.152 16.079-.423.847z" fill="#161326"/><path d="M185.325 137.103c-.914-.838-2.504-3.294-2.44-4.502.065-1.208 2.65-6.469 6.775-6.061 4.125.407 4.244 4.858 3.846 5.406-.397.548-3.951 5.58-8.181 5.157z" fill="#85581F"/><path d="M182.561 136.468c.995 2.01 3.725.324 3.725.324l-3.139-4.474s-2.055 1.181-.586 4.15z" fill="#2E1B0B"/><g filter="url(#filter9_d)"><path d="M192.399 126.41c.54-2.002-.729-4.964-3.77-5.381-1.387-.191-6.025 2.755-8.001 5.083 1.31 2.385 2.883 6.305 3.546 6.07.664-.235 6.312-3.264 8.225-5.772z" fill="#85581F"/></g><path d="M186.456 126.375c-.464-1.741-4.091-1.543-4.091-1.543l2.537 4.654s2.238-.54 1.554-3.111zm-6.894 4.985c.872 3.012 4.713 1.314 4.713 1.314l-3.127-6.918s-2.874 1.157-1.586 5.604z" fill="#2E1B0B"/><path d="M182.365 124.831c-1.27.001-3.807.424-7.191 1.27-3.807 2.539-.677 7.278 1.692 7.617 2.369.338 7.045-3.576 8.314-4.422 0 0-.278-1.926-.847-3.385-.568-1.46-.631-1.08-1.968-1.08z" fill="#A16E2E"/><path d="M157.831 134.296c.564-.282 1.269-2.24 1.269-3.594 0-1.354.846-1.484 1.269-.847.419.631.354 1.598.08 2.016.484-.565.989-.457 1.189-.323.423 1.27 0 2.116-.423 2.539 1.015-.677 1.269 0 1.269.423 0 1.27 0 2.539-.846 2.539-.677 0-2.679-1.483-3.807-2.753z" fill="#A37031"/><path d="M97.63 166.112c-.505 3.76-5.144 7.918-7.4 9.528 4.884 4.345 9.782-.539 11.621-3.525.198 3.293.564 10.234.446 11.657-.117 1.423-1.068 5.526-1.529 7.4l3.552 3.799 1.646-3.62-.593 7.095 3.475 2.414 1.043-4.478 1.201 6.225c4.318 4.818 13.93 13.602 22.861 8.673 8.932-4.928 11.512-14.82 11.057-18.96l-3.085-5.654 4.053 4.32.03-5.558-3.014-4.288 3.885 2.636-.258-6.511-4.463-4.542c-.288-1.855-4.379-8.036-6.389-10.895 3.065 2.192 6.641.414 8.936.064 2.295-.349 5.222-5.399 2.056-3.398-3.165 2.001-10.501-4.098-11.757-3.717-1.005.305-5.393-.445-7.462-.859-13.905-5.146-22.997 5.588-23.24 7.049-.194 1.169-4.528 3.917-6.671 5.145z" fill="url(#paint23_linear)"/><path d="M126.75 164.584l-1.606 4.996c1.549.918 5.357 2.121 8.197-.405 2.84-2.526.259-5.628-1.386-6.863l-5.205 2.272z" fill="#2E1B0B"/><path opacity=".8" d="M130.187 168.132c2.597-1.324 2.941-3.673 2.074-4.754-1.307.234-6.088 3.764-6.803 4.791 0 0 2.132 1.288 4.729-.037z" fill="#F4F2FF"/><ellipse cx="127.799" cy="166.3" rx="1.269" ry="1.269" fill="#161326"/><path d="M124.613 162.111l-3.126 6.844c.793 1.702 2.8 1.232 3.657.625 1.262-3.157 7.068-6.421 9.861-7.499-2.117-2.41-5.058-1.819-6.264-1.222l-.385-1.27-3.04 3.696-.703-1.174z" fill="#C39768"/><path d="M111.192 169.303l4.109 3.263c-.779 1.623-3.279 4.74-7.043 4.217-3.764-.524-3.339-4.537-2.656-6.478l5.59-1.002z" fill="#2E1B0B"/><path opacity=".8" d="M109.61 173.917c-2.915 0-4.288-1.937-4.006-3.294 1.27-.385 7.133.588 8.236 1.178 0 0-1.314 2.116-4.23 2.116z" fill="#F4F2FF"/><ellipse cx="108.341" cy="171.378" rx="1.269" ry="1.269" fill="#161326"/><path d="M108.991 226.461c9.776 6.346 16.337 4.829 21.176-8.725l-4.319.151c-2.623-.28-8.25.025-9.769 3.479-1.52 3.454-5.359 4.836-7.088 5.095z" fill="#693015"/><path opacity=".3" d="M112.953 228.591c4.466 1.66 14.864-4.077 13.656-10.881l3.414.327c-2.823 10.46-8.28 12.463-13.608 11.984l-3.462-1.43a3.781 3.781 0 0 1-.244-.101l.244.101z" fill="#201C33"/><path d="M176.02 125.255c-.338 0-1.128.564-1.269.846-3.046 2.37-1.128 5.219 0 6.347l1.269-1.692c.282-.142.931-.593 1.269-1.27.339-.677-.423-.846-.846-.846.282-.141.846-.593.846-1.27s-.846-.564-1.269-.423c.846-.423.423-1.692 0-1.692z" fill="url(#paint24_linear)"/><path d="M111.596 166.059l6.399 3.955c.285 1.856-1.645 2.58-2.694 2.552-2.802-1.925-9.442-1.414-12.364-.759.423-3.18 3.197-4.322 4.531-4.496l-.385-1.27 4.581 1.385-.068-1.367z" fill="#C39768"/><path d="M125.859 217.164l-1.09-4.62c3.339.548 6.321.058 6.962-.243l-1.679 5.872c-2.303 1.63-3.755.007-4.193-1.009z" fill="#4D0026"/><path d="M115.994 170.275l-6.092-7.517 2.704.914-3.667-4.09-2.261-1.742c.624-.909 1.651-1.87 2.932-2.741.141-.357.254-1.246-.423-1.949-.676-.703-2.538.011-3.384.456.142-.282.514-.982.875-1.522.361-.539 1.658-.621 2.261-.594 2.057.553 6.171 1.497 6.171.846 0-.651-1.67-1.399-2.504-1.692 1.72-.339 4.641.819 5.887 1.44 1.672-.033 3.317.277 4.792 1.066l-.683 5.756 2.473-2.137-1.076 12.465-6.985 2.119-1.02-1.078zm3.683 9.974l5.398-1.637c1.482.54 6.279 7.181 9.761 12.653 2.378 3.736 5.315 9.718 6.901 12.474-2.262-5.557-9.827-22.063-14.361-25.127 3.211.298 11.623 3.969 12.501 8.696.215-2.724-1.444-9.342-9.797-14.022 2.566.84 8.386.467 9.563-5.716l2.734 5.107 4.457 4.202.057 7.262-2.935-2.224 2.271 3.465.049 5.881-3.272-3.16 2.609 4.402-1.885 7.508-1.991 3.726c-4.397 7.229-9.467 10.528-14.361 10.377-2.138-.066-4.99-2.901-6.402-3.387 0 0-2.124-9.228-2.331-14.553-.211-5.446 1.034-15.927 1.034-15.927z" fill="#693015"/><path d="M112.935 178.486c-4.764 5.329-9.4 2.157-10.709.126 0 2.922-.778 9.253-1.49 12.244l3.446 4.504 1.577-3.947-.615 7.123 3.917 2.627.971-4.803.972 6.642c1.531 1.617 5.101 5.389 8.632 6.746-3.811-8-2.293-23.664-1.143-28.638-5.503 4.722-6.412 13.242-5.95 15.529-4.85-6.852-1.76-14.957.392-18.153z" fill="#693015"/><path d="M114.082 176.929c-1.017.308-1.506 3.142-1.883 3.803 1.205-.6 9.655-2.46 10.607-2.749.762-.231 6.413-2.101 9.143-3.007-.638-.197-2.508-2.103-3.374-2.215-.866-.112-4.806 2.959-6.88 3.744-1.926.507-6.597.115-7.613.424z" fill="#0D0A1A"/><path d="M112.607 175.117c-.308-1.017 1.603-2.336 2.597-2.869 2.701-6.646 7.053-4.566 8.891-2.696 1.27-.385 3.862-.755 4.07.846.208 1.602-1.626 1.881-2.569 1.82-1.631 7.431-7.03 5.022-9.525 2.889-1.027.427-3.156 1.026-3.464.01z" fill="#161326"/><defs><filter id="filter0_d" x="213.213" y="658.693" width="54.518" height="34.986" filterUnits="userSpaceOnUse" color-interpolation-filters="sRGB"><feFlood flood-opacity="0" result="BackgroundImageFix"/><feColorMatrix in="SourceAlpha" values="0 0 0 0 0 0 0 0 0 0 0 0 0 0 0 0 0 0 127 0"/><feOffset dx=".846" dy="1.692"/><feGaussianBlur stdDeviation="1.692"/><feColorMatrix values="0 0 0 0 0.292345 0 0 0 0 0.264147 0 0 0 0 0.433333 0 0 0 0.6 0"/><feBlend in2="BackgroundImageFix" result="effect1_dropShadow"/><feBlend in="SourceGraphic" in2="effect1_dropShadow" result="shape"/></filter><filter id="filter1_d" x="177.477" y="635.011" width="77.351" height="34.139" filterUnits="userSpaceOnUse" color-interpolation-filters="sRGB"><feFlood flood-opacity="0" result="BackgroundImageFix"/><feColorMatrix in="SourceAlpha" values="0 0 0 0 0 0 0 0 0 0 0 0 0 0 0 0 0 0 127 0"/><feOffset dx=".846" dy="1.692"/><feGaussianBlur stdDeviation="1.692"/><feColorMatrix values="0 0 0 0 0.292345 0 0 0 0 0.264147 0 0 0 0 0.433333 0 0 0 0.6 0"/><feBlend in2="BackgroundImageFix" result="effect1_dropShadow"/><feBlend in="SourceGraphic" in2="effect1_dropShadow" result="shape"/></filter><filter id="filter2_d" x="154.536" y="589.575" width="87.315" height="59.991" filterUnits="userSpaceOnUse" color-interpolation-filters="sRGB"><feFlood flood-opacity="0" result="BackgroundImageFix"/><feColorMatrix in="SourceAlpha" values="0 0 0 0 0 0 0 0 0 0 0 0 0 0 0 0 0 0 127 0"/><feOffset dx=".846" dy="1.692"/><feGaussianBlur stdDeviation="1.692"/><feColorMatrix values="0 0 0 0 0.292345 0 0 0 0 0.264147 0 0 0 0 0.433333 0 0 0 0.6 0"/><feBlend in2="BackgroundImageFix" result="effect1_dropShadow"/><feBlend in="SourceGraphic" in2="effect1_dropShadow" result="shape"/></filter><filter id="filter3_d" x="183.445" y="477.601" width="60.057" height="55.91" filterUnits="userSpaceOnUse" color-interpolation-filters="sRGB"><feFlood flood-opacity="0" result="BackgroundImageFix"/><feColorMatrix in="SourceAlpha" values="0 0 0 0 0 0 0 0 0 0 0 0 0 0 0 0 0 0 127 0"/><feOffset dx="-1.692"/><feGaussianBlur stdDeviation="1.692"/><feColorMatrix values="0 0 0 0 0.292345 0 0 0 0 0.264147 0 0 0 0 0.433333 0 0 0 0.6 0"/><feBlend in2="BackgroundImageFix" result="effect1_dropShadow"/><feBlend in="SourceGraphic" in2="effect1_dropShadow" result="shape"/></filter><filter id="filter4_d" x="200.38" y="465.209" width="70.568" height="49.857" filterUnits="userSpaceOnUse" color-interpolation-filters="sRGB"><feFlood flood-opacity="0" result="BackgroundImageFix"/><feColorMatrix in="SourceAlpha" values="0 0 0 0 0 0 0 0 0 0 0 0 0 0 0 0 0 0 127 0"/><feOffset dx="-1.692"/><feGaussianBlur stdDeviation="1.692"/><feColorMatrix values="0 0 0 0 0.292345 0 0 0 0 0.264147 0 0 0 0 0.433333 0 0 0 0.6 0"/><feBlend in2="BackgroundImageFix" result="effect1_dropShadow"/><feBlend in="SourceGraphic" in2="effect1_dropShadow" result="shape"/></filter><filter id="filter5_d" x="228.616" y="441.447" width="96.822" height="62.998" filterUnits="userSpaceOnUse" color-interpolation-filters="sRGB"><feFlood flood-opacity="0" result="BackgroundImageFix"/><feColorMatrix in="SourceAlpha" values="0 0 0 0 0 0 0 0 0 0 0 0 0 0 0 0 0 0 127 0"/><feOffset dx="-1.692"/><feGaussianBlur stdDeviation="1.692"/><feColorMatrix values="0 0 0 0 0.292345 0 0 0 0 0.264147 0 0 0 0 0.433333 0 0 0 0.6 0"/><feBlend in2="BackgroundImageFix" result="effect1_dropShadow"/><feBlend in="SourceGraphic" in2="effect1_dropShadow" result="shape"/></filter><filter id="filter6_d" x="159.033" y="637.293" width="47.859" height="69.543" filterUnits="userSpaceOnUse" color-interpolation-filters="sRGB"><feFlood flood-opacity="0" result="BackgroundImageFix"/><feColorMatrix in="SourceAlpha" values="0 0 0 0 0 0 0 0 0 0 0 0 0 0 0 0 0 0 127 0"/><feOffset dx=".846" dy="1.692"/><feGaussianBlur stdDeviation="1.692"/><feColorMatrix values="0 0 0 0 0.292345 0 0 0 0 0.264147 0 0 0 0 0.433333 0 0 0 0.6 0"/><feBlend in2="BackgroundImageFix" result="effect1_dropShadow"/><feBlend in="SourceGraphic" in2="effect1_dropShadow" result="shape"/></filter><filter id="filter7_d" x="137.76" y="609.114" width="44.576" height="90.338" filterUnits="userSpaceOnUse" color-interpolation-filters="sRGB"><feFlood flood-opacity="0" result="BackgroundImageFix"/><feColorMatrix in="SourceAlpha" values="0 0 0 0 0 0 0 0 0 0 0 0 0 0 0 0 0 0 127 0"/><feOffset dx=".846" dy="1.692"/><feGaussianBlur stdDeviation="1.692"/><feColorMatrix values="0 0 0 0 0.292345 0 0 0 0 0.264147 0 0 0 0 0.433333 0 0 0 0.6 0"/><feBlend in2="BackgroundImageFix" result="effect1_dropShadow"/><feBlend in="SourceGraphic" in2="effect1_dropShadow" result="shape"/></filter><filter id="filter8_d" x="137.104" y="234.006" width="11.967" height="12.119" filterUnits="userSpaceOnUse" color-interpolation-filters="sRGB"><feFlood flood-opacity="0" result="BackgroundImageFix"/><feColorMatrix in="SourceAlpha" values="0 0 0 0 0 0 0 0 0 0 0 0 0 0 0 0 0 0 127 0"/><feOffset/><feGaussianBlur stdDeviation="1.692"/><feColorMatrix values="0 0 0 0 0 0 0 0 0 0 0 0 0 0 0 0 0 0 0.25 0"/><feBlend in2="BackgroundImageFix" result="effect1_dropShadow"/><feBlend in="SourceGraphic" in2="effect1_dropShadow" result="shape"/></filter><filter id="filter9_d" x="177.244" y="119.328" width="18.66" height="17.94" filterUnits="userSpaceOnUse" color-interpolation-filters="sRGB"><feFlood flood-opacity="0" result="BackgroundImageFix"/><feColorMatrix in="SourceAlpha" values="0 0 0 0 0 0 0 0 0 0 0 0 0 0 0 0 0 0 127 0"/><feOffset dy="1.692"/><feGaussianBlur stdDeviation="1.692"/><feColorMatrix values="0 0 0 0 0 0 0 0 0 0 0 0 0 0 0 0 0 0 0.25 0"/><feBlend in2="BackgroundImageFix" result="effect1_dropShadow"/><feBlend in="SourceGraphic" in2="effect1_dropShadow" result="shape"/></filter><linearGradient id="paint0_linear" x1="24.544" y1="216.375" x2="23.365" y2="221.514" gradientUnits="userSpaceOnUse"><stop stop-color="#958FB2"/><stop offset="1" stop-color="#A78FB2"/></linearGradient><linearGradient id="paint1_linear" x1="30.775" y1="117.773" x2="59.668" y2="166.595" gradientUnits="userSpaceOnUse"><stop stop-color="#332E4D"/><stop offset="1" stop-color="#4F4776"/></linearGradient><linearGradient id="paint2_linear" x1="3.371" y1="208.476" x2="38.713" y2="189.583" gradientUnits="userSpaceOnUse"><stop stop-color="#332E4D"/><stop offset="1" stop-color="#8C82A8"/></linearGradient><linearGradient id="paint3_linear" x1="145.539" y1="619.313" x2="241.32" y2="642.298" gradientUnits="userSpaceOnUse"><stop offset=".008" stop-color="#564E81"/><stop offset="1" stop-color="#3C3560"/></linearGradient><linearGradient id="paint4_linear" x1="234.073" y1="475.819" x2="214.536" y2="531.587" gradientUnits="userSpaceOnUse"><stop stop-color="#666183"/><stop offset="1" stop-color="#817AA4"/></linearGradient><linearGradient id="paint5_linear" x1="264.164" y1="475.377" x2="226.054" y2="520.501" gradientUnits="userSpaceOnUse"><stop stop-color="#666183"/><stop offset="1" stop-color="#817AA4"/></linearGradient><linearGradient id="paint6_linear" x1="289.058" y1="471.689" x2="250.948" y2="516.813" gradientUnits="userSpaceOnUse"><stop stop-color="#666183"/><stop offset="1" stop-color="#817AA4"/></linearGradient><linearGradient id="paint7_linear" x1="135.177" y1="609.927" x2="180.337" y2="697.598" gradientUnits="userSpaceOnUse"><stop offset=".008" stop-color="#564E81"/><stop offset="1" stop-color="#564E81"/></linearGradient><linearGradient id="paint8_linear" x1="480.687" y1="261.075" x2="275.918" y2="400.766" gradientUnits="userSpaceOnUse"><stop offset=".353" stop-color="#201C33"/><stop offset="1" stop-color="#3F3961"/></linearGradient><linearGradient id="paint9_linear" x1="238.199" y1="131.178" x2="297.444" y2="200.553" gradientUnits="userSpaceOnUse"><stop stop-color="#BBB7CF"/><stop offset=".516" stop-color="#484266"/><stop offset="1" stop-color="#3D3758"/></linearGradient><linearGradient id="paint10_linear" x1="220.434" y1="182.803" x2="256.835" y2="275.887" gradientUnits="userSpaceOnUse"><stop stop-color="#484266"/><stop offset=".593" stop-color="#453F61"/><stop offset="1" stop-color="#553856"/></linearGradient><linearGradient id="paint11_linear" x1="267.809" y1="206.922" x2="267.597" y2="276.319" gradientUnits="userSpaceOnUse"><stop stop-color="#3D3856"/><stop offset="1" stop-color="#654C78"/></linearGradient><linearGradient id="paint12_linear" x1="242.006" y1="170.108" x2="248.567" y2="186.186" gradientUnits="userSpaceOnUse"><stop offset=".021" stop-color="#F4F2FF"/><stop offset=".526" stop-color="#5E5781"/><stop offset="1" stop-color="#373154"/></linearGradient><linearGradient id="paint13_linear" x1="232.278" y1="181.533" x2="241.381" y2="185.305" gradientUnits="userSpaceOnUse"><stop stop-color="#5E5781"/><stop offset="1" stop-color="#373154"/></linearGradient><linearGradient id="paint14_linear" x1="158.254" y1="140.911" x2="218.779" y2="272.071" gradientUnits="userSpaceOnUse"><stop stop-color="#797399"/><stop offset="1" stop-color="#614C76"/></linearGradient><linearGradient id="paint15_linear" x1="272.885" y1="94.365" x2="212.99" y2="292.387" gradientUnits="userSpaceOnUse"><stop stop-color="#F4F2FF"/><stop offset=".38" stop-color="#534C76"/><stop offset=".889" stop-color="#634C76"/></linearGradient><linearGradient id="paint16_linear" x1="309.861" y1="167.947" x2="309.398" y2="261.507" gradientUnits="userSpaceOnUse"><stop stop-color="#3D3856"/><stop offset="1" stop-color="#654C78"/></linearGradient><linearGradient id="paint17_linear" x1="155.15" y1="121.023" x2="127.534" y2="238.589" gradientUnits="userSpaceOnUse"><stop stop-color="#AA7838"/><stop offset="1" stop-color="#774204"/></linearGradient><linearGradient id="paint18_linear" x1="138.637" y1="170.227" x2="150.144" y2="148.693" gradientUnits="userSpaceOnUse"><stop stop-color="#491D08"/><stop offset=".922" stop-color="#905C1D"/></linearGradient><linearGradient id="paint19_linear" x1="161.638" y1="204.807" x2="168.411" y2="230.195" gradientUnits="userSpaceOnUse"><stop stop-color="#2E1B0B"/><stop offset=".443" stop-color="#42260F"/><stop offset="1" stop-color="#463554"/></linearGradient><linearGradient id="paint20_linear" x1="105.277" y1="199.007" x2="114.677" y2="180.061" gradientUnits="userSpaceOnUse"><stop stop-color="#411805"/><stop offset=".922" stop-color="#905C1D"/></linearGradient><linearGradient id="paint21_linear" x1="189.978" y1="189.574" x2="181.519" y2="189.151" gradientUnits="userSpaceOnUse"><stop stop-color="#693015"/><stop offset=".694" stop-color="#905C1D"/></linearGradient><linearGradient id="paint22_linear" x1="187.441" y1="222.156" x2="180.249" y2="219.196" gradientUnits="userSpaceOnUse"><stop stop-color="#1D1103"/><stop offset=".694" stop-color="#845011"/></linearGradient><linearGradient id="paint23_linear" x1="118.483" y1="152.179" x2="126.358" y2="213.606" gradientUnits="userSpaceOnUse"><stop stop-color="#AA7838"/><stop offset="1" stop-color="#774204"/></linearGradient><linearGradient id="paint24_linear" x1="176.443" y1="123.985" x2="173.903" y2="132.871" gradientUnits="userSpaceOnUse"><stop offset=".001" stop-color="#85581F"/><stop offset="1" stop-color="#A16E2E"/></linearGradient></defs></svg>