<svg width="26" height="24" fill="none" xmlns="http://www.w3.org/2000/svg"><path d="M25.76 10.002l-9.187-6.933 3.341 6.117 5.846.816z" fill="#4F4968"/><path d="M25.76 10.001l-5.846-.815-5.894 8.01 11.74-7.195z" fill="#726C8F"/><path d="M14.068 17.342L11.563 7.147l5.01-4.078 3.341 6.117-5.846 8.156z" fill="#5C5677"/><path d="M1.123 16.953h12.945l-4.593-5.32L2.793 8.37 0 11.633l1.123 5.32z" fill="#726C8F"/><path d="M14.27 17.44l-2.29-9.885-2.923 4.078 5.213 5.807z" fill="#726C8F"/><path d="M14.485 23.866l-.417-6.932H1.123l5.16 4.893 8.202 2.04z" fill="#5C5677"/><path d="M25.76 10.001l-11.692 6.933.418 6.932 8.769-4.964 2.505-8.9z" fill="#484266"/><path d="M11.98 7.555L9.057 5.924l7.516-2.855-4.593 4.486z" fill="#726C8F"/><path d="M11.98 7.554l-2.923-1.63-6.269 2.498 6.269 3.21 2.923-4.078z" fill="#918DAA"/></svg>