<svg width="26" height="21" fill="none" xmlns="http://www.w3.org/2000/svg"><g filter="url(#filter0_d)"><path d="M16.56 6.163l-6.694-.995 3.526 2.253 3.168-1.258z" fill="#4F4968"/><path d="M16.56 6.163L13.392 7.42l-.513 5.914 3.681-7.172z" fill="#726C8F"/><path d="M12.947 13.397L8.601 8.758l1.266-3.59 3.525 2.253-.445 5.976z" fill="#5C5677"/><path d="M6.362 16.928l6.468-3.735-3.91-1.473-4.329.212-.405 2.522 2.176 2.474z" fill="#726C8F"/><path d="M13.078 13.391L8.933 8.853 8.71 11.84l4.368 1.55z" fill="#726C8F"/><path d="M15.14 16.745l-2.314-3.526-6.467 3.735 4.063 1.085 4.717-1.294z" fill="#5C5677"/><path d="M16.56 6.163l-3.736 7.02 2.313 3.526 2.874-5.142-1.45-5.404z" fill="#484266"/><path d="M8.932 8.852l-1.955-.014 2.889-3.67-.934 3.684z" fill="#726C8F"/><path d="M8.932 8.853l-1.955-.015-2.374 3.123 4.107-.12.222-2.988z" fill="#918DAA"/></g><defs><filter id="filter0_d" x="4.186" y=".326" width="21.088" height="19.328" filterUnits="userSpaceOnUse" color-interpolation-filters="sRGB"><feFlood flood-opacity="0" result="BackgroundImageFix"/><feColorMatrix in="SourceAlpha" values="0 0 0 0 0 0 0 0 0 0 0 0 0 0 0 0 0 0 127 0"/><feOffset dx="4.035" dy="-1.614"/><feGaussianBlur stdDeviation="1.614"/><feColorMatrix values="0 0 0 0 0 0 0 0 0 0 0 0 0 0 0 0 0 0 0.35 0"/><feBlend in2="BackgroundImageFix" result="effect1_dropShadow"/><feBlend in="SourceGraphic" in2="effect1_dropShadow" result="shape"/></filter></defs></svg>