<svg width="40" height="38" fill="none" xmlns="http://www.w3.org/2000/svg"><g filter="url(#filter0_d)"><path d="M9.072 9.614L5.296 20.682l4.912-5.27-1.136-5.798z" fill="#4F4968"/><path d="M9.071 9.614l1.137 5.797 9.84 2.786L9.07 9.614z" fill="#726C8F"/><path d="M20.175 18.101l-9.203 5.895-5.676-3.314 4.912-5.27 9.967 2.69z" fill="#5C5677"/><path d="M24.086 30.448l-4.294-12.212-3.713 6.176-.994 7.433 4.137 1.505 4.864-2.902z" fill="#726C8F"/><path d="M20.205 17.877l-8.97 5.585 4.983 1.345 3.987-6.93z" fill="#726C8F"/><path d="M26.459 15.448l-6.685 2.795 4.294 12.212 3.105-6.563-.714-8.444z" fill="#5C5677"/><path d="M9.072 9.614l10.702 8.629 6.685-2.796-7.795-6.553-9.592.72z" fill="#484266"/><path d="M11.235 23.462l-.636 3.322-5.303-6.102 5.939 2.78z" fill="#726C8F"/><path d="M11.235 23.461l-.636 3.323 4.539 5.048 1.08-7.026-4.983-1.345z" fill="#918DAA"/></g><defs><filter id="filter0_d" x="5.296" y=".517" width="34.443" height="35.626" filterUnits="userSpaceOnUse" color-interpolation-filters="sRGB"><feFlood flood-opacity="0" result="BackgroundImageFix"/><feColorMatrix in="SourceAlpha" values="0 0 0 0 0 0 0 0 0 0 0 0 0 0 0 0 0 0 127 0"/><feOffset dx="6.981" dy="-2.792"/><feGaussianBlur stdDeviation="2.792"/><feColorMatrix values="0 0 0 0 0 0 0 0 0 0 0 0 0 0 0 0 0 0 0.35 0"/><feBlend in2="BackgroundImageFix" result="effect1_dropShadow"/><feBlend in="SourceGraphic" in2="effect1_dropShadow" result="shape"/></filter></defs></svg>