<svg width="82" height="49" fill="none" xmlns="http://www.w3.org/2000/svg"><g opacity=".5"><path d="M22.222 9.09l-10.977 4.025 7.185.506 3.792-4.53z" fill="#4F4968"/><path d="M22.22 9.09l-3.79 4.53 4.022 9.406-.231-13.936z" fill="#726C8F"/><path d="M22.608 23.065l-10.37-3.45-.993-6.5 7.186.506 4.177 9.444z" fill="#5C5677"/><path d="M15.471 33.872l6.791-11.02-7.135.996-6.402 3.902 1.432 4.165 5.314 1.957z" fill="#726C8F"/><path d="M22.8 22.947l-9.981-3.465 2.088 4.722 7.893-1.257z" fill="#726C8F"/><path d="M28.621 26.282l-6.376-3.44-6.791 11.02 7.053-1.713 6.114-5.867z" fill="#5C5677"/><path d="M22.221 9.09l.024 13.751 6.376 3.441.192-10.184L22.22 9.09z" fill="#484266"/><path d="M12.819 19.482l-2.982 1.595 1.408-7.962 1.574 6.367z" fill="#726C8F"/><path d="M12.82 19.482l-2.982 1.596-1.07 6.705 6.14-3.579-2.088-4.722z" fill="#918DAA"/></g><g opacity=".5" filter="url(#filter0_d)"><path d="M65.784 4.96l-4.36 5.178 3.768-1.82.593-3.357z" fill="#4F4968"/><path d="M65.785 4.96l-.592 3.358 4.763 3.54-4.171-6.897z" fill="#726C8F"/><path d="M70.045 11.832L63.817 13.1l-2.392-2.961 3.768-1.82 4.852 3.514z" fill="#5C5677"/><path d="M69.593 19.29l.215-7.465-3.305 2.556-2.09 3.796 1.933 1.668 3.247-.554z" fill="#726C8F"/><path d="M70.108 11.717l-6.037 1.148 2.426 1.757 3.61-2.905z" fill="#726C8F"/><path d="M74.047 11.724l-4.214.12-.215 7.465 3.055-2.89 1.374-4.695z" fill="#5C5677"/><path d="M65.784 4.961l4.013 6.864 4.214-.12-2.867-5.143-5.36-1.6z" fill="#484266"/><path d="M64.071 12.865l-1.038 1.657-1.608-4.385 2.646 2.728z" fill="#726C8F"/><path d="M64.07 12.866l-1.038 1.658 1.412 3.658 2.052-3.559-2.426-1.757z" fill="#918DAA"/></g><g opacity=".5" filter="url(#filter1_d)"><path d="M52.27 38.946l-3.947.554 2.318.68 1.63-1.234z" fill="#4F4968"/><path d="M52.27 38.947l-1.628 1.233.525 3.407 1.103-4.64z" fill="#726C8F"/><path d="M51.215 43.611l-3.116-1.883.224-2.227 2.318.68.574 3.43z" fill="#5C5677"/><path d="M47.955 46.688l3.164-3.173-2.429-.177-2.434.838.118 1.484 1.581 1.028z" fill="#726C8F"/><path d="M51.287 43.586l-2.986-1.86.287 1.715 2.7.145z" fill="#726C8F"/><path d="M52.928 45.13l-1.804-1.596-3.164 3.173 2.462-.066 2.506-1.511z" fill="#5C5677"/><path d="M52.27 38.946l-1.156 4.565 1.804 1.596.925-3.366-1.574-2.795z" fill="#484266"/><path d="M48.3 41.725l-1.114.317 1.136-2.541-.021 2.224z" fill="#726C8F"/><path d="M48.301 41.725l-1.115.317-.918 2.149 2.32-.75-.287-1.716z" fill="#918DAA"/></g><defs><filter id="filter0_d" x="61.425" y=".119" width="19.885" height="21.341" filterUnits="userSpaceOnUse" color-interpolation-filters="sRGB"><feFlood flood-opacity="0" result="BackgroundImageFix"/><feColorMatrix in="SourceAlpha" values="0 0 0 0 0 0 0 0 0 0 0 0 0 0 0 0 0 0 127 0"/><feOffset dx="4.035" dy="-1.614"/><feGaussianBlur stdDeviation="1.614"/><feColorMatrix values="0 0 0 0 0 0 0 0 0 0 0 0 0 0 0 0 0 0 0.35 0"/><feBlend in2="BackgroundImageFix" result="effect1_dropShadow"/><feBlend in="SourceGraphic" in2="effect1_dropShadow" result="shape"/></filter><filter id="filter1_d" x="46.256" y="34.104" width="14.849" height="14.217" filterUnits="userSpaceOnUse" color-interpolation-filters="sRGB"><feFlood flood-opacity="0" result="BackgroundImageFix"/><feColorMatrix in="SourceAlpha" values="0 0 0 0 0 0 0 0 0 0 0 0 0 0 0 0 0 0 127 0"/><feOffset dx="4.035" dy="-1.614"/><feGaussianBlur stdDeviation="1.614"/><feColorMatrix values="0 0 0 0 0 0 0 0 0 0 0 0 0 0 0 0 0 0 0.35 0"/><feBlend in2="BackgroundImageFix" result="effect1_dropShadow"/><feBlend in="SourceGraphic" in2="effect1_dropShadow" result="shape"/></filter></defs></svg>