<svg width="165" height="102" fill="none" xmlns="http://www.w3.org/2000/svg"><path d="M1 1l46 51h95" stroke="#797399"/><path d="M47.094 64.796c-.338 0-.602.11-.793.331-.19.217-.286.512-.286.885 0 .242.015.476.046.701.03.226.065.447.104.663.039.213.073.425.104.637.03.213.045.427.045.644 0 .16-.024.312-.071.455a1.232 1.232 0 0 1-.208.377 1.327 1.327 0 0 1-.702.468 1.327 1.327 0 0 1 .91.845c.047.139.071.288.071.448 0 .217-.015.432-.045.644-.03.212-.065.427-.104.643-.04.213-.074.432-.104.657-.03.225-.046.46-.046.702 0 .377.096.674.286.89.19.217.455.326.793.326h.13a.32.32 0 0 1 .17.058c.06.039.09.102.09.189v.52h-.35a2.56 2.56 0 0 1-.93-.157 1.86 1.86 0 0 1-.67-.422 1.79 1.79 0 0 1-.403-.65 2.52 2.52 0 0 1-.13-.826c0-.225.018-.444.052-.656.035-.217.072-.431.11-.644.04-.216.077-.43.111-.643a3.95 3.95 0 0 0 .052-.644c0-.272-.076-.496-.227-.669-.152-.178-.37-.266-.657-.266v-.696c.286 0 .505-.087.657-.26.151-.173.227-.399.227-.676 0-.217-.017-.431-.052-.644a32.139 32.139 0 0 0-.11-.636 28.52 28.52 0 0 1-.11-.644 4.199 4.199 0 0 1-.053-.663c0-.299.044-.574.13-.826a1.79 1.79 0 0 1 .403-.65 1.86 1.86 0 0 1 .67-.422c.268-.1.578-.15.93-.15h.35v.514c0 .087-.03.15-.09.188a.317.317 0 0 1-.17.059h-.13zm2.65-.11v1.884l-.105 1.008a.7.7 0 0 1-.123.325c-.056.074-.15.11-.28.11a.345.345 0 0 1-.273-.11.7.7 0 0 1-.123-.325l-.104-1.008v-1.884h1.007zm2.164 0v1.884l-.104 1.008a.7.7 0 0 1-.124.325c-.056.074-.15.11-.28.11a.345.345 0 0 1-.272-.11.7.7 0 0 1-.124-.325L50.9 66.57v-1.884h1.008zm2.952 2.73V74h-1.157v-6.585h1.157zm.247-2.067a.728.728 0 0 1-.071.318.883.883 0 0 1-.182.26.814.814 0 0 1-.267.175.79.79 0 0 1-.318.066.791.791 0 0 1-.572-.241.951.951 0 0 1-.176-.26.79.79 0 0 1-.065-.319.79.79 0 0 1 .065-.318.818.818 0 0 1 .176-.267.804.804 0 0 1 .253-.181.791.791 0 0 1 .319-.066.79.79 0 0 1 .318.066.766.766 0 0 1 .267.181.767.767 0 0 1 .182.267c.048.1.071.206.071.319zm2.746 3.022c.143-.16.295-.305.456-.435.16-.13.329-.241.507-.332a2.647 2.647 0 0 1 1.228-.293c.36 0 .676.061.949.183.277.117.507.285.689.507.186.216.327.478.422.786.096.308.144.648.144 1.02V74h-1.164v-4.192c0-.499-.115-.885-.345-1.158-.225-.277-.57-.416-1.033-.416-.342 0-.663.083-.962.248a3.18 3.18 0 0 0-.819.669V74h-1.163v-6.585h.695c.165 0 .267.08.306.241l.09.715zM64.338 74v-5.597l-.728-.084a.646.646 0 0 1-.228-.097.25.25 0 0 1-.084-.202v-.474h1.04v-.638c0-.377.052-.71.156-1a2.06 2.06 0 0 1 .455-.742c.2-.203.438-.357.715-.461a2.65 2.65 0 0 1 .936-.156c.295 0 .565.043.812.13l-.026.578c-.008.105-.067.16-.175.17a5.343 5.343 0 0 1-.423.012c-.199 0-.38.027-.546.079a1.03 1.03 0 0 0-.416.253 1.17 1.17 0 0 0-.273.462c-.06.19-.09.426-.09.708v.605h1.897v.838h-1.859V74h-1.163zm6.688-6.689c.481 0 .915.08 1.3.241.386.16.715.388.988.682.273.295.481.653.624 1.073.148.416.221.882.221 1.397 0 .52-.073.989-.22 1.405a2.963 2.963 0 0 1-.625 1.066 2.785 2.785 0 0 1-.988.682 3.44 3.44 0 0 1-1.3.234 3.51 3.51 0 0 1-1.313-.234 2.786 2.786 0 0 1-.988-.683 3.04 3.04 0 0 1-.63-1.066 4.303 4.303 0 0 1-.215-1.404c0-.515.072-.981.215-1.397a3.03 3.03 0 0 1 .63-1.073c.273-.294.603-.522.988-.682.39-.16.828-.24 1.313-.24zm0 5.876c.65 0 1.136-.216 1.456-.65.32-.437.481-1.046.481-1.826 0-.784-.16-1.395-.48-1.833-.321-.438-.807-.656-1.457-.656-.33 0-.617.056-.864.169a1.634 1.634 0 0 0-.611.487 2.24 2.24 0 0 0-.364.787 4.27 4.27 0 0 0-.117 1.046c0 .78.16 1.389.48 1.826.326.434.818.65 1.476.65zm5.238-8.501v1.884l-.104 1.008a.7.7 0 0 1-.124.325c-.056.074-.15.11-.28.11a.345.345 0 0 1-.272-.11.7.7 0 0 1-.124-.325l-.104-1.008v-1.884h1.008zm2.164 0v1.884l-.104 1.008a.7.7 0 0 1-.123.325c-.056.074-.15.11-.28.11a.345.345 0 0 1-.273-.11.7.7 0 0 1-.123-.325l-.104-1.008v-1.884h1.007zm1.627 8.599a.89.89 0 0 1 .058-.319.9.9 0 0 1 .17-.26.834.834 0 0 1 .578-.24.832.832 0 0 1 .754.5c.043.1.065.206.065.319a.805.805 0 0 1-.065.325.857.857 0 0 1-.176.254.748.748 0 0 1-.26.168.79.79 0 0 1-.318.066.791.791 0 0 1-.319-.066.75.75 0 0 1-.429-.422.884.884 0 0 1-.058-.325zm0-4.875a.89.89 0 0 1 .058-.319.9.9 0 0 1 .17-.26.834.834 0 0 1 .578-.24.832.832 0 0 1 .754.5c.043.1.065.206.065.319a.805.805 0 0 1-.065.325.857.857 0 0 1-.436.429.866.866 0 0 1-.318.058.867.867 0 0 1-.319-.058.834.834 0 0 1-.26-.175.929.929 0 0 1-.169-.254.884.884 0 0 1-.058-.325zm4.153-4.349a3.003 3.003 0 0 1 .39 1.99c-.052.333-.16.654-.325.962a2.9 2.9 0 0 1-.656.819l-.351-.228c-.065-.039-.095-.089-.091-.15a.286.286 0 0 1 .065-.155 2.244 2.244 0 0 0 .442-1.138 2.31 2.31 0 0 0-.033-.709 2.074 2.074 0 0 0-.266-.701c-.056-.092-.074-.172-.052-.241a.273.273 0 0 1 .162-.163l.715-.285zm1.976 0a3.003 3.003 0 0 1 .39 1.99c-.052.333-.16.654-.325.962a2.9 2.9 0 0 1-.656.819l-.351-.228c-.065-.039-.095-.089-.091-.15a.286.286 0 0 1 .065-.155 2.244 2.244 0 0 0 .442-1.138 2.31 2.31 0 0 0-.033-.709 2.074 2.074 0 0 0-.266-.701c-.056-.092-.074-.172-.052-.241a.273.273 0 0 1 .162-.163l.715-.285zm3.136 8.353c.213.286.445.487.696.605.251.116.533.175.845.175.615 0 1.088-.219 1.417-.657.33-.437.494-1.061.494-1.872 0-.428-.039-.797-.117-1.105a2.086 2.086 0 0 0-.325-.754 1.27 1.27 0 0 0-.526-.435 1.751 1.751 0 0 0-.709-.136c-.377 0-.709.086-.995.26a2.877 2.877 0 0 0-.78.734v3.185zm-.058-3.978c.277-.342.598-.618.962-.826a2.47 2.47 0 0 1 1.248-.311c.381 0 .726.073 1.034.22.307.143.57.358.786.644.217.282.383.633.5 1.053.117.42.176.904.176 1.45 0 .485-.065.938-.195 1.358-.13.416-.319.778-.566 1.085a2.654 2.654 0 0 1-.896.722 2.66 2.66 0 0 1-1.19.26c-.403 0-.75-.067-1.04-.201a2.493 2.493 0 0 1-.76-.573v2.913h-1.164v-8.815h.696c.164 0 .266.08.305.241l.104.78zm7.378-4.01V74h-1.157v-9.575h1.157zm5.445 6.61c-.533.017-.988.06-1.365.13a3.845 3.845 0 0 0-.917.26c-.234.108-.405.236-.513.383a.837.837 0 0 0-.156.495c0 .173.028.322.084.448a.88.88 0 0 0 .228.312c.1.078.214.137.344.176.135.034.278.052.429.052.204 0 .39-.02.559-.059a2.45 2.45 0 0 0 .904-.462c.139-.108.273-.231.403-.37v-1.365zm-3.738-2.691a3.759 3.759 0 0 1 1.177-.787c.42-.173.886-.26 1.397-.26.369 0 .696.061.982.183a2.01 2.01 0 0 1 1.163 1.293c.1.308.15.646.15 1.014V74h-.514a.533.533 0 0 1-.26-.052c-.06-.039-.108-.113-.143-.221l-.13-.624a7.07 7.07 0 0 1-.507.429 3.156 3.156 0 0 1-.52.312 2.8 2.8 0 0 1-.585.189 2.992 2.992 0 0 1-.682.071c-.256 0-.496-.035-.722-.104a1.743 1.743 0 0 1-.591-.325 1.572 1.572 0 0 1-.397-.54 1.957 1.957 0 0 1-.143-.78c0-.26.072-.509.215-.747.143-.243.375-.457.695-.644.321-.186.74-.338 1.255-.454.516-.122 1.148-.191 1.898-.209v-.513c0-.511-.111-.897-.332-1.157-.221-.264-.543-.397-.968-.397-.286 0-.527.037-.722.111-.19.07-.357.15-.5.24-.139.087-.26.167-.364.241a.52.52 0 0 1-.3.104.345.345 0 0 1-.2-.059.612.612 0 0 1-.144-.155l-.208-.371zm12.16-.93l-3.673 8.528a.579.579 0 0 1-.149.209c-.056.052-.145.078-.267.078h-.858l1.203-2.614-2.717-6.2h1.001c.1 0 .178.026.234.078a.355.355 0 0 1 .123.162l1.762 4.147c.069.182.128.373.175.572.061-.204.126-.397.195-.579l1.71-4.14a.356.356 0 0 1 .13-.169.353.353 0 0 1 .214-.072h.917zm5.251 2.575c0-.27-.039-.514-.117-.735a1.552 1.552 0 0 0-.331-.578 1.401 1.401 0 0 0-.527-.378 1.75 1.75 0 0 0-.708-.136c-.555 0-.995.163-1.32.487-.32.321-.52.767-.598 1.34h3.601zm.936 3.087a2.266 2.266 0 0 1-.513.455c-.2.126-.414.23-.644.312a3.784 3.784 0 0 1-.702.182 4.093 4.093 0 0 1-.721.065c-.455 0-.876-.076-1.261-.227a2.854 2.854 0 0 1-.995-.677 3.167 3.167 0 0 1-.65-1.105c-.156-.437-.234-.94-.234-1.507 0-.46.07-.889.208-1.288.143-.398.347-.743.611-1.033.265-.295.587-.524.969-.689.381-.169.81-.254 1.287-.254a2.9 2.9 0 0 1 1.092.202c.338.13.628.32.871.572.247.247.44.555.578.923.139.364.208.78.208 1.248 0 .182-.019.303-.058.364-.039.06-.113.091-.221.091h-4.401c.013.416.07.778.169 1.085.104.308.247.566.429.774.182.204.399.358.65.462.252.1.533.149.845.149.291 0 .54-.032.748-.097a3.771 3.771 0 0 0 .923-.436.51.51 0 0 1 .266-.104c.096 0 .169.037.221.11l.325.423zm2.624-4.342c.208-.45.464-.802.767-1.053.303-.256.674-.383 1.111-.383.139 0 .271.015.397.045.13.03.245.078.344.143l-.084.865c-.026.108-.091.162-.195.162-.061 0-.15-.013-.267-.039a1.832 1.832 0 0 0-.396-.039c-.208 0-.394.03-.559.091-.16.06-.306.152-.436.273a1.94 1.94 0 0 0-.344.442c-.1.173-.191.373-.273.598V74h-1.164v-6.585h.663c.126 0 .213.024.26.072.048.048.081.13.098.247l.078 1.001zm11.342-4.05V74h-1.261v-4.238h-5.024V74h-1.261v-9.314h1.261v4.153h5.024v-4.153h1.261zm6.312 5.305c0-.27-.039-.514-.117-.735a1.552 1.552 0 0 0-.331-.578 1.401 1.401 0 0 0-.527-.378 1.75 1.75 0 0 0-.708-.136c-.555 0-.995.163-1.32.487-.32.321-.52.767-.598 1.34h3.601zm.936 3.087a2.266 2.266 0 0 1-.513.455c-.2.126-.414.23-.644.312a3.784 3.784 0 0 1-.702.182 4.093 4.093 0 0 1-.721.065c-.455 0-.876-.076-1.261-.227a2.854 2.854 0 0 1-.995-.677 3.167 3.167 0 0 1-.65-1.105c-.156-.437-.234-.94-.234-1.507 0-.46.07-.889.208-1.288.143-.398.347-.743.611-1.033.265-.295.587-.524.969-.689.381-.169.81-.254 1.287-.254a2.9 2.9 0 0 1 1.092.202c.338.13.628.32.871.572.247.247.44.555.578.923.139.364.208.78.208 1.248 0 .182-.019.303-.058.364-.039.06-.113.091-.221.091h-4.401c.013.416.07.778.169 1.085.104.308.247.566.429.774.182.204.399.358.65.462.252.1.533.149.845.149.291 0 .54-.032.748-.097a3.771 3.771 0 0 0 .923-.436.51.51 0 0 1 .266-.104c.096 0 .169.037.221.11l.325.423zm5.094-2.041c-.533.017-.988.06-1.365.13a3.854 3.854 0 0 0-.917.26c-.234.108-.405.236-.513.383a.837.837 0 0 0-.156.495c0 .173.028.322.084.448.057.126.133.23.228.312.1.078.214.137.344.176.135.034.278.052.429.052.204 0 .39-.02.559-.059a2.45 2.45 0 0 0 .904-.462c.139-.108.273-.231.403-.37v-1.365zm-3.738-2.691a3.765 3.765 0 0 1 1.177-.787 3.63 3.63 0 0 1 1.397-.26c.369 0 .696.061.982.183a2.01 2.01 0 0 1 1.163 1.293c.1.308.15.646.15 1.014V74h-.514a.533.533 0 0 1-.26-.052c-.06-.039-.108-.113-.143-.221l-.13-.624a7.07 7.07 0 0 1-.507.429 3.156 3.156 0 0 1-.52.312 2.8 2.8 0 0 1-.585.189 2.992 2.992 0 0 1-.682.071c-.256 0-.496-.035-.722-.104a1.745 1.745 0 0 1-.591-.325 1.575 1.575 0 0 1-.397-.54 1.964 1.964 0 0 1-.143-.78c0-.26.072-.509.215-.747.143-.243.375-.457.695-.644.321-.186.739-.338 1.255-.454.516-.122 1.148-.191 1.898-.209v-.513c0-.511-.111-.897-.332-1.157-.221-.264-.543-.397-.968-.397-.286 0-.527.037-.722.111-.19.07-.357.15-.5.24-.139.087-.26.167-.364.241a.521.521 0 0 1-.299.104.348.348 0 0 1-.202-.059.62.62 0 0 1-.143-.155l-.208-.371zm7.827-3.92V74h-1.157v-9.575h1.157zm3.898 9.679c-.52 0-.921-.145-1.202-.436-.278-.29-.416-.708-.416-1.254v-4.03h-.793a.269.269 0 0 1-.176-.058c-.048-.044-.071-.109-.071-.195v-.462l1.079-.136.266-2.035a.259.259 0 0 1 .267-.221h.585v2.269h1.904v.838h-1.904v3.952c0 .277.067.483.201.618a.704.704 0 0 0 .52.201.952.952 0 0 0 .546-.156c.065-.039.119-.074.163-.104.047-.035.088-.052.123-.052.061 0 .115.037.163.11l.338.553c-.2.186-.44.334-.722.442a2.497 2.497 0 0 1-.871.156zm3.801-5.811c.282-.299.594-.537.936-.715a2.534 2.534 0 0 1 1.183-.267c.36 0 .676.061.949.182.278.118.507.287.689.508.187.216.327.478.423.786.095.308.143.648.143 1.02V74h-1.164v-4.192c0-.499-.115-.885-.344-1.158-.226-.277-.57-.416-1.034-.416-.342 0-.663.083-.962.248a3.203 3.203 0 0 0-.819.669V74h-1.163v-9.575h1.163v3.868zm6.875-3.608v1.885l-.104 1.008a.7.7 0 0 1-.123.325c-.057.074-.15.11-.28.11a.345.345 0 0 1-.273-.11.7.7 0 0 1-.123-.325l-.104-1.008v-1.884h1.007zm2.165 0v1.885l-.104 1.008a.7.7 0 0 1-.124.325c-.056.074-.149.11-.279.11a.345.345 0 0 1-.273-.11.7.7 0 0 1-.124-.325l-.104-1.008v-1.884h1.008zM44.845 94.574a.296.296 0 0 1-.071-.084.217.217 0 0 1-.02-.098c0-.03.009-.06.026-.091a.675.675 0 0 1 .072-.084c.043-.048.097-.111.162-.189a2.1 2.1 0 0 0 .208-.28c.07-.103.132-.22.189-.35.06-.126.104-.26.13-.404a.145.145 0 0 1-.046.007h-.039a.736.736 0 0 1-.552-.221.825.825 0 0 1-.208-.578.72.72 0 0 1 .208-.52.765.765 0 0 1 .565-.215c.13 0 .245.024.345.072a.66.66 0 0 1 .247.201.82.82 0 0 1 .156.292c.034.109.052.228.052.358 0 .195-.028.399-.085.611a2.714 2.714 0 0 1-.24.618 3.624 3.624 0 0 1-.904 1.144l-.195-.189zm7.26-10.887v1.884L52 86.578a.699.699 0 0 1-.124.325c-.056.074-.15.11-.28.11a.345.345 0 0 1-.272-.11.7.7 0 0 1-.124-.325l-.104-1.008v-1.884h1.008zm2.164 0v1.884l-.104 1.008a.699.699 0 0 1-.123.325c-.057.074-.15.11-.28.11a.345.345 0 0 1-.273-.11.7.7 0 0 1-.123-.325l-.104-1.008v-1.884h1.007zm5.69 4.296c-.216-.29-.45-.492-.701-.605a1.979 1.979 0 0 0-.845-.175c-.611 0-1.081.219-1.41.657-.33.437-.495 1.061-.495 1.872 0 .428.037.797.11 1.105.074.303.183.554.326.754.143.194.318.337.526.428.208.091.444.137.709.137.381 0 .712-.087.994-.26.286-.173.548-.418.787-.734v-3.179zm1.158-4.556V93h-.69c-.164 0-.268-.08-.311-.24l-.104-.8a3.587 3.587 0 0 1-.962.819 2.45 2.45 0 0 1-1.248.312c-.377 0-.72-.072-1.027-.215a2.159 2.159 0 0 1-.787-.643 3.05 3.05 0 0 1-.5-1.053 5.421 5.421 0 0 1-.176-1.45c0-.485.065-.936.195-1.352.13-.42.317-.784.56-1.091.242-.308.539-.549.89-.722a2.637 2.637 0 0 1 1.196-.266c.403 0 .747.069 1.033.207.29.135.548.323.774.566v-3.647h1.157zm5.396 6.61c-.533.017-.988.06-1.365.13a3.844 3.844 0 0 0-.917.26c-.234.108-.405.236-.513.383a.837.837 0 0 0-.156.495c0 .173.028.322.084.448a.88.88 0 0 0 .228.312c.1.078.214.137.344.176.134.034.277.052.43.052.203 0 .39-.02.558-.059a2.15 2.15 0 0 0 .475-.182c.151-.078.294-.171.429-.28.138-.108.273-.231.403-.37v-1.365zm-3.738-2.691a3.76 3.76 0 0 1 1.177-.787c.42-.173.886-.26 1.397-.26.368 0 .696.061.982.183.286.12.526.29.721.507.195.216.342.478.442.786.1.308.15.646.15 1.014V93h-.514a.53.53 0 0 1-.26-.052c-.06-.039-.108-.113-.143-.221l-.13-.624a7.07 7.07 0 0 1-.507.429 3.185 3.185 0 0 1-.52.312 2.8 2.8 0 0 1-.585.189 3 3 0 0 1-.682.071c-.256 0-.497-.035-.722-.104a1.744 1.744 0 0 1-.591-.325 1.573 1.573 0 0 1-.397-.54 1.959 1.959 0 0 1-.143-.78c0-.26.072-.509.215-.747.143-.243.374-.457.695-.644.32-.186.739-.338 1.255-.454.515-.122 1.148-.191 1.898-.209v-.513c0-.511-.11-.897-.332-1.157-.22-.264-.544-.397-.968-.397-.286 0-.527.037-.722.111-.19.07-.357.15-.5.24-.14.087-.26.167-.364.241a.52.52 0 0 1-.3.104.345.345 0 0 1-.2-.059.614.614 0 0 1-.144-.155l-.208-.371zm8.564 5.759c-.52 0-.921-.145-1.203-.436-.277-.29-.416-.708-.416-1.254v-4.03h-.793a.268.268 0 0 1-.175-.058c-.048-.044-.072-.109-.072-.195v-.462l1.08-.136.266-2.035a.276.276 0 0 1 .084-.156.26.26 0 0 1 .182-.065h.585v2.269h1.905v.838h-1.905v3.952c0 .277.067.483.202.618a.704.704 0 0 0 .52.201.948.948 0 0 0 .546-.156c.065-.039.119-.074.162-.104.048-.035.089-.052.124-.052.06 0 .115.037.162.11l.338.553c-.2.186-.44.334-.721.442a2.495 2.495 0 0 1-.871.156zm6.206-3.068c-.533.017-.988.06-1.365.13a3.844 3.844 0 0 0-.917.26c-.234.108-.405.236-.513.383a.837.837 0 0 0-.156.495c0 .173.028.322.084.448a.88.88 0 0 0 .228.312c.1.078.214.137.344.176.135.034.278.052.43.052.203 0 .39-.02.558-.059a2.15 2.15 0 0 0 .475-.182c.152-.078.294-.171.429-.28.139-.108.273-.231.403-.37v-1.365zm-3.738-2.691a3.76 3.76 0 0 1 1.177-.787c.42-.173.886-.26 1.397-.26.369 0 .696.061.982.183.286.12.526.29.721.507.195.216.343.478.442.786.1.308.15.646.15 1.014V93h-.514a.53.53 0 0 1-.26-.052c-.06-.039-.108-.113-.143-.221l-.13-.624a7.07 7.07 0 0 1-.507.429 3.185 3.185 0 0 1-.52.312 2.8 2.8 0 0 1-.585.189 3 3 0 0 1-.682.071c-.256 0-.496-.035-.722-.104a1.744 1.744 0 0 1-.591-.325 1.573 1.573 0 0 1-.397-.54 1.959 1.959 0 0 1-.143-.78c0-.26.072-.509.215-.747.143-.243.375-.457.695-.644.321-.186.74-.338 1.255-.454.515-.122 1.148-.191 1.898-.209v-.513c0-.511-.11-.897-.332-1.157-.22-.264-.543-.397-.968-.397-.286 0-.527.037-.722.111-.19.07-.357.15-.5.24-.139.087-.26.167-.364.241a.52.52 0 0 1-.3.104.345.345 0 0 1-.2-.059.614.614 0 0 1-.144-.155l-.208-.371zm7.408-3.66v1.885l-.104 1.008a.7.7 0 0 1-.123.325c-.057.074-.15.11-.28.11a.345.345 0 0 1-.273-.11.699.699 0 0 1-.123-.325l-.104-1.008v-1.884h1.007zm2.165 0v1.885l-.104 1.008a.7.7 0 0 1-.124.325c-.056.074-.15.11-.28.11a.345.345 0 0 1-.272-.11.699.699 0 0 1-.124-.325l-.104-1.008v-1.884h1.008zm1.626 8.6a.87.87 0 0 1 .059-.319c.043-.1.1-.186.169-.26a.833.833 0 0 1 .578-.24.833.833 0 0 1 .754.5.79.79 0 0 1 .065.319.807.807 0 0 1-.065.325.857.857 0 0 1-.175.254.749.749 0 0 1-.26.168.79.79 0 0 1-.319.066.79.79 0 0 1-.318-.066.749.749 0 0 1-.43-.422.884.884 0 0 1-.058-.325zm0-4.875a.87.87 0 0 1 .059-.319c.043-.1.1-.186.169-.26a.833.833 0 0 1 .578-.24.833.833 0 0 1 .754.5.79.79 0 0 1 .065.319.807.807 0 0 1-.065.325.857.857 0 0 1-.435.429.866.866 0 0 1-.319.058.866.866 0 0 1-.318-.058.833.833 0 0 1-.26-.175.927.927 0 0 1-.17-.254.884.884 0 0 1-.058-.325zm7.597-3.724v1.884l-.104 1.008a.7.7 0 0 1-.124.325c-.056.074-.15.11-.28.11a.345.345 0 0 1-.272-.11.699.699 0 0 1-.124-.325l-.104-1.008v-1.884h1.008zm2.164 0v1.884l-.104 1.008a.7.7 0 0 1-.123.325c-.057.074-.15.11-.28.11a.345.345 0 0 1-.273-.11.699.699 0 0 1-.123-.325l-.104-1.008v-1.884h1.007zm2.654 2.736c0 .295.041.559.123.793.087.23.208.425.364.585.16.16.353.282.579.364.23.082.485.123.767.123.312 0 .587-.05.825-.149.243-.104.447-.24.611-.41.165-.168.291-.363.377-.584a1.87 1.87 0 0 0 .13-.69c0-.29-.047-.552-.143-.786a1.707 1.707 0 0 0-.383-.605 1.649 1.649 0 0 0-.592-.377 1.976 1.976 0 0 0-.747-.136 2.05 2.05 0 0 0-.78.143 1.778 1.778 0 0 0-.605.383 1.677 1.677 0 0 0-.39.592 2.03 2.03 0 0 0-.136.754zm2.704 2.867c.095-.126.184-.245.266-.358.083-.113.161-.225.234-.338-.238.19-.507.336-.806.435-.299.1-.615.15-.949.15a2.86 2.86 0 0 1-1-.175 2.431 2.431 0 0 1-.826-.514 2.57 2.57 0 0 1-.572-.839 2.959 2.959 0 0 1-.208-1.144c0-.407.076-.788.227-1.144.152-.355.364-.665.637-.929s.598-.472.975-.624a3.292 3.292 0 0 1 1.242-.227c.446 0 .851.073 1.215.22.364.148.676.354.936.618s.46.58.598.949c.143.368.215.776.215 1.222a3.882 3.882 0 0 1-.293 1.476 4.91 4.91 0 0 1-.338.688c-.134.226-.286.458-.455.696l-2.268 3.276a.618.618 0 0 1-.24.201.849.849 0 0 1-.358.072H97.29l2.834-3.712zm10.024-5.603v.52a1.1 1.1 0 0 1-.052.364 2.238 2.238 0 0 1-.091.24l-3.861 7.78a.913.913 0 0 1-.234.293.627.627 0 0 1-.397.117h-.832l3.913-7.683c.057-.108.115-.208.176-.299a2.63 2.63 0 0 1 .195-.26h-4.862a.267.267 0 0 1-.195-.084.287.287 0 0 1-.085-.202v-.786h6.325zm5.207 2.248c0 .365-.056.692-.169.982a2.195 2.195 0 0 1-.455.728 1.904 1.904 0 0 1-.656.448 2.006 2.006 0 0 1-.787.157c-.29 0-.561-.052-.812-.156a1.908 1.908 0 0 1-.657-.449 2.159 2.159 0 0 1-.429-.728 2.897 2.897 0 0 1-.156-.981c0-.373.052-.705.156-.995.104-.29.247-.535.429-.734.187-.2.405-.352.657-.456a2.12 2.12 0 0 1 .812-.156c.295 0 .568.053.819.157.252.103.47.255.657.454.186.2.331.445.435.735.104.29.156.622.156.995zm-.897 0c0-.285-.03-.528-.091-.727-.06-.2-.145-.362-.253-.488a.889.889 0 0 0-.371-.28 1.228 1.228 0 0 0-.455-.084c-.16 0-.31.028-.448.084a.894.894 0 0 0-.364.28 1.381 1.381 0 0 0-.247.488 2.513 2.513 0 0 0-.091.728c0 .281.03.522.091.721.06.195.143.355.247.481a.94.94 0 0 0 .364.266c.138.052.288.078.448.078.161 0 .312-.025.455-.078a.935.935 0 0 0 .371-.266 1.33 1.33 0 0 0 .253-.481c.061-.2.091-.44.091-.722zm4.193-2.053a.744.744 0 0 1 .149-.137.441.441 0 0 1 .241-.058h.838l-6.812 9.125a.458.458 0 0 1-.149.137.441.441 0 0 1-.221.052h-.852l6.806-9.12zm1.859 6.922c0 .364-.057.689-.169.975a2.227 2.227 0 0 1-.455.728 2.005 2.005 0 0 1-1.443.605c-.295 0-.568-.052-.819-.156a1.918 1.918 0 0 1-.65-.449 2.159 2.159 0 0 1-.429-.728 2.841 2.841 0 0 1-.156-.975c0-.373.052-.704.156-.995.104-.294.247-.541.429-.74.186-.2.403-.352.65-.456.251-.103.524-.155.819-.155.29 0 .561.052.812.156.256.103.475.255.657.454.186.2.331.447.435.742.109.29.163.621.163.994zm-.897 0a2.55 2.55 0 0 0-.091-.728 1.322 1.322 0 0 0-.254-.494.907.907 0 0 0-.37-.273 1.232 1.232 0 0 0-.455-.085c-.161 0-.312.029-.455.085a.916.916 0 0 0-.364.273c-.104.126-.187.29-.247.494a2.68 2.68 0 0 0-.085.728c0 .282.028.52.085.715.06.195.143.355.247.481.104.121.225.21.364.267.143.051.294.078.455.078.16 0 .312-.026.455-.078a.932.932 0 0 0 .37-.267c.109-.126.193-.286.254-.481.06-.195.091-.433.091-.715zm3.305-7.117v1.884l-.104 1.008a.7.7 0 0 1-.123.325c-.057.074-.15.11-.28.11a.345.345 0 0 1-.273-.11.7.7 0 0 1-.123-.325l-.104-1.008v-1.884h1.007zm2.165 0v1.884l-.104 1.008a.7.7 0 0 1-.124.325c-.056.074-.149.11-.279.11a.345.345 0 0 1-.273-.11.7.7 0 0 1-.124-.325l-.104-1.008v-1.884h1.008zm4.285 5.615c-.286 0-.505.09-.657.267-.151.173-.227.397-.227.67 0 .216.017.43.052.643.034.212.071.427.11.644.039.212.076.426.111.643.034.212.052.431.052.656 0 .3-.046.575-.137.826a1.673 1.673 0 0 1-.403.65 1.786 1.786 0 0 1-.669.422 2.514 2.514 0 0 1-.923.157h-.351v-.52c0-.087.03-.15.091-.189a.342.342 0 0 1 .169-.058h.13c.338 0 .602-.109.793-.325.19-.217.286-.514.286-.891 0-.243-.015-.477-.046-.702a13.7 13.7 0 0 0-.104-.657 19.684 19.684 0 0 1-.104-.643 4.593 4.593 0 0 1-.045-.644 1.384 1.384 0 0 1 .273-.832c.091-.112.195-.208.312-.286a1.41 1.41 0 0 1 .396-.175 1.411 1.411 0 0 1-.396-.175 1.316 1.316 0 0 1-.585-1.124c0-.218.015-.432.045-.645.031-.212.065-.424.104-.637.039-.216.074-.437.104-.663.031-.225.046-.459.046-.701 0-.373-.096-.668-.286-.885-.191-.22-.455-.331-.793-.331h-.13a.342.342 0 0 1-.169-.059c-.061-.038-.091-.101-.091-.188v-.514h.351c.351 0 .658.05.923.15.268.1.492.24.669.422.182.183.317.4.403.65.091.252.137.527.137.826 0 .225-.018.446-.052.663-.035.217-.072.431-.111.644-.039.212-.076.424-.11.636a3.949 3.949 0 0 0-.052.644c0 .277.076.503.227.676.152.173.371.26.657.26v.696z" fill="#B2ADCC"/></svg>