<svg width="489" height="663" fill="none" xmlns="http://www.w3.org/2000/svg"><path d="M224.5 416L380 614h107.5" stroke="#797399"/><path d="M380.594 628.796c-.338 0-.602.11-.793.331-.191.217-.286.512-.286.884 0 .243.015.477.046.702.03.226.065.447.104.663.039.213.073.425.104.637.03.213.045.427.045.644 0 .16-.024.312-.071.455a1.24 1.24 0 0 1-.208.377 1.328 1.328 0 0 1-.702.468 1.326 1.326 0 0 1 .91.845c.047.139.071.288.071.448 0 .217-.015.432-.045.644-.031.212-.065.427-.104.643a13.7 13.7 0 0 0-.104.657 5.142 5.142 0 0 0-.046.702c0 .377.095.674.286.891.191.216.455.325.793.325h.13c.052 0 .108.019.169.058.061.039.091.102.091.189v.52h-.351c-.351 0-.661-.052-.929-.156a1.862 1.862 0 0 1-.67-.423 1.788 1.788 0 0 1-.403-.65 2.506 2.506 0 0 1-.13-.826c0-.225.017-.444.052-.656.035-.217.072-.431.111-.644.039-.216.075-.431.11-.643a3.95 3.95 0 0 0 .052-.644c0-.273-.076-.496-.227-.669-.152-.178-.371-.267-.657-.267v-.695c.286 0 .505-.087.657-.26.151-.173.227-.399.227-.676 0-.217-.017-.431-.052-.644a36.933 36.933 0 0 0-.11-.637 29.615 29.615 0 0 1-.111-.643 4.157 4.157 0 0 1-.052-.663c0-.299.043-.574.13-.826.091-.251.225-.468.403-.65a1.86 1.86 0 0 1 .67-.422c.268-.1.578-.15.929-.15h.351v.514c0 .087-.03.149-.091.188a.32.32 0 0 1-.169.059h-.13zm1.921 3.029a3.01 3.01 0 0 1-.37-.969 2.93 2.93 0 0 1 .305-1.969c.165-.308.384-.583.657-.826l.351.221c.065.044.093.098.084.163a.218.218 0 0 1-.058.143 2.016 2.016 0 0 0-.293.507 2.342 2.342 0 0 0-.149.643c-.022.226-.011.46.032.702.043.243.132.477.267.702.056.091.071.174.045.247-.022.07-.074.122-.156.156l-.715.28zm1.976 0a3.01 3.01 0 0 1-.37-.969 2.93 2.93 0 0 1 .305-1.969c.165-.308.384-.583.657-.826l.351.221c.065.044.093.098.084.163a.218.218 0 0 1-.058.143 2.016 2.016 0 0 0-.293.507 2.342 2.342 0 0 0-.149.643c-.022.226-.011.46.032.702.043.243.132.477.267.702.056.091.071.174.045.247-.022.07-.074.122-.156.156l-.715.28zm3.806-.41V638h-1.157v-6.585h1.157zm.247-2.067a.727.727 0 0 1-.072.319.88.88 0 0 1-.182.26.795.795 0 0 1-.266.175.781.781 0 0 1-.319.065.777.777 0 0 1-.318-.065.841.841 0 0 1-.429-.435.781.781 0 0 1-.065-.319.78.78 0 0 1 .065-.318.825.825 0 0 1 .175-.267.812.812 0 0 1 .254-.182.798.798 0 0 1 .637 0 .768.768 0 0 1 .266.182.768.768 0 0 1 .182.267c.048.1.072.206.072.318zm2.746 3.023c.143-.16.294-.306.455-.436.16-.13.329-.24.507-.331a2.64 2.64 0 0 1 1.228-.293c.36 0 .676.061.949.182.278.117.507.286.689.507.187.217.327.479.423.787.095.308.143.648.143 1.02V638h-1.164v-4.193c0-.498-.115-.884-.344-1.157-.226-.277-.57-.416-1.034-.416-.342 0-.663.083-.962.247a3.205 3.205 0 0 0-.819.67V638h-1.163v-6.585h.695c.165 0 .267.081.306.241l.091.715zm6.484 5.629v-5.597l-.728-.084a.631.631 0 0 1-.227-.098.245.245 0 0 1-.085-.201v-.475h1.04v-.637c0-.377.052-.71.156-1.001.109-.294.26-.541.455-.741.2-.203.438-.357.715-.461.278-.104.59-.156.936-.156.295 0 .566.043.813.13l-.026.578c-.009.104-.067.161-.176.169a5.199 5.199 0 0 1-.422.013 1.8 1.8 0 0 0-.546.078 1.025 1.025 0 0 0-.416.254 1.18 1.18 0 0 0-.273.461 2.359 2.359 0 0 0-.091.709v.604h1.898v.839h-1.859V638h-1.164zm6.689-6.689c.481 0 .914.081 1.3.241.385.16.715.388.988.682.273.295.481.653.624 1.073.147.416.221.882.221 1.397 0 .52-.074.988-.221 1.404a2.957 2.957 0 0 1-.624 1.066 2.785 2.785 0 0 1-.988.683 3.441 3.441 0 0 1-1.3.234c-.486 0-.923-.078-1.313-.234a2.776 2.776 0 0 1-.988-.683 3.029 3.029 0 0 1-.631-1.066 4.303 4.303 0 0 1-.214-1.404c0-.515.071-.981.214-1.397.147-.42.358-.778.631-1.073.273-.294.602-.522.988-.682.39-.16.827-.241 1.313-.241zm0 5.877c.65 0 1.135-.217 1.456-.651.32-.437.481-1.046.481-1.826 0-.784-.161-1.395-.481-1.833-.321-.438-.806-.657-1.456-.657-.33 0-.618.057-.865.169a1.64 1.64 0 0 0-.611.488c-.16.212-.282.474-.364.786a4.276 4.276 0 0 0-.117 1.047c0 .78.16 1.389.481 1.826.325.434.817.651 1.476.651zm5.12-9.127a3.01 3.01 0 0 1 .39 1.989c-.052.334-.16.655-.325.962a2.873 2.873 0 0 1-.656.819l-.351-.227c-.065-.039-.096-.089-.091-.15a.278.278 0 0 1 .065-.156 2.236 2.236 0 0 0 .442-1.137c.026-.23.015-.466-.033-.709a2.086 2.086 0 0 0-.266-.702c-.057-.091-.074-.171-.052-.24a.274.274 0 0 1 .162-.163l.715-.286zm1.976 0a3.01 3.01 0 0 1 .39 1.989c-.052.334-.16.655-.325.962a2.873 2.873 0 0 1-.656.819l-.351-.227c-.065-.039-.096-.089-.091-.15a.278.278 0 0 1 .065-.156 2.236 2.236 0 0 0 .442-1.137c.026-.23.015-.466-.033-.709a2.086 2.086 0 0 0-.266-.702c-.057-.091-.074-.171-.052-.24a.274.274 0 0 1 .162-.163l.715-.286zm1.869 9.224c0-.113.019-.219.058-.319a.933.933 0 0 1 .169-.26.85.85 0 0 1 .26-.175.798.798 0 0 1 .637 0 .827.827 0 0 1 .501.754.813.813 0 0 1-.065.325.858.858 0 0 1-.176.253.752.752 0 0 1-.26.17.798.798 0 0 1-.637 0 .771.771 0 0 1-.26-.17.94.94 0 0 1-.169-.253.885.885 0 0 1-.058-.325zm0-4.875c0-.113.019-.219.058-.319a.933.933 0 0 1 .169-.26.85.85 0 0 1 .26-.175.798.798 0 0 1 .637 0 .827.827 0 0 1 .501.754.813.813 0 0 1-.065.325.858.858 0 0 1-.436.429.863.863 0 0 1-.318.058.869.869 0 0 1-.319-.058.835.835 0 0 1-.26-.176.94.94 0 0 1-.169-.253.885.885 0 0 1-.058-.325zm4.153-4.349a3.01 3.01 0 0 1 .39 1.989c-.052.334-.16.655-.325.962a2.873 2.873 0 0 1-.656.819l-.351-.227c-.065-.039-.096-.089-.091-.15a.278.278 0 0 1 .065-.156 2.236 2.236 0 0 0 .442-1.137c.026-.23.015-.466-.033-.709a2.086 2.086 0 0 0-.266-.702c-.057-.091-.074-.171-.052-.24a.274.274 0 0 1 .162-.163l.715-.286zm1.976 0a3.01 3.01 0 0 1 .39 1.989c-.052.334-.16.655-.325.962a2.873 2.873 0 0 1-.656.819l-.351-.227c-.065-.039-.096-.089-.091-.15a.278.278 0 0 1 .065-.156 2.236 2.236 0 0 0 .442-1.137c.026-.23.015-.466-.033-.709a2.086 2.086 0 0 0-.266-.702c-.057-.091-.074-.171-.052-.24a.274.274 0 0 1 .162-.163l.715-.286zM421.53 638v-6.585h.695c.165 0 .267.081.306.241l.084.676c.243-.299.516-.544.819-.735.304-.19.655-.286 1.053-.286.442 0 .8.124 1.073.371.277.247.476.581.598 1.001.095-.238.216-.444.364-.618a2.142 2.142 0 0 1 1.098-.676c.213-.052.427-.078.644-.078.346 0 .654.057.923.169.273.109.502.269.689.481.19.213.336.475.435.787.1.308.15.661.15 1.059V638h-1.164v-4.193c0-.515-.112-.905-.338-1.17-.225-.268-.55-.403-.975-.403-.19 0-.372.035-.546.104a1.275 1.275 0 0 0-.448.293c-.13.13-.234.295-.312.494a1.916 1.916 0 0 0-.111.682V638h-1.163v-4.193c0-.528-.106-.923-.319-1.183-.212-.26-.522-.39-.929-.39-.286 0-.551.078-.793.234a2.59 2.59 0 0 0-.67.624V638h-1.163zm14.258-2.964a9.365 9.365 0 0 0-1.365.13 3.868 3.868 0 0 0-.917.26c-.234.108-.405.236-.513.383a.838.838 0 0 0-.156.494c0 .174.028.323.084.449.057.126.132.23.228.312.099.078.214.136.344.175.135.035.278.052.429.052.204 0 .39-.019.559-.058.169-.043.327-.104.475-.182.151-.078.294-.171.429-.28.138-.108.273-.231.403-.37v-1.365zm-3.738-2.691a3.768 3.768 0 0 1 1.177-.787c.42-.173.886-.26 1.397-.26a2.5 2.5 0 0 1 .982.182c.286.122.526.291.721.507.195.217.343.479.442.787.1.308.15.646.15 1.014V638h-.514a.53.53 0 0 1-.26-.052c-.06-.039-.108-.113-.143-.221l-.13-.624a7.07 7.07 0 0 1-.507.429 3.198 3.198 0 0 1-.52.312 2.86 2.86 0 0 1-.585.189 3.033 3.033 0 0 1-.682.071c-.256 0-.496-.035-.722-.104a1.75 1.75 0 0 1-.591-.325 1.574 1.574 0 0 1-.397-.54 1.964 1.964 0 0 1-.143-.78c0-.26.072-.509.215-.747.143-.243.375-.457.695-.644.321-.186.739-.338 1.255-.455.515-.121 1.148-.19 1.898-.208v-.513c0-.511-.111-.897-.332-1.157-.221-.264-.544-.397-.968-.397-.286 0-.527.037-.722.111-.19.069-.357.149-.5.24-.139.087-.26.167-.364.241-.1.069-.2.104-.299.104a.349.349 0 0 1-.202-.059.61.61 0 0 1-.143-.156l-.208-.37zm8.564 5.759c-.52 0-.921-.145-1.203-.436-.277-.29-.416-.708-.416-1.254v-4.03h-.793a.266.266 0 0 1-.175-.059c-.048-.043-.072-.108-.072-.195v-.461l1.079-.137.267-2.034a.277.277 0 0 1 .084-.156.263.263 0 0 1 .182-.065h.585v2.268h1.905v.839h-1.905v3.952c0 .277.067.483.202.617a.7.7 0 0 0 .52.202.933.933 0 0 0 .312-.046c.091-.034.169-.071.234-.11.065-.039.119-.074.162-.104.048-.035.089-.052.124-.052.06 0 .115.037.162.11l.338.553a2.2 2.2 0 0 1-.721.442 2.497 2.497 0 0 1-.871.156zm7.182-5.519a.512.512 0 0 1-.104.111.234.234 0 0 1-.143.039.397.397 0 0 1-.215-.078 3.02 3.02 0 0 0-.292-.182 2.082 2.082 0 0 0-.423-.176 1.913 1.913 0 0 0-.611-.084c-.325 0-.611.058-.858.175a1.659 1.659 0 0 0-.624.494 2.35 2.35 0 0 0-.377.787 4.014 4.014 0 0 0-.123 1.033c0 .399.045.754.136 1.066.091.308.219.568.384.78.169.208.37.369.604.481.239.109.505.163.8.163.282 0 .513-.033.695-.098.182-.069.332-.145.449-.227.121-.082.221-.156.299-.221a.378.378 0 0 1 .24-.104c.096 0 .169.037.221.11l.325.423a2.303 2.303 0 0 1-.487.455 3.025 3.025 0 0 1-1.248.501c-.23.039-.464.058-.702.058-.412 0-.795-.076-1.151-.228a2.63 2.63 0 0 1-.916-.656 3.12 3.12 0 0 1-.611-1.066 4.337 4.337 0 0 1-.221-1.437c0-.489.067-.942.201-1.358a3.12 3.12 0 0 1 .598-1.073 2.75 2.75 0 0 1 .969-.708 3.277 3.277 0 0 1 1.326-.254c.464 0 .871.076 1.222.228.355.147.669.357.942.63l-.305.416zm2.789-.292c.282-.299.594-.537.936-.715a2.528 2.528 0 0 1 1.183-.267c.36 0 .676.061.949.182.277.117.507.286.689.507.186.217.327.479.422.787.096.308.143.648.143 1.02V638h-1.163v-4.193c0-.498-.115-.884-.345-1.157-.225-.277-.569-.416-1.033-.416-.342 0-.663.083-.962.247a3.171 3.171 0 0 0-.819.67V638h-1.164v-9.575h1.164v3.868zm10.996-2.152a.5.5 0 0 1-.13.15.28.28 0 0 1-.163.045c-.073 0-.16-.036-.26-.11a3.768 3.768 0 0 0-.377-.241 2.751 2.751 0 0 0-.539-.247 2.313 2.313 0 0 0-.761-.11c-.281 0-.53.039-.747.117a1.611 1.611 0 0 0-.54.305c-.143.13-.251.284-.325.462-.073.173-.11.362-.11.565 0 .26.063.477.188.65.13.169.299.315.507.436.213.121.451.227.715.318.269.087.542.178.819.273.282.096.555.204.819.325.269.117.507.267.715.449.213.182.382.405.507.669.13.265.195.59.195.975 0 .408-.069.791-.208 1.151a2.614 2.614 0 0 1-.611.929 2.779 2.779 0 0 1-.981.624 3.581 3.581 0 0 1-1.32.228 4.064 4.064 0 0 1-1.651-.325 3.909 3.909 0 0 1-1.267-.891l.364-.598a.487.487 0 0 1 .123-.117.306.306 0 0 1 .169-.052.34.34 0 0 1 .189.072c.074.043.156.1.247.169s.195.145.312.227a2.57 2.57 0 0 0 .91.403c.191.044.405.065.643.065.299 0 .566-.041.8-.123.234-.082.431-.197.591-.345.165-.151.291-.331.377-.539.087-.208.13-.44.13-.696 0-.281-.065-.511-.195-.689a1.538 1.538 0 0 0-.5-.455 3.374 3.374 0 0 0-.715-.305c-.269-.087-.542-.173-.819-.26a9.437 9.437 0 0 1-.819-.312 2.649 2.649 0 0 1-.715-.455 2.13 2.13 0 0 1-.507-.696c-.126-.281-.189-.628-.189-1.04 0-.329.063-.647.189-.955.13-.308.316-.581.559-.819.247-.238.548-.429.903-.572.36-.143.772-.215 1.235-.215.52 0 .993.083 1.417.247.429.165.806.403 1.131.715l-.305.598zm3.751 7.963c-.52 0-.921-.145-1.203-.436-.277-.29-.416-.708-.416-1.254v-4.03h-.793a.266.266 0 0 1-.175-.059c-.048-.043-.072-.108-.072-.195v-.461l1.079-.137.267-2.034a.277.277 0 0 1 .084-.156.262.262 0 0 1 .182-.065h.585v2.268h1.905v.839h-1.905v3.952c0 .277.067.483.202.617a.7.7 0 0 0 .52.202.933.933 0 0 0 .312-.046c.091-.034.169-.071.234-.11.065-.039.119-.074.162-.104.048-.035.089-.052.124-.052.06 0 .114.037.162.11l.338.553a2.2 2.2 0 0 1-.721.442 2.497 2.497 0 0 1-.871.156zm6.206-3.068a9.365 9.365 0 0 0-1.365.13 3.868 3.868 0 0 0-.917.26c-.234.108-.405.236-.513.383a.838.838 0 0 0-.156.494c0 .174.028.323.084.449.057.126.132.23.228.312.099.078.214.136.344.175.135.035.278.052.429.052.204 0 .39-.019.559-.058.169-.043.327-.104.475-.182.151-.078.294-.171.429-.28.138-.108.273-.231.403-.37v-1.365zm-3.738-2.691a3.768 3.768 0 0 1 1.177-.787c.42-.173.886-.26 1.397-.26a2.5 2.5 0 0 1 .982.182c.286.122.526.291.721.507.195.217.343.479.442.787.1.308.15.646.15 1.014V638h-.514a.53.53 0 0 1-.26-.052c-.06-.039-.108-.113-.143-.221l-.13-.624a7.07 7.07 0 0 1-.507.429 3.198 3.198 0 0 1-.52.312 2.86 2.86 0 0 1-.585.189 3.033 3.033 0 0 1-.682.071c-.256 0-.496-.035-.722-.104a1.75 1.75 0 0 1-.591-.325 1.574 1.574 0 0 1-.397-.54 1.964 1.964 0 0 1-.143-.78c0-.26.072-.509.215-.747.143-.243.375-.457.695-.644.321-.186.739-.338 1.255-.455.515-.121 1.148-.19 1.898-.208v-.513c0-.511-.111-.897-.332-1.157-.221-.264-.544-.397-.968-.397-.286 0-.527.037-.722.111-.19.069-.357.149-.5.24-.139.087-.26.167-.364.241-.1.069-.2.104-.299.104a.349.349 0 0 1-.202-.059.61.61 0 0 1-.143-.156l-.208-.37zm7.73.39c.208-.451.463-.802.767-1.053.303-.256.673-.384 1.111-.384.139 0 .271.016.397.046.13.03.244.078.344.143l-.084.864c-.026.109-.091.163-.195.163-.061 0-.15-.013-.267-.039a1.832 1.832 0 0 0-.396-.039c-.208 0-.395.03-.559.091a1.323 1.323 0 0 0-.436.273c-.126.117-.24.264-.344.442-.1.173-.191.373-.273.598V638h-1.164v-6.585h.663c.126 0 .212.024.26.072.048.048.08.13.098.247l.078 1.001zm5.658 5.369c-.52 0-.921-.145-1.202-.436-.278-.29-.416-.708-.416-1.254v-4.03h-.793a.27.27 0 0 1-.176-.059c-.048-.043-.071-.108-.071-.195v-.461l1.079-.137.266-2.034a.26.26 0 0 1 .267-.221h.585v2.268h1.904v.839h-1.904v3.952c0 .277.067.483.201.617a.701.701 0 0 0 .52.202.933.933 0 0 0 .312-.046c.091-.034.169-.071.234-.11.065-.039.119-.074.163-.104.047-.035.088-.052.123-.052.061 0 .115.037.163.11l.338.553c-.2.186-.44.334-.722.442a2.497 2.497 0 0 1-.871.156zm3.437-10.043a3.01 3.01 0 0 1 .39 1.989c-.052.334-.16.655-.325.962a2.873 2.873 0 0 1-.656.819l-.351-.227c-.065-.039-.096-.089-.091-.15a.278.278 0 0 1 .065-.156 2.236 2.236 0 0 0 .442-1.137c.026-.23.015-.466-.033-.709a2.086 2.086 0 0 0-.266-.702c-.057-.091-.074-.171-.052-.24a.274.274 0 0 1 .162-.163l.715-.286zm1.976 0a3.01 3.01 0 0 1 .39 1.989c-.052.334-.16.655-.325.962a2.873 2.873 0 0 1-.656.819l-.351-.227c-.065-.039-.096-.089-.091-.15a.278.278 0 0 1 .065-.156 2.236 2.236 0 0 0 .442-1.137c.026-.23.015-.466-.033-.709a2.086 2.086 0 0 0-.266-.702c-.057-.091-.074-.171-.052-.24a.274.274 0 0 1 .162-.163l.715-.286zm-108.256 30.512a.282.282 0 0 1-.071-.084.22.22 0 0 1-.02-.098c0-.03.009-.061.026-.091a.724.724 0 0 1 .072-.084c.043-.048.097-.111.162-.189.069-.078.139-.171.208-.279.069-.104.132-.221.189-.351.06-.126.104-.26.13-.404a.13.13 0 0 1-.046.007h-.039a.737.737 0 0 1-.552-.221.825.825 0 0 1-.208-.579.72.72 0 0 1 .208-.52.763.763 0 0 1 .565-.214c.13 0 .245.024.345.071a.666.666 0 0 1 .247.202c.069.082.121.18.156.292.034.109.052.228.052.358 0 .195-.029.399-.085.611a2.74 2.74 0 0 1-.24.618 3.627 3.627 0 0 1-.904 1.144l-.195-.189zm7.142-11.512a3.01 3.01 0 0 1 .39 1.989c-.052.334-.16.655-.325.962a2.873 2.873 0 0 1-.656.819l-.351-.227c-.065-.039-.095-.089-.091-.15a.285.285 0 0 1 .065-.156c.113-.138.208-.305.286-.5.082-.199.134-.412.156-.637.026-.23.015-.466-.033-.709a2.086 2.086 0 0 0-.266-.702c-.056-.091-.074-.171-.052-.24a.274.274 0 0 1 .162-.163l.715-.286zm1.976 0a3.01 3.01 0 0 1 .39 1.989c-.052.334-.16.655-.325.962a2.873 2.873 0 0 1-.656.819l-.351-.227c-.065-.039-.095-.089-.091-.15a.285.285 0 0 1 .065-.156c.113-.138.208-.305.286-.5.082-.199.134-.412.156-.637.026-.23.015-.466-.033-.709a2.086 2.086 0 0 0-.266-.702c-.056-.091-.074-.171-.052-.24a.274.274 0 0 1 .162-.163l.715-.286zm5.755 4.921c-.216-.29-.45-.492-.702-.605a1.977 1.977 0 0 0-.845-.175c-.611 0-1.081.219-1.41.656-.33.438-.494 1.062-.494 1.872 0 .429.037.798.11 1.105.074.304.182.555.325.754.143.195.319.338.527.429.208.091.444.137.708.137.382 0 .713-.087.995-.26.286-.173.548-.418.786-.735v-3.178zm1.157-4.557V657h-.689c-.164 0-.268-.08-.312-.241l-.104-.799a3.57 3.57 0 0 1-.962.819c-.359.208-.775.312-1.248.312-.377 0-.719-.072-1.027-.215a2.15 2.15 0 0 1-.786-.643 3.05 3.05 0 0 1-.501-1.053 5.424 5.424 0 0 1-.175-1.45c0-.485.065-.936.195-1.352.13-.42.316-.784.559-1.092.242-.307.539-.548.89-.721a2.635 2.635 0 0 1 1.196-.267c.403 0 .748.07 1.034.208.29.135.548.323.773.566v-3.647h1.157zm5.396 6.611a9.365 9.365 0 0 0-1.365.13 3.845 3.845 0 0 0-.916.26c-.234.108-.406.236-.514.383a.838.838 0 0 0-.156.494c0 .174.028.323.085.449.056.126.132.23.227.312.1.078.215.136.345.175.134.035.277.052.429.052.203 0 .39-.019.559-.058a2.45 2.45 0 0 0 .903-.462c.139-.108.273-.231.403-.37v-1.365zm-3.737-2.691a3.775 3.775 0 0 1 1.176-.787c.42-.173.886-.26 1.398-.26.368 0 .695.061.981.182.286.122.527.291.722.507.195.217.342.479.442.787.099.308.149.646.149 1.014V657h-.513a.524.524 0 0 1-.26-.052c-.061-.039-.109-.113-.143-.221l-.13-.624c-.174.16-.343.303-.507.429a3.241 3.241 0 0 1-.52.312 2.86 2.86 0 0 1-.585.189 3.049 3.049 0 0 1-.683.071c-.256 0-.496-.035-.721-.104a1.745 1.745 0 0 1-.592-.325 1.559 1.559 0 0 1-.396-.54 1.946 1.946 0 0 1-.143-.78c0-.26.071-.509.214-.747.143-.243.375-.457.696-.644.32-.186.738-.338 1.254-.455.516-.121 1.148-.19 1.898-.208v-.513c0-.511-.11-.897-.331-1.157-.221-.264-.544-.397-.969-.397-.286 0-.526.037-.721.111a2.537 2.537 0 0 0-.501.24c-.139.087-.26.167-.364.241a.523.523 0 0 1-.299.104.343.343 0 0 1-.201-.059.592.592 0 0 1-.143-.156l-.208-.37zm8.563 5.759c-.52 0-.921-.145-1.202-.436-.278-.29-.416-.708-.416-1.254v-4.03h-.793a.27.27 0 0 1-.176-.059c-.047-.043-.071-.108-.071-.195v-.461l1.079-.137.266-2.034a.26.26 0 0 1 .267-.221h.585v2.268h1.904v.839h-1.904v3.952c0 .277.067.483.201.617a.703.703 0 0 0 .52.202.925.925 0 0 0 .312-.046c.091-.034.169-.071.234-.11.065-.039.119-.074.163-.104a.22.22 0 0 1 .123-.052c.061 0 .115.037.163.11l.338.553c-.2.186-.44.334-.722.442a2.493 2.493 0 0 1-.871.156zm6.206-3.068a9.365 9.365 0 0 0-1.365.13 3.859 3.859 0 0 0-.916.26c-.234.108-.405.236-.514.383a.838.838 0 0 0-.156.494c0 .174.029.323.085.449.056.126.132.23.227.312.1.078.215.136.345.175.134.035.277.052.429.052.204 0 .39-.019.559-.058a2.45 2.45 0 0 0 .903-.462c.139-.108.273-.231.403-.37v-1.365zm-3.737-2.691a3.775 3.775 0 0 1 1.176-.787c.421-.173.887-.26 1.398-.26.368 0 .695.061.981.182.286.122.527.291.722.507.195.217.342.479.442.787.1.308.149.646.149 1.014V657h-.513a.527.527 0 0 1-.26-.052c-.061-.039-.108-.113-.143-.221l-.13-.624a7.07 7.07 0 0 1-.507.429 3.241 3.241 0 0 1-.52.312 2.86 2.86 0 0 1-.585.189 3.043 3.043 0 0 1-.683.071 2.45 2.45 0 0 1-.721-.104 1.755 1.755 0 0 1-.592-.325 1.584 1.584 0 0 1-.396-.54 1.964 1.964 0 0 1-.143-.78c0-.26.071-.509.214-.747.143-.243.375-.457.696-.644.321-.186.739-.338 1.254-.455.516-.121 1.149-.19 1.898-.208v-.513c0-.511-.11-.897-.331-1.157-.221-.264-.544-.397-.969-.397-.286 0-.526.037-.721.111a2.537 2.537 0 0 0-.501.24c-.138.087-.26.167-.364.241a.521.521 0 0 1-.299.104.343.343 0 0 1-.201-.059.61.61 0 0 1-.143-.156l-.208-.37zm7.227-4.284a3.01 3.01 0 0 1 .39 1.989c-.052.334-.16.655-.325.962a2.89 2.89 0 0 1-.656.819l-.351-.227c-.065-.039-.096-.089-.091-.15a.278.278 0 0 1 .065-.156 2.236 2.236 0 0 0 .442-1.137c.026-.23.015-.466-.033-.709a2.086 2.086 0 0 0-.266-.702c-.057-.091-.074-.171-.052-.24a.274.274 0 0 1 .162-.163l.715-.286zm1.976 0a3.01 3.01 0 0 1 .39 1.989c-.052.334-.16.655-.325.962a2.89 2.89 0 0 1-.656.819l-.351-.227c-.065-.039-.096-.089-.091-.15a.278.278 0 0 1 .065-.156 2.236 2.236 0 0 0 .442-1.137c.026-.23.015-.466-.033-.709a2.086 2.086 0 0 0-.266-.702c-.057-.091-.074-.171-.052-.24a.274.274 0 0 1 .162-.163l.715-.286zm1.869 9.224c0-.113.019-.219.058-.319a.933.933 0 0 1 .169-.26.85.85 0 0 1 .26-.175.798.798 0 0 1 .637 0 .827.827 0 0 1 .501.754.813.813 0 0 1-.065.325.858.858 0 0 1-.176.253.752.752 0 0 1-.26.17.798.798 0 0 1-.637 0 .771.771 0 0 1-.26-.17.94.94 0 0 1-.169-.253.885.885 0 0 1-.058-.325zm0-4.875c0-.113.019-.219.058-.319a.933.933 0 0 1 .169-.26.85.85 0 0 1 .26-.175.798.798 0 0 1 .637 0 .827.827 0 0 1 .501.754.813.813 0 0 1-.065.325.858.858 0 0 1-.436.429.863.863 0 0 1-.318.058.869.869 0 0 1-.319-.058.835.835 0 0 1-.26-.176.94.94 0 0 1-.169-.253.885.885 0 0 1-.058-.325zm4.153-4.349a3.01 3.01 0 0 1 .39 1.989c-.052.334-.16.655-.325.962a2.873 2.873 0 0 1-.656.819l-.351-.227c-.065-.039-.096-.089-.091-.15a.278.278 0 0 1 .065-.156 2.236 2.236 0 0 0 .442-1.137c.026-.23.015-.466-.033-.709a2.086 2.086 0 0 0-.266-.702c-.057-.091-.074-.171-.052-.24a.274.274 0 0 1 .162-.163l.715-.286zm1.976 0a3.01 3.01 0 0 1 .39 1.989c-.052.334-.16.655-.325.962a2.873 2.873 0 0 1-.656.819l-.351-.227c-.065-.039-.096-.089-.091-.15a.278.278 0 0 1 .065-.156 2.236 2.236 0 0 0 .442-1.137c.026-.23.015-.466-.033-.709a2.086 2.086 0 0 0-.266-.702c-.057-.091-.074-.171-.052-.24a.274.274 0 0 1 .162-.163l.715-.286zm3.507 1.651v3.257h3.828v1.027h-3.828V657h-1.261v-9.315h5.739v1.027h-4.478zm8.021 1.599c.481 0 .914.081 1.3.241.385.16.715.388.988.682.273.295.481.653.624 1.073.147.416.221.882.221 1.397 0 .52-.074.988-.221 1.404a2.957 2.957 0 0 1-.624 1.066 2.785 2.785 0 0 1-.988.683 3.441 3.441 0 0 1-1.3.234c-.486 0-.923-.078-1.313-.234a2.776 2.776 0 0 1-.988-.683 3.029 3.029 0 0 1-.631-1.066 4.303 4.303 0 0 1-.214-1.404c0-.515.071-.981.214-1.397.147-.42.358-.778.631-1.073.273-.294.602-.522.988-.682.39-.16.827-.241 1.313-.241zm0 5.877c.65 0 1.135-.217 1.456-.651.32-.437.481-1.046.481-1.826 0-.784-.161-1.395-.481-1.833-.321-.438-.806-.657-1.456-.657-.33 0-.618.057-.865.169a1.64 1.64 0 0 0-.611.488c-.16.212-.282.474-.364.786a4.276 4.276 0 0 0-.117 1.047c0 .78.16 1.389.481 1.826.325.434.817.651 1.476.651zm5.699-4.453c.208-.451.463-.802.767-1.053.303-.256.673-.384 1.111-.384.139 0 .271.016.397.046.13.03.244.078.344.143l-.084.864c-.026.109-.091.163-.195.163-.061 0-.15-.013-.267-.039a1.832 1.832 0 0 0-.396-.039c-.208 0-.395.03-.559.091a1.323 1.323 0 0 0-.436.273c-.126.117-.24.264-.344.442-.1.173-.191.373-.273.598V657h-1.164v-6.585h.663c.126 0 .212.024.26.072.048.048.08.13.098.247l.078 1.001zm5.658 5.369c-.52 0-.921-.145-1.203-.436-.277-.29-.416-.708-.416-1.254v-4.03h-.793a.268.268 0 0 1-.175-.059c-.048-.043-.072-.108-.072-.195v-.461l1.079-.137.267-2.034a.277.277 0 0 1 .084-.156.263.263 0 0 1 .182-.065h.585v2.268h1.905v.839h-1.905v3.952c0 .277.068.483.202.617a.701.701 0 0 0 .52.202.933.933 0 0 0 .312-.046c.091-.034.169-.071.234-.11.065-.039.119-.074.162-.104.048-.035.089-.052.124-.052.061 0 .115.037.162.11l.338.553a2.189 2.189 0 0 1-.721.442 2.497 2.497 0 0 1-.871.156zm3.73-5.733c.143-.16.294-.306.455-.436.16-.13.329-.24.507-.331a2.64 2.64 0 0 1 1.228-.293c.36 0 .676.061.949.182.277.117.507.286.689.507.186.217.327.479.423.787.095.308.143.648.143 1.02V657h-1.164v-4.193c0-.498-.115-.884-.344-1.157-.226-.277-.57-.416-1.034-.416-.342 0-.663.083-.962.247a3.171 3.171 0 0 0-.819.67V657h-1.163v-6.585h.695c.165 0 .267.081.306.241l.091.715zm7.379-.956V657h-1.157v-6.585h1.157zm.247-2.067a.727.727 0 0 1-.072.319.88.88 0 0 1-.182.26.805.805 0 0 1-.266.175.781.781 0 0 1-.319.065.773.773 0 0 1-.318-.065.841.841 0 0 1-.429-.435.781.781 0 0 1-.065-.319.78.78 0 0 1 .065-.318.81.81 0 0 1 .175-.267.812.812 0 0 1 .254-.182.798.798 0 0 1 .637 0 .778.778 0 0 1 .266.182.768.768 0 0 1 .182.267c.048.1.072.206.072.318zm3.675 8.756c-.52 0-.921-.145-1.202-.436-.278-.29-.416-.708-.416-1.254v-4.03h-.793a.27.27 0 0 1-.176-.059c-.048-.043-.071-.108-.071-.195v-.461l1.079-.137.266-2.034a.26.26 0 0 1 .267-.221h.585v2.268h1.904v.839h-1.904v3.952c0 .277.067.483.201.617a.701.701 0 0 0 .52.202.933.933 0 0 0 .312-.046c.091-.034.169-.071.234-.11.065-.039.119-.074.163-.104.047-.035.088-.052.123-.052.061 0 .115.037.163.11l.338.553c-.2.186-.44.334-.722.442a2.497 2.497 0 0 1-.871.156zm7.007-4.115c0-.268-.039-.513-.117-.734a1.564 1.564 0 0 0-.332-.579 1.408 1.408 0 0 0-.526-.377 1.751 1.751 0 0 0-.709-.136c-.554 0-.994.162-1.319.487-.321.321-.52.767-.598 1.339h3.601zm.936 3.088a2.257 2.257 0 0 1-.514.455c-.199.126-.414.23-.643.312a3.85 3.85 0 0 1-.702.182 4.132 4.132 0 0 1-.722.065 3.41 3.41 0 0 1-1.261-.228 2.857 2.857 0 0 1-.994-.675 3.162 3.162 0 0 1-.65-1.106c-.156-.437-.234-.94-.234-1.508 0-.459.069-.888.208-1.287a3.03 3.03 0 0 1 .611-1.033 2.74 2.74 0 0 1 .968-.689 3.148 3.148 0 0 1 1.287-.254c.395 0 .759.068 1.092.202.338.13.629.321.871.572.247.247.44.555.579.923.138.364.208.78.208 1.248 0 .182-.02.303-.059.364-.039.061-.112.091-.221.091h-4.4c.013.416.069.778.169 1.085.104.308.247.566.429.774.182.204.398.357.65.461.251.1.533.15.845.15.29 0 .539-.033.747-.098.213-.069.395-.143.546-.221.152-.078.278-.149.377-.214a.513.513 0 0 1 .267-.104c.095 0 .169.037.221.11l.325.423zm2.096-9.016a3.007 3.007 0 0 1 .39 1.989c-.052.334-.16.655-.325.962a2.894 2.894 0 0 1-.657.819l-.351-.227c-.065-.039-.095-.089-.091-.15a.293.293 0 0 1 .065-.156c.113-.138.208-.305.286-.5.083-.199.135-.412.156-.637.026-.23.016-.466-.032-.709a2.068 2.068 0 0 0-.267-.702c-.056-.091-.073-.171-.052-.24a.276.276 0 0 1 .163-.163l.715-.286zm1.976 0a3.007 3.007 0 0 1 .39 1.989c-.052.334-.16.655-.325.962a2.894 2.894 0 0 1-.657.819l-.351-.227c-.065-.039-.095-.089-.091-.15a.293.293 0 0 1 .065-.156c.113-.138.208-.305.286-.5.083-.199.135-.412.156-.637.026-.23.016-.466-.032-.709a2.068 2.068 0 0 0-.267-.702c-.056-.091-.073-.171-.052-.24a.276.276 0 0 1 .163-.163l.715-.286zm4.527 6.24c-.286 0-.505.089-.657.267-.151.173-.227.396-.227.669 0 .217.017.432.052.644.035.212.071.427.11.643.039.213.076.427.111.644.035.212.052.431.052.656 0 .3-.046.575-.137.826a1.675 1.675 0 0 1-.403.65c-.177.182-.4.323-.669.423a2.51 2.51 0 0 1-.923.156h-.351v-.52c0-.087.03-.15.091-.189a.34.34 0 0 1 .169-.058h.13c.338 0 .602-.109.793-.325.191-.217.286-.514.286-.891 0-.243-.015-.477-.046-.702a13.7 13.7 0 0 0-.104-.657 19.484 19.484 0 0 1-.104-.643 4.594 4.594 0 0 1-.045-.644c0-.16.024-.309.071-.448.048-.143.115-.271.202-.383a1.39 1.39 0 0 1 .312-.287 1.41 1.41 0 0 1 .396-.175 1.413 1.413 0 0 1-.396-.176 1.316 1.316 0 0 1-.585-1.124c0-.217.015-.431.045-.644.031-.212.065-.424.104-.637.039-.216.074-.437.104-.663.031-.225.046-.459.046-.702 0-.372-.095-.667-.286-.884-.191-.221-.455-.331-.793-.331h-.13a.343.343 0 0 1-.169-.059c-.061-.039-.091-.101-.091-.188v-.514h.351c.351 0 .659.05.923.15.269.1.492.24.669.422.182.182.317.399.403.65.091.252.137.527.137.826 0 .225-.017.446-.052.663-.035.217-.072.431-.111.643-.039.213-.075.425-.11.637a3.959 3.959 0 0 0-.052.644c0 .277.076.503.227.676.152.173.371.26.657.26v.695z" fill="#B2ADCC"/><path d="M91 128.5L78.855 88.768H0" stroke="#797399"/><path d="M3.639 52.416V59H2.482v-6.584h1.156zm.247-2.067a.729.729 0 0 1-.072.318.883.883 0 0 1-.182.26.814.814 0 0 1-.267.175.79.79 0 0 1-.318.066.79.79 0 0 1-.572-.241.948.948 0 0 1-.175-.26.79.79 0 0 1-.065-.319.79.79 0 0 1 .065-.318.816.816 0 0 1 .175-.267.803.803 0 0 1 .253-.181.79.79 0 0 1 .319-.066.79.79 0 0 1 .318.066.767.767 0 0 1 .267.181.768.768 0 0 1 .182.267c.048.1.071.206.071.319zm3.675 8.755c-.52 0-.92-.145-1.202-.435-.278-.29-.416-.709-.416-1.255v-4.03H5.15a.268.268 0 0 1-.176-.059c-.048-.043-.071-.108-.071-.195v-.461l1.079-.136.266-2.035a.276.276 0 0 1 .085-.156.26.26 0 0 1 .182-.065H7.1v2.268h1.904v.839H7.1v3.952c0 .277.067.483.201.617a.704.704 0 0 0 .52.202.949.949 0 0 0 .546-.156c.065-.039.12-.074.163-.104.047-.035.088-.052.123-.052.06 0 .115.037.163.11l.338.553c-.2.186-.44.334-.722.442a2.495 2.495 0 0 1-.871.156zm7.007-4.114c0-.27-.04-.514-.117-.735a1.555 1.555 0 0 0-.332-.579 1.4 1.4 0 0 0-.526-.377 1.751 1.751 0 0 0-.709-.136c-.555 0-.994.163-1.32.488-.32.32-.52.766-.597 1.338h3.6zm.936 3.087a2.26 2.26 0 0 1-.514.455c-.2.126-.414.23-.643.312a3.85 3.85 0 0 1-.702.182 4.1 4.1 0 0 1-.722.065c-.455 0-.875-.076-1.26-.227a2.856 2.856 0 0 1-.995-.676 3.162 3.162 0 0 1-.65-1.105c-.156-.438-.234-.94-.234-1.508 0-.46.069-.889.208-1.288.143-.398.346-.743.61-1.033.265-.295.588-.524.97-.689.38-.169.81-.253 1.286-.253.394 0 .758.067 1.092.201.338.13.629.32.871.572.247.247.44.555.579.923.138.364.208.78.208 1.248 0 .182-.02.303-.059.364-.039.06-.112.091-.22.091h-4.401c.013.416.069.778.169 1.086.104.307.247.565.429.773.182.204.398.358.65.462.251.1.533.149.845.149.29 0 .54-.032.747-.097a3.734 3.734 0 0 0 .923-.436.51.51 0 0 1 .267-.104c.095 0 .169.037.22.11l.326.423zm1.525.923v-6.584h.695c.165 0 .267.08.306.24l.084.676c.243-.299.516-.544.82-.735a1.94 1.94 0 0 1 1.052-.285c.442 0 .8.123 1.073.37.277.247.476.58.598 1.001.095-.238.216-.444.364-.617a2.155 2.155 0 0 1 1.098-.677c.213-.052.427-.078.644-.078.346 0 .654.057.923.17.273.108.503.268.689.48.19.213.336.475.435.787.1.308.15.66.15 1.06V59h-1.164v-4.193c0-.515-.112-.905-.338-1.17-.225-.268-.55-.403-.975-.403-.19 0-.372.035-.546.105a1.276 1.276 0 0 0-.448.292c-.13.13-.234.295-.312.494-.074.195-.11.422-.11.682V59h-1.164v-4.193c0-.528-.106-.922-.319-1.183-.212-.26-.522-.39-.93-.39-.285 0-.55.078-.792.234a2.59 2.59 0 0 0-.67.624V59H17.03zm12.096 0h-1.26v-9.315h1.26V59zm10.456-4.654c0 .698-.11 1.333-.332 1.905a4.223 4.223 0 0 1-.936 1.468 4.199 4.199 0 0 1-1.456.95 5.086 5.086 0 0 1-1.872.331h-3.477v-9.315h3.477a5 5 0 0 1 1.872.338 4.08 4.08 0 0 1 1.456.95c.403.407.715.897.936 1.468.221.572.332 1.207.332 1.905zm-1.294 0c0-.572-.078-1.083-.234-1.534a3.233 3.233 0 0 0-.663-1.144 2.828 2.828 0 0 0-1.04-.715 3.612 3.612 0 0 0-1.365-.247H32.77v7.273h2.216c.503 0 .958-.082 1.365-.246a2.86 2.86 0 0 0 1.04-.709 3.23 3.23 0 0 0 .663-1.144c.156-.45.234-.962.234-1.534zm2.733 3.939a.86.86 0 0 1 .059-.318c.043-.1.1-.187.169-.26a.833.833 0 0 1 .579-.241.833.833 0 0 1 .754.5.79.79 0 0 1 .064.319.807.807 0 0 1-.065.325.857.857 0 0 1-.175.254.749.749 0 0 1-.26.169.79.79 0 0 1-.319.064.79.79 0 0 1-.318-.065.749.749 0 0 1-.429-.422.884.884 0 0 1-.059-.325zm0-4.875a.86.86 0 0 1 .059-.318c.043-.1.1-.187.169-.26a.833.833 0 0 1 .579-.241.833.833 0 0 1 .754.5.79.79 0 0 1 .064.319.807.807 0 0 1-.065.325.857.857 0 0 1-.435.429.866.866 0 0 1-.319.058.866.866 0 0 1-.318-.058.833.833 0 0 1-.26-.175.927.927 0 0 1-.169-.254.884.884 0 0 1-.059-.325zm4.576-.994V59H44.44v-6.584h1.157zm.248-2.067a.728.728 0 0 1-.072.318.883.883 0 0 1-.182.26.815.815 0 0 1-.267.175.79.79 0 0 1-.318.066.79.79 0 0 1-.572-.241.947.947 0 0 1-.175-.26.79.79 0 0 1-.066-.319.79.79 0 0 1 .066-.318.815.815 0 0 1 .175-.267.804.804 0 0 1 .254-.181.79.79 0 0 1 .318-.066.79.79 0 0 1 .319.066.767.767 0 0 1 .266.181.767.767 0 0 1 .182.267c.048.1.072.206.072.319zm3.675 8.755c-.52 0-.92-.145-1.202-.435-.278-.29-.416-.709-.416-1.255v-4.03h-.793a.268.268 0 0 1-.176-.059c-.048-.043-.071-.108-.071-.195v-.461l1.079-.136.266-2.035a.275.275 0 0 1 .085-.156.26.26 0 0 1 .182-.065h.585v2.268h1.904v.839h-1.904v3.952c0 .277.067.483.201.617a.704.704 0 0 0 .52.202.95.95 0 0 0 .546-.156c.065-.039.12-.074.163-.104.047-.035.088-.052.123-.052.06 0 .115.037.163.11l.338.553a2.2 2.2 0 0 1-.722.442 2.495 2.495 0 0 1-.87.156zm7.007-4.114c0-.27-.04-.514-.117-.735a1.555 1.555 0 0 0-.332-.579 1.4 1.4 0 0 0-.526-.377 1.751 1.751 0 0 0-.709-.136c-.554 0-.994.163-1.32.488-.32.32-.52.766-.597 1.338h3.6zm.936 3.087a2.26 2.26 0 0 1-.514.455c-.2.126-.414.23-.643.312a3.85 3.85 0 0 1-.702.182 4.1 4.1 0 0 1-.722.065c-.455 0-.875-.076-1.26-.227a2.856 2.856 0 0 1-.995-.676 3.162 3.162 0 0 1-.65-1.105c-.156-.438-.234-.94-.234-1.508 0-.46.069-.889.208-1.288a3.04 3.04 0 0 1 .61-1.033c.265-.295.588-.524.97-.689.38-.169.81-.253 1.286-.253.395 0 .758.067 1.092.201.338.13.628.32.871.572.247.247.44.555.579.923.138.364.208.78.208 1.248 0 .182-.02.303-.059.364-.039.06-.112.091-.22.091h-4.401c.013.416.069.778.169 1.086.104.307.247.565.429.773.182.204.398.358.65.462.251.1.533.149.845.149.29 0 .54-.032.747-.097a3.734 3.734 0 0 0 .923-.436.51.51 0 0 1 .267-.104c.095 0 .169.037.22.11l.326.423zm1.525.923v-6.584h.695c.165 0 .267.08.306.24l.084.676c.243-.299.516-.544.82-.735a1.94 1.94 0 0 1 1.052-.285c.442 0 .8.123 1.073.37.277.247.476.58.598 1.001.095-.238.216-.444.364-.617a2.155 2.155 0 0 1 1.098-.677c.213-.052.427-.078.644-.078.346 0 .654.057.923.17.273.108.502.268.689.48.19.213.336.475.435.787.1.308.15.66.15 1.06V59h-1.164v-4.193c0-.515-.112-.905-.338-1.17-.225-.268-.55-.403-.975-.403-.19 0-.372.035-.546.105a1.276 1.276 0 0 0-.448.292c-.13.13-.234.295-.312.494-.074.195-.11.422-.11.682V59H62.86v-4.193c0-.528-.106-.922-.319-1.183-.212-.26-.522-.39-.93-.39-.285 0-.55.078-.792.234a2.59 2.59 0 0 0-.67.624V59h-1.163zm15.317 1.072v.78h-5.122v-.78h5.122zM3.58 76.415c.212.286.444.487.696.605.25.116.533.175.845.175.615 0 1.087-.219 1.416-.657.33-.437.495-1.061.495-1.872 0-.428-.04-.797-.117-1.105a2.086 2.086 0 0 0-.325-.754 1.27 1.27 0 0 0-.527-.435 1.751 1.751 0 0 0-.708-.136c-.378 0-.709.086-.995.26a2.878 2.878 0 0 0-.78.734v3.185zm-.058-3.978c.277-.342.598-.618.962-.826A2.47 2.47 0 0 1 5.73 71.3c.382 0 .726.073 1.034.22.308.143.57.358.787.644.216.282.383.633.5 1.053.117.42.175.904.175 1.45 0 .485-.065.938-.194 1.358-.13.416-.319.778-.566 1.085a2.653 2.653 0 0 1-.897.722c-.351.173-.748.26-1.19.26-.402 0-.75-.067-1.04-.201a2.493 2.493 0 0 1-.76-.573v2.913H2.417v-8.815h.695c.165 0 .266.08.305.241l.105.78zm7.404-1.02V78H9.769v-6.585h1.157zm.247-2.067a.728.728 0 0 1-.072.318.883.883 0 0 1-.182.26.815.815 0 0 1-.266.175.79.79 0 0 1-.319.066.79.79 0 0 1-.572-.241.948.948 0 0 1-.175-.26.79.79 0 0 1-.065-.319.79.79 0 0 1 .065-.318.816.816 0 0 1 .175-.267.803.803 0 0 1 .254-.181.79.79 0 0 1 .318-.066.79.79 0 0 1 .319.066.767.767 0 0 1 .266.181.767.767 0 0 1 .182.267c.048.1.072.206.072.319zm5.489 3.152a.257.257 0 0 1-.24.143.452.452 0 0 1-.222-.072 3.884 3.884 0 0 0-.305-.156 2.333 2.333 0 0 0-.423-.162 1.952 1.952 0 0 0-.585-.078c-.195 0-.37.026-.526.078a1.28 1.28 0 0 0-.403.201.946.946 0 0 0-.254.306.816.816 0 0 0-.084.37c0 .17.047.31.143.423.1.113.23.21.39.293.16.082.342.156.546.22.203.061.411.128.624.202.216.07.426.147.63.234.204.087.386.195.546.325.16.13.288.29.384.481.1.186.15.412.15.676 0 .303-.055.585-.163.845a1.875 1.875 0 0 1-.481.67 2.352 2.352 0 0 1-.78.442 3.206 3.206 0 0 1-1.066.162 3.37 3.37 0 0 1-1.248-.221 3.214 3.214 0 0 1-.95-.578l.274-.443a.396.396 0 0 1 .123-.13.333.333 0 0 1 .182-.045c.078 0 .16.03.247.091.087.06.19.128.312.201a2.5 2.5 0 0 0 .455.202c.178.06.399.091.663.091.225 0 .423-.028.592-.085.169-.06.31-.14.422-.24a.907.907 0 0 0 .247-.344c.056-.13.085-.27.085-.416a.668.668 0 0 0-.15-.449 1.141 1.141 0 0 0-.383-.305 2.825 2.825 0 0 0-.553-.222c-.204-.064-.414-.132-.63-.201a8.452 8.452 0 0 1-.63-.234 2.315 2.315 0 0 1-.547-.338 1.563 1.563 0 0 1-.39-.494 1.66 1.66 0 0 1-.143-.722c0-.25.052-.491.156-.721.104-.234.256-.438.455-.611.2-.178.444-.319.735-.422a2.94 2.94 0 0 1 .994-.157c.433 0 .821.07 1.164.208.346.135.645.321.897.56l-.26.422zm3.81 5.603c-.52 0-.92-.145-1.202-.436-.278-.29-.416-.708-.416-1.254v-4.03h-.793a.268.268 0 0 1-.176-.058c-.048-.044-.071-.109-.071-.195v-.462l1.079-.136.266-2.035a.275.275 0 0 1 .085-.156.26.26 0 0 1 .182-.065h.585v2.269h1.904v.838h-1.904v3.952c0 .277.067.483.201.618a.704.704 0 0 0 .52.201.95.95 0 0 0 .546-.156c.065-.039.12-.074.163-.104.047-.035.088-.052.123-.052.06 0 .115.037.163.11l.338.553a2.2 2.2 0 0 1-.722.442 2.495 2.495 0 0 1-.87.156zm5.375-6.793c.481 0 .915.08 1.3.241.386.16.715.388.988.682.273.295.481.653.624 1.073.148.416.221.882.221 1.397 0 .52-.073.989-.22 1.405a2.963 2.963 0 0 1-.625 1.066 2.786 2.786 0 0 1-.988.682 3.44 3.44 0 0 1-1.3.234 3.51 3.51 0 0 1-1.313-.234 2.785 2.785 0 0 1-.988-.683 3.039 3.039 0 0 1-.63-1.066 4.303 4.303 0 0 1-.215-1.404c0-.515.072-.981.215-1.397a3.03 3.03 0 0 1 .63-1.073c.273-.294.603-.522.988-.682.39-.16.828-.24 1.313-.24zm0 5.876c.65 0 1.136-.216 1.456-.65.32-.437.481-1.046.481-1.826 0-.784-.16-1.395-.48-1.833-.321-.438-.807-.656-1.457-.656-.33 0-.617.056-.864.169a1.633 1.633 0 0 0-.611.487c-.16.212-.282.475-.364.787a4.27 4.27 0 0 0-.117 1.046c0 .78.16 1.389.48 1.826.326.434.818.65 1.476.65zm5.797-8.761V78h-1.157v-9.575h1.157zm6.504 10.647v.78h-5.122v-.78h5.122zm6.558-4.531l-1.462-3.79a7.792 7.792 0 0 1-.273-.87 7.088 7.088 0 0 1-.28.877l-1.462 3.783h3.477zM47.332 78h-.975a.42.42 0 0 1-.273-.085.52.52 0 0 1-.156-.214l-.87-2.249h-4.18l-.871 2.249a.456.456 0 0 1-.15.208.415.415 0 0 1-.273.091h-.975l3.725-9.314h1.274L47.332 78zm4.604-1.001a2.6 2.6 0 0 0 1.034-.195 2.14 2.14 0 0 0 .767-.546 2.32 2.32 0 0 0 .48-.838c.114-.326.17-.683.17-1.073v-5.661h1.254v5.661a4.2 4.2 0 0 1-.26 1.495 3.43 3.43 0 0 1-.734 1.196 3.346 3.346 0 0 1-1.164.787 4 4 0 0 1-1.547.285 4 4 0 0 1-1.547-.285 3.423 3.423 0 0 1-1.17-.787 3.526 3.526 0 0 1-.74-1.196 4.297 4.297 0 0 1-.254-1.495v-5.661h1.254v5.654c0 .39.054.748.163 1.073.112.325.273.605.48.838.213.234.471.419.774.553.308.13.655.195 1.04.195zm13.531-3.477v3.575a5.276 5.276 0 0 1-1.501.76 5.834 5.834 0 0 1-1.742.247c-.75 0-1.426-.115-2.028-.344a4.568 4.568 0 0 1-1.547-.976 4.307 4.307 0 0 1-.982-1.508 5.238 5.238 0 0 1-.344-1.93c0-.71.11-1.359.331-1.944a4.303 4.303 0 0 1 .956-1.501 4.21 4.21 0 0 1 1.501-.975c.59-.23 1.248-.344 1.976-.344.369 0 .711.028 1.027.084a4.407 4.407 0 0 1 1.625.605c.23.142.445.305.644.487l-.358.572a.385.385 0 0 1-.22.169c-.087.022-.185 0-.293-.065a9.477 9.477 0 0 1-.358-.221 2.904 2.904 0 0 0-.494-.247 3.656 3.656 0 0 0-.682-.208 4.447 4.447 0 0 0-.93-.084c-.524 0-.998.086-1.423.26a2.957 2.957 0 0 0-1.086.734 3.212 3.212 0 0 0-.689 1.157c-.16.45-.24.958-.24 1.521 0 .585.082 1.11.247 1.573.169.46.407.852.715 1.177.312.32.689.565 1.13.734.443.169.94.254 1.49.254a4.2 4.2 0 0 0 1.15-.144c.338-.1.667-.236.988-.409v-2.047h-1.45a.286.286 0 0 1-.201-.072.239.239 0 0 1-.072-.175v-.715h2.86zm1.586-2.315c.06-.424.178-.799.351-1.124a2.7 2.7 0 0 1 .657-.826 2.83 2.83 0 0 1 .916-.5c.347-.117.72-.175 1.118-.175.394 0 .758.056 1.092.169.334.112.62.272.858.48.243.209.431.46.566.755.134.294.201.621.201.981a2.5 2.5 0 0 1-.117.793c-.074.23-.182.431-.325.605a1.95 1.95 0 0 1-.507.442c-.2.12-.422.22-.67.299.607.156 1.062.424 1.365.806.308.376.462.849.462 1.416a2.635 2.635 0 0 1-.91 2.035 3.054 3.054 0 0 1-.988.552 3.739 3.739 0 0 1-1.203.189c-.493 0-.916-.06-1.267-.182a2.671 2.671 0 0 1-.89-.513 2.732 2.732 0 0 1-.599-.768 5.877 5.877 0 0 1-.396-.968l.5-.208a.61.61 0 0 1 .377-.046.373.373 0 0 1 .273.215c.057.121.126.266.209.436.086.169.203.331.35.487.148.156.334.288.56.397.23.108.52.162.87.162.325 0 .61-.052.852-.156.247-.108.45-.247.611-.416a1.704 1.704 0 0 0 .494-1.183c0-.251-.032-.481-.097-.689a1.153 1.153 0 0 0-.365-.54c-.177-.151-.422-.27-.734-.357-.308-.087-.704-.13-1.19-.13v-.838a3.747 3.747 0 0 0 1.014-.13c.282-.083.51-.196.683-.339.178-.142.305-.314.383-.513.083-.2.124-.42.124-.663 0-.269-.043-.503-.13-.702a1.317 1.317 0 0 0-.344-.494 1.451 1.451 0 0 0-.527-.292 2.086 2.086 0 0 0-.65-.098c-.234 0-.453.035-.656.104-.2.07-.377.167-.533.292a1.68 1.68 0 0 0-.384.436 1.753 1.753 0 0 0-.221.559c-.056.152-.128.254-.215.305-.082.048-.203.061-.364.04l-.604-.105z" fill="#B2ADCC"/><path d="M303.867 142.592L346 38.936h125.5" stroke="#797399"/><path d="M347.594 3.796c-.338 0-.602.11-.793.332-.191.216-.286.51-.286.883 0 .243.015.477.046.702.03.226.065.447.104.663.039.213.073.425.104.637.03.213.045.427.045.644 0 .16-.024.312-.071.455a1.24 1.24 0 0 1-.208.377 1.327 1.327 0 0 1-.702.468 1.327 1.327 0 0 1 .91.845c.047.139.071.288.071.449 0 .216-.015.43-.045.643-.031.212-.065.427-.104.643a13.7 13.7 0 0 0-.104.657c-.031.225-.046.46-.046.702 0 .377.095.674.286.89.191.217.455.325.793.325h.13a.32.32 0 0 1 .169.059c.061.039.091.102.091.188v.52h-.351a2.58 2.58 0 0 1-.929-.155 1.862 1.862 0 0 1-.67-.423 1.786 1.786 0 0 1-.403-.65 2.509 2.509 0 0 1-.13-.825c0-.226.017-.445.052-.657.035-.217.072-.431.111-.643.039-.217.075-.432.11-.644.035-.212.052-.427.052-.643 0-.274-.076-.497-.227-.67-.152-.178-.371-.266-.657-.266v-.696c.286 0 .505-.087.657-.26.151-.173.227-.399.227-.676a3.95 3.95 0 0 0-.052-.643 35.339 35.339 0 0 0-.11-.638 30.375 30.375 0 0 1-.111-.643 4.151 4.151 0 0 1-.052-.663c0-.299.043-.574.13-.825.091-.252.225-.469.403-.65.182-.183.405-.323.67-.423.268-.1.578-.15.929-.15h.351v.514c0 .087-.03.15-.091.188a.318.318 0 0 1-.169.059h-.13zm1.921 3.029a3.005 3.005 0 0 1-.39-1.982 2.93 2.93 0 0 1 .325-.956c.165-.308.384-.583.657-.825l.351.22c.065.044.093.098.084.163a.218.218 0 0 1-.058.143 2.005 2.005 0 0 0-.293.507c-.078.2-.128.414-.149.644-.022.225-.011.459.032.702.043.242.132.476.267.702.056.09.071.173.045.247-.022.069-.074.12-.156.155l-.715.28zm1.976 0a3.005 3.005 0 0 1-.39-1.982 2.93 2.93 0 0 1 .325-.956c.165-.308.384-.583.657-.825l.351.22c.065.044.093.098.084.163a.218.218 0 0 1-.058.143 2.005 2.005 0 0 0-.293.507c-.078.2-.128.414-.149.644-.022.225-.011.459.032.702.043.242.132.476.267.702.056.09.071.173.045.247-.022.069-.074.12-.156.155l-.715.28zm6.623 2.164c0-.268-.039-.513-.117-.734a1.567 1.567 0 0 0-.332-.579 1.397 1.397 0 0 0-.526-.377 1.755 1.755 0 0 0-.709-.136c-.555 0-.994.162-1.319.487-.321.321-.52.768-.598 1.34h3.601zm.936 3.088a2.271 2.271 0 0 1-.514.455c-.199.126-.414.23-.643.312a3.85 3.85 0 0 1-.702.182 4.112 4.112 0 0 1-.722.065 3.43 3.43 0 0 1-1.261-.227 2.85 2.85 0 0 1-.994-.677 3.151 3.151 0 0 1-.65-1.104c-.156-.438-.234-.94-.234-1.508 0-.46.069-.889.208-1.287.143-.4.346-.744.611-1.034a2.74 2.74 0 0 1 .968-.689c.381-.169.81-.254 1.287-.254a2.9 2.9 0 0 1 1.092.202c.338.13.628.32.871.572.247.247.44.555.579.923.138.364.208.78.208 1.248 0 .182-.02.303-.059.364-.039.06-.113.091-.221.091h-4.4c.013.416.069.778.169 1.085.104.308.247.566.429.774.182.204.398.357.65.461.251.1.533.15.845.15.29 0 .539-.032.747-.097a3.771 3.771 0 0 0 .923-.436.51.51 0 0 1 .267-.104c.095 0 .169.037.221.11l.325.423zm7.027-5.662L363.393 13h-1.04l-2.685-6.585h.943c.095 0 .173.024.234.072.06.048.101.104.123.169l1.671 4.238c.052.16.097.316.136.468.039.152.076.303.111.455.034-.152.071-.303.11-.455.039-.152.087-.308.143-.468l1.69-4.238a.356.356 0 0 1 .13-.169.338.338 0 0 1 .215-.072h.903zm5.29 2.574c0-.268-.039-.513-.117-.734a1.552 1.552 0 0 0-.331-.579 1.401 1.401 0 0 0-.527-.377 1.75 1.75 0 0 0-.708-.136c-.555 0-.995.162-1.32.487-.32.321-.52.768-.598 1.34h3.601zm.936 3.088a2.266 2.266 0 0 1-.513.455c-.199.126-.414.23-.644.312a3.784 3.784 0 0 1-.702.182 4.093 4.093 0 0 1-.721.065 3.43 3.43 0 0 1-1.261-.227 2.863 2.863 0 0 1-.995-.677 3.167 3.167 0 0 1-.65-1.104c-.156-.438-.234-.94-.234-1.508 0-.46.07-.889.208-1.287.143-.4.347-.744.611-1.034.265-.295.588-.524.969-.689.381-.169.81-.254 1.287-.254a2.9 2.9 0 0 1 1.092.202c.338.13.628.32.871.572.247.247.44.555.578.923.139.364.208.78.208 1.248 0 .182-.019.303-.058.364-.039.06-.113.091-.221.091h-4.401c.013.416.07.778.169 1.085.104.308.247.566.429.774.182.204.399.357.65.461.252.1.533.15.845.15.291 0 .54-.032.748-.097a3.771 3.771 0 0 0 .923-.436.51.51 0 0 1 .266-.104c.096 0 .169.037.221.11l.325.423zm2.618-4.706c.143-.16.294-.306.455-.436.16-.13.329-.24.507-.331a2.64 2.64 0 0 1 1.228-.293c.36 0 .676.061.949.183.277.117.507.285.689.506.186.217.327.48.423.787.095.308.143.648.143 1.02V13h-1.164V8.807c0-.498-.115-.884-.344-1.157-.226-.277-.57-.416-1.034-.416-.342 0-.663.083-.962.247a3.17 3.17 0 0 0-.819.67V13h-1.163V6.415h.695c.165 0 .267.08.306.241l.091.715zm8.089 5.733c-.52 0-.921-.145-1.202-.435-.278-.29-.416-.709-.416-1.255v-4.03h-.793a.269.269 0 0 1-.176-.059c-.047-.043-.071-.108-.071-.195v-.46l1.079-.136.266-2.035a.259.259 0 0 1 .267-.221h.585v2.268h1.904v.839h-1.904v3.952c0 .277.067.483.201.617a.705.705 0 0 0 .52.202.943.943 0 0 0 .546-.156c.065-.039.119-.074.163-.104a.222.222 0 0 1 .123-.052c.061 0 .115.037.163.11l.338.553c-.2.186-.44.334-.722.442a2.493 2.493 0 0 1-.871.156zm3.437-10.042a3.004 3.004 0 0 1 .39 1.989 3 3 0 0 1-.325.962 2.9 2.9 0 0 1-.656.819l-.351-.228c-.065-.039-.095-.089-.091-.15a.285.285 0 0 1 .065-.155 2.236 2.236 0 0 0 .442-1.138 2.3 2.3 0 0 0-.033-.709 2.075 2.075 0 0 0-.266-.701c-.056-.091-.074-.172-.052-.241a.273.273 0 0 1 .162-.162l.715-.286zm1.976 0a3.004 3.004 0 0 1 .39 1.989 3 3 0 0 1-.325.962 2.9 2.9 0 0 1-.656.819l-.351-.228c-.065-.039-.095-.089-.091-.15a.285.285 0 0 1 .065-.155 2.236 2.236 0 0 0 .442-1.138 2.3 2.3 0 0 0-.033-.709 2.075 2.075 0 0 0-.266-.701c-.056-.091-.074-.172-.052-.241a.273.273 0 0 1 .162-.162l.715-.286zm1.869 9.223c0-.113.019-.219.058-.319.044-.1.1-.186.169-.26a.844.844 0 0 1 .26-.175.793.793 0 0 1 .319-.065.821.821 0 0 1 .754 1.144.847.847 0 0 1-.176.253.74.74 0 0 1-.26.17.785.785 0 0 1-.318.065.793.793 0 0 1-.319-.066.758.758 0 0 1-.26-.168.95.95 0 0 1-.169-.254.884.884 0 0 1-.058-.325zm0-4.875c0-.113.019-.219.058-.319.044-.1.1-.186.169-.26a.845.845 0 0 1 .26-.175.793.793 0 0 1 .319-.065.822.822 0 0 1 .754 1.144.847.847 0 0 1-.436.429.86.86 0 0 1-.318.059.869.869 0 0 1-.319-.059.845.845 0 0 1-.26-.175.949.949 0 0 1-.169-.254.884.884 0 0 1-.058-.325zm4.153-4.348a3.004 3.004 0 0 1 .39 1.989 3 3 0 0 1-.325.962 2.9 2.9 0 0 1-.656.819l-.351-.228c-.065-.039-.095-.089-.091-.15a.285.285 0 0 1 .065-.155 2.236 2.236 0 0 0 .442-1.138 2.3 2.3 0 0 0-.033-.709 2.075 2.075 0 0 0-.266-.701c-.056-.091-.074-.172-.052-.241a.273.273 0 0 1 .162-.162l.715-.286zm1.976 0a3.004 3.004 0 0 1 .39 1.989 3 3 0 0 1-.325.962 2.9 2.9 0 0 1-.656.819l-.351-.228c-.065-.039-.095-.089-.091-.15a.285.285 0 0 1 .065-.155 2.236 2.236 0 0 0 .442-1.138 2.3 2.3 0 0 0-.033-.709 2.075 2.075 0 0 0-.266-.701c-.056-.091-.074-.172-.052-.241a.273.273 0 0 1 .162-.162l.715-.286zm3.137 8.352c.212.286.444.488.695.604.256.117.535.176.839.176.619 0 1.094-.219 1.423-.657.329-.437.494-1.09.494-1.956 0-.806-.147-1.397-.442-1.774-.29-.382-.706-.573-1.248-.573a1.85 1.85 0 0 0-.988.26 2.921 2.921 0 0 0-.773.735v3.185zm0-4.05a3.39 3.39 0 0 1 .936-.766 2.49 2.49 0 0 1 1.209-.287c.385 0 .732.074 1.04.221.312.148.576.362.793.644.216.277.381.615.494 1.014.117.399.175.847.175 1.346 0 .533-.065 1.018-.195 1.456a3.31 3.31 0 0 1-.565 1.124 2.58 2.58 0 0 1-.891.722 2.691 2.691 0 0 1-1.183.253c-.433 0-.799-.08-1.098-.24a2.443 2.443 0 0 1-.774-.696l-.058.598c-.035.165-.135.247-.299.247h-.748V3.425h1.164v3.94zm9.679 2.672c-.533.017-.988.06-1.365.13a3.854 3.854 0 0 0-.917.26c-.234.108-.405.236-.513.383a.837.837 0 0 0-.156.495c0 .173.028.322.084.448.057.126.133.23.228.312.1.078.214.136.344.175.135.035.278.052.429.052.204 0 .39-.019.559-.058a2.45 2.45 0 0 0 .904-.462c.139-.108.273-.231.403-.37v-1.365zm-3.738-2.691a3.766 3.766 0 0 1 1.177-.786 3.63 3.63 0 0 1 1.397-.26c.369 0 .696.06.982.181.286.122.526.29.721.507.195.217.343.48.442.787.1.308.15.646.15 1.014V13h-.514a.533.533 0 0 1-.26-.052c-.06-.039-.108-.113-.143-.221l-.13-.624a7.07 7.07 0 0 1-.507.429 3.156 3.156 0 0 1-.52.312 2.8 2.8 0 0 1-.585.189 2.992 2.992 0 0 1-.682.071c-.256 0-.496-.035-.722-.104a1.745 1.745 0 0 1-.591-.325 1.575 1.575 0 0 1-.397-.54 1.964 1.964 0 0 1-.143-.78c0-.26.072-.509.215-.747.143-.243.375-.457.695-.644.321-.186.739-.338 1.255-.455.516-.12 1.148-.19 1.898-.207v-.514c0-.511-.111-.897-.332-1.157-.221-.264-.543-.397-.968-.397-.286 0-.527.037-.722.111-.19.07-.357.15-.5.24-.139.087-.26.167-.364.241a.521.521 0 0 1-.299.104.348.348 0 0 1-.202-.058.62.62 0 0 1-.143-.157l-.208-.37zm7.73.39c.208-.45.464-.802.767-1.053.303-.256.674-.384 1.111-.384.139 0 .271.016.397.046.13.03.245.078.344.143l-.084.864c-.026.109-.091.163-.195.163-.061 0-.15-.013-.267-.039a1.832 1.832 0 0 0-.396-.039c-.208 0-.394.03-.559.091-.16.06-.306.152-.436.273a1.94 1.94 0 0 0-.344.442c-.1.173-.191.373-.273.598V13h-1.164V6.415h.663c.126 0 .213.024.26.072.048.048.081.13.098.247l.078 1.001zm6.146-1.424c.481 0 .914.08 1.3.241.385.16.715.388.988.683.273.294.481.652.624 1.072.147.416.221.882.221 1.397 0 .52-.074.989-.221 1.404a2.963 2.963 0 0 1-.624 1.066 2.791 2.791 0 0 1-.988.683 3.441 3.441 0 0 1-1.3.234c-.486 0-.923-.078-1.313-.234a2.782 2.782 0 0 1-.988-.682 3.035 3.035 0 0 1-.631-1.067 4.303 4.303 0 0 1-.214-1.404c0-.515.071-.981.214-1.397.147-.42.358-.778.631-1.073.273-.294.602-.522.988-.682.39-.16.827-.24 1.313-.24zm0 5.877c.65 0 1.135-.217 1.456-.65.32-.438.481-1.047.481-1.827 0-.784-.161-1.395-.481-1.833-.321-.438-.806-.657-1.456-.657-.33 0-.618.057-.865.17a1.633 1.633 0 0 0-.611.487 2.23 2.23 0 0 0-.364.787 4.27 4.27 0 0 0-.117 1.046c0 .78.16 1.389.481 1.826.325.434.817.65 1.476.65zm5.692-4.817c.143-.16.295-.306.455-.436.16-.13.329-.24.507-.331a2.653 2.653 0 0 1 1.229-.293c.359 0 .676.061.949.183.277.117.507.285.689.506.186.217.327.48.422.787.095.308.143.648.143 1.02V13h-1.163V8.807c0-.498-.115-.884-.345-1.157-.225-.277-.57-.416-1.033-.416-.343 0-.663.083-.962.247a3.17 3.17 0 0 0-.819.67V13h-1.164V6.415h.696c.164 0 .266.08.305.241l.091.715zm11.068-2.23a.507.507 0 0 1-.13.15.28.28 0 0 1-.163.045c-.074 0-.16-.036-.26-.11a3.894 3.894 0 0 0-.377-.24 2.732 2.732 0 0 0-.539-.247 2.295 2.295 0 0 0-.761-.111c-.282 0-.531.039-.747.117a1.587 1.587 0 0 0-.54.306c-.143.13-.251.283-.325.461-.074.173-.11.362-.11.566 0 .26.062.476.188.65.13.168.299.314.507.435.212.121.451.228.715.318.269.087.542.178.819.274.282.095.555.203.819.324.269.117.507.267.715.449.212.182.381.405.507.67.13.264.195.589.195.974 0 .408-.069.791-.208 1.151a2.63 2.63 0 0 1-.611.93 2.799 2.799 0 0 1-.981.623 3.588 3.588 0 0 1-1.32.228 4.066 4.066 0 0 1-1.651-.325 3.912 3.912 0 0 1-1.267-.89l.364-.598a.436.436 0 0 1 .123-.117.298.298 0 0 1 .169-.053c.056 0 .119.024.189.072.073.043.156.1.247.169.091.07.195.145.312.227a2.57 2.57 0 0 0 .91.403c.19.044.405.065.643.065.299 0 .566-.04.8-.123.234-.082.431-.197.591-.345a1.52 1.52 0 0 0 .377-.539c.087-.208.13-.44.13-.696 0-.281-.065-.51-.195-.688a1.54 1.54 0 0 0-.5-.456 3.397 3.397 0 0 0-.715-.305c-.269-.087-.542-.173-.819-.26a9.196 9.196 0 0 1-.819-.312 2.64 2.64 0 0 1-.715-.455 2.138 2.138 0 0 1-.507-.696c-.126-.281-.189-.628-.189-1.04 0-.329.063-.647.189-.955a2.5 2.5 0 0 1 .559-.819c.247-.238.548-.429.903-.572.36-.143.771-.214 1.235-.214.52 0 .992.082 1.417.247.429.164.806.402 1.131.714l-.305.598zm3.045 6.273c.212.286.444.488.695.604.251.117.533.176.845.176.615 0 1.088-.219 1.417-.657.329-.437.494-1.061.494-1.872a4.54 4.54 0 0 0-.117-1.104 2.092 2.092 0 0 0-.325-.755 1.268 1.268 0 0 0-.526-.435 1.755 1.755 0 0 0-.709-.137c-.377 0-.708.087-.994.26a2.869 2.869 0 0 0-.78.735v3.185zm-.059-3.978a3.41 3.41 0 0 1 .962-.825 2.47 2.47 0 0 1 1.248-.313c.381 0 .726.074 1.034.221.307.143.569.358.786.644.217.282.384.633.501 1.053.117.42.175.904.175 1.45 0 .485-.065.938-.195 1.358-.13.416-.318.778-.565 1.086a2.66 2.66 0 0 1-.897.721c-.351.173-.748.26-1.19.26-.403 0-.75-.067-1.04-.201a2.491 2.491 0 0 1-.76-.572v2.912h-1.164V6.415h.696c.164 0 .266.08.305.241l.104.78zm9.751 2.6c-.533.017-.988.06-1.365.13a3.854 3.854 0 0 0-.917.26c-.234.108-.405.236-.513.383a.837.837 0 0 0-.156.495c0 .173.028.322.084.448.057.126.132.23.228.312.099.078.214.136.344.175.135.035.278.052.429.052.204 0 .39-.019.559-.058.169-.043.327-.104.475-.182.151-.078.294-.171.429-.28.138-.108.273-.231.403-.37v-1.365zm-3.738-2.691a3.754 3.754 0 0 1 1.177-.786 3.63 3.63 0 0 1 1.397-.26c.369 0 .696.06.982.181.286.122.526.29.721.507.195.217.343.48.442.787.1.308.15.646.15 1.014V13h-.514a.533.533 0 0 1-.26-.052c-.06-.039-.108-.113-.143-.221l-.13-.624a7.07 7.07 0 0 1-.507.429 3.156 3.156 0 0 1-.52.312 2.8 2.8 0 0 1-.585.189 2.992 2.992 0 0 1-.682.071c-.256 0-.496-.035-.722-.104a1.745 1.745 0 0 1-.591-.325 1.575 1.575 0 0 1-.397-.54 1.964 1.964 0 0 1-.143-.78c0-.26.072-.509.215-.747.143-.243.375-.457.695-.644.321-.186.739-.338 1.255-.455.515-.12 1.148-.19 1.898-.207v-.514c0-.511-.111-.897-.332-1.157-.221-.264-.544-.397-.968-.397-.286 0-.527.037-.722.111-.19.07-.357.15-.5.24-.139.087-.26.167-.364.241-.1.07-.2.104-.299.104a.348.348 0 0 1-.202-.058.62.62 0 0 1-.143-.157l-.208-.37zm15.674-.93L458.676 13h-.917c-.113 0-.191-.074-.234-.221l-1.456-4.466a2.388 2.388 0 0 1-.084-.299l-.065-.305c-.022.1-.044.202-.065.306-.022.1-.05.201-.085.305l-1.482 4.459c-.039.147-.126.221-.26.221h-.871l-2.132-6.585h.91c.091 0 .167.024.228.072a.347.347 0 0 1 .13.169l1.261 4.238c.073.312.132.607.175.884l.117-.436c.043-.147.089-.296.137-.448l1.391-4.264a.346.346 0 0 1 .11-.162.322.322 0 0 1 .202-.066h.507a.34.34 0 0 1 .214.066.34.34 0 0 1 .117.162l1.359 4.264a11.532 11.532 0 0 1 .24.884c.022-.143.048-.286.078-.429l.111-.455 1.287-4.238a.315.315 0 0 1 .123-.169.338.338 0 0 1 .215-.072h.871zm2.218.956c.143-.16.295-.306.455-.436.16-.13.329-.24.507-.331a2.653 2.653 0 0 1 1.229-.293c.359 0 .676.061.949.183.277.117.507.285.689.506.186.217.327.48.422.787.095.308.143.648.143 1.02V13h-1.163V8.807c0-.498-.115-.884-.345-1.157-.225-.277-.57-.416-1.033-.416-.343 0-.663.083-.962.247a3.17 3.17 0 0 0-.819.67V13h-1.164V6.415h.696c.164 0 .266.08.305.241l.091.715zm6.753-4.31a3.004 3.004 0 0 1 .39 1.99 3 3 0 0 1-.325.962 2.9 2.9 0 0 1-.656.819l-.351-.228c-.065-.039-.095-.089-.091-.15a.285.285 0 0 1 .065-.155 2.236 2.236 0 0 0 .442-1.138 2.3 2.3 0 0 0-.033-.709 2.075 2.075 0 0 0-.266-.701c-.056-.091-.074-.172-.052-.241a.273.273 0 0 1 .162-.162l.715-.286zm1.976 0a3.004 3.004 0 0 1 .39 1.99 3 3 0 0 1-.325.962 2.9 2.9 0 0 1-.656.819l-.351-.228c-.065-.039-.095-.089-.091-.15a.285.285 0 0 1 .065-.155 2.236 2.236 0 0 0 .442-1.138 2.3 2.3 0 0 0-.033-.709 2.075 2.075 0 0 0-.266-.701c-.056-.091-.074-.172-.052-.241a.273.273 0 0 1 .162-.162l.715-.286zm-126.41 30.512a.287.287 0 0 1-.071-.084.217.217 0 0 1-.02-.098c0-.03.009-.06.026-.091a.705.705 0 0 1 .072-.084c.043-.048.097-.111.162-.189.069-.078.139-.171.208-.28.069-.103.132-.22.189-.35.06-.126.104-.26.13-.403a.15.15 0 0 1-.046.006h-.039a.736.736 0 0 1-.552-.221.823.823 0 0 1-.208-.578c0-.204.069-.378.208-.52a.763.763 0 0 1 .565-.215c.13 0 .245.024.345.072a.665.665 0 0 1 .247.201c.069.082.121.18.156.293.034.108.052.227.052.357 0 .195-.029.399-.085.611a2.73 2.73 0 0 1-.24.617 3.608 3.608 0 0 1-.904 1.145l-.195-.189zm7.142-11.512a3.004 3.004 0 0 1 .39 1.99 3 3 0 0 1-.325.962c-.164.307-.383.58-.656.818l-.351-.227c-.065-.039-.095-.089-.091-.15a.285.285 0 0 1 .065-.155 2.236 2.236 0 0 0 .442-1.137 2.3 2.3 0 0 0-.033-.71 2.075 2.075 0 0 0-.266-.702c-.056-.09-.074-.17-.052-.24a.273.273 0 0 1 .162-.163l.715-.286zm1.976 0a3.004 3.004 0 0 1 .39 1.99 3 3 0 0 1-.325.962c-.164.307-.383.58-.656.818l-.351-.227c-.065-.039-.095-.089-.091-.15a.285.285 0 0 1 .065-.155 2.236 2.236 0 0 0 .442-1.137 2.3 2.3 0 0 0-.033-.71 2.075 2.075 0 0 0-.266-.702c-.056-.09-.074-.17-.052-.24a.273.273 0 0 1 .162-.163l.715-.286zm6.137 4.524a.542.542 0 0 1-.104.111.236.236 0 0 1-.143.039.397.397 0 0 1-.215-.078 2.962 2.962 0 0 0-.292-.182 2.083 2.083 0 0 0-.423-.176 1.907 1.907 0 0 0-.611-.084c-.325 0-.611.058-.858.175a1.649 1.649 0 0 0-.624.494 2.34 2.34 0 0 0-.377.787 4.015 4.015 0 0 0-.123 1.034c0 .398.045.754.136 1.066.091.307.219.567.384.78.169.208.37.368.604.48a1.9 1.9 0 0 0 .8.163c.281 0 .513-.032.695-.098.182-.069.332-.145.449-.227.121-.082.221-.156.299-.221a.377.377 0 0 1 .24-.104c.095 0 .169.037.221.11l.325.423c-.143.178-.305.33-.487.455-.182.126-.38.232-.592.319a3.272 3.272 0 0 1-.656.181 4.09 4.09 0 0 1-.702.059 2.9 2.9 0 0 1-1.151-.228 2.64 2.64 0 0 1-.916-.656 3.12 3.12 0 0 1-.611-1.066c-.148-.42-.221-.9-.221-1.436 0-.49.067-.943.201-1.359a3.13 3.13 0 0 1 .598-1.073 2.73 2.73 0 0 1 .969-.708 3.27 3.27 0 0 1 1.326-.254c.463 0 .871.076 1.222.228.355.147.669.357.942.63l-.305.416zm4.286-1.274c.481 0 .915.08 1.3.241.386.16.715.388.988.683.273.294.481.652.624 1.072.148.416.221.882.221 1.398 0 .52-.073.988-.221 1.404a2.963 2.963 0 0 1-.624 1.065 2.782 2.782 0 0 1-.988.683 3.437 3.437 0 0 1-1.3.234 3.51 3.51 0 0 1-1.313-.234 2.791 2.791 0 0 1-.988-.683 3.033 3.033 0 0 1-.63-1.066 4.302 4.302 0 0 1-.215-1.404c0-.515.072-.981.215-1.397.147-.42.357-.778.63-1.072.273-.295.603-.523.988-.683.39-.16.828-.24 1.313-.24zm0 5.877c.65 0 1.136-.217 1.456-.65.321-.438.481-1.047.481-1.827 0-.784-.16-1.395-.481-1.833-.32-.438-.806-.657-1.456-.657-.329 0-.617.057-.864.17a1.634 1.634 0 0 0-.611.487 2.23 2.23 0 0 0-.364.787 4.27 4.27 0 0 0-.117 1.046c0 .78.16 1.389.481 1.827.325.433.817.65 1.475.65zm10.015-5.772V32h-.689c-.164 0-.268-.08-.312-.24l-.091-.709a3.669 3.669 0 0 1-.962.767 2.55 2.55 0 0 1-1.222.286c-.359 0-.678-.059-.955-.175a1.924 1.924 0 0 1-.689-.507 2.178 2.178 0 0 1-.423-.787 3.59 3.59 0 0 1-.136-1.02v-4.2h1.157v4.2c0 .498.112.884.338 1.157.229.273.578.409 1.046.409.343 0 .661-.08.956-.24.299-.165.574-.39.825-.676v-4.85h1.157zm2.927.955c.143-.16.295-.305.455-.435.16-.13.329-.241.507-.332a2.645 2.645 0 0 1 1.228-.293c.36 0 .676.061.949.183.278.116.507.285.689.506.187.217.328.48.423.787.095.308.143.648.143 1.02V32h-1.164v-4.192c0-.499-.114-.884-.344-1.157-.225-.278-.57-.416-1.034-.416a1.96 1.96 0 0 0-.962.247 3.203 3.203 0 0 0-.819.669V32h-1.163v-6.584h.695c.165 0 .267.08.306.24l.091.715zm8.089 5.733c-.52 0-.92-.145-1.202-.435-.277-.29-.416-.709-.416-1.255v-4.03h-.793a.27.27 0 0 1-.176-.058c-.047-.044-.071-.109-.071-.195v-.462l1.079-.137.266-2.034a.26.26 0 0 1 .267-.221h.585v2.268h1.904v.839h-1.904v3.952c0 .277.067.483.201.617a.705.705 0 0 0 .52.202.943.943 0 0 0 .546-.156c.065-.039.12-.074.163-.104.048-.035.089-.052.123-.052.061 0 .115.037.163.11l.338.553c-.199.186-.44.334-.722.442a2.493 2.493 0 0 1-.871.156zm3.438-10.043a3.002 3.002 0 0 1 .39 1.99 3.025 3.025 0 0 1-.325.962c-.165.307-.384.58-.657.818l-.351-.227c-.065-.039-.095-.089-.091-.15a.293.293 0 0 1 .065-.155c.113-.14.208-.306.286-.501.083-.2.135-.412.156-.637a2.33 2.33 0 0 0-.032-.709 2.077 2.077 0 0 0-.267-.702c-.056-.09-.073-.17-.052-.24a.273.273 0 0 1 .163-.163l.715-.286zm1.976 0a3.002 3.002 0 0 1 .39 1.99 3.025 3.025 0 0 1-.325.962c-.165.307-.384.58-.657.818l-.351-.227c-.065-.039-.095-.089-.091-.15a.293.293 0 0 1 .065-.155c.113-.14.208-.306.286-.501.083-.2.135-.412.156-.637a2.33 2.33 0 0 0-.032-.709 2.077 2.077 0 0 0-.267-.702c-.056-.09-.073-.17-.052-.24a.273.273 0 0 1 .163-.163l.715-.286zm1.868 9.224a.87.87 0 0 1 .059-.319.877.877 0 0 1 .169-.26.821.821 0 0 1 .897-.175.844.844 0 0 1 .26.175c.073.074.132.16.175.26a.78.78 0 0 1 .065.319.795.795 0 0 1-.5.747.793.793 0 0 1-.319.066.788.788 0 0 1-.318-.066.74.74 0 0 1-.26-.168.905.905 0 0 1-.169-.254.884.884 0 0 1-.059-.325zm0-4.875a.87.87 0 0 1 .059-.319.877.877 0 0 1 .169-.26.821.821 0 0 1 .897-.175.844.844 0 0 1 .26.175c.073.074.132.16.175.26a.78.78 0 0 1 .065.319.795.795 0 0 1-.24.578.844.844 0 0 1-.26.176.869.869 0 0 1-.319.058.864.864 0 0 1-.318-.058.821.821 0 0 1-.26-.176.905.905 0 0 1-.169-.253.884.884 0 0 1-.059-.325zm4.154-4.349a3.002 3.002 0 0 1 .39 1.99 3.025 3.025 0 0 1-.325.962c-.165.307-.384.58-.657.818l-.351-.227c-.065-.039-.095-.089-.091-.15a.293.293 0 0 1 .065-.155c.113-.14.208-.306.286-.501.083-.2.135-.412.156-.637a2.33 2.33 0 0 0-.032-.709 2.077 2.077 0 0 0-.267-.702c-.056-.09-.073-.17-.052-.24a.273.273 0 0 1 .163-.163l.715-.286zm1.976 0a3.002 3.002 0 0 1 .39 1.99 3.025 3.025 0 0 1-.325.962c-.165.307-.384.58-.657.818l-.351-.227c-.065-.039-.095-.089-.091-.15a.293.293 0 0 1 .065-.155c.113-.14.208-.306.286-.501.083-.2.135-.412.156-.637a2.33 2.33 0 0 0-.032-.709 2.077 2.077 0 0 0-.267-.702c-.056-.09-.073-.17-.052-.24a.273.273 0 0 1 .163-.163l.715-.286zm7.471 8.84c.126 0 .226.037.299.111a.386.386 0 0 1 .111.286V32h-6.214v-.396a.714.714 0 0 1 .214-.494l2.984-2.997c.247-.251.472-.492.676-.721a5.28 5.28 0 0 0 .52-.703c.143-.233.253-.47.331-.708.078-.243.117-.5.117-.774a1.81 1.81 0 0 0-.13-.715 1.383 1.383 0 0 0-.884-.812 2.019 2.019 0 0 0-.656-.104 1.99 1.99 0 0 0-.657.104 1.77 1.77 0 0 0-.533.293 1.691 1.691 0 0 0-.383.435 1.746 1.746 0 0 0-.221.559c-.052.152-.124.254-.215.306-.086.047-.21.06-.37.038l-.605-.104c.061-.424.178-.799.351-1.124.178-.33.399-.604.663-.825.269-.221.574-.388.917-.501a3.414 3.414 0 0 1 1.111-.176c.395 0 .763.059 1.105.176.343.117.639.288.891.513.251.221.448.492.591.813.143.32.215.685.215 1.092 0 .347-.052.67-.156.968a3.84 3.84 0 0 1-.423.845 6.24 6.24 0 0 1-.617.787 20.2 20.2 0 0 1-.735.774l-2.457 2.509a4.33 4.33 0 0 1 .527-.111 3.05 3.05 0 0 1 .513-.046h3.12zm2.842-8.84a3.002 3.002 0 0 1 .39 1.99 3.025 3.025 0 0 1-.325.962c-.165.307-.384.58-.657.818l-.351-.227c-.065-.039-.095-.089-.091-.15a.293.293 0 0 1 .065-.155c.113-.14.208-.306.286-.501.083-.2.135-.412.156-.637a2.33 2.33 0 0 0-.032-.709 2.077 2.077 0 0 0-.267-.702c-.056-.09-.073-.17-.052-.24a.273.273 0 0 1 .163-.163l.715-.286zm1.976 0a3.002 3.002 0 0 1 .39 1.99 3.025 3.025 0 0 1-.325.962c-.165.307-.384.58-.657.818l-.351-.227c-.065-.039-.095-.089-.091-.15a.293.293 0 0 1 .065-.155c.113-.14.208-.306.286-.501.083-.2.135-.412.156-.637a2.33 2.33 0 0 0-.032-.709 2.077 2.077 0 0 0-.267-.702c-.056-.09-.073-.17-.052-.24a.273.273 0 0 1 .163-.163l.715-.286zm4.527 6.24c-.286 0-.505.09-.657.267-.151.173-.227.396-.227.67 0 .216.017.43.052.643.034.212.071.427.11.643.039.213.076.427.111.644.034.212.052.431.052.657 0 .299-.046.574-.137.825a1.673 1.673 0 0 1-.403.65 1.786 1.786 0 0 1-.669.422 2.514 2.514 0 0 1-.923.157h-.351v-.52c0-.087.03-.15.091-.189a.342.342 0 0 1 .169-.059h.13c.338 0 .602-.108.793-.325.19-.216.286-.513.286-.89 0-.243-.015-.477-.046-.702a13.46 13.46 0 0 0-.104-.656 19.684 19.684 0 0 1-.104-.644 4.593 4.593 0 0 1-.045-.643c0-.16.024-.31.071-.449.048-.143.115-.27.202-.383a1.39 1.39 0 0 1 .312-.287 1.41 1.41 0 0 1 .396-.175 1.411 1.411 0 0 1-.396-.175 1.316 1.316 0 0 1-.585-1.125c0-.217.015-.431.045-.643.031-.213.065-.425.104-.637.039-.217.074-.438.104-.663.031-.226.046-.46.046-.702 0-.373-.096-.668-.286-.884-.191-.221-.455-.332-.793-.332h-.13a.342.342 0 0 1-.169-.058c-.061-.04-.091-.102-.091-.189v-.514h.351c.351 0 .658.05.923.15.268.1.492.24.669.423.182.181.317.398.403.65a2.4 2.4 0 0 1 .137.825c0 .225-.018.446-.052.663-.035.217-.072.431-.111.644-.039.212-.076.424-.11.636a3.949 3.949 0 0 0-.052.644c0 .277.076.503.227.676.152.173.371.26.657.26v.695z" fill="#B2ADCC"/></svg>