<svg width="176" height="96" viewBox="0 0 176 96" fill="none" xmlns="http://www.w3.org/2000/svg">
<g clip-path="url(#clip0)">
<path d="M97.729 90.7955C85.7786 92.8243 68.1 84.7676 66.1152 72.9589C64.8313 65.3204 78.4769 57.0058 89.2711 55.9074C101.937 54.6187 114.929 60.3605 119.772 73.0358C120.979 83.4163 109.679 88.7667 97.729 90.7955Z" fill="#161326"/>
<path d="M96.6172 84.2483C84.6669 86.2771 67.3261 80.2102 65.7124 70.587C64.6686 64.3622 78.4974 57.127 89.2693 55.8965C101.908 54.4527 114.658 58.7645 119.089 69.0109C119.972 77.4866 108.568 82.2195 96.6172 84.2483Z" fill="#201C33"/>
<path d="M97.3735 85.3011C85.4231 87.3299 65.8 81.3744 66.4687 71.6399C66.8117 66.6464 79.2537 58.1798 90.0255 56.9494C102.665 55.5056 116.993 62.4419 117.876 70.9182C118.759 79.3939 109.324 83.2723 97.3735 85.3011Z" fill="#403366"/>
<path d="M66.3707 69.2138C66.3707 69.2138 66.2758 70.445 66.3086 72.2387C67.0184 76.5059 71.1668 82.1 84.1914 83.5389C95.2041 84.3824 117.348 82.6189 118.269 68.8574C118.269 68.8574 119.944 76.3238 118.404 80.6669C117.31 83.7535 107.277 89.9628 95.158 91.0335C81.4355 92.2458 72.5434 86.6426 70.1758 84.7212C66.9974 82.1419 66.3767 75.9719 66.3086 72.2387C66.1194 71.1016 66.1744 70.0588 66.3707 69.2138Z" fill="#201C33" stroke="#201C33" stroke-width="1.05"/>
<path d="M72.8261 87.4452L72.8655 83.5405L72.8261 78.9857M81.4065 90.5433L81.4065 82.4117M89.8753 91.9961L89.8753 82.8769M99.0444 91.2654L99.0444 81.5437M106.965 89.144C106.965 85.8998 106.965 79.9233 106.965 79.9233M114.567 85.274L114.567 74.5956" stroke="#403366" stroke-width="1.05"/>
<path d="M82.4748 74.0001L86.6771 70.6266C89.2347 72.3508 92.2357 73.7092 95.5019 74.4297L95.2807 73.1841C95.5987 73.2757 96.208 73.3952 96.8173 73.5147C97.2235 73.5944 97.6297 73.674 97.9496 73.7454C97.1497 74.2811 96.5424 74.9373 96.0652 75.657L93.1647 76.0938L90.347 74.2428L82.4748 74.0001Z" fill="#8E7CBF"/>
<path d="M94.4194 70.0916L92.1879 72.7863C94.3367 72.3796 94.6259 72.2031 94.4194 70.0916Z" fill="#8E7CBF"/>
<path fill-rule="evenodd" clip-rule="evenodd" d="M83.5965 62.2712L91.372 63.525L94.4895 62.2416L97.2546 63.2203C98.399 66.1646 101.235 67.3657 102.966 68.0986C103.135 68.1702 103.293 68.2374 103.439 68.3013L103.105 71.7896L101.645 72.1092C98.3647 71.5403 94.2461 69.769 91.2937 67.1908L91.5917 69.0559C87.9107 67.5751 87.0484 66.5117 84.8789 63.8362C84.499 63.3676 84.0789 62.8496 83.5965 62.2712ZM99.3863 70.8217L101.651 69.9159L99.599 68.5973L99.3863 70.8217ZM94.579 68.4233L92.8986 65.3546C94.9314 66.1612 95.1819 66.3892 94.579 68.4233Z" fill="#8E7CBF"/>
<path d="M90.6015 76.5687C78.6511 78.5975 60.9725 70.5408 58.9877 58.7321C57.7039 51.0936 71.3494 42.779 82.1437 41.6806C94.8092 40.3919 107.801 46.1337 112.645 58.809C113.851 69.1894 102.552 74.5399 90.6015 76.5687Z" fill="#161326"/>
<path d="M89.4898 70.0215C77.5394 72.0503 60.1987 65.9834 58.585 56.3602C57.5412 50.1354 71.37 42.9002 82.1418 41.6697C94.781 40.2259 107.53 44.5377 111.961 54.7841C112.844 63.2598 101.44 67.9927 89.4898 70.0215Z" fill="#201C33"/>
<path d="M90.2458 71.0743C78.2954 73.1031 58.6723 67.1476 59.341 57.4131C59.6841 52.4196 72.126 43.953 82.8978 42.7225C95.537 41.2788 109.865 48.2151 110.748 56.6914C111.631 65.1671 102.196 69.0455 90.2458 71.0743Z" fill="#403366"/>
<path d="M59.2432 54.987C59.2432 54.987 59.1484 56.2182 59.1811 58.0119C59.891 62.2791 64.0393 67.8732 77.0639 69.312C88.0767 70.1556 110.221 68.392 111.142 54.6306C111.142 54.6306 112.816 62.097 111.277 66.44C110.183 69.5266 100.149 75.736 88.0305 76.8067C74.3081 78.019 65.4159 72.4158 63.0484 70.4944C59.87 67.9151 59.2493 61.7451 59.1811 58.0119C58.992 56.8748 59.047 55.8319 59.2432 54.987Z" fill="#201C33" stroke="#201C33" stroke-width="1.05"/>
<path d="M65.6979 73.2186L65.7373 69.3139L65.698 64.7592M74.2783 76.3167L74.2783 68.1852M82.7471 77.7695L82.7471 68.6503M91.9162 77.7695L91.9162 67.3172M99.8365 75.8901C99.8365 72.6459 99.8365 65.6967 99.8365 65.6967M107.438 71.403L107.438 60.369" stroke="#403366" stroke-width="1.05"/>
<path d="M75.3474 59.7733L79.5496 56.3998C82.1073 58.124 85.1083 59.4824 88.3745 60.2029L88.1533 58.9573C88.4712 59.0489 89.0805 59.1684 89.6899 59.2879C90.0961 59.3676 90.5023 59.4472 90.8222 59.5186C90.0222 60.0543 89.415 60.7105 88.9378 61.4302L86.0373 61.867L83.2195 60.016L75.3474 59.7733Z" fill="#8E7CBF"/>
<path d="M87.292 55.8648L85.0604 58.5595C87.2093 58.1527 87.4984 57.9763 87.292 55.8648Z" fill="#8E7CBF"/>
<path fill-rule="evenodd" clip-rule="evenodd" d="M76.4691 48.0444L84.2446 49.2982L87.3621 48.0148L90.1272 48.9935C91.2716 51.9378 94.1077 53.1389 95.8382 53.8718C96.0074 53.9434 96.166 54.0106 96.3114 54.0745L95.9778 57.5628L94.5179 57.8824C91.2372 57.3135 87.1186 55.5422 84.1662 52.964L84.4643 54.8291C80.7833 53.3483 79.9209 52.2849 77.7515 49.6094C77.3715 49.1408 76.9514 48.6228 76.4691 48.0444ZM92.2588 56.5949L94.5235 55.6891L92.4716 54.3705L92.2588 56.5949ZM87.4515 54.1965L85.7712 51.1278C87.804 51.9344 88.0544 52.1624 87.4515 54.1965Z" fill="#8E7CBF"/>
<path d="M79.0104 45.8289C71.2782 36.494 69.4163 17.1555 78.6505 9.53227C84.6237 4.60112 98.6471 12.2612 104.995 21.0602C112.444 31.3844 113.968 45.507 105.412 56.039C97.0259 62.2741 86.7426 55.1638 79.0104 45.8289Z" fill="#161326"/>
<path d="M84.1246 41.5925C76.3925 32.2576 72.9762 14.2066 80.5032 7.99754C85.3721 3.98115 98.5525 12.3396 105.004 21.0531C112.574 31.277 115.215 44.4742 108.556 53.4347C101.658 58.4373 91.8568 50.9274 84.1246 41.5925Z" fill="#201C33"/>
<path d="M83.5913 42.7721C75.8591 33.4372 71.2052 13.4653 79.9699 9.17717C84.4659 6.97749 98.0191 13.5192 104.471 22.2327C112.041 32.4567 113.197 48.3331 106.298 53.3361C99.3998 58.3387 91.3235 52.107 83.5913 42.7721Z" fill="#403366"/>
<path d="M82.0193 7.88037C82.0193 7.88037 80.9056 8.41381 79.3686 9.33902C76.028 12.0874 73.2575 18.477 78.5238 30.4761C83.2996 40.4352 95.8991 58.7309 108.277 52.6475C108.277 52.6475 102.648 57.8308 98.1175 58.6693C94.8974 59.2652 84.5032 53.6805 77.5166 43.7207C69.6054 32.4429 70.0119 21.9404 70.492 18.9294C71.1366 14.8872 76.1696 11.2646 79.3686 9.33902C80.2588 8.60667 81.1894 8.13286 82.0193 7.88037Z" fill="#201C33" stroke="#201C33" stroke-width="1.05"/>
<path d="M69.4604 22.5864L72.8617 20.6682L76.7552 18.7585M70.8655 32.1751L78.1097 27.5005M74.6241 40.632L81.9413 35.0673M80.5306 49.3574L87.6804 42.3414M87.1451 55.4431C89.3381 52.882 93.0439 48.3904 93.0439 48.3904M94.8145 59.1738L100.275 51.9525" stroke="#403366" stroke-width="1.05"/>
<path d="M85.9275 24.2194L90.9501 26.172C90.7358 29.249 91.0599 32.5272 92.069 35.716L93.0371 34.9017C93.1167 35.2228 93.3179 35.8103 93.5191 36.3977C93.6532 36.7893 93.7873 37.1809 93.8854 37.4937C93.0215 37.0688 92.1496 36.8709 91.2878 36.8175L89.4592 34.5241L89.6534 31.1583L85.9275 24.2194Z" fill="#8E7CBF"/>
<path d="M95.2846 32.6095L91.8352 32.0243C93.2619 33.6819 93.5592 33.8441 95.2846 32.6095Z" fill="#8E7CBF"/>
<path fill-rule="evenodd" clip-rule="evenodd" d="M96.6459 19.3264L99.4478 26.6871L102.118 28.7452L102.653 31.6292C100.675 34.0925 101.053 37.1492 101.284 39.0143C101.306 39.1966 101.327 39.3676 101.345 39.5255L98.157 40.9807L97.1503 39.8762C96.0026 36.7506 95.4774 32.2981 96.2339 28.4521L94.7677 29.6428C94.2096 25.7146 94.6994 24.436 95.9317 21.2195C96.1475 20.6562 96.3861 20.0333 96.6459 19.3264ZM97.1357 37.276L99.0525 38.7844L99.1685 36.348L97.1357 37.276ZM96.8092 31.9135L98.6266 28.9239C98.9445 31.0877 98.8722 31.4186 96.8092 31.9135Z" fill="#8E7CBF"/>
<rect x="107" y="3" width="1" height="7" rx="0.5" fill="#E6004C"/>
<rect x="111" y="6" width="1" height="7" rx="0.5" transform="rotate(90 111 6)" fill="#E6004C"/>
<rect x="118" y="14" width="1" height="7" rx="0.5" fill="#E6004C"/>
<rect x="122" y="17" width="1" height="7" rx="0.5" transform="rotate(90 122 17)" fill="#E6004C"/>
</g>
<defs>
<clipPath id="clip0">
<rect width="96" height="96" fill="white" transform="translate(40)"/>
</clipPath>
</defs>
</svg>
