<svg width="72" height="80" viewBox="0 0 72 80" fill="none" xmlns="http://www.w3.org/2000/svg">
<path fill-rule="evenodd" clip-rule="evenodd" d="M62.0744 24.1434C61.3372 25.4712 61.816 27.1453 63.1438 27.8825C64.4717 28.6197 66.1458 28.1409 66.883 26.8131C67.6202 25.4852 67.1414 23.8111 65.8136 23.0739C64.4857 22.3367 62.8116 22.8155 62.0744 24.1434ZM59.6701 22.8085C58.1957 25.4642 59.1533 28.8124 61.809 30.2868C64.4647 31.7613 67.8129 30.8037 69.2873 28.1479C70.7618 25.4922 69.8042 22.1441 67.1484 20.6696C64.4927 19.1952 61.1446 20.1528 59.6701 22.8085Z" fill="#E6004C"/>
<path d="M49.3121 5.09881L46.0335 3.27854L44.82 5.46427L48.0986 7.28453L46.2783 10.5631L48.464 11.7766L50.2843 8.49805L53.5629 10.3183L54.7764 8.13259L51.4978 6.31232L53.3181 3.03374L51.1324 1.82022L49.3121 5.09881Z" fill="#E6004C"/>
<path d="M23.1928 23.3401C22.5647 23.2029 21.9242 23.209 21.3647 23.2872C21.0664 23.3288 20.7533 23.4147 20.4434 23.5354C20.604 21.7363 21.729 18.125 21.729 18.125C21.729 18.125 22.881 21.5473 23.1928 23.3401Z" fill="#B2ADCC"/>
<path d="M44.3711 29.3632C44.5463 29.3204 44.7188 29.2883 44.8846 29.2673C45.5805 29.1795 46.2883 29.2909 46.9324 29.5542C46.8956 27.5487 46.4931 24.5557 46.4931 24.5557C46.4931 24.5557 45.0325 27.4799 44.3711 29.3632Z" fill="#B2ADCC"/>
<path d="M45.7101 30.4185C44.1161 30.2327 42.6628 31.3477 42.4283 32.9274L41.2497 41.8431V45.4531C41.2497 47.67 39.5774 49.475 37.331 49.475C35.834 49.475 34.561 48.6191 33.8995 47.3889C33.5963 47.5791 33.275 47.7381 33.275 47.7381C33.3216 48.9365 32.8121 50.3927 31.8972 51.1353C33.3407 52.4189 34.5681 54.3843 34.5681 57.3126C34.5681 57.6543 34.2911 57.9313 33.9493 57.9313C33.6076 57.9313 33.3306 57.6543 33.3306 57.3126C33.3306 54.5656 32.1007 52.8517 30.7349 51.7754C30.5997 51.821 30.4603 51.8595 30.317 51.8904L23.7954 53.4265L23.5117 52.2219L30.048 50.6824C31.4682 50.3809 32.3301 48.9587 31.9855 47.5791L31.9846 47.5755L31.9839 47.5719C31.6825 46.1498 30.2617 45.2875 28.884 45.6322L28.8795 45.6334L21.3768 47.0486L21.3771 47.0516L20.2461 47.3341C19.1044 47.6193 18.4324 48.7987 18.777 49.9239C19.6106 52.6461 21.0201 57.1586 21.3771 57.7376C22.2679 59.2244 23.1595 60.2 25.0817 60.2H39.6154C42.2877 60.2 44.5381 58.2486 44.9131 55.6004L48.2418 33.6243C48.4294 32.0911 47.3042 30.6508 45.7101 30.4185Z" fill="#797399"/>
<path d="M21.2311 45.7546L26.3995 44.8241V39.4719C26.3995 39.0846 26.4553 38.7117 26.5591 38.3598L25.0039 26.8826C24.8164 25.3029 23.347 24.1463 21.753 24.3321C20.159 24.518 18.9869 25.9118 19.1744 27.4915L21.2311 45.7546Z" fill="#797399"/>
<path d="M27.637 44.6013L28.5958 44.4287C30.3895 43.9861 32.2294 44.9152 32.957 46.5749C33.2465 46.1394 33.412 45.6146 33.412 45.0406V39.4719C33.412 37.9405 32.1127 36.6875 30.5245 36.6875C28.9364 36.6875 27.637 37.9405 27.637 39.4719L27.637 44.6013Z" fill="#797399"/>
<path d="M37.331 48.2375C35.8563 48.2375 34.6497 46.9845 34.6497 45.4531V39.8844C34.6497 38.353 35.8563 37.1 37.331 37.1C38.8057 37.1 40.0122 38.353 40.0122 39.8844V45.4531C40.0122 47.0309 38.8504 48.2375 37.331 48.2375Z" fill="#797399"/>
<path d="M39.6839 66.0186L39.683 66.0167C39.6809 66.0119 39.6792 66.0078 39.6778 66.0045C39.6799 66.0093 39.6819 66.014 39.6839 66.0186Z" fill="#403366"/>
<path fill-rule="evenodd" clip-rule="evenodd" d="M25.5438 61.9432V61.4375H40.9775C41.2454 62.3931 41.9983 64.7613 43.1267 65.787C43.3694 66.0077 43.3956 66.4243 43.0813 66.5181C42.6784 66.6383 42.1928 66.6866 41.7415 66.5607C42.0081 67.2516 42.3358 67.8524 42.7257 68.2484C42.9558 68.4821 42.9709 68.8844 42.6542 68.9699C42.1229 69.1134 41.3986 69.2172 40.8371 69.0687V75.4625C40.8371 75.7384 40.6002 75.9466 40.3608 75.8095C39.1724 75.1289 38.4432 73.4925 38.3184 72.7138C37.3474 73.8108 37.7383 74.9857 38.2535 76.0362C38.3954 76.3256 38.174 76.6516 37.8672 76.5529C36.065 75.9735 35.2575 73.8271 35.0686 72.7138C34.5869 75.5093 33.4558 76.4941 32.51 76.6923C32.1895 76.7595 32.0623 76.3843 32.2607 76.1238C33.625 74.3329 32.6342 72.8252 31.1339 73.0124C30.0325 73.3264 30.3656 74.5946 30.68 75.4211C30.7881 75.7052 30.5734 75.997 30.2812 75.9134C28.5678 75.4234 27.9641 73.6373 28.0275 72.7138C27.5385 74.7487 26.1591 75.5532 25.0281 75.7347C24.6458 75.7961 24.537 75.2895 24.7658 74.9772C25.3769 74.1432 25.5482 73.0833 25.5746 72.1625V68.5538C24.9644 68.7615 24.2652 68.7192 23.7509 68.5729C23.4354 68.4832 23.4562 68.0688 23.6863 67.8351C24.8334 66.6701 25.4419 63.7315 25.5438 61.9432ZM30.9372 64.7375C30.9372 64.3958 30.6602 64.1187 30.3184 64.1187C29.9767 64.1187 29.6997 64.3958 29.6997 64.7375C29.6997 65.3686 29.6972 66.073 29.5597 66.6916C29.4218 67.3122 29.1786 67.7094 28.8042 67.8966C28.4986 68.0494 28.3747 68.4211 28.5275 68.7267C28.6803 69.0324 29.052 69.1563 29.3577 69.0034C30.2208 68.5719 30.5963 67.7316 30.7678 66.96C30.9373 66.1972 30.9372 65.3676 30.9372 64.7633L30.9372 64.7375ZM35.0619 66.5938C34.7202 66.5938 34.4431 66.8708 34.4431 67.2125C34.4431 67.803 34.56 68.3764 34.6703 68.7899C34.7262 68.9995 34.7822 69.1745 34.8246 69.2984C34.8459 69.3605 34.8639 69.4101 34.877 69.4451C34.8807 69.4551 34.8841 69.4639 34.887 69.4716C34.8892 69.4772 34.8911 69.4822 34.8927 69.4865L34.8975 69.4987L34.8989 69.5022L34.8995 69.5038L34.8999 69.5048C35.0268 69.8221 35.3869 69.9764 35.7042 69.8495C36.0214 69.7226 36.1757 69.3628 36.049 69.0456L36.0468 69.0398C36.0455 69.0365 36.0437 69.0318 36.0415 69.0259C36.04 69.0219 36.0382 69.0174 36.0363 69.0123C36.0269 68.9869 36.0126 68.9478 35.9952 68.8971C35.9604 68.7954 35.9132 68.6482 35.866 68.471C35.77 68.1111 35.6806 67.6533 35.6806 67.2125C35.6806 66.8708 35.4036 66.5938 35.0619 66.5938ZM37.7478 63.9892C37.7054 63.6501 37.9459 63.3409 38.285 63.2985L39.6835 66.0179C39.6837 66.0184 39.6839 66.0188 39.6841 66.0193L39.6845 66.0198C39.7643 66.1996 39.8302 66.6783 39.558 66.8825C39.2846 67.0875 38.8968 67.0321 38.6918 66.7587C38.6755 66.7363 38.6915 66.7583 38.6915 66.7583L38.6912 66.7579L38.6905 66.757L38.689 66.755L38.6853 66.75L38.6755 66.7363C38.6678 66.7255 38.6579 66.7114 38.6462 66.6939C38.6227 66.6589 38.5915 66.6105 38.5548 66.5487C38.4814 66.4251 38.3858 66.2478 38.2847 66.0167C38.0824 65.5542 37.8589 64.878 37.7478 63.9892ZM39.6839 66.0186L39.6848 66.0203L39.6845 66.0198C39.7072 66.0582 39.6567 65.9539 39.6778 66.0045C39.5134 65.6282 39.0696 64.5865 38.9757 63.8357C38.9334 63.4966 38.6241 63.2561 38.285 63.2985L39.683 66.0167C39.6831 66.0171 39.6833 66.0175 39.6835 66.0179L39.6845 66.0198C39.6843 66.0194 39.6841 66.019 39.6839 66.0186Z" fill="#403366"/>
<path d="M30.3633 49.2407C30.2702 49.2428 30.1781 49.2914 30.1316 49.2925C28.5554 49.6071 27.8046 47.2466 29.327 46.6069C29.4191 46.5582 29.5121 46.5562 29.6042 46.5075C31.0376 46.0562 35.6069 46.3278 35.6069 46.3278C35.6069 46.3278 31.7967 48.7894 30.3633 49.2407Z" fill="#B2ADCC"/>
<path d="M35.8877 46.0634C35.8877 45.9685 35.8877 45.8735 35.8877 45.8261C35.9839 44.1645 38.4853 44.0696 38.7259 45.6836C38.7411 45.7856 38.7695 45.8261 38.774 45.9685C38.8221 47.4876 37.427 51.9499 37.427 51.9499C37.427 51.9499 35.9358 47.5825 35.8877 46.0634Z" fill="#B2ADCC"/>
</svg>
