<svg width="15" height="16" viewBox="0 0 15 16" fill="none" xmlns="http://www.w3.org/2000/svg">
<path d="M2.61914 15.25C1.91914 14.0667 1.44414 12.825 1.19414 11.525C0.944141 10.2083 0.919141 8.90833 1.11914 7.625C1.31914 6.34167 1.73581 5.11667 2.36914 3.95C3.00247 2.76667 3.84414 1.70833 4.89414 0.774999L6.24414 1.625C6.49414 1.79167 6.60247 2 6.56914 2.25C6.55247 2.48333 6.47747 2.66666 6.34414 2.8C5.91081 3.33333 5.53581 3.98333 5.21914 4.75C4.91914 5.51666 4.72747 6.34166 4.64414 7.225C4.56081 8.09166 4.60247 8.99166 4.76914 9.925C4.93581 10.8583 5.27747 11.7583 5.79414 12.625C6.01081 12.975 6.06914 13.2917 5.96914 13.575C5.88581 13.8417 5.68581 14.0417 5.36914 14.175L2.61914 15.25ZM10.2191 15.25C9.51914 14.0667 9.04414 12.825 8.79414 11.525C8.54414 10.2083 8.51914 8.90833 8.71914 7.625C8.91914 6.34167 9.33581 5.11667 9.96914 3.95C10.6025 2.76667 11.4441 1.70833 12.4941 0.774999L13.8441 1.625C14.0941 1.79167 14.2025 2 14.1691 2.25C14.1525 2.48333 14.0775 2.66666 13.9441 2.8C13.5108 3.33333 13.1358 3.98333 12.8191 4.75C12.5191 5.51666 12.3275 6.34166 12.2441 7.225C12.1608 8.09166 12.2025 8.99166 12.3691 9.925C12.5358 10.8583 12.8775 11.7583 13.3941 12.625C13.6108 12.975 13.6691 13.2917 13.5691 13.575C13.4858 13.8417 13.2858 14.0417 12.9691 14.175L10.2191 15.25Z" fill="#484266"/>
</svg>
