<svg width="470" height="260" viewBox="0 0 470 260" fill="none" xmlns="http://www.w3.org/2000/svg">
<circle cx="220.354" cy="150.708" r="68.3535" fill="#403366"/>
<mask id="mask0" mask-type="alpha" maskUnits="userSpaceOnUse" x="152" y="82" width="137" height="138">
<circle cx="220.354" cy="150.708" r="68.3535" fill="#403366"/>
</mask>
<g mask="url(#mask0)">
<rect x="129.214" y="123.855" width="71.6084" height="26.8532" rx="13.4266" fill="#6C5C99"/>
<rect x="149.807" y="189.088" width="71.6432" height="19.7384" rx="9.86922" fill="#6C5C99"/>
<rect x="239.069" y="166.983" width="71.6084" height="26.8532" rx="13.4266" fill="#6C5C99"/>
<rect x="230.117" y="91.3055" width="71.6084" height="26.8532" rx="13.4266" fill="#6C5C99"/>
<rect x="105.213" y="147.418" width="71.6084" height="15.4609" rx="7.73046" fill="#6C5C99"/>
<rect x="265.921" y="155.591" width="71.6084" height="15.4609" rx="7.73046" fill="#6C5C99"/>
</g>
<circle cx="220.354" cy="150.708" r="68.3535" fill="#403366"/>
<mask id="mask1" mask-type="alpha" maskUnits="userSpaceOnUse" x="152" y="82" width="137" height="138">
<circle cx="220.354" cy="150.708" r="68.3535" fill="#403366"/>
</mask>
<g mask="url(#mask1)">
<rect x="129.214" y="123.855" width="71.6084" height="26.8532" rx="13.4266" fill="#6C5C99"/>
<rect x="149.807" y="189.088" width="71.6432" height="19.7384" rx="9.86922" fill="#6C5C99"/>
<rect x="239.069" y="166.983" width="71.6084" height="26.8532" rx="13.4266" fill="#6C5C99"/>
<rect x="230.117" y="91.3055" width="71.6084" height="26.8532" rx="13.4266" fill="#6C5C99"/>
<rect x="105.213" y="147.418" width="71.6084" height="15.4609" rx="7.73046" fill="#6C5C99"/>
<rect x="265.921" y="155.591" width="71.6084" height="15.4609" rx="7.73046" fill="#6C5C99"/>
</g>
<rect x="253.616" y="18.0217" width="5.11737" height="86.2643" fill="#F4F2FF"/>
<rect x="258.734" y="18" width="23.3937" height="27.9717" fill="#E6004C"/>
<rect x="285.751" y="24.0635" width="23.4234" height="28.2961" fill="#E6004C"/>
<g filter="url(#filter0_d)">
<rect x="115.22" y="197.911" width="1.33333" height="6.66667" rx="0.666667" transform="rotate(-30 115.22 197.911)" fill="#B2ADCC"/>
<rect x="120.018" y="198.22" width="1.33333" height="6.66667" rx="0.666667" transform="rotate(60 120.018 198.22)" fill="#B2ADCC"/>
</g>
<g filter="url(#filter1_d)">
<rect x="56.3331" y="85.6666" width="1.33333" height="6.66667" rx="0.666667" fill="#B2ADCC"/>
<rect x="60.3336" y="88.3334" width="1.33333" height="6.66667" rx="0.666667" transform="rotate(90 60.3336 88.3334)" fill="#B2ADCC"/>
</g>
<g opacity="0.4" filter="url(#filter2_d)">
<rect x="90.4292" y="17.6858" width="1.37158" height="6.85791" rx="0.685791" fill="#B2ADCC"/>
<rect x="94.5439" y="20.429" width="1.37158" height="6.85791" rx="0.685791" transform="rotate(90 94.5439 20.429)" fill="#B2ADCC"/>
</g>
<g filter="url(#filter3_d)">
<rect x="208.333" y="44.6666" width="1.33333" height="6.66667" rx="0.666667" fill="#B2ADCC"/>
<rect x="212.333" y="47.3334" width="1.33333" height="6.66667" rx="0.666667" transform="rotate(90 212.333 47.3334)" fill="#B2ADCC"/>
</g>
<g filter="url(#filter4_d)">
<rect x="368.333" y="154.667" width="1.33333" height="6.66667" rx="0.666667" fill="#B2ADCC"/>
<rect x="372.333" y="157.333" width="1.33333" height="6.66667" rx="0.666667" transform="rotate(90 372.333 157.333)" fill="#B2ADCC"/>
</g>
<g filter="url(#filter5_d)">
<rect x="10.3331" y="177.667" width="1.33333" height="6.66667" rx="0.666667" fill="#B2ADCC"/>
<rect x="14.3336" y="180.333" width="1.33333" height="6.66667" rx="0.666667" transform="rotate(90 14.3336 180.333)" fill="#B2ADCC"/>
</g>
<g opacity="0.4" filter="url(#filter6_d)">
<rect x="440.333" y="200.667" width="1.33333" height="6.66667" rx="0.666667" fill="#B2ADCC"/>
<rect x="444.333" y="203.333" width="1.33333" height="6.66667" rx="0.666667" transform="rotate(90 444.333 203.333)" fill="#B2ADCC"/>
</g>
<g filter="url(#filter7_d)">
<rect x="369.602" y="69.2329" width="1.37158" height="6.85791" rx="0.685791" transform="rotate(28.372 369.602 69.2329)" fill="#B2ADCC"/>
<rect x="371.919" y="73.6019" width="1.37158" height="6.85791" rx="0.685791" transform="rotate(118.372 371.919 73.6019)" fill="#B2ADCC"/>
</g>
<g filter="url(#filter8_d)">
<rect x="330.418" y="112.171" width="1.33333" height="6.66667" rx="0.666667" transform="rotate(28.372 330.418 112.171)" fill="#B2ADCC"/>
<rect x="332.671" y="116.418" width="1.33333" height="6.66667" rx="0.666667" transform="rotate(118.372 332.671 116.418)" fill="#B2ADCC"/>
</g>
<g opacity="0.4" filter="url(#filter9_d)">
<rect x="416.814" y="106.628" width="1" height="5" rx="0.5" transform="rotate(28.372 416.814 106.628)" fill="#B2ADCC"/>
<rect x="418.502" y="109.813" width="1" height="5" rx="0.5" transform="rotate(118.372 418.502 109.813)" fill="#B2ADCC"/>
</g>
<g opacity="0.4" filter="url(#filter10_d)">
<rect x="159.814" y="230.628" width="1" height="5" rx="0.5" transform="rotate(28.372 159.814 230.628)" fill="#B2ADCC"/>
<rect x="161.502" y="233.813" width="1" height="5" rx="0.5" transform="rotate(118.372 161.502 233.813)" fill="#B2ADCC"/>
</g>
<g opacity="0.4" filter="url(#filter11_d)">
<rect x="54.8137" y="135.628" width="1" height="5" rx="0.5" transform="rotate(28.372 54.8137 135.628)" fill="#B2ADCC"/>
<rect x="56.5026" y="138.813" width="1" height="5" rx="0.5" transform="rotate(118.372 56.5026 138.813)" fill="#B2ADCC"/>
</g>
<g opacity="0.7">
<rect x="65.9165" y="227.417" width="2.16667" height="10.8333" rx="1.08333" transform="rotate(90 65.9165 227.417)" fill="#F4F2FF"/>
<rect x="61.5834" y="233.917" width="2.16667" height="10.8333" rx="1.08333" transform="rotate(-180 61.5834 233.917)" fill="#F4F2FF"/>
</g>
<g opacity="0.7">
<rect x="349.796" y="223.463" width="2.16667" height="10.8333" rx="1.08333" fill="#F4F2FF"/>
<rect x="356.296" y="227.796" width="2.16667" height="10.8333" rx="1.08333" transform="rotate(90 356.296 227.796)" fill="#F4F2FF"/>
</g>
<rect width="32.446" height="5" transform="matrix(0.98675 -0.16225 0.164099 0.986444 102.527 169.287)" fill="url(#paint0_linear)"/>
<rect width="32.446" height="5" transform="matrix(0.897259 0.441505 -0.439823 0.898084 117.199 84)" fill="url(#paint1_linear)"/>
<rect width="51" height="6" transform="matrix(0.996222 -0.0868417 0.0874837 0.996166 307 144.185)" fill="url(#paint2_linear)"/>
<circle opacity="0.5" cx="166" cy="73" r="5" fill="#E6004C"/>
<circle opacity="0.5" cx="317" cy="182" r="6" fill="#E6004C"/>
<circle opacity="0.5" cx="302.5" cy="73.5" r="3.5" fill="#E6004C"/>
<circle opacity="0.5" cx="127" cy="130" r="3" fill="#E6004C"/>
<circle opacity="0.5" cx="277" cy="217" r="3" fill="#E6004C"/>
<defs>
<filter id="filter0_d" x="112.187" y="195.187" width="10.5549" height="10.5549" filterUnits="userSpaceOnUse" color-interpolation-filters="sRGB">
<feFlood flood-opacity="0" result="BackgroundImageFix"/>
<feColorMatrix in="SourceAlpha" type="matrix" values="0 0 0 0 0 0 0 0 0 0 0 0 0 0 0 0 0 0 127 0"/>
<feOffset/>
<feGaussianBlur stdDeviation="1.02869"/>
<feColorMatrix type="matrix" values="0 0 0 0 1 0 0 0 0 0 0 0 0 0 0.333333 0 0 0 0.47 0"/>
<feBlend mode="normal" in2="BackgroundImageFix" result="effect1_dropShadow"/>
<feBlend mode="normal" in="SourceGraphic" in2="effect1_dropShadow" result="shape"/>
</filter>
<filter id="filter1_d" x="51.6096" y="83.6093" width="10.7814" height="10.7814" filterUnits="userSpaceOnUse" color-interpolation-filters="sRGB">
<feFlood flood-opacity="0" result="BackgroundImageFix"/>
<feColorMatrix in="SourceAlpha" type="matrix" values="0 0 0 0 0 0 0 0 0 0 0 0 0 0 0 0 0 0 127 0"/>
<feOffset/>
<feGaussianBlur stdDeviation="1.02869"/>
<feColorMatrix type="matrix" values="0 0 0 0 1 0 0 0 0 0 0 0 0 0 0.333333 0 0 0 0.47 0"/>
<feBlend mode="normal" in2="BackgroundImageFix" result="effect1_dropShadow"/>
<feBlend mode="normal" in="SourceGraphic" in2="effect1_dropShadow" result="shape"/>
</filter>
<filter id="filter2_d" x="85.6287" y="15.6284" width="10.9727" height="10.9727" filterUnits="userSpaceOnUse" color-interpolation-filters="sRGB">
<feFlood flood-opacity="0" result="BackgroundImageFix"/>
<feColorMatrix in="SourceAlpha" type="matrix" values="0 0 0 0 0 0 0 0 0 0 0 0 0 0 0 0 0 0 127 0"/>
<feOffset/>
<feGaussianBlur stdDeviation="1.02869"/>
<feColorMatrix type="matrix" values="0 0 0 0 1 0 0 0 0 0 0 0 0 0 0.333333 0 0 0 0.47 0"/>
<feBlend mode="normal" in2="BackgroundImageFix" result="effect1_dropShadow"/>
<feBlend mode="normal" in="SourceGraphic" in2="effect1_dropShadow" result="shape"/>
</filter>
<filter id="filter3_d" x="203.609" y="42.6093" width="10.7814" height="10.7814" filterUnits="userSpaceOnUse" color-interpolation-filters="sRGB">
<feFlood flood-opacity="0" result="BackgroundImageFix"/>
<feColorMatrix in="SourceAlpha" type="matrix" values="0 0 0 0 0 0 0 0 0 0 0 0 0 0 0 0 0 0 127 0"/>
<feOffset/>
<feGaussianBlur stdDeviation="1.02869"/>
<feColorMatrix type="matrix" values="0 0 0 0 1 0 0 0 0 0 0 0 0 0 0.333333 0 0 0 0.47 0"/>
<feBlend mode="normal" in2="BackgroundImageFix" result="effect1_dropShadow"/>
<feBlend mode="normal" in="SourceGraphic" in2="effect1_dropShadow" result="shape"/>
</filter>
<filter id="filter4_d" x="363.609" y="152.609" width="10.7814" height="10.7814" filterUnits="userSpaceOnUse" color-interpolation-filters="sRGB">
<feFlood flood-opacity="0" result="BackgroundImageFix"/>
<feColorMatrix in="SourceAlpha" type="matrix" values="0 0 0 0 0 0 0 0 0 0 0 0 0 0 0 0 0 0 127 0"/>
<feOffset/>
<feGaussianBlur stdDeviation="1.02869"/>
<feColorMatrix type="matrix" values="0 0 0 0 1 0 0 0 0 0 0 0 0 0 0.333333 0 0 0 0.47 0"/>
<feBlend mode="normal" in2="BackgroundImageFix" result="effect1_dropShadow"/>
<feBlend mode="normal" in="SourceGraphic" in2="effect1_dropShadow" result="shape"/>
</filter>
<filter id="filter5_d" x="5.60962" y="175.609" width="10.7814" height="10.7814" filterUnits="userSpaceOnUse" color-interpolation-filters="sRGB">
<feFlood flood-opacity="0" result="BackgroundImageFix"/>
<feColorMatrix in="SourceAlpha" type="matrix" values="0 0 0 0 0 0 0 0 0 0 0 0 0 0 0 0 0 0 127 0"/>
<feOffset/>
<feGaussianBlur stdDeviation="1.02869"/>
<feColorMatrix type="matrix" values="0 0 0 0 1 0 0 0 0 0 0 0 0 0 0.333333 0 0 0 0.47 0"/>
<feBlend mode="normal" in2="BackgroundImageFix" result="effect1_dropShadow"/>
<feBlend mode="normal" in="SourceGraphic" in2="effect1_dropShadow" result="shape"/>
</filter>
<filter id="filter6_d" x="435.609" y="198.609" width="10.7814" height="10.7814" filterUnits="userSpaceOnUse" color-interpolation-filters="sRGB">
<feFlood flood-opacity="0" result="BackgroundImageFix"/>
<feColorMatrix in="SourceAlpha" type="matrix" values="0 0 0 0 0 0 0 0 0 0 0 0 0 0 0 0 0 0 127 0"/>
<feOffset/>
<feGaussianBlur stdDeviation="1.02869"/>
<feColorMatrix type="matrix" values="0 0 0 0 1 0 0 0 0 0 0 0 0 0 0.333333 0 0 0 0.47 0"/>
<feBlend mode="normal" in2="BackgroundImageFix" result="effect1_dropShadow"/>
<feBlend mode="normal" in="SourceGraphic" in2="effect1_dropShadow" result="shape"/>
</filter>
<filter id="filter7_d" x="363.419" y="67.4189" width="10.3139" height="10.3139" filterUnits="userSpaceOnUse" color-interpolation-filters="sRGB">
<feFlood flood-opacity="0" result="BackgroundImageFix"/>
<feColorMatrix in="SourceAlpha" type="matrix" values="0 0 0 0 0 0 0 0 0 0 0 0 0 0 0 0 0 0 127 0"/>
<feOffset/>
<feGaussianBlur stdDeviation="1.02869"/>
<feColorMatrix type="matrix" values="0 0 0 0 1 0 0 0 0 0 0 0 0 0 0.333333 0 0 0 0.47 0"/>
<feBlend mode="normal" in2="BackgroundImageFix" result="effect1_dropShadow"/>
<feBlend mode="normal" in="SourceGraphic" in2="effect1_dropShadow" result="shape"/>
</filter>
<filter id="filter8_d" x="324.114" y="110.113" width="10.6142" height="10.6142" filterUnits="userSpaceOnUse" color-interpolation-filters="sRGB">
<feFlood flood-opacity="0" result="BackgroundImageFix"/>
<feColorMatrix in="SourceAlpha" type="matrix" values="0 0 0 0 0 0 0 0 0 0 0 0 0 0 0 0 0 0 127 0"/>
<feOffset/>
<feGaussianBlur stdDeviation="1.02869"/>
<feColorMatrix type="matrix" values="0 0 0 0 1 0 0 0 0 0 0 0 0 0 0.333333 0 0 0 0.47 0"/>
<feBlend mode="normal" in2="BackgroundImageFix" result="effect1_dropShadow"/>
<feBlend mode="normal" in="SourceGraphic" in2="effect1_dropShadow" result="shape"/>
</filter>
<filter id="filter9_d" x="411.571" y="104.571" width="8.98934" height="8.98934" filterUnits="userSpaceOnUse" color-interpolation-filters="sRGB">
<feFlood flood-opacity="0" result="BackgroundImageFix"/>
<feColorMatrix in="SourceAlpha" type="matrix" values="0 0 0 0 0 0 0 0 0 0 0 0 0 0 0 0 0 0 127 0"/>
<feOffset/>
<feGaussianBlur stdDeviation="1.02869"/>
<feColorMatrix type="matrix" values="0 0 0 0 1 0 0 0 0 0 0 0 0 0 0.333333 0 0 0 0.47 0"/>
<feBlend mode="normal" in2="BackgroundImageFix" result="effect1_dropShadow"/>
<feBlend mode="normal" in="SourceGraphic" in2="effect1_dropShadow" result="shape"/>
</filter>
<filter id="filter10_d" x="154.571" y="228.571" width="8.98934" height="8.98934" filterUnits="userSpaceOnUse" color-interpolation-filters="sRGB">
<feFlood flood-opacity="0" result="BackgroundImageFix"/>
<feColorMatrix in="SourceAlpha" type="matrix" values="0 0 0 0 0 0 0 0 0 0 0 0 0 0 0 0 0 0 127 0"/>
<feOffset/>
<feGaussianBlur stdDeviation="1.02869"/>
<feColorMatrix type="matrix" values="0 0 0 0 1 0 0 0 0 0 0 0 0 0 0.333333 0 0 0 0.47 0"/>
<feBlend mode="normal" in2="BackgroundImageFix" result="effect1_dropShadow"/>
<feBlend mode="normal" in="SourceGraphic" in2="effect1_dropShadow" result="shape"/>
</filter>
<filter id="filter11_d" x="49.5706" y="133.571" width="8.98934" height="8.98934" filterUnits="userSpaceOnUse" color-interpolation-filters="sRGB">
<feFlood flood-opacity="0" result="BackgroundImageFix"/>
<feColorMatrix in="SourceAlpha" type="matrix" values="0 0 0 0 0 0 0 0 0 0 0 0 0 0 0 0 0 0 127 0"/>
<feOffset/>
<feGaussianBlur stdDeviation="1.02869"/>
<feColorMatrix type="matrix" values="0 0 0 0 1 0 0 0 0 0 0 0 0 0 0.333333 0 0 0 0.47 0"/>
<feBlend mode="normal" in2="BackgroundImageFix" result="effect1_dropShadow"/>
<feBlend mode="normal" in="SourceGraphic" in2="effect1_dropShadow" result="shape"/>
</filter>
<linearGradient id="paint0_linear" x1="35.5722" y1="3.77674" x2="8.02947" y2="16.7519" gradientUnits="userSpaceOnUse">
<stop stop-color="#E6004C" stop-opacity="0"/>
<stop offset="1" stop-color="#E6004C"/>
</linearGradient>
<linearGradient id="paint1_linear" x1="35.5722" y1="3.77674" x2="8.02947" y2="16.7519" gradientUnits="userSpaceOnUse">
<stop stop-color="#E6004C" stop-opacity="0"/>
<stop offset="1" stop-color="#E6004C"/>
</linearGradient>
<linearGradient id="paint2_linear" x1="-6.84472" y1="5.46322" x2="50.1055" y2="-0.103792" gradientUnits="userSpaceOnUse">
<stop stop-color="#E6004D" stop-opacity="0"/>
<stop offset="1" stop-color="#E6004D"/>
</linearGradient>
</defs>
</svg>
