<svg width="176" height="96" viewBox="0 0 176 96" fill="none" xmlns="http://www.w3.org/2000/svg">
<path d="M48.5 21.5H49.5V72.5H48.5V21.5Z" stroke="#403366" stroke-width="3" stroke-linejoin="round"/>
<mask id="path-2-inside-1" fill="white">
<rect x="49" y="20" width="83" height="54" rx="1"/>
</mask>
<rect x="49" y="20" width="83" height="54" rx="1" fill="#201C33" stroke="#6C5C99" stroke-width="6" stroke-linejoin="round" mask="url(#path-2-inside-1)"/>
<path d="M92.6096 57.3363C79.1082 48.5073 59.911 48.4022 52 49.4533V71H129V64.1681C122.495 65.5695 106.111 66.1652 92.6096 57.3363Z" fill="#332E4D"/>
<path fill-rule="evenodd" clip-rule="evenodd" d="M85 30.0625V28H82.75V30H83V30.0625H85ZM73.75 28H78.25V30H73.75V28ZM69.25 28V30H64.75V28H69.25ZM60.25 28V30H60V30.0625H58V28H60.25ZM58 34.1875H60V38.3125H58V34.1875ZM58 42.4375H60V46.5625H58V42.4375ZM58 50.6875H60V54.8125H58V50.6875ZM58 58.9375H60V59H60.25V61H58V58.9375ZM64.75 61V59H69.25V61H64.75ZM73.75 61V59H78.25V61H73.75ZM82.75 61V59H83V58.9375H85V61H82.75ZM85 54.8125H83V50.6875H85V54.8125ZM85 46.5625H83V42.4375H85V46.5625ZM85 38.3125H83V34.1875H85V38.3125Z" fill="#E6004C"/>
<rect width="27" height="33" rx="1" transform="matrix(-1 0 0 1 71 14)" fill="#E6004C"/>
<rect width="2" height="2" rx="1" transform="matrix(-1 0 0 1 49 31)" fill="#F4F2FF"/>
<rect width="2" height="2" rx="1" transform="matrix(-1 0 0 1 49 36)" fill="#F4F2FF"/>
<rect width="17" height="2" rx="1" transform="matrix(-1 0 0 1 68 31)" fill="#F4F2FF"/>
<rect width="17" height="2" rx="1" transform="matrix(-1 0 0 1 68 36)" fill="#F4F2FF"/>
<rect width="2" height="2" rx="1" transform="matrix(-1 0 0 1 49 41)" fill="#F4F2FF"/>
<rect width="17" height="2" rx="1" transform="matrix(-1 0 0 1 68 41)" fill="#F4F2FF"/>
<path d="M65.2409 21.7445L68 27H47V20.2316C47 19.7827 47.5456 19.5612 47.8585 19.883L51.7005 23.8348C51.8727 24.012 52.1486 24.0368 52.3496 23.8932L55.7094 21.4933C55.8832 21.3691 56.1168 21.3691 56.2906 21.4933L59.7394 23.9567C59.8982 24.0702 60.1086 24.0808 60.2781 23.984L64.5501 21.5428C64.7959 21.4023 65.1093 21.4938 65.2409 21.7445Z" fill="#F4F2FF"/>
<rect x="121" y="27" width="4" height="4" fill="#332E4D"/>
<rect x="121" y="34" width="4" height="4" fill="#332E4D"/>
<rect x="121" y="40" width="4" height="4" fill="#332E4D"/>
<circle cx="123" cy="50" r="3" fill="#332E4D"/>
<rect x="99" y="79" width="15" height="5" transform="rotate(180 99 79)" fill="#403366"/>
<rect x="82" y="74" width="2" height="5" fill="#201C33"/>
<path d="M68 82C68 80.3431 69.3431 79 71 79H107C108.657 79 110 80.3431 110 82H68Z" fill="#403366"/>
<path d="M70 82C70 80.3431 71.3431 79 73 79H109C110.657 79 112 80.3431 112 82H70Z" fill="#6C5C99"/>
</svg>
