<svg width="39" height="25" viewBox="0 0 39 25" fill="none" xmlns="http://www.w3.org/2000/svg">
<path d="M1.6631 16.0323C2.78599 21.8827 10.8174 22.9743 18.527 22.2821C23.265 21.8561 28.9479 20.2122 32.3851 18.2154V21.0907C28.5987 23.1141 23.1486 24.4186 18.9857 24.8113C8.46209 25.803 1.57407 22.8146 0.286881 17.5299C-0.726466 13.4099 1.02638 9.92226 4.25807 7.16676V8.1851C2.46421 10.0887 1.11533 13.1437 1.6631 16.0323Z" fill="#484266"/>
<path d="M8.49627 4.48451C19.6704 -2.12473 36.9999 -1.57228 38.828 7.10022C39.8071 11.7526 36.4316 15.5464 33.1382 16.7245V14.6479C35.877 13.0638 37.4107 10.3083 36.9246 7.66598C35.4798 -0.327641 19.6568 -0.360933 8.49627 5.21665V4.48451Z" fill="#484266"/>
<path d="M29.7422 5.83568H31.7621V16.638C30.2489 16.4983 29.7422 15.6064 29.7422 14.5814V5.83568Z" fill="#484266"/>
<path d="M7.70908 9.03036H5.68239V14.7477C5.68239 15.7793 6.1959 16.6645 7.70908 16.8043V9.03036Z" fill="#484266"/>
<path d="M5.68239 6.10182H7.70225V7.96545H5.68239V6.10182Z" fill="#484266"/>
<path d="M19.8074 16.7112C18.171 16.7112 17.4794 15.6063 17.4794 14.5148V6.92714H19.4855V9.0237H20.9919V10.5945H19.4855V14.3949C19.4855 14.8409 19.7047 15.0871 20.1771 15.0871H20.9919V16.7112H19.8074Z" fill="#484266"/>
<path fill-rule="evenodd" clip-rule="evenodd" d="M25.2643 15.2137C24.1371 15.2137 23.4937 14.4848 23.4909 13.4898H28.5781V12.7843C28.5781 10.5812 27.3457 8.90396 25.2095 8.90396C23.1006 8.90396 21.4985 10.335 21.4985 12.8708C21.4985 15.8326 23.3334 16.851 25.2506 16.851C26.7227 16.851 27.5511 16.3851 28.3453 15.6263L27.1061 14.4815C26.5925 14.9741 26.1543 15.2137 25.2643 15.2137ZM23.6826 11.3133C23.9085 10.8541 24.4358 10.508 25.1205 10.508C26.1475 10.508 26.5378 11.32 26.5789 12.152H23.4909C23.5046 11.8059 23.5525 11.5929 23.6826 11.3133Z" fill="#484266"/>
<path d="M13.1453 10.6011C13.7341 10.6011 13.9737 10.8807 13.9737 11.3399V16.7245H15.9798V11.3332C15.9798 10.2417 15.3842 9.03036 13.6245 9.03036H9.48903V16.7245H11.4951V10.6011H13.1453Z" fill="#484266"/>
<path fill-rule="evenodd" clip-rule="evenodd" d="M34.1447 7.08694H34.2953C34.3227 7.08694 34.3295 7.07362 34.3295 7.06697C34.3295 7.06364 34.3278 7.05864 34.3261 7.05365C34.3244 7.04866 34.3227 7.04366 34.3227 7.04033L34.1105 6.6876C34.22 6.64765 34.2885 6.57444 34.2885 6.43466V6.42134C34.2885 6.19508 34.1447 6.12183 33.8914 6.12183C33.8229 6.12183 33.6996 6.12183 33.6449 6.13515C33.5969 6.14181 33.5833 6.16178 33.5833 6.20835V7.05365C33.5833 7.06697 33.5969 7.08694 33.6175 7.08694H33.7544C33.775 7.08694 33.7887 7.06697 33.7887 7.05365V6.72085H33.8845C33.8914 6.72085 33.905 6.72751 33.9119 6.73417L34.1173 7.06697C34.1173 7.08028 34.131 7.08694 34.1447 7.08694ZM33.9119 6.28825C34.042 6.28825 34.1036 6.3215 34.1036 6.41468V6.428C34.1036 6.52118 34.042 6.56113 33.9119 6.56113C33.9016 6.56113 33.8742 6.55946 33.8469 6.5578C33.8195 6.55613 33.7921 6.55447 33.7818 6.55447V6.28825H33.9119Z" fill="#484266"/>
<path fill-rule="evenodd" clip-rule="evenodd" d="M33.1382 6.62101C33.1382 7.05365 33.4942 7.39977 33.9393 7.39977C34.3843 7.39977 34.7472 7.05365 34.7472 6.62101C34.7472 6.19508 34.3843 5.8423 33.9393 5.8423C33.4942 5.8423 33.1382 6.18842 33.1382 6.62101ZM33.2752 6.62101C33.2752 6.26162 33.5695 5.96877 33.9393 5.96877C34.309 5.96877 34.6103 6.26162 34.6103 6.62101C34.6103 6.97379 34.309 7.26664 33.9393 7.26664C33.5695 7.26664 33.2752 6.98045 33.2752 6.62101Z" fill="#484266"/>
</svg>
