<svg width="96" height="96" viewBox="0 0 96 96" fill="none" xmlns="http://www.w3.org/2000/svg">
<path d="M75 56C75 57.7205 74.3793 59.2961 73.3495 60.515C74.9644 61.7973 76 63.7777 76 66C76 67.0675 75.761 68.0792 75.3337 68.9845C74.7923 68.5979 74.09 68.2049 73.2362 67.9484C71.7125 67.4907 69.7827 67.492 67.5565 68.6061C67.0626 68.8532 66.8626 69.454 67.1097 69.9479C67.3569 70.4418 67.9576 70.6418 68.4515 70.3946C70.2224 69.5084 71.6263 69.5531 72.6608 69.8639C73.7258 70.1838 74.4787 70.8117 74.8568 71.1923C74.8906 71.2262 74.9262 71.2573 74.9632 71.2854C75.6156 72.1895 76 73.2999 76 74.5C76 77.5376 73.5376 80 70.5 80C69.6201 80 68.7885 79.7934 68.051 79.426C66.9836 80.4035 65.5615 81 64 81C63.3695 81 62.7618 80.9028 62.1909 80.7225L56 84L57.5 73.5L58.083 73.9997C58.1107 73.8345 58.1396 73.6385 58.1714 73.4235C58.3233 72.3933 58.5397 70.9259 59 70.3086L58.5 68.3086C57.7699 67.2034 57 64.4237 57 63C57 61.5945 57.4142 60.2858 58.1272 59.1892C58.1727 59.1522 58.2154 59.1107 58.255 59.0647C60.3163 56.6651 64.0842 57.0699 65.7255 59.0508C66.0778 59.4761 66.7082 59.5352 67.1335 59.1829C67.5588 58.8305 67.6179 58.2001 67.2656 57.7748C65.8481 56.0641 63.3925 55.1668 61.0199 55.4687C61.2914 51.8509 64.3128 49 68 49C71.866 49 75 52.134 75 56Z" fill="#B2A1E6"/>
<rect x="12" y="83.8086" width="72" height="2" fill="#403366"/>
<path d="M43.9194 77.6169C50.2563 83.5779 56.5019 84.236 56.5019 84.236C56.5019 84.236 59.8109 78.8461 59.0391 70.2756C57.1025 71.4837 54.6777 72.9191 51.7536 74.3818C48.7297 75.8501 46.0832 76.897 43.9194 77.6169Z" fill="#8E7CBF"/>
<path d="M54.8122 55.3847C50.0694 45.6304 42.8634 36.6125 37.3143 30.4079L40.0187 24.9511L35.6085 15.7795L30.5231 23.4703C30.1017 23.0929 29.7857 22.8098 29.575 22.6211C27.2685 20.7449 27.0359 20.1568 25.5711 20.8383C24.1063 21.5197 24.339 22.1078 24.3984 25.009C24.4148 25.3085 24.4368 25.7079 24.4697 26.307L15.3231 25.7084L19.7279 34.7802L25.8067 36.0483C27.2554 44.181 29.8784 55.454 34.6212 65.2083C36.9871 69.9856 39.7863 73.5372 42.5361 76.1902C44.7942 75.365 47.635 74.2072 50.7587 72.7335C53.8825 71.2597 56.5016 69.7136 58.5325 68.4001C58.2185 64.5114 57.1781 60.162 54.8122 55.3847Z" fill="#6C5C99"/>
<path d="M25.5848 36.5111L24.5004 25.9999L15 25.5L19.7604 34.9857L25.5848 36.5111Z" fill="#403366"/>
<path d="M37.3764 30.4693L30.4649 23.3904L35.6176 15.7267L39.9971 25.0001L37.3764 30.4693Z" fill="#403366"/>
<rect x="50" y="12" width="38" height="20" rx="1" fill="#E6004C"/>
<path d="M57.994 19.3365V21.9105H60.399V23.3535H57.994V25.9405H56.356V23.3535H53.964V21.9105H56.356V19.3365H57.994Z" fill="#F4F2FF"/>
<path d="M64.872 17.4255C65.34 17.4255 65.7603 17.4949 66.133 17.6335C66.51 17.7679 66.8307 17.9564 67.095 18.199C67.3593 18.4417 67.5608 18.732 67.6995 19.07C67.8425 19.4037 67.914 19.772 67.914 20.175C67.914 20.5217 67.8642 20.8424 67.7645 21.137C67.6692 21.4317 67.537 21.7134 67.368 21.982C67.199 22.2464 67.0018 22.5042 66.7765 22.7555C66.5555 23.0025 66.3193 23.2539 66.068 23.5095L64.2155 25.4075C64.4538 25.3382 64.6878 25.284 64.9175 25.245C65.1515 25.2017 65.3703 25.18 65.574 25.18H67.342C67.5587 25.18 67.7298 25.2407 67.8555 25.362C67.9812 25.479 68.044 25.635 68.044 25.83V27H61.388V26.35C61.388 26.2244 61.414 26.09 61.466 25.947C61.518 25.804 61.609 25.674 61.739 25.557L64.469 22.8075C64.703 22.5735 64.9067 22.3504 65.08 22.138C65.2533 21.9257 65.3963 21.7177 65.509 21.514C65.6217 21.306 65.7062 21.1002 65.7625 20.8965C65.8188 20.6885 65.847 20.4697 65.847 20.24C65.847 19.863 65.756 19.5749 65.574 19.3755C65.3963 19.1719 65.1233 19.07 64.755 19.07C64.6033 19.07 64.4647 19.0917 64.339 19.135C64.2133 19.1784 64.1007 19.2369 64.001 19.3105C63.9013 19.3842 63.8147 19.4709 63.741 19.5705C63.6717 19.6702 63.6153 19.7785 63.572 19.8955C63.5027 20.0905 63.4138 20.2314 63.3055 20.318C63.2015 20.4047 63.0585 20.448 62.8765 20.448C62.8332 20.448 62.7855 20.4459 62.7335 20.4415C62.6858 20.4372 62.636 20.4307 62.584 20.422L61.518 20.2335C61.5873 19.7612 61.7195 19.3495 61.9145 18.9985C62.1138 18.6475 62.3587 18.355 62.649 18.121C62.9437 17.887 63.2795 17.7137 63.6565 17.601C64.0335 17.484 64.4387 17.4255 64.872 17.4255Z" fill="#F4F2FF"/>
<path d="M74.844 23.321H75.819V24.452C75.819 24.5517 75.7844 24.6384 75.715 24.712C75.65 24.7857 75.5547 24.8225 75.429 24.8225H74.844V27H73.089V24.8225H69.28C69.1544 24.8225 69.0395 24.7835 68.9355 24.7055C68.8359 24.6275 68.773 24.53 68.747 24.413L68.539 23.4185L72.92 17.5295H74.844V23.321ZM73.089 20.851C73.089 20.6994 73.0934 20.5369 73.102 20.3635C73.115 20.1859 73.1324 20.0039 73.154 19.8175L70.6515 23.321H73.089V20.851Z" fill="#F4F2FF"/>
<path d="M77.679 25.544H79.499V20.7665C79.499 20.5325 79.5055 20.2877 79.5185 20.032L78.446 20.9225C78.3767 20.9789 78.3074 21.02 78.238 21.046C78.1687 21.0677 78.1015 21.0785 78.0365 21.0785C77.9239 21.0785 77.822 21.0547 77.731 21.007C77.6444 20.955 77.5794 20.9009 77.536 20.8445L76.899 19.9995L79.85 17.523H81.514V25.544H83.074V27H77.679V25.544Z" fill="#F4F2FF"/>
<path d="M49.383 73.398C39.383 67.398 28.0385 37.3228 24.3719 22.3228C22.8693 51.3228 33.6924 65.1448 40.1924 78.3115L49.383 73.398Z" fill="#403366"/>
<path fill-rule="evenodd" clip-rule="evenodd" d="M38.7603 70.8228C38.9166 70.2416 39 69.6305 39 69C39 65.134 35.866 62 32 62C29.1953 62 26.7759 63.6495 25.6589 66.0312C24.5942 65.3772 23.3412 65 22 65C18.134 65 15 68.134 15 72C15 75.866 18.134 79 22 79C22.3445 79 22.6832 78.9751 23.0144 78.927C22.6037 74.7617 25.3005 72.7515 26.8639 72.2744C27.3921 72.1133 27.951 72.4108 28.1122 72.939C28.2734 73.4673 27.9758 74.0262 27.4476 74.1874C26.6414 74.4334 24.8734 75.5889 24.9777 78.3369C24.9978 78.3274 25.0179 78.3179 25.0379 78.3082C25.445 82.6235 29.0782 86 33.5 86C35.0434 86 36.4907 85.5886 37.7383 84.8696L38.1541 84.8498C39.2578 85.5769 40.5795 86 42 86C43.6593 86 45.1837 85.4227 46.3834 84.4579L56 84C52 81 50.2 79.6 49.3 78.9C49.1831 78.8091 49.0813 78.7299 48.9919 78.6606C48.8149 74.9522 45.7522 72 42 72C41.3695 72 40.7584 72.0834 40.1772 72.2397C39.7622 71.7136 39.2864 71.2378 38.7603 70.8228ZM37.9027 73.5689C38.1408 74.0673 37.9298 74.6643 37.4315 74.9023C36.9408 75.1367 35.61 76.2861 36.1121 78.8045C36.2201 79.3461 35.8685 79.8727 35.3269 79.9807C34.7853 80.0887 34.2587 79.7371 34.1507 79.1955C33.4566 75.7139 35.3156 73.6966 36.5694 73.0977C37.0677 72.8596 37.6647 73.0706 37.9027 73.5689Z" fill="#B2A1E6"/>
</svg>
