<svg width="135" height="37" viewBox="0 0 135 37" fill="none" xmlns="http://www.w3.org/2000/svg">
<path d="M39.9345 14.5613L41.5837 14.4419C41.5837 14.9193 41.4659 15.5161 41.4659 16.1129V26.3774C41.4659 27.2129 41.4659 27.8097 41.4659 28.0484C41.4659 28.4064 41.3481 28.6451 41.1125 28.8838C40.8769 29.1226 40.5235 29.2419 39.9345 29.2419H39.8167V30.0774H46.178V28.8838L43.822 29.0032C43.822 28.5258 43.9398 27.929 43.9398 27.2129V22.3193L45.2356 22.2C45.4712 22.2 45.7068 22.2 46.0602 22.2C46.5314 22.2 46.8848 22.2 47.1204 22.3193C47.356 22.4387 47.5916 22.6774 47.7094 22.9161C47.8272 23.2742 47.8272 23.6322 47.8272 24.229H48.8874V19.0967H47.4738L47.5916 21.1258H43.822V17.0677C43.822 16.2322 43.822 15.7548 43.822 15.3967C43.822 15.0387 43.9398 14.8 44.1754 14.5613C44.411 14.3226 44.7644 14.2032 45.2356 14.2032H47.0026C47.945 14.2032 48.7696 14.4419 49.2408 14.9193C49.8298 15.3967 50.0654 16.2322 50.0654 17.5451H51.1256L51.0078 13.2484H39.9345V14.5613Z" fill="#FFB948"/>
<path d="M54.8953 15.7548C55.2487 15.7548 55.6021 15.6355 55.8377 15.2774C56.0733 14.9193 56.3089 14.5613 56.3089 14.2032C56.3089 13.7258 56.1911 13.3677 55.9555 13.129C55.7199 12.7709 55.3665 12.6516 55.0131 12.6516C54.6597 12.6516 54.3063 12.7709 54.0707 13.129C53.8351 13.4871 53.5995 13.8451 53.5995 14.2032C53.5995 14.5613 53.7173 14.9193 53.9529 15.2774C54.3063 15.5161 54.5419 15.7548 54.8953 15.7548Z" fill="#FFB948"/>
<path d="M56.0732 27.8097V18.8581H55.2486C55.1308 19.0968 54.7774 19.2161 54.424 19.3355C54.0706 19.4548 53.3638 19.4548 52.5392 19.4548V20.6484L54.0706 20.529C54.0706 21.0064 53.9528 21.4839 53.9528 21.8419V26.7355C53.9528 27.4516 53.9528 27.929 53.9528 28.2871C53.9528 28.6451 53.835 28.8839 53.5994 29.0032C53.3638 29.2419 53.1282 29.2419 52.657 29.2419V30.1968H57.3691V29.0032H56.0732C56.0732 28.8839 56.0732 28.4064 56.0732 27.8097Z" fill="#FFB948"/>
<path d="M65.9686 18.7387C65.2618 18.7387 64.6728 18.9774 63.966 19.3355C63.377 19.6936 62.788 20.171 62.4346 20.7678C62.4346 20.0516 62.4346 19.3355 62.3168 18.8581H61.4922C61.2565 19.0968 61.0209 19.2161 60.7853 19.3355C60.5497 19.4549 60.1963 19.4549 59.6073 19.4549H58.7827V20.6484L60.3141 20.529C60.3141 20.8871 60.1963 21.2452 60.1963 21.842V26.7355C60.1963 27.4516 60.1963 27.929 60.1963 28.2871C60.1963 28.6452 60.0785 28.8839 59.8429 29.0032C59.6073 29.242 59.3717 29.242 58.9005 29.242V30.1968H63.6126V29.0032H62.199C62.199 28.7645 62.3168 28.2871 62.3168 27.6903V22.5581C62.6702 21.9613 63.1414 21.3645 63.6126 20.8871C64.0838 20.4097 64.6728 20.2903 65.144 20.2903C65.144 20.6484 65.2618 20.8871 65.4974 21.1258C65.733 21.3645 65.9686 21.4839 66.322 21.4839C66.6754 21.4839 66.911 21.3645 67.1466 21.1258C67.3822 20.8871 67.5 20.6484 67.5 20.2903C67.5 19.8129 67.3822 19.4549 67.0288 19.2161C66.7932 18.9774 66.4398 18.7387 65.9686 18.7387Z" fill="#FFB948"/>
<path d="M78.2199 27.4516C77.8665 27.9291 77.3953 28.4065 76.6885 28.7645C75.9817 29.1226 75.2748 29.242 74.568 29.242C73.39 29.242 72.5654 28.7645 71.9764 27.9291C71.3874 26.9742 71.1518 25.7807 71.1518 24.1097L78.8089 23.9904C78.8089 22.9162 78.5733 21.9613 78.2199 21.2452C77.8665 20.5291 77.2775 19.9323 76.5707 19.5742C75.8639 19.2162 75.157 18.9774 74.2146 18.9774C73.1544 18.9774 72.212 19.2162 71.3874 19.8129C70.445 20.171 69.7382 20.8871 69.267 21.842C68.7958 22.7968 68.5602 23.7516 68.5602 24.8258C68.5602 26.0194 68.7958 26.9742 69.267 27.9291C69.7382 28.8839 70.445 29.4807 71.2696 29.9581C72.0942 30.4355 73.0366 30.6742 74.0968 30.6742C74.9214 30.6742 75.8639 30.4355 76.8063 29.9581C77.7487 29.4807 78.4555 28.8839 79.0445 27.9291L78.2199 27.4516ZM72.212 20.6484C72.6832 20.171 73.39 19.9323 74.2146 19.9323C74.9214 19.9323 75.5105 20.171 75.8639 20.7678C76.2173 21.3645 76.4529 21.9613 76.4529 22.7968H71.1518C71.3874 21.842 71.7408 21.1258 72.212 20.6484Z" fill="#FFB948"/>
<path d="M87.5262 24.5871C87.0549 24.3484 86.3481 23.9903 85.6413 23.7516C84.6989 23.3935 83.9921 23.0355 83.5209 22.7968C83.0497 22.4387 82.8141 22.0806 82.8141 21.4839C82.8141 21.0064 83.0497 20.6484 83.2853 20.4097C83.6387 20.171 84.1099 19.9322 84.8167 19.9322C85.6413 19.9322 86.3481 20.2903 86.8194 20.8871C87.2906 21.4839 87.5262 22.2 87.5262 23.0355H88.4686V18.9774H87.2906V19.6935C86.466 19.0968 85.6413 18.8581 84.6989 18.8581C83.7565 18.8581 83.0497 18.9774 82.4607 19.3355C81.8717 19.6935 81.5183 20.171 81.2827 20.6484C81.0471 21.1258 80.9293 21.6032 80.9293 22.0806C80.9293 22.7968 81.0471 23.3935 81.4005 23.871C81.7539 24.3484 82.2251 24.7064 82.6963 24.9451C83.1675 25.1839 83.8743 25.5419 84.5811 25.7806C85.5235 26.1387 86.1125 26.4968 86.5837 26.7355C87.0549 26.9742 87.1727 27.4516 87.1727 27.929C87.1727 28.4064 86.9371 28.8839 86.4659 29.1226C85.9947 29.3613 85.5235 29.4806 84.9345 29.4806C84.3455 29.4806 83.8743 29.3613 83.4031 29.1226C82.9319 28.8839 82.5785 28.5258 82.2251 28.0484C81.9895 27.571 81.8717 27.0935 81.8717 26.4968H80.9293L81.0471 30.5548H82.2251L82.1073 29.9581C82.4607 30.1968 83.0497 30.4355 83.5209 30.5548C84.1099 30.6742 84.6989 30.7935 85.2879 30.7935C85.9947 30.7935 86.5837 30.6742 87.1727 30.4355C87.7617 30.1968 88.233 29.8387 88.5864 29.3613C88.9398 28.8839 89.1754 28.2871 89.1754 27.571C89.1754 26.9742 89.0576 26.3774 88.7042 25.9C88.4686 25.1839 87.9974 24.8258 87.5262 24.5871Z" fill="#FFB948"/>
<path d="M97.8927 27.8097C97.6571 28.2871 97.3037 28.5258 96.9503 28.7645C96.5969 29.0033 96.2435 29.1226 95.7723 29.1226C95.1833 29.1226 94.8299 28.8839 94.5943 28.4065C94.3587 27.9291 94.2409 27.2129 94.2409 26.1387V20.2904H97.8927V19.0968H94.2409V15.9936H93.2984C93.0629 16.8291 92.7094 17.5452 92.2382 18.142C91.767 18.7387 91.178 19.0968 90.4712 18.9774V20.171H92.1204V26.2581C92.1204 29.0033 93.1806 30.4355 95.1833 30.4355C96.4791 30.4355 97.6571 29.7194 98.5995 28.1678L97.8927 27.8097Z" fill="#FFB948"/>
<path d="M107.552 19.4549C106.728 18.9774 105.785 18.7387 104.843 18.7387C103.783 18.7387 102.958 18.9774 102.133 19.5742C101.309 20.171 100.72 20.8871 100.249 21.842C99.7775 22.7968 99.5418 23.871 99.5418 24.9452C99.5418 26.0194 99.7775 26.9742 100.249 27.929C100.72 28.7645 101.309 29.4807 102.133 29.9581C102.958 30.4355 103.9 30.6742 104.843 30.6742C105.903 30.6742 106.728 30.4355 107.552 29.8387C108.377 29.242 108.966 28.5258 109.437 27.571C109.908 26.6161 110.144 25.542 110.144 24.4678C110.144 23.3936 109.908 22.4387 109.437 21.6032C109.084 20.6484 108.377 20.0516 107.552 19.4549ZM107.317 28.1678C106.846 29.0032 106.021 29.3613 104.961 29.3613C103.9 29.3613 103.076 28.8839 102.487 27.929C101.898 26.9742 101.662 25.7807 101.662 24.3484C101.662 23.0355 101.898 22.0807 102.487 21.2452C102.958 20.4097 103.783 19.9323 104.843 19.9323C105.903 19.9323 106.728 20.4097 107.199 21.4839C107.788 22.4387 108.024 23.7516 108.024 25.0645C108.024 26.3774 107.788 27.4516 107.317 28.1678Z" fill="#FFB948"/>
<path d="M121.924 27.6903V23.7516C121.924 22.0807 121.571 20.7678 120.982 19.9323C120.393 19.0968 119.45 18.7387 118.154 18.7387C117.565 18.7387 116.976 18.8581 116.387 19.0968C115.798 19.3355 115.209 19.6936 114.738 20.171C114.738 19.5742 114.62 19.0968 114.62 18.8581H113.914C113.678 19.0968 113.442 19.2161 113.089 19.3355C112.736 19.4549 112.147 19.4549 111.204 19.4549V20.6484L112.736 20.529C112.736 20.8871 112.618 21.2452 112.618 21.842V26.6161C112.618 27.3323 112.618 27.8097 112.5 28.1678C112.5 28.4065 112.382 28.6452 112.147 28.8839C112.029 29.1226 111.675 29.1226 111.204 29.1226V30.0774H115.798V28.8839H114.503C114.503 28.6452 114.503 28.1678 114.503 27.571V22.2C114.503 21.842 114.503 21.6032 114.503 21.4839C114.856 21.1258 115.209 20.7678 115.798 20.529C116.27 20.2903 116.859 20.171 117.33 20.171C118.154 20.171 118.743 20.4097 119.097 21.0065C119.45 21.6032 119.686 22.5581 119.686 23.7516V26.6161C119.686 27.3323 119.686 27.8097 119.686 28.1678C119.686 28.5258 119.568 28.7645 119.332 28.8839C119.097 29.1226 118.861 29.1226 118.39 29.1226V30.0774H122.984V28.8839H121.688C121.806 28.6452 121.924 28.2871 121.924 27.6903Z" fill="#FFB948"/>
<path d="M134.293 27.4516C133.94 27.9291 133.351 28.4065 132.644 28.7645C131.937 29.1226 131.23 29.242 130.524 29.242C129.346 29.242 128.521 28.7645 127.932 27.9291C127.343 26.9742 127.107 25.7807 127.107 24.1097L134.764 23.9904C134.764 22.9162 134.529 21.9613 134.175 21.2452C133.822 20.5291 133.233 19.9323 132.526 19.5742C131.819 19.2162 131.113 18.9774 130.17 18.9774C129.11 18.9774 128.168 19.2162 127.343 19.8129C126.518 20.4097 125.812 21.1258 125.34 21.9613C124.869 22.9162 124.634 23.871 124.634 24.9452C124.634 26.1387 124.869 27.0936 125.34 28.0484C125.812 29.0033 126.518 29.6 127.343 30.0774C128.168 30.5549 129.11 30.7936 130.052 30.7936C130.877 30.7936 131.819 30.5549 132.762 30.0774C133.704 29.6 134.411 29.0033 135 28.0484L134.293 27.4516ZM128.285 20.6484C128.757 20.171 129.463 19.9323 130.288 19.9323C130.995 19.9323 131.584 20.171 131.937 20.7678C132.291 21.3645 132.526 21.9613 132.526 22.7968H127.225C127.343 21.842 127.696 21.1258 128.285 20.6484Z" fill="#FFB948"/>
<path d="M20.4974 9.19032C20.4974 9.19032 20.4974 10.9806 19.7906 12.771C19.7906 12.771 19.7906 12.8903 19.6728 12.8903C19.3194 13.8452 18.377 14.5613 17.3167 14.5613C17.0811 14.5613 16.8455 14.5613 16.6099 14.4419H16.4921C16.4921 14.4419 16.4921 14.4419 16.3743 14.4419C15.0785 13.9645 14.1361 12.2935 15.5497 10.0258C18.4948 5.0129 15.9031 2.50645 12.4869 0C12.4869 0 13.4293 6.44516 6.12565 12.1742C4.24084 7.75806 0 5.13226 0 5.13226C3.41623 11.6968 2.12042 15.6355 0.824607 18.8581C0.235602 20.2903 0 22.0806 0 23.7516C0 23.7516 0 23.7516 0 23.871C0 23.871 0 23.871 0 23.9903C0 31.1516 5.77225 37 12.9581 37C16.6099 37 20.0262 35.4484 22.3822 32.9419C23.5602 31.7484 24.5026 30.3161 25.0916 28.6452C25.5628 27.3323 25.9162 25.7806 25.9162 24.229V24.1097C26.1518 19.5742 24.5026 12.2935 20.4974 9.19032ZM19.7906 24.5871C19.7906 24.8258 19.7906 25.0645 19.6728 25.3032C19.555 25.7806 19.555 26.2581 19.555 26.6161C19.555 26.9742 19.3194 27.2129 19.2016 27.571C18.8482 28.0484 18.7304 28.5258 18.7304 29.0032C18.7304 29.2419 18.6126 29.3613 18.6126 29.6C18.6126 29.7194 18.4948 29.7194 18.4948 29.7194C18.0236 30.1968 17.5523 30.5548 17.0811 31.0323C16.6099 31.5097 16.1387 31.8677 15.5497 32.1065C14.9607 32.4645 14.4895 32.5839 13.7827 32.5839C13.4293 32.5839 13.1937 32.5839 12.9581 32.7032C12.3691 32.9419 11.8979 33.0613 11.1911 33.1806C10.8377 33.1806 10.6021 33.1806 10.2487 33.0613C10.0131 32.9419 9.77748 32.9419 9.42408 32.9419C9.07068 32.9419 8.83507 32.9419 8.48167 32.8226C8.24607 32.7032 8.01047 32.7032 7.77487 32.7032C7.65707 32.7032 7.53926 32.5839 7.42146 32.4645C7.30366 32.3452 7.30366 32.2258 7.18586 32.1065C7.06806 31.8677 7.06806 31.8677 7.30366 31.7484C7.53926 31.629 7.89267 31.3903 8.12827 31.271C8.48167 31.0323 8.83508 30.9129 9.18848 30.9129C9.54188 30.7935 9.89528 30.6742 10.1309 30.3161C10.4843 29.9581 10.8377 29.9581 11.3089 29.8387C12.0157 29.7194 12.7225 29.3613 13.4293 29.1226C13.5471 29.1226 13.6649 29.0032 13.7827 28.8839C14.2539 28.4065 14.7251 27.929 15.1963 27.4516C15.3141 27.3323 15.4319 27.0935 15.5497 26.8548C15.7853 26.6161 15.9031 26.2581 16.0209 26.0194C16.0209 25.9 16.1387 25.9 16.1387 25.7806C16.1387 25.5419 16.1387 25.1839 16.1387 24.9452C16.0209 24.3484 16.0209 23.7516 16.0209 23.1548C16.0209 22.7968 15.9031 22.4387 15.6675 22.0806C15.4319 21.7226 15.1963 21.3645 15.0785 21.0065C14.9607 20.7677 14.8429 20.6484 14.6073 20.6484C13.9005 20.4097 13.0759 20.4097 12.2513 20.4097C11.7801 20.4097 11.3089 20.6484 10.8377 20.7677C10.8377 20.7677 10.7199 20.7677 10.7199 20.8871C10.3665 21.2452 10.0131 21.4839 9.77748 21.8419C9.77748 21.8419 9.65968 21.9613 9.65968 22.0806C9.54188 22.5581 9.42408 23.1548 9.42408 23.7516C9.42408 24.1097 9.42408 24.5871 9.65968 24.9452C9.77748 25.0645 9.89528 25.3032 10.0131 25.4226C10.1309 25.5419 10.2487 25.5419 10.3665 25.5419C10.6021 25.4226 10.8377 25.3032 11.0733 25.1839C10.9555 24.8258 10.8377 24.3484 10.7199 23.9903C11.1911 23.6323 11.7801 23.6323 12.3691 23.6323C12.6047 23.6323 12.8403 23.7516 13.0759 23.7516C13.0759 23.7516 13.0759 23.7516 13.1937 23.7516C13.6649 24.3484 14.0183 24.9452 14.0183 25.7806C14.0183 26.1387 13.9005 26.3774 13.9005 26.7355C13.9005 26.7355 13.9005 26.8548 13.7827 26.8548C13.4293 27.2129 12.9581 27.571 12.6047 27.8097C12.4869 27.8097 12.4869 27.929 12.3691 27.929C11.7801 28.0484 11.0733 28.1677 10.4843 28.4065H10.3665C10.0131 28.5258 9.54188 28.5258 9.18848 28.1677C9.07068 28.0484 9.07068 27.929 8.95288 27.929C8.83508 27.8097 8.71727 27.571 8.59947 27.571C8.01047 27.0935 7.42146 26.6161 7.06806 25.9C6.95026 25.5419 6.59686 25.3032 6.36125 24.9452C6.24345 24.8258 6.12565 24.5871 6.12565 24.4677C6.00785 23.7516 6.12565 22.9161 6.00785 22.2C6.00785 22.0806 5.89005 21.8419 5.89005 21.7226C5.77225 21.4839 5.89005 21.4839 6.00785 21.3645C6.36125 21.1258 6.59686 21.0065 6.95026 20.7677C7.18586 20.529 7.30366 20.2903 7.53926 20.0516C7.77487 19.6935 8.12827 19.4548 8.48167 19.2161C9.18848 18.7387 9.89528 18.2613 10.6021 17.7839C10.9555 17.6645 11.3089 17.5452 11.6623 17.4258C11.7801 17.4258 11.8979 17.5452 11.8979 17.5452C12.1335 17.7839 12.1335 17.9032 12.4869 17.6645C12.8403 17.4258 13.1937 17.4258 13.5471 17.7839C13.6649 17.9032 13.9005 17.9032 14.0183 17.9032C14.3717 17.9032 14.6073 17.9032 14.9607 17.9032C15.0785 17.9032 15.1963 17.9032 15.1963 18.0226C15.3141 18.1419 15.4319 18.2613 15.5497 18.2613C15.6675 18.2613 15.7853 18.2613 15.9031 18.3806C16.0209 18.6194 16.1387 18.6194 16.3743 18.6194C16.4921 18.6194 16.7277 18.5 16.8455 18.5C16.9633 18.5 17.0811 18.5 17.0811 18.6194C17.4345 19.0968 17.9058 19.4548 18.2592 19.9323C18.6126 20.4097 18.966 20.7677 19.3194 21.2452C19.4372 21.3645 19.4372 21.4839 19.4372 21.6032C19.555 22.2 19.6728 22.6774 19.7906 23.2742C19.7906 23.5129 19.9084 23.7516 20.0262 23.9903C19.9084 24.1097 19.9084 24.3484 19.7906 24.5871Z" fill="#FFB948"/>
</svg>
