<svg width="139" height="30" viewBox="0 0 139 30" fill="none" xmlns="http://www.w3.org/2000/svg">
<g clip-path="url(#clip0)">
<path d="M69.3826 6.75658H65.9652V11.2175H63.7478H63.0956H60.4347V10.4348C60.4608 8.97398 61.0869 7.90441 63.0434 7.90441H63.826V4.7218H62.3652C58.8956 4.7218 57.0173 6.80876 57.0173 10.4609V11.2175H54.7217H51.5391V6.75658H48.1217V11.2175H45.9043V13.8522H48.1217V23.374H51.5391V13.8522H54.7217H57.0173V23.374H60.4347V13.8522H63.0956H63.7478H65.9652V23.374H69.3826V13.8522H71.9652V11.2175H69.3826V6.75658Z" fill="white"/>
<path d="M82.5825 12.6784C81.7216 11.4523 80.0782 10.9305 78.6695 10.9305C75.539 10.9305 72.6956 13.3566 72.6956 17.2697C72.6956 21.1827 75.539 23.6088 78.6695 23.6088C80.026 23.6088 81.7216 23.061 82.5825 21.861V23.374H85.9999V11.2175H82.5825V12.6784ZM79.3216 20.4262C77.5999 20.4262 76.1651 19.0436 76.1651 17.2697C76.1651 15.4697 77.5999 14.1392 79.3216 14.1392C80.9129 14.1392 82.4782 15.3914 82.4782 17.2697C82.4782 19.1218 80.9912 20.4262 79.3216 20.4262Z" fill="white"/>
<path d="M94.3477 14.0869C95.339 14.0869 96.3563 14.5565 96.9042 15.313L99.4607 13.513C98.3129 11.9478 96.539 10.9043 94.3216 10.9043C90.7737 10.9043 87.6433 13.3826 87.6433 17.2434C87.6433 21.1043 90.7737 23.6086 94.3216 23.6086C96.539 23.6086 98.3129 22.5913 99.4607 20.9999L96.9042 19.1999C96.3563 19.9565 95.339 20.426 94.3477 20.426C92.4172 20.426 91.1129 19.0434 91.1129 17.2434C91.1129 15.4695 92.4172 14.0869 94.3477 14.0869Z" fill="white"/>
<path d="M105.982 6.75659H102.565V11.2175H100.348V13.8522H102.565V23.374H105.982V13.8522H108.565V11.2175H105.982V6.75659Z" fill="white"/>
<path d="M113.678 11.2174H110.261V23.3739H113.678V11.2174Z" fill="white"/>
<path d="M111.956 4.95654C110.783 4.95654 109.791 5.8435 109.791 6.99132C109.791 8.13915 110.783 9.05219 111.956 9.05219C113.156 9.05219 114.122 8.13915 114.122 6.99132C114.122 5.8435 113.156 4.95654 111.956 4.95654Z" fill="white"/>
<path d="M122.026 14.0869C123.017 14.0869 124.035 14.5565 124.582 15.313L127.139 13.513C125.991 11.9478 124.217 10.9043 122 10.9043C118.452 10.9043 115.322 13.3826 115.322 17.2434C115.322 21.1043 118.452 23.6086 122 23.6086C124.217 23.6086 125.991 22.5913 127.139 20.9999L124.582 19.1999C124.035 19.9565 123.017 20.426 122.026 20.426C120.095 20.426 118.791 19.0434 118.791 17.2434C118.791 15.4695 120.095 14.0869 122.026 14.0869Z" fill="white"/>
<path d="M135.2 16.1999L133.191 15.6782C132.513 15.4956 131.991 15.2086 131.991 14.6347C131.991 14.0086 132.617 13.6173 133.4 13.6173C134.209 13.6173 134.887 14.0608 134.887 14.8695H138.148C138.174 11.9999 135.565 10.9043 133.348 10.9043C130.53 10.9043 128.574 12.6521 128.574 14.5304C128.574 15.8086 128.991 17.5565 132.122 18.3913L133.739 18.7826C134.652 19.0173 135.07 19.2782 135.07 19.7999C135.07 20.5043 134.313 20.9217 133.322 20.9217C132.122 20.9217 131.522 20.1652 131.522 19.4608H128.313C128.339 22.1478 130.817 23.6086 133.374 23.6086C135.878 23.6086 138.487 22.3565 138.487 19.7999C138.487 18.8086 138.122 16.9826 135.2 16.1999Z" fill="white"/>
<path d="M24.0172 22.7999L19.7128 30.026L15.278 22.7999H8.73022L14.7302 5.86951H19.7128H25.2172L30.6954 22.7999H24.0172Z" fill="#1B2D33"/>
<path d="M27.3303 2.97427L34.6869 25.7221H25.4521L23.4695 28.6177H38.6782L29.4434 0.0786133H22.5042L19.7129 2.97427L16.6869 0.0786133H10.6086L0.512939 28.6177H15.826L13.8434 25.7221H4.60859L12.6695 2.97427H27.3303Z" fill="#D47559"/>
</g>
<defs>
<clipPath id="clip0">
<rect width="137.974" height="30" fill="white" transform="translate(0.512939)"/>
</clipPath>
</defs>
</svg>
