<svg width="344" height="160" viewBox="0 0 344 160" fill="none" xmlns="http://www.w3.org/2000/svg">
<path d="M84 110.926V98.6656H68.0845V28H48.7464L1 96.7926V110.926H53.7093V138H68.0845V110.926H84ZM15.2041 98.6656L53.7093 42.4737V98.6656H15.2041Z" fill="#403366"/>
<path d="M343 110.926V98.6656H327.085V28H307.746L260 96.7926V110.926H312.709V138H327.085V110.926H343ZM274.204 98.6656L312.709 42.4737V98.6656H274.204Z" fill="#403366"/>
<path d="M143.665 55.1881C142.887 65.7659 147.248 75.4441 152.391 77.9001L152.385 77.9255C155.564 79.0872 162.794 80.8314 167.029 73.2601C169.147 69.4745 168.548 60.4146 166.255 52.538C162.828 40.7654 160.936 36.4309 156.064 36.0727C149.779 35.6107 144.442 44.6103 143.665 55.1881Z" fill="#6C5C99"/>
<path d="M127.243 96.2038C122.753 94.3047 118.184 88.5649 118.394 79.3736C118.603 70.1822 123.203 59.7099 128.58 59.8324C132.636 59.9247 133.829 63.4246 137.045 72.8563L137.32 73.6636C139.613 80.381 141.167 88.17 139.524 91.5407C136.238 98.282 129.999 97.0913 127.239 96.226L127.243 96.2038Z" fill="#6C5C99"/>
<path d="M130.145 135.448C134.248 147.509 154.746 151.384 167.67 135.47C169.084 133.729 171.916 133.729 173.33 135.47C186.253 151.384 206.752 147.509 210.854 135.448C218.67 112.473 184.434 87.9896 170.5 88.0001C156.566 88.0106 122.33 112.473 130.145 135.448Z" fill="#6C5C99"/>
<path d="M216.77 96.3925C221.302 94.5962 226 88.9618 226 79.7681C226 70.5743 221.64 60.0001 216.261 60.0001C212.204 60.0001 210.931 63.472 207.502 72.828L207.208 73.6288C204.764 80.2923 203.032 88.0439 204.598 91.4511C207.73 98.2655 213.994 97.2171 216.773 96.4149L216.77 96.3925Z" fill="#6C5C99"/>
<path d="M200.349 55.2939C201.126 65.8611 196.765 75.5299 191.621 77.9838L191.627 78.0092C188.448 79.17 181.218 80.9129 176.983 73.3495C174.866 69.5678 175.466 60.5169 177.759 52.6481C181.187 40.8869 183.079 36.5566 187.952 36.1984C194.236 35.7365 199.573 44.7266 200.349 55.2939Z" fill="#6C5C99"/>
<path d="M182.31 73.4329C184.086 76.6261 186.387 78.1737 188.695 78.8083C185.08 79.6288 179.725 79.5722 176.31 73.4329C174.19 69.6225 174.785 60.5059 177.075 52.581C180.496 40.736 182.386 36.3751 187.259 36.0169C188.445 35.9297 189.598 36.182 190.694 36.7203C187.583 38.3819 185.822 43.0676 183.075 52.581C180.785 60.5059 180.19 69.6225 182.31 73.4329Z" fill="#403366"/>
<path d="M151.808 77.9342C146.665 75.4754 142.309 65.7788 143.091 55.1783C143.874 44.5778 149.216 35.5568 155.5 36.0169C156.726 36.1066 157.763 36.4487 158.683 37.0983C153.881 39.2807 150.151 46.9332 149.507 55.6548C148.725 66.2553 153.081 75.9519 158.224 78.4108L158.217 78.4362C158.545 78.5561 158.916 78.6821 159.322 78.8035C156.374 79.3736 153.506 78.5831 151.802 77.9597L151.808 77.9342Z" fill="#403366"/>
<path d="M118.007 79.3706C117.798 88.562 122.366 94.3018 126.856 96.2008L126.852 96.2231C128.428 96.7172 131.139 97.3174 133.786 96.4861C133.444 96.4008 133.13 96.3103 132.852 96.2231L132.856 96.2008C128.366 94.3018 123.798 88.562 124.007 79.3706C124.175 71.9673 127.193 63.7328 131.17 60.8733C130.344 60.1829 129.394 59.8568 128.193 59.8294C122.816 59.707 118.216 70.1793 118.007 79.3706Z" fill="#403366"/>
<path d="M151.377 145.649C145.139 144.528 140.048 140.791 138.21 135.448C130.981 114.434 159.328 92.1744 175 88.5207C173.531 88.1781 172.172 87.9991 170.965 88C156.875 88.0105 122.255 112.473 130.158 135.448C132.745 142.968 141.776 147.305 151.377 145.649Z" fill="#403366"/>
<path d="M214.504 96.955C212.611 96.2867 210.773 94.8564 209.429 92.0988C207.786 88.7281 209.34 80.9391 211.632 74.2217L211.908 73.4144C214.511 65.7777 215.789 62.0298 218.334 60.8308C217.468 60.2771 216.559 59.9798 215.626 60.0011C211.571 60.0934 210.377 63.5933 207.162 73.025L206.886 73.8323C204.594 80.5497 203.04 88.3387 204.683 91.7094C207.19 96.8524 211.415 97.3787 214.504 96.955Z" fill="#403366"/>
<path d="M149.677 32.0896C150.729 29.7673 155.406 27.4754 159.598 31.5279C159.598 31.5279 157.749 28.7135 157.266 23.5848C157 20.767 157.01 18.1431 157.072 16.3505C157.103 15.464 156.108 14.9863 155.516 15.6474C154.22 17.0967 152.435 19.4613 151.112 22.6493C148.782 28.2679 149.677 32.0896 149.677 32.0896Z" fill="#B2A1E6"/>
<path d="M122.27 56.7481C123.079 54.3301 126.863 52.2865 131.45 55.8873C131.45 55.8873 128.476 51.4816 127.425 47.8218C126.836 45.7714 126.909 43.488 127.087 41.8762C127.181 41.0316 126.358 40.4917 125.773 41.1076C124.719 42.2165 123.384 44.1183 122.464 47.1976C120.723 53.0258 122.27 56.7481 122.27 56.7481Z" fill="#B2A1E6"/>
<path d="M211.647 55.8873C216.233 52.2865 220.018 54.3301 220.826 56.7481C220.826 56.7481 222.374 53.0258 220.633 47.1976C219.713 44.1183 218.378 42.2165 217.324 41.1076C216.738 40.4917 215.916 41.0316 216.01 41.8762C216.188 43.488 216.261 45.7714 215.672 47.8218C214.62 51.4816 211.647 55.8873 211.647 55.8873Z" fill="#B2A1E6"/>
<path d="M193.42 32.0896C192.367 29.7673 187.691 27.4754 183.499 31.5279C183.499 31.5279 185.348 28.7135 185.831 23.5848C186.097 20.767 186.087 18.1431 186.025 16.3505C185.994 15.464 186.989 14.9863 187.58 15.6474C188.877 17.0967 190.662 19.4613 191.984 22.6493C194.315 28.2679 193.42 32.0896 193.42 32.0896Z" fill="#B2A1E6"/>
</svg>
