<svg width="344" height="160" fill="none" xmlns="http://www.w3.org/2000/svg"><path d="M84 110.926v-12.26H68.085V28H48.746L1 96.793v14.133h52.71V138h14.375v-27.074H84zm-68.796-12.26L53.71 42.474v56.192H15.204zM343 110.926v-12.26h-15.915V28h-19.339L260 96.793v14.133h52.709V138h14.376v-27.074H343zm-68.796-12.26l38.505-56.192v56.192h-38.505z" fill="#403366"/><path d="M143.665 55.188c-.778 10.578 3.583 20.256 8.726 22.712l-.006.025c3.179 1.162 10.409 2.906 14.644-4.665 2.118-3.785 1.519-12.845-.774-20.722-3.427-11.773-5.319-16.107-10.191-16.465-6.285-.462-11.622 8.537-12.399 19.115zm-16.422 41.016c-4.49-1.9-9.059-7.64-8.849-16.83.209-9.192 4.809-19.664 10.186-19.542 4.056.093 5.249 3.593 8.465 13.024l.275.808c2.293 6.717 3.847 14.506 2.204 17.877-3.286 6.741-9.525 5.55-12.285 4.685l.004-.022zm2.902 39.244c4.103 12.061 24.601 15.936 37.525.022 1.414-1.741 4.246-1.741 5.66 0 12.923 15.914 33.422 12.039 37.524-.022C218.67 112.473 184.434 87.99 170.5 88c-13.934.01-48.17 24.473-40.355 47.448zm86.625-39.056c4.532-1.796 9.23-7.43 9.23-16.624C226 70.574 221.64 60 216.261 60c-4.057 0-5.33 3.472-8.759 12.828l-.294.8c-2.444 6.664-4.176 14.416-2.61 17.823 3.132 6.815 9.396 5.766 12.175 4.964l-.003-.023zm-16.421-41.098c.777 10.567-3.584 20.236-8.728 22.69l.006.025c-3.179 1.161-10.409 2.904-14.644-4.66-2.117-3.781-1.517-12.832.776-20.7 3.428-11.762 5.32-16.092 10.193-16.45 6.284-.462 11.621 8.528 12.397 19.095z" fill="#6C5C99"/><path d="M182.31 73.433c1.776 3.193 4.077 4.74 6.385 5.375-3.615.82-8.97.764-12.385-5.375-2.12-3.81-1.525-12.927.765-20.852 3.421-11.845 5.311-16.206 10.184-16.564 1.186-.087 2.339.165 3.435.703-3.111 1.662-4.872 6.348-7.619 15.861-2.29 7.925-2.885 17.041-.765 20.852zm-30.502 4.501c-5.143-2.459-9.499-12.155-8.717-22.756.783-10.6 6.125-19.621 12.409-19.161 1.226.09 2.263.432 3.183 1.081-4.802 2.183-8.532 9.835-9.176 18.557-.782 10.6 3.574 20.297 8.717 22.756l-.007.025c.328.12.699.246 1.105.367-2.948.57-5.816-.22-7.52-.843l.006-.026zm-33.801 1.436c-.209 9.192 4.359 14.932 8.849 16.83l-.004.023c1.576.494 4.287 1.094 6.934.263a16.334 16.334 0 0 1-.934-.263l.004-.022c-4.49-1.9-9.058-7.639-8.849-16.83.168-7.404 3.186-15.638 7.163-18.498-.826-.69-1.776-1.016-2.977-1.044-5.377-.122-9.977 10.35-10.186 19.542zm33.37 66.279c-6.238-1.121-11.329-4.858-13.167-10.201-7.229-21.014 21.118-43.274 36.79-46.927-1.469-.343-2.828-.522-4.035-.521-14.09.01-48.71 24.473-40.807 47.448 2.587 7.52 11.618 11.857 21.219 10.201zm63.127-48.694c-1.893-.668-3.731-2.099-5.075-4.856-1.643-3.37-.089-11.16 2.203-17.877l.276-.808c2.603-7.636 3.881-11.384 6.426-12.583-.866-.554-1.775-.851-2.708-.83-4.055.092-5.249 3.592-8.464 13.024l-.276.807c-2.292 6.718-3.846 14.507-2.203 17.877 2.507 5.143 6.732 5.67 9.821 5.246z" fill="#403366"/><path d="M149.677 32.09c1.052-2.323 5.729-4.615 9.921-.562 0 0-1.849-2.814-2.332-7.943-.266-2.818-.256-5.442-.194-7.235.031-.886-.964-1.364-1.556-.703a24.978 24.978 0 0 0-4.404 7.002c-2.33 5.619-1.435 9.44-1.435 9.44zM122.27 56.748c.809-2.418 4.593-4.462 9.18-.86 0 0-2.974-4.406-4.025-8.066-.589-2.05-.516-4.334-.338-5.946.094-.844-.729-1.384-1.314-.768-1.054 1.109-2.389 3.01-3.309 6.09-1.741 5.828-.194 9.55-.194 9.55zm89.377-.861c4.586-3.6 8.371-1.557 9.179.861 0 0 1.548-3.722-.193-9.55-.92-3.08-2.255-4.981-3.309-6.09-.586-.616-1.408-.076-1.314.768.178 1.612.251 3.895-.338 5.946-1.052 3.66-4.025 8.065-4.025 8.065zM193.42 32.09c-1.053-2.323-5.729-4.615-9.921-.562 0 0 1.849-2.814 2.332-7.943.266-2.818.256-5.442.194-7.235-.031-.886.964-1.364 1.555-.703a24.933 24.933 0 0 1 4.404 7.002c2.331 5.619 1.436 9.44 1.436 9.44z" fill="#B2A1E6"/></svg>