<svg width="33" height="32" fill="none" xmlns="http://www.w3.org/2000/svg"><path fill="#161326" d="M0 0h33v32H0z"/><path d="M5.916 2l6.752 5.13c-2.646 3.6-4.562 7.74-5.292 12.15l2.19-.45c-.11.432-.22 1.253-.329 2.074a48.305 48.305 0 0 1-.219 1.526c-1.095-.99-2.372-1.71-3.74-2.25L4 16.4l2.828-3.96L5.916 2z" fill="#F4F2FF"/><path d="M14.949 17.3l-5.2-2.61c1.094 2.79 1.459 3.15 5.2 2.61z" fill="#F4F2FF"/><path fill-rule="evenodd" clip-rule="evenodd" d="M27.084 2l-.912 10.44L29 16.4l-1.277 3.78c-5.07 1.886-6.733 5.788-7.748 8.169-.1.232-.192.45-.282.651h-6.295l-.821-1.89c.456-4.41 2.92-10.08 7.025-14.31l-3.285.63c2.02-5.055 3.774-6.33 8.187-9.536A234.58 234.58 0 0 0 27.084 2zM14.493 23.96l2.007 2.88 2.007-2.88h-4.014zm3.467-6.66l5.2-2.61c-1.094 2.79-1.46 3.15-5.2 2.61z" fill="#F4F2FF"/></svg>