<svg width="103" height="70" fill="none" xmlns="http://www.w3.org/2000/svg"><path fill-rule="evenodd" clip-rule="evenodd" d="M68.207 32.395c.424-1.41 1.146-5.284 1.202-8.047.043-1.852-.269-4.643-.679-7.136a56.312 56.312 0 0 0-.65-3.29c-.368-1.61-1.344-4.315-2.66-6.523-.891-1.481-1.924-2.635-3.027-3.504a19.282 19.282 0 0 0-4.824-2.748A19.454 19.454 0 0 0 54.98.363c-2.136-.498-4.71-.47-6.946 0a18.78 18.78 0 0 0-2.574.798 19.283 19.283 0 0 0-4.824 2.749c-1.104.868-2.136 2.022-3.028 3.503-1.315 2.208-2.291 4.914-2.673 6.51a58.62 58.62 0 0 0-.651 3.29c-.424 2.477-.736 5.269-.693 7.12.056 2.764.778 6.638 1.202 8.047.198.656 1.175 2.849 2.264 4.8a61.29 61.29 0 0 0 2.603 4.173l3.72 5.241s2.56 3.262 5.39 4.686c.863.385 1.81.655 2.772.655.92 0 1.854-.27 2.702-.655 2.844-1.424 5.39-4.686 5.39-4.686l3.706-5.227s1.358-1.965 2.603-4.172c1.09-1.952 2.066-4.145 2.264-4.8zm-23.992-2.293c1.032.911 1.881 2.022 2.574 3.176 1.738 2.857 2.565 5.895 2.9 7.13.075.273.125.457.156.532-.41.043-2.348.214-4.64-.484-1.867-.57-3.99-1.823-5.588-3.404-1.471-1.438-2.617-3.375-3.197-5.355-.594-2.065-.58-4.145-.552-4.828.339.18.797.235 1.392.307.774.094 1.779.216 3.05.675 1.288.47 3.028 1.496 3.905 2.25zm21.542-2.925c.594-.073 1.05-.129 1.389-.308.042.683.056 2.777-.538 4.828-.58 1.98-1.74 3.93-3.197 5.355-1.613 1.581-3.72 2.82-5.588 3.39-2.291.698-4.23.527-4.64.484.026-.068.068-.225.129-.456.313-1.18 1.138-4.286 2.913-7.192.693-1.154 1.528-2.279 2.574-3.176.878-.755 2.617-1.78 3.905-2.25 1.278-.46 2.281-.582 3.053-.675zM3.755 63.978H2.682L0 69.95h1.073l.912-2.041h2.468l.965 2.041h1.073l-2.736-5.97zM2.36 67.04l.859-1.837.804 1.837H2.36z" fill="#484266"/><path d="M13.25 64.03h.859v5.052h4.077l-.912.765h-4.023V64.03zm11.642 0h1.02v5.817h-1.02V64.03zm11.856 2.5l-.859.766h-1.61v-.766h2.469z" fill="#484266"/><path d="M32.778 69.898h4.506v-.868h-3.54v-4.133h3.54v-.868h-4.506v5.869zm69.632-3.368l-.805.766h-1.61v-.766h2.415zm-37.123-2.5l-1.449 4.541-1.716-4.184-.108-.358h-.643l-.161.358-1.717 4.235-1.448-4.593h-.912l1.877 5.869h.912l1.77-4.389 1.771 4.338v.05h.912v-.05l1.824-5.817h-.912z" fill="#484266"/><path fill-rule="evenodd" clip-rule="evenodd" d="M75.587 63.978h1.073l2.79 5.971h-1.074l-.965-2.041h-2.468l-.912 2.041h-1.073l2.63-5.97zm.537 1.225l-.805 1.837h1.663l-.858-1.837z" fill="#484266"/><path d="M90.928 67.067l.002-.001a.737.737 0 0 0 .107-.077c.268-.306.483-.714.483-1.173 0-.868-.644-1.735-1.824-1.735h-3.433v5.868h.911v-5.103h2.522c.75 0 1.073.51 1.073 1.02 0 .256-.108.511-.268.715-.162.204-.43.306-.752.306h-2.36v.715h1.824L90.715 70h.966l-1.556-2.551c.268-.052.537-.205.697-.307a.727.727 0 0 1 .106-.075zm-45.49-3.037l3.916 4.745V64.03h.912v5.869h-.912l-3.916-4.746v4.746h-.966V64.03h.966zm57.562 0h-4.56v5.868H103v-.868h-3.54v-4.133H103v-.868z" fill="#484266"/></svg>