<svg width="77" height="55" fill="none" xmlns="http://www.w3.org/2000/svg"><path d="M39.43 0c-2.33.019-4.67.482-6.827 1.276-3.897 1.618-6.967 4.71-9.215 8.201C15.598 20.42 7.761 31.328 0 42.29c7.896.044 15.792-.013 23.688.027 1.868.014 3.928.199 5.562-.878 1.418-.957 1.825-2.798 1.678-4.403-.244-2.609-.215-5.23-.319-7.846-3.175 3.144-7.724 4.3-12.095 3.602 4.28-6.632 8.891-13.065 13.232-19.665 1.518-2.244 3.292-4.47 5.778-5.701 4.19-2.038 9.31-2.264 13.608-.411a9.538 9.538 0 0 0-4.935-5.622C44.078.409 41.758-.018 39.428 0zm6.33 8.947c-4.666-.035-9.435 2.383-10.873 7.022-1.055 3.203-.52 6.614-.529 9.914-.017 4.053.036 8.107-.025 12.16-.191 3.589-3.149 6.517-6.604 7.234 3.6.818 7.685.738 10.856-1.346 2.654-1.743 4.167-4.893 4.157-8.022.128-6.358-.059-12.724.167-19.078.15-3.661 3.175-6.561 6.674-7.273a12.59 12.59 0 0 0-3.822-.611zm3.906 3.571c-1.73.046-3.378 1.567-3.3 3.334.018 3.22-.02 6.44.02 9.66 2.002-1.5 4.111-3.057 6.631-3.53 1.792-.272 3.607-.043 5.403.049-4.05 6.147-8.237 12.203-12.372 18.294-1.968 2.948-4.204 6-7.573 7.454-4.011 1.763-8.662 1.435-12.702-.063 1.8 4.993 7.638 8.075 12.844 7.106 6.263-.54 11.727-4.444 14.992-9.666C61.405 34.278 69.206 23.404 77 12.523c-9.056-.003-18.11.004-27.166-.004a3.125 3.125 0 0 0-.168 0z" fill="#484266"/></svg>