<svg width="60" height="60" fill="none" xmlns="http://www.w3.org/2000/svg"><path d="M56.293 45.448c-1.293-.341-2.733-.256-3.941.362-1.377.683-2.352 2.069-2.585 3.583-.148 1.108-.064 2.26.445 3.262a4.838 4.838 0 0 0 3.242 2.58c.508-.917 1.017-1.812 1.483-2.75-.593-.064-1.23-.192-1.653-.64-.487-.533-.572-1.343-.445-2.026.19-.874 1.038-1.492 1.907-1.492.869-.043 1.737.554 1.97 1.428.234.746-.084 1.514-.423 2.154A985.12 985.12 0 0 0 51.8 59.99c1.165 0 2.352.022 3.517 0 .869-1.535 1.695-3.091 2.543-4.627.614-1.172 1.313-2.281 1.758-3.54.403-1.108.318-2.345-.063-3.432a4.853 4.853 0 0 0-3.263-2.943zm1.377-8.53c2.013-2.601 2.775-6.12 2.076-9.34-.699-3.369-3.008-6.332-6.08-7.825-3.37-1.727-7.586-1.557-10.849.362-2.754 1.578-4.767 4.393-5.403 7.528 2.183 1.087 4.407 2.11 6.632 3.155-.212-1.407.19-2.9 1.166-3.944a4.586 4.586 0 0 1 3.623-1.472c1.356.086 2.69.79 3.474 1.92.7.959.996 2.217.806 3.39-.212 1.428-1.145 2.708-2.416 3.369a4.576 4.576 0 0 1-3.178.405c-.657-.15-1.25-.49-1.864-.767-3.73-1.792-7.48-3.519-11.209-5.331 1.865-3.967 3.75-7.912 5.615-11.878 1.462-2.814 1.568-6.29.424-9.233-1.06-2.75-3.242-5.054-5.912-6.248C32.393.007 29.893-.249 27.541.242c-2.436.511-4.725 1.834-6.335 3.753a11.392 11.392 0 0 0-2.733 7.442c.021 2.452.847 4.925 2.33 6.887a11.323 11.323 0 0 0 6.76 4.265c.19-.341.338-.682.508-1.024.868-1.876 1.78-3.731 2.627-5.608-.593.064-1.208.085-1.8-.064a4.69 4.69 0 0 1-2.904-2.09c-.678-1.108-.868-2.516-.466-3.752.424-1.386 1.526-2.538 2.903-2.986a4.662 4.662 0 0 1 3.432.17 4.674 4.674 0 0 1 2.48 2.9 4.564 4.564 0 0 1-.191 3.05c-1.928 4.073-3.835 8.167-5.785 12.219-4.237-1.962-8.432-4.01-12.649-5.992-3.538-1.514-7.839-1.003-10.954 1.258C2.561 22.226.972 24.593.336 27.216a11.56 11.56 0 0 0 .742 7.634 11.402 11.402 0 0 0 5.551 5.523 11.402 11.402 0 0 0 7.606.66c3.051-.767 5.742-2.9 7.204-5.714.487-.96.911-1.962 1.06-3.05-2.204-1.023-4.386-2.089-6.59-3.112.042.49.085 1.002 0 1.492-.19 1.194-.847 2.325-1.843 3.028a4.627 4.627 0 0 1-3.687.79 4.648 4.648 0 0 1-2.924-2.048 4.462 4.462 0 0 1-.657-3.07c.191-1.45 1.123-2.794 2.437-3.455a4.576 4.576 0 0 1 3.178-.405c.53.128 1.017.384 1.505.618 9.703 4.606 19.386 9.212 29.069 13.818.636.277 1.229.64 1.886.853 1.186.405 2.436.64 3.665.618 3.538.064 7.013-1.663 9.132-4.478zM6.523 47.644c.572.299.954.853 1.229 1.429H10.4c-.212-1.258-1.017-2.346-2.034-3.07-1.377-.94-3.199-1.131-4.746-.577a5.05 5.05 0 0 0-2.86 2.56 5.21 5.21 0 0 0-.021 4.456c.53 1.109 1.462 2.026 2.585 2.495 1.525.66 3.347.576 4.788-.277a4.97 4.97 0 0 0 2.31-3.178H7.773c-.339.704-.91 1.344-1.695 1.557-.932.277-2.013-.064-2.606-.832-.953-1.13-.932-2.985.106-4.072.7-.81 1.992-1.045 2.945-.49zm7.585 5.374v-7.911c-.89 0-1.758-.022-2.648.021.02 3.412 0 6.824 0 10.235h5.657c.021-.767 0-1.556 0-2.324-.996-.021-2.013-.021-3.009-.021zM46.8 46.343c-.89-.895-2.16-1.194-3.39-1.215-1.313-.021-2.627 0-3.94-.021-.021 3.411 0 6.845 0 10.256h3.623c1.377 0 2.839-.32 3.856-1.3 1.038-.981 1.42-2.474 1.377-3.881.042-1.429-.487-2.879-1.525-3.839zm-1.334 5.331c-.212.576-.7 1.066-1.314 1.237-.657.213-1.356.128-2.034.128v-5.63c.826.022 1.737-.106 2.48.363.635.363.974 1.109 1.058 1.813.106.682.064 1.428-.19 2.09zm-9.576-6.546v7.91c-.976.022-1.971 0-2.946 0-.339 0-.742-.042-.996-.319-.402-.384-.424-.98-.445-1.493-.021-2.047 0-4.072 0-6.12h-2.606v5.843c0 .79 0 1.62.36 2.367.34.661.848 1.258 1.526 1.6.826.405 1.758.49 2.67.447h4.767V45.128a21.213 21.213 0 0 0-2.33 0zm-10.764.512c-1.06-.533-2.31-.661-3.475-.448a4.894 4.894 0 0 0-2.966 1.812c-.784.917-1.123 2.154-1.123 3.348a4.84 4.84 0 0 0 1.42 3.433c1.101 1.152 2.754 1.706 4.322 1.536 1.504-.128 2.945-.96 3.792-2.218.89-1.28 1.102-2.985.636-4.478a5.231 5.231 0 0 0-2.606-2.985zm-.043 5.97c-.317.64-.868 1.194-1.567 1.386-.954.32-2.056 0-2.712-.767-.933-1.066-.975-2.815-.106-3.945.38-.47.91-.81 1.504-.917.763-.15 1.589.043 2.161.576 1.06.874 1.335 2.473.72 3.667z" fill="#484266"/></svg>