<svg width="60" height="76" fill="none" xmlns="http://www.w3.org/2000/svg"><path d="M30.24 0c-6.544-.032-13.056 2.774-17.57 7.604-4.384 4.568-6.867 10.931-6.706 17.294.065 6.886 3.224 13.608 8.383 18.079 4.352 3.818 10.123 5.971 15.894 5.971V38.8c-4.933-.033-9.801-2.774-12.219-7.147-2.805-4.764-2.482-11.16.806-15.63 2.58-3.688 6.964-5.841 11.413-5.874V0zm21.956 20.069H30.563v10.116h11.67V42.03h9.963V20.07zM15.41 71.301c0 1.436 1.129 2.545 2.515 2.545 1.419 0 2.515-1.077 2.483-2.545h2.224c0 2.676-2.063 4.699-4.707 4.699-2.643 0-4.707-2.056-4.707-4.699h2.193z" fill="#484266"/><path fill-rule="evenodd" clip-rule="evenodd" d="M22.568 61.87v1.763l-.645.26c.484.653.71 1.534.71 2.415 0 2.676-2.064 4.7-4.708 4.7-2.643 0-4.707-2.056-4.707-4.7 0-2.676 2.064-4.699 4.707-4.699.548 0 1.096.098 1.58.261h3.063zm-7.158 4.406c0 1.468 1.129 2.578 2.515 2.578 1.419 0 2.547-1.11 2.515-2.578 0-1.436-1.096-2.546-2.515-2.546-1.418 0-2.514 1.11-2.514 2.546z" fill="#484266"/><path d="M2.192 70.714H0V58.118h2.192v12.596z" fill="#484266"/><path fill-rule="evenodd" clip-rule="evenodd" d="M3.03 66.308c0-2.676 2.064-4.699 4.707-4.699 2.644 0 4.74 2.023 4.707 4.7 0 2.675-2.063 4.698-4.707 4.698-2.643 0-4.706-2.056-4.706-4.699zm2.193-.032c0 1.468 1.128 2.578 2.514 2.578 1.419 0 2.547-1.11 2.515-2.578 0-1.436-1.096-2.546-2.515-2.546-1.418 0-2.514 1.11-2.514 2.546z" fill="#484266"/><path d="M25.727 70.714h-2.192V61.87h2.192v8.844zm22.536-5.841c-.58-.653-1.322-1.143-2.257-1.143-1.419 0-2.482 1.11-2.482 2.546 0 1.436 1.096 2.545 2.482 2.545.935 0 1.709-.49 2.257-1.142l1.515 1.534c-.87 1.076-2.192 1.762-3.74 1.762-2.643 0-4.707-2.056-4.707-4.7 0-2.675 2.064-4.698 4.707-4.698 1.548 0 2.902.685 3.74 1.762l-1.515 1.534zm4.513-2.154c.645-.685 1.58-1.11 2.644-1.11 2.063 0 3.579 1.469 3.61 3.884v5.22h-2.192v-4.796c0-1.37-.676-2.154-1.934-2.154-1.322 0-2.128.881-2.128 2.154v4.797h-2.192V58.118h2.192v4.6z" fill="#484266"/><path fill-rule="evenodd" clip-rule="evenodd" d="M31.498 66.34c0-2.708 1.999-4.73 4.61-4.73 2.644 0 4.482 2.023 4.482 4.992v.522h-6.803c.323 1.175 1.225 1.86 2.418 1.86 1 0 1.773-.49 2.483-1.175l1.45 1.469c-1.031 1.11-2.418 1.697-3.997 1.697-2.805 0-4.643-1.958-4.643-4.634zm4.546-2.805c-1.16 0-2.031.652-2.321 1.827H38.3c-.258-1.175-1.129-1.827-2.257-1.827zm23.213-2.937c.16 0 .29.065.29.228s-.065.229-.162.229l.194.326h-.13l-.192-.326h-.162v.326H59v-.783h.258zm-.162.098v.26h.162c.128 0 .193-.032.193-.13 0-.065-.065-.13-.193-.13h-.162z" fill="#484266"/><path fill-rule="evenodd" clip-rule="evenodd" d="M58.483 60.99c0-.392.354-.751.774-.751.419 0 .773.359.74.75 0 .425-.321.784-.74.784a.79.79 0 0 1-.774-.784zm.097 0c0 .391.29.685.677.685.386 0 .677-.294.644-.686a.65.65 0 0 0-.644-.652.658.658 0 0 0-.677.652z" fill="#484266"/><path d="M23.18 59.358c0-.816.613-1.469 1.419-1.469.838 0 1.483.653 1.45 1.469 0 .783-.612 1.436-1.45 1.436a1.42 1.42 0 0 1-1.419-1.436zm4.643-.196h2.192v2.708h1.193v1.958h-1.193v6.886h-2.192v-6.886h-1.16V61.87h1.16v-2.708z" fill="#484266"/></svg>