<svg width="100" height="65" fill="none" xmlns="http://www.w3.org/2000/svg"><path d="M97.414 60.264H100V44.622h-2.586v6.17h-.086c-.56-1.347-1.94-1.564-3.276-1.564-3.707 0-4.138 2.042-4.138 5.257 0 3.346.13 5.91 4.138 5.91 1.508 0 2.715-.348 3.405-1.782h.086l-.13 1.651zm-2.63-9.037c2.242 0 2.544.956 2.544 3.258 0 2.607.086 3.91-2.544 3.91-2.37 0-2.327-1.433-2.327-3.91 0-2.737.517-3.258 2.328-3.258zm-6.767-6.561h-2.586v2.216h2.586v-2.216zm0 4.692h-2.586v10.95h2.586v-10.95zm-4.784 10.906v-10.95h-2.587v6.301c0 1.912-.646 2.737-2.629 2.737-1.68 0-1.81-.608-1.81-2.172v-6.908H73.62v7.907c0 2.39 1.465 3.129 3.62 3.129 1.509 0 2.845-.348 3.449-1.825h.086v1.694h2.457v.087zM71.336 49.358H68.75l.086 1.651h-.086c-.647-1.434-1.853-1.781-3.405-1.781-4.052 0-4.138 2.563-4.138 5.909 0 3.215.43 5.257 4.138 5.257 1.336 0 2.715-.26 3.276-1.564h.086V65h2.586V49.358h.043zm-5.215 1.869c2.241 0 2.586.956 2.586 3.258 0 2.607.043 3.91-2.586 3.91-2.371 0-2.328-1.433-2.328-3.91 0-2.737.517-3.258 2.328-3.258zm-6.854-6.561h-2.586v2.216h2.586v-2.216zm0 4.692h-2.586v10.95h2.586v-10.95zm-4.741-4.692H51.94v15.642h2.586V44.665zm-20.474 4.692h-1.638v10.95h1.638v-6.605c0-2.216 1.12-3.128 3.276-3.128 2.37 0 2.37.956 2.413 2.39v7.342h1.638v-6.69c0-2.347.992-3.042 3.32-3.042 2.111 0 2.37.825 2.37 2.694v7.038h1.638v-7.212c0-2.694-.992-3.867-3.75-3.867-1.466 0-3.147.347-3.88 1.825-.387-1.434-2.025-1.825-3.361-1.825-1.38 0-3.06.391-3.621 1.825h-.043v-1.695zm-4.095 10.906v-7.473c0-3.346-1.983-3.606-4.698-3.606-2.414 0-4.354.173-4.354 2.998v.217h1.681v-.391c0-1.52 1.552-1.52 2.845-1.52 1.853 0 2.888.173 2.888 2.172v2.042h-.086c-.216-1-2.328-1.087-3.405-1.087-2.673 0-4.225.435-4.225 3.433 0 2.868 1.681 3.302 4.138 3.302 1.38 0 2.974-.043 3.578-1.303l.043.043v1.13h1.595v.043zM25 59.091c-1.897 0-2.716-.087-2.716-2.172 0-1.782.776-1.912 2.716-1.912 2.069 0 3.276 0 3.276 2.042 0 1.999-1.638 2.042-3.276 2.042zm-14.181-5.257c.13-2.52.215-3.303 3.19-3.303 2.5 0 2.844.174 2.93 3.303h-6.12zm6.12 3.128v.434c0 1.565-.732 1.695-2.973 1.695-2.932 0-3.19-.435-3.19-3.91h7.802v-1.087c0-4.04-1.121-4.866-4.612-4.866-3.88 0-4.871 1.043-4.871 5.605 0 4.171.646 5.605 4.87 5.605 2.414 0 4.613-.13 4.613-3.042v-.39H16.94v-.044zm-9.655-7.604H3.06v-2.65H1.466v2.65H0v1.347h1.466v6.43c0 2.564.56 3.303 3.103 3.303 2.241 0 3.103-1.043 3.103-3.172v-.825H6.121v.825c0 1.043 0 1.868-1.509 1.868-1.207 0-1.509-.26-1.509-1.477v-6.952h4.181v-1.347zm29.44-22.55c-1.336.652-3.146 1.478-5.129 2.173.345 1.52.82 2.867 1.466 4.084a53.987 53.987 0 0 0 3.793-2.694 52.012 52.012 0 0 1-.13-3.563zm3.319-11.123c-2.5-.999-6.25-2.824-9.396-5.17v5.388c2.93 1.13 5.905 1.824 8.017 2.172.431-.869.905-1.651 1.38-2.39zm3.535-3.997c-1.724-1.782-4.138-4.65-5.992-7.778l-4.784 1.651c2.63 3.39 6.422 6.3 8.88 7.995a19.215 19.215 0 0 1 1.896-1.868zm2.198-1.651c.862-.565 1.724-1.043 2.5-1.347-.733-1.955-1.595-4.78-2.069-7.778L41.94 2.39c1.12 2.998 2.672 5.779 3.836 7.647zm-8.103 10.645c-1.81.087-4.354.043-6.94-.26.043 1.52.13 2.954.215 4.3a40.87 40.87 0 0 0 6.035-1.13c.172-.998.431-1.998.69-2.91zm-.043 13.643a36.073 36.073 0 0 1-1.897 2.172 24.36 24.36 0 0 0 1.897 1.565c.43.304.905.608 1.379.912a39.457 39.457 0 0 1-1.38-4.65zm20.387-17.684c.431.348 1.552.044 1.552.044l-.819-.956-1.724-1.174c0-.043.56 1.738.991 2.086zm5.603 9.646l-1.034-.826.604 1.434 1.68-.13-1.25-.478z" fill="#484266"/><path d="M51.207 0c-.733 2.303-.948 5.127-.13 7.908.302-.304 2.5-2.607 4.483-4.823 0 0 2.587 2.998-1.034 6.126 0 0 6.509 4.562 6.896 4.78 0 0-.344 1.434 0 2.65l5.087 9.993-2.587 3.042-3.793-2.13 1.81 2.955s-2.068.261-2.672-.043c-.345-1.868-1.982-4.91-1.982-4.91l-3.837-1.564s-1.68-2.086-1.551-5.084c0 0-1.897 7.952 3.276 9.907l7.24 9.298c6.682-4.65 6.94-11.123 6.94-24.027V6.3L51.207 0z" fill="#484266"/></svg>