<svg width="15" height="16" fill="none" xmlns="http://www.w3.org/2000/svg"><path d="M2.62 15.25a11.562 11.562 0 0 1-1.426-3.725 11.373 11.373 0 0 1-.075-3.9A11.3 11.3 0 0 1 2.37 3.95 11.476 11.476 0 0 1 4.894.775l1.35.85c.25.167.358.375.325.625-.017.233-.092.417-.225.55-.433.533-.808 1.183-1.125 1.95a9.104 9.104 0 0 0-.575 2.475 9.915 9.915 0 0 0 .125 2.7 7.988 7.988 0 0 0 1.025 2.7c.217.35.275.667.175.95-.083.267-.283.467-.6.6L2.62 15.25zm7.6 0a11.563 11.563 0 0 1-1.426-3.725 11.373 11.373 0 0 1-.075-3.9A11.3 11.3 0 0 1 9.97 3.95 11.476 11.476 0 0 1 12.494.775l1.35.85c.25.167.359.375.325.625-.017.233-.091.417-.225.55-.433.533-.808 1.183-1.125 1.95a9.107 9.107 0 0 0-.575 2.475 9.919 9.919 0 0 0 .125 2.7 7.99 7.99 0 0 0 1.025 2.7c.217.35.275.667.175.95-.083.267-.283.467-.6.6l-2.75 1.075z" fill="#484266"/></svg>