<svg width="39" height="25" fill="none" xmlns="http://www.w3.org/2000/svg"><path d="M1.663 16.032c1.123 5.85 9.154 6.942 16.864 6.25 4.738-.426 10.42-2.07 13.858-4.067v2.876c-3.786 2.023-9.236 3.328-13.4 3.72-10.523.992-17.41-1.996-18.698-7.281-1.013-4.12.74-7.608 3.971-10.363v1.018c-1.794 1.904-3.143 4.959-2.595 7.847zM8.496 4.485C19.67-2.125 37-1.572 38.828 7.1c.98 4.653-2.396 8.446-5.69 9.624v-2.076c2.739-1.584 4.273-4.34 3.787-6.982C35.48-.328 19.657-.361 8.496 5.216v-.731z" fill="#484266"/><path d="M29.742 5.836h2.02v10.802c-1.513-.14-2.02-1.032-2.02-2.057V5.836zM7.71 9.03H5.681v5.718c0 1.031.514 1.917 2.027 2.056V9.03zM5.682 6.102h2.02v1.863h-2.02V6.102zm14.125 10.609c-1.636 0-2.328-1.105-2.328-2.196V6.927h2.006v2.097h1.507v1.57h-1.507v3.8c0 .447.22.693.692.693h.815v1.624h-1.185z" fill="#484266"/><path fill-rule="evenodd" clip-rule="evenodd" d="M25.264 15.214c-1.127 0-1.77-.73-1.773-1.724h5.087v-.706c0-2.203-1.232-3.88-3.369-3.88-2.108 0-3.71 1.431-3.71 3.967 0 2.962 1.834 3.98 3.752 3.98 1.472 0 2.3-.466 3.094-1.225l-1.239-1.144c-.514.492-.952.732-1.842.732zm-1.581-3.9c.226-.46.753-.806 1.438-.806 1.027 0 1.417.812 1.458 1.644H23.49c.014-.346.061-.56.192-.839z" fill="#484266"/><path d="M13.145 10.601c.59 0 .829.28.829.739v5.384h2.006v-5.39c0-1.092-.596-2.304-2.356-2.304H9.49v7.694h2.006v-6.123h1.65z" fill="#484266"/><path fill-rule="evenodd" clip-rule="evenodd" d="M34.145 7.087h.15c.028 0 .035-.013.035-.02a.05.05 0 0 0-.004-.013.05.05 0 0 1-.003-.014l-.212-.352c.109-.04.178-.114.178-.253V6.42c0-.226-.144-.3-.398-.3-.068 0-.191 0-.246.014-.048.007-.062.027-.062.073v.846c0 .013.014.033.035.033h.136c.021 0 .035-.02.035-.033V6.72h.096a.06.06 0 0 1 .027.013l.205.333c0 .013.014.02.028.02zm-.233-.799c.13 0 .192.034.192.127v.013c0 .093-.062.133-.192.133l-.065-.003a1.714 1.714 0 0 0-.065-.004v-.266h.13z" fill="#484266"/><path fill-rule="evenodd" clip-rule="evenodd" d="M33.138 6.621c0 .433.356.779.801.779.445 0 .808-.346.808-.779 0-.426-.363-.779-.808-.779a.787.787 0 0 0-.8.779zm.137 0c0-.36.294-.652.664-.652.37 0 .671.293.671.652a.662.662 0 0 1-.67.646.651.651 0 0 1-.665-.646z" fill="#484266"/></svg>