<svg width="135" height="37" fill="none" xmlns="http://www.w3.org/2000/svg"><path d="M39.934 14.561l1.65-.12c0 .478-.118 1.075-.118 1.672v11.935c0 .358-.118.597-.354.836-.235.239-.589.358-1.178.358h-.117v.835h6.361v-1.193l-2.356.12c0-.478.118-1.075.118-1.791v-4.894l1.296-.119h.824c.471 0 .825 0 1.06.12.236.119.472.357.59.596.117.358.117.716.117 1.313h1.06v-5.132h-1.413l.118 2.029h-3.77v-5.729c0-.358.118-.597.353-.836.236-.238.59-.358 1.06-.358h1.768c.942 0 1.767.239 2.238.716.589.478.824 1.313.824 2.626h1.06l-.117-4.297H39.934v1.313zm14.961 1.194c.354 0 .707-.12.943-.478.235-.358.47-.716.47-1.074 0-.477-.117-.835-.352-1.074-.236-.358-.59-.477-.943-.477s-.707.119-.942.477c-.236.358-.471.716-.471 1.074 0 .358.117.716.353 1.074.353.24.589.478.942.478zm1.178 12.055v-8.952h-.824c-.118.239-.472.358-.825.477-.353.12-1.06.12-1.885.12v1.193l1.532-.119c0 .477-.118.955-.118 1.313v6.445c0 .358-.118.597-.354.716-.235.239-.47.239-.942.239v.955h4.712v-1.194h-1.296V27.81zm9.896-9.071c-.707 0-1.296.238-2.003.596-.589.359-1.178.836-1.531 1.433 0-.716 0-1.433-.118-1.91h-.825c-.235.239-.471.358-.707.477-.235.12-.589.12-1.178.12h-.824v1.193l1.531-.119c0 .358-.118.716-.118 1.313v6.445c0 .358-.117.597-.353.716-.236.239-.471.239-.943.239v.955h4.713v-1.194h-1.414c0-.238.118-.716.118-1.313v-5.132a8.995 8.995 0 0 1 1.296-1.67c.47-.478 1.06-.598 1.531-.598 0 .358.118.597.353.836.236.238.472.358.825.358s.589-.12.825-.358c.235-.239.353-.478.353-.836 0-.477-.118-.835-.471-1.074-.236-.239-.59-.477-1.06-.477zm12.251 8.713a4.268 4.268 0 0 1-1.531 1.313c-.707.358-1.414.477-2.121.477-1.178 0-2.003-.477-2.592-1.313-.589-.955-.824-2.148-.824-3.82l7.657-.119c0-1.074-.236-2.029-.59-2.745a3.747 3.747 0 0 0-1.648-1.67c-.707-.359-1.414-.598-2.356-.598-1.06 0-2.003.24-2.828.836-.942.358-1.649 1.074-2.12 2.029a6.54 6.54 0 0 0-.707 2.984c0 1.193.236 2.148.707 3.103.471.955 1.178 1.552 2.003 2.03.824.477 1.767.715 2.827.715.824 0 1.767-.238 2.71-.716.942-.477 1.648-1.074 2.237-2.029l-.824-.477zm-6.008-6.804c.471-.477 1.178-.716 2.003-.716.706 0 1.295.239 1.649.836.353.596.589 1.193.589 2.029h-5.301c.235-.955.589-1.671 1.06-2.149zm15.314 3.939c-.471-.239-1.178-.597-1.885-.835a20.817 20.817 0 0 1-2.12-.955c-.471-.358-.707-.716-.707-1.313 0-.478.236-.836.471-1.074a2.6 2.6 0 0 1 1.532-.478c.824 0 1.531.358 2.002.955.472.597.707 1.313.707 2.148h.943v-4.058H87.29v.716c-.825-.596-1.65-.835-2.592-.835-.942 0-1.65.12-2.238.477a3.079 3.079 0 0 0-1.178 1.313 3.211 3.211 0 0 0-.354 1.433c0 .716.118 1.313.471 1.79.354.477.825.835 1.296 1.074.472.239 1.178.597 1.885.836.942.358 1.531.716 2.003.954.47.24.589.717.589 1.194s-.236.955-.707 1.194a3.226 3.226 0 0 1-1.531.358c-.59 0-1.06-.12-1.532-.358-.471-.24-.825-.597-1.178-1.075a3.34 3.34 0 0 1-.353-1.551h-.943l.118 4.058h1.178l-.118-.597c.354.239.943.478 1.414.597.589.12 1.178.239 1.767.239a4.84 4.84 0 0 0 1.885-.358 3.22 3.22 0 0 0 1.413-1.075 2.957 2.957 0 0 0 .59-1.79c0-.597-.118-1.194-.472-1.671-.235-.716-.707-1.074-1.178-1.313zm10.367 3.223c-.236.477-.59.716-.943.955a1.971 1.971 0 0 1-1.178.358c-.589 0-.942-.24-1.178-.716-.235-.478-.353-1.194-.353-2.268V20.29h3.652v-1.193H94.24v-3.103h-.943c-.235.835-.589 1.551-1.06 2.148-.471.597-1.06.955-1.767.835v1.194h1.65v6.087c0 2.745 1.06 4.178 3.062 4.178 1.296 0 2.474-.717 3.416-2.268l-.706-.358zm9.659-8.355a5.414 5.414 0 0 0-2.709-.716c-1.06 0-1.885.238-2.71.835-.824.597-1.413 1.313-1.884 2.268a7.035 7.035 0 0 0-.707 3.103c0 1.074.236 2.03.707 2.984.471.836 1.06 1.552 1.884 2.03a5.418 5.418 0 0 0 2.71.715c1.06 0 1.885-.238 2.709-.835.825-.597 1.414-1.313 1.885-2.268a7.043 7.043 0 0 0 .707-3.103c0-1.074-.236-2.03-.707-2.865-.353-.955-1.06-1.551-1.885-2.148zm-.235 8.713c-.471.835-1.296 1.193-2.356 1.193-1.061 0-1.885-.477-2.474-1.432-.589-.955-.825-2.148-.825-3.58 0-1.314.236-2.268.825-3.104.471-.835 1.296-1.313 2.356-1.313 1.06 0 1.885.478 2.356 1.552.589.955.825 2.268.825 3.58 0 1.313-.236 2.388-.707 3.104zm14.607-.478v-3.938c0-1.671-.353-2.984-.942-3.82-.589-.835-1.532-1.193-2.828-1.193-.589 0-1.178.12-1.767.358a4.932 4.932 0 0 0-1.649 1.074c0-.597-.118-1.074-.118-1.313h-.706c-.236.239-.472.358-.825.477-.353.12-.942.12-1.885.12v1.193l1.532-.119c0 .358-.118.716-.118 1.313v4.774c0 .716 0 1.194-.118 1.552 0 .239-.118.477-.353.716-.118.239-.472.239-.943.239v.954h4.594v-1.193h-1.295v-7.4c.353-.358.706-.716 1.295-.955a3.594 3.594 0 0 1 1.532-.358c.824 0 1.413.239 1.767.835.353.597.589 1.552.589 2.746v4.416c0 .358-.118.597-.354.716-.235.239-.471.239-.942.239v.954h4.594v-1.193h-1.296c.118-.239.236-.597.236-1.194zm12.369-.238c-.353.477-.942.954-1.649 1.313-.707.358-1.414.477-2.12.477-1.178 0-2.003-.477-2.592-1.313-.589-.955-.825-2.148-.825-3.82l7.657-.119c0-1.074-.235-2.029-.589-2.745a3.744 3.744 0 0 0-1.649-1.67c-.707-.359-1.413-.598-2.356-.598-1.06 0-2.002.24-2.827.836-.825.597-1.531 1.313-2.003 2.148a6.542 6.542 0 0 0-.706 2.984c0 1.194.235 2.149.706 3.103.472.955 1.178 1.552 2.003 2.03a5.417 5.417 0 0 0 2.709.716c.825 0 1.767-.24 2.71-.717.942-.477 1.649-1.074 2.238-2.029l-.707-.596zm-6.008-6.804c.472-.477 1.178-.716 2.003-.716.707 0 1.296.239 1.649.836.354.596.589 1.193.589 2.029h-5.301c.118-.955.471-1.671 1.06-2.149zM20.497 9.19s0 1.79-.706 3.581c0 0 0 .12-.118.12-.354.954-1.296 1.67-2.356 1.67-.236 0-.471 0-.707-.12h-.236c-1.295-.477-2.238-2.148-.824-4.415 2.945-5.013.353-7.52-3.063-10.026 0 0 .942 6.445-6.361 12.174C4.24 7.758 0 5.132 0 5.132c3.416 6.565 2.12 10.504.825 13.726C.235 20.29 0 22.081 0 23.752v.239C0 31.15 5.772 37 12.958 37c3.652 0 7.068-1.552 9.424-4.058a11.563 11.563 0 0 0 2.71-4.297c.47-1.313.824-2.864.824-4.416v-.12c.236-4.535-1.413-11.816-5.419-14.919zm-.706 15.397c0 .239 0 .477-.118.716-.118.478-.118.955-.118 1.313s-.236.597-.353.955a2.314 2.314 0 0 0-.472 1.432c0 .239-.117.358-.117.597 0 .12-.118.12-.118.12-.471.477-.943.835-1.414 1.312-.471.478-.942.836-1.531 1.074-.59.358-1.06.478-1.767.478-.354 0-.59 0-.825.12-.589.238-1.06.357-1.767.477-.353 0-.589 0-.942-.12-.236-.12-.472-.12-.825-.12s-.589 0-.942-.118c-.236-.12-.472-.12-.707-.12-.118 0-.236-.12-.354-.239-.117-.119-.117-.238-.235-.358-.118-.238-.118-.238.118-.358.235-.119.589-.358.824-.477.354-.239.707-.358 1.06-.358.354-.12.707-.239.943-.597.353-.358.707-.358 1.178-.477.707-.12 1.414-.478 2.12-.716.118 0 .236-.12.354-.24l1.413-1.431c.118-.12.236-.359.354-.597.235-.239.353-.597.47-.836 0-.119.119-.119.119-.238v-.836c-.118-.597-.118-1.193-.118-1.79 0-.358-.118-.716-.354-1.074-.235-.358-.47-.716-.588-1.075-.118-.238-.236-.358-.472-.358-.707-.238-1.531-.238-2.356-.238-.47 0-.942.238-1.413.358 0 0-.118 0-.118.12-.354.357-.707.596-.943.954 0 0-.117.12-.117.239-.118.477-.236 1.074-.236 1.67 0 .359 0 .836.236 1.194.117.12.235.358.353.478.118.119.236.119.354.119l.706-.358c-.117-.358-.235-.836-.353-1.194.471-.358 1.06-.358 1.65-.358.235 0 .47.12.706.12h.118c.47.596.824 1.193.824 2.029 0 .358-.118.596-.118.954 0 0 0 .12-.117.12a8.27 8.27 0 0 1-1.178.955c-.118 0-.118.119-.236.119-.589.12-1.296.239-1.885.478h-.117c-.354.119-.825.119-1.179-.24-.117-.119-.117-.238-.235-.238-.118-.12-.236-.358-.354-.358-.589-.478-1.178-.955-1.53-1.671-.119-.358-.472-.597-.708-.955-.118-.12-.235-.358-.235-.477-.118-.716 0-1.552-.118-2.268 0-.12-.118-.358-.118-.477-.118-.24 0-.24.118-.358.353-.24.589-.358.942-.597.236-.239.354-.478.59-.716.235-.358.588-.597.942-.836l2.12-1.432 1.06-.358c.118 0 .236.12.236.12.236.238.236.357.589.119.353-.24.707-.24 1.06.119.118.12.353.12.471.12h.943c.117 0 .235 0 .235.119.118.119.236.238.354.238.117 0 .235 0 .353.12.118.238.236.238.471.238.118 0 .354-.119.472-.119.117 0 .235 0 .235.12.354.477.825.835 1.178 1.312.354.478.707.836 1.06 1.313.118.12.118.239.118.358.118.597.236 1.074.354 1.671 0 .239.117.478.235.716-.118.12-.118.358-.235.597z" fill="#FFB948"/></svg>