<svg width="139" height="30" fill="none" xmlns="http://www.w3.org/2000/svg"><g clip-path="url(#clip0)"><path d="M69.383 6.757h-3.418v4.46h-5.53v-.782c.026-1.461.652-2.53 2.608-2.53h.783V4.721h-1.46c-3.47 0-5.349 2.087-5.349 5.739v.756H51.54v-4.46h-3.417v4.46h-2.218v2.635h2.218v9.522h3.417v-9.522h5.478v9.522h3.418v-9.522h5.53v9.522h3.418v-9.522h2.582v-2.635h-2.582v-4.46zm13.199 5.921c-.86-1.226-2.504-1.748-3.912-1.748-3.131 0-5.974 2.427-5.974 6.34s2.843 6.339 5.974 6.339c1.356 0 3.052-.548 3.912-1.748v1.513H86V11.218h-3.418v1.46zm-3.26 7.748a3.15 3.15 0 0 1-3.157-3.156c0-1.8 1.435-3.13 3.157-3.13 1.59 0 3.156 1.251 3.156 3.13 0 1.852-1.487 3.156-3.156 3.156zm15.026-6.339c.991 0 2.008.47 2.556 1.226l2.557-1.8c-1.148-1.565-2.922-2.609-5.14-2.609-3.547 0-6.678 2.479-6.678 6.34 0 3.86 3.13 6.365 6.679 6.365 2.217 0 3.99-1.018 5.139-2.61l-2.557-1.8c-.548.757-1.565 1.227-2.556 1.227-1.93 0-3.235-1.383-3.235-3.183 0-1.773 1.304-3.156 3.235-3.156zm11.634-7.33h-3.417v4.46h-2.217v2.635h2.217v9.522h3.417v-9.522h2.583v-2.635h-2.583v-4.46zm7.696 4.46h-3.417v12.157h3.417V11.217zm-1.722-6.26c-1.173 0-2.165.886-2.165 2.034 0 1.148.992 2.061 2.165 2.061 1.2 0 2.166-.913 2.166-2.06 0-1.149-.966-2.035-2.166-2.035zm10.07 9.13c.991 0 2.009.47 2.556 1.226l2.557-1.8c-1.148-1.565-2.922-2.609-5.139-2.609-3.548 0-6.678 2.479-6.678 6.34 0 3.86 3.13 6.365 6.678 6.365 2.217 0 3.991-1.018 5.139-2.61l-2.557-1.8c-.547.757-1.565 1.227-2.556 1.227-1.931 0-3.235-1.383-3.235-3.183 0-1.773 1.304-3.156 3.235-3.156zM135.2 16.2l-2.009-.522c-.678-.182-1.2-.47-1.2-1.043 0-.626.626-1.018 1.409-1.018.809 0 1.487.444 1.487 1.252h3.261c.026-2.87-2.583-3.965-4.8-3.965-2.818 0-4.774 1.748-4.774 3.626 0 1.279.417 3.027 3.548 3.861l1.617.392c.913.234 1.331.495 1.331 1.017 0 .704-.757 1.122-1.748 1.122-1.2 0-1.8-.757-1.8-1.461h-3.209c.026 2.687 2.504 4.148 5.061 4.148 2.504 0 5.113-1.253 5.113-3.81 0-.99-.365-2.816-3.287-3.6z" fill="#fff"/><path d="M24.017 22.8l-4.304 7.226-4.435-7.226H8.73l6-16.93h10.487l5.478 16.93h-6.678z" fill="#1B2D33"/><path d="M27.33 2.974l7.357 22.748h-9.235l-1.983 2.896h15.21L29.442.078h-6.939l-2.791 2.896L16.687.08h-6.078L.513 28.618h15.313l-1.983-2.896H4.61l8.06-22.748h14.66z" fill="#D47559"/></g><defs><clipPath id="clip0"><path fill="#fff" transform="translate(.513)" d="M0 0h137.974v30H0z"/></clipPath></defs></svg>