<svg width="331" height="220" viewBox="0 0 331 220" fill="none" xmlns="http://www.w3.org/2000/svg">
<path fill-rule="evenodd" clip-rule="evenodd" d="M304.084 88.7004C303.889 89.7185 303.642 90.6773 303.348 91.5804L305.843 92.3863C306.171 91.3778 306.445 90.3133 306.66 89.1901L304.084 88.7004ZM302.247 94.3226C301.802 95.2401 301.306 96.0895 300.77 96.8759L302.94 98.3452C303.545 97.4558 304.106 96.4963 304.607 95.4623L302.247 94.3226ZM304.569 82.7217C304.587 83.7724 304.555 84.7756 304.479 85.7333L307.093 85.9385C307.176 84.8956 307.21 83.8098 307.191 82.6793L304.569 82.7217ZM317.452 44.2117C316.87 44.3368 316.309 44.4739 315.768 44.6228L316.465 47.1445C316.956 47.0094 317.469 46.884 318.005 46.7688L317.452 44.2117ZM304.216 78.1726C304.286 78.6884 304.345 79.1946 304.393 79.6914L307.003 79.4368C306.951 78.908 306.889 78.3704 306.815 77.824C306.741 77.2746 306.666 76.727 306.591 76.1825L303.993 76.5371C304.068 77.0813 304.142 77.6263 304.216 78.1726ZM303.144 69.9451C303.264 71.0358 303.402 72.1403 303.548 73.2526L306.148 72.9126C306.004 71.8108 305.868 70.7257 305.751 69.6594L303.144 69.9451ZM312.458 45.7828C311.308 46.2874 310.274 46.865 309.348 47.5131L310.855 49.6541C311.628 49.113 312.509 48.6182 313.514 48.1774L312.458 45.7828ZM302.703 63.2129C302.708 64.32 302.757 65.4508 302.837 66.5988L305.453 66.4171C305.376 65.3137 305.33 64.2407 305.326 63.2013L302.703 63.2129ZM306.651 49.9357C305.842 50.8722 305.182 51.8873 304.65 52.9673L307.004 54.1207C307.443 53.2293 307.982 52.4024 308.638 51.6435L306.651 49.9357ZM303.432 56.328C303.152 57.4397 302.965 58.5936 302.85 59.7788L305.46 60.0301C305.564 58.9535 305.732 57.9311 305.976 56.966L303.432 56.328Z" fill="#6C5C99"/>
<ellipse rx="2.61928" ry="3.60105" transform="matrix(-0.726174 0.687512 0.689304 0.724472 319.445 41.9166)" fill="#6C5C99"/>
<ellipse rx="2.62134" ry="3.59822" transform="matrix(-0.918881 -0.394534 0.396185 -0.918171 320.581 48.3929)" fill="#6C5C99"/>
<rect width="3.27008" height="10.4886" rx="1.63504" transform="matrix(-0.175925 -0.984404 -0.984554 0.175083 325.944 45.6203)" fill="#403366"/>
<rect y="21.3501" width="286.09" height="165.403" rx="2.08832" fill="#403366"/>
<rect x="177.924" y="212.167" width="57.2198" height="22.9611" transform="rotate(180 177.924 212.167)" fill="#6C5C99"/>
<rect x="120.705" y="212.167" width="7.51793" height="22.9611" transform="rotate(180 120.705 212.167)" fill="#161326"/>
<path d="M72.6731 218.432C72.6731 214.972 75.478 212.167 78.938 212.167H208.198C211.658 212.167 214.463 214.972 214.463 218.432V219.667H72.6731V218.432Z" fill="#201C33"/>
<rect x="6.26485" y="21.3501" width="286.09" height="165.403" rx="2.08832" fill="#6C5C99"/>
<rect x="13.9559" y="28.3208" width="270.895" height="152.249" fill="#161326"/>
<rect x="25.3936" y="38.8666" width="94.7545" height="112.995" rx="2.15351" fill="#F4F2FF"/>
<rect x="60.28" y="108.038" width="53.8378" height="37.8082" rx="1.29211" fill="#E6004C"/>
<rect x="73.4732" y="132.984" width="1.72281" height="7.76645" transform="rotate(45 73.4732 132.984)" fill="#F4F2FF"/>
<rect width="1.72281" height="7.76645" transform="matrix(-0.707107 0.707107 0.707107 0.707107 69.2 132.984)" fill="#F4F2FF"/>
<path d="M35.299 61.9339V80.5394C35.299 81.0151 35.6846 81.4008 36.1604 81.4008H113.256C113.732 81.4008 114.118 81.0151 114.118 80.5394V63.8004C114.118 63.0886 113.303 62.684 112.736 63.1138L97.7813 74.4437C97.3105 74.8003 96.6286 74.5882 96.4432 74.0274L94.5019 68.1544C94.3387 67.6606 93.7785 67.423 93.31 67.6488L82.6269 72.7978C82.1486 73.0284 81.5776 72.7754 81.4269 72.2663L79.7257 66.517C79.5556 65.9423 78.8652 65.7126 78.3847 66.0708L68.2938 73.5956C67.9196 73.8746 67.3913 73.8049 67.1023 73.4384L59.6685 64.0083C59.3606 63.6177 58.7869 63.5683 58.4167 63.9004L47.7292 73.4899C47.3616 73.8197 46.7924 73.7735 46.4828 73.3887L36.8315 61.3939C36.3218 60.7604 35.299 61.1208 35.299 61.9339Z" fill="#E6004C"/>
<ellipse cx="112.179" cy="48.1038" rx="1.93816" ry="1.93337" fill="#E6004C"/>
<ellipse cx="106.157" cy="48.1038" rx="1.93816" ry="1.93337" fill="#E6004C"/>
<ellipse cx="100.12" cy="48.1038" rx="1.93816" ry="1.93337" fill="#E6004C"/>
<rect x="40.8983" y="47.0301" width="20.6737" height="2.57783" rx="1.28892" fill="#E6004C"/>
<path d="M31.4227 86.1269L31.4228 59.7057C31.4228 59.3489 31.7121 59.0597 32.0689 59.0597C32.4257 59.0597 32.715 59.3489 32.715 59.7057L32.7149 84.8172H113.463C113.824 84.8172 114.118 85.1104 114.118 85.472C114.118 85.8337 113.824 86.1269 113.463 86.1269H31.4227Z" fill="#E6004C"/>
<rect x="31.4227" y="89.5639" width="25.4114" height="15.0373" rx="1.29211" fill="#E6004C"/>
<rect x="60.28" y="89.5639" width="24.9807" height="15.0373" rx="1.29211" fill="#E6004C"/>
<rect x="88.7061" y="89.5639" width="25.4114" height="15.0373" rx="1.29211" fill="#E6004C"/>
<rect x="31.4227" y="108.038" width="25.4114" height="37.8082" rx="1.29211" fill="#E6004C"/>
<path d="M34.1621 46.7203L32.8872 45.7408L33.0595 47.7343L32.5254 48.4904L32.7666 49.2122C33.025 49.3153 33.2662 49.4528 33.473 49.6419C33.5074 49.4356 33.5419 49.0919 33.5763 48.9544L33.1629 49.0404C33.3007 48.1983 33.6625 47.4077 34.1621 46.7203Z" fill="#E6004C"/>
<path d="M34.593 48.6623L33.611 48.1639C33.8177 48.6967 33.8866 48.7654 34.593 48.6623Z" fill="#E6004C"/>
<path d="M36.7126 47.7343L36.8849 45.7408C35.679 46.6516 35.2999 46.7891 34.852 47.9233L35.4722 47.803C34.697 48.6107 34.2318 49.6934 34.1457 50.5355L34.3007 50.8964H35.4894C35.679 50.4668 35.9546 49.6075 37.0055 49.2122L37.2467 48.4904L36.7126 47.7343ZM34.8865 50.484L34.5074 49.934H35.2655L34.8865 50.484ZM35.1621 48.6623L36.1441 48.1639C35.9374 48.6967 35.8685 48.7654 35.1621 48.6623Z" fill="#E6004C"/>
<path d="M79.1105 136.18C80.2456 136.224 81.7941 136.365 83.4233 136.257M91.8332 128.017C91.6552 129.577 91.2892 130.849 90.7856 131.884M105.418 115.343C103.404 115.586 102.718 115.752 100.89 116.388M85.7953 135.89C87.1321 135.54 88.4153 134.912 89.4612 133.814M92.199 125.869C92.5655 124.291 93.116 122.942 93.8159 121.787M95.2834 119.855C96.3935 118.676 97.7111 117.778 99.1649 117.09" stroke="#F4F2FF" stroke-width="1.72281"/>
<path d="M41.7598 99.8757V94.2904L46.5038 97.2301L41.7598 99.8757Z" fill="#F4F2FF"/>
<path d="M70.1859 99.8757V94.2904L74.9299 97.2301L70.1859 99.8757Z" fill="#F4F2FF"/>
<path d="M99.0432 99.8757V94.2904L103.787 97.2301L99.0432 99.8757Z" fill="#F4F2FF"/>
<ellipse cx="36.8066" cy="117.706" rx="1.07676" ry="1.0741" fill="#F4F2FF"/>
<ellipse cx="36.8066" cy="124.151" rx="1.07676" ry="1.07409" fill="#F4F2FF"/>
<rect x="40.0367" y="123.076" width="12.0597" height="2.14818" rx="1.07409" fill="#F4F2FF"/>
<rect x="40.0367" y="116.632" width="12.0597" height="2.14821" rx="1.0741" fill="#F4F2FF"/>
<ellipse cx="36.8066" cy="130.595" rx="1.07676" ry="1.0741" fill="#F4F2FF"/>
<rect x="40.0367" y="129.52" width="12.0597" height="2.14819" rx="1.0741" fill="#F4F2FF"/>
<ellipse cx="36.8066" cy="137.04" rx="1.07676" ry="1.0741" fill="#F4F2FF"/>
<rect x="40.0367" y="135.966" width="12.0597" height="2.14821" rx="1.0741" fill="#F4F2FF"/>
<path d="M214.988 21.3501C218.766 11.6008 228.263 4.68483 239.382 4.68483C241.58 4.68483 243.713 4.95489 245.752 5.46352C241.557 2.60625 236.483 0.93515 231.018 0.93515C218.52 0.93515 208.071 9.6726 205.49 21.3501H214.988Z" fill="#201C33"/>
<path d="M227.463 100.51H222.444C221.058 100.51 219.935 101.629 219.935 103.01C219.935 104.39 221.058 105.509 222.444 105.509H227.463V100.51Z" fill="#251F48"/>
<path d="M252.138 88.5457C258.039 85.5902 262.175 78.7219 262.175 70.7208C262.175 62.7196 258.039 55.8513 252.138 52.8958V51.3474H245.865V51.3489C245.795 51.3479 245.725 51.3474 245.656 51.3474C236.532 51.3474 229.136 60.0211 229.136 70.7208C229.136 81.4204 236.532 90.0941 245.656 90.0941C245.725 90.0941 245.795 90.0936 245.865 90.0926V90.0941H252.138V88.5457Z" fill="#201C33"/>
<path d="M236.204 105.509H226.575C225.195 105.509 224.076 104.39 224.076 103.01C224.076 101.629 225.195 100.51 226.575 100.51H236.204C243.172 100.51 248.897 95.2047 249.529 88.4276H254.564C253.919 97.969 245.945 105.509 236.204 105.509Z" fill="#403366"/>
<ellipse cx="251.929" cy="70.7208" rx="16.5197" ry="19.3733" fill="#403366"/>
<path d="M263.964 70.721C263.964 78.8029 258.502 85.0927 252.06 85.0927C245.619 85.0927 240.157 78.8029 240.157 70.721C240.157 62.639 245.619 56.3493 252.06 56.3493C258.502 56.3493 263.964 62.639 263.964 70.721Z" fill="#161326" stroke="#5F5980" stroke-width="1.67065"/>
<path d="M242.244 16.6369C244.959 21.2312 246.232 27.892 246.232 30.922V70.7243C246.232 73.031 248.119 74.9009 250.426 74.9009C252.733 74.9009 254.619 73.031 254.619 70.7243V27.1524C254.619 25.4858 253.193 17.1729 252.895 15.5927L242.244 16.6369Z" fill="#161326"/>
<path d="M222.488 4.69545C220.3 4.69545 218.381 5.00807 216.35 5.51809C220.53 2.65278 225.377 0.93515 230.822 0.93515C245.204 0.93515 256.863 12.6265 256.863 27.0484V70.5122C256.863 72.8134 254.998 74.6789 252.697 74.6789C250.396 74.6789 248.53 72.8134 248.53 70.5122V30.8087C248.53 16.3868 236.871 4.69545 222.488 4.69545Z" fill="#403366"/>
<path fill-rule="evenodd" clip-rule="evenodd" d="M239.187 12.5581C235.961 8.97453 231.027 5.79514 223.639 5.99539C218.213 6.14246 214.211 8.66432 211.384 11.8407C208.538 15.0372 206.941 18.6277 206.326 21.238H204.237C204.921 18.3396 206.716 13.9434 209.824 10.4521C212.95 6.9407 217.464 4.07368 223.583 3.90784C231.696 3.68793 237.187 7.21471 240.739 11.1609C244.266 15.0788 246.149 19.7276 246.63 21.238H244.124C243.689 19.8743 242.439 16.1699 239.187 12.5581Z" fill="#161326"/>
<rect x="215.096" y="98.708" width="16.2889" height="8.77093" rx="4.38546" fill="#0D0A1A"/>
<rect x="213.472" y="98.708" width="15.4535" height="8.77093" rx="4.38546" fill="#201C33"/>
<path d="M79.0521 218.432C79.0521 214.972 81.857 212.167 85.317 212.167H214.577C218.037 212.167 220.842 214.972 220.842 218.432V219.667H79.0521V218.432Z" fill="#6C5C99"/>
<path d="M281 191H320V220H281V191Z" fill="#403366"/>
<rect x="297.901" y="139.935" width="4.85147" height="41.2917" fill="#332E4D"/>
<path d="M320.018 160.713C325.021 156.269 325.366 148.51 325.366 148.51C325.366 148.51 317.599 147.956 312.595 152.399C307.592 156.843 307.247 164.602 307.247 164.602C307.247 164.602 315.015 165.157 320.018 160.713Z" fill="#403366"/>
<path d="M307.25 164.601C307.447 164.614 315.079 165.097 320.017 160.711C324.945 156.334 325.354 148.742 325.365 148.513L307.25 164.601Z" fill="#6C5C99"/>
<path d="M281.059 160.713C276.056 156.269 275.711 148.51 275.711 148.51C275.711 148.51 283.479 147.956 288.482 152.399C293.485 156.843 293.83 164.602 293.83 164.602C293.83 164.602 286.063 165.157 281.059 160.713Z" fill="#6C5C99"/>
<path d="M293.827 164.601C293.631 164.614 285.999 165.097 281.061 160.711C276.133 156.334 275.724 148.742 275.713 148.513L293.827 164.601Z" fill="#403366"/>
<path fill-rule="evenodd" clip-rule="evenodd" d="M300.128 117.807C300.128 117.853 300.178 117.881 300.217 117.857C300.236 117.845 300.26 117.845 300.279 117.857C300.318 117.882 300.369 117.853 300.369 117.807V117.798C300.369 117.776 300.381 117.755 300.4 117.744L320.699 105.125C321.985 104.326 323.689 104.888 324.072 106.352C324.593 108.34 324.87 110.426 324.87 112.576C324.87 126.107 313.901 137.076 300.37 137.076C286.839 137.076 275.87 126.107 275.87 112.576C275.87 110.477 276.134 108.439 276.631 106.494C277.007 105.022 278.716 104.453 280.006 105.255L300.098 117.744C300.116 117.756 300.128 117.776 300.128 117.798V117.807Z" fill="#332E4C"/>
<mask id="mask0" mask-type="alpha" maskUnits="userSpaceOnUse" x="275" y="103" width="50" height="35">
<path fill-rule="evenodd" clip-rule="evenodd" d="M300.127 117.428L300.248 117.353L300.369 117.428V117.278L323.012 103.202C324.209 106.089 324.87 109.256 324.87 112.576C324.87 126.107 313.901 137.076 300.37 137.076C286.839 137.076 275.87 126.107 275.87 112.576C275.87 109.302 276.512 106.178 277.678 103.323L300.127 117.278V117.428Z" fill="#7360AC"/>
</mask>
<g mask="url(#mask0)">
<circle cx="309.692" cy="133.438" r="4.12375" fill="#8E7CBF"/>
<circle cx="321.335" cy="124.705" r="4.12375" fill="#8E7CBF"/>
<circle cx="281.068" cy="125.675" r="4.12375" fill="#8E7CBF"/>
<circle cx="297.321" cy="129.314" r="3.88118" fill="#8E7CBF"/>
<circle cx="290.286" cy="115.002" r="5.09404" fill="#8E7CBF"/>
<circle cx="311.39" cy="115.73" r="4.85147" fill="#8E7CBF"/>
</g>
<path d="M301.33 124.143L325.554 109.908C325.301 108.045 324.362 105.952 323.831 104.688L300.334 118.182V118.327L300.207 118.255L300.081 118.327V118.182L276.381 104.572C275.808 105.914 274.913 107.974 274.613 109.423L298.843 124.126C299.606 124.589 300.561 124.595 301.33 124.143Z" fill="#100B26"/>
<path d="M287.658 97.3007L282.014 101.926L286.623 104.829L288.436 97.797C288.553 97.3428 288.021 97.0034 287.658 97.3007Z" fill="#B2ADCC"/>
<path d="M293.48 102.642L289.292 106.136L292.913 108.459L294.261 103.133C294.377 102.678 293.841 102.341 293.48 102.642Z" fill="#B2ADCC"/>
<path d="M312.919 97.3007L318.563 101.926L313.954 104.829L312.141 97.797C312.024 97.3428 312.556 97.0034 312.919 97.3007Z" fill="#B2ADCC"/>
<path d="M307.097 102.642L311.286 106.136L307.664 108.459L306.316 103.133C306.201 102.678 306.736 102.341 307.097 102.642Z" fill="#B2ADCC"/>
<path d="M274.497 101.339C275.573 99.6419 277.822 99.139 279.519 100.216L300.236 113.359L320.953 100.216C322.65 99.139 324.898 99.6419 325.975 101.339C327.051 103.036 326.549 105.284 324.852 106.36L302.321 120.655C301.674 121.065 300.947 121.246 300.236 121.219C299.525 121.246 298.798 121.065 298.151 120.655L275.62 106.36C273.923 105.284 273.42 103.036 274.497 101.339Z" fill="#6C5C99"/>
<path d="M276.069 179.77H324.098V188.018H276.069V179.77Z" fill="#403366"/>
<rect x="309" y="191" width="7" height="29" fill="#6C5C99"/>
<rect x="309" y="180" width="7" height="8" fill="#6C5C99"/>
</svg>
