<svg width="109" height="161" viewBox="0 0 109 161" fill="none" xmlns="http://www.w3.org/2000/svg">
<path d="M54.4534 95.6024L25.9137 101.953L34.4056 73.5074L63.2001 66.303L54.4534 95.6024Z" fill="#8E7CBF"/>
<path d="M46.1313 123.479L25.9137 101.953L54.4534 95.6024L74.2719 116.39L46.1313 123.479Z" fill="#6C5C99"/>
<path d="M63.2001 66.303L54.4534 95.6024L74.2719 116.39L82.7638 87.9437L63.2001 66.303Z" fill="#403366"/>
<path d="M72.3211 22.6109L65.8153 38.0554L63.5435 23.2558L61.5333 8.79795L72.3211 22.6109Z" fill="#8E7CBF"/>
<path d="M82.5853 35.7534L65.8153 38.0554L72.3211 22.6109L88.6134 20.2502L82.5853 35.7534Z" fill="#6C5C99"/>
<path d="M61.5333 8.79799L72.3211 22.611L88.6135 20.2502L74.6552 14.275L61.5333 8.79799Z" fill="#403366"/>
<circle cx="7.5" cy="153.5" r="7.5" fill="#E6004C"/>
<circle cx="104.5" cy="145.5" r="4.5" fill="#E6004C"/>
<circle cx="94" cy="64" r="3" fill="#E6004C"/>
</svg>
