<svg width="112" height="165" viewBox="0 0 112 165" fill="none" xmlns="http://www.w3.org/2000/svg">
<path d="M39.989 38.431L8.66083 31.4595L17.9825 62.6848L49.5903 70.5932L39.989 38.431Z" fill="#8E7CBF"/>
<path d="M30.8538 7.83018L8.66082 31.4595L39.989 38.431L61.744 15.6127L30.8538 7.83018Z" fill="#6C5C99"/>
<path d="M49.5903 70.5932L39.989 38.431L61.744 15.6127L71.0656 46.8381L49.5903 70.5932Z" fill="#403366"/>
<path d="M49.3211 110.611L42.8153 126.055L40.5435 111.256L38.5333 96.7979L49.3211 110.611Z" fill="#8E7CBF"/>
<path d="M59.5853 123.753L42.8153 126.055L49.3211 110.611L65.6134 108.25L59.5853 123.753Z" fill="#6C5C99"/>
<path d="M38.5333 96.798L49.3211 110.611L65.6135 108.25L51.6552 102.275L38.5333 96.798Z" fill="#403366"/>
<circle cx="104.5" cy="32.5" r="7.5" fill="#E6004C"/>
<circle cx="37.5" cy="160.5" r="4.5" fill="#E6004C"/>
<circle cx="3" cy="94" r="3" fill="#E6004C"/>
</svg>
