<svg width="103" height="70" viewBox="0 0 103 70" fill="none" xmlns="http://www.w3.org/2000/svg">
<path fill-rule="evenodd" clip-rule="evenodd" d="M68.2067 32.3947C68.6311 30.9847 69.3525 27.1107 69.4092 24.3477C69.4517 22.4962 69.1404 19.7046 68.7301 17.2122C68.532 15.9874 68.2774 14.8052 68.0794 13.9222C67.7116 12.3128 66.7355 9.6067 65.4199 7.39908C64.5286 5.91787 63.496 4.76422 62.3926 3.89539C61.0912 2.87 59.3512 1.83028 57.5687 1.14659C56.6774 0.804794 55.7864 0.548446 54.9801 0.363307C52.8439 -0.135239 50.2693 -0.106756 48.0342 0.363307C47.2278 0.548446 46.3366 0.819036 45.4596 1.16083C43.6771 1.84452 41.937 2.88424 40.6356 3.90963C39.5323 4.77846 38.4996 5.93211 37.6084 7.41333C36.2928 9.62095 35.3166 12.327 34.9347 13.9222C34.7366 14.8195 34.482 15.9874 34.284 17.2122C33.8596 19.6904 33.5483 22.482 33.5908 24.3335C33.6475 27.0965 34.3689 30.9705 34.7933 32.3805C34.9913 33.0357 35.9675 35.229 37.0566 37.1802C38.3016 39.3878 39.6596 41.3533 39.6596 41.3533L43.3801 46.5945C43.3801 46.5945 45.9404 49.856 48.7698 51.2803C49.6326 51.6649 50.5805 51.9355 51.5425 51.9355C52.4619 51.9355 53.3956 51.6649 54.2444 51.2803C57.0878 49.856 59.6342 46.5945 59.6342 46.5945L63.3404 41.3675C63.3404 41.3675 64.6984 39.402 65.9434 37.1945C67.0325 35.2432 68.0087 33.0499 68.2067 32.3947ZM44.2146 30.1017C45.2473 31.0132 46.0961 32.1241 46.7892 33.2778C48.5267 36.1349 49.3536 39.1735 49.6895 40.4076C49.7638 40.6807 49.8141 40.8654 49.8449 40.9403C49.4347 40.983 47.4966 41.1539 45.205 40.456C43.3376 39.8863 41.2156 38.633 39.6172 37.0521C38.1459 35.6136 37.0001 33.6766 36.4201 31.6969C35.8259 29.6317 35.8401 27.5522 35.8684 26.8686C36.2066 27.0482 36.6652 27.1039 37.2602 27.1763C38.0341 27.2703 39.0388 27.3925 40.3104 27.8514C41.5976 28.3214 43.3376 29.3468 44.2146 30.1017ZM65.7566 27.1765C66.3508 27.104 66.8073 27.0484 67.1459 26.8686C67.1881 27.5522 67.2023 29.6459 66.6081 31.6969C66.0283 33.6766 64.8683 35.6278 63.4112 37.0521C61.7984 38.633 59.6906 39.8721 57.8234 40.4417C55.5316 41.1397 53.5937 40.9688 53.1834 40.926C53.2089 40.8584 53.2506 40.7012 53.312 40.4702C53.6254 39.2898 54.4502 36.1842 56.2248 33.2778C56.918 32.1241 57.7527 30.999 58.7994 30.1017C59.6766 29.3468 61.4165 28.3214 62.7039 27.8514C63.9823 27.3928 64.9854 27.2705 65.7566 27.1765Z" fill="#484266"/>
<path fill-rule="evenodd" clip-rule="evenodd" d="M3.75521 63.9785H2.68229L0 69.949H1.07292L1.98493 67.9078H4.45257L5.41816 69.949H6.49107L3.75521 63.9785ZM2.36049 67.0402L3.21875 65.2032L4.02344 67.0402H2.36049Z" fill="#484266"/>
<path d="M13.2506 64.0295H14.1088V69.0815H18.186L17.274 69.8468H13.2506V64.0295Z" fill="#484266"/>
<path d="M24.8917 64.0295H25.9111V69.8468H24.8917V64.0295Z" fill="#484266"/>
<path d="M36.7476 66.5301L35.8893 67.2956H34.2799V66.5301H36.7476Z" fill="#484266"/>
<path d="M32.7779 69.8979H37.2842V69.0304H33.7435V64.897H37.2842V64.0295H32.7779V69.8979Z" fill="#484266"/>
<path d="M102.41 66.5301L101.605 67.2956H99.9955V66.5301H102.41Z" fill="#484266"/>
<path d="M65.287 64.0295L63.8385 68.5712L62.1218 64.3867L62.0145 64.0295H61.3709L61.2098 64.3867L59.4933 68.6222L58.0448 64.0295H57.1328L59.0104 69.8979H59.9224L61.6927 65.5093L63.463 69.8468V69.8979H64.375V69.8468L66.199 64.0295H65.287Z" fill="#484266"/>
<path fill-rule="evenodd" clip-rule="evenodd" d="M75.5871 63.9785H76.66L79.4494 69.949H78.3765L77.4109 67.9078H74.9433L74.0312 69.949H72.9583L75.5871 63.9785ZM76.1235 65.2032L75.3188 67.0402H76.9818L76.1235 65.2032Z" fill="#484266"/>
<path d="M90.9284 67.0666L90.9297 67.0658C90.97 67.0403 91.0102 67.0148 91.037 66.9893C91.3052 66.6831 91.5197 66.2749 91.5197 65.8156C91.5197 64.9481 90.8759 64.0806 89.6959 64.0806H86.2625V69.949H87.1745V64.846H89.6959C90.4468 64.846 90.7688 65.3563 90.7688 65.8666C90.7688 66.1218 90.6615 66.377 90.5006 66.581C90.3395 66.7852 90.0712 66.8872 89.7494 66.8872H87.389V67.6016H89.213L90.715 70H91.6806L90.125 67.4486C90.3932 67.3975 90.6615 67.2444 90.8224 67.1423C90.8488 67.1171 90.8885 67.0919 90.9284 67.0666Z" fill="#484266"/>
<path d="M45.4377 64.0295L49.3538 68.7752V64.0295H50.2658V69.8979H49.3538L45.4377 65.1522V69.8979H44.4721V64.0295H45.4377Z" fill="#484266"/>
<path d="M103 64.0295H98.4401V69.8979H103V69.0304H99.4594V64.897H103V64.0295Z" fill="#484266"/>
</svg>
