<svg width="77" height="55" viewBox="0 0 77 55" fill="none" xmlns="http://www.w3.org/2000/svg">
<path d="M39.4292 0.000567555C37.0992 0.0189323 34.7595 0.48154 32.6035 1.27611C28.7059 2.89351 25.6356 5.98562 23.3883 9.4775C15.5988 20.4193 7.76103 31.3272 0 42.2887C7.89607 42.3325 15.7921 42.2761 23.6882 42.3157C25.556 42.3298 27.6158 42.5147 29.2503 41.4383C30.6675 40.4806 31.0754 38.64 30.9276 37.0354C30.6845 34.4263 30.7128 31.8046 30.6091 29.1885C27.4336 32.3329 22.885 33.4884 18.514 32.7906C22.794 26.1586 27.4051 19.7257 31.7462 13.1262C33.2643 10.8816 35.0382 8.65694 37.5243 7.42503C41.7147 5.38669 46.8333 5.16069 51.1317 7.01384C50.34 4.57433 48.5262 2.49503 46.1965 1.39181C44.0793 0.408662 41.7593 -0.0177953 39.4292 0.000567555ZM45.7608 8.94694C41.0936 8.91233 36.3254 11.33 34.8869 15.9694C33.8322 19.1717 34.3666 22.5831 34.3581 25.8828C34.341 29.9355 34.3936 33.9896 34.3325 38.0422C34.142 41.6316 31.184 44.5598 27.7285 45.2774C31.329 46.0953 35.4142 46.0148 38.5854 43.9313C41.2393 42.1881 42.7517 39.0382 42.7417 35.9094C42.8696 29.5514 42.6834 23.185 42.9094 16.8312C43.0587 13.1698 46.0835 10.2698 49.5831 9.55788C48.3673 9.15868 47.0677 8.95655 45.7608 8.94694ZM49.6658 12.5183C47.9369 12.5641 46.2881 14.0849 46.3652 15.8523C46.3837 19.0715 46.3467 22.2924 46.3866 25.5129C48.3879 24.0113 50.4974 22.4547 53.0175 21.9814C54.8086 21.7102 56.6236 21.9391 58.4204 22.0309C54.3708 28.1784 50.1831 34.2341 46.0483 40.3251C44.0796 43.2731 41.8437 46.3257 38.4748 47.7792C34.4636 49.5421 29.8128 49.2144 25.7729 47.7157C27.5739 52.7091 33.4115 55.7913 38.617 54.8223C44.8798 54.2827 50.3438 50.3784 53.6089 45.1561C61.4054 34.2779 69.2063 23.4039 77 12.5229C67.944 12.52 58.8895 12.5271 49.8335 12.5186C49.7777 12.5169 49.7217 12.517 49.6658 12.5183Z" fill="#484266"/>
</svg>
