<svg width="60" height="60" viewBox="0 0 60 60" fill="none" xmlns="http://www.w3.org/2000/svg">
<path d="M56.2927 45.4478C55.0003 45.1066 53.5596 45.1919 52.3519 45.8103C50.9747 46.4927 50 47.8787 49.767 49.3927C49.6187 50.5015 49.7034 51.653 50.2119 52.6552C50.8475 53.9559 52.0552 54.9155 53.4536 55.2354C53.9621 54.3184 54.4706 53.4228 54.9367 52.4846C54.3435 52.4206 53.7079 52.2927 53.2841 51.8449C52.7968 51.3118 52.712 50.5015 52.8392 49.8192C53.0299 48.9449 53.8774 48.3265 54.7461 48.3265C55.6147 48.2839 56.4834 48.8809 56.7165 49.7552C56.9496 50.5015 56.6317 51.2692 56.2927 51.9089C54.7884 54.5956 53.2841 57.2824 51.801 59.9905C52.9663 59.9905 54.1528 60.0118 55.3181 59.9905C56.1868 58.4552 57.0131 56.8986 57.8606 55.3633C58.4751 54.1905 59.1743 53.0817 59.6192 51.8236C60.0218 50.7148 59.937 49.478 59.5556 48.3905C59.0047 46.9405 57.7547 45.8316 56.2927 45.4478Z" fill="#484266"/>
<path d="M57.6698 36.9183C59.6827 34.3169 60.4454 30.7985 59.7462 27.5786C59.047 24.2095 56.7376 21.2455 53.6654 19.7528C50.2966 18.0256 46.0802 18.1962 42.8174 20.1153C40.063 21.6933 38.0502 24.508 37.4145 27.6426C39.5968 28.7301 41.8215 29.7536 44.0462 30.7985C43.8344 29.3911 44.2369 27.8984 45.2116 26.8536C46.1226 25.8514 47.4998 25.297 48.8346 25.3823C50.1906 25.4676 51.5254 26.1712 52.3094 27.3014C53.0086 28.261 53.3052 29.519 53.1145 30.6918C52.9026 32.1205 51.9704 33.3999 50.6991 34.061C49.7245 34.5727 48.5804 34.722 47.521 34.4661C46.8642 34.3169 46.2709 33.9757 45.6565 33.6985C41.9275 31.9073 38.1773 30.1801 34.4483 28.3676C36.3128 24.4014 38.1985 20.4565 40.063 16.4903C41.5249 13.6756 41.6309 10.1998 40.4867 7.25719C39.4273 4.50644 37.245 2.20349 34.5754 1.00937C32.3931 0.00715864 29.8929 -0.248725 27.5411 0.241718C25.1046 0.753485 22.8163 2.07555 21.206 3.99467C19.4475 6.04174 18.4517 8.72852 18.4728 11.4366C18.494 13.8888 19.3203 16.3624 20.8035 18.3241C22.4349 20.4992 24.8927 22.0558 27.5623 22.5889C27.753 22.2477 27.9013 21.9065 28.0708 21.5653C28.9395 19.6889 29.8506 17.8337 30.6981 15.9572C30.1048 16.0212 29.4904 16.0425 28.8971 15.8933C27.7106 15.616 26.6301 14.8484 25.9944 13.8035C25.3164 12.6947 25.1257 11.2874 25.5283 10.0506C25.9521 8.66455 27.0538 7.51307 28.431 7.06528C29.5328 6.68145 30.804 6.74542 31.8634 7.23586C33.0499 7.79028 33.9821 8.87778 34.3423 10.1359C34.639 11.1381 34.5542 12.2469 34.1516 13.1852C32.2236 17.258 30.3167 21.3521 28.3674 25.4036C24.1299 23.4418 19.9348 21.3947 15.7185 19.4116C12.1801 17.8977 7.87906 18.4094 4.76449 20.6697C2.56098 22.2264 0.971911 24.5933 0.336284 27.2161C-0.299343 29.7536 -0.0239049 32.483 1.07785 34.8499C2.20079 37.2808 4.21361 39.2639 6.62899 40.3728C8.98081 41.4603 11.7352 41.6948 14.2353 41.0338C17.2863 40.2661 19.9772 38.1338 21.4391 35.3191C21.9264 34.3595 22.3502 33.3573 22.4985 32.2698C20.295 31.2463 18.1127 30.1801 15.9091 29.1565C15.9515 29.647 15.9939 30.1588 15.9091 30.6492C15.7185 31.8433 15.0616 32.9735 14.0658 33.6772C13.0276 34.4448 11.6504 34.7433 10.3792 34.4661C9.19269 34.2102 8.11212 33.4639 7.45531 32.4191C6.88324 31.5235 6.62899 30.4146 6.79849 29.3485C6.98918 27.8984 7.92143 26.5551 9.23506 25.894C10.2097 25.3823 11.3538 25.233 12.4132 25.4889C12.9429 25.6168 13.4302 25.8727 13.9175 26.1073C23.6214 30.7132 33.3041 35.3191 42.9869 39.925C43.6225 40.2022 44.2157 40.5647 44.8726 40.7779C46.0591 41.1831 47.3091 41.4176 48.538 41.3963C52.0763 41.4603 55.5511 39.7331 57.6698 36.9183Z" fill="#484266"/>
<path d="M6.52307 47.6441C7.09513 47.9426 7.47651 48.497 7.75195 49.0728C8.64182 49.0728 9.51051 49.0728 10.4004 49.0728C10.1885 47.8147 9.38339 46.7272 8.36639 46.0022C6.98919 45.0639 5.16706 44.872 3.62037 45.4264C2.39149 45.8529 1.33211 46.7912 0.760049 47.9853C0.082047 49.3713 0.082047 51.0559 0.738862 52.4419C1.26855 53.5507 2.2008 54.4677 3.32375 54.9368C4.84925 55.5978 6.67138 55.5125 8.11214 54.6596C9.27745 53.9772 10.125 52.8044 10.4216 51.4823C9.5317 51.4823 8.66301 51.4823 7.77314 51.4823C7.43413 52.186 6.86207 52.8257 6.07813 53.039C5.14588 53.3162 4.06531 52.975 3.47206 52.2074C2.51862 51.0772 2.53981 49.222 3.578 48.1345C4.27719 47.3242 5.56963 47.0897 6.52307 47.6441Z" fill="#484266"/>
<path d="M14.1082 53.0177C14.1082 50.3736 14.1082 47.7508 14.1082 45.1067C13.2183 45.1067 12.3496 45.0854 11.4598 45.128C11.4809 48.5398 11.4598 51.9516 11.4598 55.3633C13.3454 55.3633 15.2311 55.3633 17.1168 55.3633C17.138 54.5957 17.1168 53.8067 17.1168 53.0391C16.121 53.0177 15.104 53.0177 14.1082 53.0177Z" fill="#484266"/>
<path d="M46.8006 46.3434C45.9107 45.4478 44.6394 45.1493 43.4105 45.128C42.0969 45.1066 40.7833 45.128 39.4697 45.1066C39.4485 48.5184 39.4697 51.9515 39.4697 55.3633C40.6774 55.3633 41.885 55.3633 43.0927 55.3633C44.4699 55.3633 45.9319 55.0434 46.9489 54.0626C47.9871 53.0817 48.3684 51.589 48.3261 50.1817C48.3684 48.753 47.8388 47.303 46.8006 46.3434ZM45.4657 51.6743C45.2539 52.2501 44.7666 52.7405 44.1521 52.9111C43.4953 53.1243 42.7961 53.039 42.1181 53.039C42.1181 51.1626 42.1181 49.2861 42.1181 47.4096C42.9444 47.4309 43.8555 47.303 44.5971 47.7721C45.2327 48.1346 45.5717 48.8809 45.6564 49.5846C45.7624 50.267 45.72 51.0133 45.4657 51.6743Z" fill="#484266"/>
<path d="M35.8891 45.1279C35.8891 47.772 35.8891 50.4161 35.8891 53.0389C34.9144 53.0603 33.9186 53.0389 32.944 53.0389C32.605 53.0389 32.2024 52.9963 31.9482 52.7191C31.5456 52.3353 31.5244 51.7382 31.5032 51.2264C31.482 49.1794 31.5032 47.1536 31.5032 45.1066C30.6345 45.1066 29.7659 45.1066 28.8972 45.1066C28.8972 47.047 28.8972 49.0088 28.8972 50.9492C28.8972 51.7382 28.8972 52.5698 29.2573 53.3162C29.5963 53.9772 30.1049 54.5742 30.7829 54.9154C31.6092 55.3206 32.5414 55.4059 33.4525 55.3632C35.0416 55.3632 36.6306 55.3632 38.2197 55.3632C38.2197 51.9514 38.2197 48.5397 38.2197 45.1279C37.4146 45.0852 36.6518 45.0852 35.8891 45.1279Z" fill="#484266"/>
<path d="M25.1257 45.6397C24.0663 45.1066 22.8163 44.9786 21.651 45.1919C20.4856 45.4051 19.4051 46.0661 18.6847 47.0044C17.9008 47.9213 17.5618 49.1581 17.5618 50.3522C17.5618 51.6316 18.0703 52.8897 18.9813 53.7853C20.0831 54.9368 21.7357 55.4912 23.3036 55.3206C24.8079 55.1926 26.2487 54.361 27.0962 53.1029C27.986 51.8235 28.1979 50.1176 27.7318 48.625C27.308 47.3456 26.3334 46.2367 25.1257 45.6397ZM25.0833 51.6103C24.7655 52.25 24.2147 52.8044 23.5155 52.9963C22.562 53.3162 21.4603 52.9963 20.8035 52.2287C19.8712 51.1625 19.8288 49.4139 20.6975 48.2838C21.0789 47.8147 21.6086 47.4735 22.2018 47.3669C22.9646 47.2176 23.7909 47.4095 24.363 47.9426C25.4224 48.8169 25.6978 50.4162 25.0833 51.6103Z" fill="#484266"/>
</svg>
