<svg width="91" height="60" viewBox="0 0 91 60" fill="none" xmlns="http://www.w3.org/2000/svg">
<path d="M3.88057 38.4776C6.50063 52.5186 25.2406 55.1383 43.2296 53.477C54.285 52.4547 67.5452 48.5092 75.5653 43.7169V50.6177C66.7304 55.4738 54.0134 58.6046 44.3 59.5471C19.7449 61.9272 3.67283 54.7549 0.669389 42.0717C-1.69509 32.1838 2.39489 23.8134 9.9355 17.2002V19.6442C5.74982 24.2128 2.60244 31.5449 3.88057 38.4776Z" fill="#484266"/>
<path d="M19.8246 10.7628C45.8977 -5.09935 86.333 -3.77348 90.5986 17.0405C92.8832 28.2063 85.007 37.3114 77.3225 40.1388V35.1549C83.7129 31.3532 87.2915 24.74 86.1573 18.3984C82.7863 -0.78634 45.8658 -0.866241 19.8246 12.52V10.7628Z" fill="#484266"/>
<path d="M69.3985 14.0056H74.1115V39.9313C70.5807 39.5959 69.3985 37.4553 69.3985 34.9953V14.0056Z" fill="#484266"/>
<path d="M17.9879 21.6729H13.2589V35.3944C13.2589 37.8704 14.4571 39.9949 17.9879 40.3304V21.6729Z" fill="#484266"/>
<path d="M13.2589 14.6444H17.9719V19.1171H13.2589V14.6444Z" fill="#484266"/>
<path d="M46.2172 40.1068C42.399 40.1068 40.7853 37.4551 40.7853 34.8354V16.6251H45.4662V21.6569H48.9811V25.4268H45.4662V34.5479C45.4662 35.6181 45.9776 36.2091 47.0799 36.2091H48.9811V40.1068H46.2172Z" fill="#484266"/>
<path fill-rule="evenodd" clip-rule="evenodd" d="M58.9499 36.5128C56.3198 36.5128 54.8188 34.7634 54.8121 32.3755H66.6823V30.6823C66.6823 25.395 63.8067 21.3695 58.8221 21.3695C53.9014 21.3695 50.1631 24.8039 50.1631 30.89C50.1631 37.9984 54.4447 40.4424 58.918 40.4424C62.3529 40.4424 64.286 39.3242 66.1391 37.5032L63.2475 34.7556C62.0493 35.9378 61.0267 36.5128 58.9499 36.5128ZM55.2595 27.152C55.7866 26.0499 57.0169 25.2192 58.6144 25.2192C61.0108 25.2192 61.9215 27.168 62.0174 29.1648H54.8121C54.844 28.3342 54.9559 27.823 55.2595 27.152Z" fill="#484266"/>
<path d="M30.6723 25.4427C32.0462 25.4427 32.6054 26.1136 32.6054 27.2158V40.1387H37.2863V27.1998C37.2863 24.5801 35.8965 21.6729 31.7906 21.6729H22.1411V40.1387H26.822V25.4427H30.6723Z" fill="#484266"/>
<path fill-rule="evenodd" clip-rule="evenodd" d="M79.671 17.0087H80.0225C80.0863 17.0087 80.1022 16.9767 80.1022 16.9607C80.1022 16.9527 80.0982 16.9407 80.0943 16.9288C80.0903 16.9168 80.0863 16.9048 80.0863 16.8968L79.5911 16.0502C79.8466 15.9544 80.0065 15.7787 80.0065 15.4432V15.4112C80.0065 14.8682 79.671 14.6924 79.0799 14.6924C78.92 14.6924 78.6325 14.6924 78.5047 14.7244C78.3929 14.7403 78.361 14.7883 78.361 14.9V16.9288C78.361 16.9607 78.3929 17.0087 78.4407 17.0087H78.7603C78.8083 17.0087 78.8402 16.9607 78.8402 16.9288V16.13H79.0639C79.0799 16.13 79.1118 16.146 79.1277 16.162L79.607 16.9607C79.607 16.9927 79.6391 17.0087 79.671 17.0087ZM79.1277 15.0918C79.4314 15.0918 79.5751 15.1716 79.5751 15.3952V15.4272C79.5751 15.6508 79.4314 15.7467 79.1277 15.7467C79.1038 15.7467 79.0398 15.7427 78.976 15.7387C78.9122 15.7347 78.8482 15.7307 78.8243 15.7307V15.0918H79.1277Z" fill="#484266"/>
<path fill-rule="evenodd" clip-rule="evenodd" d="M77.3225 15.8904C77.3225 16.9288 78.1532 17.7594 79.1917 17.7594C80.23 17.7594 81.0769 16.9288 81.0769 15.8904C81.0769 14.8682 80.23 14.0215 79.1917 14.0215C78.1532 14.0215 77.3225 14.8522 77.3225 15.8904ZM77.6421 15.8904C77.6421 15.0279 78.3289 14.325 79.1917 14.325C80.0544 14.325 80.7573 15.0279 80.7573 15.8904C80.7573 16.7371 80.0544 17.4399 79.1917 17.4399C78.3289 17.4399 77.6421 16.7531 77.6421 15.8904Z" fill="#484266"/>
</svg>
