<svg width="60" height="76" viewBox="0 0 60 76" fill="none" xmlns="http://www.w3.org/2000/svg">
<path d="M30.2409 0.00028201C23.6962 -0.0323819 17.1838 2.77401 12.6701 7.60354C8.28569 12.1719 5.80326 18.5352 5.96439 24.8984C6.02888 31.7837 9.18838 38.5059 14.3467 42.9765C18.699 46.7945 24.4699 48.9482 30.2409 48.9482V38.7996C25.3081 38.767 20.4399 36.0259 18.022 31.6532C15.2171 26.889 15.5395 20.4931 18.828 16.0225C21.4071 12.3352 25.7917 10.1815 30.2409 10.1488V0.00028201Z" fill="#484266"/>
<path d="M52.196 20.0689H30.5633V30.1848H42.2339V42.0302H52.196V20.0689Z" fill="#484266"/>
<path d="M15.4105 71.301C15.4105 72.7368 16.5389 73.8463 17.9253 73.8463C19.3438 73.8463 20.4399 72.7695 20.4078 71.301H22.6322C22.6322 73.9769 20.5689 76 17.9253 76C15.2816 76 13.2182 73.9442 13.2182 71.301H15.4105Z" fill="#484266"/>
<path fill-rule="evenodd" clip-rule="evenodd" d="M22.5677 61.8704V63.6325L21.923 63.8936C22.4066 64.5462 22.6322 65.4272 22.6322 66.3084C22.6322 68.9841 20.5689 71.0073 17.9253 71.0073C15.2816 71.0073 13.2182 68.9515 13.2182 66.3084C13.2182 63.6325 15.2816 61.6093 17.9253 61.6093C18.4734 61.6093 19.0215 61.7072 19.5051 61.8704H22.5677ZM15.4105 66.2757C15.4105 67.7441 16.5389 68.8537 17.9253 68.8537C19.3438 68.8537 20.4723 67.7441 20.4399 66.2757C20.4399 64.8399 19.3438 63.7304 17.9253 63.7304C16.5067 63.7304 15.4105 64.8399 15.4105 66.2757Z" fill="#484266"/>
<path d="M2.19232 70.7137H0V58.1177H2.19232V70.7137Z" fill="#484266"/>
<path fill-rule="evenodd" clip-rule="evenodd" d="M3.03052 66.3084C3.03052 63.6325 5.09385 61.6093 7.73742 61.6093C10.3812 61.6093 12.4767 63.6325 12.4445 66.3084C12.4445 68.9841 10.3812 71.0073 7.73742 71.0073C5.09385 71.0073 3.03052 68.9515 3.03052 66.3084ZM5.22284 66.2757C5.22284 67.7441 6.35115 68.8537 7.73742 68.8537C9.15604 68.8537 10.2845 67.7441 10.2522 66.2757C10.2522 64.8399 9.15604 63.7304 7.73742 63.7304C6.319 63.7304 5.22284 64.8399 5.22284 66.2757Z" fill="#484266"/>
<path d="M25.7272 70.7137H23.5349V61.8704H25.7272V70.7137Z" fill="#484266"/>
<path d="M48.2628 64.8725C47.6824 64.2199 46.9409 63.7304 46.006 63.7304C44.5874 63.7304 43.5236 64.8399 43.5236 66.2757C43.5236 67.7115 44.6197 68.821 46.006 68.821C46.9409 68.821 47.7147 68.3315 48.2628 67.6789L49.7781 69.2126C48.9076 70.2894 47.5858 70.9747 46.0382 70.9747C43.3946 70.9747 41.3313 68.9189 41.3313 66.2757C41.3313 63.5999 43.3946 61.5767 46.0382 61.5767C47.5858 61.5767 48.9399 62.262 49.7781 63.3389L48.2628 64.8725Z" fill="#484266"/>
<path d="M52.7763 62.7188C53.4212 62.0336 54.356 61.6093 55.42 61.6093C57.4834 61.6093 58.9986 63.0777 59.0308 65.4926V70.7137H56.8384V65.9168C56.8384 64.5462 56.1616 63.763 54.9041 63.763C53.5823 63.763 52.7763 64.6441 52.7763 65.9168V70.7137H50.5839V58.1177H52.7763V62.7188Z" fill="#484266"/>
<path fill-rule="evenodd" clip-rule="evenodd" d="M31.4982 66.3409C31.4982 63.6325 33.497 61.6093 36.1084 61.6093C38.752 61.6093 40.5897 63.6325 40.5897 66.6021V67.1241H33.7871C34.1096 68.2989 35.0123 68.9841 36.2051 68.9841C37.2046 68.9841 37.9783 68.4946 38.6875 67.8094L40.1385 69.2778C39.1068 70.3873 37.7203 70.9747 36.1406 70.9747C33.3359 70.9747 31.4982 69.0168 31.4982 66.3409ZM36.0439 63.5346C34.8833 63.5346 34.0127 64.1872 33.7226 65.362H38.3007C38.0428 64.1872 37.1722 63.5346 36.0439 63.5346Z" fill="#484266"/>
<path fill-rule="evenodd" clip-rule="evenodd" d="M59.2566 60.5978C59.4177 60.5978 59.5467 60.663 59.5467 60.8261C59.5467 60.9894 59.4822 61.0546 59.3854 61.0546L59.5788 61.381H59.4499L59.2566 61.0546H59.0953V61.381H58.9986V60.5978H59.2566ZM59.0953 60.6957V60.9567H59.2566C59.3854 60.9567 59.4499 60.924 59.4499 60.8261C59.4499 60.7609 59.3854 60.6957 59.2566 60.6957H59.0953Z" fill="#484266"/>
<path fill-rule="evenodd" clip-rule="evenodd" d="M58.4827 60.9894C58.4827 60.5977 58.8373 60.2388 59.2566 60.2388C59.6757 60.2388 60.0303 60.5977 59.9979 60.9894C59.9979 61.4135 59.6757 61.7725 59.2566 61.7725C58.8373 61.7725 58.4827 61.4135 58.4827 60.9894ZM58.5795 60.9894C58.5795 61.381 58.8696 61.6746 59.2566 61.6746C59.6433 61.6746 59.9335 61.381 59.9013 60.9894C59.9013 60.6304 59.6112 60.3367 59.2566 60.3367C58.8696 60.3367 58.5795 60.6304 58.5795 60.9894Z" fill="#484266"/>
<path d="M23.1803 59.3577C23.1803 58.5419 23.7929 57.8893 24.5989 57.8893C25.4371 57.8893 26.0818 58.5419 26.0497 59.3577C26.0497 60.1409 25.4371 60.7936 24.5989 60.7936C23.825 60.7936 23.1803 60.1735 23.1803 59.3577Z" fill="#484266"/>
<path d="M27.8229 59.1619H30.015V61.8704H31.208V63.8283H30.015V70.7137H27.8229V63.8283H26.6623V61.8704H27.8229V59.1619Z" fill="#484266"/>
</svg>
