<svg width="64" height="70" viewBox="0 0 64 70" fill="none" xmlns="http://www.w3.org/2000/svg">
<path d="M14.6657 46.9113L31.8316 10.9386L52.3934 46.1038L14.6657 46.9113ZM31.9063 12.1132L15.5987 46.324L51.4604 45.5165L31.9063 12.1132Z" fill="#484266"/>
<path d="M2.0153 17.399L1.82872 16.8851L31.3466 1.46824L32.2049 11.7462L2.0153 17.399ZM30.8241 2.3492L3.73189 16.518L31.5705 11.269L30.8241 2.3492Z" fill="#484266"/>
<path d="M62.0212 17.4725L31.757 11.7462L30.9733 1.43157L62.2078 16.9219L62.0212 17.4725ZM32.2794 11.269L60.1553 16.5181L31.6077 2.38595L32.2794 11.269Z" fill="#484266"/>
<path d="M33.66 68.8621L33.2868 68.4583L51.8334 45.4798L62.4688 50.5821L33.66 68.8621ZM51.9827 46.1406L34.7795 67.4672L61.312 50.6188L51.9827 46.1406Z" fill="#484266"/>
<path d="M33.3615 68.8622L1.23141 50.4353L15.2253 46.2874L15.3373 46.4343L33.7346 68.4584L33.3615 68.8622ZM2.64946 50.6188L32.3166 67.6141L15.0388 46.9482L2.64946 50.6188Z" fill="#484266"/>
<path d="M62.3571 50.8389L51.5724 45.9569L61.7973 17.1053L62.3571 17.2155V50.8389ZM52.2441 45.6633L61.76 49.958V18.8306L52.2441 45.6633Z" fill="#484266"/>
<path d="M1.64201 50.8758V18.3902L2.16445 18.2801L15.4867 46.8013L1.64201 50.8758ZM2.23908 19.6749V50.1416L14.7403 46.4342L2.23908 19.6749Z" fill="#484266"/>
<path d="M51.9829 46.4709L31.4585 11.1222L62.4317 16.9586L51.9829 46.4709ZM32.5407 11.8931L51.8336 45.1495L61.6854 17.3991L32.5407 11.8931Z" fill="#484266"/>
<path d="M15.0761 47.2785L1.56725 16.9219L32.3912 11.1222L15.0761 47.2785ZM2.35091 17.3257L15.0761 45.9203L31.3836 11.8563L2.35091 17.3257Z" fill="#484266"/>
<path d="M62.8795 17.1787C62.8795 17.6192 62.5063 17.9863 62.0585 17.9863C61.6107 17.9863 61.2376 17.6192 61.2376 17.1787C61.2376 16.7382 61.6107 16.3712 62.0585 16.3712C62.5063 16.3712 62.8795 16.7382 62.8795 17.1787Z" fill="#484266"/>
<path d="M62.0584 19.0877C60.9762 19.0877 60.1179 18.2434 60.1179 17.1789C60.1179 16.1144 60.9762 15.2702 62.0584 15.2702C63.1406 15.2702 63.9989 16.1144 63.9989 17.1789C64.0362 18.2434 63.1406 19.0877 62.0584 19.0877ZM62.0584 16.8853C61.8718 16.8853 61.7599 17.0321 61.7599 17.1789C61.7599 17.3625 61.9091 17.4726 62.0584 17.4726C62.245 17.4726 62.3569 17.3258 62.3569 17.1789C62.3569 17.0321 62.245 16.8853 62.0584 16.8853Z" fill="#484266"/>
<path d="M52.729 45.8102C52.729 46.2507 52.3558 46.6177 51.908 46.6177C51.4602 46.6177 51.087 46.2507 51.087 45.8102C51.087 45.3697 51.4602 45.0026 51.908 45.0026C52.3558 45.0026 52.729 45.3697 52.729 45.8102Z" fill="#484266"/>
<path d="M51.9083 47.7188C50.8261 47.7188 49.9678 46.8746 49.9678 45.8101C49.9678 44.7456 50.8261 43.9013 51.9083 43.9013C52.9905 43.9013 53.8488 44.7456 53.8488 45.8101C53.8488 46.8746 52.9905 47.7188 51.9083 47.7188ZM51.9083 45.5164C51.7217 45.5164 51.6097 45.6632 51.6097 45.8101C51.6097 45.9936 51.759 46.1037 51.9083 46.1037C52.0949 46.1037 52.2068 45.9569 52.2068 45.8101C52.2068 45.6265 52.0949 45.5164 51.9083 45.5164Z" fill="#484266"/>
<path d="M62.8795 50.3985C62.8795 50.839 62.5063 51.206 62.0585 51.206C61.6107 51.206 61.2376 50.839 61.2376 50.3985C61.2376 49.958 61.6107 49.5909 62.0585 49.5909C62.5063 49.5909 62.8795 49.958 62.8795 50.3985Z" fill="#484266"/>
<path d="M62.0584 52.3072C60.9762 52.3072 60.1179 51.463 60.1179 50.3985C60.1179 49.334 60.9762 48.4897 62.0584 48.4897C63.1406 48.4897 63.9989 49.334 63.9989 50.3985C64.0362 51.463 63.1406 52.3072 62.0584 52.3072ZM62.0584 50.1048C61.8718 50.1048 61.7599 50.2517 61.7599 50.3985C61.7599 50.582 61.9091 50.6922 62.0584 50.6922C62.245 50.6922 62.3569 50.5453 62.3569 50.3985C62.3569 50.215 62.245 50.1048 62.0584 50.1048Z" fill="#484266"/>
<path d="M34.3318 68.0545C34.3318 68.495 33.9587 68.862 33.5109 68.862C33.0631 68.862 32.6899 68.495 32.6899 68.0545C32.6899 67.614 33.0631 67.2469 33.5109 67.2469C33.9587 67.2469 34.3318 67.614 34.3318 68.0545Z" fill="#484266"/>
<path d="M33.5109 70C32.4287 70 31.5704 69.1557 31.5704 68.0912C31.5704 67.0267 32.4287 66.1825 33.5109 66.1825C34.5931 66.1825 35.4514 67.0267 35.4514 68.0912C35.4514 69.119 34.5931 70 33.5109 70ZM33.5109 67.7609C33.3243 67.7609 33.2124 67.9077 33.2124 68.0545C33.2124 68.2381 33.3616 68.3482 33.5109 68.3482C33.6975 68.3482 33.8095 68.2014 33.8095 68.0545C33.8095 67.9077 33.6975 67.7609 33.5109 67.7609Z" fill="#484266"/>
<path d="M15.9345 46.6178C15.9345 47.0582 15.5613 47.4253 15.1135 47.4253C14.6657 47.4253 14.2925 47.0582 14.2925 46.6178C14.2925 46.1773 14.6657 45.8102 15.1135 45.8102C15.5613 45.8102 15.9345 46.1773 15.9345 46.6178Z" fill="#484266"/>
<path d="M15.1134 48.5265C14.0312 48.5265 13.1729 47.6823 13.1729 46.6178C13.1729 45.5533 14.0312 44.709 15.1134 44.709C16.1956 44.709 17.0539 45.5533 17.0539 46.6178C17.0912 47.6823 16.1956 48.5265 15.1134 48.5265ZM15.1134 46.3241C14.9268 46.3241 14.8148 46.4709 14.8148 46.6178C14.8148 46.8013 14.9641 46.9114 15.1134 46.9114C15.2999 46.9114 15.4119 46.7646 15.4119 46.6178C15.4492 46.4342 15.2999 46.3241 15.1134 46.3241Z" fill="#484266"/>
<path d="M2.76142 17.1422C2.76142 17.5826 2.38825 17.9497 1.94044 17.9497C1.49263 17.9497 1.11946 17.5826 1.11946 17.1422C1.11946 16.7017 1.49263 16.3346 1.94044 16.3346C2.38825 16.3346 2.76142 16.7017 2.76142 17.1422Z" fill="#484266"/>
<path d="M1.94049 19.0509C0.858294 19.0509 0 18.2067 0 17.1422C0 16.0777 0.858294 15.2334 1.94049 15.2334C3.02269 15.2334 3.88098 16.0777 3.88098 17.1422C3.88098 18.2067 3.02269 19.0509 1.94049 19.0509ZM1.94049 16.8485C1.75391 16.8485 1.64195 16.9953 1.64195 17.1422C1.64195 17.3257 1.79122 17.4358 1.94049 17.4358C2.12708 17.4358 2.23903 17.289 2.23903 17.1422C2.23903 16.9586 2.12708 16.8485 1.94049 16.8485Z" fill="#484266"/>
<path d="M32.6896 11.526C32.6896 11.9664 32.3165 12.3335 31.8687 12.3335C31.4209 12.3335 31.0477 11.9664 31.0477 11.526C31.0477 11.0855 31.4209 10.7184 31.8687 10.7184C32.3165 10.7184 32.6896 11.0488 32.6896 11.526Z" fill="#484266"/>
<path d="M31.8689 13.4346C30.7867 13.4346 29.9284 12.5904 29.9284 11.5259C29.9284 10.4614 30.7867 9.61711 31.8689 9.61711C32.9511 9.61711 33.8094 10.4614 33.8094 11.5259C33.8094 12.5537 32.9511 13.4346 31.8689 13.4346ZM31.8689 11.1955C31.6823 11.1955 31.5704 11.3423 31.5704 11.4892C31.5704 11.6727 31.7196 11.7828 31.8689 11.7828C32.0555 11.7828 32.1674 11.636 32.1674 11.4892C32.1674 11.3423 32.0555 11.1955 31.8689 11.1955Z" fill="#484266"/>
<path d="M31.9062 1.90875C31.9062 2.34923 31.533 2.7163 31.0852 2.7163C30.6374 2.7163 30.2642 2.34923 30.2642 1.90875C30.2642 1.46827 30.6374 1.1012 31.0852 1.1012C31.533 1.1012 31.9062 1.46827 31.9062 1.90875Z" fill="#484266"/>
<path d="M31.0851 3.81751C30.0029 3.81751 29.1446 2.97326 29.1446 1.90876C29.1446 0.844258 30.0029 0 31.0851 0C32.1673 0 33.0256 0.844258 33.0256 1.90876C33.0256 2.97326 32.1673 3.81751 31.0851 3.81751ZM31.0851 1.6151C30.8985 1.6151 30.7865 1.76193 30.7865 1.90876C30.7865 2.09229 30.9358 2.20241 31.0851 2.20241C31.2717 2.20241 31.3836 2.05558 31.3836 1.90876C31.3836 1.76193 31.2344 1.6151 31.0851 1.6151Z" fill="#484266"/>
<path d="M3.02269 50.5087C3.02269 50.9492 2.64952 51.3162 2.20171 51.3162C1.75391 51.3162 1.38074 50.9492 1.38074 50.5087C1.38074 50.0682 1.75391 49.7011 2.20171 49.7011C2.64952 49.7011 3.02269 50.0682 3.02269 50.5087Z" fill="#484266"/>
<path d="M2.20157 52.4541C1.11937 52.4541 0.261076 51.6098 0.261076 50.5453C0.261076 49.4808 1.11937 48.6366 2.20157 48.6366C3.28376 48.6366 4.14206 49.4808 4.14206 50.5453C4.14206 51.5731 3.28376 52.4541 2.20157 52.4541ZM2.20157 50.215C2.0523 50.215 1.90303 50.3618 1.90303 50.5086C1.90303 50.6922 2.0523 50.8023 2.20157 50.8023C2.38815 50.8023 2.5001 50.6555 2.5001 50.5086C2.5001 50.3618 2.35084 50.215 2.20157 50.215Z" fill="#484266"/>
<path d="M33.5108 69.743L14.4791 46.9113L0.932951 16.6282L31.8689 10.8285L32.0181 10.8652L63.0287 16.7016L52.5799 46.1772L52.5052 46.2506L33.5108 69.743ZM15.7479 46.2506L33.5108 67.5039L51.2738 45.4431L61.1255 17.6927L31.8689 12.1867L2.94808 17.656L15.7479 46.2506Z" fill="#484266"/>
<path d="M37.6158 29.9895C37.2053 30.8338 36.8321 31.6046 36.4589 32.3755C36.0858 33.1463 35.7499 33.8805 35.3767 34.6146C34.9663 35.4589 34.5558 36.2664 34.1453 37.0373C33.7721 37.8081 33.3616 38.6157 32.9511 39.4232H32.1302L29.6299 34.4678L27.3909 29.9528H27.3536V41.6256H26.3833V27.7504H27.3536C27.876 28.8149 28.3984 29.8794 28.9209 30.9072C29.4433 31.9717 29.9658 32.9995 30.4882 34.0273C30.8241 34.7247 31.1599 35.4222 31.4958 36.1196C31.8316 36.817 32.1675 37.5144 32.5406 38.1752L33.287 36.7436L34.5931 34.0273C35.1155 32.9628 35.638 31.935 36.1604 30.8705C36.6828 29.806 37.2053 28.7782 37.6904 27.7504H38.6233V41.6256H37.6531V29.9895H37.6158Z" fill="#484266"/>
</svg>
