<svg width="100" height="65" viewBox="0 0 100 65" fill="none" xmlns="http://www.w3.org/2000/svg">
<path d="M97.4138 60.264H100V44.6223H97.4138V50.7921H97.3276C96.7673 49.4451 95.3879 49.2279 94.0517 49.2279C90.3448 49.2279 89.9138 51.27 89.9138 54.4853C89.9138 57.8309 90.0431 60.3944 94.0517 60.3944C95.5604 60.3944 96.7673 60.0468 97.4569 58.6129H97.5431L97.4138 60.264ZM94.7845 51.2266C97.0259 51.2266 97.3276 52.1825 97.3276 54.4853C97.3276 57.0922 97.4138 58.3957 94.7845 58.3957C92.4138 58.3957 92.4569 56.9619 92.4569 54.4853C92.4569 51.748 92.9742 51.2266 94.7845 51.2266Z" fill="#484266"/>
<path d="M88.0172 44.6657H85.431V46.8816H88.0172V44.6657Z" fill="#484266"/>
<path d="M88.0172 49.3582H85.431V60.3074H88.0172V49.3582Z" fill="#484266"/>
<path d="M83.2327 60.2641V49.3149H80.6465V55.6151C80.6465 57.5268 80 58.3524 78.0172 58.3524C76.3362 58.3524 76.2069 57.7441 76.2069 56.1799V49.2715H73.6207V57.1792C73.6207 59.5689 75.0862 60.3076 77.2413 60.3076C78.75 60.3076 80.0862 59.96 80.6896 58.4827H80.7758V60.1772H83.2327V60.2641Z" fill="#484266"/>
<path d="M71.3362 49.3583H68.75L68.8362 51.0093H68.75C68.1034 49.5755 66.8965 49.2279 65.3448 49.2279C61.2931 49.2279 61.2069 51.7914 61.2069 55.137C61.2069 58.3523 61.6379 60.3944 65.3448 60.3944C66.681 60.3944 68.0603 60.1337 68.6207 58.8302H68.7069V65H71.2931V49.3583H71.3362ZM66.1207 51.2266C68.362 51.2266 68.7069 52.1825 68.7069 54.4853C68.7069 57.0922 68.75 58.3957 66.1207 58.3957C63.75 58.3957 63.7931 56.9619 63.7931 54.4853C63.7931 51.748 64.3103 51.2266 66.1207 51.2266Z" fill="#484266"/>
<path d="M59.2673 44.6657H56.6811V46.8816H59.2673V44.6657Z" fill="#484266"/>
<path d="M59.2673 49.3582H56.6811V60.3074H59.2673V49.3582Z" fill="#484266"/>
<path d="M54.5259 44.6657H51.9397V60.3075H54.5259V44.6657Z" fill="#484266"/>
<path d="M34.0517 49.3583H32.4137V60.3075H34.0517V53.7032C34.0517 51.4873 35.1724 50.5748 37.3275 50.5748C39.6982 50.5748 39.6982 51.5307 39.7413 52.9646V60.3075H41.3792V53.6163C41.3792 51.27 42.3706 50.5748 44.6982 50.5748C46.8103 50.5748 47.0689 51.4004 47.0689 53.2687V60.3075H48.7068V53.0949C48.7068 50.4011 47.7154 49.2279 44.9568 49.2279C43.4913 49.2279 41.8103 49.5755 41.0775 51.0528C40.6896 49.619 39.0517 49.2279 37.7155 49.2279C36.3361 49.2279 34.6551 49.619 34.0948 51.0528H34.0517V49.3583Z" fill="#484266"/>
<path d="M29.9568 60.2642V52.791C29.9568 49.4454 27.974 49.1847 25.2585 49.1847C22.8447 49.1847 20.9051 49.3585 20.9051 52.1827V52.3999H22.5861V52.0089C22.5861 50.4881 24.1378 50.4881 25.4309 50.4881C27.2844 50.4881 28.3189 50.6619 28.3189 52.6606V54.7027H28.2327C28.0171 53.7034 25.9051 53.6165 24.8275 53.6165C22.1551 53.6165 20.6034 54.051 20.6034 57.049C20.6034 59.9166 22.2844 60.3511 24.7413 60.3511C26.1206 60.3511 27.7154 60.3077 28.3189 59.0476L28.362 59.0911V60.2208H29.9568V60.2642ZM24.9999 59.0911C23.1034 59.0911 22.2844 59.0042 22.2844 56.9186C22.2844 55.1372 23.0603 55.0069 24.9999 55.0069C27.0689 55.0069 28.2758 55.0069 28.2758 57.049C28.2758 59.0476 26.6378 59.0911 24.9999 59.0911Z" fill="#484266"/>
<path d="M10.8189 53.8335C10.9482 51.3135 11.0344 50.5314 14.0086 50.5314C16.5086 50.5314 16.8534 50.7052 16.9396 53.8335H10.8189ZM16.9396 56.9619V57.3964C16.9396 58.9606 16.2068 59.0909 13.9655 59.0909C11.0344 59.0909 10.7758 58.6564 10.7758 55.1805H18.5775V54.0942C18.5775 50.0535 17.4568 49.2279 13.9655 49.2279C10.0862 49.2279 9.09478 50.2707 9.09478 54.8329C9.09478 59.004 9.74134 60.4378 13.9655 60.4378C16.3793 60.4378 18.5775 60.3075 18.5775 57.3964V57.0053H16.9396V56.9619Z" fill="#484266"/>
<path d="M7.28447 49.3582H3.06034V46.7078H1.46551V49.3582H0V50.7052H1.46551V57.1357C1.46551 59.6992 2.02586 60.4378 4.56896 60.4378C6.81033 60.4378 7.6724 59.395 7.6724 57.266V56.4405H6.12068V57.266C6.12068 58.3088 6.12068 59.1343 4.61206 59.1343C3.40517 59.1343 3.10344 58.8736 3.10344 57.6571V50.7052H7.28447V49.3582Z" fill="#484266"/>
<path d="M36.7244 26.8083C35.3882 27.46 33.5779 28.2856 31.5951 28.9808C31.9399 30.5015 32.4141 31.8484 33.0606 33.065C34.5261 32.1091 35.8624 31.1532 36.8537 30.3711C36.7675 29.1111 36.7244 27.938 36.7244 26.8083Z" fill="#484266"/>
<path d="M40.0433 15.6853C37.5433 14.686 33.7933 12.8611 30.6467 10.5148V13.9908C30.6467 14.6425 30.6467 15.2942 30.6467 15.9025C33.5778 17.0322 36.5519 17.7274 38.664 18.075C39.095 17.206 39.5691 16.4239 40.0433 15.6853Z" fill="#484266"/>
<path d="M43.5778 11.6878C41.8536 9.90642 39.4398 7.03877 37.5864 3.91043L32.8019 5.5615C35.4312 8.95054 39.2243 11.8616 41.6812 13.5562C42.2847 12.861 42.9312 12.2527 43.5778 11.6878Z" fill="#484266"/>
<path d="M45.7761 10.0368C46.6382 9.47198 47.5002 8.99404 48.2761 8.68989C47.5433 6.73468 46.6813 3.91047 46.2071 0.912477L41.9399 2.38975C43.0606 5.38775 44.6123 8.1685 45.7761 10.0368Z" fill="#484266"/>
<path d="M37.6726 20.6818C35.8622 20.7687 33.3191 20.7253 30.7329 20.4212C30.776 21.9419 30.8622 23.3757 30.9484 24.7226C33.276 24.4619 35.3881 24.0274 36.9829 23.5929C37.1553 22.5936 37.414 21.5943 37.6726 20.6818Z" fill="#484266"/>
<path d="M37.6295 34.3249C37.1122 34.9766 36.4657 35.7153 35.7329 36.4974C36.2933 37.0187 36.9398 37.5401 37.6295 38.0615C38.0605 38.3657 38.5346 38.6698 39.0088 38.974C38.4053 37.3229 37.9743 35.8022 37.6295 34.3249Z" fill="#484266"/>
<path d="M58.0175 16.641C58.4485 16.9886 59.5692 16.6845 59.5692 16.6845L58.7502 15.7286L57.0261 14.5554C57.0261 14.512 57.5864 16.2934 58.0175 16.641Z" fill="#484266"/>
<path d="M63.6208 26.2868L62.5863 25.4613L63.1897 26.8951L64.8708 26.7648L63.6208 26.2868Z" fill="#484266"/>
<path d="M51.207 0C50.4742 2.30281 50.2587 5.12701 51.0777 7.90776C51.3794 7.60362 53.5777 5.30081 55.5604 3.0849C55.5604 3.0849 58.1466 6.0829 54.526 9.21124C54.526 9.21124 61.0346 13.7734 61.4225 13.9907C61.4225 13.9907 61.0777 15.4245 61.4225 16.6411L66.5087 26.6344L63.9225 29.6758L60.1294 27.5468L61.9397 30.5014C61.9397 30.5014 59.8708 30.7621 59.2673 30.4579C58.9225 28.5896 57.2846 25.5482 57.2846 25.5482L53.4484 23.984C53.4484 23.984 51.7673 21.8984 51.8967 18.9004C51.8967 18.9004 50.0001 26.8516 55.1725 28.8069L62.4139 38.105C69.0949 33.4559 69.3535 26.982 69.3535 14.0776V6.30014L51.207 0Z" fill="#484266"/>
</svg>
