<svg width="81" height="38" viewBox="0 0 81 38" fill="none" xmlns="http://www.w3.org/2000/svg">
<path d="M66.0708 37.9871C65.8873 37.935 65.7038 37.8894 65.5266 37.8243C64.457 37.4402 63.8179 36.4572 63.7609 35.1161C63.6976 33.5992 64.5203 32.3427 65.805 32.0628C68.1276 31.5615 69.4883 33.3258 69.2668 35.4025C69.1149 36.8152 68.4251 37.5769 67.0644 37.9415C67.0454 37.948 67.0328 37.9675 67.0138 37.9805C66.7037 37.9871 66.3873 37.9871 66.0708 37.9871ZM68.0897 34.9663C68.0201 34.6408 67.9757 34.2828 67.8555 33.9572C67.6277 33.3388 67.1467 33.0328 66.5012 33.0393C65.881 33.0458 65.419 33.3648 65.1848 33.9703C64.938 34.6083 64.9317 35.2658 65.1469 35.9103C65.3684 36.5743 65.8746 36.9324 66.5328 36.9324C67.1973 36.9259 67.691 36.5678 67.9061 35.8908C67.9947 35.6108 68.0264 35.3049 68.0897 34.9663Z" fill="#484266"/>
<path d="M18.353 37.987C18.3277 37.9674 18.3024 37.9414 18.2771 37.9349C17.1696 37.707 16.4734 37.0235 16.2013 35.9102C15.9102 34.7123 16.0874 33.5926 16.9734 32.6942C17.8404 31.8218 19.3783 31.7242 20.3718 32.4403C20.9035 32.8244 21.1946 33.3452 21.2705 34.0483C20.8971 34.0483 20.5491 34.0548 20.2073 34.0418C20.144 34.0418 20.0681 33.9376 20.0364 33.866C19.8339 33.3647 19.4605 33.0978 18.9479 33.0522C18.391 33.0067 17.9164 33.202 17.6379 33.7228C17.2075 34.5431 17.2012 35.3894 17.6126 36.2162C17.8784 36.75 18.4416 37.0039 19.0302 36.9258C19.6187 36.8412 19.9352 36.4636 20.0744 35.9037C20.0934 35.8321 20.1124 35.7605 20.1377 35.6693C20.5174 35.6693 20.9035 35.6693 21.2895 35.6693C21.3211 36.6915 20.568 37.655 19.5365 37.9219C19.4542 37.9414 19.3783 37.974 19.3023 38C18.9859 37.987 18.6695 37.987 18.353 37.987Z" fill="#484266"/>
<path d="M0 32.1279C1.5252 32.1279 3.05039 32.1279 4.59457 32.1279C4.59457 32.4794 4.59457 32.8114 4.59457 33.176C4.03765 33.176 3.49972 33.176 2.93015 33.176C2.93015 34.745 2.93015 36.2814 2.93015 37.8373C2.51246 37.8373 2.12008 37.8373 1.69607 37.8373C1.69607 36.2879 1.69607 34.758 1.69607 33.1695C1.11384 33.1695 0.556918 33.1695 0.00632861 33.1695C0 32.8245 0 32.4729 0 32.1279Z" fill="#484266"/>
<path d="M46.2241 16.2755C47.8949 19.472 49.5403 22.6165 51.2048 25.8C51.0845 25.813 50.9959 25.826 50.9073 25.826C48.629 25.826 46.3507 25.826 44.0724 25.8325C43.8446 25.8325 43.7433 25.7479 43.6421 25.5526C42.0852 22.5644 40.5157 19.5827 38.9652 16.588C38.8323 16.3276 38.6804 16.2495 38.402 16.256C37.2312 16.269 36.0604 16.2625 34.8896 16.2625C34.7757 16.2625 34.6618 16.2625 34.5289 16.2625C34.5289 14.1858 34.5289 12.1416 34.5289 10.0648C37.883 10.0648 41.2182 10.0648 44.585 10.0648C44.585 8.89297 44.585 7.75368 44.585 6.58835C40.8068 6.58835 37.035 6.58835 33.2315 6.58835C33.2315 13.0009 33.2315 19.3939 33.2315 25.8065C30.9405 25.8065 28.6876 25.8065 26.3966 25.8065C26.3966 19.4135 26.3966 13.0204 26.3966 6.59486C23.688 6.59486 21.0173 6.59486 18.3086 6.59486C18.3086 13.0009 18.3086 19.3939 18.3086 25.8065C16.005 25.8065 13.7457 25.8065 11.4548 25.8065C11.4548 19.3939 11.4548 13.0009 11.4548 6.57533C8.76509 6.57533 6.11341 6.57533 3.43007 6.57533C3.43007 4.3879 3.43007 2.22001 3.43007 0.0130463C3.53766 0.0130463 3.65158 0.0130463 3.76549 0.0130463C17.9099 0.0130463 32.0544 0.0130463 46.1988 0.0130463C48.6607 0.0130463 50.5909 1.56899 51.0908 3.97125C51.1605 4.31629 51.1921 4.68086 51.1921 5.03892C51.1984 7.08964 51.1984 9.14035 51.1984 11.1911C51.1984 14.0035 49.2112 16.1323 46.471 16.256C46.4077 16.256 46.3444 16.2625 46.2241 16.2755Z" fill="#484266"/>
<path d="M70.6336 15.286C70.6336 10.2015 70.6336 5.12353 70.6336 0.0195306C72.9372 0.0195306 75.2092 0.0195306 77.5001 0.0195306C77.5001 8.613 77.5001 17.1869 77.5001 25.8064C77.4052 25.813 77.304 25.826 77.209 25.826C74.8991 25.826 72.5891 25.826 70.2792 25.8325C70.0577 25.8325 69.9438 25.7479 69.8235 25.5721C66.4631 20.429 63.1026 15.286 59.7421 10.1429C59.6978 10.0713 59.6471 10.0062 59.5459 9.84994C59.5459 15.2209 59.5459 20.5006 59.5459 25.8064C57.2296 25.8064 54.9576 25.8064 52.673 25.8064C52.673 17.2195 52.673 8.63904 52.673 0.0260408C52.7869 0.0195306 52.9135 0.0065102 53.0337 0.0065102C55.4386 0.0065102 57.8435 0.0130204 60.2484 0C60.4888 0 60.6281 0.0781225 60.7546 0.279939C64.0012 5.25373 67.2478 10.2275 70.4944 15.2013C70.5197 15.2339 70.545 15.2729 70.5703 15.3055C70.5893 15.299 70.6146 15.2925 70.6336 15.286Z" fill="#484266"/>
<path d="M58.1916 36.0145C58.5333 34.6604 58.8498 33.3974 59.1725 32.1149C59.5143 32.1149 59.8433 32.1019 60.1661 32.1279C60.2484 32.1344 60.3623 32.2646 60.3813 32.3623C60.6597 33.4625 60.9255 34.5692 61.1977 35.6695C61.223 35.7736 61.2546 35.8778 61.3053 36.0666C61.6217 34.706 61.9255 33.4234 62.2229 32.1344C62.6216 32.1344 63.0077 32.1344 63.438 32.1344C62.9317 34.0484 62.4381 35.9364 61.9381 37.8439C61.5394 37.8439 61.1407 37.8439 60.6977 37.8439C60.3939 36.6004 60.0838 35.344 59.7737 34.081C59.7484 34.081 59.7294 34.081 59.7041 34.081C59.4003 35.3374 59.1029 36.5874 58.7991 37.8504C58.3814 37.8504 57.9827 37.8504 57.5397 37.8504C57.0524 35.9624 56.5588 34.0614 56.0525 32.1214C56.4386 32.1214 56.7993 32.1084 57.1537 32.1344C57.2233 32.1409 57.3182 32.2711 57.3435 32.3623C57.603 33.443 57.8435 34.5302 58.0966 35.6174C58.1156 35.7215 58.1409 35.8192 58.1916 36.0145Z" fill="#484266"/>
<path d="M44.4205 35.8387C44.4205 34.6148 44.4205 33.3909 44.4205 32.1409C44.8003 32.1409 45.161 32.1409 45.547 32.1409C45.547 34.0224 45.547 35.9169 45.547 37.8569C45.18 37.8569 44.8066 37.8699 44.4332 37.8439C44.3509 37.8374 44.256 37.7137 44.199 37.6225C43.5345 36.5418 42.8764 35.4546 42.2182 34.3739C42.1675 34.2893 42.1043 34.2047 41.9903 34.1331C41.9903 35.3635 41.9903 36.5874 41.9903 37.8374C41.5916 37.8374 41.2246 37.8374 40.8449 37.8374C40.8449 35.9364 40.8449 34.0484 40.8449 32.1149C41.2183 32.1149 41.579 32.1019 41.946 32.1279C42.041 32.1344 42.1486 32.2581 42.2055 32.3623C42.8637 33.43 43.5155 34.5107 44.1737 35.5848C44.2307 35.6825 44.294 35.7801 44.3509 35.8778C44.3699 35.8583 44.3952 35.8517 44.4205 35.8387Z" fill="#484266"/>
<path d="M74.8799 37.8568C74.5888 37.8568 74.2724 37.8438 73.9559 37.8633C73.7598 37.8763 73.6901 37.7852 73.6712 37.6159C73.6268 37.2513 73.5889 36.8868 73.5446 36.5157C73.4623 35.8647 73.2281 35.6368 72.6016 35.6238C72.2092 35.6108 71.8232 35.6238 71.3865 35.6238C71.3865 36.366 71.3865 37.0951 71.3865 37.8438C70.9499 37.8438 70.5575 37.8438 70.1398 37.8438C70.1398 35.9428 70.1398 34.0483 70.1398 32.1213C70.3423 32.1213 70.5258 32.1213 70.7094 32.1213C71.5637 32.1213 72.4181 32.1083 73.2725 32.1278C74.4432 32.1604 75.1584 33.3192 74.6584 34.4129C74.5255 34.7059 74.2471 34.9337 74.0319 35.1876C74.5635 35.409 74.6837 35.9363 74.728 36.5092C74.7787 36.9454 74.8293 37.3815 74.8799 37.8568ZM71.3929 33.1043C71.3929 33.6512 71.3929 34.1655 71.3929 34.6993C71.9118 34.6993 72.4181 34.7319 72.9117 34.6928C73.3927 34.6538 73.5889 34.3608 73.5636 33.84C73.5383 33.3713 73.3104 33.1304 72.8421 33.1109C72.3738 33.0913 71.8991 33.1043 71.3929 33.1043Z" fill="#484266"/>
<path d="M5.26538 32.1148C5.84761 32.1148 6.41086 32.1148 6.98043 32.1148C7.45508 32.1148 7.92973 32.1083 8.40437 32.1213C9.13216 32.1409 9.70807 32.6031 9.87894 33.2736C10.0688 34.0353 9.82198 34.6603 9.17013 35.077C9.14482 35.0965 9.12583 35.1225 9.09419 35.1486C9.73971 35.4155 9.82198 35.9884 9.87261 36.5873C9.91058 36.9975 9.95488 37.4011 10.0055 37.8438C9.68908 37.8438 9.32202 37.8503 8.96762 37.8373C8.91066 37.8373 8.82206 37.7201 8.8094 37.642C8.75244 37.2904 8.71447 36.9324 8.6765 36.5808C8.59423 35.8452 8.35374 35.6173 7.63861 35.6108C7.27155 35.6043 6.90449 35.6108 6.50579 35.6108C6.50579 36.366 6.50579 37.0886 6.50579 37.8308C6.07544 37.8308 5.68307 37.8308 5.27171 37.8308C5.26538 35.9363 5.26538 34.0418 5.26538 32.1148ZM6.50579 34.6733C7.07536 34.6733 7.6133 34.7059 8.1449 34.6603C8.51196 34.6343 8.67017 34.3673 8.68283 33.9442C8.69549 33.482 8.56259 33.1955 8.19553 33.1564C7.63861 33.1044 7.07536 33.1434 6.50579 33.1434C6.50579 33.6577 6.50579 34.159 6.50579 34.6733Z" fill="#484266"/>
<path d="M32.9785 32.1344C34.0923 32.1344 35.1871 32.1019 36.282 32.1474C36.9338 32.1735 37.4654 32.7138 37.592 33.3323C37.7439 34.0875 37.4971 34.6929 36.8832 35.0835C36.8579 35.1031 36.8326 35.1226 36.7946 35.1616C37.3072 35.383 37.4908 35.8127 37.5414 36.3335C37.592 36.8348 37.649 37.3426 37.7059 37.8634C37.4022 37.8634 37.0541 37.8764 36.7123 37.8569C36.6427 37.8504 36.5288 37.7462 36.5162 37.6746C36.4592 37.3751 36.4402 37.0756 36.3959 36.7762C36.3643 36.5548 36.3579 36.3009 36.2567 36.1186C36.1491 35.9299 35.9466 35.702 35.7694 35.6825C35.2631 35.6239 34.7441 35.6629 34.1999 35.6629C34.1999 36.3921 34.1999 37.1147 34.1999 37.8504C33.7822 37.8504 33.3961 37.8504 32.9911 37.8504C32.9785 35.9494 32.9785 34.0549 32.9785 32.1344ZM34.1999 34.6799C34.7631 34.6799 35.2884 34.7124 35.8074 34.6669C36.2187 34.6343 36.3896 34.3544 36.3896 33.8856C36.3896 33.4364 36.1934 33.15 35.7884 33.1174C35.2694 33.0784 34.7441 33.1109 34.2062 33.1109C34.1999 33.6448 34.1999 34.1591 34.1999 34.6799Z" fill="#484266"/>
<path d="M77.7534 35.2723C77.5382 35.5066 77.3357 35.6889 77.1775 35.8972C77.1016 35.9949 77.0636 36.1511 77.0636 36.2748C77.0509 36.7891 77.0573 37.3099 77.0573 37.8373C76.6333 37.8373 76.2409 37.8373 75.8359 37.8373C75.8359 35.9363 75.8359 34.0483 75.8359 32.1343C76.2282 32.1343 76.6269 32.1343 77.0509 32.1343C77.0509 32.883 77.0509 33.6252 77.0509 34.4389C77.1712 34.3283 77.2408 34.2762 77.2978 34.2111C77.8863 33.5731 78.4686 32.9351 79.0698 32.3101C79.171 32.2059 79.3546 32.1343 79.5001 32.1213C79.8988 32.0953 80.2975 32.1148 80.7279 32.1148C79.9811 32.8635 79.266 33.5861 78.5445 34.3087C79.3862 35.5261 80.171 36.6589 81 37.8568C80.4747 37.8568 80.0064 37.8633 79.5381 37.8503C79.4622 37.8503 79.3736 37.7396 79.3166 37.655C78.804 36.8803 78.2977 36.0991 77.7534 35.2723Z" fill="#484266"/>
<path d="M24.8904 34.3023C25.7384 35.5327 26.5295 36.6655 27.3522 37.8569C26.8269 37.8569 26.3586 37.8699 25.8903 37.8438C25.808 37.8373 25.7068 37.7201 25.6498 37.629C25.1372 36.8608 24.6372 36.0861 24.0993 35.2723C23.8715 35.5067 23.6626 35.715 23.4728 35.9429C23.4158 36.0145 23.4095 36.1447 23.4032 36.2423C23.3968 36.7631 23.4032 37.284 23.4032 37.8308C22.9918 37.8308 22.5994 37.8308 22.1754 37.8308C22.1754 35.9494 22.1754 34.0614 22.1754 32.1409C22.5615 32.1409 22.9538 32.1409 23.3905 32.1409C23.3905 32.8831 23.3905 33.6383 23.3905 34.4911C23.612 34.2502 23.7702 34.0809 23.9221 33.9182C24.4157 33.3844 24.903 32.844 25.4093 32.3232C25.5106 32.219 25.6878 32.1409 25.8397 32.1279C26.2384 32.1018 26.6371 32.1214 27.0484 32.1214C26.327 32.8505 25.6118 33.5732 24.8904 34.3023Z" fill="#484266"/>
<path d="M27.8585 37.8438C27.8585 35.9233 27.8585 34.0418 27.8585 32.1343C29.2572 32.1343 30.6368 32.1343 32.0418 32.1343C32.0418 32.4794 32.0418 32.8114 32.0418 33.176C31.0608 33.176 30.0925 33.176 29.1116 33.176C29.1116 33.5926 29.1116 33.9767 29.1116 34.3999C30.0039 34.3999 30.8963 34.3999 31.8013 34.3999C31.8013 34.7384 31.8013 35.0379 31.8013 35.3764C30.9089 35.3764 30.0229 35.3764 29.1116 35.3764C29.1116 35.8647 29.1116 36.3139 29.1116 36.7891C30.1052 36.7891 31.0861 36.7891 32.0861 36.7891C32.0861 37.1537 32.0861 37.4922 32.0861 37.8438C30.6811 37.8438 29.2825 37.8438 27.8585 37.8438Z" fill="#484266"/>
<path d="M47.9202 33.1565C47.9202 33.5992 47.9202 33.9833 47.9202 34.3999C48.8189 34.3999 49.7112 34.3999 50.6162 34.3999C50.6162 34.732 50.6162 35.0314 50.6162 35.37C49.7239 35.37 48.8379 35.37 47.9265 35.37C47.9265 35.8582 47.9265 36.3074 47.9265 36.7892C48.9201 36.7892 49.9074 36.7892 50.9136 36.7892C50.9136 37.1538 50.9136 37.4793 50.9136 37.8308C49.5024 37.8308 48.0974 37.8308 46.6735 37.8308C46.6735 35.9298 46.6735 34.0354 46.6735 32.1279C48.0721 32.1279 49.4454 32.1279 50.8504 32.1279C50.8504 32.4599 50.8504 32.7919 50.8504 33.15C49.8821 33.1565 48.9201 33.1565 47.9202 33.1565Z" fill="#484266"/>
<path d="M10.3475 37.8568C10.5943 37.1798 10.8284 36.5613 11.0563 35.9363C11.4929 34.7515 11.9359 33.5731 12.3663 32.3817C12.4422 32.1734 12.5372 32.0953 12.7523 32.1083C13.0751 32.1344 13.4801 32.0172 13.7016 32.1734C13.9231 32.3297 13.9801 32.7528 14.094 33.0653C14.6383 34.5562 15.1825 36.0405 15.7268 37.5313C15.7584 37.6225 15.7901 37.7136 15.8407 37.8503C15.423 37.8503 15.0433 37.8568 14.6572 37.8438C14.6003 37.8438 14.5243 37.7266 14.4927 37.6485C14.3851 37.3686 14.3155 37.0691 14.1953 36.7957C14.151 36.698 14.0117 36.5873 13.9105 36.5873C13.3535 36.5678 12.7966 36.5678 12.2334 36.5873C12.1385 36.5873 12.0119 36.6915 11.9676 36.7826C11.841 37.0691 11.7651 37.3751 11.6448 37.6615C11.6069 37.7462 11.4929 37.8438 11.4107 37.8503C11.0816 37.8698 10.7462 37.8568 10.3475 37.8568ZM13.1257 33.6187C13.1004 33.6187 13.0814 33.6187 13.0561 33.6187C12.8283 34.2762 12.6004 34.9337 12.3663 35.6173C12.8662 35.6173 13.3156 35.6173 13.8029 35.6173C13.5687 34.9337 13.3472 34.2762 13.1257 33.6187Z" fill="#484266"/>
<path d="M53.0148 33.176C52.4199 33.176 51.8947 33.176 51.3441 33.176C51.3441 32.831 51.3441 32.4989 51.3441 32.1474C52.8566 32.1474 54.3755 32.1474 55.9133 32.1474C55.9133 32.4794 55.9133 32.7984 55.9133 33.1565C55.3754 33.1565 54.8311 33.1565 54.2489 33.1565C54.2489 34.7385 54.2489 36.2814 54.2489 37.8438C53.8249 37.8438 53.4388 37.8438 53.0085 37.8438C53.0148 36.2944 53.0148 34.7515 53.0148 33.176Z" fill="#484266"/>
</svg>
