<svg width="57" height="57" viewBox="0 0 57 57" fill="none" xmlns="http://www.w3.org/2000/svg">
<path d="M56.9608 27.3063C56.9608 25.1917 56.0193 23.5471 54.0578 22.6072C53.744 22.4506 53.5086 22.294 53.4301 21.9024C52.724 18.0648 51.2333 14.6188 48.958 11.4861C48.8011 11.3295 48.5657 11.1728 48.7226 10.9379C49.6641 9.68478 48.6442 8.97992 47.9381 8.19674C39.9353 0.443261 30.4418 -1.82796 19.7715 1.46139C15.2994 2.87112 11.5334 5.45561 8.39504 8.9016C7.92429 9.3715 7.68892 9.91973 8.08121 10.468C8.39504 10.9379 8.23813 11.1728 7.92429 11.4861C5.72746 14.5405 4.23675 17.9865 3.53063 21.6674C3.45217 22.1373 3.21679 22.3723 2.8245 22.5289C1.25533 23.3121 0.313834 24.5652 0.0784587 26.2882C-0.0784581 27.3063 0.0784584 28.3244 0 29.2643C0 30.1258 0 30.8306 0 31.6138C0 35.0598 2.35375 37.2527 5.80592 37.0961C6.66896 37.0177 7.13971 36.6261 7.13971 35.843C7.21817 33.5717 7.21817 31.3005 7.21817 29.1076C7.21817 26.6798 7.13971 24.2519 7.61046 21.8241C10.1996 8.0401 26.0482 0.521578 38.4446 7.33524C45.8197 11.4078 49.6641 17.7515 49.8211 26.2099C49.8995 29.3426 49.8211 32.4753 49.8211 35.608C49.8211 36.3912 50.0564 37.0177 50.841 37.1744C53.5086 37.7226 56.3331 35.843 56.8039 33.1018C57.1177 31.1439 56.9608 29.2643 56.9608 27.3063ZM33.4233 40.8553C33.894 40.9336 34.3648 41.0119 34.914 41.0903C36.3262 41.2469 37.8169 41.4819 39.2292 41.5602C41.1906 41.6385 42.6814 41.012 43.7798 39.8372C45.1136 38.3491 45.7412 36.6261 45.6628 34.7465C45.5843 32.7886 43.8582 31.6921 41.5829 32.0837C39.543 32.4753 37.7385 33.2585 35.8555 33.9633C34.2078 34.5899 32.7171 35.3731 31.5403 36.4695C29.8142 38.1142 30.7557 40.1505 33.4233 40.8553ZM26.9897 38.4275C27.0681 37.9576 26.9897 37.4876 26.9112 37.0961C26.7543 36.6261 26.5189 36.2346 26.2051 35.843C25.1067 34.1983 23.6944 32.7102 22.2037 31.4572C21.4191 30.7523 20.5561 30.1258 19.693 29.5775C17.81 28.2461 16.2409 27.4629 16.2409 27.4629C13.9656 26.2882 11.8472 27.4629 11.298 30.0474C10.6703 32.9452 11.1411 35.7646 12.7887 38.2708C13.8871 39.9938 15.5348 40.8553 17.5747 41.0119C18.83 41.1686 20.0853 41.1686 21.3407 41.3252C22.3606 41.3252 23.3806 41.4035 24.4005 41.0903C25.7343 40.6204 26.7543 39.8372 26.9897 38.4275ZM50.0564 40.8553C49.7426 40.6204 49.2719 40.777 49.1149 41.1686C48.958 41.6385 48.7226 42.4217 48.3304 43.2832C47.4673 45.3978 46.1335 47.1208 44.5644 48.5305C42.6029 50.4101 40.1707 51.6632 37.8954 52.603C37.3462 52.838 36.7185 53.0729 36.1693 53.2295C35.777 53.3862 35.4632 53.4645 35.0709 53.5428C34.914 53.6211 34.7571 53.6211 34.5217 53.6995C34.2078 53.7778 33.8156 53.8561 33.5017 53.9344C33.5017 53.9344 33.5017 53.9344 33.4233 53.9344C33.2663 53.9344 33.1094 54.0127 32.9525 54.0127C32.9525 54.0127 32.9525 54.0127 32.8741 54.0127C32.5602 54.091 32.2464 54.1694 31.9326 54.2477H31.8541C31.6972 54.2477 31.6187 54.326 31.4618 54.326C31.4618 54.326 31.4618 54.326 31.3833 54.326C31.0695 54.4043 30.8341 54.4043 30.5988 54.4826H30.5203C30.4418 54.4826 30.2849 54.4826 30.2065 54.561C30.2065 54.561 30.2065 54.561 30.128 54.561C29.9711 54.561 29.8926 54.561 29.8142 54.6393C29.7357 54.6393 29.5788 54.6393 29.5003 54.7176C29.5003 54.7176 29.5003 54.7176 29.4219 54.7176C29.3434 54.7176 29.265 54.7176 29.1081 54.7176C28.3235 54.7959 27.9312 54.7959 27.8527 54.8742C18.1239 55.8924 30.2849 58.0069 39.4646 56.4406H39.543C39.7784 56.4406 39.9353 56.3623 40.1707 56.2839C40.3276 56.2839 40.563 56.2056 40.7199 56.1273C40.8768 56.1273 41.0337 56.049 41.1122 56.049C41.1906 56.049 41.2691 55.9707 41.3476 55.9707C42.6029 55.6574 43.7013 55.2658 44.6428 54.7959C50.2918 52.0548 50.841 47.5123 50.841 47.5123C50.9979 46.6508 51.1549 45.6327 51.0764 44.5363C51.3118 43.2832 50.7626 41.4819 50.0564 40.8553Z" fill="#484266"/>
</svg>
