<svg width="63" height="63" viewBox="0 0 63 63" fill="none" xmlns="http://www.w3.org/2000/svg">
<path d="M62.9998 32.617C62.9998 32.7585 62.9998 32.9062 62.9998 33.0478C62.9567 33.1093 62.9567 33.1708 62.9998 33.2324C62.9998 33.337 62.9998 33.4355 62.9998 33.5401C62.9198 34.0324 62.9567 34.5371 62.9075 35.0356C62.7476 36.7956 62.4092 38.525 61.917 40.2235C61.3633 42.1313 60.625 43.9652 59.7083 45.7253C58.4286 48.1931 56.9152 50.5132 55.0818 52.5995C53.8451 54.0088 52.4363 55.2581 50.9597 56.4212C49.274 57.7567 47.4775 58.926 45.5457 59.8675C42.8571 61.1845 40.0393 62.1015 37.0924 62.6061C36.4464 62.7169 35.7942 62.8154 35.1482 62.8954C35.0683 62.9077 34.9883 62.9138 34.9021 62.9138C34.6745 62.92 34.5576 62.8154 34.5576 62.5815C34.5515 62.2738 34.5576 61.9661 34.5576 61.6584C34.5576 60.6122 34.5576 59.566 34.5576 58.5198C34.5576 58.0705 34.5761 58.0521 35.0006 57.9844C37.4984 57.6028 39.9101 56.9443 42.2296 55.935C44.6167 54.895 46.7884 53.5165 48.7633 51.8179C50.3506 50.4578 51.7903 48.9624 53.0146 47.27C54.9587 44.5806 56.3491 41.6328 57.2043 38.4265C57.5919 36.968 57.8626 35.4848 57.9857 33.977C58.0964 32.5862 58.0964 31.1954 58.0103 29.7984C57.8872 27.7798 57.5304 25.8105 56.9644 23.8719C55.9062 20.2718 54.202 17.0162 51.7841 14.1422C49.8277 11.816 47.5206 9.91433 44.8689 8.44349C42.4141 7.08342 39.7932 6.14184 37.0493 5.55104C35.9788 5.31718 34.8898 5.15102 33.8009 5.01563C33.7578 5.00948 33.8132 5.01563 33.7701 5.00948C33.2656 4.95409 33.2656 4.96024 33.2533 5.47104C33.161 9.52046 33.241 13.5699 33.1856 17.6193C33.0749 25.7797 33.1057 33.9463 33.1549 42.1067C33.1918 48.3716 33.1549 54.6365 33.1918 60.9014C33.1979 61.5168 33.0995 62.1261 33.1303 62.7415C33.1364 62.8338 33.1118 62.9262 33.0503 63C32.0044 63 30.9585 63 29.9126 63C29.8265 62.9077 29.8265 62.7969 29.8265 62.68C29.8265 62.5569 29.8265 62.4338 29.8265 62.3107C29.8265 43.3683 29.8265 24.4258 29.8265 5.48334C29.8265 4.94178 29.8265 4.93563 29.2728 4.99717C27.0456 5.24949 24.8554 5.69259 22.7328 6.41262C19.6321 7.45883 16.7835 8.96044 14.2672 11.0713C12.317 12.7083 10.6558 14.6099 9.27155 16.7516C8.04109 18.6594 7.06287 20.6841 6.34305 22.8319C5.64168 24.9304 5.18641 27.0844 5.00184 29.2937C4.90956 30.4076 4.84803 31.5277 4.9034 32.6416C5.00799 34.9125 5.36483 37.1464 6.02313 39.325C6.72449 41.6451 7.72117 43.8298 9.03161 45.873C9.72067 46.9438 10.4959 47.9531 11.3449 48.9008C11.9417 49.5655 12.5323 50.2301 13.1783 50.8517C14.944 52.5564 16.9004 54.0026 19.0845 55.1227C21.8592 56.5505 24.8062 57.4736 27.8885 57.9474C28.4237 58.0275 28.4545 58.0644 28.4545 58.6182C28.4545 59.8798 28.4545 61.1414 28.4545 62.403C28.4545 62.8585 28.3622 62.9385 27.9008 62.8892C24.8 62.52 21.7915 61.7815 18.9184 60.5383C15.996 59.2767 13.3444 57.5905 10.9327 55.5104C8.05955 53.0426 5.6909 50.1624 3.8329 46.8577C2.08564 43.7437 0.935153 40.4143 0.34453 36.8941C0.172265 35.8602 0.0430663 34.8263 0.0307616 33.7801C0.0307616 33.737 0.0307616 33.7001 0 33.6693C0 33.5647 0 33.4662 0 33.3616C0.0430663 33.3001 0.0430663 33.2385 0 33.177C0 32.1308 0 31.0846 0 30.0384C0.0430663 29.9769 0.0430663 29.9153 0 29.8538C0 29.7307 0 29.6076 0 29.4845C0.0799802 29.0537 0.0492186 28.6106 0.0922849 28.1737C0.26455 26.3213 0.60908 24.4997 1.11972 22.715C2.35019 18.4132 4.46659 14.5853 7.33972 11.1636C7.96111 10.4251 8.60095 9.70509 9.29001 9.03429C11.5664 6.81879 14.0827 4.94178 16.9004 3.45863C19.1337 2.27703 21.4716 1.39084 23.9202 0.800039C25.5198 0.418482 27.1318 0.123083 28.7744 0.0553873C28.9836 0.0492332 29.1989 0.0676956 29.4081 0C29.4696 0 29.5312 0 29.5927 0C29.6296 0.0369249 29.6727 0.0307707 29.7157 0.0307707C29.7588 0.0307707 29.8019 0.0369249 29.8388 0C30.9647 0 32.0967 0 33.2226 0C33.2595 0.0369249 33.3025 0.0307707 33.3456 0.0307707C33.3887 0.0307707 33.4317 0.0369249 33.4686 0C33.5302 0 33.5917 0 33.6532 0C34.1454 0.0738498 34.6499 0.043079 35.1482 0.0984663C38.1998 0.424636 41.1221 1.20621 43.9276 2.4555C46.1547 3.45248 48.2158 4.72638 50.1907 6.15415C51.5688 7.15112 52.9161 8.19117 54.0789 9.44046C56.1092 11.6129 57.9118 13.9515 59.3269 16.5731C60.5389 18.8132 61.4494 21.1641 62.0831 23.6258C62.5015 25.2443 62.7845 26.8936 62.9321 28.5552C62.9691 28.9799 62.9444 29.4107 62.9998 29.8353C62.9998 30.0015 62.9998 30.1615 62.9998 30.3276C62.9506 30.4692 62.9506 30.6169 62.9998 30.7584C62.9998 30.863 62.9998 30.9615 62.9998 31.0661C62.9506 31.2938 62.9506 31.5154 62.9998 31.7431C62.9998 31.8662 62.9998 31.9893 62.9998 32.1123C62.9506 32.2908 62.9506 32.4508 62.9998 32.617Z" fill="#484266"/>
<path d="M63.0001 31.7554C62.9017 31.5277 62.9017 31.3062 63.0001 31.0785C63.0001 31.3062 63.0001 31.5277 63.0001 31.7554Z" fill="#484266"/>
<path d="M62.9998 32.617C62.9014 32.4508 62.9077 32.2909 63 32.1248C63 32.2909 62.9998 32.4508 62.9998 32.617Z" fill="#484266"/>
<path d="M62.9999 30.7708C62.9138 30.6292 62.8892 30.4815 62.9999 30.34C62.9999 30.4815 62.9999 30.6292 62.9999 30.7708Z" fill="#484266"/>
<path d="M0 29.8477C0.10459 29.9092 0.0799802 29.9707 0 30.0323C0 29.9707 0 29.9092 0 29.8477Z" fill="#484266"/>
<path d="M62.9998 33.2324C62.8952 33.1708 62.9137 33.1093 62.9998 33.0478C62.9998 33.1093 62.9998 33.1708 62.9998 33.2324Z" fill="#484266"/>
<path d="M0 33.1708C0.0799802 33.2323 0.0984372 33.2939 0 33.3554C0 33.2939 0 33.2323 0 33.1708Z" fill="#484266"/>
<path d="M29.7158 0.0492332C29.6666 0.0553873 29.6111 0.0738498 29.5927 0C29.6357 0 29.6728 0 29.7158 0C29.7343 0.0123083 29.7404 0.0246166 29.7343 0.0369249C29.7281 0.043079 29.722 0.0492332 29.7158 0.0492332Z" fill="#484266"/>
<path d="M29.7158 0.0492332C29.7158 0.0307707 29.7158 0.0184624 29.7158 0C29.7589 0 29.7957 0 29.8388 0C29.8203 0.0676956 29.765 0.0615415 29.7158 0.0492332Z" fill="#484266"/>
<path d="M33.3457 0.0492332C33.2903 0.0615415 33.241 0.0615415 33.2226 0C33.2656 0 33.3026 0 33.3457 0C33.3642 0.0123083 33.3703 0.0246166 33.3642 0.0307707C33.358 0.043079 33.3519 0.0492332 33.3457 0.0492332Z" fill="#484266"/>
<path d="M33.3457 0.0492332C33.3457 0.0307707 33.3457 0.0123083 33.3457 0C33.3888 0 33.4256 0 33.4686 0C33.4563 0.0800039 33.4011 0.0615415 33.3457 0.0492332Z" fill="#484266"/>
<path d="M13.4672 40.9928C15.639 45.4792 19.1705 48.4024 23.6124 50.4394C23.6124 50.2917 23.6124 50.1933 23.6124 50.0948C23.6124 44.0514 23.6124 38.0142 23.6186 31.9708C23.6186 31.6816 23.5325 31.6324 23.2618 31.6201C18.506 31.4662 13.7503 31.5708 8.98836 31.5647C8.17625 31.5647 7.3703 31.5524 6.55819 31.5585C6.35516 31.5585 6.27518 31.5216 6.28133 31.2939C6.52743 23.872 9.17293 17.5271 14.8023 12.573C18.1738 9.60667 22.1236 7.74196 26.5225 6.8373C27.0639 6.72653 27.6114 6.65268 28.1529 6.54806C28.3005 6.51729 28.3682 6.55421 28.3497 6.70807C28.3436 6.7573 28.3497 6.81269 28.3497 6.86192C28.3497 11.8283 28.3497 16.7886 28.3559 21.755C28.3559 22.0257 28.3005 22.1119 28.0113 22.1119C26.6455 22.0934 25.2859 22.0996 23.9201 22.1119C23.674 22.1119 23.6001 22.0688 23.6001 21.798C23.6124 18.9056 23.6063 16.0131 23.6063 13.1207C23.6063 12.7453 23.6063 12.7453 23.2802 12.8868C17.2448 15.5454 13.4426 20.118 11.7077 26.4506C11.64 26.7029 11.72 26.7275 11.9415 26.7337C15.0853 26.8444 18.2353 26.8321 21.3853 26.8198C23.6186 26.8075 25.858 26.7829 28.0913 26.8075C28.3067 26.8075 28.362 26.8691 28.362 27.0844C28.3559 36.8203 28.3559 46.55 28.3682 56.2859C28.3682 56.6305 28.2144 56.5382 28.0175 56.5074C24.7568 55.9412 21.6621 54.9073 18.7582 53.3011C14.3962 50.8948 11.2155 47.387 9.04988 42.9252C8.05936 40.882 7.32723 38.7527 6.79198 36.5495C6.74276 36.3403 6.73661 36.248 7.00731 36.2541C10.871 36.2664 14.7408 36.2603 18.6044 36.2541C18.8259 36.2541 18.8998 36.2972 18.8936 36.5372C18.8813 37.9342 18.8813 39.3251 18.8936 40.722C18.8936 40.9682 18.8198 40.999 18.6044 40.999C16.9187 40.9867 15.2268 40.9928 13.4672 40.9928Z" fill="#484266"/>
<path d="M39.3689 12.6775C39.3689 12.8436 39.3689 12.9667 39.3689 13.0898C39.3689 27.109 39.3689 41.1281 39.3751 55.1472C39.3751 55.4365 39.2889 55.5473 39.0182 55.6211C37.6524 55.9904 36.2866 56.3227 34.8839 56.5381C34.5947 56.5812 34.6255 56.4396 34.6255 56.255C34.6255 49.35 34.6255 42.4512 34.6255 35.5463C34.6255 26.0074 34.6255 16.4684 34.6255 6.92951C34.6255 6.51718 34.6255 6.51103 35.0254 6.57257C39.8488 7.36646 44.2292 9.16347 47.9452 12.3944C50.6277 14.7207 52.6764 17.5393 54.2575 20.7086C55.3034 22.8011 56.0602 24.9796 56.3801 27.3059C56.6508 29.2444 56.7 31.183 56.5523 33.1339C56.3555 35.7802 55.8325 38.3403 54.9404 40.8142C54.1468 43.0051 53.1194 45.0606 51.6059 46.8515C51.2429 47.2761 50.8491 47.6761 50.357 48.1069C50.357 47.3561 50.357 46.6853 50.357 46.0145C50.3631 43.8913 50.3754 41.7681 50.3877 39.645C50.3877 39.5157 50.4123 39.4049 50.4615 39.288C51.5751 36.5617 52.0673 33.7247 51.9135 30.7891C51.692 26.5059 50.4246 22.5734 47.7607 19.1516C47.613 18.9609 47.4531 18.7762 47.2377 18.5239C47.2377 18.7209 47.2377 18.8378 47.2377 18.9547C47.2377 29.5706 47.2377 40.1865 47.2439 50.8024C47.2439 51.0547 47.1701 51.2147 46.9855 51.3748C45.6873 52.5133 44.2538 53.4241 42.6542 54.0641C42.6173 54.0764 42.5804 54.0887 42.5127 54.1072C42.5127 53.9657 42.5127 53.8487 42.5127 53.7256C42.5127 40.7712 42.5127 27.8167 42.5189 14.8684C42.5189 14.6099 42.4512 14.4314 42.2482 14.2653C41.6576 13.7791 40.9747 13.4529 40.2979 13.1206C39.9903 12.9729 39.695 12.8375 39.3689 12.6775Z" fill="#484266"/>
</svg>
