<svg width="99" height="60" viewBox="0 0 99 60" fill="none" xmlns="http://www.w3.org/2000/svg">
<path fill-rule="evenodd" clip-rule="evenodd" d="M61.6609 0L60.2907 4.38202L60.3249 24.6067H65.4291V27.3034H68.1696L70.91 24.6067H75.7059L84.6125 15.8427V0H61.6609ZM82.2145 14.4944L78.4464 18.2022H72.2803L68.8547 21.573V18.2022H63.7163V2.35955H82.2145V14.4944ZM76.0484 6.74157H78.4464V13.4831H76.0484V6.74157ZM69.8824 6.74157H72.2803V13.4831H69.8824V6.74157ZM99 38.0899V53.9326L90.0934 60H84.6125V57.3034L80.5017 60H75.7059V57.3034L72.6228 60H63.7163L60.9758 57.3034L60.2907 60L52.446 59.9663L49.3287 57.3034L48.9862 60L40.0796 59.9663L39.737 57.3034L37.3391 59.9663L23.6367 60L20.8962 58.6517V60H13.3599L5.13841 54.9438L0 49.8876V27.6404H10.6194L15.7578 32.6966H39.0519V27.6404H58.2353V32.6966H63.0311V35.3933L65.7716 32.6966H71.5952L76.7336 27.6404H87.6955V32.6966H93.519L99 38.0899ZM13.3599 35.0562H8.56401V30H2.39792V48.8764L6.16609 52.9213H13.3599V46.5169H8.56401V41.1236H13.3599V35.0562ZM39.0519 35.0562H32.8858V46.5169H30.4879V35.0562H24.6644V46.5169H22.2664V35.0562H15.7578V52.9213H34.9412L39.0519 48.8764V35.0562ZM47.2734 35.0562H41.4498V52.9213H47.2734V35.0562ZM47.2734 30H41.4498V32.6966H47.2734V30ZM60.6332 35.0562H55.8374V30H49.6713V48.8764L53.4394 52.9213H60.6332V46.5169H55.8374V41.1236H60.6332V35.0562ZM76.391 35.0562H66.7993L63.0311 38.764V48.8764L67.1419 52.9213H76.391V46.5169H69.5398V41.1236H76.391V35.0562ZM96.6021 38.764L92.4913 35.0562H85.2976V30H78.7889V52.9213H85.2976V41.1236H90.0934V52.9213H96.6021V38.764Z" fill="#484266"/>
</svg>
