<svg width="331" height="220" fill="none" xmlns="http://www.w3.org/2000/svg"><path fill-rule="evenodd" clip-rule="evenodd" d="M304.084 88.7a23.69 23.69 0 0 1-.736 2.88l2.495.806c.328-1.008.602-2.073.817-3.196l-2.576-.49zm-1.837 5.623a20.104 20.104 0 0 1-1.477 2.553l2.17 1.47a22.785 22.785 0 0 0 1.667-2.884l-2.36-1.14zm2.322-11.601a31.283 31.283 0 0 1-.09 3.011l2.614.206c.083-1.043.117-2.13.098-3.26l-2.622.043zm12.883-38.51c-.582.125-1.143.262-1.684.41l.697 2.523a26.953 26.953 0 0 1 1.54-.376l-.553-2.557zm-13.236 33.96c.07.516.129 1.023.177 1.52l2.61-.255a44.353 44.353 0 0 0-.188-1.613c-.074-.55-.149-1.097-.224-1.641l-2.598.354.223 1.636zm-1.072-8.227c.12 1.09.258 2.195.404 3.308l2.6-.34a159.11 159.11 0 0 1-.397-3.254l-2.607.286zm9.314-24.162a18.05 18.05 0 0 0-3.11 1.73l1.507 2.141a15.409 15.409 0 0 1 2.659-1.477l-1.056-2.394zm-9.755 17.43c.005 1.107.054 2.238.134 3.386l2.616-.182a49.03 49.03 0 0 1-.127-3.216l-2.623.012zm3.948-13.277a14.235 14.235 0 0 0-2.001 3.031l2.354 1.154a11.6 11.6 0 0 1 1.634-2.477l-1.987-1.708zm-3.219 6.392a23.368 23.368 0 0 0-.582 3.45l2.61.252c.104-1.077.272-2.099.516-3.064l-2.544-.638z" fill="#6C5C99"/><ellipse rx="2.619" ry="3.601" transform="matrix(-.72617 .68751 .6893 .72447 319.445 41.917)" fill="#6C5C99"/><ellipse rx="2.621" ry="3.598" transform="rotate(-156.763 165.265 -8.76) skewX(-.103)" fill="#6C5C99"/><rect width="3.27" height="10.489" rx="1.635" transform="matrix(-.17592 -.9844 -.98455 .17508 325.944 45.62)" fill="#403366"/><rect y="21.35" width="286.09" height="165.403" rx="2.088" fill="#403366"/><path fill="#6C5C99" d="M177.924 212.167h-57.22v-22.961h57.22z"/><path fill="#161326" d="M120.705 212.167h-7.518v-22.961h7.518z"/><path d="M72.673 218.432a6.265 6.265 0 0 1 6.265-6.265h129.26a6.265 6.265 0 0 1 6.265 6.265v1.235H72.673v-1.235z" fill="#201C33"/><rect x="6.265" y="21.35" width="286.09" height="165.403" rx="2.088" fill="#6C5C99"/><path fill="#161326" d="M13.956 28.321h270.895V180.57H13.956z"/><rect x="25.394" y="38.867" width="94.754" height="112.995" rx="2.154" fill="#F4F2FF"/><rect x="60.28" y="108.038" width="53.838" height="37.808" rx="1.292" fill="#E6004C"/><path fill="#F4F2FF" d="M73.473 132.984l1.218 1.218-5.491 5.492-1.218-1.219z"/><path fill="#F4F2FF" d="M69.2 132.984l-1.218 1.218 5.491 5.492 1.218-1.219z"/><path d="M35.299 61.934v18.605c0 .476.386.862.861.862h77.096a.862.862 0 0 0 .862-.862V63.8a.862.862 0 0 0-1.382-.686l-14.955 11.33a.861.861 0 0 1-1.338-.417l-1.941-5.873a.861.861 0 0 0-1.192-.505l-10.683 5.149a.861.861 0 0 1-1.2-.532l-1.701-5.749a.862.862 0 0 0-1.341-.446l-10.091 7.525a.862.862 0 0 1-1.192-.158l-7.434-9.43a.861.861 0 0 0-1.251-.108l-10.688 9.59a.861.861 0 0 1-1.246-.101l-9.651-11.995c-.51-.634-1.533-.273-1.533.54z" fill="#E6004C"/><ellipse cx="112.179" cy="48.104" rx="1.938" ry="1.933" fill="#E6004C"/><ellipse cx="106.157" cy="48.104" rx="1.938" ry="1.933" fill="#E6004C"/><ellipse cx="100.12" cy="48.104" rx="1.938" ry="1.933" fill="#E6004C"/><rect x="40.898" y="47.03" width="20.674" height="2.578" rx="1.289" fill="#E6004C"/><path d="M31.423 86.127V59.706a.646.646 0 0 1 1.292 0v25.111h80.748a.655.655 0 0 1 0 1.31h-82.04z" fill="#E6004C"/><rect x="31.423" y="89.564" width="25.411" height="15.037" rx="1.292" fill="#E6004C"/><rect x="60.28" y="89.564" width="24.981" height="15.037" rx="1.292" fill="#E6004C"/><rect x="88.706" y="89.564" width="25.411" height="15.037" rx="1.292" fill="#E6004C"/><rect x="31.423" y="108.038" width="25.411" height="37.808" rx="1.292" fill="#E6004C"/><path d="M34.162 46.72l-1.275-.98.172 1.994-.534.756.242.722c.258.103.5.24.706.43.034-.206.069-.55.103-.688l-.413.086c.138-.842.5-1.632 1-2.32z" fill="#E6004C"/><path d="M34.593 48.662l-.982-.498c.207.533.276.601.982.498zm2.12-.928l.172-1.993c-1.206.91-1.585 1.048-2.033 2.182l.62-.12c-.775.808-1.24 1.89-1.326 2.733l.155.36h1.188c.19-.43.466-1.288 1.517-1.684l.24-.722-.533-.756zm-1.827 2.75l-.379-.55h.759l-.38.55zm.276-1.822l.982-.498c-.207.533-.276.601-.982.498z" fill="#E6004C"/><path d="M79.11 136.18c1.136.044 2.684.185 4.313.077m8.41-8.24c-.178 1.56-.544 2.832-1.047 3.867m14.632-16.541c-2.014.243-2.7.409-4.528 1.045M85.795 135.89c1.337-.35 2.62-.978 3.666-2.076m2.738-7.945c.367-1.578.917-2.927 1.617-4.082m1.467-1.932c1.11-1.179 2.428-2.077 3.882-2.765" stroke="#F4F2FF" stroke-width="1.723"/><path d="M41.76 99.876V94.29l4.744 2.94-4.744 2.646zm28.426 0V94.29l4.744 2.94-4.744 2.646zm28.857 0V94.29l4.744 2.94-4.744 2.646z" fill="#F4F2FF"/><ellipse cx="36.807" cy="117.706" rx="1.077" ry="1.074" fill="#F4F2FF"/><ellipse cx="36.807" cy="124.151" rx="1.077" ry="1.074" fill="#F4F2FF"/><rect x="40.037" y="123.076" width="12.06" height="2.148" rx="1.074" fill="#F4F2FF"/><rect x="40.037" y="116.632" width="12.06" height="2.148" rx="1.074" fill="#F4F2FF"/><ellipse cx="36.807" cy="130.595" rx="1.077" ry="1.074" fill="#F4F2FF"/><rect x="40.037" y="129.52" width="12.06" height="2.148" rx="1.074" fill="#F4F2FF"/><ellipse cx="36.807" cy="137.04" rx="1.077" ry="1.074" fill="#F4F2FF"/><rect x="40.037" y="135.966" width="12.06" height="2.148" rx="1.074" fill="#F4F2FF"/><path d="M214.988 21.35c3.778-9.75 13.275-16.665 24.394-16.665 2.198 0 4.331.27 6.37.779A26.087 26.087 0 0 0 231.018.935c-12.498 0-22.947 8.738-25.528 20.415h9.498z" fill="#201C33"/><path d="M227.463 100.51h-5.019a2.504 2.504 0 0 0-2.509 2.5 2.504 2.504 0 0 0 2.509 2.499h5.019v-4.999z" fill="#251F48"/><path d="M252.138 88.546c5.901-2.956 10.037-9.824 10.037-17.825s-4.136-14.87-10.037-17.825v-1.549h-6.273v.002l-.209-.002c-9.124 0-16.52 8.674-16.52 19.374s7.396 19.373 16.52 19.373l.209-.001v.001h6.273v-1.548z" fill="#201C33"/><path d="M236.204 105.509h-9.629a2.5 2.5 0 0 1 0-4.999h9.629c6.968 0 12.693-5.305 13.325-12.082h5.035c-.645 9.541-8.619 17.081-18.36 17.081z" fill="#403366"/><ellipse cx="251.929" cy="70.721" rx="16.52" ry="19.373" fill="#403366"/><path d="M263.964 70.721c0 8.082-5.462 14.372-11.904 14.372-6.441 0-11.903-6.29-11.903-14.372s5.462-14.372 11.903-14.372c6.442 0 11.904 6.29 11.904 14.372z" fill="#161326" stroke="#5F5980" stroke-width="1.671"/><path d="M242.244 16.637c2.715 4.594 3.988 11.255 3.988 14.285v39.802c0 2.307 1.887 4.177 4.194 4.177s4.193-1.87 4.193-4.177V27.152c0-1.666-1.426-9.98-1.724-11.56l-10.651 1.045z" fill="#161326"/><path d="M222.488 4.695c-2.188 0-4.107.313-6.138.823 4.18-2.865 9.027-4.583 14.472-4.583 14.382 0 26.041 11.691 26.041 26.113v43.464a4.166 4.166 0 1 1-8.333 0V30.81c0-14.422-11.659-26.114-26.042-26.114z" fill="#403366"/><path fill-rule="evenodd" clip-rule="evenodd" d="M239.187 12.558c-3.226-3.583-8.16-6.763-15.548-6.563-5.426.147-9.428 2.67-12.255 5.846-2.846 3.196-4.443 6.787-5.058 9.397h-2.089c.684-2.898 2.479-7.295 5.587-10.786 3.126-3.511 7.64-6.378 13.759-6.544 8.113-.22 13.604 3.307 17.156 7.253 3.527 3.918 5.41 8.567 5.891 10.077h-2.506a23.57 23.57 0 0 0-4.937-8.68z" fill="#161326"/><rect x="215.096" y="98.708" width="16.289" height="8.771" rx="4.385" fill="#0D0A1A"/><rect x="213.472" y="98.708" width="15.454" height="8.771" rx="4.385" fill="#201C33"/><path d="M79.052 218.432a6.265 6.265 0 0 1 6.265-6.265h129.26a6.265 6.265 0 0 1 6.265 6.265v1.235H79.052v-1.235z" fill="#6C5C99"/><path d="M281 191h39v29h-39v-29z" fill="#403366"/><path fill="#332E4D" d="M297.901 139.935h4.851v41.292h-4.851z"/><path d="M320.018 160.713c5.003-4.444 5.348-12.203 5.348-12.203s-7.767-.554-12.771 3.889c-5.003 4.444-5.348 12.203-5.348 12.203s7.768.555 12.771-3.889z" fill="#403366"/><path d="M307.25 164.601c.197.013 7.829.496 12.767-3.89 4.928-4.377 5.337-11.969 5.348-12.198l-18.115 16.088zm-26.191-3.888c-5.003-4.444-5.348-12.203-5.348-12.203s7.768-.554 12.771 3.889c5.003 4.444 5.348 12.203 5.348 12.203s-7.767.555-12.771-3.889z" fill="#6C5C99"/><path d="M293.827 164.601c-.196.013-7.828.496-12.766-3.89-4.928-4.377-5.337-11.969-5.348-12.198l18.114 16.088z" fill="#403366"/><path fill-rule="evenodd" clip-rule="evenodd" d="M300.128 117.807c0 .046.05.074.089.05a.058.058 0 0 1 .062 0 .059.059 0 0 0 .09-.05v-.009c0-.022.012-.043.031-.054l20.299-12.619c1.286-.799 2.99-.237 3.373 1.227.521 1.988.798 4.074.798 6.224 0 13.531-10.969 24.5-24.5 24.5s-24.5-10.969-24.5-24.5c0-2.099.264-4.137.761-6.082.376-1.472 2.085-2.041 3.375-1.239l20.092 12.489c.018.012.03.032.03.054v.009z" fill="#332E4C"/><mask id="a" maskUnits="userSpaceOnUse" x="275" y="103" width="50" height="35"><path fill-rule="evenodd" clip-rule="evenodd" d="M300.127 117.428l.121-.075.121.075v-.15l22.643-14.076a24.422 24.422 0 0 1 1.858 9.374c0 13.531-10.969 24.5-24.5 24.5s-24.5-10.969-24.5-24.5c0-3.274.642-6.398 1.808-9.253l22.449 13.955v.15z" fill="#7360AC"/></mask><g mask="url(#a)" fill="#8E7CBF"><circle cx="309.692" cy="133.438" r="4.124"/><circle cx="321.335" cy="124.705" r="4.124"/><circle cx="281.068" cy="125.675" r="4.124"/><circle cx="297.321" cy="129.314" r="3.881"/><circle cx="290.286" cy="115.002" r="5.094"/><circle cx="311.39" cy="115.73" r="4.851"/></g><path d="M301.33 124.143l24.224-14.235c-.253-1.863-1.192-3.956-1.723-5.22l-23.497 13.494v.145l-.127-.072-.126.072v-.145l-23.7-13.61c-.573 1.342-1.468 3.402-1.768 4.851l24.23 14.703a2.425 2.425 0 0 0 2.487.017z" fill="#100B26"/><path d="M287.658 97.3l-5.644 4.626 4.609 2.903 1.813-7.032a.486.486 0 0 0-.778-.496zm5.822 5.342l-4.188 3.494 3.621 2.323 1.348-5.326c.116-.455-.42-.792-.781-.491zm19.439-5.342l5.644 4.626-4.609 2.903-1.813-7.032a.486.486 0 0 1 .778-.496zm-5.822 5.342l4.189 3.494-3.622 2.323-1.348-5.326a.485.485 0 0 1 .781-.491z" fill="#B2ADCC"/><path d="M274.497 101.339a3.638 3.638 0 0 1 5.022-1.123l20.717 13.143 20.717-13.143a3.638 3.638 0 1 1 3.899 6.144l-22.531 14.295a3.627 3.627 0 0 1-2.085.564 3.627 3.627 0 0 1-2.085-.564L275.62 106.36a3.637 3.637 0 0 1-1.123-5.021z" fill="#6C5C99"/><path d="M276.069 179.77h48.029v8.248h-48.029v-8.248z" fill="#403366"/><path fill="#6C5C99" d="M309 191h7v29h-7zm0-11h7v8h-7z"/></svg>