<svg width="112" height="165" fill="none" xmlns="http://www.w3.org/2000/svg"><path d="M39.989 38.431L8.661 31.46l9.322 31.225 31.607 7.908-9.601-32.162z" fill="#8E7CBF"/><path d="M30.854 7.83L8.66 31.46l31.328 6.971 21.755-22.818-30.89-7.783z" fill="#6C5C99"/><path d="M49.59 70.593l-9.6-32.162 21.755-22.818 9.322 31.225L49.59 70.593z" fill="#403366"/><path d="M49.321 110.611l-6.506 15.444-2.271-14.799-2.01-14.458L49.32 110.61z" fill="#8E7CBF"/><path d="M59.585 123.753l-16.77 2.302 6.506-15.444 16.292-2.361-6.028 15.503z" fill="#6C5C99"/><path d="M38.533 96.798l10.788 13.813 16.293-2.361-13.959-5.975-13.122-5.477z" fill="#403366"/><circle cx="104.5" cy="32.5" r="7.5" fill="#E6004C"/><circle cx="37.5" cy="160.5" r="4.5" fill="#E6004C"/><circle cx="3" cy="94" r="3" fill="#E6004C"/></svg>