<svg width="109" height="161" fill="none" xmlns="http://www.w3.org/2000/svg"><path d="M54.453 95.602l-28.54 6.351 8.493-28.446L63.2 66.303l-8.747 29.3z" fill="#8E7CBF"/><path d="M46.131 123.479l-20.217-21.526 28.54-6.35 19.818 20.787-28.14 7.089z" fill="#6C5C99"/><path d="M63.2 66.303l-8.747 29.3 19.819 20.787 8.492-28.446L63.2 66.303z" fill="#403366"/><path d="M72.321 22.61l-6.506 15.445-2.271-14.8-2.01-14.457L72.32 22.611z" fill="#8E7CBF"/><path d="M82.585 35.753l-16.77 2.302 6.506-15.444 16.292-2.36-6.028 15.502z" fill="#6C5C99"/><path d="M61.533 8.798l10.788 13.813 16.293-2.36-13.959-5.976-13.122-5.477z" fill="#403366"/><circle cx="7.5" cy="153.5" r="7.5" fill="#E6004C"/><circle cx="104.5" cy="145.5" r="4.5" fill="#E6004C"/><circle cx="94" cy="64" r="3" fill="#E6004C"/></svg>