<svg width="282" height="530" fill="none" xmlns="http://www.w3.org/2000/svg"><path d="M143.169 449.333c-4.503 0-9.006-1.002-12.442-2.971l-65.983-38.114c-3.436-1.969-5.304-4.639-5.304-7.51 0-2.87 1.901-5.54 5.304-7.509l65.983-38.148c6.871-3.971 18.013-3.971 24.885 0l65.983 38.115c3.436 1.969 5.304 4.639 5.304 7.509s-1.901 5.54-5.304 7.509l-65.983 38.115c-3.436 2.002-7.939 3.004-12.443 3.004zm-11.875-3.972c6.538 3.771 17.179 3.771 23.718 0l65.983-38.114c3.069-1.769 4.736-4.072 4.736-6.509 0-2.436-1.667-4.739-4.736-6.508l-65.983-38.148c-6.539-3.771-17.18-3.771-23.718 0l-65.983 38.115c-3.07 1.769-4.737 4.072-4.737 6.508s1.668 4.739 4.737 6.508l65.983 38.148z" fill="#F05"/><path opacity=".8" d="M228.967 386.086v-22.595l-4.137-2.303c-1.167 7.076-9.473 11.715-16.412 12.683l-47.269 27.668-20.649 7.442-65.882-34.009 1.534-.868c-5.638-2.636-8.673-8.644-11.709-14.151l-4.436 2.637-2.636.734v22.996c0 2.937 1.935 5.874 5.805 8.076l65.983 38.115c7.739 4.472 20.281 4.472 28.021 0l65.983-38.115c3.802-2.202 5.737-5.073 5.804-7.943v-.367z" fill="#6C5C99"/><path d="M228.967 365.994v-14.952l-4.137-2.303c-1.167 7.076-9.473 11.715-16.412 12.683l-47.269 27.668-20.649 7.443-65.882-34.01 1.534-.867c-5.638-2.637-8.673-8.645-11.709-14.151l-4.436 2.636-2.636.734v15.353c0 2.937 1.935 5.874 5.805 8.077l65.983 38.114c7.739 4.472 20.281 4.472 28.021 0l65.983-38.081c3.802-2.203 5.737-5.073 5.804-7.943v-.401z" fill="#8E7CBF"/><path opacity=".3" d="M208.42 361.422l-47.269 27.668-17.947 6.475v20.226c5.071 0 10.141-1.102 14.011-3.338l65.949-38.114c3.803-2.203 5.738-5.073 5.805-7.944v-15.352l-3.77-2.103h-.4c-1.301 6.942-9.507 11.515-16.379 12.482z" fill="#0F054C"/><path fill-rule="evenodd" clip-rule="evenodd" d="M63.175 359.119l65.983 38.114c7.739 4.473 20.282 4.473 28.021 0l65.983-38.114c7.739-4.472 7.739-11.715 0-16.187l-65.983-38.114c-7.739-4.473-20.282-4.473-28.021 0l-65.983 38.114c-7.739 4.472-7.739 11.715 0 16.187zm24.587 4.734l45.702 26.421c5.361 3.101 14.049 3.101 19.409 0l45.703-26.421c5.361-3.1 5.361-8.12 0-11.22l-45.703-26.421c-5.36-3.1-14.048-3.1-19.409 0l-45.703 26.421c-5.36 3.1-5.36 8.12 0 11.22z" fill="#B2A1E6"/><path d="M223.164 359.119l-65.983 38.115c-7.739 4.472-20.282 4.472-28.021 0l-65.983-38.115c-3.47-2.002-5.37-4.539-5.738-7.175-.467 3.237 1.468 6.541 5.738 9.011l65.983 38.114c7.739 4.473 20.282 4.473 28.021 0l65.983-38.081c4.27-2.47 6.171-5.807 5.738-9.011-.367 2.603-2.269 5.173-5.738 7.142z" fill="#D3CFE5"/><g clip-path="url(#clip0)"><path d="M134.808 150.328v-10.906h2.624v10.906h3.92v22.25h3.926v7.853h4.363v-15.269h2.617v22.685h3.927v3.927h4.799v-15.706h2.617v18.324h-14.397v7.852h-6.98v-3.926h-4.792v6.98h-2.493v-6.98h-4.93v3.926h-6.544v-7.852l-14.834-.096v-17.741h2.493v15.265h4.846v-4.126h3.877v-22.279h2.492l-.183 15.016h5.235v-7.853h3.49v-22.25h3.927z" fill="#8E7CBF"/><path fill="#403366" d="M119.837 165.372h2.618v6.98h-2.618z"/><path fill="url(#paint0_linear)" d="M119.974 150.765h2.618v6.98h-2.618z"/><path fill="url(#paint1_linear)" d="M149.641 150.765h2.618v6.98h-2.618z"/><path fill="url(#paint2_linear)" d="M160.983 162.108h2.618v6.98h-2.618z"/><path fill="url(#paint3_linear)" d="M160.983 134.623h2.618v6.98h-2.618z"/><path fill="url(#paint4_linear)" d="M108.631 134.623h2.618v6.98h-2.618z"/><path fill="url(#paint5_linear)" d="M108.631 162.108h2.618v6.98h-2.618z"/><path fill="#403366" d="M130.074 180.04h4.012v6.919h-4.012zm8.027 0h4.012v6.919h-4.012zm-11.583 11.298h3.926v6.98h-3.926z"/><path d="M123.465 194.828h6.545v7.417h-6.545v-7.417zm22.685-3.49h-4.362v6.98h4.362v-6.98z" fill="#403366"/><path d="M149.205 194.828h-6.98v7.417h6.98v-7.417zm-15.117-18.248h4.012v6.919h-4.012zm15.553-11.419h2.618v6.98h-2.618zm11.342 10.907h2.618v6.98h-2.618zm-52.352.235h2.618v6.98h-2.618z" fill="#403366"/></g><path d="M153.118 236.032c.034.02-.054-.14 0 0l-3.793 32.725a1.552 1.552 0 0 0 .5 1.354l-.015.027.173.1c.079.055.163.104.251.145l2.536 1.467 1.849-3.198-.38-.219 26.157-19.473c1.827-1.361 1.666-4.148-.306-5.289l-23.323-13.952c-1.526-.883-3.472-.63-4.616.626l-2.221 3.843 3.188 1.844z" fill="#161326"/><path d="M155.863 237.62c.034.02-.054-.14 0 0l-3.793 32.726a1.553 1.553 0 0 0 .5 1.354l-.015.026.173.1c.079.056.163.104.251.145l2.536 1.467 1.849-3.198-.38-.219 26.157-19.473c1.827-1.361 1.666-4.148-.306-5.288l-23.323-13.952c-1.526-.883-3.472-.631-4.615.625l-2.222 3.843 3.188 1.844z" fill="#A34857"/><path d="M155.179 272.113c-.167 1.384 1.406 2.294 2.522 1.459l7.475-5.594-1.514 2.619a1.315 1.315 0 1 0 2.277 1.317l4.592-7.943 5.038-3.771-1.254 2.17a1.315 1.315 0 0 0 2.277 1.317l4.332-7.494 5.572-4.17c1.821-1.363 1.657-4.144-.312-5.283l-26.123-15.116-2.643 21.918-1.861 3.22a1.315 1.315 0 0 0 1.235 1.971l-1.613 13.38z" fill="#B8806F"/><ellipse rx="1.71" ry="1.715" transform="rotate(30.054 -407.031 438.728) skewX(.025)" fill="#7F0D46"/><ellipse rx="1.71" ry="1.715" transform="rotate(30.054 -363.575 430.123) skewX(.025)" fill="#7F0D46"/><path d="M165.182 249.605l-1.254 2.17-.596 1.032a1.315 1.315 0 0 0 .48 1.797v0a1.313 1.313 0 0 0 1.796-.48l.597-1.031m9.146-8.225l-.597 1.031a1.313 1.313 0 0 1-1.796.48v0a1.315 1.315 0 0 1-.48-1.797l.266-.461" stroke="#A34857" stroke-width="1.482"/><ellipse rx="2.377" ry="2.378" transform="rotate(30.054 -386.88 453.056) skewX(.025)" fill="#7F0D46"/><path d="M181.013 243.749a2.502 2.502 0 0 0 1.08 3.063 2.5 2.5 0 0 0 3.192-.591l-4.272-2.472z" fill="#7F0D46"/><path d="M133.285 329.516a1.601 1.601 0 1 0-2.387-2.137l-2.67 2.986a1.602 1.602 0 0 0 2.387 2.136l2.67-2.985z" fill="#797399"/><path d="M145.242 338.401a2.885 2.885 0 0 0-.691-3.37l-3.417-3.059a2.883 2.883 0 0 0-4.536.93l-6.826 14.634a2.887 2.887 0 0 0 .691 3.371l3.417 3.058a2.883 2.883 0 0 0 4.536-.93l6.826-14.634z" fill="#958FB2"/><rect width="42.449" height="6.207" rx="1.442" transform="matrix(-.74512 -.66693 -.66656 .74545 150.748 337.622)" fill="#5F5980"/><rect width="51.259" height="13.016" rx="1.442" transform="matrix(-.74512 -.66693 -.66656 .74545 160.265 330.284)" fill="#B2ADCC"/><path d="M142.511 314.393l-10.593-9.481-3.16 3.534a.865.865 0 0 0 .068 1.222l9.303 8.327a.863.863 0 0 0 1.221-.068l3.161-3.534z" fill="#797399"/><ellipse rx="1.602" ry="1.602" transform="matrix(-.74512 -.66693 -.66656 .74545 136.693 344.929)" fill="#484266"/><path fill="#484266" d="M155.64 326.144l-1.194-1.068-4.404 4.925 1.193 1.069zm-2.836-2.537l-1.194-1.068-4.404 4.925 1.193 1.069z"/><path fill="#5F5980" d="M120.201 298.187l-3.73-3.339-3.337 3.732 3.73 3.339zm9.855 1.296l-3.73-3.339-1.868 2.09 3.73 3.338z"/><path d="M102.648 283.471l12.753 12.576-1.539 1.721-13.907-11.286 2.693-3.011z" fill="url(#paint6_linear)"/><path opacity=".5" d="M202.597 359.86l-1.796-189.267H84.023V359.86c-.027.778.485 1.529 1.481 2.119l50.619 29.705c1.993 1.154 11.482 2.086 13.475.932l23.355-13.514 28.136-17.123c1.023-.59 1.508-1.368 1.508-2.119z" fill="url(#paint7_linear)"/><g filter="url(#filter0_d)" fill="#B2ADCC"><rect width="2.396" height="11.982" rx="1.198" transform="rotate(28.384 -763.512 217.34) skewX(.024)"/><rect width="2.396" height="11.979" rx="1.198" transform="rotate(118.36 -110.551 203.007) skewX(-.024)"/></g><g filter="url(#filter1_d)" fill="#B2ADCC"><rect width="1.333" height="6.669" rx=".667" transform="rotate(28.384 -74.23 423.54) skewX(.024)"/><rect width="1.334" height="6.667" rx=".667" transform="rotate(118.36 70.353 103.297) skewX(-.024)"/></g><g filter="url(#filter2_d)" fill="#B2ADCC"><rect x="61.5" y="245.614" width="1" height="5.003" rx=".5"/><rect x="64.5" y="247.615" width="1.001" height="5" rx=".501" transform="rotate(90 64.5 247.615)"/></g><g opacity=".7" filter="url(#filter3_d)"><g opacity=".7" filter="url(#filter4_f)"><ellipse cx="258.5" cy="281.633" rx="6.5" ry="6.503" fill="#F05"/></g><rect x="257.417" y="276.214" width="1.958" height="10.773" rx=".979" fill="#F4F2FF"/><rect x="263.917" y="280.549" width="1.959" height="10.768" rx=".979" transform="rotate(90 263.917 280.549)" fill="#F4F2FF"/></g><g opacity=".7" filter="url(#filter5_d)"><g opacity=".7" filter="url(#filter6_f)"><ellipse cx="93.5" cy="23.503" rx="6.5" ry="6.503" fill="#F05"/></g><rect x="92.417" y="18.085" width="1.958" height="10.773" rx=".979" fill="#F4F2FF"/><rect x="98.917" y="22.419" width="1.959" height="10.768" rx=".979" transform="rotate(90 98.917 22.42)" fill="#F4F2FF"/></g><g opacity=".7" filter="url(#filter7_d)"><g opacity=".7" filter="url(#filter8_f)"><ellipse cx="245.5" cy="442.713" rx="6.5" ry="6.503" fill="#F05"/></g><rect x="244.417" y="437.295" width="1.958" height="10.773" rx=".979" fill="#F4F2FF"/><rect x="250.917" y="441.629" width="1.959" height="10.768" rx=".979" transform="rotate(90 250.917 441.629)" fill="#F4F2FF"/></g><g opacity=".7" filter="url(#filter9_d)"><g opacity=".7" filter="url(#filter10_f)"><ellipse cx="38" cy="181.082" rx="4" ry="4.002" fill="#F05"/></g><rect x="37.333" y="177.747" width="1.205" height="6.63" rx=".602" fill="#F4F2FF"/><rect x="41.333" y="180.415" width="1.206" height="6.626" rx=".603" transform="rotate(90 41.333 180.415)" fill="#F4F2FF"/></g><g filter="url(#filter11_d)"><g opacity=".7" filter="url(#filter12_f)"><ellipse cx="97.678" cy="488.316" rx="11.678" ry="11.684" fill="#F05"/></g><rect x="95.732" y="478.58" width="3.517" height="19.355" rx="1.759" fill="#F4F2FF"/><rect x="107.41" y="486.369" width="3.519" height="19.345" rx="1.76" transform="rotate(90 107.41 486.369)" fill="#F4F2FF"/></g><defs><filter id="filter0_d" x=".63" y="385.815" width="18.219" height="18.225" filterUnits="userSpaceOnUse" color-interpolation-filters="sRGB"><feFlood flood-opacity="0" result="BackgroundImageFix"/><feColorMatrix in="SourceAlpha" values="0 0 0 0 0 0 0 0 0 0 0 0 0 0 0 0 0 0 127 0"/><feOffset/><feGaussianBlur stdDeviation="1.848"/><feColorMatrix values="0 0 0 0 1 0 0 0 0 0 0 0 0 0 0.333333 0 0 0 0.47 0"/><feBlend in2="BackgroundImageFix" result="effect1_dropShadow"/><feBlend in="SourceGraphic" in2="effect1_dropShadow" result="shape"/></filter><filter id="filter1_d" x="186.35" y="84.384" width="10.141" height="10.144" filterUnits="userSpaceOnUse" color-interpolation-filters="sRGB"><feFlood flood-opacity="0" result="BackgroundImageFix"/><feColorMatrix in="SourceAlpha" values="0 0 0 0 0 0 0 0 0 0 0 0 0 0 0 0 0 0 127 0"/><feOffset/><feGaussianBlur stdDeviation="1.029"/><feColorMatrix values="0 0 0 0 1 0 0 0 0 0 0 0 0 0 0.333333 0 0 0 0.47 0"/><feBlend in2="BackgroundImageFix" result="effect1_dropShadow"/><feBlend in="SourceGraphic" in2="effect1_dropShadow" result="shape"/></filter><filter id="filter2_d" x="58.058" y="244.172" width="7.885" height="7.888" filterUnits="userSpaceOnUse" color-interpolation-filters="sRGB"><feFlood flood-opacity="0" result="BackgroundImageFix"/><feColorMatrix in="SourceAlpha" values="0 0 0 0 0 0 0 0 0 0 0 0 0 0 0 0 0 0 127 0"/><feOffset/><feGaussianBlur stdDeviation=".721"/><feColorMatrix values="0 0 0 0 1 0 0 0 0 0 0 0 0 0 0.333333 0 0 0 0.47 0"/><feBlend in2="BackgroundImageFix" result="effect1_dropShadow"/><feBlend in="SourceGraphic" in2="effect1_dropShadow" result="shape"/></filter><filter id="filter3_d" x="248.68" y="271.809" width="19.64" height="19.647" filterUnits="userSpaceOnUse" color-interpolation-filters="sRGB"><feFlood flood-opacity="0" result="BackgroundImageFix"/><feColorMatrix in="SourceAlpha" values="0 0 0 0 0 0 0 0 0 0 0 0 0 0 0 0 0 0 127 0"/><feOffset/><feGaussianBlur stdDeviation="1.66"/><feColorMatrix values="0 0 0 0 1 0 0 0 0 0 0 0 0 0 0.333333 0 0 0 0.47 0"/><feBlend in2="BackgroundImageFix" result="effect1_dropShadow"/><feBlend in="SourceGraphic" in2="effect1_dropShadow" result="shape"/></filter><filter id="filter4_f" x="235.399" y="258.529" width="46.201" height="46.208" filterUnits="userSpaceOnUse" color-interpolation-filters="sRGB"><feFlood flood-opacity="0" result="BackgroundImageFix"/><feBlend in="SourceGraphic" in2="BackgroundImageFix" result="shape"/><feGaussianBlur stdDeviation="8.3" result="effect1_foregroundBlur"/></filter><filter id="filter5_d" x="83.68" y="13.68" width="19.64" height="19.647" filterUnits="userSpaceOnUse" color-interpolation-filters="sRGB"><feFlood flood-opacity="0" result="BackgroundImageFix"/><feColorMatrix in="SourceAlpha" values="0 0 0 0 0 0 0 0 0 0 0 0 0 0 0 0 0 0 127 0"/><feOffset/><feGaussianBlur stdDeviation="1.66"/><feColorMatrix values="0 0 0 0 1 0 0 0 0 0 0 0 0 0 0.333333 0 0 0 0.47 0"/><feBlend in2="BackgroundImageFix" result="effect1_dropShadow"/><feBlend in="SourceGraphic" in2="effect1_dropShadow" result="shape"/></filter><filter id="filter6_f" x="70.399" y=".4" width="46.201" height="46.208" filterUnits="userSpaceOnUse" color-interpolation-filters="sRGB"><feFlood flood-opacity="0" result="BackgroundImageFix"/><feBlend in="SourceGraphic" in2="BackgroundImageFix" result="shape"/><feGaussianBlur stdDeviation="8.3" result="effect1_foregroundBlur"/></filter><filter id="filter7_d" x="235.68" y="432.89" width="19.64" height="19.647" filterUnits="userSpaceOnUse" color-interpolation-filters="sRGB"><feFlood flood-opacity="0" result="BackgroundImageFix"/><feColorMatrix in="SourceAlpha" values="0 0 0 0 0 0 0 0 0 0 0 0 0 0 0 0 0 0 127 0"/><feOffset/><feGaussianBlur stdDeviation="1.66"/><feColorMatrix values="0 0 0 0 1 0 0 0 0 0 0 0 0 0 0.333333 0 0 0 0.47 0"/><feBlend in2="BackgroundImageFix" result="effect1_dropShadow"/><feBlend in="SourceGraphic" in2="effect1_dropShadow" result="shape"/></filter><filter id="filter8_f" x="222.399" y="419.609" width="46.201" height="46.208" filterUnits="userSpaceOnUse" color-interpolation-filters="sRGB"><feFlood flood-opacity="0" result="BackgroundImageFix"/><feBlend in="SourceGraphic" in2="BackgroundImageFix" result="shape"/><feGaussianBlur stdDeviation="8.3" result="effect1_foregroundBlur"/></filter><filter id="filter9_d" x="30.68" y="173.76" width="14.64" height="14.644" filterUnits="userSpaceOnUse" color-interpolation-filters="sRGB"><feFlood flood-opacity="0" result="BackgroundImageFix"/><feColorMatrix in="SourceAlpha" values="0 0 0 0 0 0 0 0 0 0 0 0 0 0 0 0 0 0 127 0"/><feOffset/><feGaussianBlur stdDeviation="1.66"/><feColorMatrix values="0 0 0 0 1 0 0 0 0 0 0 0 0 0 0.333333 0 0 0 0.47 0"/><feBlend in2="BackgroundImageFix" result="effect1_dropShadow"/><feBlend in="SourceGraphic" in2="effect1_dropShadow" result="shape"/></filter><filter id="filter10_f" x="17.399" y="160.48" width="41.201" height="41.205" filterUnits="userSpaceOnUse" color-interpolation-filters="sRGB"><feFlood flood-opacity="0" result="BackgroundImageFix"/><feBlend in="SourceGraphic" in2="BackgroundImageFix" result="shape"/><feGaussianBlur stdDeviation="8.3" result="effect1_foregroundBlur"/></filter><filter id="filter11_d" x="80.035" y="470.668" width="35.285" height="35.297" filterUnits="userSpaceOnUse" color-interpolation-filters="sRGB"><feFlood flood-opacity="0" result="BackgroundImageFix"/><feColorMatrix in="SourceAlpha" values="0 0 0 0 0 0 0 0 0 0 0 0 0 0 0 0 0 0 127 0"/><feOffset/><feGaussianBlur stdDeviation="2.982"/><feColorMatrix values="0 0 0 0 1 0 0 0 0 0 0 0 0 0 0.333333 0 0 0 0.47 0"/><feBlend in2="BackgroundImageFix" result="effect1_dropShadow"/><feBlend in="SourceGraphic" in2="effect1_dropShadow" result="shape"/></filter><filter id="filter12_f" x="56.176" y="446.808" width="83.004" height="83.016" filterUnits="userSpaceOnUse" color-interpolation-filters="sRGB"><feFlood flood-opacity="0" result="BackgroundImageFix"/><feBlend in="SourceGraphic" in2="BackgroundImageFix" result="shape"/><feGaussianBlur stdDeviation="14.912" result="effect1_foregroundBlur"/></filter><linearGradient id="paint0_linear" x1="121.283" y1="149.345" x2="121.283" y2="157.745" gradientUnits="userSpaceOnUse"><stop stop-color="#E6004C"/><stop offset="1" stop-color="#E6004C" stop-opacity="0"/></linearGradient><linearGradient id="paint1_linear" x1="150.95" y1="149.345" x2="150.95" y2="157.745" gradientUnits="userSpaceOnUse"><stop stop-color="#E6004C"/><stop offset="1" stop-color="#E6004C" stop-opacity="0"/></linearGradient><linearGradient id="paint2_linear" x1="162.292" y1="160.688" x2="162.292" y2="169.088" gradientUnits="userSpaceOnUse"><stop stop-color="#E6004C"/><stop offset="1" stop-color="#E6004C" stop-opacity="0"/></linearGradient><linearGradient id="paint3_linear" x1="162.292" y1="133.203" x2="162.292" y2="141.603" gradientUnits="userSpaceOnUse"><stop stop-color="#E6004C"/><stop offset="1" stop-color="#E6004C" stop-opacity="0"/></linearGradient><linearGradient id="paint4_linear" x1="109.94" y1="133.203" x2="109.94" y2="141.603" gradientUnits="userSpaceOnUse"><stop stop-color="#E6004C"/><stop offset="1" stop-color="#E6004C" stop-opacity="0"/></linearGradient><linearGradient id="paint5_linear" x1="109.94" y1="160.688" x2="109.94" y2="169.088" gradientUnits="userSpaceOnUse"><stop stop-color="#E6004C"/><stop offset="1" stop-color="#E6004C" stop-opacity="0"/></linearGradient><linearGradient id="paint6_linear" x1="115.107" y1="298.108" x2="101.46" y2="286.098" gradientUnits="userSpaceOnUse"><stop stop-color="#E6004C"/><stop offset="1" stop-color="#E6004C" stop-opacity="0"/></linearGradient><linearGradient id="paint7_linear" x1="142.4" y1="393.47" x2="142.4" y2="170.582" gradientUnits="userSpaceOnUse"><stop stop-color="#E5004C"/><stop offset="1" stop-color="#76082C" stop-opacity="0"/></linearGradient><clipPath id="clip0"><path fill="#fff" transform="translate(89 135.059)" d="M0 0h94.234v69.838H0z"/></clipPath></defs></svg>