<svg width="320" height="432" fill="none" xmlns="http://www.w3.org/2000/svg"><rect width="313.054" height="181.44" rx="2.285" fill="#403366"/><path fill="#6C5C99" d="M194.694 209.319h-62.613v-25.188h62.613z"/><path fill="#201C33" d="M132.081 209.319h-8.227v-25.188h8.227zm-52.558 6.856a6.856 6.856 0 0 1 6.856-6.856h141.443a6.856 6.856 0 0 1 6.855 6.856v1.371H79.523v-1.371z"/><rect x="6.855" width="313.054" height="181.44" rx="2.285" fill="#6C5C99"/><path fill="#201C33" d="M15.271 7.529h296.427v166.599H15.271z"/><path opacity=".4" fill="#6C5C99" d="M264.831 129.175h35.2v35.962h-35.2z"/><path d="M269.57 139.845a5.52 5.52 0 0 1 5.52-5.52h20.684v20.922a5.521 5.521 0 0 1-5.521 5.52H269.57v-20.922z" fill="#201C33"/><path opacity=".4" d="M272.93 140.676v10.204c0 .808.967 1.224 1.553.668l12.697-12.044c.603-.572.198-1.588-.633-1.588H275.69a2.76 2.76 0 0 0-2.76 2.76zm19.568 13.862v-10.204c0-.808-.967-1.224-1.553-.668l-12.697 12.044c-.603.572-.198 1.588.633 1.588h10.857a2.76 2.76 0 0 0 2.76-2.76z" fill="#6C5C99"/><circle cx="275.09" cy="123.285" r="2.76" fill="#403366"/><circle cx="282.45" cy="123.285" r="2.76" fill="#403366"/><circle cx="289.811" cy="123.285" r="2.76" fill="#403366"/><circle cx="297.171" cy="123.285" r="2.76" fill="#403366"/><circle cx="267.73" cy="123.285" r="2.76" fill="#403366"/><path opacity=".3" fill="#6C5C99" d="M129.725 138.925h27.601v19.321h-27.601zm35.881 0h46.922v19.321h-46.922z"/><path opacity=".4" d="M24.84 135.245h42.322v15.64c0 7.622-6.178 13.801-13.8 13.801H24.84v-29.441z" fill="#6C5C99"/><circle cx="162.386" cy="148.585" r="12.421" fill="#363052"/><path fill="#201C33" d="M134.325 142.605h6.44v.92h-6.44zm-104.884-3.68h26.681v.92H29.441zm0 1.84h13.8v.92h-13.8zm15.641 0h16.561v.92H45.082zm-15.641 2.76h26.681v.92H29.441zm0 4.6h31.281v.92H29.441zm0-2.76h13.8v.92h-13.8zm15.641 0h16.561v.92H45.082zm-15.641 5.52h23.001v.92H29.441zm0 1.841h11.96v.92h-11.96zm13.801 0h13.8v.92h-13.8zm-13.801 2.76h23.001v.92H29.441zm0 4.6h26.681v.92H29.441zm0-2.76h11.96v.92h-11.96zm13.801 0h13.8v.92h-13.8zm133.404-6.441h30.361v1.84h-30.361zm0 2.761h30.361v1.84h-30.361zm-34.041-11.041h5.52v.92h-5.52zm-8.28 3.68h6.44v.92h-6.44zm8.28 0h5.52v.92h-5.52zm-8.28 2.76h6.44v.92h-6.44zm8.28 0h5.52v.92h-5.52zm-8.28 3.681h6.44v.92h-6.44zm8.28 0h5.52v.92h-5.52zm34.041-11.961h3.68v3.68h-3.68zm5.521 0h5.52v5.52h-5.52zm6.44 0h5.52v5.52h-5.52zm6.44 0h5.52v5.52h-5.52zm6.44 0h5.52v5.52h-5.52z"/><circle cx="82.536" cy="49.073" r="1.84" transform="rotate(42.652 82.536 49.073)" fill="#484266"/><circle cx="73.553" cy="36.417" r="2.3" transform="rotate(42.652 73.553 36.417)" stroke="#797399" stroke-width="1.84"/><path d="M94.167 31.014l-4.987 5.414m5.2-.213l-5.413-4.987" stroke="#332E4C" stroke-width="1.84"/><circle cx="235.228" cy="49.405" r="1.84" transform="rotate(-152.348 235.228 49.405)" fill="#5F5980"/><circle cx="247.181" cy="59.304" r="2.3" transform="rotate(-152.348 247.181 59.304)" stroke="#797399" stroke-width="1.84"/><path d="M228.667 69.857l3.416-6.52m-4.968 1.551l6.52 3.416" stroke="#484266" stroke-width="1.84"/><path d="M97.612 50.477h.537c.186 0 .334-.023.441-.067a.898.898 0 0 0 .317-.243l3.511-3.974a1.07 1.07 0 0 1 .309-.258.835.835 0 0 1 .39-.08h1.214l-4.018 4.54a3.068 3.068 0 0 1-.295.288 1.211 1.211 0 0 1-.287.19c.138.045.258.111.361.2.103.088.211.198.324.33l4.195 4.998h-1.236c-.094 0-.172-.007-.236-.022a.749.749 0 0 1-.169-.058.561.561 0 0 1-.125-.096 2.836 2.836 0 0 1-.118-.125l-3.643-4.188a1.401 1.401 0 0 0-.155-.148.646.646 0 0 0-.375-.17 1.64 1.64 0 0 0-.295-.02h-.647v4.828H96.19V45.853h1.42v4.623zm10.144 5.925h-1.428V45.853h1.428V56.4zm4.249-1.2h4.564v1.2h-5.992V45.853h1.428v9.348zm7.562 0h4.563v1.2h-5.991V45.853h1.428v9.348zm12.633-9.348v1.163h-5.064v3.504h4.099v1.118h-4.099v3.6h5.064v1.163h-6.5V45.853h6.5zm11.195 5.278c0 .79-.125 1.508-.375 2.156a4.784 4.784 0 0 1-1.06 1.664 4.762 4.762 0 0 1-1.641 1.074c-.638.25-1.345.375-2.12.375h-3.945V45.855h3.945c.775 0 1.482.128 2.12.383.638.25 1.185.608 1.641 1.075.456.46.81 1.015 1.06 1.663.25.648.375 1.367.375 2.157zm-1.464 0c0-.648-.089-1.227-.265-1.737a3.665 3.665 0 0 0-.751-1.296 3.197 3.197 0 0 0-1.178-.81 4.068 4.068 0 0 0-1.538-.28h-2.51v8.237h2.51c.564 0 1.077-.093 1.538-.28a3.24 3.24 0 0 0 1.178-.802c.324-.353.574-.785.751-1.295.176-.51.265-1.09.265-1.737zm14.931 5.27h-1.104a.478.478 0 0 1-.31-.096.589.589 0 0 1-.176-.243l-.987-2.547h-4.732l-.986 2.547a.586.586 0 0 1-.177.235.472.472 0 0 1-.309.103h-1.104l4.217-10.547h1.45l4.218 10.547zm-6.912-3.916h3.938l-1.656-4.291a8.172 8.172 0 0 1-.317-.994 13.867 13.867 0 0 1-.309 1.001l-1.656 4.284zm8.975-6.632a.57.57 0 0 1 .28.052.65.65 0 0 1 .213.191l6.109 7.95a5.537 5.537 0 0 1-.036-.722v-7.47h1.251v10.547h-.722a.64.64 0 0 1-.287-.06.732.732 0 0 1-.22-.198l-6.102-7.942a9.276 9.276 0 0 1 .029.685V56.4h-1.251V45.855h.736zm19.736 0v1.163h-5.064v3.504h4.1v1.118h-4.1v3.6h5.064v1.163h-6.499V45.853h6.499zm2.791 0c.127 0 .22.017.279.052.064.03.135.093.214.191l6.109 7.95a4.955 4.955 0 0 1-.03-.369 8.66 8.66 0 0 1-.007-.353v-7.47h1.251v10.547h-.721a.634.634 0 0 1-.287-.06.735.735 0 0 1-.221-.198l-6.102-7.942a9.308 9.308 0 0 1 .03.685V56.4h-1.251V45.855h.736zm16.889 0v1.163h-5.063v3.504h4.099v1.118h-4.099v3.6h5.063v1.163h-6.499V45.853h6.499zm7.244 6.735c.068.118.127.243.176.375.054.128.106.258.155.39a5.834 5.834 0 0 1 .338-.773l3.57-6.484c.064-.113.13-.181.199-.206a.917.917 0 0 1 .294-.037h1.053v10.547h-1.251v-7.75a7.798 7.798 0 0 1 .029-.692l-3.614 6.595c-.122.22-.294.331-.515.331h-.206c-.221 0-.393-.11-.515-.33l-3.695-6.618c.015.128.024.253.029.376.01.122.015.235.015.338v7.75h-1.251V45.855h1.052a.92.92 0 0 1 .295.037c.068.025.135.093.198.206l3.644 6.492zM218 52.206v4.195h-1.42v-4.195l-3.864-6.352h1.251c.127 0 .228.032.302.096a.927.927 0 0 1 .191.235l2.414 4.1c.098.172.179.334.243.486.069.152.13.302.184.449.054-.152.113-.304.177-.456.064-.153.144-.312.243-.479l2.406-4.1a.933.933 0 0 1 .177-.22.424.424 0 0 1 .302-.11h1.266L218 52.205zm7.08-6.352v4.21c0 .221-.005.437-.015.648a14.035 14.035 0 0 1-.089 1.295c-.019.221-.044.46-.073.714h-.891l-.081-.714a29.118 29.118 0 0 1-.088-1.295 27.39 27.39 0 0 1-.007-.648v-4.21h1.244zm-1.561 9.738c0-.128.022-.248.066-.36a.99.99 0 0 1 .192-.295.935.935 0 0 1 .655-.273.89.89 0 0 1 .36.074.951.951 0 0 1 .295.199.85.85 0 0 1 .191.294.896.896 0 0 1 .074.36.915.915 0 0 1-.074.369.87.87 0 0 1-.486.478.89.89 0 0 1-.36.074.895.895 0 0 1-.361-.074.843.843 0 0 1-.294-.191 1.038 1.038 0 0 1-.192-.287 1.005 1.005 0 0 1-.066-.368z" fill="#B2A1E6"/><path d="M86.503 216.175a6.856 6.856 0 0 1 6.855-6.856h141.443a6.857 6.857 0 0 1 6.856 6.856v1.371H86.503v-1.371z" fill="#6C5C99"/><path d="M90.332 310.088c-.364 0-.649.119-.854.357-.205.233-.308.551-.308.952 0 .261.016.513.049.756s.07.481.112.714c.042.229.08.457.112.686.033.229.049.46.049.693 0 .173-.026.336-.077.49a1.327 1.327 0 0 1-.224.406 1.454 1.454 0 0 1-.336.315 1.43 1.43 0 0 1-.42.189 1.43 1.43 0 0 1 .98.91c.051.149.077.31.077.483 0 .233-.016.464-.049.693-.033.229-.07.46-.112.693-.042.229-.08.464-.112.707a5.666 5.666 0 0 0-.049.756c0 .406.103.726.308.959.205.233.49.35.854.35h.14c.056 0 .117.021.182.063.065.042.098.11.098.203v.56h-.378a2.76 2.76 0 0 1-1.001-.168 1.998 1.998 0 0 1-.721-.455 1.925 1.925 0 0 1-.434-.7 2.713 2.713 0 0 1-.14-.889c0-.243.019-.478.056-.707.037-.233.077-.464.119-.693.042-.233.082-.464.119-.693.037-.229.056-.46.056-.693 0-.294-.082-.534-.245-.721-.163-.191-.399-.287-.707-.287v-.749c.308 0 .544-.093.707-.28.163-.187.245-.429.245-.728 0-.233-.019-.464-.056-.693a34.894 34.894 0 0 0-.119-.686c-.042-.229-.082-.46-.119-.693a4.51 4.51 0 0 1-.056-.714c0-.322.047-.618.14-.889a1.93 1.93 0 0 1 .434-.7c.196-.196.436-.348.721-.455a2.88 2.88 0 0 1 1.001-.161h.378v.553c0 .093-.033.161-.098.203a.342.342 0 0 1-.182.063h-.14zm2.069 3.262a3.235 3.235 0 0 1-.4-1.043 3.17 3.17 0 0 1 .329-2.121 3.23 3.23 0 0 1 .708-.889l.378.238c.07.047.1.105.09.175a.232.232 0 0 1-.062.154 2.17 2.17 0 0 0-.315.546 2.558 2.558 0 0 0-.161.693c-.023.243-.012.495.035.756s.142.513.287.756c.06.098.077.187.049.266-.023.075-.08.131-.168.168l-.77.301zm2.128 0a3.235 3.235 0 0 1-.4-1.043 3.17 3.17 0 0 1 .329-2.121 3.23 3.23 0 0 1 .708-.889l.378.238c.07.047.1.105.09.175a.232.232 0 0 1-.062.154 2.17 2.17 0 0 0-.315.546 2.558 2.558 0 0 0-.161.693c-.023.243-.012.495.035.756s.142.513.287.756c.06.098.077.187.049.266-.023.075-.08.131-.168.168l-.77.301zm7.132 2.331c0-.289-.042-.553-.126-.791a1.695 1.695 0 0 0-.357-.623 1.507 1.507 0 0 0-.567-.406 1.889 1.889 0 0 0-.763-.147c-.598 0-1.071.175-1.421.525-.346.345-.56.826-.644 1.442h3.878zm1.008 3.325a2.44 2.44 0 0 1-.553.49 3.582 3.582 0 0 1-.693.336 4.075 4.075 0 0 1-.756.196c-.262.047-.521.07-.777.07-.49 0-.943-.082-1.358-.245a3.08 3.08 0 0 1-1.071-.728 3.409 3.409 0 0 1-.7-1.19c-.168-.471-.252-1.013-.252-1.624 0-.495.074-.957.224-1.386.154-.429.373-.8.658-1.113a2.954 2.954 0 0 1 1.043-.742c.41-.182.872-.273 1.386-.273.424 0 .816.072 1.176.217.364.14.676.345.938.616.266.266.473.597.623.994.149.392.224.84.224 1.344 0 .196-.021.327-.063.392-.042.065-.122.098-.238.098h-4.74c.015.448.075.838.183 1.169.112.331.266.609.462.833.196.219.43.385.7.497.27.107.574.161.91.161.312 0 .581-.035.805-.105a4.134 4.134 0 0 0 .994-.469.544.544 0 0 1 .287-.112c.102 0 .182.04.238.119l.35.455zm7.568-6.097L107.346 320h-1.12l-2.891-7.091h1.015a.4.4 0 0 1 .252.077.39.39 0 0 1 .133.182l1.799 4.564c.056.173.105.341.147.504.042.163.081.327.119.49.037-.163.077-.327.119-.49.042-.163.093-.331.154-.504l1.82-4.564a.381.381 0 0 1 .14-.182.363.363 0 0 1 .231-.077h.973zm5.697 2.772c0-.289-.042-.553-.126-.791a1.668 1.668 0 0 0-.357-.623 1.507 1.507 0 0 0-.567-.406 1.885 1.885 0 0 0-.763-.147c-.597 0-1.071.175-1.421.525-.345.345-.56.826-.644 1.442h3.878zm1.008 3.325a2.42 2.42 0 0 1-.553.49 3.527 3.527 0 0 1-.693.336 4.034 4.034 0 0 1-.756.196c-.261.047-.52.07-.777.07-.49 0-.942-.082-1.358-.245a3.092 3.092 0 0 1-1.071-.728 3.418 3.418 0 0 1-.7-1.19c-.168-.471-.252-1.013-.252-1.624 0-.495.075-.957.224-1.386.154-.429.374-.8.658-1.113a2.962 2.962 0 0 1 1.043-.742 3.388 3.388 0 0 1 1.386-.273c.425 0 .817.072 1.176.217.364.14.677.345.938.616.266.266.474.597.623.994.15.392.224.84.224 1.344 0 .196-.021.327-.063.392-.042.065-.121.098-.238.098h-4.739c.014.448.075.838.182 1.169.112.331.266.609.462.833.196.219.43.385.7.497.271.107.574.161.91.161.313 0 .581-.035.805-.105a4.039 4.039 0 0 0 .994-.469.547.547 0 0 1 .287-.112c.103 0 .182.04.238.119l.35.455zm2.819-5.068c.154-.173.317-.329.49-.469.172-.14.354-.259.546-.357a2.849 2.849 0 0 1 1.323-.315c.387 0 .728.065 1.022.196.298.126.546.308.742.546.2.233.352.516.455.847.102.331.154.698.154 1.099V320h-1.253v-4.515c0-.537-.124-.952-.371-1.246-.243-.299-.614-.448-1.113-.448-.369 0-.714.089-1.036.266a3.403 3.403 0 0 0-.882.721V320h-1.253v-7.091h.749c.177 0 .287.086.329.259l.098.77zm8.712 6.174c-.56 0-.992-.156-1.295-.469-.299-.313-.448-.763-.448-1.351v-4.34h-.854a.287.287 0 0 1-.189-.063c-.052-.047-.077-.117-.077-.21v-.497l1.162-.147.287-2.191a.277.277 0 0 1 .287-.238h.63v2.443h2.051v.903h-2.051v4.256c0 .299.072.52.217.665a.755.755 0 0 0 .56.217 1.018 1.018 0 0 0 .588-.168c.07-.042.128-.079.175-.112.051-.037.095-.056.133-.056.065 0 .123.04.175.119l.364.595a2.374 2.374 0 0 1-.777.476 2.69 2.69 0 0 1-.938.168zm3.701-10.815a3.228 3.228 0 0 1 .42 2.142 3.224 3.224 0 0 1-.35 1.036 3.121 3.121 0 0 1-.707.882l-.378-.245c-.07-.042-.102-.096-.098-.161a.315.315 0 0 1 .07-.168 2.04 2.04 0 0 0 .308-.539c.089-.215.145-.443.168-.686a2.467 2.467 0 0 0-.035-.763 2.22 2.22 0 0 0-.287-.756c-.06-.098-.079-.184-.056-.259a.296.296 0 0 1 .175-.175l.77-.308zm2.128 0a3.228 3.228 0 0 1 .42 2.142 3.224 3.224 0 0 1-.35 1.036 3.121 3.121 0 0 1-.707.882l-.378-.245c-.07-.042-.102-.096-.098-.161a.315.315 0 0 1 .07-.168 2.04 2.04 0 0 0 .308-.539c.089-.215.145-.443.168-.686a2.467 2.467 0 0 0-.035-.763 2.22 2.22 0 0 0-.287-.756c-.06-.098-.079-.184-.056-.259a.296.296 0 0 1 .175-.175l.77-.308zm2.012 9.933c0-.121.021-.236.063-.343a.988.988 0 0 1 .182-.28.922.922 0 0 1 .28-.189.849.849 0 0 1 .343-.07.898.898 0 0 1 .812.539c.047.107.07.222.07.343a.862.862 0 0 1-.259.623.803.803 0 0 1-.28.182.842.842 0 0 1-.343.07.849.849 0 0 1-.343-.07.821.821 0 0 1-.28-.182 1.01 1.01 0 0 1-.182-.273.95.95 0 0 1-.063-.35zm0-5.25c0-.121.021-.236.063-.343a.988.988 0 0 1 .182-.28.922.922 0 0 1 .28-.189.849.849 0 0 1 .343-.07.898.898 0 0 1 .812.539c.047.107.07.222.07.343a.862.862 0 0 1-.259.623.898.898 0 0 1-.28.189.929.929 0 0 1-.343.063.937.937 0 0 1-.343-.063.922.922 0 0 1-.28-.189 1.01 1.01 0 0 1-.182-.273.95.95 0 0 1-.063-.35zm4.473-4.683a3.228 3.228 0 0 1 .42 2.142 3.224 3.224 0 0 1-.35 1.036 3.121 3.121 0 0 1-.707.882l-.378-.245c-.07-.042-.102-.096-.098-.161a.315.315 0 0 1 .07-.168 2.04 2.04 0 0 0 .308-.539c.089-.215.145-.443.168-.686a2.467 2.467 0 0 0-.035-.763 2.22 2.22 0 0 0-.287-.756c-.06-.098-.079-.184-.056-.259a.296.296 0 0 1 .175-.175l.77-.308zm2.128 0a3.228 3.228 0 0 1 .42 2.142 3.224 3.224 0 0 1-.35 1.036 3.121 3.121 0 0 1-.707.882l-.378-.245c-.07-.042-.102-.096-.098-.161a.315.315 0 0 1 .07-.168 2.04 2.04 0 0 0 .308-.539c.089-.215.145-.443.168-.686a2.467 2.467 0 0 0-.035-.763 2.22 2.22 0 0 0-.287-.756c-.06-.098-.079-.184-.056-.259a.296.296 0 0 1 .175-.175l.77-.308zm3.378.392v6.069h.322a.66.66 0 0 0 .231-.035.608.608 0 0 0 .203-.161l2.24-2.401a.805.805 0 0 1 .203-.182.542.542 0 0 1 .294-.07h1.127l-2.611 2.779a1.589 1.589 0 0 1-.406.371c.084.056.158.121.224.196.07.07.135.152.196.245l2.772 3.5h-1.113a.723.723 0 0 1-.28-.049.49.49 0 0 1-.196-.196l-2.331-2.905a.514.514 0 0 0-.21-.189.722.722 0 0 0-.308-.049h-.357V320h-1.253v-10.311h1.253zm7.172 3.22V320h-1.246v-7.091h1.246zm.266-2.226a.79.79 0 0 1-.077.343.953.953 0 0 1-.196.28.885.885 0 0 1-.287.189.845.845 0 0 1-.343.07.845.845 0 0 1-.616-.259 1.03 1.03 0 0 1-.189-.28.845.845 0 0 1-.07-.343c0-.121.023-.236.07-.343a.885.885 0 0 1 .189-.287.863.863 0 0 1 .273-.196.845.845 0 0 1 .343-.07c.121 0 .236.023.343.07a.828.828 0 0 1 .287.196.828.828 0 0 1 .196.287.79.79 0 0 1 .077.343zm3.069-.994V320h-1.246v-10.311h1.246zm3.309 0V320h-1.246v-10.311h1.246zm2.882-.392a3.228 3.228 0 0 1 .42 2.142 3.248 3.248 0 0 1-.35 1.036 3.139 3.139 0 0 1-.707.882l-.378-.245c-.07-.042-.103-.096-.098-.161a.3.3 0 0 1 .07-.168c.121-.149.224-.329.308-.539.088-.215.144-.443.168-.686a2.498 2.498 0 0 0-.035-.763 2.263 2.263 0 0 0-.287-.756c-.061-.098-.08-.184-.056-.259a.294.294 0 0 1 .175-.175l.77-.308zm2.128 0a3.228 3.228 0 0 1 .42 2.142 3.248 3.248 0 0 1-.35 1.036 3.139 3.139 0 0 1-.707.882l-.378-.245c-.07-.042-.103-.096-.098-.161a.3.3 0 0 1 .07-.168c.121-.149.224-.329.308-.539.088-.215.144-.443.168-.686a2.498 2.498 0 0 0-.035-.763 2.263 2.263 0 0 0-.287-.756c-.061-.098-.08-.184-.056-.259a.294.294 0 0 1 .175-.175l.77-.308zm.557 12.397a.312.312 0 0 1-.077-.091.234.234 0 0 1-.021-.105c0-.033.009-.065.028-.098a.673.673 0 0 1 .077-.091c.046-.051.105-.119.175-.203a2.48 2.48 0 0 0 .224-.301c.074-.112.142-.238.203-.378.065-.135.112-.28.14-.434a.149.149 0 0 1-.049.007h-.042a.791.791 0 0 1-.595-.238.884.884 0 0 1-.224-.623c0-.219.074-.406.224-.56.154-.154.357-.231.609-.231.14 0 .263.026.371.077a.713.713 0 0 1 .266.217c.074.089.13.194.168.315.037.117.056.245.056.385 0 .21-.031.429-.091.658a2.95 2.95 0 0 1-.259.665 3.927 3.927 0 0 1-.973 1.232l-.21-.203zm2.619-12.397a3.228 3.228 0 0 1 .42 2.142 3.224 3.224 0 0 1-.35 1.036 3.121 3.121 0 0 1-.707.882l-.378-.245c-.07-.042-.102-.096-.098-.161a.315.315 0 0 1 .07-.168 2.04 2.04 0 0 0 .308-.539c.089-.215.145-.443.168-.686a2.467 2.467 0 0 0-.035-.763 2.22 2.22 0 0 0-.287-.756c-.06-.098-.079-.184-.056-.259a.296.296 0 0 1 .175-.175l.77-.308zm2.128 0a3.228 3.228 0 0 1 .42 2.142 3.224 3.224 0 0 1-.35 1.036 3.121 3.121 0 0 1-.707.882l-.378-.245c-.07-.042-.102-.096-.098-.161a.315.315 0 0 1 .07-.168 2.04 2.04 0 0 0 .308-.539c.089-.215.145-.443.168-.686a2.467 2.467 0 0 0-.035-.763 2.22 2.22 0 0 0-.287-.756c-.06-.098-.079-.184-.056-.259a.296.296 0 0 1 .175-.175l.77-.308zm6.608 4.872a.54.54 0 0 1-.112.119.25.25 0 0 1-.154.042.426.426 0 0 1-.231-.084 3.136 3.136 0 0 0-.315-.196 2.22 2.22 0 0 0-.455-.189 2.04 2.04 0 0 0-.658-.091c-.35 0-.658.063-.924.189-.266.121-.49.299-.672.532a2.527 2.527 0 0 0-.406.847 4.333 4.333 0 0 0-.133 1.113c0 .429.049.812.147 1.148.098.331.236.611.413.84.182.224.399.397.651.518.257.117.544.175.861.175.304 0 .553-.035.749-.105a2.21 2.21 0 0 0 .483-.245 4.19 4.19 0 0 0 .322-.238.406.406 0 0 1 .259-.112c.103 0 .182.04.238.119l.35.455a2.483 2.483 0 0 1-.525.49c-.196.135-.408.25-.637.343a3.48 3.48 0 0 1-.707.196 4.502 4.502 0 0 1-.756.063c-.443 0-.856-.082-1.239-.245a2.841 2.841 0 0 1-.987-.707 3.371 3.371 0 0 1-.658-1.148 4.68 4.68 0 0 1-.238-1.547c0-.527.073-1.015.217-1.463.15-.448.364-.833.644-1.155a2.953 2.953 0 0 1 1.043-.763c.416-.182.892-.273 1.428-.273.5 0 .938.082 1.316.245.383.159.721.385 1.015.679l-.329.448zm4.617-1.372c.518 0 .985.086 1.4.259.415.173.77.418 1.064.735.294.317.518.702.672 1.155.159.448.238.95.238 1.505a4.5 4.5 0 0 1-.238 1.512 3.187 3.187 0 0 1-.672 1.148 3.012 3.012 0 0 1-1.064.735 3.703 3.703 0 0 1-1.4.252c-.523 0-.994-.084-1.414-.252a3.012 3.012 0 0 1-1.064-.735c-.294-.317-.52-.7-.679-1.148a4.634 4.634 0 0 1-.231-1.512c0-.555.077-1.057.231-1.505.159-.453.385-.838.679-1.155a3.012 3.012 0 0 1 1.064-.735 3.68 3.68 0 0 1 1.414-.259zm0 6.328c.7 0 1.223-.233 1.568-.7.345-.471.518-1.127.518-1.967 0-.845-.173-1.503-.518-1.974-.345-.471-.868-.707-1.568-.707-.355 0-.665.061-.931.182a1.752 1.752 0 0 0-.658.525 2.413 2.413 0 0 0-.392.847 4.596 4.596 0 0 0-.126 1.127c0 .84.173 1.496.518 1.967.35.467.88.7 1.589.7zm10.785-6.216V320h-.742c-.177 0-.289-.086-.336-.259l-.098-.763a3.95 3.95 0 0 1-1.036.826 2.741 2.741 0 0 1-1.316.308 2.63 2.63 0 0 1-1.029-.189 2.086 2.086 0 0 1-.742-.546 2.36 2.36 0 0 1-.455-.847 3.865 3.865 0 0 1-.147-1.099v-4.522h1.246v4.522c0 .537.122.952.364 1.246.248.294.623.441 1.127.441.369 0 .712-.086 1.029-.259a3.3 3.3 0 0 0 .889-.728v-5.222h1.246zm3.152 1.029c.154-.173.317-.329.49-.469a3.16 3.16 0 0 1 .546-.357 2.849 2.849 0 0 1 1.323-.315c.387 0 .728.065 1.022.196.299.126.546.308.742.546.201.233.352.516.455.847.103.331.154.698.154 1.099V320h-1.253v-4.515c0-.537-.124-.952-.371-1.246-.243-.299-.614-.448-1.113-.448-.369 0-.714.089-1.036.266a3.436 3.436 0 0 0-.882.721V320h-1.253v-7.091h.749c.177 0 .287.086.329.259l.098.77zm8.712 6.174c-.56 0-.992-.156-1.295-.469-.299-.313-.448-.763-.448-1.351v-4.34h-.854a.287.287 0 0 1-.189-.063c-.052-.047-.077-.117-.077-.21v-.497l1.162-.147.287-2.191a.277.277 0 0 1 .287-.238h.63v2.443h2.051v.903H203.8v4.256c0 .299.072.52.217.665a.755.755 0 0 0 .56.217 1.018 1.018 0 0 0 .588-.168c.07-.042.128-.079.175-.112.051-.037.095-.056.133-.056.065 0 .123.04.175.119l.364.595a2.374 2.374 0 0 1-.777.476 2.69 2.69 0 0 1-.938.168zm3.701-10.815a3.228 3.228 0 0 1 .42 2.142 3.224 3.224 0 0 1-.35 1.036 3.121 3.121 0 0 1-.707.882l-.378-.245c-.07-.042-.102-.096-.098-.161a.315.315 0 0 1 .07-.168 2.04 2.04 0 0 0 .308-.539c.089-.215.145-.443.168-.686a2.467 2.467 0 0 0-.035-.763 2.22 2.22 0 0 0-.287-.756c-.06-.098-.079-.184-.056-.259a.296.296 0 0 1 .175-.175l.77-.308zm2.128 0a3.228 3.228 0 0 1 .42 2.142 3.224 3.224 0 0 1-.35 1.036 3.121 3.121 0 0 1-.707.882l-.378-.245c-.07-.042-.102-.096-.098-.161a.315.315 0 0 1 .07-.168 2.04 2.04 0 0 0 .308-.539c.089-.215.145-.443.168-.686a2.467 2.467 0 0 0-.035-.763 2.22 2.22 0 0 0-.287-.756c-.06-.098-.079-.184-.056-.259a.296.296 0 0 1 .175-.175l.77-.308zm2.013 9.933c0-.121.021-.236.063-.343a.947.947 0 0 1 .182-.28.898.898 0 0 1 .623-.259c.121 0 .235.023.343.07.107.047.2.11.28.189a.91.91 0 0 1 .189.28.878.878 0 0 1 0 .693.927.927 0 0 1-.189.273.821.821 0 0 1-.28.182.849.849 0 0 1-.343.07.842.842 0 0 1-.343-.07.803.803 0 0 1-.28-.182.965.965 0 0 1-.182-.273.95.95 0 0 1-.063-.35zm0-5.25c0-.121.021-.236.063-.343a.947.947 0 0 1 .182-.28.898.898 0 0 1 .623-.259c.121 0 .235.023.343.07.107.047.2.11.28.189a.91.91 0 0 1 .189.28.878.878 0 0 1 0 .693.922.922 0 0 1-.469.462.937.937 0 0 1-.343.063.929.929 0 0 1-.343-.063.898.898 0 0 1-.28-.189.965.965 0 0 1-.182-.273.95.95 0 0 1-.063-.35zm4.473-4.683a3.228 3.228 0 0 1 .42 2.142 3.248 3.248 0 0 1-.35 1.036 3.139 3.139 0 0 1-.707.882l-.378-.245c-.07-.042-.103-.096-.098-.161a.3.3 0 0 1 .07-.168c.121-.149.224-.329.308-.539.088-.215.144-.443.168-.686a2.498 2.498 0 0 0-.035-.763 2.263 2.263 0 0 0-.287-.756c-.061-.098-.08-.184-.056-.259a.294.294 0 0 1 .175-.175l.77-.308zm2.128 0a3.228 3.228 0 0 1 .42 2.142 3.248 3.248 0 0 1-.35 1.036 3.139 3.139 0 0 1-.707.882l-.378-.245c-.07-.042-.103-.096-.098-.161a.3.3 0 0 1 .07-.168c.121-.149.224-.329.308-.539.088-.215.144-.443.168-.686a2.498 2.498 0 0 0-.035-.763 2.263 2.263 0 0 0-.287-.756c-.061-.098-.08-.184-.056-.259a.294.294 0 0 1 .175-.175l.77-.308zm8.046 9.52c.135 0 .243.04.322.119a.418.418 0 0 1 .119.308V320h-6.692v-.427a.771.771 0 0 1 .231-.532l3.213-3.227c.266-.271.509-.53.728-.777.219-.252.406-.504.56-.756a3.62 3.62 0 0 0 .357-.763c.084-.261.126-.539.126-.833a1.96 1.96 0 0 0-.14-.77 1.493 1.493 0 0 0-.952-.875 2.17 2.17 0 0 0-.707-.112 2.13 2.13 0 0 0-.707.112c-.215.075-.406.18-.574.315a1.822 1.822 0 0 0-.413.469 1.9 1.9 0 0 0-.238.602c-.056.163-.133.273-.231.329-.093.051-.226.065-.399.042l-.651-.112c.065-.457.191-.861.378-1.211.191-.355.429-.651.714-.889.289-.238.618-.418.987-.539a3.681 3.681 0 0 1 1.197-.189c.425 0 .821.063 1.19.189s.688.31.959.553c.271.238.483.53.637.875.154.345.231.737.231 1.176 0 .373-.056.721-.168 1.043a4.163 4.163 0 0 1-.455.91 6.835 6.835 0 0 1-.665.847c-.247.275-.511.553-.791.833l-2.646 2.702a4.8 4.8 0 0 1 .567-.119c.191-.033.376-.049.553-.049h3.36zm3.06-9.52a3.228 3.228 0 0 1 .42 2.142 3.248 3.248 0 0 1-.35 1.036 3.121 3.121 0 0 1-.707.882l-.378-.245c-.07-.042-.103-.096-.098-.161a.307.307 0 0 1 .07-.168c.121-.149.224-.329.308-.539.089-.215.145-.443.168-.686a2.498 2.498 0 0 0-.035-.763 2.242 2.242 0 0 0-.287-.756c-.061-.098-.079-.184-.056-.259a.294.294 0 0 1 .175-.175l.77-.308zm2.128 0a3.228 3.228 0 0 1 .42 2.142 3.248 3.248 0 0 1-.35 1.036 3.121 3.121 0 0 1-.707.882l-.378-.245c-.07-.042-.103-.096-.098-.161a.307.307 0 0 1 .07-.168c.121-.149.224-.329.308-.539.089-.215.145-.443.168-.686a2.498 2.498 0 0 0-.035-.763 2.242 2.242 0 0 0-.287-.756c-.061-.098-.079-.184-.056-.259a.294.294 0 0 1 .175-.175l.77-.308zm4.875 6.72c-.308 0-.543.096-.707.287-.163.187-.245.427-.245.721 0 .233.019.464.056.693.038.229.077.46.119.693.042.229.082.46.119.693.038.229.056.464.056.707 0 .322-.049.618-.147.889a1.803 1.803 0 0 1-.434.7 1.914 1.914 0 0 1-.721.455 2.702 2.702 0 0 1-.994.168h-.378v-.56c0-.093.033-.161.098-.203a.37.37 0 0 1 .182-.063h.14c.364 0 .649-.117.854-.35.206-.233.308-.553.308-.959 0-.261-.016-.513-.049-.756-.032-.243-.07-.478-.112-.707a19.92 19.92 0 0 1-.112-.693 5.002 5.002 0 0 1-.049-.693 1.482 1.482 0 0 1 .294-.896c.098-.121.21-.224.336-.308.131-.084.273-.147.427-.189a1.532 1.532 0 0 1-.427-.189 1.672 1.672 0 0 1-.336-.315 1.44 1.44 0 0 1-.294-.896c0-.233.017-.464.049-.693.033-.229.07-.457.112-.686.042-.233.08-.471.112-.714.033-.243.049-.495.049-.756 0-.401-.102-.719-.308-.952-.205-.238-.49-.357-.854-.357h-.14a.37.37 0 0 1-.182-.063c-.065-.042-.098-.11-.098-.203v-.553h.378c.378 0 .71.054.994.161.29.107.53.259.721.455.196.196.341.429.434.7.098.271.147.567.147.889 0 .243-.018.481-.056.714-.037.233-.077.464-.119.693a41 41 0 0 0-.119.686c-.037.229-.056.46-.056.693 0 .299.082.541.245.728.164.187.399.28.707.28v.749z" fill="#8E7CBF"/><path opacity=".8" d="M90.332 345.088c-.364 0-.649.119-.854.357-.205.233-.308.551-.308.952 0 .261.016.513.049.756s.07.481.112.714c.042.229.08.457.112.686.033.229.049.46.049.693 0 .173-.026.336-.077.49a1.327 1.327 0 0 1-.224.406 1.454 1.454 0 0 1-.336.315 1.43 1.43 0 0 1-.42.189 1.43 1.43 0 0 1 .98.91c.051.149.077.31.077.483 0 .233-.016.464-.049.693-.033.229-.07.46-.112.693-.042.229-.08.464-.112.707a5.666 5.666 0 0 0-.049.756c0 .406.103.726.308.959.205.233.49.35.854.35h.14c.056 0 .117.021.182.063.065.042.098.11.098.203v.56h-.378a2.76 2.76 0 0 1-1.001-.168 1.998 1.998 0 0 1-.721-.455 1.925 1.925 0 0 1-.434-.7 2.713 2.713 0 0 1-.14-.889c0-.243.019-.478.056-.707.037-.233.077-.464.119-.693.042-.233.082-.464.119-.693.037-.229.056-.46.056-.693 0-.294-.082-.534-.245-.721-.163-.191-.399-.287-.707-.287v-.749c.308 0 .544-.093.707-.28.163-.187.245-.429.245-.728 0-.233-.019-.464-.056-.693a34.894 34.894 0 0 0-.119-.686c-.042-.229-.082-.46-.119-.693a4.51 4.51 0 0 1-.056-.714c0-.322.047-.618.14-.889a1.93 1.93 0 0 1 .434-.7c.196-.196.436-.348.721-.455a2.88 2.88 0 0 1 1.001-.161h.378v.553c0 .093-.033.161-.098.203a.342.342 0 0 1-.182.063h-.14zm2.069 3.262a3.235 3.235 0 0 1-.4-1.043 3.17 3.17 0 0 1 .329-2.121 3.23 3.23 0 0 1 .708-.889l.378.238c.07.047.1.105.09.175a.232.232 0 0 1-.062.154 2.17 2.17 0 0 0-.315.546 2.558 2.558 0 0 0-.161.693c-.023.243-.012.495.035.756s.142.513.287.756c.06.098.077.187.049.266-.023.075-.08.131-.168.168l-.77.301zm2.128 0a3.235 3.235 0 0 1-.4-1.043 3.17 3.17 0 0 1 .329-2.121 3.23 3.23 0 0 1 .708-.889l.378.238c.07.047.1.105.09.175a.232.232 0 0 1-.062.154 2.17 2.17 0 0 0-.315.546 2.558 2.558 0 0 0-.161.693c-.023.243-.012.495.035.756s.142.513.287.756c.06.098.077.187.049.266-.023.075-.08.131-.168.168l-.77.301zm7.132 2.331c0-.289-.042-.553-.126-.791a1.695 1.695 0 0 0-.357-.623 1.507 1.507 0 0 0-.567-.406 1.889 1.889 0 0 0-.763-.147c-.598 0-1.071.175-1.421.525-.346.345-.56.826-.644 1.442h3.878zm1.008 3.325a2.44 2.44 0 0 1-.553.49 3.582 3.582 0 0 1-.693.336 4.075 4.075 0 0 1-.756.196c-.262.047-.521.07-.777.07-.49 0-.943-.082-1.358-.245a3.08 3.08 0 0 1-1.071-.728 3.409 3.409 0 0 1-.7-1.19c-.168-.471-.252-1.013-.252-1.624 0-.495.074-.957.224-1.386.154-.429.373-.8.658-1.113a2.954 2.954 0 0 1 1.043-.742c.41-.182.872-.273 1.386-.273.424 0 .816.072 1.176.217.364.14.676.345.938.616.266.266.473.597.623.994.149.392.224.84.224 1.344 0 .196-.021.327-.063.392-.042.065-.122.098-.238.098h-4.74c.015.448.075.838.183 1.169.112.331.266.609.462.833.196.219.43.385.7.497.27.107.574.161.91.161.312 0 .581-.035.805-.105a4.134 4.134 0 0 0 .994-.469.544.544 0 0 1 .287-.112c.102 0 .182.04.238.119l.35.455zm7.568-6.097L107.346 355h-1.12l-2.891-7.091h1.015a.4.4 0 0 1 .252.077.39.39 0 0 1 .133.182l1.799 4.564c.056.173.105.341.147.504.042.163.081.327.119.49.037-.163.077-.327.119-.49.042-.163.093-.331.154-.504l1.82-4.564a.381.381 0 0 1 .14-.182.363.363 0 0 1 .231-.077h.973zm5.697 2.772c0-.289-.042-.553-.126-.791a1.668 1.668 0 0 0-.357-.623 1.507 1.507 0 0 0-.567-.406 1.885 1.885 0 0 0-.763-.147c-.597 0-1.071.175-1.421.525-.345.345-.56.826-.644 1.442h3.878zm1.008 3.325a2.42 2.42 0 0 1-.553.49 3.527 3.527 0 0 1-.693.336 4.034 4.034 0 0 1-.756.196c-.261.047-.52.07-.777.07-.49 0-.942-.082-1.358-.245a3.092 3.092 0 0 1-1.071-.728 3.418 3.418 0 0 1-.7-1.19c-.168-.471-.252-1.013-.252-1.624 0-.495.075-.957.224-1.386.154-.429.374-.8.658-1.113a2.962 2.962 0 0 1 1.043-.742 3.388 3.388 0 0 1 1.386-.273c.425 0 .817.072 1.176.217.364.14.677.345.938.616.266.266.474.597.623.994.15.392.224.84.224 1.344 0 .196-.021.327-.063.392-.042.065-.121.098-.238.098h-4.739c.014.448.075.838.182 1.169.112.331.266.609.462.833.196.219.43.385.7.497.271.107.574.161.91.161.313 0 .581-.035.805-.105a4.039 4.039 0 0 0 .994-.469.547.547 0 0 1 .287-.112c.103 0 .182.04.238.119l.35.455zm2.819-5.068c.154-.173.317-.329.49-.469.172-.14.354-.259.546-.357a2.849 2.849 0 0 1 1.323-.315c.387 0 .728.065 1.022.196.298.126.546.308.742.546.2.233.352.516.455.847.102.331.154.698.154 1.099V355h-1.253v-4.515c0-.537-.124-.952-.371-1.246-.243-.299-.614-.448-1.113-.448-.369 0-.714.089-1.036.266a3.403 3.403 0 0 0-.882.721V355h-1.253v-7.091h.749c.177 0 .287.086.329.259l.098.77zm8.712 6.174c-.56 0-.992-.156-1.295-.469-.299-.313-.448-.763-.448-1.351v-4.34h-.854a.287.287 0 0 1-.189-.063c-.052-.047-.077-.117-.077-.21v-.497l1.162-.147.287-2.191a.277.277 0 0 1 .287-.238h.63v2.443h2.051v.903h-2.051v4.256c0 .299.072.52.217.665a.755.755 0 0 0 .56.217 1.018 1.018 0 0 0 .588-.168c.07-.042.128-.079.175-.112.051-.037.095-.056.133-.056.065 0 .123.04.175.119l.364.595a2.374 2.374 0 0 1-.777.476 2.69 2.69 0 0 1-.938.168zm3.701-10.815a3.228 3.228 0 0 1 .42 2.142 3.224 3.224 0 0 1-.35 1.036 3.121 3.121 0 0 1-.707.882l-.378-.245c-.07-.042-.102-.096-.098-.161a.315.315 0 0 1 .07-.168 2.04 2.04 0 0 0 .308-.539c.089-.215.145-.443.168-.686a2.467 2.467 0 0 0-.035-.763 2.22 2.22 0 0 0-.287-.756c-.06-.098-.079-.184-.056-.259a.296.296 0 0 1 .175-.175l.77-.308zm2.128 0a3.228 3.228 0 0 1 .42 2.142 3.224 3.224 0 0 1-.35 1.036 3.121 3.121 0 0 1-.707.882l-.378-.245c-.07-.042-.102-.096-.098-.161a.315.315 0 0 1 .07-.168 2.04 2.04 0 0 0 .308-.539c.089-.215.145-.443.168-.686a2.467 2.467 0 0 0-.035-.763 2.22 2.22 0 0 0-.287-.756c-.06-.098-.079-.184-.056-.259a.296.296 0 0 1 .175-.175l.77-.308zm2.012 9.933c0-.121.021-.236.063-.343a.988.988 0 0 1 .182-.28.922.922 0 0 1 .28-.189.849.849 0 0 1 .343-.07.898.898 0 0 1 .812.539c.047.107.07.222.07.343a.862.862 0 0 1-.259.623.803.803 0 0 1-.28.182.842.842 0 0 1-.343.07.849.849 0 0 1-.343-.07.821.821 0 0 1-.28-.182 1.01 1.01 0 0 1-.182-.273.95.95 0 0 1-.063-.35zm0-5.25c0-.121.021-.236.063-.343a.988.988 0 0 1 .182-.28.922.922 0 0 1 .28-.189.849.849 0 0 1 .343-.07.898.898 0 0 1 .812.539c.047.107.07.222.07.343a.862.862 0 0 1-.259.623.898.898 0 0 1-.28.189.929.929 0 0 1-.343.063.937.937 0 0 1-.343-.063.922.922 0 0 1-.28-.189 1.01 1.01 0 0 1-.182-.273.95.95 0 0 1-.063-.35zm4.473-4.683a3.228 3.228 0 0 1 .42 2.142 3.224 3.224 0 0 1-.35 1.036 3.121 3.121 0 0 1-.707.882l-.378-.245c-.07-.042-.102-.096-.098-.161a.315.315 0 0 1 .07-.168 2.04 2.04 0 0 0 .308-.539c.089-.215.145-.443.168-.686a2.467 2.467 0 0 0-.035-.763 2.22 2.22 0 0 0-.287-.756c-.06-.098-.079-.184-.056-.259a.296.296 0 0 1 .175-.175l.77-.308zm2.128 0a3.228 3.228 0 0 1 .42 2.142 3.224 3.224 0 0 1-.35 1.036 3.121 3.121 0 0 1-.707.882l-.378-.245c-.07-.042-.102-.096-.098-.161a.315.315 0 0 1 .07-.168 2.04 2.04 0 0 0 .308-.539c.089-.215.145-.443.168-.686a2.467 2.467 0 0 0-.035-.763 2.22 2.22 0 0 0-.287-.756c-.06-.098-.079-.184-.056-.259a.296.296 0 0 1 .175-.175l.77-.308zm3.378.392v6.069h.322a.66.66 0 0 0 .231-.035.608.608 0 0 0 .203-.161l2.24-2.401a.805.805 0 0 1 .203-.182.542.542 0 0 1 .294-.07h1.127l-2.611 2.779a1.589 1.589 0 0 1-.406.371c.084.056.158.121.224.196.07.07.135.152.196.245l2.772 3.5h-1.113a.723.723 0 0 1-.28-.049.49.49 0 0 1-.196-.196l-2.331-2.905a.514.514 0 0 0-.21-.189.722.722 0 0 0-.308-.049h-.357V355h-1.253v-10.311h1.253zm7.172 3.22V355h-1.246v-7.091h1.246zm.266-2.226a.79.79 0 0 1-.077.343.953.953 0 0 1-.196.28.885.885 0 0 1-.287.189.845.845 0 0 1-.343.07.845.845 0 0 1-.616-.259 1.03 1.03 0 0 1-.189-.28.845.845 0 0 1-.07-.343c0-.121.023-.236.07-.343a.885.885 0 0 1 .189-.287.863.863 0 0 1 .273-.196.845.845 0 0 1 .343-.07c.121 0 .236.023.343.07a.828.828 0 0 1 .287.196.828.828 0 0 1 .196.287.79.79 0 0 1 .077.343zm3.069-.994V355h-1.246v-10.311h1.246zm3.309 0V355h-1.246v-10.311h1.246zm2.882-.392a3.228 3.228 0 0 1 .42 2.142 3.248 3.248 0 0 1-.35 1.036 3.139 3.139 0 0 1-.707.882l-.378-.245c-.07-.042-.103-.096-.098-.161a.3.3 0 0 1 .07-.168c.121-.149.224-.329.308-.539.088-.215.144-.443.168-.686a2.498 2.498 0 0 0-.035-.763 2.263 2.263 0 0 0-.287-.756c-.061-.098-.08-.184-.056-.259a.294.294 0 0 1 .175-.175l.77-.308zm2.128 0a3.228 3.228 0 0 1 .42 2.142 3.248 3.248 0 0 1-.35 1.036 3.139 3.139 0 0 1-.707.882l-.378-.245c-.07-.042-.103-.096-.098-.161a.3.3 0 0 1 .07-.168c.121-.149.224-.329.308-.539.088-.215.144-.443.168-.686a2.498 2.498 0 0 0-.035-.763 2.263 2.263 0 0 0-.287-.756c-.061-.098-.08-.184-.056-.259a.294.294 0 0 1 .175-.175l.77-.308zm.557 12.397a.312.312 0 0 1-.077-.091.234.234 0 0 1-.021-.105c0-.033.009-.065.028-.098a.673.673 0 0 1 .077-.091c.046-.051.105-.119.175-.203a2.48 2.48 0 0 0 .224-.301c.074-.112.142-.238.203-.378.065-.135.112-.28.14-.434a.149.149 0 0 1-.049.007h-.042a.791.791 0 0 1-.595-.238.884.884 0 0 1-.224-.623c0-.219.074-.406.224-.56.154-.154.357-.231.609-.231.14 0 .263.026.371.077a.713.713 0 0 1 .266.217c.074.089.13.194.168.315.037.117.056.245.056.385 0 .21-.031.429-.091.658a2.95 2.95 0 0 1-.259.665 3.927 3.927 0 0 1-.973 1.232l-.21-.203zm2.619-12.397a3.228 3.228 0 0 1 .42 2.142 3.224 3.224 0 0 1-.35 1.036 3.121 3.121 0 0 1-.707.882l-.378-.245c-.07-.042-.102-.096-.098-.161a.315.315 0 0 1 .07-.168 2.04 2.04 0 0 0 .308-.539c.089-.215.145-.443.168-.686a2.467 2.467 0 0 0-.035-.763 2.22 2.22 0 0 0-.287-.756c-.06-.098-.079-.184-.056-.259a.296.296 0 0 1 .175-.175l.77-.308zm2.128 0a3.228 3.228 0 0 1 .42 2.142 3.224 3.224 0 0 1-.35 1.036 3.121 3.121 0 0 1-.707.882l-.378-.245c-.07-.042-.102-.096-.098-.161a.315.315 0 0 1 .07-.168 2.04 2.04 0 0 0 .308-.539c.089-.215.145-.443.168-.686a2.467 2.467 0 0 0-.035-.763 2.22 2.22 0 0 0-.287-.756c-.06-.098-.079-.184-.056-.259a.296.296 0 0 1 .175-.175l.77-.308zm6.608 4.872a.54.54 0 0 1-.112.119.25.25 0 0 1-.154.042.426.426 0 0 1-.231-.084 3.136 3.136 0 0 0-.315-.196 2.22 2.22 0 0 0-.455-.189 2.04 2.04 0 0 0-.658-.091c-.35 0-.658.063-.924.189-.266.121-.49.299-.672.532a2.527 2.527 0 0 0-.406.847 4.333 4.333 0 0 0-.133 1.113c0 .429.049.812.147 1.148.098.331.236.611.413.84.182.224.399.397.651.518.257.117.544.175.861.175.304 0 .553-.035.749-.105a2.21 2.21 0 0 0 .483-.245 4.19 4.19 0 0 0 .322-.238.406.406 0 0 1 .259-.112c.103 0 .182.04.238.119l.35.455a2.483 2.483 0 0 1-.525.49c-.196.135-.408.25-.637.343a3.48 3.48 0 0 1-.707.196 4.502 4.502 0 0 1-.756.063c-.443 0-.856-.082-1.239-.245a2.841 2.841 0 0 1-.987-.707 3.371 3.371 0 0 1-.658-1.148 4.68 4.68 0 0 1-.238-1.547c0-.527.073-1.015.217-1.463.15-.448.364-.833.644-1.155a2.953 2.953 0 0 1 1.043-.763c.416-.182.892-.273 1.428-.273.5 0 .938.082 1.316.245.383.159.721.385 1.015.679l-.329.448zm4.617-1.372c.518 0 .985.086 1.4.259.415.173.77.418 1.064.735.294.317.518.702.672 1.155.159.448.238.95.238 1.505a4.5 4.5 0 0 1-.238 1.512 3.187 3.187 0 0 1-.672 1.148 3.012 3.012 0 0 1-1.064.735 3.703 3.703 0 0 1-1.4.252c-.523 0-.994-.084-1.414-.252a3.012 3.012 0 0 1-1.064-.735c-.294-.317-.52-.7-.679-1.148a4.634 4.634 0 0 1-.231-1.512c0-.555.077-1.057.231-1.505.159-.453.385-.838.679-1.155a3.012 3.012 0 0 1 1.064-.735 3.68 3.68 0 0 1 1.414-.259zm0 6.328c.7 0 1.223-.233 1.568-.7.345-.471.518-1.127.518-1.967 0-.845-.173-1.503-.518-1.974-.345-.471-.868-.707-1.568-.707-.355 0-.665.061-.931.182a1.752 1.752 0 0 0-.658.525 2.413 2.413 0 0 0-.392.847 4.596 4.596 0 0 0-.126 1.127c0 .84.173 1.496.518 1.967.35.467.88.7 1.589.7zm10.785-6.216V355h-.742c-.177 0-.289-.086-.336-.259l-.098-.763a3.95 3.95 0 0 1-1.036.826 2.741 2.741 0 0 1-1.316.308 2.63 2.63 0 0 1-1.029-.189 2.086 2.086 0 0 1-.742-.546 2.36 2.36 0 0 1-.455-.847 3.865 3.865 0 0 1-.147-1.099v-4.522h1.246v4.522c0 .537.122.952.364 1.246.248.294.623.441 1.127.441.369 0 .712-.086 1.029-.259a3.3 3.3 0 0 0 .889-.728v-5.222h1.246zm3.152 1.029c.154-.173.317-.329.49-.469a3.16 3.16 0 0 1 .546-.357 2.849 2.849 0 0 1 1.323-.315c.387 0 .728.065 1.022.196.299.126.546.308.742.546.201.233.352.516.455.847.103.331.154.698.154 1.099V355h-1.253v-4.515c0-.537-.124-.952-.371-1.246-.243-.299-.614-.448-1.113-.448-.369 0-.714.089-1.036.266a3.436 3.436 0 0 0-.882.721V355h-1.253v-7.091h.749c.177 0 .287.086.329.259l.098.77zm8.712 6.174c-.56 0-.992-.156-1.295-.469-.299-.313-.448-.763-.448-1.351v-4.34h-.854a.287.287 0 0 1-.189-.063c-.052-.047-.077-.117-.077-.21v-.497l1.162-.147.287-2.191a.277.277 0 0 1 .287-.238h.63v2.443h2.051v.903H203.8v4.256c0 .299.072.52.217.665a.755.755 0 0 0 .56.217 1.018 1.018 0 0 0 .588-.168c.07-.042.128-.079.175-.112.051-.037.095-.056.133-.056.065 0 .123.04.175.119l.364.595a2.374 2.374 0 0 1-.777.476 2.69 2.69 0 0 1-.938.168zm3.701-10.815a3.228 3.228 0 0 1 .42 2.142 3.224 3.224 0 0 1-.35 1.036 3.121 3.121 0 0 1-.707.882l-.378-.245c-.07-.042-.102-.096-.098-.161a.315.315 0 0 1 .07-.168 2.04 2.04 0 0 0 .308-.539c.089-.215.145-.443.168-.686a2.467 2.467 0 0 0-.035-.763 2.22 2.22 0 0 0-.287-.756c-.06-.098-.079-.184-.056-.259a.296.296 0 0 1 .175-.175l.77-.308zm2.128 0a3.228 3.228 0 0 1 .42 2.142 3.224 3.224 0 0 1-.35 1.036 3.121 3.121 0 0 1-.707.882l-.378-.245c-.07-.042-.102-.096-.098-.161a.315.315 0 0 1 .07-.168 2.04 2.04 0 0 0 .308-.539c.089-.215.145-.443.168-.686a2.467 2.467 0 0 0-.035-.763 2.22 2.22 0 0 0-.287-.756c-.06-.098-.079-.184-.056-.259a.296.296 0 0 1 .175-.175l.77-.308zm2.013 9.933c0-.121.021-.236.063-.343a.947.947 0 0 1 .182-.28.898.898 0 0 1 .623-.259c.121 0 .235.023.343.07.107.047.2.11.28.189a.91.91 0 0 1 .189.28.878.878 0 0 1 0 .693.927.927 0 0 1-.189.273.821.821 0 0 1-.28.182.849.849 0 0 1-.343.07.842.842 0 0 1-.343-.07.803.803 0 0 1-.28-.182.965.965 0 0 1-.182-.273.95.95 0 0 1-.063-.35zm0-5.25c0-.121.021-.236.063-.343a.947.947 0 0 1 .182-.28.898.898 0 0 1 .623-.259c.121 0 .235.023.343.07.107.047.2.11.28.189a.91.91 0 0 1 .189.28.878.878 0 0 1 0 .693.922.922 0 0 1-.469.462.937.937 0 0 1-.343.063.929.929 0 0 1-.343-.063.898.898 0 0 1-.28-.189.965.965 0 0 1-.182-.273.95.95 0 0 1-.063-.35zm4.473-4.683a3.228 3.228 0 0 1 .42 2.142 3.248 3.248 0 0 1-.35 1.036 3.139 3.139 0 0 1-.707.882l-.378-.245c-.07-.042-.103-.096-.098-.161a.3.3 0 0 1 .07-.168c.121-.149.224-.329.308-.539.088-.215.144-.443.168-.686a2.498 2.498 0 0 0-.035-.763 2.263 2.263 0 0 0-.287-.756c-.061-.098-.08-.184-.056-.259a.294.294 0 0 1 .175-.175l.77-.308zm2.128 0a3.228 3.228 0 0 1 .42 2.142 3.248 3.248 0 0 1-.35 1.036 3.139 3.139 0 0 1-.707.882l-.378-.245c-.07-.042-.103-.096-.098-.161a.3.3 0 0 1 .07-.168c.121-.149.224-.329.308-.539.088-.215.144-.443.168-.686a2.498 2.498 0 0 0-.035-.763 2.263 2.263 0 0 0-.287-.756c-.061-.098-.08-.184-.056-.259a.294.294 0 0 1 .175-.175l.77-.308zm8.263 9.751V355h-5.376v-.952h2.149v-6.839c0-.205.007-.413.021-.623l-1.785 1.533a.442.442 0 0 1-.182.098.525.525 0 0 1-.168 0 .434.434 0 0 1-.147-.056.361.361 0 0 1-.098-.091l-.392-.539 2.989-2.583h1.015v9.1h1.974zm2.843-9.751a3.228 3.228 0 0 1 .42 2.142 3.248 3.248 0 0 1-.35 1.036 3.121 3.121 0 0 1-.707.882l-.378-.245c-.07-.042-.103-.096-.098-.161a.307.307 0 0 1 .07-.168c.121-.149.224-.329.308-.539.089-.215.145-.443.168-.686a2.498 2.498 0 0 0-.035-.763 2.242 2.242 0 0 0-.287-.756c-.061-.098-.079-.184-.056-.259a.294.294 0 0 1 .175-.175l.77-.308zm2.128 0a3.228 3.228 0 0 1 .42 2.142 3.248 3.248 0 0 1-.35 1.036 3.121 3.121 0 0 1-.707.882l-.378-.245c-.07-.042-.103-.096-.098-.161a.307.307 0 0 1 .07-.168c.121-.149.224-.329.308-.539.089-.215.145-.443.168-.686a2.498 2.498 0 0 0-.035-.763 2.242 2.242 0 0 0-.287-.756c-.061-.098-.079-.184-.056-.259a.294.294 0 0 1 .175-.175l.77-.308zm4.875 6.72c-.308 0-.543.096-.707.287-.163.187-.245.427-.245.721 0 .233.019.464.056.693.038.229.077.46.119.693.042.229.082.46.119.693.038.229.056.464.056.707 0 .322-.049.618-.147.889a1.803 1.803 0 0 1-.434.7 1.914 1.914 0 0 1-.721.455 2.702 2.702 0 0 1-.994.168h-.378v-.56c0-.093.033-.161.098-.203a.37.37 0 0 1 .182-.063h.14c.364 0 .649-.117.854-.35.206-.233.308-.553.308-.959 0-.261-.016-.513-.049-.756-.032-.243-.07-.478-.112-.707a19.92 19.92 0 0 1-.112-.693 5.002 5.002 0 0 1-.049-.693 1.482 1.482 0 0 1 .294-.896c.098-.121.21-.224.336-.308.131-.084.273-.147.427-.189a1.532 1.532 0 0 1-.427-.189 1.672 1.672 0 0 1-.336-.315 1.44 1.44 0 0 1-.294-.896c0-.233.017-.464.049-.693.033-.229.07-.457.112-.686.042-.233.08-.471.112-.714.033-.243.049-.495.049-.756 0-.401-.102-.719-.308-.952-.205-.238-.49-.357-.854-.357h-.14a.37.37 0 0 1-.182-.063c-.065-.042-.098-.11-.098-.203v-.553h.378c.378 0 .71.054.994.161.29.107.53.259.721.455.196.196.341.429.434.7.098.271.147.567.147.889 0 .243-.018.481-.056.714-.037.233-.077.464-.119.693a41 41 0 0 0-.119.686c-.037.229-.056.46-.056.693 0 .299.082.541.245.728.164.187.399.28.707.28v.749z" fill="#8E7CBF"/><path opacity=".5" d="M90.332 380.088c-.364 0-.649.119-.854.357-.205.233-.308.551-.308.952 0 .261.016.513.049.756s.07.481.112.714c.042.229.08.457.112.686.033.229.049.46.049.693 0 .173-.026.336-.077.49a1.327 1.327 0 0 1-.224.406 1.454 1.454 0 0 1-.336.315 1.43 1.43 0 0 1-.42.189 1.43 1.43 0 0 1 .98.91c.051.149.077.31.077.483 0 .233-.016.464-.049.693-.033.229-.07.46-.112.693-.042.229-.08.464-.112.707a5.666 5.666 0 0 0-.049.756c0 .406.103.726.308.959.205.233.49.35.854.35h.14c.056 0 .117.021.182.063.065.042.098.11.098.203v.56h-.378a2.76 2.76 0 0 1-1.001-.168 1.998 1.998 0 0 1-.721-.455 1.925 1.925 0 0 1-.434-.7 2.713 2.713 0 0 1-.14-.889c0-.243.019-.478.056-.707.037-.233.077-.464.119-.693.042-.233.082-.464.119-.693.037-.229.056-.46.056-.693 0-.294-.082-.534-.245-.721-.163-.191-.399-.287-.707-.287v-.749c.308 0 .544-.093.707-.28.163-.187.245-.429.245-.728 0-.233-.019-.464-.056-.693a34.894 34.894 0 0 0-.119-.686c-.042-.229-.082-.46-.119-.693a4.51 4.51 0 0 1-.056-.714c0-.322.047-.618.14-.889a1.93 1.93 0 0 1 .434-.7c.196-.196.436-.348.721-.455a2.88 2.88 0 0 1 1.001-.161h.378v.553c0 .093-.033.161-.098.203a.342.342 0 0 1-.182.063h-.14zm2.069 3.262a3.235 3.235 0 0 1-.4-1.043 3.17 3.17 0 0 1 .329-2.121 3.23 3.23 0 0 1 .708-.889l.378.238c.07.047.1.105.09.175a.232.232 0 0 1-.062.154 2.17 2.17 0 0 0-.315.546 2.558 2.558 0 0 0-.161.693c-.023.243-.012.495.035.756s.142.513.287.756c.06.098.077.187.049.266-.023.075-.08.131-.168.168l-.77.301zm2.128 0a3.235 3.235 0 0 1-.4-1.043 3.17 3.17 0 0 1 .329-2.121 3.23 3.23 0 0 1 .708-.889l.378.238c.07.047.1.105.09.175a.232.232 0 0 1-.062.154 2.17 2.17 0 0 0-.315.546 2.558 2.558 0 0 0-.161.693c-.023.243-.012.495.035.756s.142.513.287.756c.06.098.077.187.049.266-.023.075-.08.131-.168.168l-.77.301zm4.098-.441V390h-1.246v-7.091h1.246zm.266-2.226a.784.784 0 0 1-.077.343.945.945 0 0 1-.196.28.888.888 0 0 1-.287.189.845.845 0 0 1-.343.07.846.846 0 0 1-.616-.259 1.017 1.017 0 0 1-.189-.28.852.852 0 0 1-.07-.343c0-.121.024-.236.07-.343a.876.876 0 0 1 .19-.287.872.872 0 0 1 .272-.196.846.846 0 0 1 .343-.07c.122 0 .236.023.343.07a.83.83 0 0 1 .287.196c.084.079.15.175.196.287a.784.784 0 0 1 .077.343zm2.958 3.255c.154-.173.317-.329.49-.469.172-.14.354-.259.546-.357a2.849 2.849 0 0 1 1.323-.315c.387 0 .728.065 1.022.196.298.126.546.308.742.546.2.233.352.516.455.847.102.331.154.698.154 1.099V390h-1.253v-4.515c0-.537-.124-.952-.371-1.246-.243-.299-.614-.448-1.113-.448-.369 0-.714.089-1.036.266a3.403 3.403 0 0 0-.882.721V390h-1.253v-7.091h.749c.177 0 .287.086.329.259l.098.77zm6.983 6.062v-6.027l-.784-.091a.68.68 0 0 1-.245-.105.268.268 0 0 1-.091-.217v-.511h1.12v-.686c0-.406.056-.765.168-1.078.116-.317.28-.583.49-.798.214-.219.471-.385.77-.497a2.849 2.849 0 0 1 1.008-.168c.317 0 .609.047.875.14l-.028.623c-.01.112-.073.173-.189.182a5.946 5.946 0 0 1-.455.014c-.215 0-.411.028-.588.084a1.105 1.105 0 0 0-.448.273 1.27 1.27 0 0 0-.294.497c-.066.205-.098.46-.098.763v.651h2.044v.903h-2.002V390h-1.253zm7.203-7.203c.518 0 .984.086 1.4.259.415.173.77.418 1.064.735.294.317.518.702.672 1.155.158.448.238.95.238 1.505 0 .56-.08 1.064-.238 1.512a3.187 3.187 0 0 1-.672 1.148 3.012 3.012 0 0 1-1.064.735 3.707 3.707 0 0 1-1.4.252c-.523 0-.994-.084-1.414-.252a3.003 3.003 0 0 1-1.064-.735 3.26 3.26 0 0 1-.679-1.148 4.634 4.634 0 0 1-.231-1.512c0-.555.077-1.057.231-1.505.158-.453.385-.838.679-1.155a3.003 3.003 0 0 1 1.064-.735 3.68 3.68 0 0 1 1.414-.259zm0 6.328c.7 0 1.222-.233 1.568-.7.345-.471.518-1.127.518-1.967 0-.845-.173-1.503-.518-1.974-.346-.471-.868-.707-1.568-.707-.355 0-.665.061-.931.182a1.744 1.744 0 0 0-.658.525 2.396 2.396 0 0 0-.392.847 4.596 4.596 0 0 0-.126 1.127c0 .84.172 1.496.518 1.967.35.467.879.7 1.589.7zm5.514-9.828a3.228 3.228 0 0 1 .42 2.142 3.248 3.248 0 0 1-.35 1.036 3.121 3.121 0 0 1-.707.882l-.378-.245c-.07-.042-.103-.096-.098-.161a.307.307 0 0 1 .07-.168c.121-.149.224-.329.308-.539.089-.215.145-.443.168-.686a2.498 2.498 0 0 0-.035-.763 2.242 2.242 0 0 0-.287-.756c-.061-.098-.079-.184-.056-.259a.294.294 0 0 1 .175-.175l.77-.308zm2.128 0a3.228 3.228 0 0 1 .42 2.142 3.248 3.248 0 0 1-.35 1.036 3.121 3.121 0 0 1-.707.882l-.378-.245c-.07-.042-.103-.096-.098-.161a.307.307 0 0 1 .07-.168c.121-.149.224-.329.308-.539.089-.215.145-.443.168-.686a2.498 2.498 0 0 0-.035-.763 2.242 2.242 0 0 0-.287-.756c-.061-.098-.079-.184-.056-.259a.294.294 0 0 1 .175-.175l.77-.308zm2.012 9.933c0-.121.021-.236.063-.343a.988.988 0 0 1 .182-.28.922.922 0 0 1 .28-.189.849.849 0 0 1 .343-.07.898.898 0 0 1 .812.539c.047.107.07.222.07.343a.862.862 0 0 1-.259.623.803.803 0 0 1-.28.182.842.842 0 0 1-.343.07.849.849 0 0 1-.343-.07.821.821 0 0 1-.28-.182 1.01 1.01 0 0 1-.182-.273.95.95 0 0 1-.063-.35zm0-5.25c0-.121.021-.236.063-.343a.988.988 0 0 1 .182-.28.922.922 0 0 1 .28-.189.849.849 0 0 1 .343-.07.898.898 0 0 1 .812.539c.047.107.07.222.07.343a.862.862 0 0 1-.259.623.898.898 0 0 1-.28.189.929.929 0 0 1-.343.063.937.937 0 0 1-.343-.063.922.922 0 0 1-.28-.189 1.01 1.01 0 0 1-.182-.273.95.95 0 0 1-.063-.35zm4.473-4.683a3.228 3.228 0 0 1 .42 2.142 3.224 3.224 0 0 1-.35 1.036 3.121 3.121 0 0 1-.707.882l-.378-.245c-.07-.042-.102-.096-.098-.161a.315.315 0 0 1 .07-.168 2.04 2.04 0 0 0 .308-.539c.089-.215.145-.443.168-.686a2.467 2.467 0 0 0-.035-.763 2.22 2.22 0 0 0-.287-.756c-.06-.098-.079-.184-.056-.259a.296.296 0 0 1 .175-.175l.77-.308zm2.128 0a3.228 3.228 0 0 1 .42 2.142 3.224 3.224 0 0 1-.35 1.036 3.121 3.121 0 0 1-.707.882l-.378-.245c-.07-.042-.102-.096-.098-.161a.315.315 0 0 1 .07-.168 2.04 2.04 0 0 0 .308-.539c.089-.215.145-.443.168-.686a2.467 2.467 0 0 0-.035-.763 2.22 2.22 0 0 0-.287-.756c-.06-.098-.079-.184-.056-.259a.296.296 0 0 1 .175-.175l.77-.308zm6.609 4.872a.591.591 0 0 1-.112.119.254.254 0 0 1-.154.042.426.426 0 0 1-.231-.084 3.136 3.136 0 0 0-.315-.196 2.245 2.245 0 0 0-.455-.189 2.048 2.048 0 0 0-.658-.091c-.35 0-.658.063-.924.189-.266.121-.49.299-.672.532a2.49 2.49 0 0 0-.406.847 4.289 4.289 0 0 0-.133 1.113c0 .429.049.812.147 1.148.098.331.235.611.413.84.182.224.399.397.651.518.256.117.543.175.861.175.303 0 .553-.035.749-.105a2.21 2.21 0 0 0 .483-.245c.13-.089.238-.168.322-.238a.404.404 0 0 1 .259-.112c.102 0 .182.04.238.119l.35.455a2.483 2.483 0 0 1-.525.49c-.196.135-.409.25-.637.343-.224.089-.46.154-.707.196a4.52 4.52 0 0 1-.756.063c-.444 0-.857-.082-1.239-.245a2.841 2.841 0 0 1-.987-.707c-.28-.313-.5-.695-.658-1.148-.159-.453-.238-.968-.238-1.547 0-.527.072-1.015.217-1.463.149-.448.364-.833.644-1.155a2.935 2.935 0 0 1 1.043-.763c.415-.182.891-.273 1.428-.273.499 0 .938.082 1.316.245.382.159.721.385 1.015.679l-.329.448zm3.003-.315a3.746 3.746 0 0 1 1.008-.77 2.73 2.73 0 0 1 1.274-.287c.387 0 .728.065 1.022.196.299.126.546.308.742.546.201.233.352.516.455.847.103.331.154.698.154 1.099V390h-1.253v-4.515c0-.537-.124-.952-.371-1.246-.243-.299-.614-.448-1.113-.448-.369 0-.714.089-1.036.266a3.436 3.436 0 0 0-.882.721V390h-1.253v-10.311h1.253v4.165zm10.397 2.954c-.574.019-1.064.065-1.47.14-.402.07-.731.163-.987.28-.252.117-.437.254-.553.413a.902.902 0 0 0-.168.532c0 .187.03.348.091.483.06.135.142.247.245.336.107.084.231.147.371.189.144.037.298.056.462.056.219 0 .42-.021.602-.063.182-.047.352-.112.511-.196.163-.084.317-.184.462-.301.149-.117.294-.25.434-.399v-1.47zm-4.025-2.898c.392-.378.814-.66 1.267-.847.452-.187.954-.28 1.505-.28.396 0 .749.065 1.057.196.308.131.567.313.777.546.21.233.368.516.476.847.107.331.161.695.161 1.092V390h-.553a.573.573 0 0 1-.28-.056c-.066-.042-.117-.121-.154-.238l-.14-.672a7.558 7.558 0 0 1-.546.462 3.405 3.405 0 0 1-.56.336 3.016 3.016 0 0 1-.63.203c-.22.051-.465.077-.735.077-.276 0-.535-.037-.777-.112a1.869 1.869 0 0 1-.637-.35 1.685 1.685 0 0 1-.427-.581 2.103 2.103 0 0 1-.154-.84c0-.28.077-.548.231-.805.154-.261.403-.492.749-.693.345-.201.795-.364 1.351-.49.555-.131 1.236-.205 2.044-.224v-.553c0-.551-.119-.966-.357-1.246-.238-.285-.586-.427-1.043-.427-.308 0-.567.04-.777.119a2.758 2.758 0 0 0-.539.259c-.15.093-.28.18-.392.259a.561.561 0 0 1-.322.112.37.37 0 0 1-.217-.063.667.667 0 0 1-.154-.168l-.224-.399zm7.141 6.09v-7.091h.749c.177 0 .287.086.329.259l.091.728a3.59 3.59 0 0 1 .882-.791 2.085 2.085 0 0 1 1.134-.308c.476 0 .861.133 1.155.399.298.266.513.625.644 1.078a2.36 2.36 0 0 1 .392-.665 2.29 2.29 0 0 1 1.183-.728c.228-.056.459-.084.693-.084.373 0 .704.061.994.182.294.117.541.289.742.518.205.229.361.511.469.847.107.331.161.712.161 1.141V390h-1.253v-4.515c0-.555-.122-.975-.364-1.26-.243-.289-.593-.434-1.05-.434-.206 0-.402.037-.588.112-.182.07-.343.175-.483.315-.14.14-.252.317-.336.532a2.06 2.06 0 0 0-.119.735V390h-1.253v-4.515c0-.569-.115-.994-.343-1.274-.229-.28-.563-.42-1.001-.42-.308 0-.593.084-.854.252a2.75 2.75 0 0 0-.721.672V390h-1.253zm12.764-1.708c.229.308.479.525.749.651.271.126.574.189.91.189.663 0 1.172-.236 1.526-.707.355-.471.532-1.143.532-2.016 0-.462-.042-.859-.126-1.19a2.243 2.243 0 0 0-.35-.812 1.364 1.364 0 0 0-.567-.469 1.885 1.885 0 0 0-.763-.147c-.406 0-.763.093-1.071.28a3.11 3.11 0 0 0-.84.791v3.43zm-.063-4.284a3.673 3.673 0 0 1 1.036-.889 2.66 2.66 0 0 1 1.344-.336c.411 0 .782.079 1.113.238.332.154.614.385.847.693.234.303.413.681.539 1.134.126.453.189.973.189 1.561 0 .523-.07 1.01-.21 1.463-.14.448-.343.838-.609 1.169a2.842 2.842 0 0 1-.966.777 2.85 2.85 0 0 1-1.281.28c-.434 0-.807-.072-1.12-.217a2.685 2.685 0 0 1-.819-.616v3.136h-1.253v-9.492h.749c.178 0 .287.086.329.259l.112.84zm7.974-1.099V390h-1.246v-7.091h1.246zm.266-2.226a.79.79 0 0 1-.077.343.953.953 0 0 1-.196.28.885.885 0 0 1-.287.189.845.845 0 0 1-.343.07.845.845 0 0 1-.616-.259 1.03 1.03 0 0 1-.189-.28.845.845 0 0 1-.07-.343c0-.121.023-.236.07-.343a.885.885 0 0 1 .189-.287.863.863 0 0 1 .273-.196.845.845 0 0 1 .343-.07c.121 0 .236.023.343.07a.828.828 0 0 1 .287.196.828.828 0 0 1 .196.287.79.79 0 0 1 .077.343zm4.77 2.114c.518 0 .985.086 1.4.259.416.173.77.418 1.064.735.294.317.518.702.672 1.155.159.448.238.95.238 1.505a4.5 4.5 0 0 1-.238 1.512 3.187 3.187 0 0 1-.672 1.148 3.003 3.003 0 0 1-1.064.735 3.703 3.703 0 0 1-1.4.252 3.78 3.78 0 0 1-1.414-.252 3.012 3.012 0 0 1-1.064-.735c-.294-.317-.52-.7-.679-1.148a4.634 4.634 0 0 1-.231-1.512c0-.555.077-1.057.231-1.505.159-.453.385-.838.679-1.155a3.012 3.012 0 0 1 1.064-.735c.42-.173.892-.259 1.414-.259zm0 6.328c.7 0 1.223-.233 1.568-.7.346-.471.518-1.127.518-1.967 0-.845-.172-1.503-.518-1.974-.345-.471-.868-.707-1.568-.707-.354 0-.665.061-.931.182a1.76 1.76 0 0 0-.658.525 2.43 2.43 0 0 0-.392.847 4.596 4.596 0 0 0-.126 1.127c0 .84.173 1.496.518 1.967.35.467.88.7 1.589.7zm6.131-5.187c.154-.173.317-.329.49-.469.172-.14.354-.259.546-.357a2.849 2.849 0 0 1 1.323-.315c.387 0 .728.065 1.022.196.298.126.546.308.742.546.2.233.352.516.455.847.102.331.154.698.154 1.099V390h-1.253v-4.515c0-.537-.124-.952-.371-1.246-.243-.299-.614-.448-1.113-.448-.369 0-.714.089-1.036.266a3.403 3.403 0 0 0-.882.721V390h-1.253v-7.091h.749c.177 0 .287.086.329.259l.098.77zm7.273-4.641a3.228 3.228 0 0 1 .42 2.142 3.248 3.248 0 0 1-.35 1.036 3.139 3.139 0 0 1-.707.882l-.378-.245c-.07-.042-.103-.096-.098-.161a.3.3 0 0 1 .07-.168c.121-.149.224-.329.308-.539.088-.215.144-.443.168-.686a2.498 2.498 0 0 0-.035-.763 2.263 2.263 0 0 0-.287-.756c-.061-.098-.08-.184-.056-.259a.294.294 0 0 1 .175-.175l.77-.308zm2.128 0a3.228 3.228 0 0 1 .42 2.142 3.248 3.248 0 0 1-.35 1.036 3.139 3.139 0 0 1-.707.882l-.378-.245c-.07-.042-.103-.096-.098-.161a.3.3 0 0 1 .07-.168c.121-.149.224-.329.308-.539.088-.215.144-.443.168-.686a2.498 2.498 0 0 0-.035-.763 2.263 2.263 0 0 0-.287-.756c-.061-.098-.08-.184-.056-.259a.294.294 0 0 1 .175-.175l.77-.308zm.557 12.397a.312.312 0 0 1-.077-.091.234.234 0 0 1-.021-.105c0-.033.009-.065.028-.098a.673.673 0 0 1 .077-.091c.046-.051.105-.119.175-.203a2.48 2.48 0 0 0 .224-.301c.074-.112.142-.238.203-.378.065-.135.112-.28.14-.434a.149.149 0 0 1-.049.007h-.042a.791.791 0 0 1-.595-.238.884.884 0 0 1-.224-.623c0-.219.074-.406.224-.56.154-.154.357-.231.609-.231.14 0 .263.026.371.077a.713.713 0 0 1 .266.217c.074.089.13.194.168.315.037.117.056.245.056.385 0 .21-.031.429-.091.658a2.95 2.95 0 0 1-.259.665 3.927 3.927 0 0 1-.973 1.232l-.21-.203zm2.619-12.397a3.228 3.228 0 0 1 .42 2.142 3.224 3.224 0 0 1-.35 1.036 3.121 3.121 0 0 1-.707.882l-.378-.245c-.07-.042-.102-.096-.098-.161a.315.315 0 0 1 .07-.168 2.04 2.04 0 0 0 .308-.539c.089-.215.145-.443.168-.686a2.467 2.467 0 0 0-.035-.763 2.22 2.22 0 0 0-.287-.756c-.06-.098-.079-.184-.056-.259a.296.296 0 0 1 .175-.175l.77-.308zm2.128 0a3.228 3.228 0 0 1 .42 2.142 3.224 3.224 0 0 1-.35 1.036 3.121 3.121 0 0 1-.707.882l-.378-.245c-.07-.042-.102-.096-.098-.161a.315.315 0 0 1 .07-.168 2.04 2.04 0 0 0 .308-.539c.089-.215.145-.443.168-.686a2.467 2.467 0 0 0-.035-.763 2.22 2.22 0 0 0-.287-.756c-.06-.098-.079-.184-.056-.259a.296.296 0 0 1 .175-.175l.77-.308zm6.198 5.299c-.234-.313-.486-.53-.756-.651a2.132 2.132 0 0 0-.91-.189c-.658 0-1.165.236-1.519.707-.355.471-.532 1.143-.532 2.016 0 .462.039.859.119 1.19.079.327.196.597.35.812.154.21.343.364.567.462.224.098.478.147.763.147.41 0 .767-.093 1.071-.28.308-.187.59-.45.847-.791v-3.423zm1.246-4.907V390h-.742c-.178 0-.29-.086-.336-.259l-.112-.861a3.876 3.876 0 0 1-1.036.882c-.388.224-.836.336-1.344.336-.406 0-.775-.077-1.106-.231a2.325 2.325 0 0 1-.847-.693c-.234-.303-.413-.681-.539-1.134a5.84 5.84 0 0 1-.189-1.561c0-.523.07-1.008.21-1.456.14-.453.34-.845.602-1.176.261-.331.581-.59.959-.777a2.842 2.842 0 0 1 1.288-.287c.434 0 .805.075 1.113.224.312.145.59.348.833.609v-3.927h1.246zm5.811 7.119c-.574.019-1.064.065-1.47.14-.402.07-.731.163-.987.28-.252.117-.437.254-.553.413a.902.902 0 0 0-.168.532c0 .187.03.348.091.483.06.135.142.247.245.336.107.084.231.147.371.189.144.037.298.056.462.056.219 0 .42-.021.602-.063.182-.047.352-.112.511-.196.163-.084.317-.184.462-.301.149-.117.294-.25.434-.399v-1.47zm-4.025-2.898c.392-.378.814-.66 1.267-.847.452-.187.954-.28 1.505-.28.396 0 .749.065 1.057.196.308.131.567.313.777.546.21.233.368.516.476.847.107.331.161.695.161 1.092V390h-.553a.573.573 0 0 1-.28-.056c-.066-.042-.117-.121-.154-.238l-.14-.672a7.558 7.558 0 0 1-.546.462 3.405 3.405 0 0 1-.56.336 3.016 3.016 0 0 1-.63.203c-.22.051-.465.077-.735.077-.276 0-.535-.037-.777-.112a1.869 1.869 0 0 1-.637-.35 1.685 1.685 0 0 1-.427-.581 2.103 2.103 0 0 1-.154-.84c0-.28.077-.548.231-.805.154-.261.403-.492.749-.693.345-.201.795-.364 1.351-.49.555-.131 1.236-.205 2.044-.224v-.553c0-.551-.119-.966-.357-1.246-.238-.285-.586-.427-1.043-.427-.308 0-.567.04-.777.119a2.758 2.758 0 0 0-.539.259c-.15.093-.28.18-.392.259a.561.561 0 0 1-.322.112.37.37 0 0 1-.217-.063.667.667 0 0 1-.154-.168l-.224-.399zm9.222 6.202c-.56 0-.992-.156-1.295-.469-.299-.313-.448-.763-.448-1.351v-4.34h-.854a.287.287 0 0 1-.189-.063c-.051-.047-.077-.117-.077-.21v-.497l1.162-.147.287-2.191a.279.279 0 0 1 .287-.238h.63v2.443h2.051v.903h-2.051v4.256c0 .299.072.52.217.665a.757.757 0 0 0 .56.217c.131 0 .243-.016.336-.049.098-.037.182-.077.252-.119.07-.042.128-.079.175-.112.051-.037.096-.056.133-.056.065 0 .124.04.175.119l.364.595a2.374 2.374 0 0 1-.777.476 2.686 2.686 0 0 1-.938.168zm6.684-3.304c-.574.019-1.064.065-1.47.14-.402.07-.731.163-.987.28-.252.117-.437.254-.553.413a.902.902 0 0 0-.168.532c0 .187.03.348.091.483.06.135.142.247.245.336.107.084.231.147.371.189.144.037.298.056.462.056.219 0 .42-.021.602-.063.182-.047.352-.112.511-.196.163-.084.317-.184.462-.301.149-.117.294-.25.434-.399v-1.47zm-4.025-2.898c.392-.378.814-.66 1.267-.847.452-.187.954-.28 1.505-.28.396 0 .749.065 1.057.196.308.131.567.313.777.546.21.233.368.516.476.847.107.331.161.695.161 1.092V390h-.553a.573.573 0 0 1-.28-.056c-.066-.042-.117-.121-.154-.238l-.14-.672a7.558 7.558 0 0 1-.546.462 3.405 3.405 0 0 1-.56.336 3.016 3.016 0 0 1-.63.203c-.22.051-.465.077-.735.077-.276 0-.535-.037-.777-.112a1.869 1.869 0 0 1-.637-.35 1.685 1.685 0 0 1-.427-.581 2.103 2.103 0 0 1-.154-.84c0-.28.077-.548.231-.805.154-.261.403-.492.749-.693.345-.201.795-.364 1.351-.49.555-.131 1.236-.205 2.044-.224v-.553c0-.551-.119-.966-.357-1.246-.238-.285-.586-.427-1.043-.427-.308 0-.567.04-.777.119a2.758 2.758 0 0 0-.539.259c-.15.093-.28.18-.392.259a.561.561 0 0 1-.322.112.37.37 0 0 1-.217-.063.667.667 0 0 1-.154-.168l-.224-.399zm7.783-4.613a3.228 3.228 0 0 1 .42 2.142 3.248 3.248 0 0 1-.35 1.036 3.139 3.139 0 0 1-.707.882l-.378-.245c-.07-.042-.103-.096-.098-.161a.3.3 0 0 1 .07-.168c.121-.149.224-.329.308-.539.088-.215.144-.443.168-.686a2.498 2.498 0 0 0-.035-.763 2.263 2.263 0 0 0-.287-.756c-.061-.098-.08-.184-.056-.259a.294.294 0 0 1 .175-.175l.77-.308zm2.128 0a3.228 3.228 0 0 1 .42 2.142 3.248 3.248 0 0 1-.35 1.036 3.139 3.139 0 0 1-.707.882l-.378-.245c-.07-.042-.103-.096-.098-.161a.3.3 0 0 1 .07-.168c.121-.149.224-.329.308-.539.088-.215.144-.443.168-.686a2.498 2.498 0 0 0-.035-.763 2.263 2.263 0 0 0-.287-.756c-.061-.098-.08-.184-.056-.259a.294.294 0 0 1 .175-.175l.77-.308zm2.012 9.933c0-.121.021-.236.063-.343a.967.967 0 0 1 .182-.28.91.91 0 0 1 .28-.189.845.845 0 0 1 .343-.07c.121 0 .236.023.343.07a.91.91 0 0 1 .28.189.91.91 0 0 1 .189.28c.047.107.07.222.07.343a.862.862 0 0 1-.259.623.812.812 0 0 1-.28.182.845.845 0 0 1-.343.07.845.845 0 0 1-.343-.07.812.812 0 0 1-.462-.455.95.95 0 0 1-.063-.35zm0-5.25c0-.121.021-.236.063-.343a.967.967 0 0 1 .182-.28.91.91 0 0 1 .28-.189.845.845 0 0 1 .343-.07c.121 0 .236.023.343.07a.91.91 0 0 1 .28.189.91.91 0 0 1 .189.28c.047.107.07.222.07.343a.862.862 0 0 1-.259.623.91.91 0 0 1-.28.189.933.933 0 0 1-.343.063.933.933 0 0 1-.343-.063.91.91 0 0 1-.28-.189.987.987 0 0 1-.182-.273.95.95 0 0 1-.063-.35zm4.473-4.683a3.228 3.228 0 0 1 .42 2.142 3.248 3.248 0 0 1-.35 1.036 3.121 3.121 0 0 1-.707.882l-.378-.245c-.07-.042-.103-.096-.098-.161a.307.307 0 0 1 .07-.168c.121-.149.224-.329.308-.539.089-.215.145-.443.168-.686a2.498 2.498 0 0 0-.035-.763 2.242 2.242 0 0 0-.287-.756c-.061-.098-.079-.184-.056-.259a.294.294 0 0 1 .175-.175l.77-.308zm2.128 0a3.228 3.228 0 0 1 .42 2.142 3.248 3.248 0 0 1-.35 1.036 3.121 3.121 0 0 1-.707.882l-.378-.245c-.07-.042-.103-.096-.098-.161a.307.307 0 0 1 .07-.168c.121-.149.224-.329.308-.539.089-.215.145-.443.168-.686a2.498 2.498 0 0 0-.035-.763 2.242 2.242 0 0 0-.287-.756c-.061-.098-.079-.184-.056-.259a.294.294 0 0 1 .175-.175l.77-.308zm8.109 9.562V390h-5.691v-10.031h1.351v8.89h4.34zm6.641-5.95V390h-.742c-.177 0-.289-.086-.336-.259l-.098-.763a3.95 3.95 0 0 1-1.036.826 2.741 2.741 0 0 1-1.316.308 2.63 2.63 0 0 1-1.029-.189 2.086 2.086 0 0 1-.742-.546 2.36 2.36 0 0 1-.455-.847 3.865 3.865 0 0 1-.147-1.099v-4.522h1.246v4.522c0 .537.122.952.364 1.246.248.294.623.441 1.127.441.369 0 .712-.086 1.029-.259a3.3 3.3 0 0 0 .889-.728v-5.222h1.246zm7.8 7.091h-1.197a.369.369 0 0 1-.245-.077.859.859 0 0 1-.14-.182l-1.785-2.779a3.71 3.71 0 0 1-.063.196.576.576 0 0 1-.084.168l-1.652 2.415a1.496 1.496 0 0 1-.154.182.295.295 0 0 1-.217.077h-1.113l2.485-3.64-2.387-3.451h1.197c.103 0 .177.016.224.049a.455.455 0 0 1 .126.14l1.743 2.66a1.47 1.47 0 0 1 .175-.392l1.526-2.24a.626.626 0 0 1 .133-.154.278.278 0 0 1 .182-.063h1.148l-2.387 3.388 2.485 3.703zm2.01-10.703a3.228 3.228 0 0 1 .42 2.142 3.248 3.248 0 0 1-.35 1.036 3.139 3.139 0 0 1-.707.882l-.378-.245c-.07-.042-.103-.096-.098-.161a.3.3 0 0 1 .07-.168c.121-.149.224-.329.308-.539.088-.215.144-.443.168-.686a2.498 2.498 0 0 0-.035-.763 2.263 2.263 0 0 0-.287-.756c-.061-.098-.08-.184-.056-.259a.294.294 0 0 1 .175-.175l.77-.308zm2.128 0a3.228 3.228 0 0 1 .42 2.142 3.248 3.248 0 0 1-.35 1.036 3.139 3.139 0 0 1-.707.882l-.378-.245c-.07-.042-.103-.096-.098-.161a.3.3 0 0 1 .07-.168c.121-.149.224-.329.308-.539.088-.215.144-.443.168-.686a2.498 2.498 0 0 0-.035-.763 2.263 2.263 0 0 0-.287-.756c-.061-.098-.08-.184-.056-.259a.294.294 0 0 1 .175-.175l.77-.308zm4.875 6.72c-.308 0-.544.096-.707.287-.164.187-.245.427-.245.721 0 .233.018.464.056.693.037.229.077.46.119.693.042.229.081.46.119.693.037.229.056.464.056.707 0 .322-.049.618-.147.889a1.815 1.815 0 0 1-.434.7 1.93 1.93 0 0 1-.721.455 2.706 2.706 0 0 1-.994.168h-.378v-.56c0-.093.032-.161.098-.203a.367.367 0 0 1 .182-.063h.14c.364 0 .648-.117.854-.35.205-.233.308-.553.308-.959 0-.261-.017-.513-.049-.756-.033-.243-.07-.478-.112-.707a17.79 17.79 0 0 1-.112-.693 4.852 4.852 0 0 1-.049-.693c0-.173.025-.334.077-.483.051-.154.123-.292.217-.413.098-.121.21-.224.336-.308a1.52 1.52 0 0 1 .427-.189 1.52 1.52 0 0 1-.427-.189 1.672 1.672 0 0 1-.336-.315 1.391 1.391 0 0 1-.217-.406 1.52 1.52 0 0 1-.077-.49c0-.233.016-.464.049-.693.032-.229.07-.457.112-.686.042-.233.079-.471.112-.714.032-.243.049-.495.049-.756 0-.401-.103-.719-.308-.952-.206-.238-.49-.357-.854-.357h-.14a.367.367 0 0 1-.182-.063c-.066-.042-.098-.11-.098-.203v-.553h.378c.378 0 .709.054.994.161.289.107.529.259.721.455.196.196.34.429.434.7.098.271.147.567.147.889 0 .243-.019.481-.056.714-.038.233-.077.464-.119.693a32.8 32.8 0 0 0-.119.686c-.038.229-.056.46-.056.693 0 .299.081.541.245.728.163.187.399.28.707.28v.749z" fill="#8E7CBF"/><path opacity=".4" d="M90.332 415.088c-.364 0-.649.119-.854.357-.205.233-.308.551-.308.952 0 .261.016.513.049.756s.07.481.112.714c.042.229.08.457.112.686.033.229.049.46.049.693 0 .173-.026.336-.077.49a1.327 1.327 0 0 1-.224.406 1.454 1.454 0 0 1-.336.315 1.43 1.43 0 0 1-.42.189 1.43 1.43 0 0 1 .98.91c.051.149.077.31.077.483 0 .233-.016.464-.049.693-.033.229-.07.46-.112.693-.042.229-.08.464-.112.707a5.666 5.666 0 0 0-.049.756c0 .406.103.726.308.959.205.233.49.35.854.35h.14c.056 0 .117.021.182.063.065.042.098.11.098.203v.56h-.378a2.76 2.76 0 0 1-1.001-.168 1.998 1.998 0 0 1-.721-.455 1.925 1.925 0 0 1-.434-.7 2.713 2.713 0 0 1-.14-.889c0-.243.019-.478.056-.707.037-.233.077-.464.119-.693.042-.233.082-.464.119-.693.037-.229.056-.46.056-.693 0-.294-.082-.534-.245-.721-.163-.191-.399-.287-.707-.287v-.749c.308 0 .544-.093.707-.28.163-.187.245-.429.245-.728 0-.233-.019-.464-.056-.693a34.894 34.894 0 0 0-.119-.686c-.042-.229-.082-.46-.119-.693a4.51 4.51 0 0 1-.056-.714c0-.322.047-.618.14-.889a1.93 1.93 0 0 1 .434-.7c.196-.196.436-.348.721-.455a2.88 2.88 0 0 1 1.001-.161h.378v.553c0 .093-.033.161-.098.203a.342.342 0 0 1-.182.063h-.14zm2.069 3.262a3.235 3.235 0 0 1-.4-1.043 3.17 3.17 0 0 1 .329-2.121 3.23 3.23 0 0 1 .708-.889l.378.238c.07.047.1.105.09.175a.232.232 0 0 1-.062.154 2.17 2.17 0 0 0-.315.546 2.558 2.558 0 0 0-.161.693c-.023.243-.012.495.035.756s.142.513.287.756c.06.098.077.187.049.266-.023.075-.08.131-.168.168l-.77.301zm2.128 0a3.235 3.235 0 0 1-.4-1.043 3.17 3.17 0 0 1 .329-2.121 3.23 3.23 0 0 1 .708-.889l.378.238c.07.047.1.105.09.175a.232.232 0 0 1-.062.154 2.17 2.17 0 0 0-.315.546 2.558 2.558 0 0 0-.161.693c-.023.243-.012.495.035.756s.142.513.287.756c.06.098.077.187.049.266-.023.075-.08.131-.168.168l-.77.301zm4.098-.441V425h-1.246v-7.091h1.246zm.266-2.226a.784.784 0 0 1-.077.343.945.945 0 0 1-.196.28.888.888 0 0 1-.287.189.845.845 0 0 1-.343.07.846.846 0 0 1-.616-.259 1.017 1.017 0 0 1-.189-.28.852.852 0 0 1-.07-.343c0-.121.024-.236.07-.343a.876.876 0 0 1 .19-.287.872.872 0 0 1 .272-.196.846.846 0 0 1 .343-.07c.122 0 .236.023.343.07a.83.83 0 0 1 .287.196c.084.079.15.175.196.287a.784.784 0 0 1 .077.343zm2.958 3.255c.154-.173.317-.329.49-.469.172-.14.354-.259.546-.357a2.849 2.849 0 0 1 1.323-.315c.387 0 .728.065 1.022.196.298.126.546.308.742.546.2.233.352.516.455.847.102.331.154.698.154 1.099V425h-1.253v-4.515c0-.537-.124-.952-.371-1.246-.243-.299-.614-.448-1.113-.448-.369 0-.714.089-1.036.266a3.403 3.403 0 0 0-.882.721V425h-1.253v-7.091h.749c.177 0 .287.086.329.259l.098.77zm6.983 6.062v-6.027l-.784-.091a.68.68 0 0 1-.245-.105.268.268 0 0 1-.091-.217v-.511h1.12v-.686c0-.406.056-.765.168-1.078.116-.317.28-.583.49-.798.214-.219.471-.385.77-.497a2.849 2.849 0 0 1 1.008-.168c.317 0 .609.047.875.14l-.028.623c-.01.112-.073.173-.189.182a5.946 5.946 0 0 1-.455.014c-.215 0-.411.028-.588.084a1.105 1.105 0 0 0-.448.273 1.27 1.27 0 0 0-.294.497c-.066.205-.098.46-.098.763v.651h2.044v.903h-2.002V425h-1.253zm7.203-7.203c.518 0 .984.086 1.4.259.415.173.77.418 1.064.735.294.317.518.702.672 1.155.158.448.238.95.238 1.505 0 .56-.08 1.064-.238 1.512a3.187 3.187 0 0 1-.672 1.148 3.012 3.012 0 0 1-1.064.735 3.707 3.707 0 0 1-1.4.252c-.523 0-.994-.084-1.414-.252a3.003 3.003 0 0 1-1.064-.735 3.26 3.26 0 0 1-.679-1.148 4.634 4.634 0 0 1-.231-1.512c0-.555.077-1.057.231-1.505.158-.453.385-.838.679-1.155a3.003 3.003 0 0 1 1.064-.735 3.68 3.68 0 0 1 1.414-.259zm0 6.328c.7 0 1.222-.233 1.568-.7.345-.471.518-1.127.518-1.967 0-.845-.173-1.503-.518-1.974-.346-.471-.868-.707-1.568-.707-.355 0-.665.061-.931.182a1.744 1.744 0 0 0-.658.525 2.396 2.396 0 0 0-.392.847 4.596 4.596 0 0 0-.126 1.127c0 .84.172 1.496.518 1.967.35.467.879.7 1.589.7zm5.514-9.828a3.228 3.228 0 0 1 .42 2.142 3.248 3.248 0 0 1-.35 1.036 3.121 3.121 0 0 1-.707.882l-.378-.245c-.07-.042-.103-.096-.098-.161a.307.307 0 0 1 .07-.168c.121-.149.224-.329.308-.539.089-.215.145-.443.168-.686a2.498 2.498 0 0 0-.035-.763 2.242 2.242 0 0 0-.287-.756c-.061-.098-.079-.184-.056-.259a.294.294 0 0 1 .175-.175l.77-.308zm2.128 0a3.228 3.228 0 0 1 .42 2.142 3.248 3.248 0 0 1-.35 1.036 3.121 3.121 0 0 1-.707.882l-.378-.245c-.07-.042-.103-.096-.098-.161a.307.307 0 0 1 .07-.168c.121-.149.224-.329.308-.539.089-.215.145-.443.168-.686a2.498 2.498 0 0 0-.035-.763 2.242 2.242 0 0 0-.287-.756c-.061-.098-.079-.184-.056-.259a.294.294 0 0 1 .175-.175l.77-.308zm2.012 9.933c0-.121.021-.236.063-.343a.988.988 0 0 1 .182-.28.922.922 0 0 1 .28-.189.849.849 0 0 1 .343-.07.898.898 0 0 1 .812.539c.047.107.07.222.07.343a.862.862 0 0 1-.259.623.803.803 0 0 1-.28.182.842.842 0 0 1-.343.07.849.849 0 0 1-.343-.07.821.821 0 0 1-.28-.182 1.01 1.01 0 0 1-.182-.273.95.95 0 0 1-.063-.35zm0-5.25c0-.121.021-.236.063-.343a.988.988 0 0 1 .182-.28.922.922 0 0 1 .28-.189.849.849 0 0 1 .343-.07.898.898 0 0 1 .812.539c.047.107.07.222.07.343a.862.862 0 0 1-.259.623.898.898 0 0 1-.28.189.929.929 0 0 1-.343.063.937.937 0 0 1-.343-.063.922.922 0 0 1-.28-.189 1.01 1.01 0 0 1-.182-.273.95.95 0 0 1-.063-.35zm4.473-4.683a3.228 3.228 0 0 1 .42 2.142 3.224 3.224 0 0 1-.35 1.036 3.121 3.121 0 0 1-.707.882l-.378-.245c-.07-.042-.102-.096-.098-.161a.315.315 0 0 1 .07-.168 2.04 2.04 0 0 0 .308-.539c.089-.215.145-.443.168-.686a2.467 2.467 0 0 0-.035-.763 2.22 2.22 0 0 0-.287-.756c-.06-.098-.079-.184-.056-.259a.296.296 0 0 1 .175-.175l.77-.308zm2.128 0a3.228 3.228 0 0 1 .42 2.142 3.224 3.224 0 0 1-.35 1.036 3.121 3.121 0 0 1-.707.882l-.378-.245c-.07-.042-.102-.096-.098-.161a.315.315 0 0 1 .07-.168 2.04 2.04 0 0 0 .308-.539c.089-.215.145-.443.168-.686a2.467 2.467 0 0 0-.035-.763 2.22 2.22 0 0 0-.287-.756c-.06-.098-.079-.184-.056-.259a.296.296 0 0 1 .175-.175l.77-.308zM134.417 425v-7.091h.749c.177 0 .287.086.329.259l.091.728a3.59 3.59 0 0 1 .882-.791 2.085 2.085 0 0 1 1.134-.308c.476 0 .861.133 1.155.399.298.266.513.625.644 1.078a2.36 2.36 0 0 1 .392-.665 2.29 2.29 0 0 1 1.183-.728c.228-.056.459-.084.693-.084.373 0 .704.061.994.182.294.117.541.289.742.518.205.229.361.511.469.847.107.331.161.712.161 1.141V425h-1.253v-4.515c0-.555-.122-.975-.364-1.26-.243-.289-.593-.434-1.05-.434-.206 0-.402.037-.588.112-.182.07-.343.175-.483.315-.14.14-.252.317-.336.532a2.06 2.06 0 0 0-.119.735V425h-1.253v-4.515c0-.569-.115-.994-.343-1.274-.229-.28-.563-.42-1.001-.42-.308 0-.593.084-.854.252a2.75 2.75 0 0 0-.721.672V425h-1.253zm15.354-3.192c-.574.019-1.064.065-1.47.14-.401.07-.73.163-.987.28-.252.117-.436.254-.553.413a.902.902 0 0 0-.168.532c0 .187.031.348.091.483a.968.968 0 0 0 .245.336c.108.084.231.147.371.189.145.037.299.056.462.056.22 0 .42-.021.602-.063a2.635 2.635 0 0 0 .973-.497c.15-.117.294-.25.434-.399v-1.47zm-4.025-2.898c.392-.378.815-.66 1.267-.847a3.91 3.91 0 0 1 1.505-.28c.397 0 .749.065 1.057.196.308.131.567.313.777.546.21.233.369.516.476.847.108.331.161.695.161 1.092V425h-.553a.578.578 0 0 1-.28-.056c-.065-.042-.116-.121-.154-.238l-.14-.672a7.15 7.15 0 0 1-.546.462 3.364 3.364 0 0 1-.56.336 3.016 3.016 0 0 1-.63.203 3.246 3.246 0 0 1-.735.077 2.62 2.62 0 0 1-.777-.112 1.878 1.878 0 0 1-.637-.35 1.71 1.71 0 0 1-.427-.581 2.12 2.12 0 0 1-.154-.84c0-.28.077-.548.231-.805.154-.261.404-.492.749-.693.346-.201.796-.364 1.351-.49.556-.131 1.237-.205 2.044-.224v-.553c0-.551-.119-.966-.357-1.246-.238-.285-.585-.427-1.043-.427-.308 0-.567.04-.777.119a2.786 2.786 0 0 0-.539.259c-.149.093-.28.18-.392.259a.556.556 0 0 1-.322.112.372.372 0 0 1-.217-.063.686.686 0 0 1-.154-.168l-.224-.399zm9.223 6.202c-.56 0-.992-.156-1.295-.469-.299-.313-.448-.763-.448-1.351v-4.34h-.854a.287.287 0 0 1-.189-.063c-.052-.047-.077-.117-.077-.21v-.497l1.162-.147.287-2.191a.277.277 0 0 1 .287-.238h.63v2.443h2.051v.903h-2.051v4.256c0 .299.072.52.217.665a.755.755 0 0 0 .56.217 1.018 1.018 0 0 0 .588-.168c.07-.042.128-.079.175-.112.051-.037.095-.056.133-.056.065 0 .123.04.175.119l.364.595a2.374 2.374 0 0 1-.777.476 2.69 2.69 0 0 1-.938.168zm7.734-5.943a.54.54 0 0 1-.112.119.25.25 0 0 1-.154.042.426.426 0 0 1-.231-.084 3.136 3.136 0 0 0-.315-.196 2.22 2.22 0 0 0-.455-.189 2.04 2.04 0 0 0-.658-.091c-.35 0-.658.063-.924.189-.266.121-.49.299-.672.532a2.527 2.527 0 0 0-.406.847 4.333 4.333 0 0 0-.133 1.113c0 .429.049.812.147 1.148.098.331.236.611.413.84.182.224.399.397.651.518.257.117.544.175.861.175.304 0 .553-.035.749-.105a2.21 2.21 0 0 0 .483-.245 4.19 4.19 0 0 0 .322-.238.406.406 0 0 1 .259-.112c.103 0 .182.04.238.119l.35.455a2.483 2.483 0 0 1-.525.49c-.196.135-.408.25-.637.343a3.48 3.48 0 0 1-.707.196 4.502 4.502 0 0 1-.756.063c-.443 0-.856-.082-1.239-.245a2.841 2.841 0 0 1-.987-.707 3.371 3.371 0 0 1-.658-1.148 4.68 4.68 0 0 1-.238-1.547c0-.527.073-1.015.217-1.463.15-.448.364-.833.644-1.155a2.953 2.953 0 0 1 1.043-.763c.416-.182.892-.273 1.428-.273.5 0 .938.082 1.316.245.383.159.721.385 1.015.679l-.329.448zm3.004-.315a3.746 3.746 0 0 1 1.008-.77 2.728 2.728 0 0 1 1.274-.287c.387 0 .728.065 1.022.196.298.126.546.308.742.546.2.233.352.516.455.847.102.331.154.698.154 1.099V425h-1.253v-4.515c0-.537-.124-.952-.371-1.246-.243-.299-.614-.448-1.113-.448-.369 0-.714.089-1.036.266a3.403 3.403 0 0 0-.882.721V425h-1.253v-10.311h1.253v4.165zm11.842-2.317a.536.536 0 0 1-.14.161.296.296 0 0 1-.175.049c-.08 0-.173-.04-.28-.119a4.321 4.321 0 0 0-.406-.259 2.955 2.955 0 0 0-.581-.266 2.477 2.477 0 0 0-.819-.119c-.304 0-.572.042-.805.126a1.702 1.702 0 0 0-.581.329c-.154.14-.271.306-.35.497-.08.187-.119.39-.119.609 0 .28.067.513.203.7.14.182.322.338.546.469.228.131.485.245.77.343.289.093.583.191.882.294.303.103.597.219.882.35.289.126.546.287.77.483.228.196.41.436.546.721.14.285.21.635.21 1.05 0 .439-.075.852-.224 1.239-.15.383-.369.716-.658 1.001a3.012 3.012 0 0 1-1.057.672 3.87 3.87 0 0 1-1.421.245 4.384 4.384 0 0 1-1.778-.35 4.221 4.221 0 0 1-1.365-.959l.392-.644a.483.483 0 0 1 .133-.126.323.323 0 0 1 .182-.056c.06 0 .128.026.203.077.079.047.168.107.266.182s.21.156.336.245a2.83 2.83 0 0 0 .98.434c.205.047.436.07.693.07.322 0 .609-.044.861-.133.252-.089.464-.212.637-.371.177-.163.312-.357.406-.581.093-.224.14-.474.14-.749 0-.303-.07-.551-.21-.742a1.668 1.668 0 0 0-.539-.49 3.65 3.65 0 0 0-.77-.329c-.29-.093-.584-.187-.882-.28a9.995 9.995 0 0 1-.882-.336 2.831 2.831 0 0 1-.77-.49 2.302 2.302 0 0 1-.546-.749c-.136-.303-.203-.677-.203-1.12 0-.355.067-.698.203-1.029.14-.331.34-.625.602-.882a2.98 2.98 0 0 1 .973-.616c.387-.154.83-.231 1.33-.231a4.2 4.2 0 0 1 1.526.266 3.6 3.6 0 0 1 1.218.77l-.329.644zm4.039 8.575c-.56 0-.992-.156-1.295-.469-.299-.313-.448-.763-.448-1.351v-4.34h-.854a.287.287 0 0 1-.189-.063c-.052-.047-.077-.117-.077-.21v-.497l1.162-.147.287-2.191a.277.277 0 0 1 .287-.238h.63v2.443h2.051v.903h-2.051v4.256c0 .299.072.52.217.665a.755.755 0 0 0 .56.217 1.018 1.018 0 0 0 .588-.168c.07-.042.128-.079.175-.112.051-.037.095-.056.133-.056.065 0 .123.04.175.119l.364.595a2.374 2.374 0 0 1-.777.476 2.69 2.69 0 0 1-.938.168zm6.683-3.304c-.574.019-1.064.065-1.47.14-.401.07-.73.163-.987.28-.252.117-.436.254-.553.413a.902.902 0 0 0-.168.532c0 .187.031.348.091.483a.968.968 0 0 0 .245.336c.108.084.231.147.371.189.145.037.299.056.462.056.22 0 .42-.021.602-.063a2.635 2.635 0 0 0 .973-.497c.15-.117.294-.25.434-.399v-1.47zm-4.025-2.898c.392-.378.815-.66 1.267-.847a3.91 3.91 0 0 1 1.505-.28c.397 0 .749.065 1.057.196.308.131.567.313.777.546.21.233.369.516.476.847.108.331.161.695.161 1.092V425h-.553a.578.578 0 0 1-.28-.056c-.065-.042-.116-.121-.154-.238l-.14-.672a7.15 7.15 0 0 1-.546.462 3.364 3.364 0 0 1-.56.336 3.016 3.016 0 0 1-.63.203 3.246 3.246 0 0 1-.735.077 2.62 2.62 0 0 1-.777-.112 1.878 1.878 0 0 1-.637-.35 1.71 1.71 0 0 1-.427-.581 2.12 2.12 0 0 1-.154-.84c0-.28.077-.548.231-.805.154-.261.404-.492.749-.693.346-.201.796-.364 1.351-.49.556-.131 1.237-.205 2.044-.224v-.553c0-.551-.119-.966-.357-1.246-.238-.285-.585-.427-1.043-.427-.308 0-.567.04-.777.119a2.786 2.786 0 0 0-.539.259c-.149.093-.28.18-.392.259a.556.556 0 0 1-.322.112.372.372 0 0 1-.217-.063.686.686 0 0 1-.154-.168l-.224-.399zm8.324.42c.224-.485.5-.863.826-1.134.327-.275.726-.413 1.197-.413.15 0 .292.016.427.049.14.033.264.084.371.154l-.091.931c-.028.117-.098.175-.21.175-.065 0-.161-.014-.287-.042a1.974 1.974 0 0 0-.427-.042c-.224 0-.424.033-.602.098a1.414 1.414 0 0 0-.469.294 2.096 2.096 0 0 0-.371.476 4.214 4.214 0 0 0-.294.644V425h-1.253v-7.091h.714c.136 0 .229.026.28.077.052.051.087.14.105.266l.084 1.078zm6.094 5.782c-.56 0-.992-.156-1.295-.469-.299-.313-.448-.763-.448-1.351v-4.34h-.854a.287.287 0 0 1-.189-.063c-.051-.047-.077-.117-.077-.21v-.497l1.162-.147.287-2.191a.279.279 0 0 1 .287-.238h.63v2.443h2.051v.903h-2.051v4.256c0 .299.072.52.217.665a.757.757 0 0 0 .56.217c.131 0 .243-.016.336-.049.098-.037.182-.077.252-.119.07-.042.128-.079.175-.112.051-.037.096-.056.133-.056.065 0 .124.04.175.119l.364.595a2.374 2.374 0 0 1-.777.476 2.686 2.686 0 0 1-.938.168zm3.702-10.815a3.228 3.228 0 0 1 .42 2.142 3.248 3.248 0 0 1-.35 1.036 3.139 3.139 0 0 1-.707.882l-.378-.245c-.07-.042-.103-.096-.098-.161a.3.3 0 0 1 .07-.168c.121-.149.224-.329.308-.539.088-.215.144-.443.168-.686a2.498 2.498 0 0 0-.035-.763 2.263 2.263 0 0 0-.287-.756c-.061-.098-.08-.184-.056-.259a.294.294 0 0 1 .175-.175l.77-.308zm2.128 0a3.228 3.228 0 0 1 .42 2.142 3.248 3.248 0 0 1-.35 1.036 3.139 3.139 0 0 1-.707.882l-.378-.245c-.07-.042-.103-.096-.098-.161a.3.3 0 0 1 .07-.168c.121-.149.224-.329.308-.539.088-.215.144-.443.168-.686a2.498 2.498 0 0 0-.035-.763 2.263 2.263 0 0 0-.287-.756c-.061-.098-.08-.184-.056-.259a.294.294 0 0 1 .175-.175l.77-.308zm.557 12.397a.312.312 0 0 1-.077-.091.234.234 0 0 1-.021-.105c0-.033.009-.065.028-.098a.673.673 0 0 1 .077-.091c.046-.051.105-.119.175-.203a2.48 2.48 0 0 0 .224-.301c.074-.112.142-.238.203-.378.065-.135.112-.28.14-.434a.149.149 0 0 1-.049.007h-.042a.791.791 0 0 1-.595-.238.884.884 0 0 1-.224-.623c0-.219.074-.406.224-.56.154-.154.357-.231.609-.231.14 0 .263.026.371.077a.713.713 0 0 1 .266.217c.074.089.13.194.168.315.037.117.056.245.056.385 0 .21-.031.429-.091.658a2.95 2.95 0 0 1-.259.665 3.927 3.927 0 0 1-.973 1.232l-.21-.203zm2.619-12.397a3.228 3.228 0 0 1 .42 2.142 3.224 3.224 0 0 1-.35 1.036 3.121 3.121 0 0 1-.707.882l-.378-.245c-.07-.042-.102-.096-.098-.161a.315.315 0 0 1 .07-.168 2.04 2.04 0 0 0 .308-.539c.089-.215.145-.443.168-.686a2.467 2.467 0 0 0-.035-.763 2.22 2.22 0 0 0-.287-.756c-.06-.098-.079-.184-.056-.259a.296.296 0 0 1 .175-.175l.77-.308zm2.128 0a3.228 3.228 0 0 1 .42 2.142 3.224 3.224 0 0 1-.35 1.036 3.121 3.121 0 0 1-.707.882l-.378-.245c-.07-.042-.102-.096-.098-.161a.315.315 0 0 1 .07-.168 2.04 2.04 0 0 0 .308-.539c.089-.215.145-.443.168-.686a2.467 2.467 0 0 0-.035-.763 2.22 2.22 0 0 0-.287-.756c-.06-.098-.079-.184-.056-.259a.296.296 0 0 1 .175-.175l.77-.308zm6.198 5.299c-.234-.313-.486-.53-.756-.651a2.132 2.132 0 0 0-.91-.189c-.658 0-1.165.236-1.519.707-.355.471-.532 1.143-.532 2.016 0 .462.039.859.119 1.19.079.327.196.597.35.812.154.21.343.364.567.462.224.098.478.147.763.147.41 0 .767-.093 1.071-.28.308-.187.59-.45.847-.791v-3.423zm1.246-4.907V425h-.742c-.178 0-.29-.086-.336-.259l-.112-.861a3.876 3.876 0 0 1-1.036.882c-.388.224-.836.336-1.344.336-.406 0-.775-.077-1.106-.231a2.325 2.325 0 0 1-.847-.693c-.234-.303-.413-.681-.539-1.134a5.84 5.84 0 0 1-.189-1.561c0-.523.07-1.008.21-1.456.14-.453.34-.845.602-1.176.261-.331.581-.59.959-.777a2.842 2.842 0 0 1 1.288-.287c.434 0 .805.075 1.113.224.312.145.59.348.833.609v-3.927h1.246zm5.811 7.119c-.574.019-1.064.065-1.47.14-.402.07-.731.163-.987.28-.252.117-.437.254-.553.413a.902.902 0 0 0-.168.532c0 .187.03.348.091.483.06.135.142.247.245.336.107.084.231.147.371.189.144.037.298.056.462.056.219 0 .42-.021.602-.063.182-.047.352-.112.511-.196.163-.084.317-.184.462-.301.149-.117.294-.25.434-.399v-1.47zm-4.025-2.898c.392-.378.814-.66 1.267-.847.452-.187.954-.28 1.505-.28.396 0 .749.065 1.057.196.308.131.567.313.777.546.21.233.368.516.476.847.107.331.161.695.161 1.092V425h-.553a.573.573 0 0 1-.28-.056c-.066-.042-.117-.121-.154-.238l-.14-.672a7.558 7.558 0 0 1-.546.462 3.405 3.405 0 0 1-.56.336 3.016 3.016 0 0 1-.63.203c-.22.051-.465.077-.735.077-.276 0-.535-.037-.777-.112a1.869 1.869 0 0 1-.637-.35 1.685 1.685 0 0 1-.427-.581 2.103 2.103 0 0 1-.154-.84c0-.28.077-.548.231-.805.154-.261.403-.492.749-.693.345-.201.795-.364 1.351-.49.555-.131 1.236-.205 2.044-.224v-.553c0-.551-.119-.966-.357-1.246-.238-.285-.586-.427-1.043-.427-.308 0-.567.04-.777.119a2.758 2.758 0 0 0-.539.259c-.15.093-.28.18-.392.259a.561.561 0 0 1-.322.112.37.37 0 0 1-.217-.063.667.667 0 0 1-.154-.168l-.224-.399zm9.222 6.202c-.56 0-.992-.156-1.295-.469-.299-.313-.448-.763-.448-1.351v-4.34h-.854a.287.287 0 0 1-.189-.063c-.051-.047-.077-.117-.077-.21v-.497l1.162-.147.287-2.191a.279.279 0 0 1 .287-.238h.63v2.443h2.051v.903h-2.051v4.256c0 .299.072.52.217.665a.757.757 0 0 0 .56.217c.131 0 .243-.016.336-.049.098-.037.182-.077.252-.119.07-.042.128-.079.175-.112.051-.037.096-.056.133-.056.065 0 .124.04.175.119l.364.595a2.374 2.374 0 0 1-.777.476 2.686 2.686 0 0 1-.938.168zm6.684-3.304c-.574.019-1.064.065-1.47.14-.402.07-.731.163-.987.28-.252.117-.437.254-.553.413a.902.902 0 0 0-.168.532c0 .187.03.348.091.483.06.135.142.247.245.336.107.084.231.147.371.189.144.037.298.056.462.056.219 0 .42-.021.602-.063.182-.047.352-.112.511-.196.163-.084.317-.184.462-.301.149-.117.294-.25.434-.399v-1.47zm-4.025-2.898c.392-.378.814-.66 1.267-.847.452-.187.954-.28 1.505-.28.396 0 .749.065 1.057.196.308.131.567.313.777.546.21.233.368.516.476.847.107.331.161.695.161 1.092V425h-.553a.573.573 0 0 1-.28-.056c-.066-.042-.117-.121-.154-.238l-.14-.672a7.558 7.558 0 0 1-.546.462 3.405 3.405 0 0 1-.56.336 3.016 3.016 0 0 1-.63.203c-.22.051-.465.077-.735.077-.276 0-.535-.037-.777-.112a1.869 1.869 0 0 1-.637-.35 1.685 1.685 0 0 1-.427-.581 2.103 2.103 0 0 1-.154-.84c0-.28.077-.548.231-.805.154-.261.403-.492.749-.693.345-.201.795-.364 1.351-.49.555-.131 1.236-.205 2.044-.224v-.553c0-.551-.119-.966-.357-1.246-.238-.285-.586-.427-1.043-.427-.308 0-.567.04-.777.119a2.758 2.758 0 0 0-.539.259c-.15.093-.28.18-.392.259a.561.561 0 0 1-.322.112.37.37 0 0 1-.217-.063.667.667 0 0 1-.154-.168l-.224-.399zm7.783-4.613a3.228 3.228 0 0 1 .42 2.142 3.248 3.248 0 0 1-.35 1.036 3.139 3.139 0 0 1-.707.882l-.378-.245c-.07-.042-.103-.096-.098-.161a.3.3 0 0 1 .07-.168c.121-.149.224-.329.308-.539.088-.215.144-.443.168-.686a2.498 2.498 0 0 0-.035-.763 2.263 2.263 0 0 0-.287-.756c-.061-.098-.08-.184-.056-.259a.294.294 0 0 1 .175-.175l.77-.308zm2.128 0a3.228 3.228 0 0 1 .42 2.142 3.248 3.248 0 0 1-.35 1.036 3.139 3.139 0 0 1-.707.882l-.378-.245c-.07-.042-.103-.096-.098-.161a.3.3 0 0 1 .07-.168c.121-.149.224-.329.308-.539.088-.215.144-.443.168-.686a2.498 2.498 0 0 0-.035-.763 2.263 2.263 0 0 0-.287-.756c-.061-.098-.08-.184-.056-.259a.294.294 0 0 1 .175-.175l.77-.308zm2.012 9.933c0-.121.021-.236.063-.343a.967.967 0 0 1 .182-.28.91.91 0 0 1 .28-.189.845.845 0 0 1 .343-.07c.121 0 .236.023.343.07a.91.91 0 0 1 .28.189.91.91 0 0 1 .189.28c.047.107.07.222.07.343a.862.862 0 0 1-.259.623.812.812 0 0 1-.28.182.845.845 0 0 1-.343.07.845.845 0 0 1-.343-.07.812.812 0 0 1-.462-.455.95.95 0 0 1-.063-.35zm0-5.25c0-.121.021-.236.063-.343a.967.967 0 0 1 .182-.28.91.91 0 0 1 .28-.189.845.845 0 0 1 .343-.07c.121 0 .236.023.343.07a.91.91 0 0 1 .28.189.91.91 0 0 1 .189.28c.047.107.07.222.07.343a.862.862 0 0 1-.259.623.91.91 0 0 1-.28.189.933.933 0 0 1-.343.063.933.933 0 0 1-.343-.063.91.91 0 0 1-.28-.189.987.987 0 0 1-.182-.273.95.95 0 0 1-.063-.35zm4.473-4.683a3.228 3.228 0 0 1 .42 2.142 3.248 3.248 0 0 1-.35 1.036 3.121 3.121 0 0 1-.707.882l-.378-.245c-.07-.042-.103-.096-.098-.161a.307.307 0 0 1 .07-.168c.121-.149.224-.329.308-.539.089-.215.145-.443.168-.686a2.498 2.498 0 0 0-.035-.763 2.242 2.242 0 0 0-.287-.756c-.061-.098-.079-.184-.056-.259a.294.294 0 0 1 .175-.175l.77-.308zm2.128 0a3.228 3.228 0 0 1 .42 2.142 3.248 3.248 0 0 1-.35 1.036 3.121 3.121 0 0 1-.707.882l-.378-.245c-.07-.042-.103-.096-.098-.161a.307.307 0 0 1 .07-.168c.121-.149.224-.329.308-.539.089-.215.145-.443.168-.686a2.498 2.498 0 0 0-.035-.763 2.242 2.242 0 0 0-.287-.756c-.061-.098-.079-.184-.056-.259a.294.294 0 0 1 .175-.175l.77-.308zm8.263 9.751V425h-5.376v-.952h2.149v-6.839c0-.205.007-.413.021-.623l-1.785 1.533a.436.436 0 0 1-.182.098.525.525 0 0 1-.168 0 .377.377 0 0 1-.245-.147l-.392-.539 2.989-2.583h1.015v9.1h1.974zm2.843-9.751a3.228 3.228 0 0 1 .42 2.142 3.224 3.224 0 0 1-.35 1.036 3.121 3.121 0 0 1-.707.882l-.378-.245c-.07-.042-.102-.096-.098-.161a.315.315 0 0 1 .07-.168 2.04 2.04 0 0 0 .308-.539c.089-.215.145-.443.168-.686a2.467 2.467 0 0 0-.035-.763 2.22 2.22 0 0 0-.287-.756c-.06-.098-.079-.184-.056-.259a.296.296 0 0 1 .175-.175l.77-.308zm2.128 0a3.228 3.228 0 0 1 .42 2.142 3.224 3.224 0 0 1-.35 1.036 3.121 3.121 0 0 1-.707.882l-.378-.245c-.07-.042-.102-.096-.098-.161a.315.315 0 0 1 .07-.168 2.04 2.04 0 0 0 .308-.539c.089-.215.145-.443.168-.686a2.467 2.467 0 0 0-.035-.763 2.22 2.22 0 0 0-.287-.756c-.06-.098-.079-.184-.056-.259a.296.296 0 0 1 .175-.175l.77-.308zm4.876 6.72c-.308 0-.544.096-.707.287-.164.187-.245.427-.245.721 0 .233.018.464.056.693.037.229.077.46.119.693.042.229.081.46.119.693.037.229.056.464.056.707 0 .322-.049.618-.147.889a1.815 1.815 0 0 1-.434.7 1.93 1.93 0 0 1-.721.455 2.706 2.706 0 0 1-.994.168h-.378v-.56c0-.093.032-.161.098-.203a.367.367 0 0 1 .182-.063h.14c.364 0 .648-.117.854-.35.205-.233.308-.553.308-.959 0-.261-.017-.513-.049-.756-.033-.243-.07-.478-.112-.707a17.79 17.79 0 0 1-.112-.693 4.852 4.852 0 0 1-.049-.693c0-.173.025-.334.077-.483.051-.154.123-.292.217-.413.098-.121.21-.224.336-.308a1.52 1.52 0 0 1 .427-.189 1.52 1.52 0 0 1-.427-.189 1.672 1.672 0 0 1-.336-.315 1.391 1.391 0 0 1-.217-.406 1.52 1.52 0 0 1-.077-.49c0-.233.016-.464.049-.693.032-.229.07-.457.112-.686.042-.233.079-.471.112-.714.032-.243.049-.495.049-.756 0-.401-.103-.719-.308-.952-.206-.238-.49-.357-.854-.357h-.14a.367.367 0 0 1-.182-.063c-.066-.042-.098-.11-.098-.203v-.553h.378c.378 0 .709.054.994.161.289.107.529.259.721.455.196.196.34.429.434.7.098.271.147.567.147.889 0 .243-.019.481-.056.714-.038.233-.077.464-.119.693a32.8 32.8 0 0 0-.119.686c-.038.229-.056.46-.056.693 0 .299.081.541.245.728.163.187.399.28.707.28v.749z" fill="#8E7CBF"/><path d="M175.5 238c-1.833 3.833-12 11-23 1m32 9c-3.348 3.777-20.5 16.5-40 0m48.5 8.5c-3.348 3.777-28 25-58 0m67 9c-3.348 3.777-37 32.5-76 0" stroke="#E5004C" stroke-width="3" stroke-linecap="round"/></svg>