<svg width="326" height="220" viewBox="0 0 326 220" fill="none" xmlns="http://www.w3.org/2000/svg">
<path fill-rule="evenodd" clip-rule="evenodd" d="M305.508 117.438C305.36 118.213 305.171 118.944 304.948 119.632L306.848 120.246C307.098 119.477 307.307 118.666 307.47 117.811L305.508 117.438ZM304.109 121.721C303.769 122.42 303.392 123.067 302.984 123.666L304.637 124.785C305.098 124.107 305.525 123.377 305.907 122.589L304.109 121.721ZM305.878 112.883C305.891 113.684 305.867 114.448 305.809 115.177L307.801 115.334C307.863 114.539 307.889 113.712 307.875 112.851L305.878 112.883ZM315.691 83.5465C315.249 83.6418 314.821 83.7462 314.409 83.8597L314.94 85.7807C315.314 85.6778 315.705 85.5822 316.113 85.4945L315.691 83.5465ZM305.609 109.418C305.662 109.811 305.707 110.196 305.744 110.575L307.732 110.381C307.692 109.978 307.645 109.568 307.589 109.152C307.532 108.734 307.475 108.316 307.418 107.902L305.439 108.172C305.496 108.586 305.553 109.002 305.609 109.418ZM304.792 103.15C304.884 103.981 304.989 104.822 305.1 105.67L307.081 105.411C306.97 104.571 306.867 103.745 306.778 102.932L304.792 103.15ZM311.887 84.7434C311.011 85.1278 310.223 85.5678 309.518 86.0615L310.666 87.6925C311.255 87.2803 311.926 86.9033 312.691 86.5676L311.887 84.7434ZM304.456 98.0215C304.46 98.8648 304.497 99.7263 304.558 100.601L306.551 100.462C306.492 99.6218 306.458 98.8044 306.454 98.0126L304.456 98.0215ZM307.464 87.907C306.847 88.6205 306.345 89.3937 305.94 90.2165L307.733 91.0951C308.067 90.416 308.478 89.7862 308.977 89.208L307.464 87.907ZM305.012 92.7766C304.798 93.6235 304.655 94.5025 304.568 95.4054L306.556 95.5968C306.636 94.7767 306.764 93.9978 306.949 93.2626L305.012 92.7766Z" fill="#6C5C99"/>
<ellipse rx="1.99535" ry="2.74325" transform="matrix(-0.726174 0.687512 0.689304 0.724472 317.21 81.7977)" fill="#6C5C99"/>
<ellipse rx="1.99692" ry="2.7411" transform="matrix(-0.918881 -0.394534 0.396185 -0.918171 318.074 86.7315)" fill="#6C5C99"/>
<rect width="2.49112" height="7.99013" rx="1.24556" transform="matrix(-0.175925 -0.984404 -0.984554 0.175083 322.16 84.6191)" fill="#403366"/>
<rect y="21.3501" width="286.09" height="165.403" rx="2.08832" fill="#332E4D"/>
<rect x="177.924" y="212.167" width="57.2198" height="22.9611" transform="rotate(180 177.924 212.167)" fill="#403366"/>
<rect x="120.705" y="212.167" width="7.51793" height="22.9611" transform="rotate(180 120.705 212.167)" fill="#161326"/>
<path d="M72.6729 218.432C72.6729 214.972 75.4778 212.167 78.9378 212.167H208.198C211.658 212.167 214.463 214.972 214.463 218.432V219.666H72.6729V218.432Z" fill="#201C33"/>
<rect x="6.26465" y="21.3501" width="286.09" height="165.403" rx="2.08832" fill="#403366"/>
<rect x="13.9561" y="28.3208" width="270.895" height="152.249" fill="#161326"/>
<rect x="25.3936" y="38.8667" width="94.7545" height="112.995" rx="2.15351" fill="#F4F2FF"/>
<rect x="60.2803" y="108.038" width="53.8378" height="37.8082" rx="1.29211" fill="#E6004C"/>
<rect x="73.4736" y="132.984" width="1.72281" height="7.76645" transform="rotate(45 73.4736 132.984)" fill="#F4F2FF"/>
<rect width="1.72281" height="7.76645" transform="matrix(-0.707107 0.707107 0.707107 0.707107 69.2002 132.984)" fill="#F4F2FF"/>
<path d="M35.2988 61.9339V80.5394C35.2988 81.0151 35.6845 81.4008 36.1602 81.4008H113.256C113.732 81.4008 114.117 81.0151 114.117 80.5394V63.8004C114.117 63.0886 113.303 62.684 112.736 63.1138L97.7811 74.4437C97.3104 74.8004 96.6284 74.5882 96.4431 74.0274L94.5018 68.1544C94.3385 67.6606 93.7783 67.423 93.3099 67.6488L82.6268 72.7978C82.1484 73.0284 81.5774 72.7755 81.4268 72.2663L79.7255 66.517C79.5555 65.9423 78.8651 65.7126 78.3846 66.0709L68.2936 73.5957C67.9194 73.8747 67.3911 73.8049 67.1022 73.4384L59.6683 64.0083C59.3605 63.6177 58.7867 63.5683 58.4166 63.9004L47.729 73.4899C47.3614 73.8198 46.7923 73.7736 46.4826 73.3888L36.8314 61.3939C36.3217 60.7605 35.2988 61.1209 35.2988 61.9339Z" fill="#E6004C"/>
<ellipse cx="112.179" cy="48.1038" rx="1.93816" ry="1.93337" fill="#E6004C"/>
<ellipse cx="106.158" cy="48.1038" rx="1.93816" ry="1.93337" fill="#E6004C"/>
<ellipse cx="100.12" cy="48.1038" rx="1.93816" ry="1.93337" fill="#E6004C"/>
<rect x="40.8984" y="47.0303" width="20.6737" height="2.57783" rx="1.28892" fill="#E6004C"/>
<path d="M31.4229 86.1268L31.423 59.7056C31.423 59.3488 31.7122 59.0596 32.069 59.0596C32.4258 59.0596 32.7151 59.3488 32.7151 59.7056L32.715 84.8171H113.463C113.825 84.8171 114.118 85.1103 114.118 85.4719C114.118 85.8336 113.825 86.1268 113.463 86.1268H31.4229Z" fill="#E6004C"/>
<rect x="31.4229" y="89.564" width="25.4114" height="15.0373" rx="1.29211" fill="#E6004C"/>
<rect x="60.2803" y="89.564" width="24.9807" height="15.0373" rx="1.29211" fill="#E6004C"/>
<rect x="88.7061" y="89.564" width="25.4114" height="15.0373" rx="1.29211" fill="#E6004C"/>
<rect x="31.4229" y="108.038" width="25.4114" height="37.8082" rx="1.29211" fill="#E6004C"/>
<path d="M34.1621 46.7203L32.8872 45.7407L33.0595 47.7342L32.5254 48.4904L32.7666 49.2122C33.025 49.3153 33.2662 49.4528 33.4729 49.6418C33.5074 49.4356 33.5418 49.0919 33.5763 48.9544L33.1628 49.0403C33.3007 48.1983 33.6624 47.4077 34.1621 46.7203Z" fill="#E6004C"/>
<path d="M34.5924 48.6624L33.6104 48.1641C33.8171 48.6968 33.886 48.7656 34.5924 48.6624Z" fill="#E6004C"/>
<path d="M36.7125 47.7342L36.8848 45.7407C35.6788 46.6516 35.2998 46.789 34.8519 47.9233L35.4721 47.803C34.6968 48.6107 34.2316 49.6934 34.1455 50.5355L34.3006 50.8964H35.4893C35.6788 50.4667 35.9545 49.6075 37.0054 49.2122L37.2466 48.4904L36.7125 47.7342ZM34.8863 50.4839L34.5073 49.934H35.2653L34.8863 50.4839ZM35.162 48.6623L36.144 48.1639C35.9372 48.6966 35.8683 48.7654 35.162 48.6623Z" fill="#E6004C"/>
<path d="M79.1104 136.18C80.2454 136.225 81.794 136.365 83.4231 136.257M91.833 128.017C91.6551 129.577 91.289 130.849 90.7854 131.884M105.418 115.343C103.404 115.586 102.718 115.752 100.89 116.388M85.7952 135.89C87.132 135.54 88.4152 134.912 89.461 133.815M92.1989 125.869C92.5653 124.291 93.1158 122.942 93.8158 121.787M95.2833 119.855C96.3934 118.676 97.711 117.778 99.1648 117.09" stroke="#F4F2FF" stroke-width="1.72281"/>
<path d="M41.7598 99.8758V94.2905L46.5038 97.2302L41.7598 99.8758Z" fill="#F4F2FF"/>
<path d="M70.1855 99.8758V94.2905L74.9296 97.2302L70.1855 99.8758Z" fill="#F4F2FF"/>
<path d="M99.043 99.8758V94.2905L103.787 97.2302L99.043 99.8758Z" fill="#F4F2FF"/>
<ellipse cx="36.8063" cy="117.706" rx="1.07676" ry="1.0741" fill="#F4F2FF"/>
<ellipse cx="36.8063" cy="124.151" rx="1.07676" ry="1.07409" fill="#F4F2FF"/>
<rect x="40.0361" y="123.077" width="12.0597" height="2.14818" rx="1.07409" fill="#F4F2FF"/>
<rect x="40.0361" y="116.632" width="12.0597" height="2.14821" rx="1.0741" fill="#F4F2FF"/>
<ellipse cx="36.8063" cy="130.595" rx="1.07676" ry="1.0741" fill="#F4F2FF"/>
<rect x="40.0361" y="129.521" width="12.0597" height="2.14819" rx="1.0741" fill="#F4F2FF"/>
<ellipse cx="36.8063" cy="137.04" rx="1.07676" ry="1.0741" fill="#F4F2FF"/>
<rect x="40.0361" y="135.966" width="12.0597" height="2.14821" rx="1.0741" fill="#F4F2FF"/>
<path d="M140.145 41.3125L147.64 47.2441C144.703 51.4066 142.576 56.1934 141.766 61.2925L144.196 60.7722C144.075 61.2717 143.953 62.2207 143.832 63.1698C143.751 63.8025 143.67 64.4352 143.589 64.9347C142.373 63.79 140.956 62.9575 139.436 62.3331L138.019 57.9625L141.158 53.3838L140.145 41.3125Z" fill="#D3CFE5"/>
<path d="M150.172 59.0031L144.399 55.9853C145.614 59.2113 146.019 59.6275 150.172 59.0031Z" fill="#D3CFE5"/>
<path fill-rule="evenodd" clip-rule="evenodd" d="M163.642 41.3125L162.629 53.3838L165.769 57.9625L164.351 62.3331C158.723 64.5134 156.877 69.0252 155.751 71.7781C155.641 72.0472 155.537 72.2995 155.438 72.5312H148.45L147.539 70.3459C148.045 65.2469 150.78 58.6909 155.337 53.8L151.691 54.5284C153.932 48.684 155.879 47.21 160.778 43.502C161.636 42.8525 162.585 42.1345 163.642 41.3125ZM149.665 66.7037L151.894 70.0338L154.122 66.7037H149.665ZM153.514 59.0031L159.287 55.9853C158.071 59.2112 157.666 59.6275 153.514 59.0031Z" fill="#D3CFE5"/>
<rect x="130.532" y="61.5325" width="16.3953" height="16.3538" fill="#201C33" stroke="#332E4C" stroke-width="0.420394"/>
<path d="M136.58 65.7056L137.727 67.2704C133.861 69.9506 135.637 73.4724 137.479 74.5284C135.733 72.2069 138.283 69.7895 139.416 69.3166L140.916 71.1316L141.769 65.7056H136.58Z" fill="#E6004C"/>
<path d="M214.988 21.35C218.766 11.6007 228.263 4.68474 239.382 4.68474C241.579 4.68474 243.713 4.9548 245.752 5.46343C241.557 2.60616 236.483 0.935059 231.018 0.935059C218.52 0.935059 208.071 9.67251 205.49 21.35H214.988Z" fill="#201C33"/>
<path d="M227.463 100.51H222.444C221.058 100.51 219.935 101.629 219.935 103.01C219.935 104.39 221.058 105.509 222.444 105.509H227.463V100.51Z" fill="#251F48"/>
<path d="M252.138 88.5454C258.039 85.59 262.175 78.7217 262.175 70.7205C262.175 62.7193 258.039 55.8511 252.138 52.8956V51.3472H245.865V51.3487C245.795 51.3477 245.725 51.3472 245.655 51.3472C236.532 51.3472 229.136 60.0209 229.136 70.7205C229.136 81.4201 236.532 90.0939 245.655 90.0939C245.725 90.0939 245.795 90.0933 245.865 90.0923V90.0939H252.138V88.5454Z" fill="#201C33"/>
<path d="M236.204 105.509H226.575C225.194 105.509 224.075 104.39 224.075 103.009C224.075 101.629 225.194 100.51 226.575 100.51H236.204C243.172 100.51 248.896 95.2044 249.529 88.4272H254.563C253.918 97.9687 245.945 105.509 236.204 105.509Z" fill="#403366"/>
<ellipse cx="251.929" cy="70.7205" rx="16.5197" ry="19.3733" fill="#403366"/>
<path d="M263.963 70.7207C263.963 78.8027 258.502 85.0924 252.06 85.0924C245.618 85.0924 240.157 78.8027 240.157 70.7207C240.157 62.6387 245.618 56.349 252.06 56.349C258.502 56.349 263.963 62.6387 263.963 70.7207Z" fill="#161326" stroke="#5F5980" stroke-width="1.67065"/>
<path d="M242.244 16.6369C244.959 21.2312 246.232 27.892 246.232 30.9221V70.7243C246.232 73.031 248.119 74.9009 250.426 74.9009C252.733 74.9009 254.619 73.031 254.619 70.7243V27.1524C254.619 25.4858 253.193 17.1729 252.895 15.5928L242.244 16.6369Z" fill="#161326"/>
<path d="M222.488 4.69536C220.299 4.69536 218.381 5.00798 216.35 5.518C220.529 2.65269 225.376 0.935059 230.821 0.935059C245.204 0.935059 256.863 12.6264 256.863 27.0483V70.5121C256.863 72.8133 254.997 74.6788 252.696 74.6788C250.395 74.6788 248.53 72.8133 248.53 70.5121V30.8086C248.53 16.3867 236.87 4.69536 222.488 4.69536Z" fill="#403366"/>
<path fill-rule="evenodd" clip-rule="evenodd" d="M239.187 12.558C235.961 8.97441 231.027 5.79502 223.639 5.99526C218.213 6.14234 214.211 8.6642 211.383 11.8406C208.538 15.0371 206.941 18.6276 206.326 21.2379H204.237C204.92 18.3395 206.716 13.9433 209.824 10.452C212.95 6.94057 217.464 4.07356 223.583 3.90772C231.696 3.68781 237.187 7.21459 240.739 11.1607C244.266 15.0786 246.148 19.7275 246.63 21.2379H244.124C243.689 19.8741 242.439 16.1698 239.187 12.558Z" fill="#161326"/>
<rect x="215.096" y="98.708" width="16.2889" height="8.77093" rx="4.38546" fill="#0D0A1A"/>
<rect x="213.472" y="98.708" width="15.4535" height="8.77093" rx="4.38546" fill="#201C33"/>
<path d="M79.0518 218.432C79.0518 214.972 81.8567 212.167 85.3167 212.167H214.577C218.037 212.167 220.842 214.972 220.842 218.432V219.666H79.0518V218.432Z" fill="#403366"/>
<path d="M287.862 195.314H317.798V219.706H287.862V195.314Z" fill="#6C5C99"/>
<rect x="300.798" y="156.467" width="3.69581" height="31.4557" fill="#332E4D"/>
<path d="M317.647 172.296C321.458 168.911 321.721 163 321.721 163C321.721 163 315.804 162.578 311.992 165.963C308.181 169.348 307.918 175.259 307.918 175.259C307.918 175.259 313.835 175.681 317.647 172.296Z" fill="#403366"/>
<path d="M307.92 175.258C308.07 175.268 313.883 175.636 317.646 172.294C321.399 168.961 321.711 163.177 321.719 163.002L307.92 175.258Z" fill="#6C5C99"/>
<path d="M287.968 172.296C284.156 168.911 283.894 163 283.894 163C283.894 163 289.811 162.578 293.622 165.963C297.434 169.348 297.696 175.259 297.696 175.259C297.696 175.259 291.779 175.681 287.968 172.296Z" fill="#6C5C99"/>
<path d="M297.694 175.258C297.544 175.268 291.731 175.636 287.968 172.294C284.215 168.961 283.903 163.177 283.895 163.002L297.694 175.258Z" fill="#201C33"/>
<path fill-rule="evenodd" clip-rule="evenodd" d="M302.493 139.611C302.493 139.646 302.531 139.667 302.561 139.649C302.575 139.64 302.594 139.64 302.608 139.649C302.638 139.668 302.677 139.646 302.677 139.611V139.604C302.677 139.587 302.686 139.571 302.7 139.562L318.164 129.95C319.144 129.341 320.442 129.769 320.734 130.884C321.13 132.399 321.341 133.988 321.341 135.626C321.341 145.934 312.985 154.29 302.678 154.29C292.37 154.29 284.014 145.934 284.014 135.626C284.014 134.027 284.215 132.474 284.593 130.993C284.88 129.871 286.182 129.438 287.165 130.049L302.47 139.563C302.484 139.572 302.493 139.587 302.493 139.604V139.611Z" fill="#332E4C"/>
<mask id="mask0" mask-type="alpha" maskUnits="userSpaceOnUse" x="284" y="128" width="38" height="27">
<path fill-rule="evenodd" clip-rule="evenodd" d="M302.493 139.322L302.584 139.264L302.677 139.322V139.207L319.926 128.484C320.838 130.684 321.341 133.096 321.341 135.626C321.341 145.933 312.985 154.289 302.678 154.289C292.37 154.289 284.014 145.933 284.014 135.626C284.014 133.131 284.503 130.751 285.391 128.576L302.493 139.207V139.322Z" fill="#7360AC"/>
</mask>
<g mask="url(#mask0)">
<circle cx="309.779" cy="151.518" r="3.14144" fill="#8E7CBF"/>
<circle cx="318.648" cy="144.866" r="3.14144" fill="#8E7CBF"/>
<circle cx="287.973" cy="145.604" r="3.14144" fill="#8E7CBF"/>
<circle cx="300.355" cy="148.376" r="2.95665" fill="#8E7CBF"/>
<circle cx="294.996" cy="137.474" r="3.8806" fill="#8E7CBF"/>
<circle cx="311.073" cy="138.028" r="3.69581" fill="#8E7CBF"/>
</g>
<path d="M303.409 144.437L321.862 133.593C321.67 132.174 320.955 130.579 320.55 129.617L302.65 139.896V140.006L302.554 139.951L302.458 140.006V139.896L284.403 129.528C283.967 130.55 283.284 132.12 283.056 133.224L301.514 144.424C302.095 144.776 302.823 144.782 303.409 144.437Z" fill="#100B26"/>
<path d="M292.995 123.989L288.695 127.512L292.206 129.724L293.587 124.367C293.677 124.021 293.272 123.762 292.995 123.989Z" fill="#B2ADCC"/>
<path d="M297.43 128.058L294.239 130.72L296.998 132.489L298.025 128.432C298.113 128.085 297.705 127.828 297.43 128.058Z" fill="#B2ADCC"/>
<path d="M312.238 123.989L316.538 127.512L313.027 129.724L311.646 124.367C311.557 124.021 311.962 123.762 312.238 123.989Z" fill="#B2ADCC"/>
<path d="M307.803 128.058L310.994 130.72L308.235 132.489L307.208 128.432C307.12 128.085 307.528 127.828 307.803 128.058Z" fill="#B2ADCC"/>
<path d="M282.969 127.065C283.789 125.772 285.502 125.389 286.794 126.209L302.577 136.222L318.359 126.209C319.651 125.389 321.364 125.772 322.184 127.065C323.004 128.358 322.621 130.071 321.329 130.891L304.165 141.78C303.672 142.093 303.118 142.23 302.577 142.21C302.035 142.23 301.481 142.093 300.988 141.78L283.824 130.891C282.532 130.071 282.149 128.358 282.969 127.065Z" fill="#6C5C99"/>
<path d="M284.166 186.813H320.755V193.096H284.166V186.813Z" fill="#6C5C99"/>
<rect x="287.862" y="195.314" width="5.54372" height="24.3924" fill="#332E4D"/>
<rect x="284.166" y="186.813" width="5.54372" height="6.28288" fill="#332E4D"/>
</svg>
