<svg width="90" height="90" viewBox="0 0 90 90" fill="none" xmlns="http://www.w3.org/2000/svg">
<path fill-rule="evenodd" clip-rule="evenodd" d="M58.8671 42.5005C59.2229 41.3321 59.8277 38.122 59.8753 35.8325C59.9109 34.2983 59.6499 31.9851 59.3059 29.9198C59.1398 28.9049 58.9264 27.9253 58.7603 27.1936C58.452 25.86 57.6336 23.6176 56.5306 21.7883C55.7834 20.561 54.9176 19.605 53.9925 18.8851C52.9014 18.0354 51.4426 17.1738 49.9482 16.6073C49.2009 16.3241 48.4539 16.1117 47.7779 15.9583C45.9869 15.5452 43.8283 15.5688 41.9544 15.9583C41.2784 16.1117 40.5312 16.3359 39.7959 16.6191C38.3014 17.1857 36.8426 18.0472 35.7515 18.8969C34.8265 19.6168 33.9607 20.5728 33.2135 21.8001C32.1104 23.6294 31.292 25.8718 30.9718 27.1936C30.8057 27.9371 30.5923 28.9049 30.4263 29.9198C30.0704 31.9733 29.8095 34.2865 29.8451 35.8207C29.8926 38.1102 30.4975 41.3203 30.8533 42.4887C31.0193 43.0316 31.8377 44.849 32.7509 46.4659C33.7946 48.2952 34.9332 49.9238 34.9332 49.9238L38.0524 54.2669C38.0524 54.2669 40.1991 56.9695 42.5712 58.1497C43.2946 58.4684 44.0893 58.6926 44.8958 58.6926C45.6667 58.6926 46.4495 58.4684 47.1611 58.1497C49.545 56.9695 51.6799 54.2669 51.6799 54.2669L54.7871 49.9356C54.7871 49.9356 55.9257 48.3069 56.9695 46.4777C57.8826 44.8608 58.701 43.0434 58.8671 42.5005ZM38.7521 40.6004C39.6179 41.3557 40.3295 42.2763 40.9107 43.2322C42.3674 45.5997 43.0607 48.1176 43.3422 49.1403C43.4046 49.3665 43.4467 49.5196 43.4725 49.5816C43.1286 49.617 41.5037 49.7586 39.5825 49.1803C38.0168 48.7083 36.2378 47.6697 34.8976 46.3597C33.6641 45.1677 32.7035 43.5627 32.2172 41.9222C31.719 40.2109 31.7309 38.4879 31.7546 37.9214C32.0382 38.0702 32.4227 38.1164 32.9215 38.1763C33.5703 38.2543 34.4127 38.3555 35.4788 38.7358C36.558 39.1252 38.0168 39.9749 38.7521 40.6004ZM56.8129 38.1765C57.3111 38.1165 57.6938 38.0703 57.9777 37.9214C58.0131 38.4879 58.025 40.2227 57.5268 41.9222C57.0407 43.5627 56.0681 45.1795 54.8466 46.3597C53.4944 47.6697 51.7272 48.6965 50.1617 49.1685C48.2403 49.7468 46.6156 49.6052 46.2715 49.5698C46.2929 49.5138 46.3279 49.3835 46.3794 49.1921C46.6421 48.214 47.3336 45.6405 48.8215 43.2322C49.4026 42.2763 50.1025 41.3439 50.98 40.6004C51.7155 39.9749 53.1741 39.1252 54.2535 38.7358C55.3253 38.3558 56.1664 38.2544 56.8129 38.1765Z" fill="#B2ADCC"/>
<path fill-rule="evenodd" clip-rule="evenodd" d="M4.83098 68.6718H3.93145L1.68262 73.6191H2.58215L3.34678 71.9277H5.41565L6.2252 73.6191H7.12473L4.83098 68.6718ZM3.66165 71.2088L4.38122 69.6866L5.05586 71.2088H3.66165Z" fill="#B2ADCC"/>
<path d="M12.7919 68.714H13.5114V72.9003H16.9298L16.1651 73.5345H12.7919V68.714Z" fill="#B2ADCC"/>
<path d="M22.5518 68.714H23.4065V73.5345H22.5518V68.714Z" fill="#B2ADCC"/>
<path d="M32.4918 70.7861L31.7722 71.4204H30.4229V70.7861H32.4918Z" fill="#B2ADCC"/>
<path d="M29.1636 73.5768H32.9417V72.8579H29.9731V69.4329H32.9417V68.714H29.1636V73.5768Z" fill="#B2ADCC"/>
<path d="M87.5428 70.7861L86.8681 71.4204H85.5188V70.7861H87.5428Z" fill="#B2ADCC"/>
<path d="M56.4192 68.714L55.2048 72.4774L53.7655 69.01L53.6755 68.714H53.1359L53.0009 69.01L51.5618 72.5197L50.3474 68.714H49.5827L51.1569 73.5768H51.9215L53.4057 69.9403L54.8899 73.5345V73.5768H55.6546V73.5345L57.1838 68.714H56.4192Z" fill="#B2ADCC"/>
<path fill-rule="evenodd" clip-rule="evenodd" d="M65.0547 68.6718H65.9543L68.2929 73.6191H67.3934L66.5839 71.9277H64.515L63.7504 73.6191H62.8508L65.0547 68.6718ZM65.5045 69.6866L64.8299 71.2088H66.2241L65.5045 69.6866Z" fill="#B2ADCC"/>
<path d="M77.9169 71.2307L77.918 71.23C77.9518 71.2089 77.9855 71.1877 78.008 71.1666C78.2329 70.9129 78.4127 70.5746 78.4127 70.194C78.4127 69.4752 77.8729 68.7564 76.8836 68.7564H74.005V73.6191H74.7696V69.3906H76.8836C77.5132 69.3906 77.7831 69.8135 77.7831 70.2364C77.7831 70.4478 77.6931 70.6592 77.5582 70.8283C77.4232 70.9975 77.1983 71.082 76.9285 71.082H74.9495V71.674H76.4787L77.738 73.6614H78.5476L77.2434 71.5472C77.4682 71.5048 77.6931 71.378 77.828 71.2934C77.8502 71.2725 77.8835 71.2516 77.9169 71.2307Z" fill="#B2ADCC"/>
<path d="M39.7775 68.714L43.0608 72.6465V68.714H43.8254V73.5768H43.0608L39.7775 69.6443V73.5768H38.968V68.714H39.7775Z" fill="#B2ADCC"/>
<path d="M88.0378 68.714H84.2147V73.5768H88.0378V72.8579H85.0694V69.4329H88.0378V68.714Z" fill="#B2ADCC"/>
</svg>
