<svg width="90" height="90" viewBox="0 0 90 90" fill="none" xmlns="http://www.w3.org/2000/svg">
<path d="M74.3645 60.3788C72.8931 59.995 71.2528 60.0909 69.8779 60.7866C68.31 61.5543 67.2005 63.1135 66.9351 64.8168C66.7663 66.0642 66.8628 67.3596 67.4417 68.4871C68.1653 69.9504 69.5402 71.0299 71.1322 71.3898C71.7111 70.3582 72.29 69.3507 72.8207 68.2952C72.1453 68.2232 71.4217 68.0793 70.9393 67.5755C70.3845 66.9758 70.288 66.0642 70.4327 65.2966C70.6498 64.313 71.6147 63.6173 72.6036 63.6173C73.5926 63.5693 74.5816 64.241 74.8469 65.2246C75.1122 66.0642 74.7504 66.9278 74.3645 67.6475C72.6519 70.6701 70.9393 73.6927 69.2508 76.7393C70.5774 76.7393 71.9282 76.7633 73.2549 76.7393C74.2439 75.0121 75.1846 73.2609 76.1494 71.5337C76.849 70.2143 77.645 68.9669 78.1515 67.5515C78.6098 66.3041 78.5133 64.9127 78.0791 63.6893C77.452 62.058 76.0288 60.8106 74.3645 60.3788Z" fill="#B2ADCC"/>
<path d="M75.9323 50.7831C78.2238 47.8565 79.0921 43.8983 78.2961 40.2759C77.5001 36.4856 74.8709 33.1512 71.3733 31.4719C67.5381 29.5288 62.7379 29.7207 59.0233 31.8797C55.8875 33.6549 53.596 36.8215 52.8723 40.3479C55.3568 41.5713 57.8896 42.7228 60.4223 43.8983C60.1811 42.315 60.6394 40.6358 61.749 39.4603C62.7862 38.3328 64.3541 37.7091 65.8737 37.805C67.4174 37.901 68.9371 38.6926 69.8296 39.9641C70.6256 41.0436 70.9633 42.4589 70.7462 43.7783C70.505 45.3856 69.4436 46.8249 67.9964 47.5686C66.8868 48.1443 65.5842 48.3123 64.3782 48.0244C63.6304 47.8565 62.955 47.4726 62.2555 47.1608C58.0102 45.1457 53.7407 43.2026 49.4954 41.1635C51.618 36.7015 53.7648 32.2636 55.8875 27.8016C57.5519 24.635 57.6725 20.7248 56.3699 17.4143C55.1639 14.3197 52.6794 11.7289 49.6401 10.3855C47.1556 9.25805 44.3093 8.97018 41.6319 9.52193C38.8579 10.0977 36.2528 11.585 34.4196 13.744C32.4175 16.047 31.2838 19.0696 31.308 22.1162C31.3321 24.8749 32.2728 27.6577 33.9613 29.8647C35.8186 32.3115 38.6167 34.0627 41.656 34.6625C41.8731 34.2787 42.0419 33.8948 42.2349 33.511C43.2239 31.4 44.2611 29.3129 45.2259 27.2019C44.5505 27.2738 43.851 27.2978 43.1756 27.1299C41.8248 26.8181 40.5946 25.9544 39.871 24.779C39.0991 23.5315 38.882 21.9483 39.3403 20.5569C39.8228 18.9976 41.0771 17.7022 42.6449 17.1984C43.8992 16.7666 45.3465 16.8386 46.5526 17.3903C47.9034 18.0141 48.9647 19.2375 49.3748 20.6529C49.7125 21.7803 49.616 23.0278 49.1577 24.0833C46.9626 28.6652 44.7917 33.2711 42.5726 37.829C37.7483 35.622 32.9723 33.3191 28.1722 31.0881C24.144 29.3849 19.2473 29.9606 15.7015 32.5035C13.1929 34.2547 11.3838 36.9174 10.6602 39.8681C9.93655 42.7228 10.2501 45.7934 11.5044 48.4562C12.7829 51.1909 15.0744 53.4219 17.8242 54.6694C20.5017 55.8928 23.6374 56.1567 26.4837 55.413C29.9572 54.5494 33.0206 52.1505 34.6849 48.984C35.2397 47.9044 35.7222 46.777 35.891 45.5535C33.3824 44.402 30.8979 43.2026 28.3893 42.0511C28.4375 42.6029 28.4858 43.1786 28.3893 43.7303C28.1722 45.0737 27.4244 46.3452 26.2907 47.1368C25.1088 48.0004 23.5409 48.3362 22.0937 48.0244C20.7429 47.7365 19.5127 46.8969 18.7649 45.7214C18.1137 44.7139 17.8242 43.4665 18.0172 42.267C18.2343 40.6358 19.2956 39.1244 20.7911 38.3808C21.9007 37.805 23.2032 37.6371 24.4093 37.925C25.0123 38.0689 25.5671 38.3568 26.1219 38.6207C37.1694 43.8023 48.1928 48.984 59.2162 54.1656C59.9399 54.4774 60.6153 54.8853 61.363 55.1252C62.7138 55.5809 64.137 55.8448 65.536 55.8208C69.5642 55.8928 73.5201 53.9497 75.9323 50.7831Z" fill="#B2ADCC"/>
<path d="M17.7036 62.8496C18.3549 63.1855 18.7891 63.8092 19.1026 64.4569C20.1157 64.4569 21.1047 64.4569 22.1178 64.4569C21.8766 63.0415 20.96 61.8181 19.8022 61.0024C18.2343 59.9469 16.1598 59.731 14.399 60.3547C13 60.8345 11.7939 61.89 11.1426 63.2334C10.3708 64.7927 10.3708 66.6879 11.1185 68.2472C11.7215 69.4946 12.7829 70.5261 14.0613 71.0539C15.798 71.7975 17.8725 71.7016 19.5127 70.742C20.8394 69.9744 21.8042 68.655 22.1419 67.1676C21.1288 67.1676 20.1399 67.1676 19.1268 67.1676C18.7408 67.9593 18.0895 68.679 17.1971 68.9188C16.1357 69.2307 14.9055 68.8469 14.2301 67.9833C13.1447 66.7118 13.1688 64.6248 14.3508 63.4014C15.1468 62.4898 16.6182 62.2259 17.7036 62.8496Z" fill="#B2ADCC"/>
<path d="M26.339 68.895C26.339 65.9203 26.339 62.9697 26.339 59.995C25.3259 59.995 24.3369 59.971 23.3238 60.019C23.348 63.8573 23.3238 67.6955 23.3238 71.5338C25.4706 71.5338 27.6174 71.5338 29.7642 71.5338C29.7883 70.6702 29.7642 69.7826 29.7642 68.9189C28.6305 68.895 27.4727 68.895 26.339 68.895Z" fill="#B2ADCC"/>
<path d="M63.558 61.3863C62.5449 60.3788 61.0976 60.0429 59.6986 60.019C58.2031 59.995 56.7076 60.019 55.212 59.995C55.1879 63.8332 55.212 67.6955 55.212 71.5337C56.5869 71.5337 57.9619 71.5337 59.3368 71.5337C60.9046 71.5337 62.569 71.1739 63.7268 70.0704C64.9088 68.9669 65.343 67.2877 65.2947 65.7044C65.343 64.0971 64.7399 62.4658 63.558 61.3863ZM62.0383 67.3836C61.7971 68.0313 61.2423 68.5831 60.5428 68.775C59.7951 69.0149 58.9991 68.9189 58.2272 68.9189C58.2272 66.8079 58.2272 64.6968 58.2272 62.5858C59.1679 62.6098 60.2051 62.4659 61.0494 62.9936C61.773 63.4014 62.159 64.241 62.2554 65.0327C62.376 65.8003 62.3278 66.6399 62.0383 67.3836Z" fill="#B2ADCC"/>
<path d="M51.1357 60.0189C51.1357 62.9935 51.1357 65.9682 51.1357 68.9188C50.0261 68.9428 48.8924 68.9188 47.7828 68.9188C47.3969 68.9188 46.9386 68.8708 46.6491 68.559C46.1908 68.1272 46.1667 67.4555 46.1426 66.8797C46.1184 64.5768 46.1426 62.2978 46.1426 59.9949C45.1536 59.9949 44.1646 59.9949 43.1757 59.9949C43.1757 62.1779 43.1757 64.3849 43.1757 66.5679C43.1757 67.4555 43.1757 68.3911 43.5857 69.2307C43.9716 69.9743 44.5506 70.646 45.3224 71.0299C46.2632 71.4856 47.3245 71.5816 48.3617 71.5336C50.1708 71.5336 51.9799 71.5336 53.789 71.5336C53.789 67.6954 53.789 63.8571 53.789 60.0189C52.8724 59.9709 52.004 59.9709 51.1357 60.0189Z" fill="#B2ADCC"/>
<path d="M38.882 60.5946C37.676 59.9949 36.2528 59.851 34.9261 60.0909C33.5995 60.3307 32.3693 61.0744 31.5492 62.1299C30.6567 63.1615 30.2707 64.5528 30.2707 65.8962C30.2707 67.3356 30.8496 68.7509 31.8869 69.7585C33.1412 71.0539 35.0226 71.6776 36.8076 71.4857C38.5202 71.3417 40.1604 70.4062 41.1253 68.9908C42.1384 67.5515 42.3796 65.6323 41.8489 63.9531C41.3665 62.5138 40.2569 61.2663 38.882 60.5946ZM38.8338 67.3116C38.472 68.0312 37.8448 68.655 37.0488 68.8709C35.9633 69.2307 34.709 68.8709 33.9613 68.0072C32.9 66.8078 32.8517 64.8407 33.8407 63.5693C34.2749 63.0415 34.8779 62.6577 35.5533 62.5377C36.4217 62.3698 37.3624 62.5857 38.0137 63.1854C39.2197 64.169 39.5333 65.9682 38.8338 67.3116Z" fill="#B2ADCC"/>
</svg>
