<svg width="116" height="86" viewBox="0 0 116 86" fill="none" xmlns="http://www.w3.org/2000/svg">
<path d="M50.4783 22.4471C52.847 16.3205 58.8022 11.9743 65.7741 11.9743C67.1519 11.9743 68.4899 12.144 69.7684 12.4637C67.1378 10.6681 63.9564 9.61792 60.5293 9.61792C52.693 9.61792 46.1411 15.1087 44.5227 22.4471H50.4783Z" fill="#332E4D"/>
<path d="M58.3013 72.193H55.1544C54.2854 72.193 53.5809 72.8963 53.5809 73.7639C53.5809 74.6315 54.2854 75.3349 55.1544 75.3349H58.3013V72.193Z" fill="#403366"/>
<path d="M63.7811 75.3348H57.7471C56.8795 75.3348 56.1761 74.6314 56.1761 73.7638C56.1761 72.8962 56.8795 72.1929 57.7471 72.1929H63.7811C68.1505 72.1929 71.7399 68.8591 72.1364 64.6001H75.2933C74.8889 70.5962 69.8892 75.3348 63.7811 75.3348Z" fill="#5F5980"/>
<ellipse cx="57.4864" cy="41.1673" rx="24.4868" ry="24.4802" fill="#8E7CBF"/>
<mask id="mask0" mask-type="alpha" maskUnits="userSpaceOnUse" x="32" y="16" width="50" height="50">
<ellipse cx="57.4864" cy="41.1673" rx="24.4868" ry="24.4802" fill="#201C33"/>
</mask>
<g mask="url(#mask0)">
<rect x="24.8368" y="31.5502" width="25.6528" height="9.61723" rx="4.80861" fill="#403366"/>
<rect x="32.2144" y="54.9129" width="25.6653" height="7.06915" rx="3.53458" fill="#403366"/>
<rect x="64.191" y="46.996" width="25.6528" height="9.61723" rx="4.80861" fill="#403366"/>
<rect x="60.9835" y="19.8929" width="25.6528" height="9.61723" rx="4.80861" fill="#403366"/>
<rect x="16.2386" y="39.9892" width="25.6528" height="5.53719" rx="2.76859" fill="#403366"/>
<rect x="73.8097" y="42.9161" width="25.6528" height="5.53719" rx="2.76859" fill="#403366"/>
</g>
<path d="M73.7716 64.6745C77.472 62.8172 80.0654 58.501 80.0654 53.4729C80.0654 48.4448 77.472 44.1286 73.7716 42.2713V41.2982H69.838V41.2992C69.7943 41.2986 69.7507 41.2982 69.7069 41.2982C63.986 41.2982 59.3484 46.749 59.3484 53.4729C59.3484 60.1968 63.986 65.6475 69.7069 65.6475C69.7507 65.6475 69.7943 65.6472 69.838 65.6466V65.6475H73.7716V64.6745Z" fill="#332E4D"/>
<ellipse cx="73.6414" cy="53.4729" rx="10.3585" ry="12.1746" fill="#5F5980"/>
<path d="M81.1901 53.4728C81.1901 58.5542 77.7637 62.5079 73.7237 62.5079C69.6838 62.5079 66.2574 58.5542 66.2574 53.4728C66.2574 48.3913 69.6838 44.4376 73.7237 44.4376C77.7637 44.4376 81.1901 48.3913 81.1901 53.4728Z" fill="#161326" stroke="#E6004C" stroke-width="1.04258"/>
<path d="M67.5688 19.4362C69.2711 22.3162 70.0691 26.4916 70.0691 28.3911V53.3419C70.0691 54.7879 71.2527 55.9601 72.6992 55.9601C74.1458 55.9601 75.3284 54.7879 75.3284 53.3419V26.028C75.3284 24.9833 74.4343 19.7722 74.2471 18.7816L67.5688 19.4362Z" fill="#161326"/>
<path d="M55.1806 11.981C53.808 11.981 52.6052 12.1774 51.3315 12.4979C53.9524 10.6973 56.9916 9.61792 60.4059 9.61792C69.4241 9.61792 76.7349 16.965 76.7349 26.0281V53.3537C76.7349 54.7932 75.5618 55.9601 74.1223 55.9601C72.6828 55.9601 71.5096 54.7932 71.5096 53.3537V28.3911C71.5096 19.3281 64.1988 11.981 55.1806 11.981Z" fill="#5F5980"/>
<rect x="48.1613" y="70.8838" width="10.2137" height="5.49823" rx="2.74911" fill="#0D0A1A"/>
<rect x="47.1416" y="70.8838" width="9.68995" height="5.49823" rx="2.74911" fill="#332E4D"/>
<path fill-rule="evenodd" clip-rule="evenodd" d="M65.6516 16.8793C63.6287 14.6329 60.5349 12.6398 55.9023 12.7654C52.4999 12.8576 49.9908 14.4384 48.2176 16.4296C46.4332 18.4334 45.4319 20.6842 45.0461 22.3205H43.7367C44.165 20.5036 45.2907 17.7477 47.2396 15.5592C49.1998 13.358 52.0303 11.5607 55.8669 11.4567C60.9542 11.3189 64.3972 13.5297 66.6248 16.0034C68.8364 18.4595 70.0166 21.3737 70.3186 22.3205H68.7472C68.4746 21.4656 67.6904 19.1435 65.6516 16.8793Z" fill="#161326"/>
<path d="M43.9995 20.7452L46.4875 19.3052C46.2692 20.5271 45.8327 22.9969 45.8327 23.1016C45.8327 23.2064 43.9995 23.1453 43.0829 23.1016L43.9995 20.7452Z" fill="#797399"/>
</svg>
