<svg width="116" height="86" viewBox="0 0 116 86" fill="none" xmlns="http://www.w3.org/2000/svg">
<g clip-path="url(#clip0)">
<path d="M92.9016 33.5471L76.9385 49.0321L75.3275 50.588H24.8022L41.644 33.5471H92.9016Z" fill="#E6004C"/>
<path d="M42.2312 33.5348L40.7064 35.015L25.0228 50.3351C23.5706 47.3747 22.6267 43.6002 22.6267 39.4556C22.6267 30.8704 26.4024 23.7654 31.3398 22.5813C31.8481 22.5073 32.2837 22.4332 32.792 22.4332C33.4455 22.4332 34.1716 22.5073 34.825 22.7293C38.2377 23.9134 40.9968 28.058 42.2312 33.5348Z" fill="#201C33"/>
<path d="M92.9024 33.5471L76.9393 49.0321L75.548 50.3658C74.0835 47.4021 73.1316 43.6235 73.1316 39.4744C73.1316 37.9185 73.278 36.4366 73.4977 35.0289C73.5709 34.5103 73.6442 33.9916 73.7906 33.5471H92.9024Z" fill="#7F0D46"/>
<path d="M42.2259 33.6516C41.0465 28.1172 38.098 23.9291 34.6335 22.7324C33.9701 22.5081 33.233 22.4333 32.5696 22.4333H83.4313C83.6524 22.4333 83.9473 22.4333 84.1684 22.5081C88.2963 22.9568 91.7608 27.5189 93.0877 33.6516H42.2259Z" fill="#6C5C99"/>
<path d="M92.9016 50.588H24.8022V71.3335H92.9016V50.588Z" fill="#6C5C99"/>
<path d="M46.0375 50.588H24.8022V71.3335H46.0375V50.588Z" fill="#201C33"/>
<path d="M38.5376 50.6228C45.0301 43.8938 63.098 34.4731 83.429 50.6228H38.5376Z" fill="#A34857"/>
</g>
<g clip-path="url(#clip1)">
<path d="M68.0873 61.6741C69.8133 61.6741 71.2126 60.2305 71.2126 58.4497C71.2126 56.6688 69.8133 55.2252 68.0873 55.2252C66.3612 55.2252 64.9619 56.6688 64.9619 58.4497C64.9619 60.2305 66.3612 61.6741 68.0873 61.6741Z" fill="#201C33"/>
<path d="M68.0873 61.0999V67.0188H65.4757L66.7601 60.7465L68.0873 61.0999Z" fill="#201C33"/>
<path d="M68.0873 61.0999V67.0188H70.656L69.3717 60.7465L68.0873 61.0999Z" fill="#201C33"/>
</g>
<path d="M93.1113 50.6227L109 14.6667L7 14.6669L25.0167 50.6227H56.7942H93.1113Z" fill="url(#paint0_linear)"/>
<defs>
<linearGradient id="paint0_linear" x1="62.8301" y1="49.3283" x2="65.4932" y2="10.8006" gradientUnits="userSpaceOnUse">
<stop stop-color="#E6004D" stop-opacity="0.47"/>
<stop offset="1" stop-color="#141126" stop-opacity="0"/>
</linearGradient>
<clipPath id="clip0">
<rect width="90.0668" height="48.9002" fill="white" transform="translate(13.8176 22.4332)"/>
</clipPath>
<clipPath id="clip1">
<rect width="7.10306" height="13.5195" fill="white" transform="translate(64.3928 54.3622)"/>
</clipPath>
</defs>
</svg>
