<svg width="116" height="86" viewBox="0 0 116 86" fill="none" xmlns="http://www.w3.org/2000/svg">
<path d="M45.497 13.3624C44.7306 13.195 43.9492 13.2026 43.2666 13.2979C42.9027 13.3487 42.5208 13.4534 42.1426 13.6008C42.3386 11.4058 43.711 7 43.711 7C43.711 7 45.1165 11.1753 45.497 13.3624Z" fill="#B2A1E6"/>
<path d="M71.3357 20.7108C71.5495 20.6586 71.7599 20.6194 71.9621 20.5939C72.8111 20.4867 73.6747 20.6226 74.4605 20.9438C74.4156 18.497 73.9246 14.8456 73.9246 14.8456C73.9246 14.8456 72.1426 18.4132 71.3357 20.7108Z" fill="#B2A1E6"/>
<path d="M72.969 21.9982C71.0243 21.7714 69.2512 23.1318 68.9652 25.059L67.5273 35.9363V40.3405C67.5273 43.0451 65.487 45.2472 62.7464 45.2472C60.92 45.2472 59.367 44.203 58.56 42.7022C58.19 42.9342 57.7981 43.1282 57.7981 43.1282C57.8549 44.5903 57.2333 46.3668 56.1171 47.2728C57.8782 48.8388 59.3756 51.2366 59.3756 54.8091C59.3756 55.226 59.0376 55.564 58.6207 55.564C58.2038 55.564 57.8659 55.226 57.8659 54.8091C57.8659 51.4578 56.3654 49.3669 54.6991 48.0537C54.5341 48.1094 54.364 48.1564 54.1892 48.1941L46.2329 50.068L45.8868 48.5985L53.861 46.7203C55.5937 46.3524 56.6452 44.6173 56.2249 42.9342L56.2238 42.9298L56.2228 42.9254C55.8552 41.1905 54.1218 40.1384 52.441 40.559L52.4354 40.5604L43.2822 42.287L43.2826 42.2906L41.9027 42.6353C40.5098 42.9832 39.69 44.4221 40.1104 45.7949C41.1274 49.116 42.847 54.6213 43.2826 55.3277C44.3693 57.1415 45.457 58.3318 47.8021 58.3318H65.5333C68.7936 58.3318 71.5391 55.9511 71.9967 52.7202L76.0577 25.9093C76.2865 24.0387 74.9137 22.2816 72.969 21.9982Z" fill="#6C5C99"/>
<path d="M43.1044 40.7083L49.4099 39.5731V33.0433C49.4099 32.5708 49.478 32.116 49.6046 31.6866L47.7073 17.6843C47.4785 15.7571 45.6858 14.346 43.7411 14.5727C41.7964 14.7995 40.3664 16.4999 40.5952 18.4271L43.1044 40.7083Z" fill="#6C5C99"/>
<path d="M50.9197 39.3013L52.0893 39.0907C54.2777 38.5507 56.5224 39.6842 57.4101 41.7091C57.7632 41.1778 57.9652 40.5375 57.9652 39.8373V33.0433C57.9652 31.175 56.38 29.6464 54.4425 29.6464C52.5049 29.6464 50.9197 31.175 50.9197 33.0433L50.9197 39.3013Z" fill="#6C5C99"/>
<path d="M62.7464 43.7375C60.9472 43.7375 59.4752 42.2088 59.4752 40.3405V33.5466C59.4752 31.6783 60.9472 30.1496 62.7464 30.1496C64.5455 30.1496 66.0175 31.6783 66.0175 33.5466V40.3405C66.0175 42.2654 64.6 43.7375 62.7464 43.7375Z" fill="#6C5C99"/>
<path d="M65.6177 65.4305L65.6165 65.4282C65.614 65.4223 65.6119 65.4174 65.6102 65.4133C65.6127 65.4191 65.6153 65.4249 65.6177 65.4305Z" fill="#403366"/>
<path fill-rule="evenodd" clip-rule="evenodd" d="M48.3667 60.4585V59.8416H67.1959C67.5228 61.0074 68.4412 63.8966 69.818 65.148C70.1141 65.4172 70.146 65.9255 69.7625 66.0399C69.2711 66.1866 68.6786 66.2455 68.1279 66.0919C68.4533 66.9348 68.853 67.6678 69.3286 68.1509C69.6094 68.436 69.6278 68.9269 69.2415 69.0312C68.5933 69.2062 67.7096 69.3328 67.0245 69.1517V76.9522C67.0245 77.2887 66.7356 77.5428 66.4436 77.3755C64.9936 76.5451 64.104 74.5488 63.9518 73.5987C62.7671 74.9371 63.244 76.3705 63.8726 77.652C64.0457 78.0051 63.7756 78.4028 63.4013 78.2824C61.2026 77.5756 60.2174 74.9569 59.987 73.5987C59.3993 77.0093 58.0194 78.2107 56.8655 78.4525C56.4745 78.5345 56.3193 78.0767 56.5613 77.759C58.2258 75.574 57.017 73.7347 55.1866 73.963C53.8429 74.3461 54.2493 75.8934 54.6329 76.9017C54.7647 77.2482 54.5028 77.6042 54.1463 77.5023C52.056 76.9044 51.3194 74.7254 51.3967 73.5987C50.8002 76.0813 49.1173 77.0628 47.7375 77.2842C47.2711 77.3591 47.1383 76.7411 47.4175 76.3601C48.163 75.3426 48.372 74.0495 48.4042 72.9261V68.5235C47.6598 68.7769 46.8067 68.7253 46.1793 68.5468C45.7944 68.4373 45.8197 67.9318 46.1005 67.6466C47.5 66.2253 48.2423 62.6403 48.3667 60.4585ZM54.9466 63.8676C54.9466 63.4507 54.6087 63.1127 54.1918 63.1127C53.7749 63.1127 53.4369 63.4507 53.4369 63.8676C53.4369 64.6375 53.4338 65.4969 53.2661 66.2515C53.0979 67.0087 52.8012 67.4933 52.3444 67.7217C51.9715 67.9081 51.8204 68.3615 52.0068 68.7344C52.1933 69.1073 52.6467 69.2585 53.0196 69.072C54.0726 68.5455 54.5308 67.5204 54.7399 66.579C54.9467 65.6485 54.9467 64.6364 54.9466 63.899L54.9466 63.8676ZM59.9788 66.1322C59.5619 66.1322 59.2239 66.4702 59.2239 66.8871C59.2239 67.6075 59.3665 68.3071 59.501 68.8115C59.5692 69.0672 59.6375 69.2808 59.6894 69.4319C59.7153 69.5077 59.7373 69.5681 59.7532 69.6109C59.7578 69.6231 59.7619 69.6339 59.7654 69.6432C59.7681 69.6501 59.7704 69.6562 59.7724 69.6614L59.7782 69.6762L59.7799 69.6806L59.7807 69.6825L59.7812 69.6837C59.936 70.0708 60.3753 70.2591 60.7624 70.1042C61.1494 69.9495 61.3376 69.5104 61.1831 69.1234L61.1804 69.1164C61.1788 69.1123 61.1766 69.1066 61.1739 69.0994C61.172 69.0946 61.17 69.089 61.1676 69.0828C61.1561 69.0518 61.1387 69.0042 61.1175 68.9423C61.075 68.8182 61.0175 68.6386 60.9598 68.4225C60.8427 67.9834 60.7337 67.4248 60.7337 66.8871C60.7337 66.4702 60.3957 66.1322 59.9788 66.1322ZM63.2556 62.9547C63.2039 62.541 63.4974 62.1637 63.9111 62.112L65.6172 65.4297C65.6174 65.4302 65.6176 65.4308 65.6179 65.4313L65.6184 65.432C65.7158 65.6513 65.7962 66.2354 65.4641 66.4844C65.1306 66.7346 64.6574 66.667 64.4073 66.3335C64.3874 66.3061 64.4069 66.333 64.4069 66.333L64.4065 66.3325L64.4057 66.3314L64.4039 66.3289L64.3994 66.3229L64.3874 66.3061C64.378 66.293 64.366 66.2757 64.3517 66.2544C64.323 66.2117 64.285 66.1526 64.2402 66.0772C64.1507 65.9264 64.034 65.7101 63.9107 65.4282C63.6638 64.864 63.3912 64.0389 63.2556 62.9547ZM65.6177 65.4305L65.6188 65.4326L65.6184 65.432C65.6462 65.4788 65.5844 65.3516 65.6102 65.4133C65.4097 64.9542 64.8682 63.6833 64.7537 62.7674C64.702 62.3537 64.3247 62.0603 63.9111 62.112L65.6165 65.4282C65.6167 65.4287 65.617 65.4292 65.6172 65.4297L65.6184 65.432C65.6182 65.4315 65.6179 65.431 65.6177 65.4305Z" fill="#403366"/>
<path d="M54.2455 44.9611C54.1319 44.9637 54.0196 45.023 53.9628 45.0243C52.0399 45.4081 51.1239 42.5283 52.9812 41.7479C53.0935 41.6885 53.2071 41.686 53.3194 41.6266C55.0682 41.0761 60.6427 41.4073 60.6427 41.4073C60.6427 41.4073 55.9943 44.4106 54.2455 44.9611Z" fill="#B2A1E6"/>
<path d="M60.9849 41.0851C60.9849 40.9693 60.9849 40.8535 60.9849 40.7956C61.1022 38.7685 64.154 38.6527 64.4475 40.6218C64.466 40.7462 64.5006 40.7956 64.5061 40.9693C64.5648 42.8226 62.8629 48.2667 62.8629 48.2667C62.8629 48.2667 61.0436 42.9384 60.9849 41.0851Z" fill="#B2A1E6"/>
<path fill-rule="evenodd" clip-rule="evenodd" d="M86.2289 17.9095C85.7597 18.7545 86.0644 19.8198 86.9094 20.2889C87.7544 20.7581 88.8198 20.4534 89.2889 19.6084C89.758 18.7634 89.4533 17.6981 88.6084 17.2289C87.7634 16.7598 86.698 17.0645 86.2289 17.9095ZM84.6989 17.06C83.7606 18.75 84.37 20.8807 86.06 21.8189C87.75 22.7572 89.8806 22.1478 90.8189 20.4578C91.7572 18.7678 91.1478 16.6372 89.4578 15.6989C87.7678 14.7606 85.6372 15.37 84.6989 17.06Z" fill="#E6004C"/>
<path d="M74.4186 3.5692L72.1236 2.29501L71.2741 3.82502L73.5692 5.09921L72.295 7.39422L73.825 8.24367L75.0992 5.94866L77.3942 7.22285L78.2436 5.69284L75.9486 4.41866L77.2228 2.12365L75.6928 1.27419L74.4186 3.5692Z" fill="#E6004C"/>
</svg>
