<svg width="116" height="86" viewBox="0 0 116 86" fill="none" xmlns="http://www.w3.org/2000/svg">
<path d="M50.4781 22.4471C52.8468 16.3205 58.802 11.9743 65.7739 11.9743C67.1517 11.9743 68.4896 12.144 69.7682 12.4637C67.1376 10.6681 63.9561 9.61792 60.5291 9.61792C52.6928 9.61792 46.1408 15.1087 44.5225 22.4471H50.4781Z" fill="#332E4D"/>
<path d="M58.3009 72.1931H55.154C54.2851 72.1931 53.5806 72.8964 53.5806 73.764C53.5806 74.6316 54.2851 75.3349 55.154 75.3349H58.3009V72.1931Z" fill="#403366"/>
<path d="M63.7812 75.3347H57.7472C56.8796 75.3347 56.1763 74.6314 56.1763 73.7638C56.1763 72.8962 56.8796 72.1929 57.7472 72.1929H63.7812C68.1506 72.1929 71.74 68.859 72.1365 64.6001H75.2934C74.889 70.5961 69.8893 75.3347 63.7812 75.3347Z" fill="#5F5980"/>
<ellipse cx="57.4863" cy="41.1673" rx="24.4868" ry="24.4802" fill="#8E7CBF"/>
<mask id="mask0" mask-type="alpha" maskUnits="userSpaceOnUse" x="32" y="16" width="50" height="50">
<ellipse cx="57.4863" cy="41.1673" rx="24.4868" ry="24.4802" fill="#201C33"/>
</mask>
<g mask="url(#mask0)">
<rect x="24.8369" y="31.5502" width="25.6528" height="9.61723" rx="4.80861" fill="#403366"/>
<rect x="32.2144" y="54.9128" width="25.6653" height="7.06915" rx="3.53458" fill="#403366"/>
<rect x="64.1909" y="46.996" width="25.6528" height="9.61723" rx="4.80861" fill="#403366"/>
<rect x="60.9834" y="19.8929" width="25.6528" height="9.61723" rx="4.80861" fill="#403366"/>
<rect x="16.2388" y="39.9892" width="25.6528" height="5.53719" rx="2.76859" fill="#403366"/>
<rect x="73.8096" y="42.9161" width="25.6528" height="5.53719" rx="2.76859" fill="#403366"/>
</g>
<path d="M73.7714 64.6745C77.4718 62.8172 80.0651 58.501 80.0651 53.4729C80.0651 48.4448 77.4718 44.1286 73.7714 42.2713V41.2982H69.8377V41.2992C69.7941 41.2986 69.7504 41.2982 69.7066 41.2982C63.9857 41.2982 59.3481 46.749 59.3481 53.4729C59.3481 60.1968 63.9857 65.6475 69.7066 65.6475C69.7504 65.6475 69.7941 65.6472 69.8377 65.6466V65.6475H73.7714V64.6745Z" fill="#332E4D"/>
<ellipse cx="73.6412" cy="53.4729" rx="10.3585" ry="12.1746" fill="#5F5980"/>
<path d="M81.1899 53.4728C81.1899 58.5542 77.7634 62.5079 73.7235 62.5079C69.6836 62.5079 66.2571 58.5542 66.2571 53.4728C66.2571 48.3913 69.6836 44.4376 73.7235 44.4376C77.7634 44.4376 81.1899 48.3913 81.1899 53.4728Z" fill="#161326" stroke="#E6004C" stroke-width="1.04258"/>
<path d="M67.5688 19.4362C69.2711 22.3162 70.0691 26.4916 70.0691 28.3911V53.3419C70.0691 54.7879 71.2527 55.9601 72.6992 55.9601C74.1458 55.9601 75.3284 54.7879 75.3284 53.3419V26.028C75.3284 24.9833 74.4343 19.7722 74.2471 18.7816L67.5688 19.4362Z" fill="#161326"/>
<path d="M55.1806 11.981C53.808 11.981 52.6052 12.1774 51.3315 12.4979C53.9524 10.6973 56.9916 9.61792 60.4059 9.61792C69.4241 9.61792 76.7349 16.965 76.7349 26.0281V53.3537C76.7349 54.7932 75.5618 55.9601 74.1223 55.9601C72.6828 55.9601 71.5096 54.7932 71.5096 53.3537V28.3911C71.5096 19.3281 64.1988 11.981 55.1806 11.981Z" fill="#5F5980"/>
<rect x="48.1611" y="70.8839" width="10.2137" height="5.49823" rx="2.74911" fill="#0D0A1A"/>
<rect x="47.1416" y="70.8839" width="9.68995" height="5.49823" rx="2.74911" fill="#332E4D"/>
<path fill-rule="evenodd" clip-rule="evenodd" d="M65.6517 16.8793C63.6288 14.6329 60.535 12.6398 55.9025 12.7654C52.5 12.8576 49.9909 14.4384 48.2177 16.4296C46.4333 18.4334 45.432 20.6842 45.0463 22.3205H43.7368C44.1652 20.5036 45.2908 17.7477 47.2397 15.5592C49.1999 13.358 52.0304 11.5607 55.867 11.4567C60.9543 11.3189 64.3973 13.5297 66.6249 16.0034C68.8365 18.4595 70.0167 21.3737 70.3187 22.3205H68.7474C68.4747 21.4656 67.6906 19.1435 65.6517 16.8793Z" fill="#161326"/>
<path d="M43.9996 20.7452L46.4876 19.3052C46.2693 20.5271 45.8329 22.9969 45.8329 23.1016C45.8329 23.2064 43.9996 23.1453 43.083 23.1016L43.9996 20.7452Z" fill="#797399"/>
</svg>
