<svg width="116" height="86" viewBox="0 0 116 86" fill="none" xmlns="http://www.w3.org/2000/svg">
<path d="M57.4623 22.2736H65.201L67.666 13.1646H57.4623V22.2736Z" fill="#8E7CBF"/>
<path d="M57.9994 22.2736H50.4643L47.7957 13.1646H57.9994V22.2736Z" fill="#8E7CBF"/>
<path opacity="0.4" d="M72.5984 18.588L70.7006 22.5201C80.9936 26.7752 88.0734 36.0653 88.0734 46.8409C88.0734 61.6402 74.6088 73.6376 57.9994 73.6376C41.3899 73.6376 27.9253 61.6402 27.9253 46.8409C27.9253 36.0653 35.0051 26.7752 45.2982 22.5201L43.4003 18.588V18.4423C43.4003 17.5576 49.9365 16.8403 57.9994 16.8403C66.0622 16.8403 72.5984 17.5576 72.5984 18.4423V18.588Z" fill="#B2A1E6"/>
<path opacity="0.7" d="M32.8852 43.9639C32.5998 45.264 32.3054 46.6047 32.3054 47.9752C32.3054 59.9643 43.7263 69.6834 57.8147 69.6834C71.9031 69.6834 83.3239 59.9643 83.3239 47.9752C83.3239 46.6047 83.2569 45.0065 82.9715 43.7065L32.8852 43.9639Z" fill="url(#paint0_linear)"/>
<path d="M82.9727 43.7065C82.9727 45.314 72.0717 46.1616 58.1316 46.1616C44.1915 46.1616 32.8909 45.0821 32.8909 43.7504C32.8909 42.4187 44.1915 41.3392 58.1316 41.3392C72.0717 41.3392 82.9727 42.3748 82.9727 43.7065Z" fill="#AC033B"/>
<ellipse rx="1.72397" ry="1.71859" transform="matrix(-1 0 0 1 66.9748 61.0837)" fill="#7F0D46"/>
<ellipse rx="2.97776" ry="2.96847" transform="matrix(-1 0 0 1 56.0039 61.0837)" fill="#7F0D46"/>
<ellipse rx="2.97776" ry="2.96847" transform="matrix(-1 0 0 1 71.6753 52.9594)" fill="#7F0D46"/>
<ellipse cx="62.8997" cy="54.8342" rx="1.72397" ry="1.71859" fill="#7F0D46"/>
<path d="M46.8551 28.1079C44.1568 28.9809 42.2068 30.3925 40.8207 31.8244M36.9653 37.804L37.8863 35.8587" stroke="#B2A1E6" stroke-width="2.50759" stroke-linecap="round" stroke-linejoin="round"/>
<path d="M67.7244 13.1646C67.7244 13.9044 63.2724 14.5042 57.7807 14.5042C52.2889 14.5042 47.8369 13.9044 47.8369 13.1646C47.8369 12.4248 52.2889 11.825 57.7807 11.825C66.6494 11.825 67.7244 12.4248 67.7244 13.1646Z" fill="#403366"/>
<defs>
<linearGradient id="paint0_linear" x1="57.8147" y1="43.9639" x2="57.6616" y2="72.5164" gradientUnits="userSpaceOnUse">
<stop stop-color="#FF0055"/>
<stop offset="1" stop-color="#FF0055" stop-opacity="0"/>
</linearGradient>
</defs>
</svg>
