<svg width="124" height="86" viewBox="0 0 124 86" fill="none" xmlns="http://www.w3.org/2000/svg">
<g clip-path="url(#clip0)">
<path d="M55.8986 52.8712C55.4384 51.9144 55.841 50.7656 56.7978 50.3054C57.7547 49.8451 58.9034 50.2477 59.3637 51.2046L61.4749 55.594C61.9351 56.5508 61.5325 57.6996 60.5757 58.1598C59.6188 58.62 58.4701 58.2174 58.0098 57.2606L55.8986 52.8712Z" fill="#797399"/>
<path d="M39.4566 61.0552C39.0348 58.3938 40.4092 55.7708 42.8375 54.6028C46.5194 52.8319 50.8673 55.1102 51.5069 59.1454L53.7067 73.026C54.1285 75.6874 52.7542 78.3103 50.3258 79.4783C46.644 81.2492 42.296 78.971 41.6565 74.9358L39.4566 61.0552Z" fill="#6C5C99"/>
<rect x="33.0427" y="56.3581" width="50.9466" height="7.50523" rx="3.75261" transform="rotate(-25.6868 33.0427 56.3581)" fill="#403366"/>
<rect x="24.4692" y="44.6319" width="61.5204" height="15.7368" rx="5" transform="rotate(-25.6868 24.4692 44.6319)" fill="#6C5C99"/>
<path d="M50.2407 32.2363L65.6169 24.8406L67.2549 28.2461C67.973 29.7392 67.3448 31.5318 65.8517 32.25L55.8826 37.0449C54.3895 37.7631 52.5969 37.1349 51.8787 35.6418L50.2407 32.2363Z" fill="#8E7CBF"/>
<ellipse cx="46.8723" cy="69.5869" rx="1.92251" ry="1.93683" transform="rotate(-25.6868 46.8723 69.5869)" fill="#8E7CBF"/>
<rect x="31.1821" y="41.4029" width="1.92251" height="7.98944" transform="rotate(-25.6868 31.1821 41.4029)" fill="#403366"/>
<rect x="35.2983" y="39.423" width="1.92251" height="7.98944" transform="rotate(-25.6868 35.2983 39.423)" fill="#403366"/>
<rect x="81.3795" y="21.0197" width="6.00785" height="6.0526" transform="rotate(-25.6868 81.3795 21.0197)" fill="#403366"/>
<rect x="69.5621" y="19.1817" width="6.00785" height="3.38946" transform="rotate(-25.6868 69.5621 19.1817)" fill="#403366"/>
<path d="M106.532 9.91736L87.6371 20.167L88.8469 22.6822L108.649 14.319L106.532 9.91736Z" fill="url(#paint0_linear)"/>
</g>
<defs>
<linearGradient id="paint0_linear" x1="87.2962" y1="22.6538" x2="107.032" y2="13.3522" gradientUnits="userSpaceOnUse">
<stop stop-color="#E6004C"/>
<stop offset="1" stop-color="#E6004C" stop-opacity="0"/>
</linearGradient>
<clipPath id="clip0">
<rect width="89.0004" height="46" fill="white" transform="matrix(-0.901177 0.433451 0.433451 0.901177 103.205 3)"/>
</clipPath>
</defs>
</svg>
