<svg width="116" height="86" viewBox="0 0 116 86" fill="none" xmlns="http://www.w3.org/2000/svg">
<path fill-rule="evenodd" clip-rule="evenodd" d="M61.6152 3.45298L63.2634 3.45717L63.2614 4.22467L63.9456 4.22646L63.9437 4.9925L64.6422 4.99433L64.6359 7.54976L63.253 7.54614L63.253 7.54741L63.9378 7.5492L63.9359 8.31606L63.2498 8.31426L63.2479 9.08123L62.5186 9.07932L62.5167 9.82002L61.8345 9.81823L61.8325 10.6101L61.1341 10.6083L61.1322 11.3746L60.1997 11.3721L60.2016 10.6058L60.2012 10.6058L60.2012 10.6054L59.4739 10.6035L59.4759 9.81206L58.8054 9.81031L58.8091 8.30187L58.8075 8.30187L58.8056 9.0687L58.1062 9.06687L58.1081 8.30023L57.4099 8.2984L57.4118 7.53154L58.1109 7.53337L58.1109 7.53269L57.4115 7.53086L57.4178 4.977L57.4177 4.977L57.4196 4.21014L58.119 4.21197L58.1171 4.97726L58.1174 4.97726L58.1213 3.44476L59.7526 3.44891L59.7507 4.21498L60.4476 4.2168L60.4457 4.98335L61.148 4.98519L61.1499 4.2196L61.6133 4.22081L61.6152 3.45298ZM57.4172 4.97665L57.4108 7.53209L56.7117 7.53026L56.718 4.97482L57.4172 4.97665Z" fill="#E6004C"/>
<path fill-rule="evenodd" clip-rule="evenodd" d="M55.2926 17.9674C54.6814 17.6932 54.0164 17.5179 53.318 17.4615V34.2261C53.318 34.6156 53.0023 34.9313 52.6128 34.9313C52.2233 34.9313 51.9076 34.6156 51.9076 34.2261V17.4542C51.2105 17.4987 50.5457 17.6615 49.933 17.9229V34.2261C49.933 34.6156 49.6172 34.9313 49.2278 34.9313C48.8383 34.9313 48.5225 34.6156 48.5225 34.2261V18.7688C47.1466 19.8743 46.2659 21.571 46.2659 23.4733V38.2095C46.2659 38.7484 46.3289 39.2885 46.5241 39.7908C46.6745 40.178 46.8801 40.6149 47.1121 40.8551C47.3998 41.1527 47.8914 41.6296 48.4062 42.121C49.6398 43.2988 50.342 44.9312 50.3173 46.6366L49.9614 71.1927C49.943 72.4674 50.2611 73.8108 51.2984 74.552C51.7117 74.8473 52.1728 75.0534 52.6128 74.9876C52.9896 74.9313 53.3523 74.6756 53.6618 74.3721C54.3806 73.6672 54.5925 72.6266 54.6023 71.6199L54.8513 45.8457C54.8632 44.6166 55.2264 43.3988 56.0438 42.4809C56.465 42.0078 56.9209 41.5677 57.2673 41.4192C57.8953 41.1501 58.3499 40.4333 58.6288 39.853C58.8861 39.3176 58.9578 38.7196 58.9539 38.1255L58.8579 23.4339C58.8459 21.5937 58.0107 19.9505 56.703 18.8523V34.2261C56.703 34.6156 56.3873 34.9313 55.9978 34.9313C55.6083 34.9313 55.2926 34.6156 55.2926 34.2261V17.9674ZM65.4478 50.7986V71.1851C65.4478 72.4645 65.7906 73.8039 66.8395 74.5366C67.2448 74.8198 67.6951 75.0233 68.1276 74.9876C68.501 74.9568 68.8736 74.7468 69.2053 74.4792C70.1095 73.7497 70.3843 72.536 70.3843 71.3742V20.8631C70.3843 18.1701 68.3232 15.692 66.024 17.094C65.0041 17.716 63.9755 18.7057 63.0888 20.224C62.6529 20.9704 62.4859 21.8383 62.4859 22.7027V47.8367C62.4859 48.6546 63.1489 49.3177 63.9669 49.3177C64.7848 49.3177 65.4478 49.9807 65.4478 50.7986Z" fill="#6C5C99"/>
<path d="M54.6844 64.1062L50.0543 68.7363C50.0543 70.0832 49.9136 70.7005 50.0539 71.6827L54.6844 67.0526V64.1062Z" fill="#8E7CBF"/>
<path d="M62.6816 38.4302L70.2581 28.3282V33.8001L62.6816 43.4812V38.4302Z" fill="#8E7CBF"/>
<path d="M46.2659 18.5702C46.2659 17.947 46.771 17.4418 47.3942 17.4418C48.0174 17.4418 48.5226 17.947 48.5226 18.5702V35.4954H46.2659V18.5702Z" fill="#6C5C99"/>
<path d="M49.9324 17.583C49.9324 17.0377 50.3744 16.5957 50.9197 16.5957C51.465 16.5957 51.907 17.0377 51.907 17.583V34.6493H49.9324V17.583Z" fill="#6C5C99"/>
<path d="M53.3179 17.583C53.3179 17.0377 53.7599 16.5957 54.3052 16.5957C54.8505 16.5957 55.2925 17.0377 55.2925 17.583V34.6493H53.3179V17.583Z" fill="#6C5C99"/>
<path d="M56.7034 18.5702C56.7034 17.947 57.2085 17.4418 57.8317 17.4418C58.4549 17.4418 58.9601 17.947 58.9601 18.5702V35.4954H56.7034V18.5702Z" fill="#6C5C99"/>
</svg>
