<svg width="121" height="86" viewBox="0 0 121 86" fill="none" xmlns="http://www.w3.org/2000/svg">
<g clip-path="url(#clip0)">
<path d="M59.6318 35.4492L68.8573 24.3347L55.5199 13.2641L49.7314 20.2379L59.6318 35.4492Z" fill="#8E7CBF"/>
<path d="M71.4243 44.6118L80.6498 33.4973L93.9872 44.5679L88.1755 51.5696L71.4243 44.6118Z" fill="#6C5C99"/>
<rect x="87.2219" y="52.7185" width="12.037" height="2.88889" rx="1.44444" transform="rotate(-50.3059 87.2219 52.7185)" fill="#8E7CBF"/>
<rect x="46.5317" y="19.5696" width="12.037" height="2.88889" rx="1.44444" transform="rotate(-50.3059 46.5317 19.5696)" fill="#B2A1E6"/>
<path d="M59.6318 35.4492L69.069 24.0796L91.8037 6.35109C92.3685 5.91062 93.2953 5.82374 93.8511 6.28502L65.5595 40.3695L59.6318 35.4492Z" fill="#8E7CBF"/>
<path d="M71.4872 45.2897L80.92 33.9255L94.176 8.34646C94.5273 7.66866 94.4068 6.74631 93.8511 6.28503L65.5595 40.3695L71.4872 45.2897Z" fill="#6C5C99"/>
<path d="M67.3638 48.75L81.5095 31.7078C82.3587 30.6848 83.8765 30.5438 84.8996 31.393C85.9226 32.2422 86.0636 33.7599 85.2144 34.783L71.0686 51.8252L67.3638 48.75Z" fill="#8E7CBF"/>
<path d="M53.2854 37.0644L67.4312 20.0222C68.2804 18.9991 69.7981 18.8582 70.8212 19.7073C71.8442 20.5565 71.9852 22.0743 71.136 23.0973L56.9902 40.1396L53.2854 37.0644Z" fill="#B2A1E6"/>
<path d="M64.0996 50.4209L67.3637 48.75L71.0685 51.8252L70.0273 55.3411L64.0996 50.4209Z" fill="#6C5C99"/>
<path d="M50.0212 38.7352L53.2853 37.0644L56.9901 40.1396L55.949 43.6555L50.0212 38.7352Z" fill="#6C5C99"/>
<path d="M74.1628 26.2355L77.3918 22.3454C78.3259 21.22 79.9954 21.065 81.1208 21.9991C82.2461 22.9332 82.4012 24.6027 81.4671 25.7281L78.2382 29.6182L74.1628 26.2355Z" fill="#161326"/>
<path d="M91.6515 13.2195L87.4622 9.74222L91.6806 6.27529C92.2136 5.85946 93.1548 5.70709 93.8511 6.28502C94.5474 6.86296 94.5766 7.75353 94.2535 8.42001L91.6515 13.2195Z" fill="#403366"/>
<rect opacity="0.2" x="65.2109" y="51.3434" width="4.81481" height="68.3704" transform="rotate(39.6941 65.2109 51.3434)" fill="#FF0055"/>
<rect opacity="0.2" x="51.1328" y="39.6577" width="4.81481" height="68.3704" transform="rotate(39.6941 51.1328 39.6577)" fill="#FF0055"/>
<path d="M49.6004 42.2576C50.3116 41.4008 51.5516 41.257 52.37 41.9363C53.1885 42.6157 53.2754 43.861 52.5643 44.7177C51.8531 45.5745 48.2647 46.8822 48.3766 46.7474C48.3766 46.7474 48.8892 43.1144 49.6004 42.2576Z" fill="#FF0055"/>
<ellipse cx="51.1562" cy="43.4317" rx="0.964067" ry="0.940792" transform="rotate(-138.972 51.1562 43.4317)" fill="#B2A1E6"/>
<path d="M63.6788 53.9432C64.39 53.0865 65.63 52.9426 66.4484 53.622C67.2669 54.3013 67.3538 55.5466 66.6426 56.4034C65.9315 57.2602 62.3431 58.5678 62.455 58.4331C62.455 58.4331 62.9676 54.8 63.6788 53.9432Z" fill="#FF0055"/>
<circle cx="65.2183" cy="55.1039" r="0.962963" transform="rotate(-140.306 65.2183 55.1039)" fill="#B2A1E6"/>
</g>
<defs>
<clipPath id="clip0">
<rect width="104" height="77.037" fill="white"/>
</clipPath>
</defs>
</svg>
