<svg width="423" height="115" viewBox="0 0 423 115" fill="none" xmlns="http://www.w3.org/2000/svg">
<path d="M184.041 98.969V109H182.851V101.629C182.851 101.531 182.854 101.426 182.858 101.314C182.868 101.202 182.877 101.088 182.886 100.971L179.442 107.243C179.335 107.453 179.172 107.558 178.952 107.558H178.756C178.537 107.558 178.374 107.453 178.266 107.243L174.752 100.943C174.78 101.19 174.794 101.419 174.794 101.629V109H173.604V98.969H174.605C174.727 98.969 174.82 98.9807 174.885 99.004C174.951 99.0273 175.014 99.0927 175.074 99.2L178.539 105.374C178.595 105.486 178.649 105.603 178.7 105.724C178.756 105.845 178.808 105.969 178.854 106.095C178.901 105.969 178.95 105.845 179.001 105.724C179.053 105.598 179.109 105.479 179.169 105.367L182.571 99.2C182.627 99.0927 182.688 99.0273 182.753 99.004C182.823 98.9807 182.919 98.969 183.04 98.969H184.041ZM190.839 104.681C190.839 104.392 190.797 104.128 190.713 103.89C190.634 103.647 190.515 103.44 190.356 103.267C190.202 103.09 190.013 102.954 189.789 102.861C189.565 102.763 189.311 102.714 189.026 102.714C188.429 102.714 187.955 102.889 187.605 103.239C187.26 103.584 187.045 104.065 186.961 104.681H190.839ZM191.847 108.006C191.693 108.193 191.509 108.356 191.294 108.496C191.08 108.631 190.849 108.743 190.601 108.832C190.359 108.921 190.107 108.986 189.845 109.028C189.584 109.075 189.325 109.098 189.068 109.098C188.578 109.098 188.126 109.016 187.71 108.853C187.3 108.685 186.943 108.442 186.639 108.125C186.341 107.803 186.107 107.406 185.939 106.935C185.771 106.464 185.687 105.922 185.687 105.311C185.687 104.816 185.762 104.354 185.911 103.925C186.065 103.496 186.285 103.125 186.569 102.812C186.854 102.495 187.202 102.247 187.612 102.07C188.023 101.888 188.485 101.797 188.998 101.797C189.423 101.797 189.815 101.869 190.174 102.014C190.538 102.154 190.851 102.359 191.112 102.63C191.378 102.896 191.586 103.227 191.735 103.624C191.885 104.016 191.959 104.464 191.959 104.968C191.959 105.164 191.938 105.295 191.896 105.36C191.854 105.425 191.775 105.458 191.658 105.458H186.919C186.933 105.906 186.994 106.296 187.101 106.627C187.213 106.958 187.367 107.236 187.563 107.46C187.759 107.679 187.993 107.845 188.263 107.957C188.534 108.064 188.837 108.118 189.173 108.118C189.486 108.118 189.754 108.083 189.978 108.013C190.207 107.938 190.403 107.859 190.566 107.775C190.73 107.691 190.865 107.614 190.972 107.544C191.084 107.469 191.18 107.432 191.259 107.432C191.362 107.432 191.441 107.472 191.497 107.551L191.847 108.006ZM194.666 102.938C194.82 102.765 194.983 102.609 195.156 102.469C195.329 102.329 195.511 102.21 195.702 102.112C195.898 102.009 196.103 101.932 196.318 101.881C196.537 101.825 196.773 101.797 197.025 101.797C197.412 101.797 197.753 101.862 198.047 101.993C198.346 102.119 198.593 102.301 198.789 102.539C198.99 102.772 199.141 103.055 199.244 103.386C199.347 103.717 199.398 104.084 199.398 104.485V109H198.145V104.485C198.145 103.948 198.021 103.533 197.774 103.239C197.531 102.94 197.16 102.791 196.661 102.791C196.292 102.791 195.947 102.88 195.625 103.057C195.308 103.234 195.014 103.475 194.743 103.778V109H193.49V101.909H194.239C194.416 101.909 194.526 101.995 194.568 102.168L194.666 102.938ZM203.378 109.112C202.818 109.112 202.386 108.956 202.083 108.643C201.784 108.33 201.635 107.88 201.635 107.292V102.952H200.781C200.706 102.952 200.643 102.931 200.592 102.889C200.541 102.842 200.515 102.772 200.515 102.679V102.182L201.677 102.035L201.964 99.844C201.978 99.774 202.008 99.718 202.055 99.676C202.106 99.6293 202.172 99.606 202.251 99.606H202.881V102.049H204.932V102.952H202.881V107.208C202.881 107.507 202.953 107.728 203.098 107.873C203.243 108.018 203.429 108.09 203.658 108.09C203.789 108.09 203.901 108.074 203.994 108.041C204.092 108.004 204.176 107.964 204.246 107.922C204.316 107.88 204.374 107.843 204.421 107.81C204.472 107.773 204.517 107.754 204.554 107.754C204.619 107.754 204.678 107.794 204.729 107.873L205.093 108.468C204.878 108.669 204.619 108.827 204.316 108.944C204.013 109.056 203.7 109.112 203.378 109.112ZM209.166 101.797C209.684 101.797 210.151 101.883 210.566 102.056C210.982 102.229 211.336 102.474 211.63 102.791C211.924 103.108 212.148 103.493 212.302 103.946C212.461 104.394 212.54 104.896 212.54 105.451C212.54 106.011 212.461 106.515 212.302 106.963C212.148 107.411 211.924 107.794 211.63 108.111C211.336 108.428 210.982 108.673 210.566 108.846C210.151 109.014 209.684 109.098 209.166 109.098C208.644 109.098 208.172 109.014 207.752 108.846C207.337 108.673 206.982 108.428 206.688 108.111C206.394 107.794 206.168 107.411 206.009 106.963C205.855 106.515 205.778 106.011 205.778 105.451C205.778 104.896 205.855 104.394 206.009 103.946C206.168 103.493 206.394 103.108 206.688 102.791C206.982 102.474 207.337 102.229 207.752 102.056C208.172 101.883 208.644 101.797 209.166 101.797ZM209.166 108.125C209.866 108.125 210.389 107.892 210.734 107.425C211.08 106.954 211.252 106.298 211.252 105.458C211.252 104.613 211.08 103.955 210.734 103.484C210.389 103.013 209.866 102.777 209.166 102.777C208.812 102.777 208.501 102.838 208.235 102.959C207.974 103.08 207.755 103.255 207.577 103.484C207.405 103.713 207.274 103.995 207.185 104.331C207.101 104.662 207.059 105.038 207.059 105.458C207.059 106.298 207.232 106.954 207.577 107.425C207.927 107.892 208.457 108.125 209.166 108.125ZM215.304 103.33C215.528 102.845 215.803 102.467 216.13 102.196C216.456 101.921 216.855 101.783 217.327 101.783C217.476 101.783 217.618 101.799 217.754 101.832C217.894 101.865 218.017 101.916 218.125 101.986L218.034 102.917C218.006 103.034 217.936 103.092 217.824 103.092C217.758 103.092 217.663 103.078 217.537 103.05C217.411 103.022 217.268 103.008 217.11 103.008C216.886 103.008 216.685 103.041 216.508 103.106C216.335 103.171 216.179 103.269 216.039 103.4C215.903 103.526 215.78 103.685 215.668 103.876C215.56 104.063 215.462 104.277 215.374 104.52V109H214.121V101.909H214.835C214.97 101.909 215.063 101.935 215.115 101.986C215.166 102.037 215.201 102.126 215.22 102.252L215.304 103.33ZM220.536 101.909V109H219.29V101.909H220.536ZM220.802 99.683C220.802 99.8043 220.777 99.9187 220.725 100.026C220.679 100.129 220.613 100.222 220.529 100.306C220.45 100.385 220.354 100.448 220.242 100.495C220.135 100.542 220.021 100.565 219.899 100.565C219.778 100.565 219.664 100.542 219.556 100.495C219.454 100.448 219.363 100.385 219.283 100.306C219.204 100.222 219.141 100.129 219.094 100.026C219.048 99.9187 219.024 99.8043 219.024 99.683C219.024 99.5617 219.048 99.4473 219.094 99.34C219.141 99.228 219.204 99.1323 219.283 99.053C219.363 98.969 219.454 98.9037 219.556 98.857C219.664 98.8103 219.778 98.787 219.899 98.787C220.021 98.787 220.135 98.8103 220.242 98.857C220.354 98.9037 220.45 98.969 220.529 99.053C220.613 99.1323 220.679 99.228 220.725 99.34C220.777 99.4473 220.802 99.5617 220.802 99.683ZM223.76 102.938C223.914 102.765 224.077 102.609 224.25 102.469C224.422 102.329 224.604 102.21 224.796 102.112C224.992 102.009 225.197 101.932 225.412 101.881C225.631 101.825 225.867 101.797 226.119 101.797C226.506 101.797 226.847 101.862 227.141 101.993C227.439 102.119 227.687 102.301 227.883 102.539C228.083 102.772 228.235 103.055 228.338 103.386C228.44 103.717 228.492 104.084 228.492 104.485V109H227.239V104.485C227.239 103.948 227.115 103.533 226.868 103.239C226.625 102.94 226.254 102.791 225.755 102.791C225.386 102.791 225.041 102.88 224.719 103.057C224.401 103.234 224.107 103.475 223.837 103.778V109H222.584V101.909H223.333C223.51 101.909 223.62 101.995 223.662 102.168L223.76 102.938ZM232.861 105.535C233.113 105.535 233.335 105.5 233.526 105.43C233.718 105.36 233.879 105.262 234.009 105.136C234.14 105.01 234.238 104.861 234.303 104.688C234.369 104.511 234.401 104.317 234.401 104.107C234.401 103.673 234.268 103.328 234.002 103.071C233.741 102.814 233.361 102.686 232.861 102.686C232.357 102.686 231.972 102.814 231.706 103.071C231.445 103.328 231.314 103.673 231.314 104.107C231.314 104.317 231.347 104.511 231.412 104.688C231.482 104.861 231.583 105.01 231.713 105.136C231.844 105.262 232.005 105.36 232.196 105.43C232.388 105.5 232.609 105.535 232.861 105.535ZM235.108 109.385C235.108 109.212 235.059 109.072 234.961 108.965C234.863 108.858 234.73 108.774 234.562 108.713C234.399 108.652 234.208 108.61 233.988 108.587C233.769 108.559 233.536 108.538 233.288 108.524C233.046 108.51 232.798 108.496 232.546 108.482C232.294 108.468 232.052 108.445 231.818 108.412C231.557 108.533 231.342 108.687 231.174 108.874C231.011 109.056 230.929 109.271 230.929 109.518C230.929 109.677 230.969 109.824 231.048 109.959C231.132 110.099 231.258 110.218 231.426 110.316C231.594 110.419 231.804 110.498 232.056 110.554C232.313 110.615 232.614 110.645 232.959 110.645C233.295 110.645 233.596 110.615 233.862 110.554C234.128 110.493 234.352 110.407 234.534 110.295C234.721 110.183 234.863 110.05 234.961 109.896C235.059 109.742 235.108 109.572 235.108 109.385ZM236.375 102.189V102.651C236.375 102.805 236.277 102.903 236.081 102.945L235.276 103.05C235.435 103.358 235.514 103.699 235.514 104.072C235.514 104.417 235.447 104.732 235.311 105.017C235.181 105.297 234.999 105.537 234.765 105.738C234.532 105.939 234.252 106.093 233.925 106.2C233.599 106.307 233.244 106.361 232.861 106.361C232.53 106.361 232.217 106.321 231.923 106.242C231.774 106.335 231.66 106.436 231.58 106.543C231.501 106.646 231.461 106.751 231.461 106.858C231.461 107.026 231.529 107.154 231.664 107.243C231.804 107.327 231.986 107.388 232.21 107.425C232.434 107.462 232.689 107.486 232.973 107.495C233.263 107.504 233.557 107.521 233.855 107.544C234.159 107.563 234.453 107.598 234.737 107.649C235.027 107.7 235.283 107.784 235.507 107.901C235.731 108.018 235.911 108.179 236.046 108.384C236.186 108.589 236.256 108.855 236.256 109.182C236.256 109.485 236.179 109.779 236.025 110.064C235.876 110.349 235.659 110.601 235.374 110.82C235.09 111.044 234.74 111.221 234.324 111.352C233.914 111.487 233.449 111.555 232.931 111.555C232.413 111.555 231.961 111.504 231.573 111.401C231.186 111.298 230.864 111.161 230.607 110.988C230.351 110.815 230.157 110.615 230.026 110.386C229.9 110.162 229.837 109.926 229.837 109.679C229.837 109.329 229.947 109.033 230.166 108.79C230.386 108.547 230.687 108.354 231.069 108.209C230.859 108.116 230.691 107.992 230.565 107.838C230.444 107.679 230.383 107.467 230.383 107.201C230.383 107.098 230.402 106.993 230.439 106.886C230.477 106.774 230.533 106.664 230.607 106.557C230.687 106.445 230.782 106.34 230.894 106.242C231.006 106.144 231.137 106.058 231.286 105.983C230.936 105.787 230.663 105.528 230.467 105.206C230.271 104.879 230.173 104.501 230.173 104.072C230.173 103.727 230.239 103.414 230.369 103.134C230.505 102.849 230.691 102.609 230.929 102.413C231.167 102.212 231.45 102.058 231.776 101.951C232.108 101.844 232.469 101.79 232.861 101.79C233.169 101.79 233.456 101.825 233.722 101.895C233.988 101.96 234.231 102.058 234.45 102.189H236.375Z" fill="#797399"/>
<g clip-path="url(#clip0)">
<path d="M182 23.7755L195.236 6H229V73H182V23.7755Z" fill="#6C5C99"/>
<path d="M194.412 62.5881V53.4119H197.588V62.5881H194.412Z" fill="#8E7CBF" stroke="#8E7CBF" stroke-width="0.82384"/>
<path d="M217 18L214.689 20.7388L217 18Z" fill="#8E7CBF"/>
<path d="M193 49C200.796 44.118 213.5 36 217 18M217 18L218.03 21.5524M217 18L214.689 20.7388" stroke="#8E7CBF" stroke-width="0.742474" stroke-linecap="round"/>
<path d="M201.412 62.5881V49.4119H205.588V62.5881H201.412Z" fill="#8E7CBF" stroke="#8E7CBF" stroke-width="0.82384"/>
<path d="M208.412 62.5881V42.4119H212.588V62.5881H208.412Z" fill="#8E7CBF" stroke="#8E7CBF" stroke-width="0.82384"/>
<path d="M216.412 62.5881V32.4119H220.588V62.5881H216.412Z" fill="#8E7CBF" stroke="#8E7CBF" stroke-width="0.82384"/>
<path d="M196 23.9998H182L196 6V23.9998Z" fill="#8E7CBF"/>
</g>
<path d="M352.182 98.969V109H350.992V101.629C350.992 101.531 350.994 101.426 350.999 101.314C351.008 101.202 351.018 101.088 351.027 100.971L347.583 107.243C347.476 107.453 347.312 107.558 347.093 107.558H346.897C346.678 107.558 346.514 107.453 346.407 107.243L342.893 100.943C342.921 101.19 342.935 101.419 342.935 101.629V109H341.745V98.969H342.746C342.867 98.969 342.961 98.9807 343.026 99.004C343.091 99.0273 343.154 99.0927 343.215 99.2L346.68 105.374C346.736 105.486 346.79 105.603 346.841 105.724C346.897 105.845 346.948 105.969 346.995 106.095C347.042 105.969 347.091 105.845 347.142 105.724C347.193 105.598 347.249 105.479 347.31 105.367L350.712 99.2C350.768 99.0927 350.829 99.0273 350.894 99.004C350.964 98.9807 351.06 98.969 351.181 98.969H352.182ZM357.223 101.797C357.741 101.797 358.208 101.883 358.623 102.056C359.038 102.229 359.393 102.474 359.687 102.791C359.981 103.108 360.205 103.493 360.359 103.946C360.518 104.394 360.597 104.896 360.597 105.451C360.597 106.011 360.518 106.515 360.359 106.963C360.205 107.411 359.981 107.794 359.687 108.111C359.393 108.428 359.038 108.673 358.623 108.846C358.208 109.014 357.741 109.098 357.223 109.098C356.7 109.098 356.229 109.014 355.809 108.846C355.394 108.673 355.039 108.428 354.745 108.111C354.451 107.794 354.225 107.411 354.066 106.963C353.912 106.515 353.835 106.011 353.835 105.451C353.835 104.896 353.912 104.394 354.066 103.946C354.225 103.493 354.451 103.108 354.745 102.791C355.039 102.474 355.394 102.229 355.809 102.056C356.229 101.883 356.7 101.797 357.223 101.797ZM357.223 108.125C357.923 108.125 358.446 107.892 358.791 107.425C359.136 106.954 359.309 106.298 359.309 105.458C359.309 104.613 359.136 103.955 358.791 103.484C358.446 103.013 357.923 102.777 357.223 102.777C356.868 102.777 356.558 102.838 356.292 102.959C356.031 103.08 355.811 103.255 355.634 103.484C355.461 103.713 355.331 103.995 355.242 104.331C355.158 104.662 355.116 105.038 355.116 105.458C355.116 106.298 355.289 106.954 355.634 107.425C355.984 107.892 356.514 108.125 357.223 108.125ZM363.353 102.938C363.507 102.765 363.671 102.609 363.843 102.469C364.016 102.329 364.198 102.21 364.389 102.112C364.585 102.009 364.791 101.932 365.005 101.881C365.225 101.825 365.46 101.797 365.712 101.797C366.1 101.797 366.44 101.862 366.734 101.993C367.033 102.119 367.28 102.301 367.476 102.539C367.677 102.772 367.829 103.055 367.931 103.386C368.034 103.717 368.085 104.084 368.085 104.485V109H366.832V104.485C366.832 103.948 366.709 103.533 366.461 103.239C366.219 102.94 365.848 102.791 365.348 102.791C364.98 102.791 364.634 102.88 364.312 103.057C363.995 103.234 363.701 103.475 363.43 103.778V109H362.177V101.909H362.926C363.104 101.909 363.213 101.995 363.255 102.168L363.353 102.938ZM374.73 104.681C374.73 104.392 374.688 104.128 374.604 103.89C374.525 103.647 374.406 103.44 374.247 103.267C374.093 103.09 373.904 102.954 373.68 102.861C373.456 102.763 373.202 102.714 372.917 102.714C372.32 102.714 371.846 102.889 371.496 103.239C371.151 103.584 370.936 104.065 370.852 104.681H374.73ZM375.738 108.006C375.584 108.193 375.4 108.356 375.185 108.496C374.97 108.631 374.739 108.743 374.492 108.832C374.249 108.921 373.997 108.986 373.736 109.028C373.475 109.075 373.216 109.098 372.959 109.098C372.469 109.098 372.016 109.016 371.601 108.853C371.19 108.685 370.833 108.442 370.53 108.125C370.231 107.803 369.998 107.406 369.83 106.935C369.662 106.464 369.578 105.922 369.578 105.311C369.578 104.816 369.653 104.354 369.802 103.925C369.956 103.496 370.175 103.125 370.46 102.812C370.745 102.495 371.092 102.247 371.503 102.07C371.914 101.888 372.376 101.797 372.889 101.797C373.314 101.797 373.706 101.869 374.065 102.014C374.429 102.154 374.742 102.359 375.003 102.63C375.269 102.896 375.477 103.227 375.626 103.624C375.775 104.016 375.85 104.464 375.85 104.968C375.85 105.164 375.829 105.295 375.787 105.36C375.745 105.425 375.666 105.458 375.549 105.458H370.81C370.824 105.906 370.885 106.296 370.992 106.627C371.104 106.958 371.258 107.236 371.454 107.46C371.65 107.679 371.883 107.845 372.154 107.957C372.425 108.064 372.728 108.118 373.064 108.118C373.377 108.118 373.645 108.083 373.869 108.013C374.098 107.938 374.294 107.859 374.457 107.775C374.62 107.691 374.756 107.614 374.863 107.544C374.975 107.469 375.071 107.432 375.15 107.432C375.253 107.432 375.332 107.472 375.388 107.551L375.738 108.006ZM383.906 109H382.66V102.952H379.006V107.208C379.006 107.507 379.078 107.728 379.223 107.873C379.368 108.018 379.554 108.09 379.783 108.09C379.914 108.09 380.026 108.074 380.119 108.041C380.217 108.004 380.301 107.964 380.371 107.922C380.441 107.88 380.499 107.843 380.546 107.81C380.597 107.773 380.642 107.754 380.679 107.754C380.744 107.754 380.803 107.794 380.854 107.873L381.218 108.468C381.003 108.669 380.744 108.827 380.441 108.944C380.138 109.056 379.825 109.112 379.503 109.112C378.943 109.112 378.511 108.956 378.208 108.643C377.909 108.33 377.76 107.88 377.76 107.292V102.952H376.906C376.831 102.952 376.768 102.931 376.717 102.889C376.666 102.842 376.64 102.772 376.64 102.679V102.182L377.802 102.028L378.089 99.844C378.103 99.774 378.133 99.718 378.18 99.676C378.231 99.6293 378.297 99.606 378.376 99.606H379.006V102.049H383.906V109ZM384.214 99.634C384.214 99.7553 384.188 99.8697 384.137 99.977C384.09 100.08 384.025 100.171 383.941 100.25C383.862 100.329 383.768 100.392 383.661 100.439C383.554 100.486 383.439 100.509 383.318 100.509C383.197 100.509 383.082 100.486 382.975 100.439C382.872 100.392 382.781 100.329 382.702 100.25C382.623 100.171 382.56 100.08 382.513 99.977C382.466 99.8697 382.443 99.7553 382.443 99.634C382.443 99.5127 382.466 99.3983 382.513 99.291C382.56 99.179 382.623 99.0833 382.702 99.004C382.781 98.92 382.872 98.8547 382.975 98.808C383.082 98.7613 383.197 98.738 383.318 98.738C383.439 98.738 383.554 98.7613 383.661 98.808C383.768 98.8547 383.862 98.92 383.941 99.004C384.025 99.0833 384.09 99.179 384.137 99.291C384.188 99.3983 384.214 99.5127 384.214 99.634ZM390.846 102.441C390.846 102.53 390.829 102.616 390.797 102.7C390.769 102.784 390.729 102.856 390.678 102.917L386.835 108.027H390.713V109H385.372V108.482C385.372 108.421 385.386 108.351 385.414 108.272C385.442 108.188 385.484 108.109 385.54 108.034L389.404 102.889H385.589V101.909H390.846V102.441ZM396.126 105.808C395.552 105.827 395.062 105.873 394.656 105.948C394.255 106.018 393.926 106.111 393.669 106.228C393.417 106.345 393.233 106.482 393.116 106.641C393.004 106.8 392.948 106.977 392.948 107.173C392.948 107.36 392.978 107.521 393.039 107.656C393.1 107.791 393.181 107.903 393.284 107.992C393.391 108.076 393.515 108.139 393.655 108.181C393.8 108.218 393.954 108.237 394.117 108.237C394.336 108.237 394.537 108.216 394.719 108.174C394.901 108.127 395.071 108.062 395.23 107.978C395.393 107.894 395.547 107.794 395.692 107.677C395.841 107.56 395.986 107.427 396.126 107.278V105.808ZM392.101 102.91C392.493 102.532 392.915 102.25 393.368 102.063C393.821 101.876 394.322 101.783 394.873 101.783C395.27 101.783 395.622 101.848 395.93 101.979C396.238 102.11 396.497 102.292 396.707 102.525C396.917 102.758 397.076 103.041 397.183 103.372C397.29 103.703 397.344 104.067 397.344 104.464V109H396.791C396.67 109 396.576 108.981 396.511 108.944C396.446 108.902 396.394 108.823 396.357 108.706L396.217 108.034C396.03 108.207 395.848 108.361 395.671 108.496C395.494 108.627 395.307 108.739 395.111 108.832C394.915 108.921 394.705 108.988 394.481 109.035C394.262 109.086 394.017 109.112 393.746 109.112C393.471 109.112 393.212 109.075 392.969 109C392.726 108.921 392.514 108.804 392.332 108.65C392.155 108.496 392.012 108.302 391.905 108.069C391.802 107.831 391.751 107.551 391.751 107.229C391.751 106.949 391.828 106.681 391.982 106.424C392.136 106.163 392.386 105.932 392.731 105.731C393.076 105.53 393.527 105.367 394.082 105.241C394.637 105.11 395.319 105.036 396.126 105.017V104.464C396.126 103.913 396.007 103.498 395.769 103.218C395.531 102.933 395.183 102.791 394.726 102.791C394.418 102.791 394.159 102.831 393.949 102.91C393.744 102.985 393.564 103.071 393.41 103.169C393.261 103.262 393.13 103.349 393.018 103.428C392.911 103.503 392.803 103.54 392.696 103.54C392.612 103.54 392.54 103.519 392.479 103.477C392.418 103.43 392.367 103.374 392.325 103.309L392.101 102.91ZM405.726 109H404.48V102.952H400.826V107.208C400.826 107.507 400.899 107.728 401.043 107.873C401.188 108.018 401.375 108.09 401.603 108.09C401.734 108.09 401.846 108.074 401.939 108.041C402.037 108.004 402.121 107.964 402.191 107.922C402.261 107.88 402.32 107.843 402.366 107.81C402.418 107.773 402.462 107.754 402.499 107.754C402.565 107.754 402.623 107.794 402.674 107.873L403.038 108.468C402.824 108.669 402.565 108.827 402.261 108.944C401.958 109.056 401.645 109.112 401.323 109.112C400.763 109.112 400.332 108.956 400.028 108.643C399.73 108.33 399.58 107.88 399.58 107.292V102.952H398.726C398.652 102.952 398.589 102.931 398.537 102.889C398.486 102.842 398.46 102.772 398.46 102.679V102.182L399.622 102.028L399.909 99.844C399.923 99.774 399.954 99.718 400 99.676C400.052 99.6293 400.117 99.606 400.196 99.606H400.826V102.049H405.726V109ZM406.034 99.634C406.034 99.7553 406.009 99.8697 405.957 99.977C405.911 100.08 405.845 100.171 405.761 100.25C405.682 100.329 405.589 100.392 405.481 100.439C405.374 100.486 405.26 100.509 405.138 100.509C405.017 100.509 404.903 100.486 404.795 100.439C404.693 100.392 404.602 100.329 404.522 100.25C404.443 100.171 404.38 100.08 404.333 99.977C404.287 99.8697 404.263 99.7553 404.263 99.634C404.263 99.5127 404.287 99.3983 404.333 99.291C404.38 99.179 404.443 99.0833 404.522 99.004C404.602 98.92 404.693 98.8547 404.795 98.808C404.903 98.7613 405.017 98.738 405.138 98.738C405.26 98.738 405.374 98.7613 405.481 98.808C405.589 98.8547 405.682 98.92 405.761 99.004C405.845 99.0833 405.911 99.179 405.957 99.291C406.009 99.3983 406.034 99.5127 406.034 99.634ZM410.762 101.797C411.28 101.797 411.747 101.883 412.162 102.056C412.577 102.229 412.932 102.474 413.226 102.791C413.52 103.108 413.744 103.493 413.898 103.946C414.057 104.394 414.136 104.896 414.136 105.451C414.136 106.011 414.057 106.515 413.898 106.963C413.744 107.411 413.52 107.794 413.226 108.111C412.932 108.428 412.577 108.673 412.162 108.846C411.747 109.014 411.28 109.098 410.762 109.098C410.239 109.098 409.768 109.014 409.348 108.846C408.933 108.673 408.578 108.428 408.284 108.111C407.99 107.794 407.764 107.411 407.605 106.963C407.451 106.515 407.374 106.011 407.374 105.451C407.374 104.896 407.451 104.394 407.605 103.946C407.764 103.493 407.99 103.108 408.284 102.791C408.578 102.474 408.933 102.229 409.348 102.056C409.768 101.883 410.239 101.797 410.762 101.797ZM410.762 108.125C411.462 108.125 411.985 107.892 412.33 107.425C412.675 106.954 412.848 106.298 412.848 105.458C412.848 104.613 412.675 103.955 412.33 103.484C411.985 103.013 411.462 102.777 410.762 102.777C410.407 102.777 410.097 102.838 409.831 102.959C409.57 103.08 409.35 103.255 409.173 103.484C409 103.713 408.87 103.995 408.781 104.331C408.697 104.662 408.655 105.038 408.655 105.458C408.655 106.298 408.828 106.954 409.173 107.425C409.523 107.892 410.053 108.125 410.762 108.125ZM416.892 102.938C417.046 102.765 417.21 102.609 417.382 102.469C417.555 102.329 417.737 102.21 417.928 102.112C418.124 102.009 418.33 101.932 418.544 101.881C418.764 101.825 418.999 101.797 419.251 101.797C419.639 101.797 419.979 101.862 420.273 101.993C420.572 102.119 420.819 102.301 421.015 102.539C421.216 102.772 421.368 103.055 421.47 103.386C421.573 103.717 421.624 104.084 421.624 104.485V109H420.371V104.485C420.371 103.948 420.248 103.533 420 103.239C419.758 102.94 419.387 102.791 418.887 102.791C418.519 102.791 418.173 102.88 417.851 103.057C417.534 103.234 417.24 103.475 416.969 103.778V109H415.716V101.909H416.465C416.643 101.909 416.752 101.995 416.794 102.168L416.892 102.938Z" fill="#797399"/>
<circle cx="381" cy="46" r="21.5" fill="#403366" stroke="#6C5C99" stroke-width="5"/>
<path d="M382.599 59.3271V55.7518C386.464 55.333 387.559 53.4326 387.559 49.7284C387.559 45.8954 387.366 44.8324 381.858 43.2863C378.798 42.4488 378.669 42.3844 378.669 40.3229C378.669 38.197 379.313 37.8427 381.536 37.8427C383.114 37.8427 385.24 38.0682 386.786 38.3903L387.205 35.0082C386.045 34.7183 384.596 34.525 383.404 34.4606V30.853H380.151V34.4606C376.092 34.7827 374.739 36.5543 374.739 40.2263C374.739 44.2848 375.319 45.4444 380.183 46.604C383.468 47.377 383.629 47.7314 383.629 49.7606C383.629 51.7899 383.243 52.4341 380.537 52.4341C378.637 52.4341 376.769 52.0154 375.319 51.5644L374.611 54.7855C376.06 55.333 377.767 55.6874 379.378 55.784V59.3271H382.599Z" fill="#8E7CBF"/>
<rect x="379" y="1" width="4" height="15" rx="2" fill="#8E7CBF"/>
<rect x="389" y="9" width="4" height="11" rx="2" fill="#8E7CBF"/>
<rect x="369" y="9" width="4" height="11" rx="2" fill="#8E7CBF"/>
<g clip-path="url(#clip1)">
<path d="M44.8722 10.1406L44.8722 10.1406C42.7282 9.44984 40.405 10.55 39.6831 12.5978L34.9094 26.1384C34.1875 28.1862 35.3403 30.4062 37.4842 31.097C39.6281 31.7877 41.9514 30.6876 42.6733 28.6398L47.4469 15.0991C48.1688 13.0513 47.0161 10.8313 44.8722 10.1406Z" fill="#403366"/>
<path d="M23.4805 8.97792L23.4805 8.97793C21.4607 9.89813 20.603 12.2084 21.565 14.138L27.9238 26.8938C28.8858 28.8235 31.303 29.6418 33.3228 28.7216C35.3427 27.8014 36.2003 25.4911 35.2384 23.5615L28.8796 10.8057C27.9176 8.87603 25.5004 8.05772 23.4805 8.97792Z" fill="#6C5C99"/>
<path d="M39.6578 10.3248C39.4769 8.20296 37.5291 6.62321 35.3072 6.79631C33.0854 6.96941 31.4308 8.82981 31.6117 10.9516L32.8081 24.9861C32.989 27.1079 34.9368 28.6877 37.1587 28.5146C39.3806 28.3415 41.0351 26.4811 40.8542 24.3592L39.6578 10.3248Z" fill="#6C5C99"/>
<path d="M32.5419 8.69336C30.6236 10.7305 27.7993 9.62896 27 9.01164L30.144 22.12L34.9399 18.8791L32.5419 8.69336Z" fill="#6C5C99"/>
<path d="M26.6806 24.6825C24.9146 26.6006 20.5844 31.8917 17.0675 37.0733C13.5506 42.255 -6.59629 71.4569 34.4178 71.993C75.4319 72.5292 55.285 42.255 51.768 37.0733C48.7098 32.5675 43.921 26.6006 42.155 24.6825L34.4178 21.979L26.6806 24.6825C29.0217 22.1396 26.636 26.0951 26.6806 24.6825Z" fill="#6C5C99"/>
<path d="M32.2611 14.7316C31.9102 13.7753 30.8142 13.2721 29.8129 13.6078C28.8117 13.9435 28.2844 14.9909 28.6353 15.9472L31.07 22.584C31.4208 23.5404 32.5169 24.0436 33.5182 23.7079C34.5194 23.3722 35.0467 22.3248 34.6958 21.3685L32.2611 14.7316Z" fill="#403366"/>
<path d="M44.7864 22.506H25.0421C23.9062 22.506 22.9854 23.3854 22.9854 24.4701C22.9854 25.5548 23.9062 26.4342 25.0421 26.4342H44.7864C45.9223 26.4342 46.8431 25.5548 46.8431 24.4701C46.8431 23.3854 45.9223 22.506 44.7864 22.506Z" fill="#8E7CBF"/>
</g>
<path d="M2.83627 109H1.47827V98.969H2.83627V109ZM6.17472 102.938C6.32872 102.765 6.49205 102.609 6.66472 102.469C6.83739 102.329 7.01939 102.21 7.21072 102.112C7.40672 102.009 7.61205 101.932 7.82672 101.881C8.04605 101.825 8.28172 101.797 8.53372 101.797C8.92105 101.797 9.26172 101.862 9.55572 101.993C9.85439 102.119 10.1017 102.301 10.2977 102.539C10.4984 102.772 10.6501 103.055 10.7527 103.386C10.8554 103.717 10.9067 104.084 10.9067 104.485V109H9.65372V104.485C9.65372 103.948 9.53005 103.533 9.28272 103.239C9.04005 102.94 8.66905 102.791 8.16972 102.791C7.80105 102.791 7.45572 102.88 7.13372 103.057C6.81639 103.234 6.52239 103.475 6.25172 103.778V109H4.99872V101.909H5.74772C5.92505 101.909 6.03472 101.995 6.07672 102.168L6.17472 102.938ZM18.731 101.909L15.84 109H14.72L11.829 101.909H12.844C12.9466 101.909 13.0306 101.935 13.096 101.986C13.1613 102.037 13.2056 102.098 13.229 102.168L15.028 106.732C15.084 106.905 15.133 107.073 15.175 107.236C15.217 107.399 15.2566 107.563 15.294 107.726C15.3313 107.563 15.371 107.399 15.413 107.236C15.455 107.073 15.5063 106.905 15.567 106.732L17.387 102.168C17.415 102.093 17.4616 102.033 17.527 101.986C17.5923 101.935 17.6693 101.909 17.758 101.909H18.731ZM24.4283 104.681C24.4283 104.392 24.3863 104.128 24.3023 103.89C24.223 103.647 24.104 103.44 23.9453 103.267C23.7913 103.09 23.6023 102.954 23.3783 102.861C23.1543 102.763 22.9 102.714 22.6153 102.714C22.018 102.714 21.5443 102.889 21.1943 103.239C20.849 103.584 20.6343 104.065 20.5503 104.681H24.4283ZM25.4363 108.006C25.2823 108.193 25.098 108.356 24.8833 108.496C24.6686 108.631 24.4376 108.743 24.1903 108.832C23.9476 108.921 23.6956 108.986 23.4343 109.028C23.173 109.075 22.914 109.098 22.6573 109.098C22.1673 109.098 21.7146 109.016 21.2993 108.853C20.8886 108.685 20.5316 108.442 20.2283 108.125C19.9296 107.803 19.6963 107.406 19.5283 106.935C19.3603 106.464 19.2763 105.922 19.2763 105.311C19.2763 104.816 19.351 104.354 19.5003 103.925C19.6543 103.496 19.8736 103.125 20.1583 102.812C20.443 102.495 20.7906 102.247 21.2013 102.07C21.612 101.888 22.074 101.797 22.5873 101.797C23.012 101.797 23.404 101.869 23.7633 102.014C24.1273 102.154 24.44 102.359 24.7013 102.63C24.9673 102.896 25.175 103.227 25.3243 103.624C25.4736 104.016 25.5483 104.464 25.5483 104.968C25.5483 105.164 25.5273 105.295 25.4853 105.36C25.4433 105.425 25.364 105.458 25.2473 105.458H20.5083C20.5223 105.906 20.583 106.296 20.6903 106.627C20.8023 106.958 20.9563 107.236 21.1523 107.46C21.3483 107.679 21.5816 107.845 21.8523 107.957C22.123 108.064 22.4263 108.118 22.7623 108.118C23.075 108.118 23.3433 108.083 23.5673 108.013C23.796 107.938 23.992 107.859 24.1553 107.775C24.3186 107.691 24.454 107.614 24.5613 107.544C24.6733 107.469 24.769 107.432 24.8483 107.432C24.951 107.432 25.0303 107.472 25.0863 107.551L25.4363 108.006ZM31.2088 103.078C31.1528 103.181 31.0665 103.232 30.9498 103.232C30.8798 103.232 30.8005 103.206 30.7118 103.155C30.6231 103.104 30.5135 103.048 30.3828 102.987C30.2568 102.922 30.1051 102.863 29.9278 102.812C29.7505 102.756 29.5405 102.728 29.2978 102.728C29.0878 102.728 28.8988 102.756 28.7308 102.812C28.5628 102.863 28.4181 102.936 28.2968 103.029C28.1801 103.122 28.0891 103.232 28.0238 103.358C27.9631 103.479 27.9328 103.612 27.9328 103.757C27.9328 103.939 27.9841 104.091 28.0868 104.212C28.1941 104.333 28.3341 104.438 28.5068 104.527C28.6795 104.616 28.8755 104.695 29.0948 104.765C29.3141 104.83 29.5381 104.903 29.7668 104.982C30.0001 105.057 30.2265 105.141 30.4458 105.234C30.6651 105.327 30.8611 105.444 31.0338 105.584C31.2065 105.724 31.3441 105.897 31.4468 106.102C31.5541 106.303 31.6078 106.545 31.6078 106.83C31.6078 107.157 31.5495 107.46 31.4328 107.74C31.3161 108.015 31.1435 108.256 30.9148 108.461C30.6861 108.662 30.4061 108.82 30.0748 108.937C29.7435 109.054 29.3608 109.112 28.9268 109.112C28.4321 109.112 27.9841 109.033 27.5828 108.874C27.1815 108.711 26.8408 108.503 26.5608 108.251L26.8548 107.775C26.8921 107.714 26.9365 107.668 26.9878 107.635C27.0391 107.602 27.1045 107.586 27.1838 107.586C27.2678 107.586 27.3565 107.619 27.4498 107.684C27.5431 107.749 27.6551 107.822 27.7858 107.901C27.9211 107.98 28.0845 108.053 28.2758 108.118C28.4671 108.183 28.7051 108.216 28.9898 108.216C29.2325 108.216 29.4448 108.186 29.6268 108.125C29.8088 108.06 29.9605 107.973 30.0818 107.866C30.2031 107.759 30.2918 107.635 30.3478 107.495C30.4085 107.355 30.4388 107.206 30.4388 107.047C30.4388 106.851 30.3851 106.69 30.2778 106.564C30.1751 106.433 30.0375 106.324 29.8648 106.235C29.6921 106.142 29.4938 106.062 29.2698 105.997C29.0505 105.927 28.8241 105.855 28.5908 105.78C28.3621 105.705 28.1358 105.621 27.9118 105.528C27.6925 105.43 27.4965 105.309 27.3238 105.164C27.1511 105.019 27.0111 104.842 26.9038 104.632C26.8011 104.417 26.7498 104.158 26.7498 103.855C26.7498 103.584 26.8058 103.325 26.9178 103.078C27.0298 102.826 27.1931 102.607 27.4078 102.42C27.6225 102.229 27.8861 102.077 28.1988 101.965C28.5115 101.853 28.8685 101.797 29.2698 101.797C29.7365 101.797 30.1541 101.872 30.5228 102.021C30.8961 102.166 31.2181 102.366 31.4888 102.623L31.2088 103.078ZM35.3124 109.112C34.7524 109.112 34.3208 108.956 34.0174 108.643C33.7188 108.33 33.5694 107.88 33.5694 107.292V102.952H32.7154C32.6408 102.952 32.5778 102.931 32.5264 102.889C32.4751 102.842 32.4494 102.772 32.4494 102.679V102.182L33.6114 102.035L33.8984 99.844C33.9124 99.774 33.9428 99.718 33.9894 99.676C34.0408 99.6293 34.1061 99.606 34.1854 99.606H34.8154V102.049H36.8664V102.952H34.8154V107.208C34.8154 107.507 34.8878 107.728 35.0324 107.873C35.1771 108.018 35.3638 108.09 35.5924 108.09C35.7231 108.09 35.8351 108.074 35.9284 108.041C36.0264 108.004 36.1104 107.964 36.1804 107.922C36.2504 107.88 36.3088 107.843 36.3554 107.81C36.4068 107.773 36.4511 107.754 36.4884 107.754C36.5538 107.754 36.6121 107.794 36.6634 107.873L37.0274 108.468C36.8128 108.669 36.5538 108.827 36.2504 108.944C35.9471 109.056 35.6344 109.112 35.3124 109.112ZM38.153 109V101.909H38.902C39.0793 101.909 39.189 101.995 39.231 102.168L39.322 102.896C39.5833 102.574 39.8773 102.31 40.204 102.105C40.5307 101.9 40.9087 101.797 41.338 101.797C41.814 101.797 42.199 101.93 42.493 102.196C42.7917 102.462 43.0063 102.821 43.137 103.274C43.2397 103.017 43.3703 102.796 43.529 102.609C43.6923 102.422 43.8743 102.268 44.075 102.147C44.2757 102.026 44.488 101.937 44.712 101.881C44.9407 101.825 45.1717 101.797 45.405 101.797C45.7783 101.797 46.1097 101.858 46.399 101.979C46.693 102.096 46.9403 102.268 47.141 102.497C47.3463 102.726 47.5027 103.008 47.61 103.344C47.7173 103.675 47.771 104.056 47.771 104.485V109H46.518V104.485C46.518 103.93 46.3967 103.51 46.154 103.225C45.9113 102.936 45.5613 102.791 45.104 102.791C44.8987 102.791 44.7027 102.828 44.516 102.903C44.334 102.973 44.173 103.078 44.033 103.218C43.893 103.358 43.781 103.535 43.697 103.75C43.6177 103.96 43.578 104.205 43.578 104.485V109H42.325V104.485C42.325 103.916 42.2107 103.491 41.982 103.211C41.7533 102.931 41.4197 102.791 40.981 102.791C40.673 102.791 40.3883 102.875 40.127 103.043C39.8657 103.206 39.6253 103.43 39.406 103.715V109H38.153ZM54.4107 104.681C54.4107 104.392 54.3687 104.128 54.2847 103.89C54.2054 103.647 54.0864 103.44 53.9277 103.267C53.7737 103.09 53.5847 102.954 53.3607 102.861C53.1367 102.763 52.8824 102.714 52.5977 102.714C52.0004 102.714 51.5267 102.889 51.1767 103.239C50.8314 103.584 50.6167 104.065 50.5327 104.681H54.4107ZM55.4187 108.006C55.2647 108.193 55.0804 108.356 54.8657 108.496C54.6511 108.631 54.4201 108.743 54.1727 108.832C53.9301 108.921 53.6781 108.986 53.4167 109.028C53.1554 109.075 52.8964 109.098 52.6397 109.098C52.1497 109.098 51.6971 109.016 51.2817 108.853C50.8711 108.685 50.5141 108.442 50.2107 108.125C49.9121 107.803 49.6787 107.406 49.5107 106.935C49.3427 106.464 49.2587 105.922 49.2587 105.311C49.2587 104.816 49.3334 104.354 49.4827 103.925C49.6367 103.496 49.8561 103.125 50.1407 102.812C50.4254 102.495 50.7731 102.247 51.1837 102.07C51.5944 101.888 52.0564 101.797 52.5697 101.797C52.9944 101.797 53.3864 101.869 53.7457 102.014C54.1097 102.154 54.4224 102.359 54.6837 102.63C54.9497 102.896 55.1574 103.227 55.3067 103.624C55.4561 104.016 55.5307 104.464 55.5307 104.968C55.5307 105.164 55.5097 105.295 55.4677 105.36C55.4257 105.425 55.3464 105.458 55.2297 105.458H50.4907C50.5047 105.906 50.5654 106.296 50.6727 106.627C50.7847 106.958 50.9387 107.236 51.1347 107.46C51.3307 107.679 51.5641 107.845 51.8347 107.957C52.1054 108.064 52.4087 108.118 52.7447 108.118C53.0574 108.118 53.3257 108.083 53.5497 108.013C53.7784 107.938 53.9744 107.859 54.1377 107.775C54.3011 107.691 54.4364 107.614 54.5437 107.544C54.6557 107.469 54.7514 107.432 54.8307 107.432C54.9334 107.432 55.0127 107.472 55.0687 107.551L55.4187 108.006ZM58.2372 102.938C58.3912 102.765 58.5546 102.609 58.7272 102.469C58.8999 102.329 59.0819 102.21 59.2732 102.112C59.4692 102.009 59.6746 101.932 59.8892 101.881C60.1086 101.825 60.3442 101.797 60.5962 101.797C60.9836 101.797 61.3242 101.862 61.6182 101.993C61.9169 102.119 62.1642 102.301 62.3602 102.539C62.5609 102.772 62.7126 103.055 62.8152 103.386C62.9179 103.717 62.9692 104.084 62.9692 104.485V109H61.7162V104.485C61.7162 103.948 61.5926 103.533 61.3452 103.239C61.1026 102.94 60.7316 102.791 60.2322 102.791C59.8636 102.791 59.5182 102.88 59.1962 103.057C58.8789 103.234 58.5849 103.475 58.3142 103.778V109H57.0612V101.909H57.8102C57.9876 101.909 58.0972 101.995 58.1392 102.168L58.2372 102.938ZM66.9492 109.112C66.3892 109.112 65.9575 108.956 65.6542 108.643C65.3555 108.33 65.2062 107.88 65.2062 107.292V102.952H64.3522C64.2775 102.952 64.2145 102.931 64.1632 102.889C64.1118 102.842 64.0862 102.772 64.0862 102.679V102.182L65.2482 102.035L65.5352 99.844C65.5492 99.774 65.5795 99.718 65.6262 99.676C65.6775 99.6293 65.7428 99.606 65.8222 99.606H66.4522V102.049H68.5032V102.952H66.4522V107.208C66.4522 107.507 66.5245 107.728 66.6692 107.873C66.8138 108.018 67.0005 108.09 67.2292 108.09C67.3598 108.09 67.4718 108.074 67.5652 108.041C67.6632 108.004 67.7472 107.964 67.8172 107.922C67.8872 107.88 67.9455 107.843 67.9922 107.81C68.0435 107.773 68.0878 107.754 68.1252 107.754C68.1905 107.754 68.2488 107.794 68.3002 107.873L68.6642 108.468C68.4495 108.669 68.1905 108.827 67.8872 108.944C67.5838 109.056 67.2712 109.112 66.9492 109.112Z" fill="#797399"/>
<defs>
<clipPath id="clip0">
<rect width="62" height="72" fill="white" transform="translate(174)"/>
</clipPath>
<clipPath id="clip1">
<rect width="62" height="72" fill="white" transform="translate(4)"/>
</clipPath>
</defs>
</svg>
