<svg width="437" height="115" viewBox="0 0 437 115" fill="none" xmlns="http://www.w3.org/2000/svg">
<path d="M191.041 98.969V109H189.851V101.629C189.851 101.531 189.854 101.426 189.858 101.314C189.868 101.202 189.877 101.088 189.886 100.971L186.442 107.243C186.335 107.453 186.172 107.558 185.952 107.558H185.756C185.537 107.558 185.374 107.453 185.266 107.243L181.752 100.943C181.78 101.19 181.794 101.419 181.794 101.629V109H180.604V98.969H181.605C181.727 98.969 181.82 98.9807 181.885 99.004C181.951 99.0273 182.014 99.0927 182.074 99.2L185.539 105.374C185.595 105.486 185.649 105.603 185.7 105.724C185.756 105.845 185.808 105.969 185.854 106.095C185.901 105.969 185.95 105.845 186.001 105.724C186.053 105.598 186.109 105.479 186.169 105.367L189.571 99.2C189.627 99.0927 189.688 99.0273 189.753 99.004C189.823 98.9807 189.919 98.969 190.04 98.969H191.041ZM197.839 104.681C197.839 104.392 197.797 104.128 197.713 103.89C197.634 103.647 197.515 103.44 197.356 103.267C197.202 103.09 197.013 102.954 196.789 102.861C196.565 102.763 196.311 102.714 196.026 102.714C195.429 102.714 194.955 102.889 194.605 103.239C194.26 103.584 194.045 104.065 193.961 104.681H197.839ZM198.847 108.006C198.693 108.193 198.509 108.356 198.294 108.496C198.08 108.631 197.849 108.743 197.601 108.832C197.359 108.921 197.107 108.986 196.845 109.028C196.584 109.075 196.325 109.098 196.068 109.098C195.578 109.098 195.126 109.016 194.71 108.853C194.3 108.685 193.943 108.442 193.639 108.125C193.341 107.803 193.107 107.406 192.939 106.935C192.771 106.464 192.687 105.922 192.687 105.311C192.687 104.816 192.762 104.354 192.911 103.925C193.065 103.496 193.285 103.125 193.569 102.812C193.854 102.495 194.202 102.247 194.612 102.07C195.023 101.888 195.485 101.797 195.998 101.797C196.423 101.797 196.815 101.869 197.174 102.014C197.538 102.154 197.851 102.359 198.112 102.63C198.378 102.896 198.586 103.227 198.735 103.624C198.885 104.016 198.959 104.464 198.959 104.968C198.959 105.164 198.938 105.295 198.896 105.36C198.854 105.425 198.775 105.458 198.658 105.458H193.919C193.933 105.906 193.994 106.296 194.101 106.627C194.213 106.958 194.367 107.236 194.563 107.46C194.759 107.679 194.993 107.845 195.263 107.957C195.534 108.064 195.837 108.118 196.173 108.118C196.486 108.118 196.754 108.083 196.978 108.013C197.207 107.938 197.403 107.859 197.566 107.775C197.73 107.691 197.865 107.614 197.972 107.544C198.084 107.469 198.18 107.432 198.259 107.432C198.362 107.432 198.441 107.472 198.497 107.551L198.847 108.006ZM201.666 102.938C201.82 102.765 201.983 102.609 202.156 102.469C202.329 102.329 202.511 102.21 202.702 102.112C202.898 102.009 203.103 101.932 203.318 101.881C203.537 101.825 203.773 101.797 204.025 101.797C204.412 101.797 204.753 101.862 205.047 101.993C205.346 102.119 205.593 102.301 205.789 102.539C205.99 102.772 206.141 103.055 206.244 103.386C206.347 103.717 206.398 104.084 206.398 104.485V109H205.145V104.485C205.145 103.948 205.021 103.533 204.774 103.239C204.531 102.94 204.16 102.791 203.661 102.791C203.292 102.791 202.947 102.88 202.625 103.057C202.308 103.234 202.014 103.475 201.743 103.778V109H200.49V101.909H201.239C201.416 101.909 201.526 101.995 201.568 102.168L201.666 102.938ZM210.378 109.112C209.818 109.112 209.386 108.956 209.083 108.643C208.784 108.33 208.635 107.88 208.635 107.292V102.952H207.781C207.706 102.952 207.643 102.931 207.592 102.889C207.541 102.842 207.515 102.772 207.515 102.679V102.182L208.677 102.035L208.964 99.844C208.978 99.774 209.008 99.718 209.055 99.676C209.106 99.6293 209.172 99.606 209.251 99.606H209.881V102.049H211.932V102.952H209.881V107.208C209.881 107.507 209.953 107.728 210.098 107.873C210.243 108.018 210.429 108.09 210.658 108.09C210.789 108.09 210.901 108.074 210.994 108.041C211.092 108.004 211.176 107.964 211.246 107.922C211.316 107.88 211.374 107.843 211.421 107.81C211.472 107.773 211.517 107.754 211.554 107.754C211.619 107.754 211.678 107.794 211.729 107.873L212.093 108.468C211.878 108.669 211.619 108.827 211.316 108.944C211.013 109.056 210.7 109.112 210.378 109.112ZM216.166 101.797C216.684 101.797 217.151 101.883 217.566 102.056C217.982 102.229 218.336 102.474 218.63 102.791C218.924 103.108 219.148 103.493 219.302 103.946C219.461 104.394 219.54 104.896 219.54 105.451C219.54 106.011 219.461 106.515 219.302 106.963C219.148 107.411 218.924 107.794 218.63 108.111C218.336 108.428 217.982 108.673 217.566 108.846C217.151 109.014 216.684 109.098 216.166 109.098C215.644 109.098 215.172 109.014 214.752 108.846C214.337 108.673 213.982 108.428 213.688 108.111C213.394 107.794 213.168 107.411 213.009 106.963C212.855 106.515 212.778 106.011 212.778 105.451C212.778 104.896 212.855 104.394 213.009 103.946C213.168 103.493 213.394 103.108 213.688 102.791C213.982 102.474 214.337 102.229 214.752 102.056C215.172 101.883 215.644 101.797 216.166 101.797ZM216.166 108.125C216.866 108.125 217.389 107.892 217.734 107.425C218.08 106.954 218.252 106.298 218.252 105.458C218.252 104.613 218.08 103.955 217.734 103.484C217.389 103.013 216.866 102.777 216.166 102.777C215.812 102.777 215.501 102.838 215.235 102.959C214.974 103.08 214.755 103.255 214.577 103.484C214.405 103.713 214.274 103.995 214.185 104.331C214.101 104.662 214.059 105.038 214.059 105.458C214.059 106.298 214.232 106.954 214.577 107.425C214.927 107.892 215.457 108.125 216.166 108.125ZM222.304 103.33C222.528 102.845 222.803 102.467 223.13 102.196C223.456 101.921 223.855 101.783 224.327 101.783C224.476 101.783 224.618 101.799 224.754 101.832C224.894 101.865 225.017 101.916 225.125 101.986L225.034 102.917C225.006 103.034 224.936 103.092 224.824 103.092C224.758 103.092 224.663 103.078 224.537 103.05C224.411 103.022 224.268 103.008 224.11 103.008C223.886 103.008 223.685 103.041 223.508 103.106C223.335 103.171 223.179 103.269 223.039 103.4C222.903 103.526 222.78 103.685 222.668 103.876C222.56 104.063 222.462 104.277 222.374 104.52V109H221.121V101.909H221.835C221.97 101.909 222.063 101.935 222.115 101.986C222.166 102.037 222.201 102.126 222.22 102.252L222.304 103.33ZM227.536 101.909V109H226.29V101.909H227.536ZM227.802 99.683C227.802 99.8043 227.777 99.9187 227.725 100.026C227.679 100.129 227.613 100.222 227.529 100.306C227.45 100.385 227.354 100.448 227.242 100.495C227.135 100.542 227.021 100.565 226.899 100.565C226.778 100.565 226.664 100.542 226.556 100.495C226.454 100.448 226.363 100.385 226.283 100.306C226.204 100.222 226.141 100.129 226.094 100.026C226.048 99.9187 226.024 99.8043 226.024 99.683C226.024 99.5617 226.048 99.4473 226.094 99.34C226.141 99.228 226.204 99.1323 226.283 99.053C226.363 98.969 226.454 98.9037 226.556 98.857C226.664 98.8103 226.778 98.787 226.899 98.787C227.021 98.787 227.135 98.8103 227.242 98.857C227.354 98.9037 227.45 98.969 227.529 99.053C227.613 99.1323 227.679 99.228 227.725 99.34C227.777 99.4473 227.802 99.5617 227.802 99.683ZM230.76 102.938C230.914 102.765 231.077 102.609 231.25 102.469C231.422 102.329 231.604 102.21 231.796 102.112C231.992 102.009 232.197 101.932 232.412 101.881C232.631 101.825 232.867 101.797 233.119 101.797C233.506 101.797 233.847 101.862 234.141 101.993C234.439 102.119 234.687 102.301 234.883 102.539C235.083 102.772 235.235 103.055 235.338 103.386C235.44 103.717 235.492 104.084 235.492 104.485V109H234.239V104.485C234.239 103.948 234.115 103.533 233.868 103.239C233.625 102.94 233.254 102.791 232.755 102.791C232.386 102.791 232.041 102.88 231.719 103.057C231.401 103.234 231.107 103.475 230.837 103.778V109H229.584V101.909H230.333C230.51 101.909 230.62 101.995 230.662 102.168L230.76 102.938ZM239.861 105.535C240.113 105.535 240.335 105.5 240.526 105.43C240.718 105.36 240.879 105.262 241.009 105.136C241.14 105.01 241.238 104.861 241.303 104.688C241.369 104.511 241.401 104.317 241.401 104.107C241.401 103.673 241.268 103.328 241.002 103.071C240.741 102.814 240.361 102.686 239.861 102.686C239.357 102.686 238.972 102.814 238.706 103.071C238.445 103.328 238.314 103.673 238.314 104.107C238.314 104.317 238.347 104.511 238.412 104.688C238.482 104.861 238.583 105.01 238.713 105.136C238.844 105.262 239.005 105.36 239.196 105.43C239.388 105.5 239.609 105.535 239.861 105.535ZM242.108 109.385C242.108 109.212 242.059 109.072 241.961 108.965C241.863 108.858 241.73 108.774 241.562 108.713C241.399 108.652 241.208 108.61 240.988 108.587C240.769 108.559 240.536 108.538 240.288 108.524C240.046 108.51 239.798 108.496 239.546 108.482C239.294 108.468 239.052 108.445 238.818 108.412C238.557 108.533 238.342 108.687 238.174 108.874C238.011 109.056 237.929 109.271 237.929 109.518C237.929 109.677 237.969 109.824 238.048 109.959C238.132 110.099 238.258 110.218 238.426 110.316C238.594 110.419 238.804 110.498 239.056 110.554C239.313 110.615 239.614 110.645 239.959 110.645C240.295 110.645 240.596 110.615 240.862 110.554C241.128 110.493 241.352 110.407 241.534 110.295C241.721 110.183 241.863 110.05 241.961 109.896C242.059 109.742 242.108 109.572 242.108 109.385ZM243.375 102.189V102.651C243.375 102.805 243.277 102.903 243.081 102.945L242.276 103.05C242.435 103.358 242.514 103.699 242.514 104.072C242.514 104.417 242.447 104.732 242.311 105.017C242.181 105.297 241.999 105.537 241.765 105.738C241.532 105.939 241.252 106.093 240.925 106.2C240.599 106.307 240.244 106.361 239.861 106.361C239.53 106.361 239.217 106.321 238.923 106.242C238.774 106.335 238.66 106.436 238.58 106.543C238.501 106.646 238.461 106.751 238.461 106.858C238.461 107.026 238.529 107.154 238.664 107.243C238.804 107.327 238.986 107.388 239.21 107.425C239.434 107.462 239.689 107.486 239.973 107.495C240.263 107.504 240.557 107.521 240.855 107.544C241.159 107.563 241.453 107.598 241.737 107.649C242.027 107.7 242.283 107.784 242.507 107.901C242.731 108.018 242.911 108.179 243.046 108.384C243.186 108.589 243.256 108.855 243.256 109.182C243.256 109.485 243.179 109.779 243.025 110.064C242.876 110.349 242.659 110.601 242.374 110.82C242.09 111.044 241.74 111.221 241.324 111.352C240.914 111.487 240.449 111.555 239.931 111.555C239.413 111.555 238.961 111.504 238.573 111.401C238.186 111.298 237.864 111.161 237.607 110.988C237.351 110.815 237.157 110.615 237.026 110.386C236.9 110.162 236.837 109.926 236.837 109.679C236.837 109.329 236.947 109.033 237.166 108.79C237.386 108.547 237.687 108.354 238.069 108.209C237.859 108.116 237.691 107.992 237.565 107.838C237.444 107.679 237.383 107.467 237.383 107.201C237.383 107.098 237.402 106.993 237.439 106.886C237.477 106.774 237.533 106.664 237.607 106.557C237.687 106.445 237.782 106.34 237.894 106.242C238.006 106.144 238.137 106.058 238.286 105.983C237.936 105.787 237.663 105.528 237.467 105.206C237.271 104.879 237.173 104.501 237.173 104.072C237.173 103.727 237.239 103.414 237.369 103.134C237.505 102.849 237.691 102.609 237.929 102.413C238.167 102.212 238.45 102.058 238.776 101.951C239.108 101.844 239.469 101.79 239.861 101.79C240.169 101.79 240.456 101.825 240.722 101.895C240.988 101.96 241.231 102.058 241.45 102.189H243.375Z" fill="#797399"/>
<g clip-path="url(#clip0)">
<path d="M189 23.7755L202.236 6H236V73H189V23.7755Z" fill="#6C5C99"/>
<path d="M201.412 62.5881V53.4119H204.588V62.5881H201.412Z" fill="#403366" stroke="#403366" stroke-width="0.82384"/>
<path d="M224 18L221.689 20.7388L224 18Z" fill="#403366"/>
<path d="M200 49C207.796 44.118 220.5 36 224 18M224 18L225.03 21.5524M224 18L221.689 20.7388" stroke="#403366" stroke-width="0.742474" stroke-linecap="round"/>
<path d="M208.412 62.5881V49.4119H212.588V62.5881H208.412Z" fill="#403366" stroke="#403366" stroke-width="0.82384"/>
<path d="M215.412 62.5881V42.4119H219.588V62.5881H215.412Z" fill="#403366" stroke="#403366" stroke-width="0.82384"/>
<path d="M223.412 62.5881V32.4119H227.588V62.5881H223.412Z" fill="#403366" stroke="#403366" stroke-width="0.82384"/>
<path d="M203 23.9998H189L203 6V23.9998Z" fill="#8E7CBF"/>
</g>
<path d="M366.182 98.969V109H364.992V101.629C364.992 101.531 364.994 101.426 364.999 101.314C365.008 101.202 365.018 101.088 365.027 100.971L361.583 107.243C361.476 107.453 361.312 107.558 361.093 107.558H360.897C360.678 107.558 360.514 107.453 360.407 107.243L356.893 100.943C356.921 101.19 356.935 101.419 356.935 101.629V109H355.745V98.969H356.746C356.867 98.969 356.961 98.9807 357.026 99.004C357.091 99.0273 357.154 99.0927 357.215 99.2L360.68 105.374C360.736 105.486 360.79 105.603 360.841 105.724C360.897 105.845 360.948 105.969 360.995 106.095C361.042 105.969 361.091 105.845 361.142 105.724C361.193 105.598 361.249 105.479 361.31 105.367L364.712 99.2C364.768 99.0927 364.829 99.0273 364.894 99.004C364.964 98.9807 365.06 98.969 365.181 98.969H366.182ZM371.223 101.797C371.741 101.797 372.208 101.883 372.623 102.056C373.038 102.229 373.393 102.474 373.687 102.791C373.981 103.108 374.205 103.493 374.359 103.946C374.518 104.394 374.597 104.896 374.597 105.451C374.597 106.011 374.518 106.515 374.359 106.963C374.205 107.411 373.981 107.794 373.687 108.111C373.393 108.428 373.038 108.673 372.623 108.846C372.208 109.014 371.741 109.098 371.223 109.098C370.7 109.098 370.229 109.014 369.809 108.846C369.394 108.673 369.039 108.428 368.745 108.111C368.451 107.794 368.225 107.411 368.066 106.963C367.912 106.515 367.835 106.011 367.835 105.451C367.835 104.896 367.912 104.394 368.066 103.946C368.225 103.493 368.451 103.108 368.745 102.791C369.039 102.474 369.394 102.229 369.809 102.056C370.229 101.883 370.7 101.797 371.223 101.797ZM371.223 108.125C371.923 108.125 372.446 107.892 372.791 107.425C373.136 106.954 373.309 106.298 373.309 105.458C373.309 104.613 373.136 103.955 372.791 103.484C372.446 103.013 371.923 102.777 371.223 102.777C370.868 102.777 370.558 102.838 370.292 102.959C370.031 103.08 369.811 103.255 369.634 103.484C369.461 103.713 369.331 103.995 369.242 104.331C369.158 104.662 369.116 105.038 369.116 105.458C369.116 106.298 369.289 106.954 369.634 107.425C369.984 107.892 370.514 108.125 371.223 108.125ZM377.353 102.938C377.507 102.765 377.671 102.609 377.843 102.469C378.016 102.329 378.198 102.21 378.389 102.112C378.585 102.009 378.791 101.932 379.005 101.881C379.225 101.825 379.46 101.797 379.712 101.797C380.1 101.797 380.44 101.862 380.734 101.993C381.033 102.119 381.28 102.301 381.476 102.539C381.677 102.772 381.829 103.055 381.931 103.386C382.034 103.717 382.085 104.084 382.085 104.485V109H380.832V104.485C380.832 103.948 380.709 103.533 380.461 103.239C380.219 102.94 379.848 102.791 379.348 102.791C378.98 102.791 378.634 102.88 378.312 103.057C377.995 103.234 377.701 103.475 377.43 103.778V109H376.177V101.909H376.926C377.104 101.909 377.213 101.995 377.255 102.168L377.353 102.938ZM388.73 104.681C388.73 104.392 388.688 104.128 388.604 103.89C388.525 103.647 388.406 103.44 388.247 103.267C388.093 103.09 387.904 102.954 387.68 102.861C387.456 102.763 387.202 102.714 386.917 102.714C386.32 102.714 385.846 102.889 385.496 103.239C385.151 103.584 384.936 104.065 384.852 104.681H388.73ZM389.738 108.006C389.584 108.193 389.4 108.356 389.185 108.496C388.97 108.631 388.739 108.743 388.492 108.832C388.249 108.921 387.997 108.986 387.736 109.028C387.475 109.075 387.216 109.098 386.959 109.098C386.469 109.098 386.016 109.016 385.601 108.853C385.19 108.685 384.833 108.442 384.53 108.125C384.231 107.803 383.998 107.406 383.83 106.935C383.662 106.464 383.578 105.922 383.578 105.311C383.578 104.816 383.653 104.354 383.802 103.925C383.956 103.496 384.175 103.125 384.46 102.812C384.745 102.495 385.092 102.247 385.503 102.07C385.914 101.888 386.376 101.797 386.889 101.797C387.314 101.797 387.706 101.869 388.065 102.014C388.429 102.154 388.742 102.359 389.003 102.63C389.269 102.896 389.477 103.227 389.626 103.624C389.775 104.016 389.85 104.464 389.85 104.968C389.85 105.164 389.829 105.295 389.787 105.36C389.745 105.425 389.666 105.458 389.549 105.458H384.81C384.824 105.906 384.885 106.296 384.992 106.627C385.104 106.958 385.258 107.236 385.454 107.46C385.65 107.679 385.883 107.845 386.154 107.957C386.425 108.064 386.728 108.118 387.064 108.118C387.377 108.118 387.645 108.083 387.869 108.013C388.098 107.938 388.294 107.859 388.457 107.775C388.62 107.691 388.756 107.614 388.863 107.544C388.975 107.469 389.071 107.432 389.15 107.432C389.253 107.432 389.332 107.472 389.388 107.551L389.738 108.006ZM397.906 109H396.66V102.952H393.006V107.208C393.006 107.507 393.078 107.728 393.223 107.873C393.368 108.018 393.554 108.09 393.783 108.09C393.914 108.09 394.026 108.074 394.119 108.041C394.217 108.004 394.301 107.964 394.371 107.922C394.441 107.88 394.499 107.843 394.546 107.81C394.597 107.773 394.642 107.754 394.679 107.754C394.744 107.754 394.803 107.794 394.854 107.873L395.218 108.468C395.003 108.669 394.744 108.827 394.441 108.944C394.138 109.056 393.825 109.112 393.503 109.112C392.943 109.112 392.511 108.956 392.208 108.643C391.909 108.33 391.76 107.88 391.76 107.292V102.952H390.906C390.831 102.952 390.768 102.931 390.717 102.889C390.666 102.842 390.64 102.772 390.64 102.679V102.182L391.802 102.028L392.089 99.844C392.103 99.774 392.133 99.718 392.18 99.676C392.231 99.6293 392.297 99.606 392.376 99.606H393.006V102.049H397.906V109ZM398.214 99.634C398.214 99.7553 398.188 99.8697 398.137 99.977C398.09 100.08 398.025 100.171 397.941 100.25C397.862 100.329 397.768 100.392 397.661 100.439C397.554 100.486 397.439 100.509 397.318 100.509C397.197 100.509 397.082 100.486 396.975 100.439C396.872 100.392 396.781 100.329 396.702 100.25C396.623 100.171 396.56 100.08 396.513 99.977C396.466 99.8697 396.443 99.7553 396.443 99.634C396.443 99.5127 396.466 99.3983 396.513 99.291C396.56 99.179 396.623 99.0833 396.702 99.004C396.781 98.92 396.872 98.8547 396.975 98.808C397.082 98.7613 397.197 98.738 397.318 98.738C397.439 98.738 397.554 98.7613 397.661 98.808C397.768 98.8547 397.862 98.92 397.941 99.004C398.025 99.0833 398.09 99.179 398.137 99.291C398.188 99.3983 398.214 99.5127 398.214 99.634ZM404.846 102.441C404.846 102.53 404.829 102.616 404.797 102.7C404.769 102.784 404.729 102.856 404.678 102.917L400.835 108.027H404.713V109H399.372V108.482C399.372 108.421 399.386 108.351 399.414 108.272C399.442 108.188 399.484 108.109 399.54 108.034L403.404 102.889H399.589V101.909H404.846V102.441ZM410.126 105.808C409.552 105.827 409.062 105.873 408.656 105.948C408.255 106.018 407.926 106.111 407.669 106.228C407.417 106.345 407.233 106.482 407.116 106.641C407.004 106.8 406.948 106.977 406.948 107.173C406.948 107.36 406.978 107.521 407.039 107.656C407.1 107.791 407.181 107.903 407.284 107.992C407.391 108.076 407.515 108.139 407.655 108.181C407.8 108.218 407.954 108.237 408.117 108.237C408.336 108.237 408.537 108.216 408.719 108.174C408.901 108.127 409.071 108.062 409.23 107.978C409.393 107.894 409.547 107.794 409.692 107.677C409.841 107.56 409.986 107.427 410.126 107.278V105.808ZM406.101 102.91C406.493 102.532 406.915 102.25 407.368 102.063C407.821 101.876 408.322 101.783 408.873 101.783C409.27 101.783 409.622 101.848 409.93 101.979C410.238 102.11 410.497 102.292 410.707 102.525C410.917 102.758 411.076 103.041 411.183 103.372C411.29 103.703 411.344 104.067 411.344 104.464V109H410.791C410.67 109 410.576 108.981 410.511 108.944C410.446 108.902 410.394 108.823 410.357 108.706L410.217 108.034C410.03 108.207 409.848 108.361 409.671 108.496C409.494 108.627 409.307 108.739 409.111 108.832C408.915 108.921 408.705 108.988 408.481 109.035C408.262 109.086 408.017 109.112 407.746 109.112C407.471 109.112 407.212 109.075 406.969 109C406.726 108.921 406.514 108.804 406.332 108.65C406.155 108.496 406.012 108.302 405.905 108.069C405.802 107.831 405.751 107.551 405.751 107.229C405.751 106.949 405.828 106.681 405.982 106.424C406.136 106.163 406.386 105.932 406.731 105.731C407.076 105.53 407.527 105.367 408.082 105.241C408.637 105.11 409.319 105.036 410.126 105.017V104.464C410.126 103.913 410.007 103.498 409.769 103.218C409.531 102.933 409.183 102.791 408.726 102.791C408.418 102.791 408.159 102.831 407.949 102.91C407.744 102.985 407.564 103.071 407.41 103.169C407.261 103.262 407.13 103.349 407.018 103.428C406.911 103.503 406.803 103.54 406.696 103.54C406.612 103.54 406.54 103.519 406.479 103.477C406.418 103.43 406.367 103.374 406.325 103.309L406.101 102.91ZM419.726 109H418.48V102.952H414.826V107.208C414.826 107.507 414.899 107.728 415.043 107.873C415.188 108.018 415.375 108.09 415.603 108.09C415.734 108.09 415.846 108.074 415.939 108.041C416.037 108.004 416.121 107.964 416.191 107.922C416.261 107.88 416.32 107.843 416.366 107.81C416.418 107.773 416.462 107.754 416.499 107.754C416.565 107.754 416.623 107.794 416.674 107.873L417.038 108.468C416.824 108.669 416.565 108.827 416.261 108.944C415.958 109.056 415.645 109.112 415.323 109.112C414.763 109.112 414.332 108.956 414.028 108.643C413.73 108.33 413.58 107.88 413.58 107.292V102.952H412.726C412.652 102.952 412.589 102.931 412.537 102.889C412.486 102.842 412.46 102.772 412.46 102.679V102.182L413.622 102.028L413.909 99.844C413.923 99.774 413.954 99.718 414 99.676C414.052 99.6293 414.117 99.606 414.196 99.606H414.826V102.049H419.726V109ZM420.034 99.634C420.034 99.7553 420.009 99.8697 419.957 99.977C419.911 100.08 419.845 100.171 419.761 100.25C419.682 100.329 419.589 100.392 419.481 100.439C419.374 100.486 419.26 100.509 419.138 100.509C419.017 100.509 418.903 100.486 418.795 100.439C418.693 100.392 418.602 100.329 418.522 100.25C418.443 100.171 418.38 100.08 418.333 99.977C418.287 99.8697 418.263 99.7553 418.263 99.634C418.263 99.5127 418.287 99.3983 418.333 99.291C418.38 99.179 418.443 99.0833 418.522 99.004C418.602 98.92 418.693 98.8547 418.795 98.808C418.903 98.7613 419.017 98.738 419.138 98.738C419.26 98.738 419.374 98.7613 419.481 98.808C419.589 98.8547 419.682 98.92 419.761 99.004C419.845 99.0833 419.911 99.179 419.957 99.291C420.009 99.3983 420.034 99.5127 420.034 99.634ZM424.762 101.797C425.28 101.797 425.747 101.883 426.162 102.056C426.577 102.229 426.932 102.474 427.226 102.791C427.52 103.108 427.744 103.493 427.898 103.946C428.057 104.394 428.136 104.896 428.136 105.451C428.136 106.011 428.057 106.515 427.898 106.963C427.744 107.411 427.52 107.794 427.226 108.111C426.932 108.428 426.577 108.673 426.162 108.846C425.747 109.014 425.28 109.098 424.762 109.098C424.239 109.098 423.768 109.014 423.348 108.846C422.933 108.673 422.578 108.428 422.284 108.111C421.99 107.794 421.764 107.411 421.605 106.963C421.451 106.515 421.374 106.011 421.374 105.451C421.374 104.896 421.451 104.394 421.605 103.946C421.764 103.493 421.99 103.108 422.284 102.791C422.578 102.474 422.933 102.229 423.348 102.056C423.768 101.883 424.239 101.797 424.762 101.797ZM424.762 108.125C425.462 108.125 425.985 107.892 426.33 107.425C426.675 106.954 426.848 106.298 426.848 105.458C426.848 104.613 426.675 103.955 426.33 103.484C425.985 103.013 425.462 102.777 424.762 102.777C424.407 102.777 424.097 102.838 423.831 102.959C423.57 103.08 423.35 103.255 423.173 103.484C423 103.713 422.87 103.995 422.781 104.331C422.697 104.662 422.655 105.038 422.655 105.458C422.655 106.298 422.828 106.954 423.173 107.425C423.523 107.892 424.053 108.125 424.762 108.125ZM430.892 102.938C431.046 102.765 431.21 102.609 431.382 102.469C431.555 102.329 431.737 102.21 431.928 102.112C432.124 102.009 432.33 101.932 432.544 101.881C432.764 101.825 432.999 101.797 433.251 101.797C433.639 101.797 433.979 101.862 434.273 101.993C434.572 102.119 434.819 102.301 435.015 102.539C435.216 102.772 435.368 103.055 435.47 103.386C435.573 103.717 435.624 104.084 435.624 104.485V109H434.371V104.485C434.371 103.948 434.248 103.533 434 103.239C433.758 102.94 433.387 102.791 432.887 102.791C432.519 102.791 432.173 102.88 431.851 103.057C431.534 103.234 431.24 103.475 430.969 103.778V109H429.716V101.909H430.465C430.643 101.909 430.752 101.995 430.794 102.168L430.892 102.938Z" fill="#797399"/>
<g clip-path="url(#clip1)">
<path d="M404.253 67.8079C395.877 69.2298 383.487 63.5832 382.096 55.3071C381.196 49.9536 390.76 44.1263 398.325 43.3565C407.201 42.4533 416.307 46.4775 419.701 55.361C420.547 62.6361 412.628 66.386 404.253 67.8079Z" fill="#161326"/>
<path d="M403.473 63.2192C395.098 64.6411 382.945 60.3891 381.814 53.6448C381.082 49.2821 390.774 44.2112 398.324 43.3489C407.182 42.337 416.117 45.3589 419.223 52.5401C419.841 58.4803 411.849 61.7973 403.473 63.2192Z" fill="#201C33"/>
<path d="M403.915 63.4487C399.832 64.1418 394.395 63.4708 390.041 61.7807C387.867 60.9365 385.999 59.8516 384.711 58.5885C383.428 57.3295 382.752 55.928 382.856 54.4173C382.903 53.7212 383.394 52.8036 384.342 51.7653C385.273 50.7449 386.584 49.6756 388.134 48.6782C391.24 46.6808 395.232 45.018 398.91 44.5978C403.234 44.1039 407.86 45.045 411.472 46.8355C415.114 48.6405 417.576 51.2263 417.858 53.9295C418.002 55.3088 417.726 56.4805 417.122 57.4934C416.513 58.5138 415.554 59.4006 414.291 60.171C411.754 61.7182 408.087 62.7405 403.915 63.4487Z" fill="#6C5C99" stroke="#6C5C99" stroke-width="1.03011"/>
<path d="M382.275 52.6823C382.275 52.6823 382.208 53.5452 382.231 54.8023C382.729 57.793 385.636 61.7137 394.764 62.7221C402.482 63.3133 418.002 62.0773 418.648 52.4326C418.648 52.4326 419.821 57.6654 418.742 60.7092C417.976 62.8725 410.944 67.2243 402.45 67.9747C392.833 68.8243 386.601 64.8973 384.941 63.5507C382.714 61.743 382.279 57.4188 382.231 54.8023C382.098 54.0054 382.137 53.2745 382.275 52.6823Z" fill="#403366" stroke="#403366" stroke-width="1.0814"/>
<path d="M386.798 65.4597L386.825 62.7231L386.798 59.5309M392.811 67.631L392.811 61.932M398.747 68.6492L398.747 62.258M405.173 68.1371L405.173 61.3237M410.724 66.6504C410.724 64.3766 410.724 60.188 410.724 60.188M416.052 63.9381L416.052 56.4541" stroke="#6C5C99" stroke-width="1.0814"/>
<path d="M393.559 55.9644L396.505 53.6032C398.297 54.81 400.4 55.7608 402.689 56.2651L402.534 55.3932C402.757 55.4574 403.184 55.541 403.611 55.6247C403.896 55.6804 404.181 55.7362 404.405 55.7862C403.844 56.1611 403.419 56.6204 403.084 57.1241L401.051 57.4299L399.077 56.1343L393.559 55.9644Z" fill="#8E7CBF"/>
<path d="M401.931 53.2287L400.367 55.1148C401.873 54.8301 402.076 54.7066 401.931 53.2287Z" fill="#8E7CBF"/>
<path fill-rule="evenodd" clip-rule="evenodd" d="M394.346 47.7548L399.795 48.6324L401.98 47.7341L403.918 48.4191C404.72 50.48 406.708 51.3207 407.92 51.8337C408.039 51.8838 408.15 51.9308 408.252 51.9756L408.018 54.4172L406.995 54.6409C404.696 54.2427 401.809 53.0028 399.74 51.1983L399.949 52.5038C397.369 51.4673 396.765 50.7229 395.244 48.8503C394.978 48.5223 394.684 48.1597 394.346 47.7548ZM405.412 53.7397L406.999 53.1057L405.561 52.1827L405.412 53.7397ZM402.043 52.061L400.865 49.913C402.29 50.4776 402.465 50.6372 402.043 52.061Z" fill="#8E7CBF"/>
<path d="M399.256 57.8376C390.881 59.2595 378.491 53.613 377.1 45.3369C376.2 39.9834 385.764 34.1561 393.329 33.3863C402.205 32.4831 411.311 36.5073 414.705 45.3908C415.551 52.6659 407.632 56.4158 399.256 57.8376Z" fill="#161326"/>
<path d="M398.477 53.249C390.102 54.6709 377.949 50.4189 376.818 43.6745C376.086 39.3119 385.778 34.241 393.327 33.3786C402.186 32.3668 411.121 35.3887 414.226 42.5699C414.845 48.5101 406.853 51.8271 398.477 53.249Z" fill="#201C33"/>
<path d="M398.92 53.479C394.837 54.1721 389.4 53.5011 385.046 51.811C382.872 50.9668 381.004 49.8819 379.716 48.6188C378.433 47.3598 377.757 45.9583 377.861 44.4476C377.908 43.7515 378.399 42.8339 379.347 41.7956C380.278 40.7751 381.589 39.7059 383.139 38.7085C386.244 36.7111 390.237 35.0482 393.915 34.6281C398.239 34.1342 402.864 35.0752 406.477 36.8657C410.119 38.6708 412.581 41.2565 412.863 43.9598C413.007 45.3391 412.731 46.5108 412.127 47.5236C411.518 48.5441 410.558 49.4309 409.295 50.2013C406.759 51.7484 403.092 52.7707 398.92 53.479Z" fill="#6C5C99" stroke="#6C5C99" stroke-width="1.03011"/>
<path d="M377.279 42.7121C377.279 42.7121 377.213 43.575 377.236 44.8321C377.733 47.8228 380.641 51.7434 389.769 52.7518C397.487 53.343 413.007 52.1071 413.652 42.4623C413.652 42.4623 414.826 47.6951 413.747 50.739C412.98 52.9022 405.948 57.2541 397.455 58.0044C387.838 58.8541 381.606 54.9271 379.946 53.5805C377.719 51.7728 377.284 47.4485 377.236 44.8321C377.103 44.0352 377.142 43.3043 377.279 42.7121Z" fill="#403366" stroke="#403366" stroke-width="1.0814"/>
<path d="M381.803 55.4895L381.83 52.7529L381.803 49.5607M387.816 57.6608L387.816 51.9618M393.751 58.679L393.751 52.2878M400.178 58.679L400.178 51.3535M405.729 57.3619C405.729 55.0881 405.729 50.2178 405.729 50.2178M411.056 54.217L411.056 46.4839" stroke="#6C5C99" stroke-width="1.0814"/>
<path d="M388.564 46.0074L391.509 43.6461C393.302 44.8529 395.405 45.8037 397.694 46.3081L397.539 45.4362C397.762 45.5003 398.189 45.584 398.616 45.6676C398.901 45.7234 399.186 45.7791 399.41 45.8291C398.849 46.2041 398.424 46.6634 398.089 47.1671L396.056 47.4729L394.082 46.1772L388.564 46.0074Z" fill="#8E7CBF"/>
<path d="M396.936 43.2717L395.372 45.1578C396.878 44.8731 397.08 44.7496 396.936 43.2717Z" fill="#8E7CBF"/>
<path fill-rule="evenodd" clip-rule="evenodd" d="M389.35 37.7978L394.8 38.6754L396.985 37.777L398.923 38.4621C399.725 40.523 401.713 41.3637 402.925 41.8766C403.044 41.9268 403.155 41.9738 403.257 42.0185L403.023 44.4602L402 44.6838C399.701 44.2857 396.814 43.0458 394.745 41.2412L394.954 42.5467C392.374 41.5102 391.77 40.7659 390.249 38.8932C389.983 38.5652 389.689 38.2026 389.35 37.7978ZM400.417 43.7827L402.004 43.1487L400.566 42.2257L400.417 43.7827ZM397.048 42.1039L395.87 39.956C397.295 40.5206 397.47 40.6802 397.048 42.1039Z" fill="#8E7CBF"/>
<path d="M391.135 36.2937C385.716 29.7513 384.411 16.1979 390.883 10.8552C395.069 7.39916 404.898 12.7678 409.347 18.9345C414.567 26.1703 415.635 36.068 409.639 43.4494C403.761 47.8193 396.554 42.8361 391.135 36.2937Z" fill="#161326"/>
<path d="M394.72 33.3246C389.3 26.7822 386.906 14.1312 392.181 9.77954C395.594 6.96465 404.831 12.8227 409.353 18.9295C414.658 26.095 416.509 35.3442 411.842 41.6242C407.008 45.1303 400.139 39.867 394.72 33.3246Z" fill="#201C33"/>
<path d="M394.741 33.8233C392.1 30.634 389.962 25.5893 389.249 20.9743C388.893 18.6691 388.898 16.5087 389.348 14.7621C389.797 13.0211 390.673 11.735 392.033 11.0695C392.66 10.7628 393.7 10.7288 395.073 11.0304C396.422 11.3268 398.004 11.9275 399.643 12.7715C402.925 14.4619 406.361 17.0884 408.564 20.0633C411.154 23.5608 412.652 28.0373 412.907 32.061C413.165 36.1176 412.157 39.5431 409.957 41.1387C408.834 41.9528 407.682 42.2999 406.502 42.2829C405.314 42.2658 404.066 41.8783 402.768 41.1698C400.16 39.7468 397.441 37.082 394.741 33.8233Z" fill="#6C5C99" stroke="#6C5C99" stroke-width="1.03011"/>
<path d="M393.245 9.69734C393.245 9.69734 392.464 10.0712 391.387 10.7196C389.046 12.6458 387.104 17.124 390.795 25.5335C394.142 32.5134 402.972 45.336 411.648 41.0724C411.648 41.0724 407.703 44.7051 404.527 45.2928C402.27 45.7104 394.986 41.7964 390.089 34.8161C384.544 26.912 384.829 19.5513 385.166 17.4411C385.618 14.6081 389.145 12.0692 391.387 10.7196C392.011 10.2064 392.663 9.8743 393.245 9.69734Z" fill="#403366" stroke="#403366" stroke-width="1.0814"/>
<path d="M384.441 20.0041L386.825 18.6597L389.554 17.3213M385.426 26.7243L390.503 23.4481M388.06 32.6513L393.189 28.7513M392.2 38.7665L397.211 33.8493M396.836 43.0317C398.373 41.2367 400.97 38.0888 400.97 38.0888M402.211 45.6463L406.038 40.5853" stroke="#6C5C99" stroke-width="1.0814"/>
<path d="M395.983 21.1216L399.503 22.4883C399.353 24.6421 399.58 26.9366 400.287 29.1686L400.965 28.5986C401.021 28.8234 401.162 29.2346 401.303 29.6457C401.397 29.9199 401.491 30.194 401.56 30.4129C400.955 30.1155 400.343 29.977 399.739 29.9396L398.458 28.3343L398.594 25.9784L395.983 21.1216Z" fill="#8E7CBF"/>
<path d="M402.541 26.9942L400.123 26.5846C401.123 27.7448 401.331 27.8584 402.541 26.9942Z" fill="#8E7CBF"/>
<path fill-rule="evenodd" clip-rule="evenodd" d="M403.495 17.6968L405.458 22.8488L407.33 24.2894L407.705 26.308C406.319 28.0322 406.584 30.1718 406.745 31.4772C406.761 31.6048 406.776 31.7245 406.788 31.835L404.554 32.8536L403.848 32.0805C403.044 29.8927 402.676 26.7762 403.206 24.0843L402.178 24.9177C401.787 22.1681 402.131 21.2732 402.994 19.0219C403.145 18.6275 403.313 18.1916 403.495 17.6968ZM403.838 30.2605L405.181 31.3163L405.263 29.611L403.838 30.2605ZM403.609 26.5071L404.883 24.4145C405.106 25.9291 405.055 26.1607 403.609 26.5071Z" fill="#8E7CBF"/>
<rect x="416.152" y="12.2744" width="0.72093" height="5.04651" rx="0.360465" fill="#8E7CBF"/>
<rect x="419.036" y="14.437" width="0.72093" height="5.04651" rx="0.360465" transform="rotate(90 419.036 14.437)" fill="#8E7CBF"/>
<rect x="408.114" y="5.75195" width="0.931695" height="6.52186" rx="0.465847" fill="#8E7CBF"/>
<rect x="411.842" y="8.54736" width="0.931695" height="6.52186" rx="0.465847" transform="rotate(90 411.842 8.54736)" fill="#8E7CBF"/>
</g>
<g clip-path="url(#clip2)">
<path d="M44.8722 10.1403L44.8722 10.1403C42.7282 9.4496 40.405 10.5497 39.6831 12.5975L34.9094 26.1382C34.1875 28.186 35.3403 30.406 37.4842 31.0967C39.6281 31.7875 41.9514 30.6873 42.6733 28.6395L47.4469 15.0989C48.1688 13.0511 47.0161 10.8311 44.8722 10.1403Z" fill="#403366"/>
<path d="M23.4805 8.97786L23.4805 8.97787C21.4607 9.89807 20.603 12.2083 21.565 14.138L27.9238 26.8938C28.8858 28.8234 31.303 29.6417 33.3228 28.7215C35.3427 27.8013 36.2003 25.4911 35.2384 23.5614L28.8796 10.8056C27.9176 8.87597 25.5004 8.05766 23.4805 8.97786Z" fill="#6C5C99"/>
<path d="M39.6578 10.3249C39.4769 8.20308 37.5291 6.62333 35.3072 6.79643C33.0854 6.96954 31.4308 8.82994 31.6117 10.9518L32.8081 24.9862C32.989 27.108 34.9368 28.6878 37.1587 28.5147C39.3806 28.3416 41.0351 26.4812 40.8542 24.3594L39.6578 10.3249Z" fill="#6C5C99"/>
<path d="M32.5419 8.69336C30.6236 10.7305 27.7993 9.62896 27 9.01164L30.144 22.12L34.9399 18.8791L32.5419 8.69336Z" fill="#6C5C99"/>
<path d="M26.6806 24.6825C24.9146 26.6006 20.5844 31.8917 17.0675 37.0733C13.5506 42.255 -6.59629 71.4569 34.4178 71.993C75.4319 72.5292 55.285 42.255 51.768 37.0733C48.7098 32.5675 43.921 26.6006 42.155 24.6825L34.4178 21.979L26.6806 24.6825C29.0217 22.1396 26.636 26.0951 26.6806 24.6825Z" fill="#6C5C99"/>
<path d="M31.7875 14.7983C31.4366 13.8419 30.3405 13.3388 29.3393 13.6744C28.338 14.0101 27.8108 15.0575 28.1616 16.0139L30.5963 22.6507C30.9472 23.6071 32.0433 24.1102 33.0445 23.7746C34.0458 23.4389 34.573 22.3915 34.2222 21.4351L31.7875 14.7983Z" fill="#403366"/>
<path d="M44.7864 22.5059H25.0421C23.9062 22.5059 22.9854 23.3852 22.9854 24.4699C22.9854 25.5546 23.9062 26.434 25.0421 26.434H44.7864C45.9223 26.434 46.8431 25.5546 46.8431 24.4699C46.8431 23.3852 45.9223 22.5059 44.7864 22.5059Z" fill="#8E7CBF"/>
</g>
<path d="M2.83627 109H1.47827V98.969H2.83627V109ZM6.17472 102.938C6.32872 102.765 6.49205 102.609 6.66472 102.469C6.83739 102.329 7.01939 102.21 7.21072 102.112C7.40672 102.009 7.61205 101.932 7.82672 101.881C8.04605 101.825 8.28172 101.797 8.53372 101.797C8.92105 101.797 9.26172 101.862 9.55572 101.993C9.85439 102.119 10.1017 102.301 10.2977 102.539C10.4984 102.772 10.6501 103.055 10.7527 103.386C10.8554 103.717 10.9067 104.084 10.9067 104.485V109H9.65372V104.485C9.65372 103.948 9.53005 103.533 9.28272 103.239C9.04005 102.94 8.66905 102.791 8.16972 102.791C7.80105 102.791 7.45572 102.88 7.13372 103.057C6.81639 103.234 6.52239 103.475 6.25172 103.778V109H4.99872V101.909H5.74772C5.92505 101.909 6.03472 101.995 6.07672 102.168L6.17472 102.938ZM18.731 101.909L15.84 109H14.72L11.829 101.909H12.844C12.9466 101.909 13.0306 101.935 13.096 101.986C13.1613 102.037 13.2056 102.098 13.229 102.168L15.028 106.732C15.084 106.905 15.133 107.073 15.175 107.236C15.217 107.399 15.2566 107.563 15.294 107.726C15.3313 107.563 15.371 107.399 15.413 107.236C15.455 107.073 15.5063 106.905 15.567 106.732L17.387 102.168C17.415 102.093 17.4616 102.033 17.527 101.986C17.5923 101.935 17.6693 101.909 17.758 101.909H18.731ZM24.4283 104.681C24.4283 104.392 24.3863 104.128 24.3023 103.89C24.223 103.647 24.104 103.44 23.9453 103.267C23.7913 103.09 23.6023 102.954 23.3783 102.861C23.1543 102.763 22.9 102.714 22.6153 102.714C22.018 102.714 21.5443 102.889 21.1943 103.239C20.849 103.584 20.6343 104.065 20.5503 104.681H24.4283ZM25.4363 108.006C25.2823 108.193 25.098 108.356 24.8833 108.496C24.6686 108.631 24.4376 108.743 24.1903 108.832C23.9476 108.921 23.6956 108.986 23.4343 109.028C23.173 109.075 22.914 109.098 22.6573 109.098C22.1673 109.098 21.7146 109.016 21.2993 108.853C20.8886 108.685 20.5316 108.442 20.2283 108.125C19.9296 107.803 19.6963 107.406 19.5283 106.935C19.3603 106.464 19.2763 105.922 19.2763 105.311C19.2763 104.816 19.351 104.354 19.5003 103.925C19.6543 103.496 19.8736 103.125 20.1583 102.812C20.443 102.495 20.7906 102.247 21.2013 102.07C21.612 101.888 22.074 101.797 22.5873 101.797C23.012 101.797 23.404 101.869 23.7633 102.014C24.1273 102.154 24.44 102.359 24.7013 102.63C24.9673 102.896 25.175 103.227 25.3243 103.624C25.4736 104.016 25.5483 104.464 25.5483 104.968C25.5483 105.164 25.5273 105.295 25.4853 105.36C25.4433 105.425 25.364 105.458 25.2473 105.458H20.5083C20.5223 105.906 20.583 106.296 20.6903 106.627C20.8023 106.958 20.9563 107.236 21.1523 107.46C21.3483 107.679 21.5816 107.845 21.8523 107.957C22.123 108.064 22.4263 108.118 22.7623 108.118C23.075 108.118 23.3433 108.083 23.5673 108.013C23.796 107.938 23.992 107.859 24.1553 107.775C24.3186 107.691 24.454 107.614 24.5613 107.544C24.6733 107.469 24.769 107.432 24.8483 107.432C24.951 107.432 25.0303 107.472 25.0863 107.551L25.4363 108.006ZM31.2088 103.078C31.1528 103.181 31.0665 103.232 30.9498 103.232C30.8798 103.232 30.8005 103.206 30.7118 103.155C30.6231 103.104 30.5135 103.048 30.3828 102.987C30.2568 102.922 30.1051 102.863 29.9278 102.812C29.7505 102.756 29.5405 102.728 29.2978 102.728C29.0878 102.728 28.8988 102.756 28.7308 102.812C28.5628 102.863 28.4181 102.936 28.2968 103.029C28.1801 103.122 28.0891 103.232 28.0238 103.358C27.9631 103.479 27.9328 103.612 27.9328 103.757C27.9328 103.939 27.9841 104.091 28.0868 104.212C28.1941 104.333 28.3341 104.438 28.5068 104.527C28.6795 104.616 28.8755 104.695 29.0948 104.765C29.3141 104.83 29.5381 104.903 29.7668 104.982C30.0001 105.057 30.2265 105.141 30.4458 105.234C30.6651 105.327 30.8611 105.444 31.0338 105.584C31.2065 105.724 31.3441 105.897 31.4468 106.102C31.5541 106.303 31.6078 106.545 31.6078 106.83C31.6078 107.157 31.5495 107.46 31.4328 107.74C31.3161 108.015 31.1435 108.256 30.9148 108.461C30.6861 108.662 30.4061 108.82 30.0748 108.937C29.7435 109.054 29.3608 109.112 28.9268 109.112C28.4321 109.112 27.9841 109.033 27.5828 108.874C27.1815 108.711 26.8408 108.503 26.5608 108.251L26.8548 107.775C26.8921 107.714 26.9365 107.668 26.9878 107.635C27.0391 107.602 27.1045 107.586 27.1838 107.586C27.2678 107.586 27.3565 107.619 27.4498 107.684C27.5431 107.749 27.6551 107.822 27.7858 107.901C27.9211 107.98 28.0845 108.053 28.2758 108.118C28.4671 108.183 28.7051 108.216 28.9898 108.216C29.2325 108.216 29.4448 108.186 29.6268 108.125C29.8088 108.06 29.9605 107.973 30.0818 107.866C30.2031 107.759 30.2918 107.635 30.3478 107.495C30.4085 107.355 30.4388 107.206 30.4388 107.047C30.4388 106.851 30.3851 106.69 30.2778 106.564C30.1751 106.433 30.0375 106.324 29.8648 106.235C29.6921 106.142 29.4938 106.062 29.2698 105.997C29.0505 105.927 28.8241 105.855 28.5908 105.78C28.3621 105.705 28.1358 105.621 27.9118 105.528C27.6925 105.43 27.4965 105.309 27.3238 105.164C27.1511 105.019 27.0111 104.842 26.9038 104.632C26.8011 104.417 26.7498 104.158 26.7498 103.855C26.7498 103.584 26.8058 103.325 26.9178 103.078C27.0298 102.826 27.1931 102.607 27.4078 102.42C27.6225 102.229 27.8861 102.077 28.1988 101.965C28.5115 101.853 28.8685 101.797 29.2698 101.797C29.7365 101.797 30.1541 101.872 30.5228 102.021C30.8961 102.166 31.2181 102.366 31.4888 102.623L31.2088 103.078ZM35.3124 109.112C34.7524 109.112 34.3208 108.956 34.0174 108.643C33.7188 108.33 33.5694 107.88 33.5694 107.292V102.952H32.7154C32.6408 102.952 32.5778 102.931 32.5264 102.889C32.4751 102.842 32.4494 102.772 32.4494 102.679V102.182L33.6114 102.035L33.8984 99.844C33.9124 99.774 33.9428 99.718 33.9894 99.676C34.0408 99.6293 34.1061 99.606 34.1854 99.606H34.8154V102.049H36.8664V102.952H34.8154V107.208C34.8154 107.507 34.8878 107.728 35.0324 107.873C35.1771 108.018 35.3638 108.09 35.5924 108.09C35.7231 108.09 35.8351 108.074 35.9284 108.041C36.0264 108.004 36.1104 107.964 36.1804 107.922C36.2504 107.88 36.3088 107.843 36.3554 107.81C36.4068 107.773 36.4511 107.754 36.4884 107.754C36.5538 107.754 36.6121 107.794 36.6634 107.873L37.0274 108.468C36.8128 108.669 36.5538 108.827 36.2504 108.944C35.9471 109.056 35.6344 109.112 35.3124 109.112ZM38.153 109V101.909H38.902C39.0793 101.909 39.189 101.995 39.231 102.168L39.322 102.896C39.5833 102.574 39.8773 102.31 40.204 102.105C40.5307 101.9 40.9087 101.797 41.338 101.797C41.814 101.797 42.199 101.93 42.493 102.196C42.7917 102.462 43.0063 102.821 43.137 103.274C43.2397 103.017 43.3703 102.796 43.529 102.609C43.6923 102.422 43.8743 102.268 44.075 102.147C44.2757 102.026 44.488 101.937 44.712 101.881C44.9407 101.825 45.1717 101.797 45.405 101.797C45.7783 101.797 46.1097 101.858 46.399 101.979C46.693 102.096 46.9403 102.268 47.141 102.497C47.3463 102.726 47.5027 103.008 47.61 103.344C47.7173 103.675 47.771 104.056 47.771 104.485V109H46.518V104.485C46.518 103.93 46.3967 103.51 46.154 103.225C45.9113 102.936 45.5613 102.791 45.104 102.791C44.8987 102.791 44.7027 102.828 44.516 102.903C44.334 102.973 44.173 103.078 44.033 103.218C43.893 103.358 43.781 103.535 43.697 103.75C43.6177 103.96 43.578 104.205 43.578 104.485V109H42.325V104.485C42.325 103.916 42.2107 103.491 41.982 103.211C41.7533 102.931 41.4197 102.791 40.981 102.791C40.673 102.791 40.3883 102.875 40.127 103.043C39.8657 103.206 39.6253 103.43 39.406 103.715V109H38.153ZM54.4107 104.681C54.4107 104.392 54.3687 104.128 54.2847 103.89C54.2054 103.647 54.0864 103.44 53.9277 103.267C53.7737 103.09 53.5847 102.954 53.3607 102.861C53.1367 102.763 52.8824 102.714 52.5977 102.714C52.0004 102.714 51.5267 102.889 51.1767 103.239C50.8314 103.584 50.6167 104.065 50.5327 104.681H54.4107ZM55.4187 108.006C55.2647 108.193 55.0804 108.356 54.8657 108.496C54.6511 108.631 54.4201 108.743 54.1727 108.832C53.9301 108.921 53.6781 108.986 53.4167 109.028C53.1554 109.075 52.8964 109.098 52.6397 109.098C52.1497 109.098 51.6971 109.016 51.2817 108.853C50.8711 108.685 50.5141 108.442 50.2107 108.125C49.9121 107.803 49.6787 107.406 49.5107 106.935C49.3427 106.464 49.2587 105.922 49.2587 105.311C49.2587 104.816 49.3334 104.354 49.4827 103.925C49.6367 103.496 49.8561 103.125 50.1407 102.812C50.4254 102.495 50.7731 102.247 51.1837 102.07C51.5944 101.888 52.0564 101.797 52.5697 101.797C52.9944 101.797 53.3864 101.869 53.7457 102.014C54.1097 102.154 54.4224 102.359 54.6837 102.63C54.9497 102.896 55.1574 103.227 55.3067 103.624C55.4561 104.016 55.5307 104.464 55.5307 104.968C55.5307 105.164 55.5097 105.295 55.4677 105.36C55.4257 105.425 55.3464 105.458 55.2297 105.458H50.4907C50.5047 105.906 50.5654 106.296 50.6727 106.627C50.7847 106.958 50.9387 107.236 51.1347 107.46C51.3307 107.679 51.5641 107.845 51.8347 107.957C52.1054 108.064 52.4087 108.118 52.7447 108.118C53.0574 108.118 53.3257 108.083 53.5497 108.013C53.7784 107.938 53.9744 107.859 54.1377 107.775C54.3011 107.691 54.4364 107.614 54.5437 107.544C54.6557 107.469 54.7514 107.432 54.8307 107.432C54.9334 107.432 55.0127 107.472 55.0687 107.551L55.4187 108.006ZM58.2372 102.938C58.3912 102.765 58.5546 102.609 58.7272 102.469C58.8999 102.329 59.0819 102.21 59.2732 102.112C59.4692 102.009 59.6746 101.932 59.8892 101.881C60.1086 101.825 60.3442 101.797 60.5962 101.797C60.9836 101.797 61.3242 101.862 61.6182 101.993C61.9169 102.119 62.1642 102.301 62.3602 102.539C62.5609 102.772 62.7126 103.055 62.8152 103.386C62.9179 103.717 62.9692 104.084 62.9692 104.485V109H61.7162V104.485C61.7162 103.948 61.5926 103.533 61.3452 103.239C61.1026 102.94 60.7316 102.791 60.2322 102.791C59.8636 102.791 59.5182 102.88 59.1962 103.057C58.8789 103.234 58.5849 103.475 58.3142 103.778V109H57.0612V101.909H57.8102C57.9876 101.909 58.0972 101.995 58.1392 102.168L58.2372 102.938ZM66.9492 109.112C66.3892 109.112 65.9575 108.956 65.6542 108.643C65.3555 108.33 65.2062 107.88 65.2062 107.292V102.952H64.3522C64.2775 102.952 64.2145 102.931 64.1632 102.889C64.1118 102.842 64.0862 102.772 64.0862 102.679V102.182L65.2482 102.035L65.5352 99.844C65.5492 99.774 65.5795 99.718 65.6262 99.676C65.6775 99.6293 65.7428 99.606 65.8222 99.606H66.4522V102.049H68.5032V102.952H66.4522V107.208C66.4522 107.507 66.5245 107.728 66.6692 107.873C66.8138 108.018 67.0005 108.09 67.2292 108.09C67.3598 108.09 67.4718 108.074 67.5652 108.041C67.6632 108.004 67.7472 107.964 67.8172 107.922C67.8872 107.88 67.9455 107.843 67.9922 107.81C68.0435 107.773 68.0878 107.754 68.1252 107.754C68.1905 107.754 68.2488 107.794 68.3002 107.873L68.6642 108.468C68.4495 108.669 68.1905 108.827 67.8872 108.944C67.5838 109.056 67.2712 109.112 66.9492 109.112Z" fill="#797399"/>
<defs>
<clipPath id="clip0">
<rect width="62" height="72" fill="white" transform="translate(181)"/>
</clipPath>
<clipPath id="clip1">
<rect width="62" height="72" fill="white" transform="translate(364)"/>
</clipPath>
<clipPath id="clip2">
<rect width="62" height="72" fill="white" transform="translate(4)"/>
</clipPath>
</defs>
</svg>
