<svg width="90" height="90" viewBox="0 0 90 90" fill="none" xmlns="http://www.w3.org/2000/svg">
<path d="M45.7529 9.00027C38.8811 8.96932 32.043 11.628 27.3037 16.2034C22.7 20.5313 20.0934 26.5597 20.2626 32.588C20.3303 39.1109 23.6478 45.4793 29.0641 49.7145C33.634 53.3316 39.6934 55.3719 45.7529 55.3719V45.7575C40.5735 45.7266 35.4619 43.1298 32.9231 38.9872C29.9779 34.4738 30.3165 28.4146 33.7694 24.1792C36.4774 20.686 41.0813 18.6456 45.7529 18.6147V9.00027Z" fill="#B2ADCC"/>
<path d="M68.8058 28.0126H46.0915V37.5961H58.3456V48.8181H68.8058V28.0126Z" fill="#B2ADCC"/>
<path d="M30.1811 76.5483C30.1811 77.9085 31.3658 78.9597 32.8216 78.9597C34.3109 78.9597 35.4619 77.9395 35.4281 76.5483H37.7638C37.7638 79.0833 35.5973 81 32.8216 81C30.0456 81 27.8791 79.0524 27.8791 76.5483H30.1811Z" fill="#B2ADCC"/>
<path fill-rule="evenodd" clip-rule="evenodd" d="M37.6961 67.6141V69.2835L37.0192 69.5307C37.5269 70.149 37.7638 70.9837 37.7638 71.8185C37.7638 74.3534 35.5973 76.2701 32.8216 76.2701C30.0456 76.2701 27.8791 74.3225 27.8791 71.8185C27.8791 69.2835 30.0456 67.3667 32.8216 67.3667C33.3971 67.3667 33.9726 67.4595 34.4803 67.6141H37.6961ZM30.1811 71.7875C30.1811 73.1787 31.3658 74.2298 32.8216 74.2298C34.3109 74.2298 35.4959 73.1787 35.4619 71.7875C35.4619 70.4272 34.3109 69.3762 32.8216 69.3762C31.332 69.3762 30.1811 70.4272 30.1811 71.7875Z" fill="#B2ADCC"/>
<path d="M16.3019 75.9919H14V64.0589H16.3019V75.9919Z" fill="#B2ADCC"/>
<path fill-rule="evenodd" clip-rule="evenodd" d="M17.182 71.8185C17.182 69.2835 19.3485 67.3667 22.1243 67.3667C24.9002 67.3667 27.1005 69.2835 27.0667 71.8185C27.0667 74.3534 24.9002 76.2701 22.1243 76.2701C19.3485 76.2701 17.182 74.3225 17.182 71.8185ZM19.484 71.7875C19.484 73.1787 20.6687 74.2298 22.1243 74.2298C23.6138 74.2298 24.7988 73.1787 24.7648 71.7875C24.7648 70.4272 23.6138 69.3762 22.1243 69.3762C20.6349 69.3762 19.484 70.4272 19.484 71.7875Z" fill="#B2ADCC"/>
<path d="M41.0136 75.9919H38.7117V67.6141H41.0136V75.9919Z" fill="#B2ADCC"/>
<path d="M64.676 70.4582C64.0665 69.8399 63.2879 69.3762 62.3063 69.3762C60.8168 69.3762 59.6998 70.4272 59.6998 71.7875C59.6998 73.1477 60.8507 74.1988 62.3063 74.1988C63.2879 74.1988 64.1005 73.7351 64.676 73.1169L66.267 74.5698C65.3529 75.59 63.9651 76.2392 62.3401 76.2392C59.5643 76.2392 57.3978 74.2916 57.3978 71.7875C57.3978 69.2525 59.5643 67.3359 62.3401 67.3359C63.9651 67.3359 65.3869 67.9851 66.267 69.0052L64.676 70.4582Z" fill="#B2ADCC"/>
<path d="M69.4151 68.4178C70.0922 67.7686 71.0738 67.3667 72.191 67.3667C74.3575 67.3667 75.9485 68.7579 75.9823 71.0456V75.9919H73.6804V71.4475C73.6804 70.149 72.9697 69.4071 71.6493 69.4071C70.2614 69.4071 69.4151 70.2417 69.4151 71.4475V75.9919H67.1131V64.0589H69.4151V68.4178Z" fill="#B2ADCC"/>
<path fill-rule="evenodd" clip-rule="evenodd" d="M47.0731 71.8493C47.0731 69.2835 49.1719 67.3667 51.9138 67.3667C54.6896 67.3667 56.6192 69.2835 56.6192 72.0967V72.5913H49.4765C49.8151 73.7042 50.7629 74.3534 52.0153 74.3534C53.0648 74.3534 53.8772 73.8897 54.6219 73.2405L56.1454 74.6316C55.0621 75.6827 53.6063 76.2392 51.9476 76.2392C49.0027 76.2392 47.0731 74.3843 47.0731 71.8493ZM51.8461 69.1907C50.6274 69.1907 49.7134 69.809 49.4088 70.9219H54.2158C53.9449 69.809 53.0309 69.1907 51.8461 69.1907Z" fill="#B2ADCC"/>
<path fill-rule="evenodd" clip-rule="evenodd" d="M76.2194 66.4084C76.3886 66.4084 76.524 66.4702 76.524 66.6248C76.524 66.7794 76.4563 66.8412 76.3546 66.8412L76.5578 67.1504H76.4224L76.2194 66.8412H76.05V67.1504H75.9486V66.4084H76.2194ZM76.05 66.5012V66.7485H76.2194C76.3546 66.7485 76.4224 66.7175 76.4224 66.6248C76.4224 66.563 76.3546 66.5012 76.2194 66.5012H76.05Z" fill="#B2ADCC"/>
<path fill-rule="evenodd" clip-rule="evenodd" d="M75.4068 66.7794C75.4068 66.4083 75.7792 66.0683 76.2194 66.0683C76.6595 66.0683 77.0318 66.4083 76.9978 66.7794C76.9978 67.1812 76.6595 67.5213 76.2194 67.5213C75.7792 67.5213 75.4068 67.1812 75.4068 66.7794ZM75.5085 66.7794C75.5085 67.1504 75.8131 67.4286 76.2194 67.4286C76.6255 67.4286 76.9301 67.1504 76.8964 66.7794C76.8964 66.4393 76.5918 66.1611 76.2194 66.1611C75.8131 66.1611 75.5085 66.4393 75.5085 66.7794Z" fill="#B2ADCC"/>
<path d="M38.3393 65.2336C38.3393 64.4607 38.9825 63.8425 39.8289 63.8425C40.709 63.8425 41.3859 64.4607 41.3522 65.2336C41.3522 65.9756 40.709 66.5939 39.8289 66.5939C39.0163 66.5939 38.3393 66.0065 38.3393 65.2336Z" fill="#B2ADCC"/>
<path d="M43.2141 65.0481H45.5158V67.6141H46.7684V69.4689H45.5158V75.9919H43.2141V69.4689H41.9954V67.6141H43.2141V65.0481Z" fill="#B2ADCC"/>
</svg>
