<svg width="90" height="90" viewBox="0 0 90 90" fill="none" xmlns="http://www.w3.org/2000/svg">
<path d="M66.6028 36.5662C65.8538 37.8546 65.1198 39.1224 64.3807 40.3901C64.0187 40.1521 63.6615 39.9089 63.2945 39.6812C62.3422 39.0913 61.3056 38.7498 60.2144 38.5946C59.2125 38.4549 58.2107 38.4342 57.2187 38.6877C54.9619 39.2569 53.4789 40.9748 53.1367 43.3861C52.9681 44.5969 53.0078 45.787 53.3897 46.9461C53.9204 48.5605 54.9669 49.6679 56.4995 50.2681C57.7891 50.77 59.1133 50.8269 60.4624 50.5889C61.2015 50.4596 61.9157 50.2371 62.5853 49.8904C62.6597 49.849 62.744 49.7351 62.744 49.6523C62.7539 48.6537 62.7489 47.6498 62.7489 46.6149C61.1271 46.6149 59.5151 46.6149 57.8883 46.6149C57.8883 45.3058 57.8883 44.0329 57.8883 42.7393C61.0378 42.7393 64.1923 42.7393 67.3715 42.7393C67.3765 42.8117 67.3864 42.8945 67.3864 42.9773C67.3864 46.082 67.3864 49.1866 67.3864 52.2913C67.3864 52.431 67.3765 52.5397 67.2426 52.6432C66.1117 53.5228 64.837 54.1127 63.5078 54.5732C61.7718 55.1786 59.9912 55.5357 58.1561 55.4529C55.6166 55.3339 53.2905 54.5577 51.3313 52.8191C49.6301 51.3082 48.6034 49.3781 48.1669 47.0962C47.9933 46.201 47.909 45.2955 47.9288 44.3796C47.9685 42.672 48.281 41.0214 49.025 39.4897C50.0814 37.3113 51.7132 35.7486 53.8608 34.7707C55.1107 34.2015 56.4152 33.9014 57.7692 33.7979C59.5151 33.6633 61.2213 33.8807 62.8779 34.4498C64.2319 34.9155 65.4669 35.6193 66.6028 36.5662Z" fill="#B2ADCC"/>
<path d="M87.4342 36.561C86.6902 37.8443 85.9462 39.1172 85.2122 40.3849C84.7708 40.1003 84.3541 39.795 83.9028 39.5467C82.8017 38.9361 81.6212 38.6101 80.3714 38.5273C79.4687 38.4704 78.5808 38.5118 77.7079 38.786C76.2547 39.2465 75.1288 40.1366 74.5038 41.5854C73.5813 43.7276 73.6011 45.8854 74.6774 47.9758C75.2528 49.0935 76.1803 49.8283 77.3161 50.2629C78.933 50.8839 80.5697 50.8528 82.2115 50.3664C82.6281 50.2422 83.0249 50.056 83.4266 49.88C83.4961 49.849 83.5804 49.7403 83.5804 49.6627C83.5903 48.6537 83.5854 47.6447 83.5854 46.6098C81.9635 46.6098 80.3565 46.6098 78.7296 46.6098C78.7296 45.3058 78.7296 44.0277 78.7296 42.7289C81.8792 42.7289 85.0287 42.7289 88.2079 42.7289C88.2129 42.8221 88.2179 42.9101 88.2179 43.0032C88.2179 46.0923 88.2179 49.1763 88.2179 52.2654C88.2179 52.4103 88.2079 52.5293 88.0691 52.638C86.9432 53.5125 85.6784 54.1024 84.3591 54.5577C82.6529 55.1528 80.912 55.5098 79.1066 55.4425C76.5275 55.3494 74.1715 54.5732 72.1777 52.8191C70.6996 51.5203 69.7176 49.8697 69.1918 47.9241C68.8744 46.7598 68.7355 45.5697 68.7603 44.3589C68.8 42.6513 69.1124 41.0007 69.8614 39.4742C71.0071 37.1354 72.7828 35.521 75.1288 34.574C76.7705 33.9117 78.4717 33.6789 80.2126 33.7616C81.7998 33.8393 83.3324 34.2066 84.7906 34.8845C85.7379 35.3295 86.6009 35.8935 87.4342 36.561Z" fill="#B2ADCC"/>
<path d="M1.78223 44.7832C1.78719 42.7445 2.17902 40.9489 3.04699 39.2776C3.94473 37.5493 5.2095 36.1885 6.85121 35.2053C8.24494 34.3722 9.74282 33.9221 11.3399 33.7979C13.5123 33.6323 15.5657 34.0721 17.4653 35.1794C18.9731 36.0591 20.1784 37.2854 21.0761 38.8326C21.8846 40.2245 22.3607 41.7406 22.5244 43.3499C22.6831 44.9022 22.5591 46.4338 22.1276 47.9396C21.5771 49.8541 20.5851 51.4789 19.1517 52.7984C17.8175 54.0247 16.27 54.8164 14.5291 55.1993C13.18 55.4995 11.826 55.5357 10.457 55.3235C8.7806 55.0648 7.26288 54.4128 5.89892 53.3831C4.72839 52.4983 3.80089 51.3858 3.10155 50.0663C2.20878 48.3794 1.78719 46.5632 1.78223 44.7832ZM12.2079 50.5993C12.4608 50.5786 12.7187 50.563 12.9717 50.5268C14.9606 50.2474 16.389 49.1504 17.2124 47.2411C17.7332 46.0354 17.8423 44.7625 17.624 43.4585C17.3612 41.87 16.6519 40.5557 15.3673 39.6398C14.1373 38.7653 12.7634 38.5066 11.2903 38.7343C10.0801 38.9206 9.03356 39.4587 8.21022 40.3953C6.85121 41.9373 6.43954 43.7794 6.77681 45.8077C7.24304 48.6744 9.44026 50.5941 12.2079 50.5993Z" fill="#B2ADCC"/>
<path d="M29.7807 49.554C29.7807 50.5165 29.7807 51.4375 29.7807 52.3586C29.7807 53.2745 29.7807 54.1852 29.7807 55.1217C28.1489 55.1217 26.527 55.1217 24.8803 55.1217C24.8803 48.1259 24.8803 41.1197 24.8803 34.0773C24.9498 34.0773 25.0291 34.0773 25.1085 34.0773C28.4961 34.0773 31.8886 34.0411 35.2762 34.0928C37.2403 34.1187 39.006 34.7914 40.4097 36.2919C41.3372 37.2854 41.8927 38.4911 42.1208 39.8468C42.2448 40.5764 42.3292 41.3318 42.3143 42.0718C42.2796 43.9294 41.7389 45.6059 40.5337 47.0186C39.4177 48.3225 38.0141 49.0883 36.3823 49.3936C35.8367 49.4971 35.2713 49.5385 34.7158 49.5489C33.1683 49.5696 31.6258 49.554 30.0783 49.554C29.989 49.554 29.8997 49.554 29.7807 49.554ZM29.8402 45.0419C31.3083 45.0419 32.7417 45.0419 34.1801 45.0419C34.2892 45.0419 34.3983 45.0471 34.5025 45.0316C35.7177 44.8401 36.6303 44.1985 36.9973 42.9463C37.3792 41.6475 37.2106 40.4211 36.2533 39.4121C35.5986 38.7239 34.7554 38.5532 33.8676 38.548C32.6128 38.5376 31.3579 38.548 30.1031 38.548C30.0138 38.548 29.9295 38.5532 29.8402 38.5583C29.8402 40.7368 29.8402 42.879 29.8402 45.0419Z" fill="#B2ADCC"/>
<path d="M44.323 55.5667C43.3311 55.546 42.5127 55.3391 41.9076 54.5836C41.5554 54.1489 41.4017 53.6263 41.3471 53.0726C41.2727 52.3586 41.357 51.66 41.6893 51.0287C42.0564 50.325 42.6565 49.9162 43.4005 49.761C44.1395 49.6058 44.8835 49.6213 45.5878 49.9214C46.2921 50.2215 46.7831 50.7442 47.0113 51.5203C47.2642 52.3793 47.2593 53.2227 46.9022 54.0506C46.5203 54.9354 45.811 55.3391 44.943 55.4995C44.7049 55.546 44.4669 55.5512 44.323 55.5667Z" fill="#B2ADCC"/>
</svg>
