<svg width="90" height="90" viewBox="0 0 90 90" fill="none" xmlns="http://www.w3.org/2000/svg">
<path d="M72.9608 44.3063C72.9608 42.1917 72.0193 40.5471 70.0578 39.6072C69.744 39.4506 69.5086 39.294 69.4301 38.9024C68.724 35.0648 67.2333 31.6188 64.958 28.4861C64.8011 28.3295 64.5657 28.1728 64.7226 27.9379C65.6641 26.6848 64.6442 25.9799 63.9381 25.1967C55.9353 17.4433 46.4418 15.172 35.7715 18.4614C31.2994 19.8711 27.5334 22.4556 24.395 25.9016C23.9243 26.3715 23.6889 26.9197 24.0812 27.468C24.395 27.9379 24.2381 28.1728 23.9243 28.4861C21.7275 31.5405 20.2368 34.9865 19.5306 38.6674C19.4522 39.1373 19.2168 39.3723 18.8245 39.5289C17.2553 40.3121 16.3138 41.5652 16.0785 43.2882C15.9215 44.3063 16.0785 45.3244 16 46.2643C16 47.1258 16 47.8306 16 48.6138C16 52.0598 18.3538 54.2527 21.8059 54.0961C22.669 54.0177 23.1397 53.6261 23.1397 52.843C23.2182 50.5717 23.2182 48.3005 23.2182 46.1076C23.2182 43.6798 23.1397 41.2519 23.6105 38.8241C26.1996 25.0401 42.0482 17.5216 54.4446 24.3352C61.8197 28.4078 65.6641 34.7515 65.8211 43.2099C65.8995 46.3426 65.8211 49.4753 65.8211 52.608C65.8211 53.3912 66.0564 54.0177 66.841 54.1744C69.5086 54.7226 72.3331 52.843 72.8039 50.1018C73.1177 48.1439 72.9608 46.2643 72.9608 44.3063ZM49.4233 57.8553C49.894 57.9336 50.3648 58.0119 50.914 58.0903C52.3262 58.2469 53.8169 58.4819 55.2292 58.5602C57.1906 58.6385 58.6814 58.012 59.7798 56.8372C61.1136 55.3491 61.7412 53.6261 61.6628 51.7465C61.5843 49.7886 59.8582 48.6921 57.5829 49.0837C55.543 49.4753 53.7385 50.2585 51.8555 50.9633C50.2078 51.5899 48.7171 52.3731 47.5403 53.4695C45.8142 55.1142 46.7557 57.1505 49.4233 57.8553ZM42.9897 55.4275C43.0681 54.9576 42.9897 54.4876 42.9112 54.0961C42.7543 53.6261 42.5189 53.2346 42.2051 52.843C41.1067 51.1983 39.6944 49.7102 38.2037 48.4572C37.4191 47.7523 36.5561 47.1258 35.693 46.5775C33.81 45.2461 32.2409 44.4629 32.2409 44.4629C29.9656 43.2882 27.8472 44.4629 27.298 47.0474C26.6703 49.9452 27.1411 52.7646 28.7887 55.2708C29.8871 56.9938 31.5348 57.8553 33.5747 58.0119C34.83 58.1686 36.0853 58.1686 37.3407 58.3252C38.3606 58.3252 39.3806 58.4035 40.4005 58.0903C41.7343 57.6204 42.7543 56.8372 42.9897 55.4275ZM66.0564 57.8553C65.7426 57.6204 65.2719 57.777 65.1149 58.1686C64.958 58.6385 64.7226 59.4217 64.3304 60.2832C63.4673 62.3978 62.1335 64.1208 60.5644 65.5305C58.6029 67.4101 56.1707 68.6632 53.8954 69.603C53.3462 69.838 52.7185 70.0729 52.1693 70.2295C51.777 70.3862 51.4632 70.4645 51.0709 70.5428C50.914 70.6211 50.7571 70.6211 50.5217 70.6995C50.2078 70.7778 49.8156 70.8561 49.5017 70.9344C49.5017 70.9344 49.5017 70.9344 49.4233 70.9344C49.2663 70.9344 49.1094 71.0127 48.9525 71.0127C48.9525 71.0127 48.9525 71.0127 48.8741 71.0127C48.5602 71.091 48.2464 71.1694 47.9326 71.2477H47.8541C47.6972 71.2477 47.6187 71.326 47.4618 71.326C47.4618 71.326 47.4618 71.326 47.3833 71.326C47.0695 71.4043 46.8341 71.4043 46.5988 71.4826H46.5203C46.4418 71.4826 46.2849 71.4826 46.2065 71.561C46.2065 71.561 46.2065 71.561 46.128 71.561C45.9711 71.561 45.8926 71.561 45.8142 71.6393C45.7357 71.6393 45.5788 71.6393 45.5003 71.7176C45.5003 71.7176 45.5003 71.7176 45.4219 71.7176C45.3434 71.7176 45.265 71.7176 45.1081 71.7176C44.3235 71.7959 43.9312 71.7959 43.8527 71.8742C34.1239 72.8924 46.2849 75.0069 55.4646 73.4406H55.543C55.7784 73.4406 55.9353 73.3623 56.1707 73.2839C56.3276 73.2839 56.563 73.2056 56.7199 73.1273C56.8768 73.1273 57.0337 73.049 57.1122 73.049C57.1906 73.049 57.2691 72.9707 57.3476 72.9707C58.6029 72.6574 59.7013 72.2658 60.6428 71.7959C66.2918 69.0548 66.841 64.5123 66.841 64.5123C66.9979 63.6508 67.1549 62.6327 67.0764 61.5363C67.3118 60.2832 66.7626 58.4819 66.0564 57.8553Z" fill="#B2ADCC"/>
</svg>
