<svg width="90" height="90" viewBox="0 0 90 90" fill="none" xmlns="http://www.w3.org/2000/svg">
<path d="M72.0745 64.4903C71.8802 64.4363 71.6859 64.389 71.4983 64.3215C70.3658 63.9229 69.689 62.9029 69.6287 61.5114C69.5617 59.9375 70.4328 58.6338 71.7931 58.3433C74.2523 57.8232 75.693 59.6538 75.4585 61.8086C75.2977 63.2744 74.5673 64.0648 73.1266 64.4431C73.1065 64.4498 73.0931 64.4701 73.073 64.4836C72.7446 64.4903 72.4096 64.4903 72.0745 64.4903ZM74.2121 61.356C74.1384 61.0183 74.0915 60.6468 73.9642 60.309C73.723 59.6673 73.2137 59.3498 72.5302 59.3566C71.8735 59.3633 71.3844 59.6943 71.1364 60.3225C70.8751 60.9845 70.8684 61.6668 71.0962 62.3355C71.3307 63.0245 71.8668 63.396 72.5637 63.396C73.2673 63.3893 73.79 63.0178 74.0178 62.3152C74.1116 62.0248 74.1451 61.7073 74.2121 61.356Z" fill="#B2ADCC"/>
<path d="M21.5498 64.4903C21.523 64.47 21.4962 64.443 21.4694 64.4362C20.2967 64.1998 19.5596 63.4905 19.2715 62.3354C18.9633 61.0925 19.1509 59.9307 20.089 58.9985C21.007 58.0933 22.6353 57.992 23.6874 58.735C24.2503 59.1336 24.5585 59.674 24.6389 60.4035C24.2436 60.4035 23.875 60.4103 23.5132 60.3968C23.4461 60.3968 23.3657 60.2887 23.3322 60.2144C23.1178 59.6942 22.7225 59.4173 22.1797 59.37C21.59 59.3227 21.0874 59.5254 20.7926 60.0658C20.3369 60.9169 20.3302 61.795 20.7658 62.6529C21.0472 63.2068 21.6436 63.4703 22.2668 63.3892C22.89 63.3014 23.225 62.9096 23.3724 62.3287C23.3925 62.2544 23.4126 62.1801 23.4395 62.0855C23.8415 62.0855 24.2503 62.0855 24.659 62.0855C24.6925 63.146 23.8951 64.1458 22.8029 64.4227C22.7158 64.443 22.6353 64.4767 22.5549 64.5038C22.2199 64.4903 21.8848 64.4903 21.5498 64.4903Z" fill="#B2ADCC"/>
<path d="M2.11719 58.4109C3.7321 58.4109 5.34701 58.4109 6.98203 58.4109C6.98203 58.7757 6.98203 59.1202 6.98203 59.4984C6.39235 59.4984 5.82278 59.4984 5.2197 59.4984C5.2197 61.1264 5.2197 62.7205 5.2197 64.335C4.77744 64.335 4.36198 64.335 3.91302 64.335C3.91302 62.7273 3.91302 61.1399 3.91302 59.4917C3.29654 59.4917 2.70687 59.4917 2.12389 59.4917C2.11719 59.1337 2.11719 58.7689 2.11719 58.4109Z" fill="#B2ADCC"/>
<path d="M51.0604 41.9626C52.8294 45.2793 54.5717 48.5419 56.334 51.8451C56.2067 51.8586 56.1129 51.8721 56.019 51.8721C53.6067 51.8721 51.1944 51.8721 48.7821 51.8789C48.5409 51.8789 48.4336 51.791 48.3264 51.5884C46.678 48.4879 45.0162 45.3941 43.3745 42.2868C43.2338 42.0166 43.0729 41.9356 42.7781 41.9423C41.5384 41.9558 40.2988 41.9491 39.0591 41.9491C38.9385 41.9491 38.8179 41.9491 38.6772 41.9491C38.6772 39.7943 38.6772 37.6732 38.6772 35.5184C42.2286 35.5184 45.76 35.5184 49.3249 35.5184C49.3249 34.3025 49.3249 33.1204 49.3249 31.9112C45.3244 31.9112 41.3307 31.9112 37.3035 31.9112C37.3035 38.5649 37.3035 45.1982 37.3035 51.8518C34.8778 51.8518 32.4923 51.8518 30.0665 51.8518C30.0665 45.2185 30.0665 38.5851 30.0665 31.918C27.1986 31.918 24.3708 31.918 21.5028 31.918C21.5028 38.5649 21.5028 45.1982 21.5028 51.8518C19.0637 51.8518 16.6715 51.8518 14.2457 51.8518C14.2457 45.1982 14.2457 38.5649 14.2457 31.8977C11.3979 31.8977 8.59021 31.8977 5.74903 31.8977C5.74903 29.6281 5.74903 27.3787 5.74903 25.0887C5.86295 25.0887 5.98356 25.0887 6.10418 25.0887C21.0806 25.0887 36.0571 25.0887 51.0336 25.0887C53.6402 25.0887 55.684 26.7032 56.2134 29.1957C56.2871 29.5538 56.3206 29.932 56.3206 30.3036C56.3273 32.4314 56.3273 34.5592 56.3273 36.687C56.3273 39.6051 54.2232 41.814 51.3217 41.9423C51.2547 41.9423 51.1877 41.9491 51.0604 41.9626Z" fill="#B2ADCC"/>
<path d="M76.9057 40.9358C76.9057 35.6602 76.9057 30.3913 76.9057 25.0955C79.3448 25.0955 81.7505 25.0955 84.1762 25.0955C84.1762 34.012 84.1762 42.9083 84.1762 51.8518C84.0757 51.8586 83.9685 51.8721 83.8679 51.8721C81.4221 51.8721 78.9763 51.8721 76.5305 51.8788C76.2959 51.8788 76.1753 51.791 76.048 51.6086C72.4898 46.2722 68.9317 40.9358 65.3735 35.5994C65.3266 35.5251 65.273 35.4576 65.1658 35.2954C65.1658 40.8683 65.1658 46.3465 65.1658 51.8518C62.7132 51.8518 60.3076 51.8518 57.8886 51.8518C57.8886 42.942 57.8886 34.039 57.8886 25.1022C58.0092 25.0955 58.1432 25.082 58.2706 25.082C60.8169 25.082 63.3632 25.0887 65.9096 25.0752C66.1642 25.0752 66.3116 25.1563 66.4456 25.3657C69.8832 30.5264 73.3207 35.6872 76.7583 40.848C76.7851 40.8818 76.8119 40.9223 76.8387 40.9561C76.8588 40.9493 76.8856 40.9426 76.9057 40.9358Z" fill="#B2ADCC"/>
<path d="M63.7318 62.4436C64.0936 61.0386 64.4287 59.7281 64.7704 58.3974C65.1323 58.3974 65.4807 58.3839 65.8225 58.4109C65.9096 58.4177 66.0302 58.5528 66.0503 58.6541C66.3451 59.7957 66.6266 60.944 66.9147 62.0856C66.9415 62.1937 66.975 62.3018 67.0286 62.4977C67.3637 61.0859 67.6853 59.7552 68.0003 58.4177C68.4224 58.4177 68.8312 58.4177 69.2868 58.4177C68.7508 60.4036 68.2281 62.3626 67.6987 64.3418C67.2766 64.3418 66.8544 64.3418 66.3853 64.3418C66.0637 63.0516 65.7354 61.7479 65.407 60.4374C65.3802 60.4374 65.3601 60.4374 65.3333 60.4374C65.0117 61.7411 64.6967 63.0381 64.3751 64.3485C63.9328 64.3485 63.5107 64.3485 63.0416 64.3485C62.5256 62.3896 62.003 60.4171 61.4669 58.4042C61.8757 58.4042 62.2576 58.3907 62.6329 58.4177C62.7066 58.4244 62.8071 58.5595 62.8339 58.6541C63.1086 59.7754 63.3633 60.9035 63.6313 62.0316C63.6514 62.1397 63.6782 62.241 63.7318 62.4436Z" fill="#B2ADCC"/>
<path d="M49.1507 62.2612C49.1507 60.9913 49.1507 59.7214 49.1507 58.4244C49.5528 58.4244 49.9347 58.4244 50.3435 58.4244C50.3435 60.3766 50.3435 62.3423 50.3435 64.3553C49.9548 64.3553 49.5594 64.3688 49.1641 64.3418C49.077 64.335 48.9765 64.2067 48.9162 64.1121C48.2126 62.9908 47.5157 61.8627 46.8188 60.7414C46.7652 60.6536 46.6982 60.5658 46.5776 60.4915C46.5776 61.7681 46.5776 63.0381 46.5776 64.335C46.1554 64.335 45.7668 64.335 45.3647 64.335C45.3647 62.3626 45.3647 60.4036 45.3647 58.3974C45.7601 58.3974 46.142 58.3839 46.5307 58.4109C46.6312 58.4177 46.7451 58.546 46.8054 58.6541C47.5023 59.7619 48.1925 60.8832 48.8894 61.9978C48.9497 62.0991 49.0167 62.2005 49.077 62.3018C49.0971 62.2815 49.1239 62.2748 49.1507 62.2612Z" fill="#B2ADCC"/>
<path d="M81.4018 64.3552C81.0936 64.3552 80.7585 64.3417 80.4235 64.3619C80.2158 64.3754 80.142 64.2809 80.1219 64.1052C80.075 63.727 80.0348 63.3487 79.9879 62.9637C79.9008 62.2882 79.6529 62.0517 78.9895 62.0382C78.574 62.0247 78.1653 62.0382 77.7029 62.0382C77.7029 62.8083 77.7029 63.5648 77.7029 64.3417C77.2406 64.3417 76.8251 64.3417 76.3829 64.3417C76.3829 62.3692 76.3829 60.4035 76.3829 58.4041C76.5973 58.4041 76.7916 58.4041 76.9859 58.4041C77.8905 58.4041 78.7952 58.3906 79.6998 58.4108C80.9394 58.4446 81.6966 59.647 81.1673 60.7818C81.0266 61.0858 80.7317 61.3222 80.5039 61.5856C81.0668 61.8153 81.1941 62.3625 81.241 62.9569C81.2946 63.4095 81.3482 63.8621 81.4018 64.3552ZM77.7096 59.4241C77.7096 59.9915 77.7096 60.5251 77.7096 61.079C78.2591 61.079 78.7952 61.1128 79.3178 61.0723C79.8271 61.0317 80.0348 60.7278 80.008 60.1874C79.9812 59.701 79.74 59.4511 79.2441 59.4308C78.7483 59.4106 78.2457 59.4241 77.7096 59.4241Z" fill="#B2ADCC"/>
<path d="M7.6923 58.3973C8.30878 58.3973 8.90516 58.3973 9.50824 58.3973C10.0108 58.3973 10.5134 58.3906 11.0159 58.4041C11.7865 58.4244 12.3963 58.904 12.5772 59.5997C12.7783 60.39 12.5169 61.0385 11.8267 61.4708C11.7999 61.4911 11.7798 61.5181 11.7463 61.5451C12.4298 61.8221 12.5169 62.4165 12.5705 63.038C12.6107 63.4635 12.6576 63.8824 12.7113 64.3417C12.3762 64.3417 11.9876 64.3484 11.6123 64.3349C11.552 64.3349 11.4582 64.2133 11.4448 64.1323C11.3845 63.7675 11.3443 63.396 11.3041 63.0312C11.217 62.2679 10.9623 62.0315 10.2051 62.0247C9.81648 62.018 9.42783 62.0247 9.00567 62.0247C9.00567 62.8083 9.00567 63.5581 9.00567 64.3282C8.55001 64.3282 8.13456 64.3282 7.699 64.3282C7.6923 62.3625 7.6923 60.3968 7.6923 58.3973ZM9.00567 61.052C9.60875 61.052 10.1783 61.0858 10.7412 61.0385C11.1298 61.0115 11.2974 60.7345 11.3108 60.2955C11.3242 59.8159 11.1835 59.5187 10.7948 59.4781C10.2051 59.4241 9.60875 59.4646 9.00567 59.4646C9.00567 59.9983 9.00567 60.5184 9.00567 61.052Z" fill="#B2ADCC"/>
<path d="M37.0356 58.4177C38.2149 58.4177 39.3742 58.3839 40.5334 58.4312C41.2236 58.4582 41.7865 59.0188 41.9205 59.6606C42.0813 60.4441 41.82 61.0724 41.17 61.4776C41.1432 61.4979 41.1164 61.5182 41.0762 61.5587C41.619 61.7884 41.8133 62.2342 41.8669 62.7746C41.9205 63.2947 41.9808 63.8216 42.0411 64.362C41.7195 64.362 41.3509 64.3755 40.9891 64.3553C40.9154 64.3485 40.7948 64.2404 40.7814 64.1661C40.721 63.8554 40.7009 63.5447 40.654 63.2339C40.6205 63.0043 40.6138 62.7408 40.5066 62.5517C40.3927 62.3558 40.1783 62.1194 39.9907 62.0991C39.4546 62.0383 38.9051 62.0788 38.3288 62.0788C38.3288 62.8354 38.3288 63.5852 38.3288 64.3485C37.8866 64.3485 37.4778 64.3485 37.049 64.3485C37.0356 62.3761 37.0356 60.4104 37.0356 58.4177ZM38.3288 61.0588C38.9252 61.0588 39.4814 61.0926 40.0309 61.0453C40.4664 61.0116 40.6473 60.7211 40.6473 60.2347C40.6473 59.7687 40.4396 59.4714 40.0108 59.4377C39.4613 59.3971 38.9051 59.4309 38.3355 59.4309C38.3288 59.9848 38.3288 60.5184 38.3288 61.0588Z" fill="#B2ADCC"/>
<path d="M84.4443 61.6735C84.2165 61.9167 84.0021 62.1058 83.8346 62.3219C83.7542 62.4233 83.7139 62.5854 83.7139 62.7137C83.7005 63.2474 83.7072 63.7878 83.7072 64.3349C83.2583 64.3349 82.8428 64.3349 82.414 64.3349C82.414 62.3625 82.414 60.4035 82.414 58.4176C82.8294 58.4176 83.2516 58.4176 83.7005 58.4176C83.7005 59.1944 83.7005 59.9645 83.7005 60.8088C83.8279 60.694 83.9016 60.64 83.9619 60.5724C84.5851 59.9104 85.2015 59.2484 85.8381 58.6C85.9453 58.4919 86.1397 58.4176 86.2938 58.4041C86.7159 58.3771 87.1381 58.3973 87.5938 58.3973C86.8031 59.1741 86.0459 59.9239 85.282 60.6737C86.1732 61.9369 87.0041 63.1123 87.8819 64.3552C87.3257 64.3552 86.8299 64.3619 86.334 64.3484C86.2536 64.3484 86.1598 64.2336 86.0995 64.1458C85.5567 63.3419 85.0206 62.5314 84.4443 61.6735Z" fill="#B2ADCC"/>
<path d="M28.4717 60.667C29.3696 61.9437 30.2072 63.1191 31.0784 64.3553C30.5222 64.3553 30.0263 64.3688 29.5305 64.3417C29.4433 64.335 29.3361 64.2134 29.2758 64.1188C28.733 63.3217 28.2037 62.5179 27.6341 61.6735C27.3929 61.9167 27.1717 62.1329 26.9707 62.3693C26.9104 62.4436 26.9037 62.5787 26.897 62.68C26.8903 63.2204 26.897 63.7608 26.897 64.3282C26.4614 64.3282 26.046 64.3282 25.597 64.3282C25.597 62.3761 25.597 60.4171 25.597 58.4244C26.0058 58.4244 26.4212 58.4244 26.8836 58.4244C26.8836 59.1945 26.8836 59.978 26.8836 60.8629C27.1181 60.613 27.2857 60.4374 27.4465 60.2685C27.9691 59.7146 28.4851 59.1539 29.0212 58.6135C29.1284 58.5055 29.316 58.4244 29.4768 58.4109C29.899 58.3839 30.3212 58.4041 30.7567 58.4041C29.9928 59.1607 29.2356 59.9105 28.4717 60.667Z" fill="#B2ADCC"/>
<path d="M31.6145 64.3417C31.6145 62.349 31.6145 60.3968 31.6145 58.4176C33.0954 58.4176 34.5562 58.4176 36.0438 58.4176C36.0438 58.7756 36.0438 59.1201 36.0438 59.4984C35.0051 59.4984 33.9799 59.4984 32.9412 59.4984C32.9412 59.9307 32.9412 60.3293 32.9412 60.7683C33.8861 60.7683 34.8309 60.7683 35.7891 60.7683C35.7891 61.1196 35.7891 61.4303 35.7891 61.7816C34.8443 61.7816 33.9062 61.7816 32.9412 61.7816C32.9412 62.2882 32.9412 62.7543 32.9412 63.2474C33.9933 63.2474 35.0319 63.2474 36.0907 63.2474C36.0907 63.6257 36.0907 63.9769 36.0907 64.3417C34.6031 64.3417 33.1222 64.3417 31.6145 64.3417Z" fill="#B2ADCC"/>
<path d="M52.8562 59.4782C52.8562 59.9375 52.8562 60.336 52.8562 60.7684C53.8078 60.7684 54.7526 60.7684 55.7108 60.7684C55.7108 61.1129 55.7108 61.4236 55.7108 61.7749C54.766 61.7749 53.8279 61.7749 52.8629 61.7749C52.8629 62.2815 52.8629 62.7476 52.8629 63.2474C53.915 63.2474 54.9603 63.2474 56.0257 63.2474C56.0257 63.6257 56.0257 63.9635 56.0257 64.3282C54.5315 64.3282 53.0439 64.3282 51.5362 64.3282C51.5362 62.3558 51.5362 60.3901 51.5362 58.4109C53.0171 58.4109 54.4711 58.4109 55.9587 58.4109C55.9587 58.7554 55.9587 59.0999 55.9587 59.4714C54.9335 59.4782 53.915 59.4782 52.8562 59.4782Z" fill="#B2ADCC"/>
<path d="M13.0733 64.3552C13.3347 63.6527 13.5826 63.011 13.8238 62.3625C14.2862 61.1331 14.7552 59.9105 15.2109 58.6743C15.2913 58.4581 15.3918 58.3771 15.6197 58.3906C15.9614 58.4176 16.3903 58.296 16.6248 58.4581C16.8593 58.6203 16.9196 59.0593 17.0402 59.3836C17.6165 60.9305 18.1928 62.4706 18.7691 64.0175C18.8026 64.112 18.8361 64.2066 18.8897 64.3485C18.4474 64.3485 18.0454 64.3552 17.6366 64.3417C17.5763 64.3417 17.4959 64.2201 17.4624 64.1391C17.3485 63.8486 17.2748 63.5379 17.1475 63.2542C17.1006 63.1528 16.9531 63.038 16.8459 63.038C16.2562 63.0177 15.6666 63.0177 15.0702 63.038C14.9697 63.038 14.8357 63.1461 14.7887 63.2406C14.6547 63.5379 14.5743 63.8553 14.447 64.1526C14.4068 64.2404 14.2862 64.3417 14.1991 64.3485C13.8506 64.3687 13.4955 64.3552 13.0733 64.3552ZM16.015 59.9577C15.9882 59.9577 15.9681 59.9577 15.9413 59.9577C15.7001 60.64 15.4588 61.3222 15.2109 62.0315C15.7403 62.0315 16.216 62.0315 16.732 62.0315C16.4841 61.3222 16.2495 60.64 16.015 59.9577Z" fill="#B2ADCC"/>
<path d="M58.2505 59.4984C57.6207 59.4984 57.0645 59.4984 56.4815 59.4984C56.4815 59.1404 56.4815 58.7959 56.4815 58.4311C58.083 58.4311 59.6912 58.4311 61.3195 58.4311C61.3195 58.7756 61.3195 59.1066 61.3195 59.4782C60.75 59.4782 60.1737 59.4782 59.5572 59.4782C59.5572 61.1196 59.5572 62.7205 59.5572 64.3417C59.1082 64.3417 58.6995 64.3417 58.2438 64.3417C58.2505 62.734 58.2505 61.1331 58.2505 59.4984Z" fill="#B2ADCC"/>
</svg>
