<svg width="90" height="90" viewBox="0 0 90 90" fill="none" xmlns="http://www.w3.org/2000/svg">
<path fill-rule="evenodd" clip-rule="evenodd" d="M55.6265 18.731L54.4292 22.5231L54.4591 40.0253H58.9191V42.3589H61.3137L63.7083 40.0253H67.8988L75.6813 32.441V18.731H55.6265ZM73.586 31.2742L70.2934 34.4829H64.9056L61.9123 37.3999V34.4829H57.4225V20.7729H73.586V31.2742ZM68.1981 24.565H70.2934V30.3991H68.1981V24.565ZM62.8103 24.565H64.9056V30.3991H62.8103V24.565ZM88.2529 51.6934V65.4034L80.4705 70.654H75.6813V68.3204L72.0894 70.654H67.8988V68.3204L65.2049 70.654H57.4225L55.0279 68.3204L54.4292 70.654L47.5747 70.6249L44.8508 68.3204L44.5515 70.654L36.769 70.6249L36.4697 68.3204L34.3744 70.6249L22.4015 70.654L20.0069 69.4872V70.654H13.4217L6.23792 66.2785L1.74805 61.903V42.6506H11.0271L15.517 47.0261H35.8711V42.6506H52.6333V47.0261H56.8238V49.3597L59.2184 47.0261H64.3069L68.7968 42.6506H78.3752V47.0261H83.4637L88.2529 51.6934ZM13.4217 49.068H9.23117V44.6925H3.84332V61.0278L7.13589 64.5283H13.4217V58.9859H9.23117V54.3187H13.4217V49.068ZM35.8711 49.068H30.4832V58.9859H28.3879V49.068H23.2994V58.9859H21.2042V49.068H15.517V64.5283H32.2792L35.8711 61.0278V49.068ZM43.0549 49.068H37.9663V64.5283H43.0549V49.068ZM43.0549 44.6925H37.9663V47.0261H43.0549V44.6925ZM54.7285 49.068H50.538V44.6925H45.1501V61.0278L48.4427 64.5283H54.7285V58.9859H50.538V54.3187H54.7285V49.068ZM68.4975 49.068H60.1164L56.8238 52.2768V61.0278L60.4157 64.5283H68.4975V58.9859H62.511V54.3187H68.4975V49.068ZM86.1576 52.2768L82.5657 49.068H76.2799V44.6925H70.5927V64.5283H76.2799V54.3187H80.4705V64.5283H86.1576V52.2768Z" fill="#B2ADCC"/>
</svg>
