<svg width="97" height="25" viewBox="0 0 97 25" fill="none" xmlns="http://www.w3.org/2000/svg">
<path d="M72.743 3.23148C71.9026 4.70761 71.0788 6.16003 70.2494 7.61245C69.8431 7.33976 69.4424 7.06113 69.0305 6.80029C67.9618 6.12447 66.7985 5.7332 65.5739 5.55535C64.4496 5.39529 63.3252 5.37158 62.212 5.66206C59.6795 6.31417 58.0152 8.28235 57.6311 11.0449C57.4419 12.4321 57.4864 13.7956 57.915 15.1235C58.5106 16.9732 59.685 18.2418 61.4049 18.9295C62.8521 19.5045 64.3383 19.5697 65.8522 19.297C66.6816 19.1488 67.4831 18.8939 68.2345 18.4967C68.318 18.4493 68.4126 18.3189 68.4126 18.224C68.4238 17.0799 68.4182 15.9298 68.4182 14.7441C66.5981 14.7441 64.7891 14.7441 62.9634 14.7441C62.9634 13.2443 62.9634 11.7859 62.9634 10.3039C66.4979 10.3039 70.0379 10.3039 73.6058 10.3039C73.6114 10.3869 73.6225 10.4817 73.6225 10.5766C73.6225 14.1335 73.6225 17.6905 73.6225 21.2474C73.6225 21.4075 73.6114 21.532 73.4611 21.6505C72.192 22.6583 70.7615 23.3342 69.2698 23.8618C67.3217 24.5554 65.3235 24.9644 63.264 24.8696C60.4142 24.7332 57.8037 23.844 55.6051 21.8521C53.6959 20.1211 52.5438 17.9098 52.0539 15.2955C51.8591 14.2699 51.7645 13.2324 51.7868 12.1831C51.8313 10.2268 52.182 8.3357 53.0169 6.58094C54.2024 4.08515 56.0337 2.29482 58.4438 1.17438C59.8464 0.522274 61.3103 0.178436 62.8299 0.0598712C64.7891 -0.0942631 66.7038 0.154723 68.5629 0.80683C70.0825 1.34037 71.4684 2.14661 72.743 3.23148Z" fill="#797399"/>
<path d="M96.1206 3.22556C95.2856 4.69576 94.4507 6.15411 93.627 7.60653C93.1316 7.28048 92.664 6.93071 92.1575 6.64615C90.9218 5.94662 89.5971 5.57314 88.1945 5.47829C87.1814 5.41308 86.1851 5.4605 85.2055 5.7747C83.5746 6.30231 82.3111 7.32197 81.6098 8.98188C80.5745 11.4362 80.5968 13.9083 81.8046 16.3033C82.4503 17.5838 83.4911 18.4256 84.7658 18.9235C86.5803 19.6349 88.4171 19.5994 90.2595 19.0421C90.727 18.8998 91.1723 18.6864 91.6232 18.4849C91.7011 18.4493 91.7957 18.3248 91.7957 18.2359C91.8069 17.0799 91.8013 15.9239 91.8013 14.7382C89.9812 14.7382 88.1778 14.7382 86.3521 14.7382C86.3521 13.2443 86.3521 11.78 86.3521 10.292C89.8866 10.292 93.421 10.292 96.9889 10.292C96.9944 10.3987 97 10.4995 97 10.6062C97 14.1454 97 17.6786 97 21.2178C97 21.3838 96.9889 21.5201 96.833 21.6446C95.5695 22.6465 94.1502 23.3223 92.6696 23.844C90.7549 24.5257 88.8012 24.9348 86.7751 24.8577C83.8808 24.751 81.2369 23.8618 78.9993 21.8521C77.3406 20.3641 76.2385 18.473 75.6485 16.244C75.2923 14.9101 75.1365 13.5466 75.1643 12.1594C75.2088 10.2031 75.5595 8.31199 76.3999 6.56316C77.6857 3.88359 79.6784 2.03398 82.3111 0.94911C84.1535 0.190294 86.0627 -0.0764767 88.0163 0.0183752C89.7975 0.107299 91.5174 0.528204 93.1538 1.3048C94.217 1.81463 95.1855 2.46081 96.1206 3.22556Z" fill="#797399"/>
<path d="M0 12.6455C0.00556608 10.3098 0.445286 8.25271 1.41935 6.33788C2.42681 4.35785 3.84616 2.79872 5.68853 1.67235C7.2526 0.717907 8.93355 0.20215 10.7258 0.0598718C13.1638 -0.129832 15.4681 0.374069 17.5999 1.64271C19.292 2.65051 20.6446 4.05551 21.652 5.82805C22.5593 7.42275 23.0936 9.15973 23.2773 11.0034C23.4554 12.7819 23.3163 14.5366 22.832 16.2618C22.2142 18.4552 21.101 20.3167 19.4924 21.8284C17.9951 23.2334 16.2585 24.1404 14.3048 24.5791C12.7908 24.9229 11.2713 24.9644 9.73507 24.7214C7.85373 24.425 6.15051 23.678 4.61984 22.4983C3.30625 21.4845 2.26539 20.21 1.48058 18.6983C0.478683 16.7657 0.00556608 14.6849 0 12.6455ZM11.6999 19.3089C11.9838 19.2852 12.2732 19.2674 12.5571 19.2259C14.7891 18.9058 16.3921 17.649 17.3161 15.4615C17.9005 14.0802 18.023 12.6218 17.778 11.1279C17.483 9.30793 16.6871 7.80216 15.2455 6.75286C13.8651 5.75099 12.3233 5.45457 10.6702 5.71542C9.31205 5.92883 8.1376 6.54537 7.21363 7.61838C5.68853 9.385 5.22654 11.4955 5.60504 13.8193C6.12825 17.1036 8.59402 19.303 11.6999 19.3089Z" fill="#797399"/>
<path d="M31.4205 18.1114C31.4205 19.214 31.4205 20.2693 31.4205 21.3245C31.4205 22.3738 31.4205 23.4172 31.4205 24.4902C29.5893 24.4902 27.7691 24.4902 25.9212 24.4902C25.9212 16.4752 25.9212 8.44834 25.9212 0.379997C25.9991 0.379997 26.0882 0.379997 26.1772 0.379997C29.9789 0.379997 33.7861 0.3385 37.5877 0.397782C39.7919 0.427423 41.7734 1.1981 43.3486 2.91729C44.3895 4.05551 45.0129 5.43679 45.2689 6.98999C45.408 7.82587 45.5027 8.6914 45.486 9.53913C45.447 11.6674 44.8403 13.5881 43.4877 15.2065C42.2354 16.7005 40.6602 17.5778 38.8289 17.9276C38.2167 18.0462 37.5821 18.0936 36.9587 18.1055C35.2221 18.1292 33.4911 18.1114 31.7545 18.1114C31.6543 18.1114 31.5541 18.1114 31.4205 18.1114ZM31.4873 12.9419C33.1348 12.9419 34.7434 12.9419 36.3576 12.9419C36.4801 12.9419 36.6025 12.9479 36.7194 12.9301C38.0831 12.7107 39.1072 11.9756 39.5191 10.541C39.9477 9.05302 39.7585 7.64803 38.6842 6.49202C37.9495 5.70356 37.0033 5.50793 36.0069 5.502C34.5987 5.49014 33.1905 5.502 31.7823 5.502C31.6821 5.502 31.5875 5.50793 31.4873 5.51386C31.4873 8.00965 31.4873 10.4639 31.4873 12.9419Z" fill="#797399"/>
<path d="M47.7402 25C46.627 24.9763 45.7086 24.7392 45.0296 23.8736C44.6344 23.3757 44.4618 22.7769 44.4006 22.1426C44.3171 21.3245 44.4117 20.5242 44.7846 19.8009C45.1965 18.9947 45.87 18.5264 46.7049 18.3485C47.5343 18.1707 48.3692 18.1884 49.1596 18.5323C49.95 18.8761 50.501 19.4749 50.757 20.3641C51.0409 21.3482 51.0354 22.3145 50.6346 23.263C50.206 24.2768 49.4101 24.7392 48.436 24.9229C48.1688 24.9763 47.9017 24.9822 47.7402 25Z" fill="#797399"/>
</svg>
