<svg width="208" height="188" viewBox="0 0 208 188" fill="none" xmlns="http://www.w3.org/2000/svg">
<g filter="url(#filter0_d)">
<rect x="4" width="200" height="180" fill="#332E4D"/>
</g>
<g clip-path="url(#clip0)">
<path d="M130.293 89.4478C129 89.1066 127.56 89.1919 126.352 89.8103C124.975 90.4927 124 91.8787 123.767 93.3927C123.619 94.5015 123.703 95.653 124.212 96.6552C124.848 97.9559 126.055 98.9155 127.454 99.2354C127.962 98.3184 128.471 97.4228 128.937 96.4846C128.343 96.4206 127.708 96.2927 127.284 95.8449C126.797 95.3118 126.712 94.5015 126.839 93.8192C127.03 92.9449 127.877 92.3265 128.746 92.3265C129.615 92.2839 130.483 92.8809 130.716 93.7552C130.95 94.5015 130.632 95.2692 130.293 95.9089C128.788 98.5956 127.284 101.282 125.801 103.991C126.966 103.991 128.153 104.012 129.318 103.991C130.187 102.455 131.013 100.899 131.861 99.3633C132.475 98.1905 133.174 97.0817 133.619 95.8236C134.022 94.7148 133.937 93.478 133.556 92.3905C133.005 90.9405 131.755 89.8316 130.293 89.4478Z" fill="#B2ADCC"/>
<path d="M131.67 80.9183C133.683 78.3169 134.445 74.7985 133.746 71.5786C133.047 68.2095 130.738 65.2455 127.665 63.7528C124.297 62.0256 120.08 62.1962 116.817 64.1153C114.063 65.6933 112.05 68.508 111.415 71.6426C113.597 72.7301 115.822 73.7536 118.046 74.7985C117.834 73.3911 118.237 71.8984 119.212 70.8536C120.123 69.8514 121.5 69.297 122.835 69.3823C124.191 69.4676 125.525 70.1712 126.309 71.3014C127.009 72.261 127.305 73.519 127.115 74.6918C126.903 76.1205 125.97 77.3999 124.699 78.061C123.725 78.5727 122.58 78.722 121.521 78.4661C120.864 78.3169 120.271 77.9757 119.656 77.6985C115.927 75.9073 112.177 74.1801 108.448 72.3676C110.313 68.4014 112.198 64.4565 114.063 60.4903C115.525 57.6756 115.631 54.1998 114.487 51.2572C113.427 48.5064 111.245 46.2035 108.575 45.0094C106.393 44.0072 103.893 43.7513 101.541 44.2417C99.1046 44.7535 96.8163 46.0755 95.206 47.9947C93.4475 50.0417 92.4517 52.7285 92.4728 55.4366C92.494 57.8888 93.3203 60.3624 94.8035 62.3241C96.4349 64.4992 98.8927 66.0558 101.562 66.5889C101.753 66.2477 101.901 65.9065 102.071 65.5653C102.94 63.6889 103.851 61.8337 104.698 59.9572C104.105 60.0212 103.49 60.0425 102.897 59.8933C101.711 59.616 100.63 58.8484 99.9944 57.8035C99.3164 56.6947 99.1257 55.2874 99.5283 54.0506C99.9521 52.6645 101.054 51.5131 102.431 51.0653C103.533 50.6815 104.804 50.7454 105.863 51.2359C107.05 51.7903 107.982 52.8778 108.342 54.1359C108.639 55.1381 108.554 56.2469 108.152 57.1852C106.224 61.258 104.317 65.3521 102.367 69.4036C98.1299 67.4418 93.9348 65.3947 89.7185 63.4116C86.1801 61.8977 81.8791 62.4094 78.7645 64.6697C76.561 66.2264 74.9719 68.5933 74.3363 71.2161C73.7007 73.7536 73.9761 76.483 75.0778 78.8499C76.2008 81.2808 78.2136 83.2639 80.629 84.3728C82.9808 85.4603 85.7352 85.6948 88.2353 85.0338C91.2863 84.2661 93.9772 82.1338 95.4391 79.3191C95.9264 78.3595 96.3502 77.3573 96.4985 76.2698C94.295 75.2463 92.1127 74.1801 89.9091 73.1565C89.9515 73.647 89.9939 74.1588 89.9091 74.6492C89.7185 75.8433 89.0616 76.9735 88.0658 77.6772C87.0276 78.4448 85.6504 78.7433 84.3792 78.4661C83.1927 78.2102 82.1121 77.4639 81.4553 76.4191C80.8832 75.5235 80.629 74.4146 80.7985 73.3485C80.9892 71.8984 81.9214 70.5551 83.2351 69.894C84.2097 69.3823 85.3538 69.233 86.4132 69.4889C86.9429 69.6168 87.4302 69.8727 87.9175 70.1073C97.6214 74.7132 107.304 79.3191 116.987 83.925C117.622 84.2022 118.216 84.5647 118.873 84.7779C120.059 85.1831 121.309 85.4176 122.538 85.3963C126.076 85.4603 129.551 83.7331 131.67 80.9183Z" fill="#B2ADCC"/>
<path d="M80.5231 91.6441C81.0951 91.9426 81.4765 92.497 81.7519 93.0728C82.6418 93.0728 83.5105 93.0728 84.4004 93.0728C84.1885 91.8147 83.3834 90.7272 82.3664 90.0022C80.9892 89.0639 79.1671 88.872 77.6204 89.4264C76.3915 89.8529 75.3321 90.7912 74.76 91.9853C74.082 93.3713 74.082 95.0559 74.7389 96.4419C75.2686 97.5507 76.2008 98.4677 77.3237 98.9368C78.8493 99.5978 80.6714 99.5125 82.1121 98.6596C83.2775 97.9772 84.125 96.8044 84.4216 95.4823C83.5317 95.4823 82.663 95.4823 81.7731 95.4823C81.4341 96.186 80.8621 96.8257 80.0781 97.039C79.1459 97.3162 78.0653 96.975 77.4721 96.2074C76.5186 95.0772 76.5398 93.222 77.578 92.1345C78.2772 91.3242 79.5696 91.0897 80.5231 91.6441Z" fill="#B2ADCC"/>
<path d="M88.1082 97.0177C88.1082 94.3736 88.1082 91.7508 88.1082 89.1067C87.2183 89.1067 86.3496 89.0854 85.4598 89.128C85.4809 92.5398 85.4598 95.9516 85.4598 99.3633C87.3454 99.3633 89.2311 99.3633 91.1168 99.3633C91.138 98.5957 91.1168 97.8067 91.1168 97.0391C90.121 97.0177 89.104 97.0177 88.1082 97.0177Z" fill="#B2ADCC"/>
<path d="M120.801 90.3434C119.911 89.4478 118.639 89.1493 117.411 89.128C116.097 89.1066 114.783 89.128 113.47 89.1066C113.448 92.5184 113.47 95.9515 113.47 99.3633C114.677 99.3633 115.885 99.3633 117.093 99.3633C118.47 99.3633 119.932 99.0434 120.949 98.0626C121.987 97.0817 122.368 95.589 122.326 94.1817C122.368 92.753 121.839 91.303 120.801 90.3434ZM119.466 95.6743C119.254 96.2501 118.767 96.7405 118.152 96.9111C117.495 97.1243 116.796 97.039 116.118 97.039C116.118 95.1626 116.118 93.2861 116.118 91.4096C116.944 91.4309 117.855 91.303 118.597 91.7721C119.233 92.1346 119.572 92.8809 119.656 93.5846C119.762 94.267 119.72 95.0133 119.466 95.6743Z" fill="#B2ADCC"/>
<path d="M109.889 89.1279C109.889 91.772 109.889 94.4161 109.889 97.0389C108.914 97.0603 107.919 97.0389 106.944 97.0389C106.605 97.0389 106.202 96.9963 105.948 96.7191C105.546 96.3353 105.524 95.7382 105.503 95.2264C105.482 93.1794 105.503 91.1536 105.503 89.1066C104.635 89.1066 103.766 89.1066 102.897 89.1066C102.897 91.047 102.897 93.0088 102.897 94.9492C102.897 95.7382 102.897 96.5698 103.257 97.3162C103.596 97.9772 104.105 98.5742 104.783 98.9154C105.609 99.3206 106.541 99.4059 107.452 99.3632C109.042 99.3632 110.631 99.3632 112.22 99.3632C112.22 95.9514 112.22 92.5397 112.22 89.1279C111.415 89.0852 110.652 89.0852 109.889 89.1279Z" fill="#B2ADCC"/>
<path d="M99.1257 89.6397C98.0663 89.1066 96.8163 88.9786 95.651 89.1919C94.4856 89.4051 93.4051 90.0661 92.6847 91.0044C91.9008 91.9213 91.5618 93.1581 91.5618 94.3522C91.5618 95.6316 92.0703 96.8897 92.9813 97.7853C94.0831 98.9368 95.7357 99.4912 97.3036 99.3206C98.8079 99.1926 100.249 98.361 101.096 97.1029C101.986 95.8235 102.198 94.1176 101.732 92.625C101.308 91.3456 100.333 90.2367 99.1257 89.6397ZM99.0833 95.6103C98.7655 96.25 98.2147 96.8044 97.5155 96.9963C96.562 97.3162 95.4603 96.9963 94.8035 96.2287C93.8712 95.1625 93.8288 93.4139 94.6975 92.2838C95.0789 91.8147 95.6086 91.4735 96.2018 91.3669C96.9646 91.2176 97.7909 91.4095 98.363 91.9426C99.4224 92.8169 99.6978 94.4162 99.0833 95.6103Z" fill="#B2ADCC"/>
</g>
<path d="M68.6718 154.537C68.6298 154.607 68.5831 154.661 68.5318 154.698C68.4851 154.731 68.4268 154.747 68.3568 154.747C68.2774 154.747 68.1841 154.707 68.0768 154.628C67.9694 154.549 67.8341 154.462 67.6708 154.369C67.5121 154.271 67.3184 154.182 67.0898 154.103C66.8658 154.024 66.5928 153.984 66.2708 153.984C65.9674 153.984 65.6991 154.026 65.4658 154.11C65.2371 154.189 65.0434 154.299 64.8848 154.439C64.7308 154.579 64.6141 154.745 64.5348 154.936C64.4554 155.123 64.4158 155.326 64.4158 155.545C64.4158 155.825 64.4834 156.058 64.6188 156.245C64.7588 156.427 64.9408 156.583 65.1648 156.714C65.3934 156.845 65.6501 156.959 65.9348 157.057C66.2241 157.15 66.5181 157.248 66.8168 157.351C67.1201 157.454 67.4141 157.57 67.6988 157.701C67.9881 157.827 68.2448 157.988 68.4688 158.184C68.6974 158.38 68.8794 158.62 69.0148 158.905C69.1548 159.19 69.2248 159.54 69.2248 159.955C69.2248 160.394 69.1501 160.807 69.0008 161.194C68.8514 161.577 68.6321 161.91 68.3428 162.195C68.0581 162.48 67.7058 162.704 67.2858 162.867C66.8704 163.03 66.3968 163.112 65.8648 163.112C65.2114 163.112 64.6188 162.995 64.0868 162.762C63.5548 162.524 63.0998 162.204 62.7218 161.803L63.1138 161.159C63.1511 161.108 63.1954 161.066 63.2468 161.033C63.3028 160.996 63.3634 160.977 63.4288 160.977C63.4894 160.977 63.5571 161.003 63.6318 161.054C63.7111 161.101 63.7998 161.161 63.8978 161.236C63.9958 161.311 64.1078 161.392 64.2338 161.481C64.3598 161.57 64.5021 161.651 64.6608 161.726C64.8241 161.801 65.0084 161.864 65.2138 161.915C65.4191 161.962 65.6501 161.985 65.9068 161.985C66.2288 161.985 66.5158 161.941 66.7678 161.852C67.0198 161.763 67.2321 161.64 67.4048 161.481C67.5821 161.318 67.7174 161.124 67.8108 160.9C67.9041 160.676 67.9508 160.426 67.9508 160.151C67.9508 159.848 67.8808 159.6 67.7408 159.409C67.6054 159.213 67.4258 159.05 67.2018 158.919C66.9778 158.788 66.7211 158.679 66.4318 158.59C66.1424 158.497 65.8484 158.403 65.5498 158.31C65.2511 158.212 64.9571 158.1 64.6678 157.974C64.3784 157.848 64.1218 157.685 63.8978 157.484C63.6738 157.283 63.4918 157.034 63.3518 156.735C63.2164 156.432 63.1488 156.058 63.1488 155.615C63.1488 155.26 63.2164 154.917 63.3518 154.586C63.4918 154.255 63.6924 153.961 63.9538 153.704C64.2198 153.447 64.5441 153.242 64.9268 153.088C65.3141 152.934 65.7574 152.857 66.2568 152.857C66.8168 152.857 67.3254 152.946 67.7828 153.123C68.2448 153.3 68.6508 153.557 69.0008 153.893L68.6718 154.537ZM72.7109 163.112C72.1509 163.112 71.7192 162.956 71.4159 162.643C71.1172 162.33 70.9679 161.88 70.9679 161.292V156.952H70.1139C70.0392 156.952 69.9762 156.931 69.9249 156.889C69.8735 156.842 69.8479 156.772 69.8479 156.679V156.182L71.0099 156.035L71.2969 153.844C71.3109 153.774 71.3412 153.718 71.3879 153.676C71.4392 153.629 71.5045 153.606 71.5839 153.606H72.2139V156.049H74.2649V156.952H72.2139V161.208C72.2139 161.507 72.2862 161.728 72.4309 161.873C72.5755 162.018 72.7622 162.09 72.9909 162.09C73.1215 162.09 73.2335 162.074 73.3269 162.041C73.4249 162.004 73.5089 161.964 73.5789 161.922C73.6489 161.88 73.7072 161.843 73.7539 161.81C73.8052 161.773 73.8495 161.754 73.8869 161.754C73.9522 161.754 74.0105 161.794 74.0619 161.873L74.4259 162.468C74.2112 162.669 73.9522 162.827 73.6489 162.944C73.3455 163.056 73.0329 163.112 72.7109 163.112ZM79.3945 159.808C78.8205 159.827 78.3305 159.873 77.9245 159.948C77.5231 160.018 77.1941 160.111 76.9375 160.228C76.6855 160.345 76.5011 160.482 76.3845 160.641C76.2725 160.8 76.2165 160.977 76.2165 161.173C76.2165 161.36 76.2468 161.521 76.3075 161.656C76.3681 161.791 76.4498 161.903 76.5525 161.992C76.6598 162.076 76.7835 162.139 76.9235 162.181C77.0681 162.218 77.2221 162.237 77.3855 162.237C77.6048 162.237 77.8055 162.216 77.9875 162.174C78.1695 162.127 78.3398 162.062 78.4985 161.978C78.6618 161.894 78.8158 161.794 78.9605 161.677C79.1098 161.56 79.2545 161.427 79.3945 161.278V159.808ZM75.3695 156.91C75.7615 156.532 76.1838 156.25 76.6365 156.063C77.0891 155.876 77.5908 155.783 78.1415 155.783C78.5381 155.783 78.8905 155.848 79.1985 155.979C79.5065 156.11 79.7655 156.292 79.9755 156.525C80.1855 156.758 80.3441 157.041 80.4515 157.372C80.5588 157.703 80.6125 158.067 80.6125 158.464V163H80.0595C79.9381 163 79.8448 162.981 79.7795 162.944C79.7141 162.902 79.6628 162.823 79.6255 162.706L79.4855 162.034C79.2988 162.207 79.1168 162.361 78.9395 162.496C78.7621 162.627 78.5755 162.739 78.3795 162.832C78.1835 162.921 77.9735 162.988 77.7495 163.035C77.5301 163.086 77.2851 163.112 77.0145 163.112C76.7391 163.112 76.4801 163.075 76.2375 163C75.9948 162.921 75.7825 162.804 75.6005 162.65C75.4231 162.496 75.2808 162.302 75.1735 162.069C75.0708 161.831 75.0195 161.551 75.0195 161.229C75.0195 160.949 75.0965 160.681 75.2505 160.424C75.4045 160.163 75.6541 159.932 75.9995 159.731C76.3448 159.53 76.7951 159.367 77.3505 159.241C77.9058 159.11 78.5871 159.036 79.3945 159.017V158.464C79.3945 157.913 79.2755 157.498 79.0375 157.218C78.7995 156.933 78.4518 156.791 77.9945 156.791C77.6865 156.791 77.4275 156.831 77.2175 156.91C77.0121 156.985 76.8325 157.071 76.6785 157.169C76.5291 157.262 76.3985 157.349 76.2865 157.428C76.1791 157.503 76.0718 157.54 75.9645 157.54C75.8805 157.54 75.8081 157.519 75.7475 157.477C75.6868 157.43 75.6355 157.374 75.5935 157.309L75.3695 156.91ZM88.9947 163H87.7487V156.952H84.0947V161.208C84.0947 161.507 84.1671 161.728 84.3117 161.873C84.4564 162.018 84.6431 162.09 84.8717 162.09C85.0024 162.09 85.1144 162.074 85.2077 162.041C85.3057 162.004 85.3897 161.964 85.4597 161.922C85.5297 161.88 85.5881 161.843 85.6347 161.81C85.6861 161.773 85.7304 161.754 85.7677 161.754C85.8331 161.754 85.8914 161.794 85.9427 161.873L86.3067 162.468C86.0921 162.669 85.8331 162.827 85.5297 162.944C85.2264 163.056 84.9137 163.112 84.5917 163.112C84.0317 163.112 83.6001 162.956 83.2967 162.643C82.9981 162.33 82.8487 161.88 82.8487 161.292V156.952H81.9947C81.9201 156.952 81.8571 156.931 81.8057 156.889C81.7544 156.842 81.7287 156.772 81.7287 156.679V156.182L82.8907 156.028L83.1777 153.844C83.1917 153.774 83.2221 153.718 83.2687 153.676C83.3201 153.629 83.3854 153.606 83.4647 153.606H84.0947V156.049H88.9947V163ZM89.3027 153.634C89.3027 153.755 89.2771 153.87 89.2257 153.977C89.1791 154.08 89.1137 154.171 89.0297 154.25C88.9504 154.329 88.8571 154.392 88.7497 154.439C88.6424 154.486 88.5281 154.509 88.4067 154.509C88.2854 154.509 88.1711 154.486 88.0637 154.439C87.9611 154.392 87.8701 154.329 87.7907 154.25C87.7114 154.171 87.6484 154.08 87.6017 153.977C87.5551 153.87 87.5317 153.755 87.5317 153.634C87.5317 153.513 87.5551 153.398 87.6017 153.291C87.6484 153.179 87.7114 153.083 87.7907 153.004C87.8701 152.92 87.9611 152.855 88.0637 152.808C88.1711 152.761 88.2854 152.738 88.4067 152.738C88.5281 152.738 88.6424 152.761 88.7497 152.808C88.8571 152.855 88.9504 152.92 89.0297 153.004C89.1137 153.083 89.1791 153.179 89.2257 153.291C89.2771 153.398 89.3027 153.513 89.3027 153.634ZM95.1717 157.078C95.1157 157.181 95.0294 157.232 94.9127 157.232C94.8427 157.232 94.7634 157.206 94.6747 157.155C94.586 157.104 94.4764 157.048 94.3457 156.987C94.2197 156.922 94.068 156.863 93.8907 156.812C93.7134 156.756 93.5034 156.728 93.2607 156.728C93.0507 156.728 92.8617 156.756 92.6937 156.812C92.5257 156.863 92.381 156.936 92.2597 157.029C92.143 157.122 92.052 157.232 91.9867 157.358C91.926 157.479 91.8957 157.612 91.8957 157.757C91.8957 157.939 91.947 158.091 92.0497 158.212C92.157 158.333 92.297 158.438 92.4697 158.527C92.6424 158.616 92.8384 158.695 93.0577 158.765C93.277 158.83 93.501 158.903 93.7297 158.982C93.963 159.057 94.1894 159.141 94.4087 159.234C94.628 159.327 94.824 159.444 94.9967 159.584C95.1694 159.724 95.307 159.897 95.4097 160.102C95.517 160.303 95.5707 160.545 95.5707 160.83C95.5707 161.157 95.5124 161.46 95.3957 161.74C95.279 162.015 95.1064 162.256 94.8777 162.461C94.649 162.662 94.369 162.82 94.0377 162.937C93.7064 163.054 93.3237 163.112 92.8897 163.112C92.395 163.112 91.947 163.033 91.5457 162.874C91.1444 162.711 90.8037 162.503 90.5237 162.251L90.8177 161.775C90.855 161.714 90.8994 161.668 90.9507 161.635C91.002 161.602 91.0674 161.586 91.1467 161.586C91.2307 161.586 91.3194 161.619 91.4127 161.684C91.506 161.749 91.618 161.822 91.7487 161.901C91.884 161.98 92.0474 162.053 92.2387 162.118C92.43 162.183 92.668 162.216 92.9527 162.216C93.1954 162.216 93.4077 162.186 93.5897 162.125C93.7717 162.06 93.9234 161.973 94.0447 161.866C94.166 161.759 94.2547 161.635 94.3107 161.495C94.3714 161.355 94.4017 161.206 94.4017 161.047C94.4017 160.851 94.348 160.69 94.2407 160.564C94.138 160.433 94.0004 160.324 93.8277 160.235C93.655 160.142 93.4567 160.062 93.2327 159.997C93.0134 159.927 92.787 159.855 92.5537 159.78C92.325 159.705 92.0987 159.621 91.8747 159.528C91.6554 159.43 91.4594 159.309 91.2867 159.164C91.114 159.019 90.974 158.842 90.8667 158.632C90.764 158.417 90.7127 158.158 90.7127 157.855C90.7127 157.584 90.7687 157.325 90.8807 157.078C90.9927 156.826 91.156 156.607 91.3707 156.42C91.5854 156.229 91.849 156.077 92.1617 155.965C92.4744 155.853 92.8314 155.797 93.2327 155.797C93.6994 155.797 94.117 155.872 94.4857 156.021C94.859 156.166 95.181 156.366 95.4517 156.623L95.1717 157.078ZM103.678 163H102.432V156.952H98.7783V161.208C98.7783 161.507 98.8507 161.728 98.9953 161.873C99.14 162.018 99.3267 162.09 99.5553 162.09C99.686 162.09 99.798 162.074 99.8913 162.041C99.9893 162.004 100.073 161.964 100.143 161.922C100.213 161.88 100.272 161.843 100.318 161.81C100.37 161.773 100.414 161.754 100.451 161.754C100.517 161.754 100.575 161.794 100.626 161.873L100.99 162.468C100.776 162.669 100.517 162.827 100.213 162.944C99.91 163.056 99.5973 163.112 99.2753 163.112C98.7153 163.112 98.2837 162.956 97.9803 162.643C97.6817 162.33 97.5323 161.88 97.5323 161.292V156.952H96.6783C96.6037 156.952 96.5407 156.931 96.4893 156.889C96.438 156.842 96.4123 156.772 96.4123 156.679V156.182L97.5743 156.028L97.8613 153.844C97.8753 153.774 97.9057 153.718 97.9523 153.676C98.0037 153.629 98.069 153.606 98.1483 153.606H98.7783V156.049H103.678V163ZM103.986 153.634C103.986 153.755 103.961 153.87 103.909 153.977C103.863 154.08 103.797 154.171 103.713 154.25C103.634 154.329 103.541 154.392 103.433 154.439C103.326 154.486 103.212 154.509 103.09 154.509C102.969 154.509 102.855 154.486 102.747 154.439C102.645 154.392 102.554 154.329 102.474 154.25C102.395 154.171 102.332 154.08 102.285 153.977C102.239 153.87 102.215 153.755 102.215 153.634C102.215 153.513 102.239 153.398 102.285 153.291C102.332 153.179 102.395 153.083 102.474 153.004C102.554 152.92 102.645 152.855 102.747 152.808C102.855 152.761 102.969 152.738 103.09 152.738C103.212 152.738 103.326 152.761 103.433 152.808C103.541 152.855 103.634 152.92 103.713 153.004C103.797 153.083 103.863 153.179 103.909 153.291C103.961 153.398 103.986 153.513 103.986 153.634ZM110.66 157.169C110.623 157.22 110.586 157.26 110.548 157.288C110.511 157.316 110.46 157.33 110.394 157.33C110.324 157.33 110.247 157.302 110.163 157.246C110.079 157.185 109.974 157.12 109.848 157.05C109.727 156.98 109.575 156.917 109.393 156.861C109.216 156.8 108.997 156.77 108.735 156.77C108.385 156.77 108.077 156.833 107.811 156.959C107.545 157.08 107.321 157.258 107.139 157.491C106.962 157.724 106.827 158.007 106.733 158.338C106.645 158.669 106.6 159.04 106.6 159.451C106.6 159.88 106.649 160.263 106.747 160.599C106.845 160.93 106.983 161.21 107.16 161.439C107.342 161.663 107.559 161.836 107.811 161.957C108.068 162.074 108.355 162.132 108.672 162.132C108.976 162.132 109.225 162.097 109.421 162.027C109.617 161.952 109.778 161.871 109.904 161.782C110.035 161.693 110.142 161.614 110.226 161.544C110.315 161.469 110.401 161.432 110.485 161.432C110.588 161.432 110.667 161.472 110.723 161.551L111.073 162.006C110.919 162.197 110.744 162.361 110.548 162.496C110.352 162.631 110.14 162.746 109.911 162.839C109.687 162.928 109.452 162.993 109.204 163.035C108.957 163.077 108.705 163.098 108.448 163.098C108.005 163.098 107.592 163.016 107.209 162.853C106.831 162.69 106.502 162.454 106.222 162.146C105.942 161.833 105.723 161.451 105.564 160.998C105.406 160.545 105.326 160.03 105.326 159.451C105.326 158.924 105.399 158.436 105.543 157.988C105.693 157.54 105.907 157.155 106.187 156.833C106.472 156.506 106.82 156.252 107.23 156.07C107.646 155.888 108.122 155.797 108.658 155.797C109.158 155.797 109.596 155.879 109.974 156.042C110.357 156.201 110.695 156.427 110.989 156.721L110.66 157.169ZM116.541 157.078C116.485 157.181 116.398 157.232 116.282 157.232C116.212 157.232 116.132 157.206 116.044 157.155C115.955 157.104 115.845 157.048 115.715 156.987C115.589 156.922 115.437 156.863 115.26 156.812C115.082 156.756 114.872 156.728 114.63 156.728C114.42 156.728 114.231 156.756 114.063 156.812C113.895 156.863 113.75 156.936 113.629 157.029C113.512 157.122 113.421 157.232 113.356 157.358C113.295 157.479 113.265 157.612 113.265 157.757C113.265 157.939 113.316 158.091 113.419 158.212C113.526 158.333 113.666 158.438 113.839 158.527C114.011 158.616 114.207 158.695 114.427 158.765C114.646 158.83 114.87 158.903 115.099 158.982C115.332 159.057 115.558 159.141 115.778 159.234C115.997 159.327 116.193 159.444 116.366 159.584C116.538 159.724 116.676 159.897 116.779 160.102C116.886 160.303 116.94 160.545 116.94 160.83C116.94 161.157 116.881 161.46 116.765 161.74C116.648 162.015 116.475 162.256 116.247 162.461C116.018 162.662 115.738 162.82 115.407 162.937C115.075 163.054 114.693 163.112 114.259 163.112C113.764 163.112 113.316 163.033 112.915 162.874C112.513 162.711 112.173 162.503 111.893 162.251L112.187 161.775C112.224 161.714 112.268 161.668 112.32 161.635C112.371 161.602 112.436 161.586 112.516 161.586C112.6 161.586 112.688 161.619 112.782 161.684C112.875 161.749 112.987 161.822 113.118 161.901C113.253 161.98 113.416 162.053 113.608 162.118C113.799 162.183 114.037 162.216 114.322 162.216C114.564 162.216 114.777 162.186 114.959 162.125C115.141 162.06 115.292 161.973 115.414 161.866C115.535 161.759 115.624 161.635 115.68 161.495C115.74 161.355 115.771 161.206 115.771 161.047C115.771 160.851 115.717 160.69 115.61 160.564C115.507 160.433 115.369 160.324 115.197 160.235C115.024 160.142 114.826 160.062 114.602 159.997C114.382 159.927 114.156 159.855 113.923 159.78C113.694 159.705 113.468 159.621 113.244 159.528C113.024 159.43 112.828 159.309 112.656 159.164C112.483 159.019 112.343 158.842 112.236 158.632C112.133 158.417 112.082 158.158 112.082 157.855C112.082 157.584 112.138 157.325 112.25 157.078C112.362 156.826 112.525 156.607 112.74 156.42C112.954 156.229 113.218 156.077 113.531 155.965C113.843 155.853 114.2 155.797 114.602 155.797C115.068 155.797 115.486 155.872 115.855 156.021C116.228 156.166 116.55 156.366 116.821 156.623L116.541 157.078ZM127.206 159.276L125.631 155.195C125.584 155.074 125.535 154.934 125.484 154.775C125.432 154.612 125.383 154.439 125.337 154.257C125.239 154.635 125.138 154.95 125.036 155.202L123.461 159.276H127.206ZM130.034 163H128.984C128.862 163 128.764 162.97 128.69 162.909C128.615 162.848 128.559 162.771 128.522 162.678L127.584 160.256H123.083L122.145 162.678C122.117 162.762 122.063 162.837 121.984 162.902C121.904 162.967 121.806 163 121.69 163H120.64L124.651 152.969H126.023L130.034 163ZM132.285 161.292C132.514 161.6 132.763 161.817 133.034 161.943C133.305 162.069 133.608 162.132 133.944 162.132C134.607 162.132 135.115 161.896 135.47 161.425C135.825 160.954 136.002 160.282 136.002 159.409C136.002 158.947 135.96 158.55 135.876 158.219C135.797 157.888 135.68 157.617 135.526 157.407C135.372 157.192 135.183 157.036 134.959 156.938C134.735 156.84 134.481 156.791 134.196 156.791C133.79 156.791 133.433 156.884 133.125 157.071C132.822 157.258 132.542 157.521 132.285 157.862V161.292ZM132.222 157.008C132.521 156.639 132.866 156.343 133.258 156.119C133.65 155.895 134.098 155.783 134.602 155.783C135.013 155.783 135.384 155.862 135.715 156.021C136.046 156.175 136.329 156.406 136.562 156.714C136.795 157.017 136.975 157.395 137.101 157.848C137.227 158.301 137.29 158.821 137.29 159.409C137.29 159.932 137.22 160.419 137.08 160.872C136.94 161.32 136.737 161.71 136.471 162.041C136.21 162.368 135.888 162.627 135.505 162.818C135.127 163.005 134.7 163.098 134.224 163.098C133.79 163.098 133.417 163.026 133.104 162.881C132.796 162.732 132.523 162.526 132.285 162.265V165.401H131.032V155.909H131.781C131.958 155.909 132.068 155.995 132.11 156.168L132.222 157.008ZM140.133 161.292C140.361 161.6 140.611 161.817 140.882 161.943C141.152 162.069 141.456 162.132 141.792 162.132C142.454 162.132 142.963 161.896 143.318 161.425C143.672 160.954 143.85 160.282 143.85 159.409C143.85 158.947 143.808 158.55 143.724 158.219C143.644 157.888 143.528 157.617 143.374 157.407C143.22 157.192 143.031 157.036 142.807 156.938C142.583 156.84 142.328 156.791 142.044 156.791C141.638 156.791 141.281 156.884 140.973 157.071C140.669 157.258 140.389 157.521 140.133 157.862V161.292ZM140.07 157.008C140.368 156.639 140.714 156.343 141.106 156.119C141.498 155.895 141.946 155.783 142.45 155.783C142.86 155.783 143.231 155.862 143.563 156.021C143.894 156.175 144.176 156.406 144.41 156.714C144.643 157.017 144.823 157.395 144.949 157.848C145.075 158.301 145.138 158.821 145.138 159.409C145.138 159.932 145.068 160.419 144.928 160.872C144.788 161.32 144.585 161.71 144.319 162.041C144.057 162.368 143.735 162.627 143.353 162.818C142.975 163.005 142.548 163.098 142.072 163.098C141.638 163.098 141.264 163.026 140.952 162.881C140.644 162.732 140.371 162.526 140.133 162.265V165.401H138.88V155.909H139.629C139.806 155.909 139.916 155.995 139.958 156.168L140.07 157.008Z" fill="#B2ADCC"/>
<defs>
<filter id="filter0_d" x="0" y="0" width="208" height="188" filterUnits="userSpaceOnUse" color-interpolation-filters="sRGB">
<feFlood flood-opacity="0" result="BackgroundImageFix"/>
<feColorMatrix in="SourceAlpha" type="matrix" values="0 0 0 0 0 0 0 0 0 0 0 0 0 0 0 0 0 0 127 0"/>
<feOffset dy="4"/>
<feGaussianBlur stdDeviation="2"/>
<feColorMatrix type="matrix" values="0 0 0 0 0 0 0 0 0 0 0 0 0 0 0 0 0 0 0.25 0"/>
<feBlend mode="normal" in2="BackgroundImageFix" result="effect1_dropShadow"/>
<feBlend mode="normal" in="SourceGraphic" in2="effect1_dropShadow" result="shape"/>
</filter>
<clipPath id="clip0">
<rect width="90" height="90" fill="white" transform="translate(59 29)"/>
</clipPath>
</defs>
</svg>
