<svg width="208" height="188" viewBox="0 0 208 188" fill="none" xmlns="http://www.w3.org/2000/svg">
<g filter="url(#filter0_d)">
<rect x="4" width="200" height="180" fill="#332E4D"/>
</g>
<path d="M71.4216 81.1029C73.6227 92.0768 88.4729 93.9558 102.69 92.4886C111.427 91.5858 121.882 88.3731 128.183 84.5454L128.246 89.9506C121.301 93.8358 111.268 96.4055 103.592 97.2333C84.1869 99.3242 71.4059 93.8546 68.9139 83.9477C66.9529 76.2245 70.1123 69.6305 76.0176 64.3809L76.04 66.2953C72.7702 69.9124 70.3471 75.6844 71.4216 81.1029Z" fill="#B2ADCC"/>
<path d="M83.7827 59.2474C104.266 46.5823 136.268 47.2478 139.833 63.5116C141.743 72.2364 135.595 79.441 129.541 81.7265L129.495 77.8228C134.516 74.786 137.287 69.573 136.332 64.6162C133.49 49.6203 104.279 49.8983 83.7987 60.6237L83.7827 59.2474Z" fill="#B2ADCC"/>
<path d="M123.033 61.33L126.762 61.2866L126.998 81.5936C124.202 81.3635 123.247 79.6977 123.225 77.7708L123.033 61.33Z" fill="#B2ADCC"/>
<path d="M82.4292 67.81L78.6878 67.8536L78.8132 78.6014C78.8358 80.5408 79.8031 82.1938 82.5996 82.424L82.4292 67.81Z" fill="#B2ADCC"/>
<path d="M78.6236 62.3483L82.3523 62.3048L82.3932 65.8082L78.6645 65.8517L78.6236 62.3483Z" fill="#B2ADCC"/>
<path d="M104.931 81.9884C101.911 82.0236 100.61 79.9615 100.586 77.9096L100.419 63.6458L104.123 63.6027L104.169 67.5439L106.949 67.5115L106.984 70.4644L104.203 70.4968L104.286 77.6412C104.296 78.4794 104.706 78.9377 105.578 78.9275L107.082 78.91L107.118 81.9629L104.931 81.9884Z" fill="#B2ADCC"/>
<path fill-rule="evenodd" clip-rule="evenodd" d="M114.972 79.0558C112.891 79.0801 111.688 77.7237 111.661 75.8534L121.052 75.7439L121.036 74.4176C120.988 70.2762 118.676 67.1496 114.733 67.1956C110.84 67.241 107.913 69.9656 107.969 74.7327C108.034 80.3005 111.444 82.1754 114.983 82.1341C117.7 82.1024 119.219 81.2088 120.669 79.7653L118.356 77.6398C117.419 78.5769 116.615 79.0367 114.972 79.0558ZM111.967 71.7578C112.374 70.8896 113.34 70.2276 114.603 70.2129C116.499 70.1908 117.238 71.7089 117.332 73.272L111.631 73.3385C111.649 72.6876 111.733 72.2862 111.967 71.7578Z" fill="#B2ADCC"/>
<path d="M92.499 70.6458C93.5859 70.6331 94.0344 71.1534 94.0445 72.0167L94.1625 82.139L97.8659 82.0959L97.7477 71.961C97.7238 69.9091 96.5977 67.6447 93.3492 67.6826L85.715 67.7716L85.8837 82.2356L89.587 82.1924L89.4527 70.6813L92.499 70.6458Z" fill="#B2ADCC"/>
<path fill-rule="evenodd" clip-rule="evenodd" d="M131.187 63.5875L131.466 63.5842C131.516 63.5836 131.528 63.5585 131.528 63.5459C131.528 63.5397 131.525 63.5303 131.522 63.521C131.518 63.5116 131.515 63.5023 131.515 63.496L131.115 62.8375C131.317 62.76 131.442 62.6209 131.439 62.3582L131.438 62.3331C131.433 61.9078 131.166 61.7732 130.699 61.7786C130.572 61.7801 130.345 61.7828 130.244 61.809C130.156 61.8225 130.131 61.8604 130.132 61.9479L130.15 63.537C130.151 63.562 130.176 63.5993 130.214 63.5988L130.467 63.5959C130.505 63.5954 130.53 63.5576 130.529 63.5326L130.522 62.9069L130.699 62.9049C130.712 62.9047 130.737 62.9169 130.75 62.9293L131.136 63.5505C131.137 63.5755 131.162 63.5878 131.187 63.5875ZM130.74 62.0911C130.98 62.0883 131.095 62.1494 131.097 62.3246L131.097 62.3496C131.099 62.5248 130.986 62.6012 130.746 62.604C130.727 62.6042 130.677 62.6017 130.626 62.5992C130.576 62.5966 130.525 62.5941 130.506 62.5943L130.5 62.0939L130.74 62.0911Z" fill="#B2ADCC"/>
<path fill-rule="evenodd" clip-rule="evenodd" d="M129.319 62.7333C129.329 63.5466 129.994 64.1895 130.815 64.18C131.637 64.1704 132.299 63.5119 132.29 62.6986C132.28 61.8979 131.602 61.2426 130.781 61.2521C129.959 61.2617 129.31 61.92 129.319 62.7333ZM129.572 62.7303C129.564 62.0547 130.101 61.4978 130.784 61.4899C131.466 61.4819 132.029 62.026 132.037 62.7016C132.044 63.3647 131.495 63.9217 130.812 63.9297C130.13 63.9377 129.58 63.406 129.572 62.7303Z" fill="#B2ADCC"/>
<path d="M70.2591 161.859V163H64.5681V152.969H65.9191V161.859H70.2591ZM75.7057 158.681C75.7057 158.392 75.6637 158.128 75.5797 157.89C75.5003 157.647 75.3813 157.44 75.2227 157.267C75.0687 157.09 74.8797 156.954 74.6557 156.861C74.4317 156.763 74.1773 156.714 73.8927 156.714C73.2953 156.714 72.8217 156.889 72.4717 157.239C72.1263 157.584 71.9117 158.065 71.8277 158.681H75.7057ZM76.7137 162.006C76.5597 162.193 76.3753 162.356 76.1607 162.496C75.946 162.631 75.715 162.743 75.4677 162.832C75.225 162.921 74.973 162.986 74.7117 163.028C74.4503 163.075 74.1913 163.098 73.9347 163.098C73.4447 163.098 72.992 163.016 72.5767 162.853C72.166 162.685 71.809 162.442 71.5057 162.125C71.207 161.803 70.9737 161.406 70.8057 160.935C70.6377 160.464 70.5537 159.922 70.5537 159.311C70.5537 158.816 70.6283 158.354 70.7777 157.925C70.9317 157.496 71.151 157.125 71.4357 156.812C71.7203 156.495 72.068 156.247 72.4787 156.07C72.8893 155.888 73.3513 155.797 73.8647 155.797C74.2893 155.797 74.6813 155.869 75.0407 156.014C75.4047 156.154 75.7173 156.359 75.9787 156.63C76.2447 156.896 76.4523 157.227 76.6017 157.624C76.751 158.016 76.8257 158.464 76.8257 158.968C76.8257 159.164 76.8047 159.295 76.7627 159.36C76.7207 159.425 76.6413 159.458 76.5247 159.458H71.7857C71.7997 159.906 71.8603 160.296 71.9677 160.627C72.0797 160.958 72.2337 161.236 72.4297 161.46C72.6257 161.679 72.859 161.845 73.1297 161.957C73.4003 162.064 73.7037 162.118 74.0397 162.118C74.3523 162.118 74.6207 162.083 74.8447 162.013C75.0733 161.938 75.2693 161.859 75.4327 161.775C75.596 161.691 75.7313 161.614 75.8387 161.544C75.9507 161.469 76.0463 161.432 76.1257 161.432C76.2283 161.432 76.3077 161.472 76.3637 161.551L76.7137 162.006ZM82.1991 159.808C81.6251 159.827 81.1351 159.873 80.7291 159.948C80.3278 160.018 79.9988 160.111 79.7421 160.228C79.4901 160.345 79.3058 160.482 79.1891 160.641C79.0771 160.8 79.0211 160.977 79.0211 161.173C79.0211 161.36 79.0515 161.521 79.1121 161.656C79.1728 161.791 79.2545 161.903 79.3571 161.992C79.4645 162.076 79.5881 162.139 79.7281 162.181C79.8728 162.218 80.0268 162.237 80.1901 162.237C80.4095 162.237 80.6101 162.216 80.7921 162.174C80.9741 162.127 81.1445 162.062 81.3031 161.978C81.4665 161.894 81.6205 161.794 81.7651 161.677C81.9145 161.56 82.0591 161.427 82.1991 161.278V159.808ZM78.1741 156.91C78.5661 156.532 78.9885 156.25 79.4411 156.063C79.8938 155.876 80.3955 155.783 80.9461 155.783C81.3428 155.783 81.6951 155.848 82.0031 155.979C82.3111 156.11 82.5701 156.292 82.7801 156.525C82.9901 156.758 83.1488 157.041 83.2561 157.372C83.3635 157.703 83.4171 158.067 83.4171 158.464V163H82.8641C82.7428 163 82.6495 162.981 82.5841 162.944C82.5188 162.902 82.4675 162.823 82.4301 162.706L82.2901 162.034C82.1035 162.207 81.9215 162.361 81.7441 162.496C81.5668 162.627 81.3801 162.739 81.1841 162.832C80.9881 162.921 80.7781 162.988 80.5541 163.035C80.3348 163.086 80.0898 163.112 79.8191 163.112C79.5438 163.112 79.2848 163.075 79.0421 163C78.7995 162.921 78.5871 162.804 78.4051 162.65C78.2278 162.496 78.0855 162.302 77.9781 162.069C77.8755 161.831 77.8241 161.551 77.8241 161.229C77.8241 160.949 77.9011 160.681 78.0551 160.424C78.2091 160.163 78.4588 159.932 78.8041 159.731C79.1495 159.53 79.5998 159.367 80.1551 159.241C80.7105 159.11 81.3918 159.036 82.1991 159.017V158.464C82.1991 157.913 82.0801 157.498 81.8421 157.218C81.6041 156.933 81.2565 156.791 80.7991 156.791C80.4911 156.791 80.2321 156.831 80.0221 156.91C79.8168 156.985 79.6371 157.071 79.4831 157.169C79.3338 157.262 79.2031 157.349 79.0911 157.428C78.9838 157.503 78.8765 157.54 78.7691 157.54C78.6851 157.54 78.6128 157.519 78.5521 157.477C78.4915 157.43 78.4401 157.374 78.3981 157.309L78.1741 156.91ZM89.9351 157.596C89.7018 157.283 89.4498 157.066 89.1791 156.945C88.9085 156.819 88.6051 156.756 88.2691 156.756C87.6111 156.756 87.1048 156.992 86.7501 157.463C86.3955 157.934 86.2181 158.606 86.2181 159.479C86.2181 159.941 86.2578 160.338 86.3371 160.669C86.4165 160.996 86.5331 161.266 86.6871 161.481C86.8411 161.691 87.0301 161.845 87.2541 161.943C87.4781 162.041 87.7325 162.09 88.0171 162.09C88.4278 162.09 88.7848 161.997 89.0881 161.81C89.3961 161.623 89.6785 161.36 89.9351 161.019V157.596ZM91.1811 152.689V163H90.4391C90.2618 163 90.1498 162.914 90.1031 162.741L89.9911 161.88C89.6878 162.244 89.3425 162.538 88.9551 162.762C88.5678 162.986 88.1198 163.098 87.6111 163.098C87.2051 163.098 86.8365 163.021 86.5051 162.867C86.1738 162.708 85.8915 162.477 85.6581 162.174C85.4248 161.871 85.2451 161.493 85.1191 161.04C84.9931 160.587 84.9301 160.067 84.9301 159.479C84.9301 158.956 85.0001 158.471 85.1401 158.023C85.2801 157.57 85.4808 157.178 85.7421 156.847C86.0035 156.516 86.3231 156.257 86.7011 156.07C87.0838 155.879 87.5131 155.783 87.9891 155.783C88.4231 155.783 88.7941 155.858 89.1021 156.007C89.4148 156.152 89.6925 156.355 89.9351 156.616V152.689H91.1811ZM98.3831 163H97.0251V152.969H98.3831V163ZM101.722 156.938C101.876 156.765 102.039 156.609 102.212 156.469C102.384 156.329 102.566 156.21 102.758 156.112C102.954 156.009 103.159 155.932 103.374 155.881C103.593 155.825 103.829 155.797 104.081 155.797C104.468 155.797 104.809 155.862 105.103 155.993C105.401 156.119 105.649 156.301 105.845 156.539C106.045 156.772 106.197 157.055 106.3 157.386C106.402 157.717 106.454 158.084 106.454 158.485V163H105.201V158.485C105.201 157.948 105.077 157.533 104.83 157.239C104.587 156.94 104.216 156.791 103.717 156.791C103.348 156.791 103.003 156.88 102.681 157.057C102.363 157.234 102.069 157.475 101.799 157.778V163H100.546V155.909H101.295C101.472 155.909 101.582 155.995 101.624 156.168L101.722 156.938ZM114.278 155.909L111.387 163H110.267L107.376 155.909H108.391C108.494 155.909 108.578 155.935 108.643 155.986C108.708 156.037 108.753 156.098 108.776 156.168L110.575 160.732C110.631 160.905 110.68 161.073 110.722 161.236C110.764 161.399 110.804 161.563 110.841 161.726C110.878 161.563 110.918 161.399 110.96 161.236C111.002 161.073 111.053 160.905 111.114 160.732L112.934 156.168C112.962 156.093 113.009 156.033 113.074 155.986C113.139 155.935 113.216 155.909 113.305 155.909H114.278ZM119.975 158.681C119.975 158.392 119.933 158.128 119.849 157.89C119.77 157.647 119.651 157.44 119.492 157.267C119.338 157.09 119.149 156.954 118.925 156.861C118.701 156.763 118.447 156.714 118.162 156.714C117.565 156.714 117.091 156.889 116.741 157.239C116.396 157.584 116.181 158.065 116.097 158.681H119.975ZM120.983 162.006C120.829 162.193 120.645 162.356 120.43 162.496C120.216 162.631 119.985 162.743 119.737 162.832C119.495 162.921 119.243 162.986 118.981 163.028C118.72 163.075 118.461 163.098 118.204 163.098C117.714 163.098 117.262 163.016 116.846 162.853C116.436 162.685 116.079 162.442 115.775 162.125C115.477 161.803 115.243 161.406 115.075 160.935C114.907 160.464 114.823 159.922 114.823 159.311C114.823 158.816 114.898 158.354 115.047 157.925C115.201 157.496 115.421 157.125 115.705 156.812C115.99 156.495 116.338 156.247 116.748 156.07C117.159 155.888 117.621 155.797 118.134 155.797C118.559 155.797 118.951 155.869 119.31 156.014C119.674 156.154 119.987 156.359 120.248 156.63C120.514 156.896 120.722 157.227 120.871 157.624C121.021 158.016 121.095 158.464 121.095 158.968C121.095 159.164 121.074 159.295 121.032 159.36C120.99 159.425 120.911 159.458 120.794 159.458H116.055C116.069 159.906 116.13 160.296 116.237 160.627C116.349 160.958 116.503 161.236 116.699 161.46C116.895 161.679 117.129 161.845 117.399 161.957C117.67 162.064 117.973 162.118 118.309 162.118C118.622 162.118 118.89 162.083 119.114 162.013C119.343 161.938 119.539 161.859 119.702 161.775C119.866 161.691 120.001 161.614 120.108 161.544C120.22 161.469 120.316 161.432 120.395 161.432C120.498 161.432 120.577 161.472 120.633 161.551L120.983 162.006ZM126.756 157.078C126.7 157.181 126.613 157.232 126.497 157.232C126.427 157.232 126.347 157.206 126.259 157.155C126.17 157.104 126.06 157.048 125.93 156.987C125.804 156.922 125.652 156.863 125.475 156.812C125.297 156.756 125.087 156.728 124.845 156.728C124.635 156.728 124.446 156.756 124.278 156.812C124.11 156.863 123.965 156.936 123.844 157.029C123.727 157.122 123.636 157.232 123.571 157.358C123.51 157.479 123.48 157.612 123.48 157.757C123.48 157.939 123.531 158.091 123.634 158.212C123.741 158.333 123.881 158.438 124.054 158.527C124.226 158.616 124.422 158.695 124.642 158.765C124.861 158.83 125.085 158.903 125.314 158.982C125.547 159.057 125.773 159.141 125.993 159.234C126.212 159.327 126.408 159.444 126.581 159.584C126.753 159.724 126.891 159.897 126.994 160.102C127.101 160.303 127.155 160.545 127.155 160.83C127.155 161.157 127.096 161.46 126.98 161.74C126.863 162.015 126.69 162.256 126.462 162.461C126.233 162.662 125.953 162.82 125.622 162.937C125.29 163.054 124.908 163.112 124.474 163.112C123.979 163.112 123.531 163.033 123.13 162.874C122.728 162.711 122.388 162.503 122.108 162.251L122.402 161.775C122.439 161.714 122.483 161.668 122.535 161.635C122.586 161.602 122.651 161.586 122.731 161.586C122.815 161.586 122.903 161.619 122.997 161.684C123.09 161.749 123.202 161.822 123.333 161.901C123.468 161.98 123.631 162.053 123.823 162.118C124.014 162.183 124.252 162.216 124.537 162.216C124.779 162.216 124.992 162.186 125.174 162.125C125.356 162.06 125.507 161.973 125.629 161.866C125.75 161.759 125.839 161.635 125.895 161.495C125.955 161.355 125.986 161.206 125.986 161.047C125.986 160.851 125.932 160.69 125.825 160.564C125.722 160.433 125.584 160.324 125.412 160.235C125.239 160.142 125.041 160.062 124.817 159.997C124.597 159.927 124.371 159.855 124.138 159.78C123.909 159.705 123.683 159.621 123.459 159.528C123.239 159.43 123.043 159.309 122.871 159.164C122.698 159.019 122.558 158.842 122.451 158.632C122.348 158.417 122.297 158.158 122.297 157.855C122.297 157.584 122.353 157.325 122.465 157.078C122.577 156.826 122.74 156.607 122.955 156.42C123.169 156.229 123.433 156.077 123.746 155.965C124.058 155.853 124.415 155.797 124.817 155.797C125.283 155.797 125.701 155.872 126.07 156.021C126.443 156.166 126.765 156.366 127.036 156.623L126.756 157.078ZM130.859 163.112C130.299 163.112 129.868 162.956 129.564 162.643C129.266 162.33 129.116 161.88 129.116 161.292V156.952H128.262C128.188 156.952 128.125 156.931 128.073 156.889C128.022 156.842 127.996 156.772 127.996 156.679V156.182L129.158 156.035L129.445 153.844C129.459 153.774 129.49 153.718 129.536 153.676C129.588 153.629 129.653 153.606 129.732 153.606H130.362V156.049H132.413V156.952H130.362V161.208C130.362 161.507 130.435 161.728 130.579 161.873C130.724 162.018 130.911 162.09 131.139 162.09C131.27 162.09 131.382 162.074 131.475 162.041C131.573 162.004 131.657 161.964 131.727 161.922C131.797 161.88 131.856 161.843 131.902 161.81C131.954 161.773 131.998 161.754 132.035 161.754C132.101 161.754 132.159 161.794 132.21 161.873L132.574 162.468C132.36 162.669 132.101 162.827 131.797 162.944C131.494 163.056 131.181 163.112 130.859 163.112ZM136.648 155.797C137.166 155.797 137.633 155.883 138.048 156.056C138.463 156.229 138.818 156.474 139.112 156.791C139.406 157.108 139.63 157.493 139.784 157.946C139.943 158.394 140.022 158.896 140.022 159.451C140.022 160.011 139.943 160.515 139.784 160.963C139.63 161.411 139.406 161.794 139.112 162.111C138.818 162.428 138.463 162.673 138.048 162.846C137.633 163.014 137.166 163.098 136.648 163.098C136.125 163.098 135.654 163.014 135.234 162.846C134.819 162.673 134.464 162.428 134.17 162.111C133.876 161.794 133.65 161.411 133.491 160.963C133.337 160.515 133.26 160.011 133.26 159.451C133.26 158.896 133.337 158.394 133.491 157.946C133.65 157.493 133.876 157.108 134.17 156.791C134.464 156.474 134.819 156.229 135.234 156.056C135.654 155.883 136.125 155.797 136.648 155.797ZM136.648 162.125C137.348 162.125 137.871 161.892 138.216 161.425C138.561 160.954 138.734 160.298 138.734 159.458C138.734 158.613 138.561 157.955 138.216 157.484C137.871 157.013 137.348 156.777 136.648 156.777C136.293 156.777 135.983 156.838 135.717 156.959C135.456 157.08 135.236 157.255 135.059 157.484C134.886 157.713 134.756 157.995 134.667 158.331C134.583 158.662 134.541 159.038 134.541 159.458C134.541 160.298 134.714 160.954 135.059 161.425C135.409 161.892 135.939 162.125 136.648 162.125ZM142.785 157.33C143.009 156.845 143.285 156.467 143.611 156.196C143.938 155.921 144.337 155.783 144.808 155.783C144.958 155.783 145.1 155.799 145.235 155.832C145.375 155.865 145.499 155.916 145.606 155.986L145.515 156.917C145.487 157.034 145.417 157.092 145.305 157.092C145.24 157.092 145.144 157.078 145.018 157.05C144.892 157.022 144.75 157.008 144.591 157.008C144.367 157.008 144.167 157.041 143.989 157.106C143.817 157.171 143.66 157.269 143.52 157.4C143.385 157.526 143.261 157.685 143.149 157.876C143.042 158.063 142.944 158.277 142.855 158.52V163H141.602V155.909H142.316C142.452 155.909 142.545 155.935 142.596 155.986C142.648 156.037 142.683 156.126 142.701 156.252L142.785 157.33Z" fill="#B2ADCC"/>
<defs>
<filter id="filter0_d" x="0" y="0" width="208" height="188" filterUnits="userSpaceOnUse" color-interpolation-filters="sRGB">
<feFlood flood-opacity="0" result="BackgroundImageFix"/>
<feColorMatrix in="SourceAlpha" type="matrix" values="0 0 0 0 0 0 0 0 0 0 0 0 0 0 0 0 0 0 127 0"/>
<feOffset dy="4"/>
<feGaussianBlur stdDeviation="2"/>
<feColorMatrix type="matrix" values="0 0 0 0 0 0 0 0 0 0 0 0 0 0 0 0 0 0 0.25 0"/>
<feBlend mode="normal" in2="BackgroundImageFix" result="effect1_dropShadow"/>
<feBlend mode="normal" in="SourceGraphic" in2="effect1_dropShadow" result="shape"/>
</filter>
</defs>
</svg>
