<svg width="208" height="188" viewBox="0 0 208 188" fill="none" xmlns="http://www.w3.org/2000/svg">
<g filter="url(#filter0_d)">
<rect x="4" width="200" height="180" fill="#332E4D"/>
</g>
<path d="M49.7306 157.365H50.2416C50.419 157.365 50.5613 157.344 50.6686 157.302C50.776 157.255 50.874 157.178 50.9626 157.071L54.3016 153.291C54.395 153.17 54.493 153.086 54.5956 153.039C54.6983 152.992 54.8243 152.969 54.9736 152.969H56.1216L52.2996 157.288C52.2063 157.4 52.1153 157.493 52.0266 157.568C51.9426 157.638 51.8516 157.696 51.7536 157.743C51.8796 157.785 51.994 157.848 52.0966 157.932C52.1993 158.011 52.2996 158.116 52.3976 158.247L56.3876 163H55.2116C55.123 163 55.046 162.995 54.9806 162.986C54.92 162.972 54.8663 162.953 54.8196 162.93C54.773 162.902 54.731 162.872 54.6936 162.839C54.661 162.802 54.6283 162.76 54.5956 162.713L51.1376 158.73C51.0443 158.613 50.944 158.532 50.8366 158.485C50.7293 158.434 50.566 158.408 50.3466 158.408H49.7306V163H48.3796V152.969H49.7306V157.365ZM61.568 158.681C61.568 158.392 61.526 158.128 61.442 157.89C61.3626 157.647 61.2436 157.44 61.085 157.267C60.931 157.09 60.742 156.954 60.518 156.861C60.294 156.763 60.0396 156.714 59.755 156.714C59.1576 156.714 58.684 156.889 58.334 157.239C57.9886 157.584 57.774 158.065 57.69 158.681H61.568ZM62.576 162.006C62.422 162.193 62.2376 162.356 62.023 162.496C61.8083 162.631 61.5773 162.743 61.33 162.832C61.0873 162.921 60.8353 162.986 60.574 163.028C60.3126 163.075 60.0536 163.098 59.797 163.098C59.307 163.098 58.8543 163.016 58.439 162.853C58.0283 162.685 57.6713 162.442 57.368 162.125C57.0693 161.803 56.836 161.406 56.668 160.935C56.5 160.464 56.416 159.922 56.416 159.311C56.416 158.816 56.4906 158.354 56.64 157.925C56.794 157.496 57.0133 157.125 57.298 156.812C57.5826 156.495 57.9303 156.247 58.341 156.07C58.7516 155.888 59.2136 155.797 59.727 155.797C60.1516 155.797 60.5436 155.869 60.903 156.014C61.267 156.154 61.5796 156.359 61.841 156.63C62.107 156.896 62.3146 157.227 62.464 157.624C62.6133 158.016 62.688 158.464 62.688 158.968C62.688 159.164 62.667 159.295 62.625 159.36C62.583 159.425 62.5036 159.458 62.387 159.458H57.648C57.662 159.906 57.7226 160.296 57.83 160.627C57.942 160.958 58.096 161.236 58.292 161.46C58.488 161.679 58.7213 161.845 58.992 161.957C59.2626 162.064 59.566 162.118 59.902 162.118C60.2146 162.118 60.483 162.083 60.707 162.013C60.9356 161.938 61.1316 161.859 61.295 161.775C61.4583 161.691 61.5936 161.614 61.701 161.544C61.813 161.469 61.9086 161.432 61.988 161.432C62.0906 161.432 62.17 161.472 62.226 161.551L62.576 162.006ZM70.1587 155.909L66.2037 165.093C66.1617 165.186 66.108 165.261 66.0427 165.317C65.982 165.373 65.8864 165.401 65.7557 165.401H64.8317L66.1267 162.587L63.2007 155.909H64.2787C64.386 155.909 64.47 155.937 64.5307 155.993C64.596 156.044 64.6404 156.103 64.6637 156.168L66.5607 160.634C66.6354 160.83 66.6984 161.035 66.7497 161.25C66.815 161.031 66.885 160.823 66.9597 160.627L68.8007 156.168C68.8287 156.093 68.8754 156.033 68.9407 155.986C69.0107 155.935 69.0877 155.909 69.1717 155.909H70.1587ZM72.5125 161.292C72.7411 161.6 72.9908 161.817 73.2615 161.943C73.5368 162.069 73.8378 162.132 74.1645 162.132C74.8318 162.132 75.3428 161.896 75.6975 161.425C76.0521 160.954 76.2295 160.251 76.2295 159.318C76.2295 158.45 76.0708 157.813 75.7535 157.407C75.4408 156.996 74.9928 156.791 74.4095 156.791C74.0035 156.791 73.6488 156.884 73.3455 157.071C73.0468 157.258 72.7691 157.521 72.5125 157.862V161.292ZM72.5125 156.931C72.8111 156.586 73.1471 156.31 73.5205 156.105C73.8985 155.9 74.3325 155.797 74.8225 155.797C75.2378 155.797 75.6111 155.876 75.9425 156.035C76.2785 156.194 76.5631 156.425 76.7965 156.728C77.0298 157.027 77.2071 157.391 77.3285 157.82C77.4545 158.249 77.5175 158.732 77.5175 159.269C77.5175 159.843 77.4475 160.366 77.3075 160.837C77.1675 161.308 76.9645 161.712 76.6985 162.048C76.4371 162.379 76.1175 162.638 75.7395 162.825C75.3615 163.007 74.9368 163.098 74.4655 163.098C73.9988 163.098 73.6045 163.012 73.2825 162.839C72.9651 162.662 72.6875 162.412 72.4495 162.09L72.3865 162.734C72.3491 162.911 72.2418 163 72.0645 163H71.2595V152.689H72.5125V156.931ZM82.0824 155.797C82.6004 155.797 83.0671 155.883 83.4824 156.056C83.8978 156.229 84.2524 156.474 84.5464 156.791C84.8404 157.108 85.0644 157.493 85.2184 157.946C85.3771 158.394 85.4564 158.896 85.4564 159.451C85.4564 160.011 85.3771 160.515 85.2184 160.963C85.0644 161.411 84.8404 161.794 84.5464 162.111C84.2524 162.428 83.8978 162.673 83.4824 162.846C83.0671 163.014 82.6004 163.098 82.0824 163.098C81.5598 163.098 81.0884 163.014 80.6684 162.846C80.2531 162.673 79.8984 162.428 79.6044 162.111C79.3104 161.794 79.0841 161.411 78.9254 160.963C78.7714 160.515 78.6944 160.011 78.6944 159.451C78.6944 158.896 78.7714 158.394 78.9254 157.946C79.0841 157.493 79.3104 157.108 79.6044 156.791C79.8984 156.474 80.2531 156.229 80.6684 156.056C81.0884 155.883 81.5598 155.797 82.0824 155.797ZM82.0824 162.125C82.7824 162.125 83.3051 161.892 83.6504 161.425C83.9958 160.954 84.1684 160.298 84.1684 159.458C84.1684 158.613 83.9958 157.955 83.6504 157.484C83.3051 157.013 82.7824 156.777 82.0824 156.777C81.7278 156.777 81.4174 156.838 81.1514 156.959C80.8901 157.08 80.6708 157.255 80.4934 157.484C80.3208 157.713 80.1901 157.995 80.1014 158.331C80.0174 158.662 79.9754 159.038 79.9754 159.458C79.9754 160.298 80.1481 160.954 80.4934 161.425C80.8434 161.892 81.3731 162.125 82.0824 162.125ZM90.8798 159.808C90.3058 159.827 89.8158 159.873 89.4098 159.948C89.0085 160.018 88.6795 160.111 88.4228 160.228C88.1708 160.345 87.9865 160.482 87.8698 160.641C87.7578 160.8 87.7018 160.977 87.7018 161.173C87.7018 161.36 87.7321 161.521 87.7928 161.656C87.8535 161.791 87.9351 161.903 88.0378 161.992C88.1451 162.076 88.2688 162.139 88.4088 162.181C88.5535 162.218 88.7075 162.237 88.8708 162.237C89.0901 162.237 89.2908 162.216 89.4728 162.174C89.6548 162.127 89.8251 162.062 89.9838 161.978C90.1471 161.894 90.3011 161.794 90.4458 161.677C90.5951 161.56 90.7398 161.427 90.8798 161.278V159.808ZM86.8548 156.91C87.2468 156.532 87.6691 156.25 88.1218 156.063C88.5745 155.876 89.0761 155.783 89.6268 155.783C90.0235 155.783 90.3758 155.848 90.6838 155.979C90.9918 156.11 91.2508 156.292 91.4608 156.525C91.6708 156.758 91.8295 157.041 91.9368 157.372C92.0441 157.703 92.0978 158.067 92.0978 158.464V163H91.5448C91.4235 163 91.3301 162.981 91.2648 162.944C91.1995 162.902 91.1481 162.823 91.1108 162.706L90.9708 162.034C90.7841 162.207 90.6021 162.361 90.4248 162.496C90.2475 162.627 90.0608 162.739 89.8648 162.832C89.6688 162.921 89.4588 162.988 89.2348 163.035C89.0155 163.086 88.7705 163.112 88.4998 163.112C88.2245 163.112 87.9655 163.075 87.7228 163C87.4801 162.921 87.2678 162.804 87.0858 162.65C86.9085 162.496 86.7661 162.302 86.6588 162.069C86.5561 161.831 86.5048 161.551 86.5048 161.229C86.5048 160.949 86.5818 160.681 86.7358 160.424C86.8898 160.163 87.1395 159.932 87.4848 159.731C87.8301 159.53 88.2805 159.367 88.8358 159.241C89.3911 159.11 90.0725 159.036 90.8798 159.017V158.464C90.8798 157.913 90.7608 157.498 90.5228 157.218C90.2848 156.933 89.9371 156.791 89.4798 156.791C89.1718 156.791 88.9128 156.831 88.7028 156.91C88.4975 156.985 88.3178 157.071 88.1638 157.169C88.0145 157.262 87.8838 157.349 87.7718 157.428C87.6645 157.503 87.5571 157.54 87.4498 157.54C87.3658 157.54 87.2935 157.519 87.2328 157.477C87.1721 157.43 87.1208 157.374 87.0788 157.309L86.8548 156.91ZM95.1788 157.33C95.4028 156.845 95.6781 156.467 96.0048 156.196C96.3315 155.921 96.7305 155.783 97.2018 155.783C97.3511 155.783 97.4935 155.799 97.6288 155.832C97.7688 155.865 97.8925 155.916 97.9998 155.986L97.9088 156.917C97.8808 157.034 97.8108 157.092 97.6988 157.092C97.6335 157.092 97.5378 157.078 97.4118 157.05C97.2858 157.022 97.1435 157.008 96.9848 157.008C96.7608 157.008 96.5601 157.041 96.3828 157.106C96.2101 157.171 96.0538 157.269 95.9138 157.4C95.7785 157.526 95.6548 157.685 95.5428 157.876C95.4355 158.063 95.3375 158.277 95.2488 158.52V163H93.9958V155.909H94.7098C94.8451 155.909 94.9385 155.935 94.9898 155.986C95.0411 156.037 95.0761 156.126 95.0948 156.252L95.1788 157.33ZM103.442 157.596C103.209 157.283 102.957 157.066 102.686 156.945C102.415 156.819 102.112 156.756 101.776 156.756C101.118 156.756 100.612 156.992 100.257 157.463C99.9023 157.934 99.725 158.606 99.725 159.479C99.725 159.941 99.7646 160.338 99.844 160.669C99.9233 160.996 100.04 161.266 100.194 161.481C100.348 161.691 100.537 161.845 100.761 161.943C100.985 162.041 101.239 162.09 101.524 162.09C101.935 162.09 102.292 161.997 102.595 161.81C102.903 161.623 103.185 161.36 103.442 161.019V157.596ZM104.688 152.689V163H103.946C103.769 163 103.657 162.914 103.61 162.741L103.498 161.88C103.195 162.244 102.849 162.538 102.462 162.762C102.075 162.986 101.627 163.098 101.118 163.098C100.712 163.098 100.343 163.021 100.012 162.867C99.6806 162.708 99.3983 162.477 99.165 162.174C98.9316 161.871 98.752 161.493 98.626 161.04C98.5 160.587 98.437 160.067 98.437 159.479C98.437 158.956 98.507 158.471 98.647 158.023C98.787 157.57 98.9876 157.178 99.249 156.847C99.5103 156.516 99.83 156.257 100.208 156.07C100.591 155.879 101.02 155.783 101.496 155.783C101.93 155.783 102.301 155.858 102.609 156.007C102.922 156.152 103.199 156.355 103.442 156.616V152.689H104.688ZM111.89 154.075V157.582H116.013V158.688H111.89V163H110.532V152.969H116.713V154.075H111.89ZM122.285 158.681C122.285 158.392 122.243 158.128 122.159 157.89C122.079 157.647 121.96 157.44 121.802 157.267C121.648 157.09 121.459 156.954 121.235 156.861C121.011 156.763 120.756 156.714 120.472 156.714C119.874 156.714 119.401 156.889 119.051 157.239C118.705 157.584 118.491 158.065 118.407 158.681H122.285ZM123.293 162.006C123.139 162.193 122.954 162.356 122.74 162.496C122.525 162.631 122.294 162.743 122.047 162.832C121.804 162.921 121.552 162.986 121.291 163.028C121.029 163.075 120.77 163.098 120.514 163.098C120.024 163.098 119.571 163.016 119.156 162.853C118.745 162.685 118.388 162.442 118.085 162.125C117.786 161.803 117.553 161.406 117.385 160.935C117.217 160.464 117.133 159.922 117.133 159.311C117.133 158.816 117.207 158.354 117.357 157.925C117.511 157.496 117.73 157.125 118.015 156.812C118.299 156.495 118.647 156.247 119.058 156.07C119.468 155.888 119.93 155.797 120.444 155.797C120.868 155.797 121.26 155.869 121.62 156.014C121.984 156.154 122.296 156.359 122.558 156.63C122.824 156.896 123.031 157.227 123.181 157.624C123.33 158.016 123.405 158.464 123.405 158.968C123.405 159.164 123.384 159.295 123.342 159.36C123.3 159.425 123.22 159.458 123.104 159.458H118.365C118.379 159.906 118.439 160.296 118.547 160.627C118.659 160.958 118.813 161.236 119.009 161.46C119.205 161.679 119.438 161.845 119.709 161.957C119.979 162.064 120.283 162.118 120.619 162.118C120.931 162.118 121.2 162.083 121.424 162.013C121.652 161.938 121.848 161.859 122.012 161.775C122.175 161.691 122.31 161.614 122.418 161.544C122.53 161.469 122.625 161.432 122.705 161.432C122.807 161.432 122.887 161.472 122.943 161.551L123.293 162.006ZM128.778 159.808C128.204 159.827 127.714 159.873 127.308 159.948C126.907 160.018 126.578 160.111 126.321 160.228C126.069 160.345 125.885 160.482 125.768 160.641C125.656 160.8 125.6 160.977 125.6 161.173C125.6 161.36 125.631 161.521 125.691 161.656C125.752 161.791 125.834 161.903 125.936 161.992C126.044 162.076 126.167 162.139 126.307 162.181C126.452 162.218 126.606 162.237 126.769 162.237C126.989 162.237 127.189 162.216 127.371 162.174C127.553 162.127 127.724 162.062 127.882 161.978C128.046 161.894 128.2 161.794 128.344 161.677C128.494 161.56 128.638 161.427 128.778 161.278V159.808ZM124.753 156.91C125.145 156.532 125.568 156.25 126.02 156.063C126.473 155.876 126.975 155.783 127.525 155.783C127.922 155.783 128.274 155.848 128.582 155.979C128.89 156.11 129.149 156.292 129.359 156.525C129.569 156.758 129.728 157.041 129.835 157.372C129.943 157.703 129.996 158.067 129.996 158.464V163H129.443C129.322 163 129.229 162.981 129.163 162.944C129.098 162.902 129.047 162.823 129.009 162.706L128.869 162.034C128.683 162.207 128.501 162.361 128.323 162.496C128.146 162.627 127.959 162.739 127.763 162.832C127.567 162.921 127.357 162.988 127.133 163.035C126.914 163.086 126.669 163.112 126.398 163.112C126.123 163.112 125.864 163.075 125.621 163C125.379 162.921 125.166 162.804 124.984 162.65C124.807 162.496 124.665 162.302 124.557 162.069C124.455 161.831 124.403 161.551 124.403 161.229C124.403 160.949 124.48 160.681 124.634 160.424C124.788 160.163 125.038 159.932 125.383 159.731C125.729 159.53 126.179 159.367 126.734 159.241C127.29 159.11 127.971 159.036 128.778 159.017V158.464C128.778 157.913 128.659 157.498 128.421 157.218C128.183 156.933 127.836 156.791 127.378 156.791C127.07 156.791 126.811 156.831 126.601 156.91C126.396 156.985 126.216 157.071 126.062 157.169C125.913 157.262 125.782 157.349 125.67 157.428C125.563 157.503 125.456 157.54 125.348 157.54C125.264 157.54 125.192 157.519 125.131 157.477C125.071 157.43 125.019 157.374 124.977 157.309L124.753 156.91ZM133.976 163.112C133.416 163.112 132.984 162.956 132.681 162.643C132.382 162.33 132.233 161.88 132.233 161.292V156.952H131.379C131.304 156.952 131.241 156.931 131.19 156.889C131.138 156.842 131.113 156.772 131.113 156.679V156.182L132.275 156.035L132.562 153.844C132.576 153.774 132.606 153.718 132.653 153.676C132.704 153.629 132.769 153.606 132.849 153.606H133.479V156.049H135.53V156.952H133.479V161.208C133.479 161.507 133.551 161.728 133.696 161.873C133.84 162.018 134.027 162.09 134.256 162.09C134.386 162.09 134.498 162.074 134.592 162.041C134.69 162.004 134.774 161.964 134.844 161.922C134.914 161.88 134.972 161.843 135.019 161.81C135.07 161.773 135.114 161.754 135.152 161.754C135.217 161.754 135.275 161.794 135.327 161.873L135.691 162.468C135.476 162.669 135.217 162.827 134.914 162.944C134.61 163.056 134.298 163.112 133.976 163.112ZM142.647 155.909V163H141.905C141.728 163 141.616 162.914 141.569 162.741L141.471 161.978C141.163 162.319 140.818 162.594 140.435 162.804C140.052 163.009 139.614 163.112 139.119 163.112C138.732 163.112 138.389 163.049 138.09 162.923C137.796 162.792 137.549 162.61 137.348 162.377C137.147 162.144 136.996 161.861 136.893 161.53C136.795 161.199 136.746 160.832 136.746 160.431V155.909H137.992V160.431C137.992 160.968 138.113 161.383 138.356 161.677C138.603 161.971 138.979 162.118 139.483 162.118C139.852 162.118 140.195 162.032 140.512 161.859C140.834 161.682 141.13 161.439 141.401 161.131V155.909H142.647ZM145.806 157.33C146.03 156.845 146.305 156.467 146.632 156.196C146.958 155.921 147.357 155.783 147.829 155.783C147.978 155.783 148.12 155.799 148.256 155.832C148.396 155.865 148.519 155.916 148.627 155.986L148.536 156.917C148.508 157.034 148.438 157.092 148.326 157.092C148.26 157.092 148.165 157.078 148.039 157.05C147.913 157.022 147.77 157.008 147.612 157.008C147.388 157.008 147.187 157.041 147.01 157.106C146.837 157.171 146.681 157.269 146.541 157.4C146.405 157.526 146.282 157.685 146.17 157.876C146.062 158.063 145.964 158.277 145.876 158.52V163H144.623V155.909H145.337C145.472 155.909 145.565 155.935 145.617 155.986C145.668 156.037 145.703 156.126 145.722 156.252L145.806 157.33ZM154.181 158.681C154.181 158.392 154.139 158.128 154.055 157.89C153.976 157.647 153.857 157.44 153.698 157.267C153.544 157.09 153.355 156.954 153.131 156.861C152.907 156.763 152.653 156.714 152.368 156.714C151.771 156.714 151.297 156.889 150.947 157.239C150.602 157.584 150.387 158.065 150.303 158.681H154.181ZM155.189 162.006C155.035 162.193 154.851 162.356 154.636 162.496C154.422 162.631 154.191 162.743 153.943 162.832C153.701 162.921 153.449 162.986 153.187 163.028C152.926 163.075 152.667 163.098 152.41 163.098C151.92 163.098 151.468 163.016 151.052 162.853C150.642 162.685 150.285 162.442 149.981 162.125C149.683 161.803 149.449 161.406 149.281 160.935C149.113 160.464 149.029 159.922 149.029 159.311C149.029 158.816 149.104 158.354 149.253 157.925C149.407 157.496 149.627 157.125 149.911 156.812C150.196 156.495 150.544 156.247 150.954 156.07C151.365 155.888 151.827 155.797 152.34 155.797C152.765 155.797 153.157 155.869 153.516 156.014C153.88 156.154 154.193 156.359 154.454 156.63C154.72 156.896 154.928 157.227 155.077 157.624C155.227 158.016 155.301 158.464 155.301 158.968C155.301 159.164 155.28 159.295 155.238 159.36C155.196 159.425 155.117 159.458 155 159.458H150.261C150.275 159.906 150.336 160.296 150.443 160.627C150.555 160.958 150.709 161.236 150.905 161.46C151.101 161.679 151.335 161.845 151.605 161.957C151.876 162.064 152.179 162.118 152.515 162.118C152.828 162.118 153.096 162.083 153.32 162.013C153.549 161.938 153.745 161.859 153.908 161.775C154.072 161.691 154.207 161.614 154.314 161.544C154.426 161.469 154.522 161.432 154.601 161.432C154.704 161.432 154.783 161.472 154.839 161.551L155.189 162.006ZM160.962 157.078C160.906 157.181 160.819 157.232 160.703 157.232C160.633 157.232 160.553 157.206 160.465 157.155C160.376 157.104 160.266 157.048 160.136 156.987C160.01 156.922 159.858 156.863 159.681 156.812C159.503 156.756 159.293 156.728 159.051 156.728C158.841 156.728 158.652 156.756 158.484 156.812C158.316 156.863 158.171 156.936 158.05 157.029C157.933 157.122 157.842 157.232 157.777 157.358C157.716 157.479 157.686 157.612 157.686 157.757C157.686 157.939 157.737 158.091 157.84 158.212C157.947 158.333 158.087 158.438 158.26 158.527C158.432 158.616 158.628 158.695 158.848 158.765C159.067 158.83 159.291 158.903 159.52 158.982C159.753 159.057 159.979 159.141 160.199 159.234C160.418 159.327 160.614 159.444 160.787 159.584C160.959 159.724 161.097 159.897 161.2 160.102C161.307 160.303 161.361 160.545 161.361 160.83C161.361 161.157 161.302 161.46 161.186 161.74C161.069 162.015 160.896 162.256 160.668 162.461C160.439 162.662 160.159 162.82 159.828 162.937C159.496 163.054 159.114 163.112 158.68 163.112C158.185 163.112 157.737 163.033 157.336 162.874C156.934 162.711 156.594 162.503 156.314 162.251L156.608 161.775C156.645 161.714 156.689 161.668 156.741 161.635C156.792 161.602 156.857 161.586 156.937 161.586C157.021 161.586 157.109 161.619 157.203 161.684C157.296 161.749 157.408 161.822 157.539 161.901C157.674 161.98 157.837 162.053 158.029 162.118C158.22 162.183 158.458 162.216 158.743 162.216C158.985 162.216 159.198 162.186 159.38 162.125C159.562 162.06 159.713 161.973 159.835 161.866C159.956 161.759 160.045 161.635 160.101 161.495C160.161 161.355 160.192 161.206 160.192 161.047C160.192 160.851 160.138 160.69 160.031 160.564C159.928 160.433 159.79 160.324 159.618 160.235C159.445 160.142 159.247 160.062 159.023 159.997C158.803 159.927 158.577 159.855 158.344 159.78C158.115 159.705 157.889 159.621 157.665 159.528C157.445 159.43 157.249 159.309 157.077 159.164C156.904 159.019 156.764 158.842 156.657 158.632C156.554 158.417 156.503 158.158 156.503 157.855C156.503 157.584 156.559 157.325 156.671 157.078C156.783 156.826 156.946 156.607 157.161 156.42C157.375 156.229 157.639 156.077 157.952 155.965C158.264 155.853 158.621 155.797 159.023 155.797C159.489 155.797 159.907 155.872 160.276 156.021C160.649 156.166 160.971 156.366 161.242 156.623L160.962 157.078Z" fill="#B2ADCC"/>
<path d="M104.753 38.0003C97.8811 37.9693 91.043 40.628 86.3037 45.2034C81.7 49.5313 79.0934 55.5597 79.2626 61.588C79.3303 68.1109 82.6478 74.4793 88.0641 78.7145C92.634 82.3316 98.6934 84.3719 104.753 84.3719V74.7575C99.5735 74.7266 94.4619 72.1298 91.9231 67.9872C88.9779 63.4738 89.3165 57.4146 92.7694 53.1792C95.4774 49.686 100.081 47.6456 104.753 47.6147V38.0003Z" fill="#B2ADCC"/>
<path d="M127.806 57.0126H105.091V66.5961H117.346V77.8181H127.806V57.0126Z" fill="#B2ADCC"/>
<path d="M89.1811 105.548C89.1811 106.909 90.3658 107.96 91.8216 107.96C93.3109 107.96 94.4619 106.939 94.4281 105.548H96.7638C96.7638 108.083 94.5973 110 91.8216 110C89.0456 110 86.8791 108.052 86.8791 105.548H89.1811Z" fill="#B2ADCC"/>
<path fill-rule="evenodd" clip-rule="evenodd" d="M96.6961 96.6141V98.2835L96.0192 98.5307C96.5269 99.149 96.7638 99.9837 96.7638 100.818C96.7638 103.353 94.5973 105.27 91.8216 105.27C89.0456 105.27 86.8791 103.323 86.8791 100.818C86.8791 98.2835 89.0456 96.3667 91.8216 96.3667C92.3971 96.3667 92.9726 96.4595 93.4803 96.6141H96.6961ZM89.1811 100.788C89.1811 102.179 90.3658 103.23 91.8216 103.23C93.3109 103.23 94.4959 102.179 94.4619 100.788C94.4619 99.4272 93.3109 98.3762 91.8216 98.3762C90.332 98.3762 89.1811 99.4272 89.1811 100.788Z" fill="#B2ADCC"/>
<path d="M75.3019 104.992H73V93.0589H75.3019V104.992Z" fill="#B2ADCC"/>
<path fill-rule="evenodd" clip-rule="evenodd" d="M76.182 100.818C76.182 98.2835 78.3485 96.3667 81.1243 96.3667C83.9002 96.3667 86.1005 98.2835 86.0667 100.818C86.0667 103.353 83.9002 105.27 81.1243 105.27C78.3485 105.27 76.182 103.323 76.182 100.818ZM78.484 100.788C78.484 102.179 79.6687 103.23 81.1243 103.23C82.6138 103.23 83.7988 102.179 83.7648 100.788C83.7648 99.4272 82.6138 98.3762 81.1243 98.3762C79.6349 98.3762 78.484 99.4272 78.484 100.788Z" fill="#B2ADCC"/>
<path d="M100.014 104.992H97.7117V96.6141H100.014V104.992Z" fill="#B2ADCC"/>
<path d="M123.676 99.4582C123.067 98.8399 122.288 98.3762 121.306 98.3762C119.817 98.3762 118.7 99.4272 118.7 100.788C118.7 102.148 119.851 103.199 121.306 103.199C122.288 103.199 123.1 102.735 123.676 102.117L125.267 103.57C124.353 104.59 122.965 105.239 121.34 105.239C118.564 105.239 116.398 103.292 116.398 100.788C116.398 98.2525 118.564 96.3359 121.34 96.3359C122.965 96.3359 124.387 96.9851 125.267 98.0052L123.676 99.4582Z" fill="#B2ADCC"/>
<path d="M128.415 97.4178C129.092 96.7686 130.074 96.3667 131.191 96.3667C133.358 96.3667 134.949 97.7579 134.982 100.046V104.992H132.68V100.447C132.68 99.149 131.97 98.4071 130.649 98.4071C129.261 98.4071 128.415 99.2417 128.415 100.447V104.992H126.113V93.0589H128.415V97.4178Z" fill="#B2ADCC"/>
<path fill-rule="evenodd" clip-rule="evenodd" d="M106.073 100.849C106.073 98.2835 108.172 96.3667 110.914 96.3667C113.69 96.3667 115.619 98.2835 115.619 101.097V101.591H108.476C108.815 102.704 109.763 103.353 111.015 103.353C112.065 103.353 112.877 102.89 113.622 102.24L115.145 103.632C114.062 104.683 112.606 105.239 110.948 105.239C108.003 105.239 106.073 103.384 106.073 100.849ZM110.846 98.1907C109.627 98.1907 108.713 98.809 108.409 99.9219H113.216C112.945 98.809 112.031 98.1907 110.846 98.1907Z" fill="#B2ADCC"/>
<path fill-rule="evenodd" clip-rule="evenodd" d="M135.219 95.4084C135.389 95.4084 135.524 95.4702 135.524 95.6248C135.524 95.7794 135.456 95.8412 135.355 95.8412L135.558 96.1504H135.422L135.219 95.8412H135.05V96.1504H134.949V95.4084H135.219ZM135.05 95.5012V95.7485H135.219C135.355 95.7485 135.422 95.7175 135.422 95.6248C135.422 95.563 135.355 95.5012 135.219 95.5012H135.05Z" fill="#B2ADCC"/>
<path fill-rule="evenodd" clip-rule="evenodd" d="M134.407 95.7794C134.407 95.4083 134.779 95.0683 135.219 95.0683C135.659 95.0683 136.032 95.4083 135.998 95.7794C135.998 96.1812 135.659 96.5213 135.219 96.5213C134.779 96.5213 134.407 96.1812 134.407 95.7794ZM134.508 95.7794C134.508 96.1504 134.813 96.4286 135.219 96.4286C135.626 96.4286 135.93 96.1504 135.896 95.7794C135.896 95.4393 135.592 95.1611 135.219 95.1611C134.813 95.1611 134.508 95.4393 134.508 95.7794Z" fill="#B2ADCC"/>
<path d="M97.3393 94.2336C97.3393 93.4607 97.9825 92.8425 98.8289 92.8425C99.709 92.8425 100.386 93.4607 100.352 94.2336C100.352 94.9756 99.709 95.5939 98.8289 95.5939C98.0163 95.5939 97.3393 95.0065 97.3393 94.2336Z" fill="#B2ADCC"/>
<path d="M102.214 94.0481H104.516V96.6141H105.768V98.4689H104.516V104.992H102.214V98.4689H100.995V96.6141H102.214V94.0481Z" fill="#B2ADCC"/>
<defs>
<filter id="filter0_d" x="0" y="0" width="208" height="188" filterUnits="userSpaceOnUse" color-interpolation-filters="sRGB">
<feFlood flood-opacity="0" result="BackgroundImageFix"/>
<feColorMatrix in="SourceAlpha" type="matrix" values="0 0 0 0 0 0 0 0 0 0 0 0 0 0 0 0 0 0 127 0"/>
<feOffset dy="4"/>
<feGaussianBlur stdDeviation="2"/>
<feColorMatrix type="matrix" values="0 0 0 0 0 0 0 0 0 0 0 0 0 0 0 0 0 0 0.25 0"/>
<feBlend mode="normal" in2="BackgroundImageFix" result="effect1_dropShadow"/>
<feBlend mode="normal" in="SourceGraphic" in2="effect1_dropShadow" result="shape"/>
</filter>
</defs>
</svg>
