<svg width="208" height="188" viewBox="0 0 208 188" fill="none" xmlns="http://www.w3.org/2000/svg">
<g filter="url(#filter0_d)">
<rect x="4" width="200" height="180" fill="#332E4D"/>
</g>
<path d="M68.5074 154.537C68.4654 154.607 68.421 154.66 68.3744 154.698C68.3277 154.73 68.267 154.747 68.1924 154.747C68.113 154.747 68.0197 154.707 67.9124 154.628C67.8097 154.548 67.6767 154.462 67.5134 154.369C67.3547 154.271 67.161 154.182 66.9324 154.103C66.7084 154.023 66.4354 153.984 66.1134 153.984C65.81 153.984 65.5417 154.026 65.3084 154.11C65.075 154.189 64.879 154.299 64.7204 154.439C64.5664 154.579 64.4497 154.744 64.3704 154.936C64.291 155.122 64.2514 155.325 64.2514 155.545C64.2514 155.825 64.319 156.058 64.4544 156.245C64.5944 156.427 64.7764 156.583 65.0004 156.714C65.229 156.844 65.4857 156.959 65.7704 157.057C66.0597 157.15 66.3537 157.248 66.6524 157.351C66.9557 157.453 67.2497 157.57 67.5344 157.701C67.8237 157.827 68.0804 157.988 68.3044 158.184C68.533 158.38 68.715 158.62 68.8504 158.905C68.9904 159.189 69.0604 159.539 69.0604 159.955C69.0604 160.393 68.9857 160.806 68.8364 161.194C68.687 161.576 68.4677 161.91 68.1784 162.195C67.8937 162.479 67.5414 162.703 67.1214 162.867C66.706 163.03 66.2324 163.112 65.7004 163.112C65.0517 163.112 64.459 162.995 63.9224 162.762C63.3904 162.524 62.9354 162.204 62.5574 161.803L62.9494 161.159C62.9867 161.107 63.031 161.065 63.0824 161.033C63.1384 160.995 63.199 160.977 63.2644 160.977C63.3624 160.977 63.4744 161.03 63.6004 161.138C63.7264 161.24 63.8827 161.355 64.0694 161.481C64.2607 161.607 64.4894 161.723 64.7554 161.831C65.026 161.933 65.355 161.985 65.7424 161.985C66.0644 161.985 66.3514 161.94 66.6034 161.852C66.8554 161.763 67.0677 161.639 67.2404 161.481C67.4177 161.317 67.553 161.124 67.6464 160.9C67.7397 160.676 67.7864 160.426 67.7864 160.151C67.7864 159.847 67.7164 159.6 67.5764 159.409C67.441 159.213 67.2614 159.049 67.0374 158.919C66.8134 158.788 66.5567 158.678 66.2674 158.59C65.9827 158.496 65.6887 158.403 65.3854 158.31C65.0867 158.212 64.7927 158.1 64.5034 157.974C64.2187 157.848 63.9644 157.684 63.7404 157.484C63.5164 157.283 63.3344 157.033 63.1944 156.735C63.059 156.431 62.9914 156.058 62.9914 155.615C62.9914 155.26 63.059 154.917 63.1944 154.586C63.3344 154.254 63.535 153.96 63.7964 153.704C64.0577 153.447 64.3797 153.242 64.7624 153.088C65.1497 152.934 65.593 152.857 66.0924 152.857C66.6524 152.857 67.1634 152.945 67.6254 153.123C68.0874 153.3 68.491 153.557 68.8364 153.893L68.5074 154.537ZM72.7462 163.112C72.1862 163.112 71.7545 162.955 71.4512 162.643C71.1525 162.33 71.0032 161.88 71.0032 161.292V156.952H70.1492C70.0745 156.952 70.0115 156.931 69.9602 156.889C69.9089 156.842 69.8832 156.772 69.8832 156.679V156.182L71.0452 156.035L71.3322 153.844C71.3415 153.774 71.3719 153.718 71.4232 153.676C71.4745 153.629 71.5399 153.606 71.6192 153.606H72.2492V156.049H74.2792V156.952H72.2492V161.208C72.2492 161.506 72.3215 161.728 72.4662 161.873C72.6109 162.017 72.7975 162.09 73.0262 162.09C73.1569 162.09 73.2689 162.073 73.3622 162.041C73.4602 162.003 73.5442 161.964 73.6142 161.922C73.6842 161.88 73.7425 161.842 73.7892 161.81C73.8405 161.772 73.8849 161.754 73.9222 161.754C73.9875 161.754 74.0459 161.793 74.0972 161.873L74.4612 162.468C74.2465 162.668 73.9875 162.827 73.6842 162.944C73.3809 163.056 73.0682 163.112 72.7462 163.112ZM81.0279 163H80.4749C80.3535 163 80.2555 162.981 80.1809 162.944C80.1062 162.906 80.0572 162.827 80.0339 162.706L79.8939 162.048C79.7072 162.216 79.5252 162.367 79.3479 162.503C79.1705 162.633 78.9839 162.745 78.7879 162.839C78.5919 162.927 78.3819 162.995 78.1579 163.042C77.9385 163.088 77.6935 163.112 77.4229 163.112C77.1475 163.112 76.8885 163.074 76.6459 163C76.4079 162.92 76.2002 162.804 76.0229 162.65C75.8455 162.496 75.7032 162.302 75.5959 162.069C75.4932 161.831 75.4419 161.551 75.4419 161.229C75.4419 160.949 75.5189 160.68 75.6729 160.424C75.8269 160.162 76.0742 159.931 76.4149 159.731C76.7602 159.53 77.2105 159.367 77.7659 159.241C78.3212 159.11 79.0002 159.035 79.8029 159.017V158.464C79.8029 157.913 79.6839 157.498 79.4459 157.218C79.2125 156.933 78.8649 156.791 78.4029 156.791C78.0995 156.791 77.8429 156.83 77.6329 156.91C77.4275 156.984 77.2479 157.071 77.0939 157.169C76.9445 157.262 76.8139 157.348 76.7019 157.428C76.5945 157.502 76.4872 157.54 76.3799 157.54C76.2959 157.54 76.2212 157.519 76.1559 157.477C76.0952 157.43 76.0462 157.374 76.0089 157.309L75.7849 156.91C76.1769 156.532 76.5992 156.249 77.0519 156.063C77.5045 155.876 78.0062 155.783 78.5569 155.783C78.9535 155.783 79.3059 155.848 79.6139 155.979C79.9219 156.109 80.1809 156.291 80.3909 156.525C80.6009 156.758 80.7595 157.04 80.8669 157.372C80.9742 157.703 81.0279 158.067 81.0279 158.464V163ZM77.7939 162.237C78.0132 162.237 78.2139 162.216 78.3959 162.174C78.5779 162.127 78.7482 162.064 78.9069 161.985C79.0702 161.901 79.2242 161.8 79.3689 161.684C79.5182 161.567 79.6629 161.434 79.8029 161.285V159.808C79.2289 159.826 78.7412 159.873 78.3399 159.948C77.9385 160.018 77.6119 160.111 77.3599 160.228C77.1079 160.344 76.9235 160.482 76.8069 160.641C76.6949 160.799 76.6389 160.977 76.6389 161.173C76.6389 161.359 76.6692 161.52 76.7299 161.656C76.7905 161.791 76.8722 161.903 76.9749 161.992C77.0775 162.076 77.1989 162.139 77.3389 162.181C77.4789 162.218 77.6305 162.237 77.7939 162.237ZM85.0646 163.112C84.5046 163.112 84.0729 162.955 83.7696 162.643C83.4709 162.33 83.3216 161.88 83.3216 161.292V156.952H82.4676C82.3929 156.952 82.3299 156.931 82.2786 156.889C82.2272 156.842 82.2016 156.772 82.2016 156.679V156.182L83.3636 156.035L83.6506 153.844C83.6599 153.774 83.6902 153.718 83.7416 153.676C83.7929 153.629 83.8582 153.606 83.9376 153.606H84.5676V156.049H86.5976V156.952H84.5676V161.208C84.5676 161.506 84.6399 161.728 84.7846 161.873C84.9292 162.017 85.1159 162.09 85.3446 162.09C85.4752 162.09 85.5872 162.073 85.6806 162.041C85.7786 162.003 85.8626 161.964 85.9326 161.922C86.0026 161.88 86.0609 161.842 86.1076 161.81C86.1589 161.772 86.2032 161.754 86.2406 161.754C86.3059 161.754 86.3642 161.793 86.4156 161.873L86.7796 162.468C86.5649 162.668 86.3059 162.827 86.0026 162.944C85.6992 163.056 85.3866 163.112 85.0646 163.112ZM89.5242 155.909V163H88.2782V155.909H89.5242ZM89.8042 153.683C89.8042 153.804 89.7785 153.918 89.7272 154.026C89.6805 154.128 89.6152 154.222 89.5312 154.306C89.4519 154.385 89.3585 154.448 89.2512 154.495C89.1439 154.541 89.0295 154.565 88.9082 154.565C88.7869 154.565 88.6725 154.541 88.5652 154.495C88.4625 154.448 88.3692 154.385 88.2852 154.306C88.2059 154.222 88.1429 154.128 88.0962 154.026C88.0495 153.918 88.0262 153.804 88.0262 153.683C88.0262 153.561 88.0495 153.447 88.0962 153.34C88.1429 153.228 88.2059 153.132 88.2852 153.053C88.3692 152.969 88.4625 152.903 88.5652 152.857C88.6725 152.81 88.7869 152.787 88.9082 152.787C89.0295 152.787 89.1439 152.81 89.2512 152.857C89.3585 152.903 89.4519 152.969 89.5312 153.053C89.6152 153.132 89.6805 153.228 89.7272 153.34C89.7785 153.447 89.8042 153.561 89.8042 153.683ZM95.7802 157.078C95.7242 157.18 95.6379 157.232 95.5212 157.232C95.4512 157.232 95.3719 157.206 95.2832 157.155C95.1946 157.103 95.0849 157.047 94.9542 156.987C94.8282 156.921 94.6766 156.863 94.4992 156.812C94.3219 156.756 94.1119 156.728 93.8692 156.728C93.6592 156.728 93.4702 156.756 93.3022 156.812C93.1342 156.863 92.9896 156.935 92.8682 157.029C92.7516 157.122 92.6606 157.232 92.5952 157.358C92.5346 157.479 92.5042 157.612 92.5042 157.757C92.5042 157.939 92.5556 158.09 92.6582 158.212C92.7656 158.333 92.9056 158.438 93.0782 158.527C93.2509 158.615 93.4469 158.695 93.6662 158.765C93.8856 158.83 94.1096 158.902 94.3382 158.982C94.5716 159.056 94.7979 159.14 95.0172 159.234C95.2366 159.327 95.4326 159.444 95.6052 159.584C95.7779 159.724 95.9156 159.896 96.0182 160.102C96.1256 160.302 96.1792 160.545 96.1792 160.83C96.1792 161.156 96.1209 161.46 96.0042 161.74C95.8876 162.015 95.7149 162.255 95.4862 162.461C95.2576 162.661 94.9776 162.82 94.6462 162.937C94.3149 163.053 93.9322 163.112 93.4982 163.112C93.0036 163.112 92.5556 163.032 92.1542 162.874C91.7529 162.71 91.4122 162.503 91.1322 162.251L91.4262 161.775C91.4636 161.714 91.5079 161.667 91.5592 161.635C91.6106 161.602 91.6782 161.586 91.7622 161.586C91.8462 161.586 91.9349 161.618 92.0282 161.684C92.1216 161.749 92.2336 161.821 92.3642 161.901C92.4996 161.98 92.6606 162.052 92.8472 162.118C93.0386 162.183 93.2766 162.216 93.5612 162.216C93.8039 162.216 94.0162 162.185 94.1982 162.125C94.3802 162.059 94.5319 161.973 94.6532 161.866C94.7746 161.758 94.8632 161.635 94.9192 161.495C94.9799 161.355 95.0102 161.205 95.0102 161.047C95.0102 160.851 94.9566 160.69 94.8492 160.564C94.7466 160.433 94.6089 160.323 94.4362 160.235C94.2636 160.141 94.0652 160.062 93.8412 159.997C93.6219 159.927 93.3956 159.854 93.1622 159.78C92.9336 159.705 92.7072 159.621 92.4832 159.528C92.2639 159.43 92.0679 159.308 91.8952 159.164C91.7226 159.019 91.5826 158.842 91.4752 158.632C91.3726 158.417 91.3212 158.158 91.3212 157.855C91.3212 157.584 91.3772 157.325 91.4892 157.078C91.6012 156.826 91.7646 156.606 91.9792 156.42C92.1939 156.228 92.4576 156.077 92.7702 155.965C93.0829 155.853 93.4399 155.797 93.8412 155.797C94.3079 155.797 94.7256 155.871 95.0942 156.021C95.4676 156.165 95.7896 156.366 96.0602 156.623L95.7802 157.078ZM99.9396 163.112C99.3796 163.112 98.9479 162.955 98.6446 162.643C98.3459 162.33 98.1966 161.88 98.1966 161.292V156.952H97.3426C97.2679 156.952 97.2049 156.931 97.1536 156.889C97.1022 156.842 97.0766 156.772 97.0766 156.679V156.182L98.2386 156.035L98.5256 153.844C98.5349 153.774 98.5652 153.718 98.6166 153.676C98.6679 153.629 98.7332 153.606 98.8126 153.606H99.4426V156.049H101.473V156.952H99.4426V161.208C99.4426 161.506 99.5149 161.728 99.6596 161.873C99.8042 162.017 99.9909 162.09 100.22 162.09C100.35 162.09 100.462 162.073 100.556 162.041C100.654 162.003 100.738 161.964 100.808 161.922C100.878 161.88 100.936 161.842 100.983 161.81C101.034 161.772 101.078 161.754 101.116 161.754C101.181 161.754 101.239 161.793 101.291 161.873L101.655 162.468C101.44 162.668 101.181 162.827 100.878 162.944C100.574 163.056 100.262 163.112 99.9396 163.112ZM104.399 155.909V163H103.153V155.909H104.399ZM104.679 153.683C104.679 153.804 104.654 153.918 104.602 154.026C104.556 154.128 104.49 154.222 104.406 154.306C104.327 154.385 104.234 154.448 104.126 154.495C104.019 154.541 103.905 154.565 103.783 154.565C103.662 154.565 103.548 154.541 103.44 154.495C103.338 154.448 103.244 154.385 103.16 154.306C103.081 154.222 103.018 154.128 102.971 154.026C102.925 153.918 102.901 153.804 102.901 153.683C102.901 153.561 102.925 153.447 102.971 153.34C103.018 153.228 103.081 153.132 103.16 153.053C103.244 152.969 103.338 152.903 103.44 152.857C103.548 152.81 103.662 152.787 103.783 152.787C103.905 152.787 104.019 152.81 104.126 152.857C104.234 152.903 104.327 152.969 104.406 153.053C104.49 153.132 104.556 153.228 104.602 153.34C104.654 153.447 104.679 153.561 104.679 153.683ZM111.432 157.169C111.395 157.22 111.358 157.26 111.32 157.288C111.283 157.316 111.229 157.33 111.159 157.33C111.089 157.33 111.012 157.302 110.928 157.246C110.849 157.185 110.746 157.12 110.62 157.05C110.494 156.98 110.34 156.917 110.158 156.861C109.981 156.8 109.762 156.77 109.5 156.77C109.155 156.77 108.849 156.833 108.583 156.959C108.317 157.08 108.093 157.257 107.911 157.491C107.734 157.724 107.599 158.006 107.505 158.338C107.417 158.669 107.372 159.04 107.372 159.451C107.372 159.88 107.421 160.263 107.519 160.599C107.617 160.93 107.755 161.21 107.932 161.439C108.11 161.663 108.324 161.835 108.576 161.957C108.833 162.073 109.12 162.132 109.437 162.132C109.741 162.132 109.99 162.097 110.186 162.027C110.382 161.952 110.546 161.87 110.676 161.782C110.807 161.693 110.914 161.614 110.998 161.544C111.082 161.469 111.166 161.432 111.25 161.432C111.358 161.432 111.437 161.471 111.488 161.551L111.838 162.006C111.53 162.384 111.145 162.661 110.683 162.839C110.221 163.011 109.734 163.098 109.22 163.098C108.777 163.098 108.364 163.016 107.981 162.853C107.603 162.689 107.274 162.454 106.994 162.146C106.714 161.833 106.493 161.45 106.329 160.998C106.171 160.545 106.091 160.029 106.091 159.451C106.091 158.923 106.164 158.436 106.308 157.988C106.458 157.54 106.672 157.155 106.952 156.833C107.237 156.506 107.587 156.252 108.002 156.07C108.418 155.888 108.894 155.797 109.43 155.797C109.925 155.797 110.364 155.878 110.746 156.042C111.129 156.2 111.467 156.427 111.761 156.721L111.432 157.169ZM117.19 157.078C117.134 157.18 117.048 157.232 116.931 157.232C116.861 157.232 116.782 157.206 116.693 157.155C116.605 157.103 116.495 157.047 116.364 156.987C116.238 156.921 116.087 156.863 115.909 156.812C115.732 156.756 115.522 156.728 115.279 156.728C115.069 156.728 114.88 156.756 114.712 156.812C114.544 156.863 114.4 156.935 114.278 157.029C114.162 157.122 114.071 157.232 114.005 157.358C113.945 157.479 113.914 157.612 113.914 157.757C113.914 157.939 113.966 158.09 114.068 158.212C114.176 158.333 114.316 158.438 114.488 158.527C114.661 158.615 114.857 158.695 115.076 158.765C115.296 158.83 115.52 158.902 115.748 158.982C115.982 159.056 116.208 159.14 116.427 159.234C116.647 159.327 116.843 159.444 117.015 159.584C117.188 159.724 117.326 159.896 117.428 160.102C117.536 160.302 117.589 160.545 117.589 160.83C117.589 161.156 117.531 161.46 117.414 161.74C117.298 162.015 117.125 162.255 116.896 162.461C116.668 162.661 116.388 162.82 116.056 162.937C115.725 163.053 115.342 163.112 114.908 163.112C114.414 163.112 113.966 163.032 113.564 162.874C113.163 162.71 112.822 162.503 112.542 162.251L112.836 161.775C112.874 161.714 112.918 161.667 112.969 161.635C113.021 161.602 113.088 161.586 113.172 161.586C113.256 161.586 113.345 161.618 113.438 161.684C113.532 161.749 113.644 161.821 113.774 161.901C113.91 161.98 114.071 162.052 114.257 162.118C114.449 162.183 114.687 162.216 114.971 162.216C115.214 162.216 115.426 162.185 115.608 162.125C115.79 162.059 115.942 161.973 116.063 161.866C116.185 161.758 116.273 161.635 116.329 161.495C116.39 161.355 116.42 161.205 116.42 161.047C116.42 160.851 116.367 160.69 116.259 160.564C116.157 160.433 116.019 160.323 115.846 160.235C115.674 160.141 115.475 160.062 115.251 159.997C115.032 159.927 114.806 159.854 114.572 159.78C114.344 159.705 114.117 159.621 113.893 159.528C113.674 159.43 113.478 159.308 113.305 159.164C113.133 159.019 112.993 158.842 112.885 158.632C112.783 158.417 112.731 158.158 112.731 157.855C112.731 157.584 112.787 157.325 112.899 157.078C113.011 156.826 113.175 156.606 113.389 156.42C113.604 156.228 113.868 156.077 114.18 155.965C114.493 155.853 114.85 155.797 115.251 155.797C115.718 155.797 116.136 155.871 116.504 156.021C116.878 156.165 117.2 156.366 117.47 156.623L117.19 157.078ZM130.357 163H129.307C129.185 163 129.087 162.969 129.013 162.909C128.938 162.848 128.882 162.771 128.845 162.678L127.907 160.256H123.406L122.468 162.678C122.435 162.762 122.379 162.836 122.3 162.902C122.22 162.967 122.122 163 122.006 163H120.956L124.967 152.969H126.346L130.357 163ZM123.784 159.276H127.529L125.954 155.195C125.851 154.943 125.751 154.628 125.653 154.25C125.601 154.441 125.55 154.618 125.499 154.782C125.452 154.94 125.405 155.08 125.359 155.202L123.784 159.276ZM131.423 165.401V155.909H132.165C132.343 155.909 132.455 155.995 132.501 156.168L132.606 157.008C132.91 156.639 133.255 156.343 133.642 156.119C134.034 155.895 134.485 155.783 134.993 155.783C135.399 155.783 135.768 155.862 136.099 156.021C136.431 156.175 136.713 156.406 136.946 156.714C137.18 157.017 137.359 157.395 137.485 157.848C137.611 158.3 137.674 158.821 137.674 159.409C137.674 159.931 137.604 160.419 137.464 160.872C137.324 161.32 137.124 161.709 136.862 162.041C136.601 162.367 136.279 162.626 135.896 162.818C135.518 163.004 135.091 163.098 134.615 163.098C134.177 163.098 133.801 163.025 133.488 162.881C133.18 162.736 132.907 162.531 132.669 162.265V165.401H131.423ZM134.58 156.791C134.174 156.791 133.817 156.884 133.509 157.071C133.206 157.257 132.926 157.521 132.669 157.862V161.292C132.898 161.6 133.148 161.817 133.418 161.943C133.694 162.069 133.999 162.132 134.335 162.132C134.993 162.132 135.5 161.896 135.854 161.425C136.209 160.953 136.386 160.281 136.386 159.409C136.386 158.947 136.344 158.55 136.26 158.219C136.181 157.887 136.064 157.617 135.91 157.407C135.756 157.192 135.567 157.036 135.343 156.938C135.119 156.84 134.865 156.791 134.58 156.791ZM139.148 165.401V155.909H139.89C140.067 155.909 140.179 155.995 140.226 156.168L140.331 157.008C140.634 156.639 140.98 156.343 141.367 156.119C141.759 155.895 142.209 155.783 142.718 155.783C143.124 155.783 143.493 155.862 143.824 156.021C144.155 156.175 144.438 156.406 144.671 156.714C144.904 157.017 145.084 157.395 145.21 157.848C145.336 158.3 145.399 158.821 145.399 159.409C145.399 159.931 145.329 160.419 145.189 160.872C145.049 161.32 144.848 161.709 144.587 162.041C144.326 162.367 144.004 162.626 143.621 162.818C143.243 163.004 142.816 163.098 142.34 163.098C141.901 163.098 141.526 163.025 141.213 162.881C140.905 162.736 140.632 162.531 140.394 162.265V165.401H139.148ZM142.305 156.791C141.899 156.791 141.542 156.884 141.234 157.071C140.931 157.257 140.651 157.521 140.394 157.862V161.292C140.623 161.6 140.872 161.817 141.143 161.943C141.418 162.069 141.724 162.132 142.06 162.132C142.718 162.132 143.224 161.896 143.579 161.425C143.934 160.953 144.111 160.281 144.111 159.409C144.111 158.947 144.069 158.55 143.985 158.219C143.906 157.887 143.789 157.617 143.635 157.407C143.481 157.192 143.292 157.036 143.068 156.938C142.844 156.84 142.59 156.791 142.305 156.791Z" fill="#B2ADCC"/>
<g clip-path="url(#clip0)">
<path d="M119.436 67.6063C118.819 68.6826 118.214 69.7417 117.605 70.8007C117.307 70.6019 117.012 70.3987 116.71 70.2085C115.925 69.7158 115.071 69.4305 114.171 69.3008C113.346 69.1841 112.52 69.1668 111.703 69.3786C109.843 69.8541 108.621 71.2892 108.338 73.3036C108.2 74.3151 108.232 75.3093 108.547 76.2776C108.984 77.6263 109.847 78.5513 111.11 79.0527C112.173 79.472 113.264 79.5196 114.376 79.3207C114.985 79.2127 115.574 79.0268 116.125 78.7372C116.187 78.7026 116.256 78.6075 116.256 78.5383C116.264 77.7041 116.26 76.8655 116.26 76.0009C114.924 76.0009 113.595 76.0009 112.254 76.0009C112.254 74.9073 112.254 73.8439 112.254 72.7632C114.85 72.7632 117.45 72.7632 120.07 72.7632C120.074 72.8238 120.082 72.8929 120.082 72.9621C120.082 75.5557 120.082 78.1493 120.082 80.7429C120.082 80.8596 120.074 80.9504 119.964 81.0369C119.032 81.7717 117.981 82.2645 116.886 82.6492C115.455 83.155 113.988 83.4532 112.475 83.3841C110.382 83.2846 108.465 82.6362 106.851 81.1838C105.449 79.9216 104.602 78.3092 104.243 76.4029C104.1 75.6551 104.03 74.8986 104.047 74.1335C104.079 72.707 104.337 71.3281 104.95 70.0486C105.821 68.2288 107.165 66.9233 108.935 66.1063C109.965 65.6308 111.04 65.3801 112.156 65.2937C113.595 65.1813 115.001 65.3628 116.367 65.8383C117.482 66.2274 118.5 66.8152 119.436 67.6063Z" fill="#B2ADCC"/>
<path d="M136.604 67.602C135.991 68.674 135.378 69.7374 134.773 70.7964C134.409 70.5587 134.066 70.3036 133.694 70.0962C132.786 69.5861 131.814 69.3137 130.783 69.2446C130.039 69.197 129.308 69.2316 128.588 69.4607C127.391 69.8454 126.463 70.5889 125.948 71.7993C125.188 73.5889 125.204 75.3914 126.091 77.1378C126.565 78.0715 127.329 78.6853 128.265 79.0484C129.598 79.5671 130.947 79.5412 132.3 79.1349C132.643 79.0311 132.97 78.8755 133.301 78.7285C133.359 78.7026 133.428 78.6118 133.428 78.547C133.436 77.7041 133.432 76.8611 133.432 75.9966C132.096 75.9966 130.771 75.9966 129.43 75.9966C129.43 74.9073 129.43 73.8396 129.43 72.7546C132.026 72.7546 134.622 72.7546 137.242 72.7546C137.246 72.8324 137.25 72.9059 137.25 72.9837C137.25 75.5643 137.25 78.1407 137.25 80.7213C137.25 80.8423 137.242 80.9418 137.127 81.0325C136.199 81.7631 135.157 82.2558 134.07 82.6362C132.664 83.1334 131.229 83.4316 129.741 83.3754C127.616 83.2976 125.674 82.6492 124.031 81.1838C122.813 80.0988 122.003 78.7199 121.57 77.0946C121.308 76.122 121.194 75.1278 121.214 74.1162C121.247 72.6898 121.505 71.3108 122.122 70.0356C123.066 68.0818 124.529 66.7331 126.463 65.9421C127.816 65.3888 129.218 65.1942 130.653 65.2634C131.961 65.3282 133.224 65.6351 134.425 66.2014C135.206 66.5732 135.917 67.0443 136.604 67.602Z" fill="#B2ADCC"/>
<path d="M66.0156 74.4707C66.0197 72.7676 66.3426 71.2676 67.058 69.8714C67.7978 68.4276 68.8401 67.2907 70.1931 66.4694C71.3418 65.7735 72.5762 65.3974 73.8924 65.2937C75.6828 65.1553 77.375 65.5228 78.9406 66.4478C80.1832 67.1827 81.1765 68.2071 81.9163 69.4996C82.5826 70.6624 82.975 71.929 83.1099 73.2733C83.2407 74.5701 83.1385 75.8496 82.7829 77.1075C82.3292 78.7069 81.5117 80.0642 80.3304 81.1665C79.2308 82.191 77.9555 82.8524 76.5207 83.1723C75.4089 83.423 74.293 83.4532 73.1648 83.276C71.7832 83.0599 70.5324 82.5152 69.4083 81.655C68.4437 80.9158 67.6793 79.9864 67.1029 78.8842C66.3672 77.475 66.0197 75.9577 66.0156 74.4707ZM74.6077 79.3294C74.8162 79.3121 75.0288 79.2991 75.2372 79.2689C76.8763 79.0355 78.0536 78.119 78.7321 76.524C79.1613 75.5168 79.2512 74.4534 79.0714 73.3641C78.8547 72.037 78.2702 70.9391 77.2115 70.174C76.1978 69.4434 75.0655 69.2273 73.8515 69.4175C72.8542 69.5731 71.9917 70.0227 71.3131 70.8051C70.1931 72.0932 69.8539 73.6321 70.1318 75.3266C70.5161 77.7214 72.3269 79.3251 74.6077 79.3294Z" fill="#B2ADCC"/>
<path d="M89.0901 78.4562C89.0901 79.2602 89.0901 80.0297 89.0901 80.7991C89.0901 81.5642 89.0901 82.325 89.0901 83.1074C87.7452 83.1074 86.4086 83.1074 85.0515 83.1074C85.0515 77.2632 85.0515 71.4102 85.0515 65.5271C85.1087 65.5271 85.1741 65.5271 85.2395 65.5271C88.0314 65.5271 90.8273 65.4968 93.6191 65.54C95.2378 65.5617 96.693 66.1236 97.8498 67.3772C98.6141 68.2071 99.0719 69.2143 99.26 70.3469C99.3622 70.9564 99.4316 71.5875 99.4194 72.2056C99.3908 73.7575 98.9452 75.158 97.9519 76.3381C97.0322 77.4274 95.8754 78.0672 94.5306 78.3222C94.081 78.4087 93.615 78.4432 93.1572 78.4519C91.8819 78.4692 90.6106 78.4562 89.3353 78.4562C89.2617 78.4562 89.1882 78.4562 89.0901 78.4562ZM89.1391 74.6868C90.349 74.6868 91.5303 74.6868 92.7157 74.6868C92.8057 74.6868 92.8956 74.6912 92.9814 74.6782C93.9829 74.5183 94.735 73.9822 95.0375 72.9362C95.3522 71.8512 95.2133 70.8267 94.4244 69.9838C93.8848 69.4088 93.1899 69.2662 92.4582 69.2619C91.4241 69.2532 90.3899 69.2619 89.3557 69.2619C89.2822 69.2619 89.2127 69.2662 89.1391 69.2705C89.1391 71.0904 89.1391 72.88 89.1391 74.6868Z" fill="#B2ADCC"/>
<path d="M101.075 83.4792C100.257 83.4619 99.5829 83.289 99.0842 82.6579C98.794 82.2948 98.6673 81.8582 98.6223 81.3956C98.561 80.7991 98.6305 80.2155 98.9044 79.6882C99.2068 79.1003 99.7014 78.7588 100.315 78.6291C100.924 78.4994 101.537 78.5124 102.117 78.7631C102.698 79.0138 103.102 79.4504 103.29 80.0988C103.499 80.8164 103.495 81.521 103.2 82.2126C102.886 82.9518 102.301 83.289 101.586 83.423C101.39 83.4619 101.193 83.4662 101.075 83.4792Z" fill="#B2ADCC"/>
</g>
<defs>
<filter id="filter0_d" x="0" y="0" width="208" height="188" filterUnits="userSpaceOnUse" color-interpolation-filters="sRGB">
<feFlood flood-opacity="0" result="BackgroundImageFix"/>
<feColorMatrix in="SourceAlpha" type="matrix" values="0 0 0 0 0 0 0 0 0 0 0 0 0 0 0 0 0 0 127 0"/>
<feOffset dy="4"/>
<feGaussianBlur stdDeviation="2"/>
<feColorMatrix type="matrix" values="0 0 0 0 0 0 0 0 0 0 0 0 0 0 0 0 0 0 0.25 0"/>
<feBlend mode="normal" in2="BackgroundImageFix" result="effect1_dropShadow"/>
<feBlend mode="normal" in="SourceGraphic" in2="effect1_dropShadow" result="shape"/>
</filter>
<clipPath id="clip0">
<rect width="90" height="90" fill="white" transform="translate(59 29)"/>
</clipPath>
</defs>
</svg>
