<svg width="208" height="188" viewBox="0 0 208 188" fill="none" xmlns="http://www.w3.org/2000/svg">
<g filter="url(#filter0_d)">
<rect x="4.00098" width="200" height="180" fill="#332E4D"/>
</g>
<path d="M131.962 77.3063C131.962 75.1917 131.02 73.5471 129.059 72.6072C128.745 72.4506 128.51 72.294 128.431 71.9024C127.725 68.0648 126.234 64.6188 123.959 61.4861C123.802 61.3295 123.567 61.1728 123.724 60.9379C124.665 59.6848 123.645 58.9799 122.939 58.1967C114.936 50.4433 105.443 48.172 94.7725 51.4614C90.3004 52.8711 86.5344 55.4556 83.396 58.9016C82.9253 59.3715 82.6899 59.9197 83.0822 60.468C83.396 60.9379 83.2391 61.1728 82.9253 61.4861C80.7284 64.5405 79.2377 67.9865 78.5316 71.6674C78.4531 72.1373 78.2178 72.3723 77.8255 72.5289C76.2563 73.3121 75.3148 74.5652 75.0794 76.2882C74.9225 77.3063 75.0794 78.3244 75.001 79.2643C75.001 80.1258 75.001 80.8306 75.001 81.6138C75.001 85.0598 77.3547 87.2527 80.8069 87.0961C81.6699 87.0177 82.1407 86.6261 82.1407 85.843C82.2191 83.5717 82.2191 81.3005 82.2191 79.1076C82.2191 76.6798 82.1407 74.2519 82.6114 71.8241C85.2006 58.0401 101.049 50.5216 113.446 57.3352C120.821 61.4078 124.665 67.7515 124.822 76.2099C124.9 79.3426 124.822 82.4753 124.822 85.608C124.822 86.3912 125.057 87.0177 125.842 87.1744C128.51 87.7226 131.334 85.843 131.805 83.1018C132.119 81.1439 131.962 79.2643 131.962 77.3063ZM108.424 90.8553C108.895 90.9336 109.366 91.0119 109.915 91.0903C111.327 91.2469 112.818 91.4819 114.23 91.5602C116.192 91.6385 117.682 91.012 118.781 89.8372C120.115 88.3491 120.742 86.6261 120.664 84.7465C120.585 82.7886 118.859 81.6921 116.584 82.0837C114.544 82.4753 112.739 83.2585 110.856 83.9633C109.209 84.5899 107.718 85.3731 106.541 86.4695C104.815 88.1142 105.757 90.1505 108.424 90.8553ZM101.991 88.4275C102.069 87.9576 101.991 87.4876 101.912 87.0961C101.755 86.6261 101.52 86.2346 101.206 85.843C100.108 84.1983 98.6954 82.7102 97.2047 81.4572C96.4201 80.7523 95.5571 80.1258 94.694 79.5775C92.811 78.2461 91.2419 77.4629 91.2419 77.4629C88.9666 76.2882 86.8482 77.4629 86.299 80.0474C85.6713 82.9452 86.1421 85.7646 87.7897 88.2708C88.8881 89.9938 90.5357 90.8553 92.5756 91.0119C93.831 91.1686 95.0863 91.1686 96.3417 91.3252C97.3616 91.3252 98.3816 91.4035 99.4015 91.0903C100.735 90.6204 101.755 89.8372 101.991 88.4275ZM125.057 90.8553C124.744 90.6204 124.273 90.777 124.116 91.1686C123.959 91.6385 123.724 92.4217 123.331 93.2832C122.468 95.3978 121.134 97.1208 119.565 98.5305C117.604 100.41 115.172 101.663 112.896 102.603C112.347 102.838 111.719 103.073 111.17 103.23C110.778 103.386 110.464 103.465 110.072 103.543C109.915 103.621 109.758 103.621 109.523 103.699C109.209 103.778 108.817 103.856 108.503 103.934C108.503 103.934 108.503 103.934 108.424 103.934C108.267 103.934 108.11 104.013 107.953 104.013C107.953 104.013 107.953 104.013 107.875 104.013C107.561 104.091 107.247 104.169 106.934 104.248H106.855C106.698 104.248 106.62 104.326 106.463 104.326C106.463 104.326 106.463 104.326 106.384 104.326C106.07 104.404 105.835 104.404 105.6 104.483H105.521C105.443 104.483 105.286 104.483 105.207 104.561C105.207 104.561 105.207 104.561 105.129 104.561C104.972 104.561 104.894 104.561 104.815 104.639C104.737 104.639 104.58 104.639 104.501 104.718C104.501 104.718 104.501 104.718 104.423 104.718C104.344 104.718 104.266 104.718 104.109 104.718C103.324 104.796 102.932 104.796 102.854 104.874C93.1249 105.892 105.286 108.007 114.466 106.441H114.544C114.779 106.441 114.936 106.362 115.172 106.284C115.329 106.284 115.564 106.206 115.721 106.127C115.878 106.127 116.035 106.049 116.113 106.049C116.192 106.049 116.27 105.971 116.349 105.971C117.604 105.657 118.702 105.266 119.644 104.796C125.293 102.055 125.842 97.5123 125.842 97.5123C125.999 96.6508 126.156 95.6327 126.077 94.5363C126.313 93.2832 125.764 91.4819 125.057 90.8553Z" fill="#B2ADCC"/>
<path d="M76.5763 157.988C76.5763 158.739 76.4573 159.43 76.2193 160.06C75.9813 160.685 75.6453 161.224 75.2113 161.677C74.7773 162.13 74.2547 162.482 73.6433 162.734C73.0367 162.981 72.3647 163.105 71.6273 163.105C70.89 163.105 70.218 162.981 69.6113 162.734C69.0047 162.482 68.4843 162.13 68.0503 161.677C67.6163 161.224 67.2803 160.685 67.0423 160.06C66.8043 159.43 66.6853 158.739 66.6853 157.988C66.6853 157.237 66.8043 156.548 67.0423 155.923C67.2803 155.293 67.6163 154.752 68.0503 154.299C68.4843 153.842 69.0047 153.487 69.6113 153.235C70.218 152.983 70.89 152.857 71.6273 152.857C72.3647 152.857 73.0367 152.983 73.6433 153.235C74.2547 153.487 74.7773 153.842 75.2113 154.299C75.6453 154.752 75.9813 155.293 76.2193 155.923C76.4573 156.548 76.5763 157.237 76.5763 157.988ZM75.1833 157.988C75.1833 157.372 75.0993 156.819 74.9313 156.329C74.7633 155.839 74.5253 155.426 74.2173 155.09C73.9093 154.749 73.536 154.488 73.0973 154.306C72.6587 154.124 72.1687 154.033 71.6273 154.033C71.0907 154.033 70.603 154.124 70.1643 154.306C69.7257 154.488 69.35 154.749 69.0373 155.09C68.7293 155.426 68.4913 155.839 68.3233 156.329C68.1553 156.819 68.0713 157.372 68.0713 157.988C68.0713 158.604 68.1553 159.157 68.3233 159.647C68.4913 160.132 68.7293 160.545 69.0373 160.886C69.35 161.222 69.7257 161.481 70.1643 161.663C70.603 161.84 71.0907 161.929 71.6273 161.929C72.1687 161.929 72.6587 161.84 73.0973 161.663C73.536 161.481 73.9093 161.222 74.2173 160.886C74.5253 160.545 74.7633 160.132 74.9313 159.647C75.0993 159.157 75.1833 158.604 75.1833 157.988ZM84.2739 155.909L81.3829 163H80.2629L77.3719 155.909H78.3869C78.4896 155.909 78.5736 155.935 78.6389 155.986C78.7043 156.037 78.7486 156.098 78.7719 156.168L80.5709 160.732C80.6269 160.905 80.6759 161.073 80.7179 161.236C80.7599 161.399 80.7996 161.563 80.8369 161.726C80.8743 161.563 80.9139 161.399 80.9559 161.236C80.9979 161.073 81.0493 160.905 81.1099 160.732L82.9299 156.168C82.9579 156.093 83.0046 156.033 83.0699 155.986C83.1353 155.935 83.2123 155.909 83.3009 155.909H84.2739ZM89.9713 158.681C89.9713 158.392 89.9293 158.128 89.8453 157.89C89.7659 157.647 89.6469 157.44 89.4883 157.267C89.3343 157.09 89.1453 156.954 88.9213 156.861C88.6973 156.763 88.4429 156.714 88.1583 156.714C87.5609 156.714 87.0873 156.889 86.7373 157.239C86.3919 157.584 86.1773 158.065 86.0933 158.681H89.9713ZM90.9793 162.006C90.8253 162.193 90.6409 162.356 90.4263 162.496C90.2116 162.631 89.9806 162.743 89.7333 162.832C89.4906 162.921 89.2386 162.986 88.9773 163.028C88.7159 163.075 88.4569 163.098 88.2003 163.098C87.7103 163.098 87.2576 163.016 86.8423 162.853C86.4316 162.685 86.0746 162.442 85.7713 162.125C85.4726 161.803 85.2393 161.406 85.0713 160.935C84.9033 160.464 84.8193 159.922 84.8193 159.311C84.8193 158.816 84.8939 158.354 85.0433 157.925C85.1973 157.496 85.4166 157.125 85.7013 156.812C85.9859 156.495 86.3336 156.247 86.7443 156.07C87.1549 155.888 87.6169 155.797 88.1303 155.797C88.5549 155.797 88.9469 155.869 89.3063 156.014C89.6703 156.154 89.9829 156.359 90.2443 156.63C90.5103 156.896 90.7179 157.227 90.8673 157.624C91.0166 158.016 91.0913 158.464 91.0913 158.968C91.0913 159.164 91.0703 159.295 91.0283 159.36C90.9863 159.425 90.9069 159.458 90.7903 159.458H86.0513C86.0653 159.906 86.1259 160.296 86.2333 160.627C86.3453 160.958 86.4993 161.236 86.6953 161.46C86.8913 161.679 87.1246 161.845 87.3953 161.957C87.6659 162.064 87.9693 162.118 88.3053 162.118C88.6179 162.118 88.8863 162.083 89.1103 162.013C89.3389 161.938 89.5349 161.859 89.6983 161.775C89.8616 161.691 89.9969 161.614 90.1043 161.544C90.2163 161.469 90.3119 161.432 90.3913 161.432C90.4939 161.432 90.5733 161.472 90.6293 161.551L90.9793 162.006ZM93.8048 157.33C94.0288 156.845 94.3041 156.467 94.6308 156.196C94.9574 155.921 95.3564 155.783 95.8278 155.783C95.9771 155.783 96.1194 155.799 96.2548 155.832C96.3948 155.865 96.5184 155.916 96.6258 155.986L96.5348 156.917C96.5068 157.034 96.4368 157.092 96.3248 157.092C96.2594 157.092 96.1638 157.078 96.0378 157.05C95.9118 157.022 95.7694 157.008 95.6108 157.008C95.3868 157.008 95.1861 157.041 95.0088 157.106C94.8361 157.171 94.6798 157.269 94.5398 157.4C94.4044 157.526 94.2808 157.685 94.1688 157.876C94.0614 158.063 93.9634 158.277 93.8748 158.52V163H92.6218V155.909H93.3358C93.4711 155.909 93.5644 155.935 93.6158 155.986C93.6671 156.037 93.7021 156.126 93.7208 156.252L93.8048 157.33ZM99.0094 152.689V163H97.7634V152.689H99.0094ZM104.873 159.808C104.299 159.827 103.809 159.873 103.403 159.948C103.002 160.018 102.673 160.111 102.416 160.228C102.164 160.345 101.98 160.482 101.863 160.641C101.751 160.8 101.695 160.977 101.695 161.173C101.695 161.36 101.725 161.521 101.786 161.656C101.847 161.791 101.928 161.903 102.031 161.992C102.138 162.076 102.262 162.139 102.402 162.181C102.547 162.218 102.701 162.237 102.864 162.237C103.083 162.237 103.284 162.216 103.466 162.174C103.648 162.127 103.818 162.062 103.977 161.978C104.14 161.894 104.294 161.794 104.439 161.677C104.588 161.56 104.733 161.427 104.873 161.278V159.808ZM100.848 156.91C101.24 156.532 101.662 156.25 102.115 156.063C102.568 155.876 103.069 155.783 103.62 155.783C104.017 155.783 104.369 155.848 104.677 155.979C104.985 156.11 105.244 156.292 105.454 156.525C105.664 156.758 105.823 157.041 105.93 157.372C106.037 157.703 106.091 158.067 106.091 158.464V163H105.538C105.417 163 105.323 162.981 105.258 162.944C105.193 162.902 105.141 162.823 105.104 162.706L104.964 162.034C104.777 162.207 104.595 162.361 104.418 162.496C104.241 162.627 104.054 162.739 103.858 162.832C103.662 162.921 103.452 162.988 103.228 163.035C103.009 163.086 102.764 163.112 102.493 163.112C102.218 163.112 101.959 163.075 101.716 163C101.473 162.921 101.261 162.804 101.079 162.65C100.902 162.496 100.759 162.302 100.652 162.069C100.549 161.831 100.498 161.551 100.498 161.229C100.498 160.949 100.575 160.681 100.729 160.424C100.883 160.163 101.133 159.932 101.478 159.731C101.823 159.53 102.274 159.367 102.829 159.241C103.384 159.11 104.066 159.036 104.873 159.017V158.464C104.873 157.913 104.754 157.498 104.516 157.218C104.278 156.933 103.93 156.791 103.473 156.791C103.165 156.791 102.906 156.831 102.696 156.91C102.491 156.985 102.311 157.071 102.157 157.169C102.008 157.262 101.877 157.349 101.765 157.428C101.658 157.503 101.55 157.54 101.443 157.54C101.359 157.54 101.287 157.519 101.226 157.477C101.165 157.43 101.114 157.374 101.072 157.309L100.848 156.91ZM113.943 155.909L109.988 165.093C109.946 165.186 109.892 165.261 109.827 165.317C109.766 165.373 109.671 165.401 109.54 165.401H108.616L109.911 162.587L106.985 155.909H108.063C108.17 155.909 108.254 155.937 108.315 155.993C108.38 156.044 108.425 156.103 108.448 156.168L110.345 160.634C110.42 160.83 110.483 161.035 110.534 161.25C110.599 161.031 110.669 160.823 110.744 160.627L112.585 156.168C112.613 156.093 112.66 156.033 112.725 155.986C112.795 155.935 112.872 155.909 112.956 155.909H113.943ZM123.44 159.276L121.865 155.195C121.818 155.074 121.769 154.934 121.718 154.775C121.667 154.612 121.618 154.439 121.571 154.257C121.473 154.635 121.373 154.95 121.27 155.202L119.695 159.276H123.44ZM126.268 163H125.218C125.097 163 124.999 162.97 124.924 162.909C124.849 162.848 124.793 162.771 124.756 162.678L123.818 160.256H119.317L118.379 162.678C118.351 162.762 118.297 162.837 118.218 162.902C118.139 162.967 118.041 163 117.924 163H116.874L120.885 152.969H122.257L126.268 163ZM128.519 161.292C128.748 161.6 128.998 161.817 129.268 161.943C129.539 162.069 129.842 162.132 130.178 162.132C130.841 162.132 131.35 161.896 131.704 161.425C132.059 160.954 132.236 160.282 132.236 159.409C132.236 158.947 132.194 158.55 132.11 158.219C132.031 157.888 131.914 157.617 131.76 157.407C131.606 157.192 131.417 157.036 131.193 156.938C130.969 156.84 130.715 156.791 130.43 156.791C130.024 156.791 129.667 156.884 129.359 157.071C129.056 157.258 128.776 157.521 128.519 157.862V161.292ZM128.456 157.008C128.755 156.639 129.1 156.343 129.492 156.119C129.884 155.895 130.332 155.783 130.836 155.783C131.247 155.783 131.618 155.862 131.949 156.021C132.281 156.175 132.563 156.406 132.796 156.714C133.03 157.017 133.209 157.395 133.335 157.848C133.461 158.301 133.524 158.821 133.524 159.409C133.524 159.932 133.454 160.419 133.314 160.872C133.174 161.32 132.971 161.71 132.705 162.041C132.444 162.368 132.122 162.627 131.739 162.818C131.361 163.005 130.934 163.098 130.458 163.098C130.024 163.098 129.651 163.026 129.338 162.881C129.03 162.732 128.757 162.526 128.519 162.265V165.401H127.266V155.909H128.015C128.193 155.909 128.302 155.995 128.344 156.168L128.456 157.008ZM136.367 161.292C136.596 161.6 136.845 161.817 137.116 161.943C137.387 162.069 137.69 162.132 138.026 162.132C138.689 162.132 139.197 161.896 139.552 161.425C139.907 160.954 140.084 160.282 140.084 159.409C140.084 158.947 140.042 158.55 139.958 158.219C139.879 157.888 139.762 157.617 139.608 157.407C139.454 157.192 139.265 157.036 139.041 156.938C138.817 156.84 138.563 156.791 138.278 156.791C137.872 156.791 137.515 156.884 137.207 157.071C136.904 157.258 136.624 157.521 136.367 157.862V161.292ZM136.304 157.008C136.603 156.639 136.948 156.343 137.34 156.119C137.732 155.895 138.18 155.783 138.684 155.783C139.095 155.783 139.466 155.862 139.797 156.021C140.128 156.175 140.411 156.406 140.644 156.714C140.877 157.017 141.057 157.395 141.183 157.848C141.309 158.301 141.372 158.821 141.372 159.409C141.372 159.932 141.302 160.419 141.162 160.872C141.022 161.32 140.819 161.71 140.553 162.041C140.292 162.368 139.97 162.627 139.587 162.818C139.209 163.005 138.782 163.098 138.306 163.098C137.872 163.098 137.499 163.026 137.186 162.881C136.878 162.732 136.605 162.526 136.367 162.265V165.401H135.114V155.909H135.863C136.04 155.909 136.15 155.995 136.192 156.168L136.304 157.008Z" fill="#B2ADCC"/>
<defs>
<filter id="filter0_d" x="0.000976562" y="0" width="208" height="188" filterUnits="userSpaceOnUse" color-interpolation-filters="sRGB">
<feFlood flood-opacity="0" result="BackgroundImageFix"/>
<feColorMatrix in="SourceAlpha" type="matrix" values="0 0 0 0 0 0 0 0 0 0 0 0 0 0 0 0 0 0 127 0"/>
<feOffset dy="4"/>
<feGaussianBlur stdDeviation="2"/>
<feColorMatrix type="matrix" values="0 0 0 0 0 0 0 0 0 0 0 0 0 0 0 0 0 0 0.25 0"/>
<feBlend mode="normal" in2="BackgroundImageFix" result="effect1_dropShadow"/>
<feBlend mode="normal" in="SourceGraphic" in2="effect1_dropShadow" result="shape"/>
</filter>
</defs>
</svg>
