<svg width="208" height="188" viewBox="0 0 208 188" fill="none" xmlns="http://www.w3.org/2000/svg">
<g filter="url(#filter0_d)">
<rect x="4.00098" width="200" height="180" fill="#332E4D"/>
</g>
<path d="M75.1848 152.969V154.11H71.9438V163H70.5858V154.11H67.3308V152.969H75.1848ZM75.2935 163V155.909H76.0075C76.1428 155.909 76.2362 155.935 76.2875 155.986C76.3388 156.037 76.3738 156.126 76.3925 156.252L76.4765 157.358C76.7192 156.863 77.0178 156.478 77.3725 156.203C77.7318 155.923 78.1518 155.783 78.6325 155.783C78.8285 155.783 79.0058 155.806 79.1645 155.853C79.3232 155.895 79.4702 155.956 79.6055 156.035L79.4445 156.966C79.4118 157.083 79.3395 157.141 79.2275 157.141C79.1622 157.141 79.0618 157.12 78.9265 157.078C78.7912 157.031 78.6022 157.008 78.3595 157.008C77.9255 157.008 77.5615 157.134 77.2675 157.386C76.9782 157.638 76.7355 158.004 76.5395 158.485V163H75.2935ZM85.8882 163H85.3352C85.2139 163 85.1159 162.981 85.0412 162.944C84.9665 162.907 84.9175 162.827 84.8942 162.706L84.7542 162.048C84.5675 162.216 84.3855 162.368 84.2082 162.503C84.0309 162.634 83.8442 162.746 83.6482 162.839C83.4522 162.928 83.2422 162.995 83.0182 163.042C82.7989 163.089 82.5539 163.112 82.2832 163.112C82.0079 163.112 81.7489 163.075 81.5062 163C81.2682 162.921 81.0605 162.804 80.8832 162.65C80.7059 162.496 80.5635 162.302 80.4562 162.069C80.3535 161.831 80.3022 161.551 80.3022 161.229C80.3022 160.949 80.3792 160.681 80.5332 160.424C80.6872 160.163 80.9345 159.932 81.2752 159.731C81.6205 159.53 82.0709 159.367 82.6262 159.241C83.1815 159.11 83.8605 159.036 84.6632 159.017V158.464C84.6632 157.913 84.5442 157.498 84.3062 157.218C84.0729 156.933 83.7252 156.791 83.2632 156.791C82.9599 156.791 82.7032 156.831 82.4932 156.91C82.2879 156.985 82.1082 157.071 81.9542 157.169C81.8049 157.262 81.6742 157.349 81.5622 157.428C81.4549 157.503 81.3475 157.54 81.2402 157.54C81.1562 157.54 81.0815 157.519 81.0162 157.477C80.9555 157.43 80.9065 157.374 80.8692 157.309L80.6452 156.91C81.0372 156.532 81.4595 156.25 81.9122 156.063C82.3649 155.876 82.8665 155.783 83.4172 155.783C83.8139 155.783 84.1662 155.848 84.4742 155.979C84.7822 156.11 85.0412 156.292 85.2512 156.525C85.4612 156.758 85.6199 157.041 85.7272 157.372C85.8345 157.703 85.8882 158.067 85.8882 158.464V163ZM82.6542 162.237C82.8735 162.237 83.0742 162.216 83.2562 162.174C83.4382 162.127 83.6085 162.064 83.7672 161.985C83.9305 161.901 84.0845 161.801 84.2292 161.684C84.3785 161.567 84.5232 161.434 84.6632 161.285V159.808C84.0892 159.827 83.6015 159.873 83.2002 159.948C82.7989 160.018 82.4722 160.111 82.2202 160.228C81.9682 160.345 81.7839 160.482 81.6672 160.641C81.5552 160.8 81.4992 160.977 81.4992 161.173C81.4992 161.36 81.5295 161.521 81.5902 161.656C81.6509 161.791 81.7325 161.903 81.8352 161.992C81.9379 162.076 82.0592 162.139 82.1992 162.181C82.3392 162.218 82.4909 162.237 82.6542 162.237ZM92.6129 157.169C92.5756 157.22 92.5382 157.26 92.5009 157.288C92.4636 157.316 92.4099 157.33 92.3399 157.33C92.2699 157.33 92.1929 157.302 92.1089 157.246C92.0296 157.185 91.9269 157.12 91.8009 157.05C91.6749 156.98 91.5209 156.917 91.3389 156.861C91.1616 156.8 90.9422 156.77 90.6809 156.77C90.3356 156.77 90.0299 156.833 89.7639 156.959C89.4979 157.08 89.2739 157.258 89.0919 157.491C88.9146 157.724 88.7792 158.007 88.6859 158.338C88.5972 158.669 88.5529 159.04 88.5529 159.451C88.5529 159.88 88.6019 160.263 88.6999 160.599C88.7979 160.93 88.9356 161.21 89.1129 161.439C89.2902 161.663 89.5049 161.836 89.7569 161.957C90.0136 162.074 90.3006 162.132 90.6179 162.132C90.9212 162.132 91.1709 162.097 91.3669 162.027C91.5629 161.952 91.7262 161.871 91.8569 161.782C91.9876 161.693 92.0949 161.614 92.1789 161.544C92.2629 161.469 92.3469 161.432 92.4309 161.432C92.5382 161.432 92.6176 161.472 92.6689 161.551L93.0189 162.006C92.7109 162.384 92.3259 162.662 91.8639 162.839C91.4019 163.012 90.9142 163.098 90.4009 163.098C89.9576 163.098 89.5446 163.016 89.1619 162.853C88.7839 162.69 88.4549 162.454 88.1749 162.146C87.8949 161.833 87.6732 161.451 87.5099 160.998C87.3512 160.545 87.2719 160.03 87.2719 159.451C87.2719 158.924 87.3442 158.436 87.4889 157.988C87.6382 157.54 87.8529 157.155 88.1329 156.833C88.4176 156.506 88.7676 156.252 89.1829 156.07C89.5982 155.888 90.0742 155.797 90.6109 155.797C91.1056 155.797 91.5442 155.879 91.9269 156.042C92.3096 156.201 92.6479 156.427 92.9419 156.721L92.6129 157.169ZM95.6061 152.689V158.758H95.9281C96.0214 158.758 96.0984 158.746 96.1591 158.723C96.2197 158.695 96.2874 158.641 96.3621 158.562L98.6021 156.161C98.6721 156.086 98.7421 156.026 98.8121 155.979C98.8821 155.932 98.9754 155.909 99.0921 155.909H100.226L97.6151 158.688C97.5497 158.767 97.4844 158.837 97.4191 158.898C97.3584 158.959 97.2884 159.012 97.2091 159.059C97.2931 159.115 97.3677 159.18 97.4331 159.255C97.5031 159.325 97.5684 159.407 97.6291 159.5L100.401 163H99.2811C99.1784 163 99.0897 162.981 99.0151 162.944C98.9451 162.902 98.8774 162.839 98.8121 162.755L96.4811 159.85C96.4111 159.752 96.3411 159.689 96.2711 159.661C96.2011 159.628 96.0961 159.612 95.9561 159.612H95.6061V163H94.3531V152.689H95.6061ZM104.036 155.797C104.461 155.797 104.853 155.869 105.212 156.014C105.571 156.154 105.882 156.359 106.143 156.63C106.404 156.896 106.607 157.227 106.752 157.624C106.901 158.016 106.976 158.464 106.976 158.968C106.976 159.164 106.955 159.295 106.913 159.36C106.871 159.425 106.792 159.458 106.675 159.458H101.957C101.966 159.906 102.027 160.296 102.139 160.627C102.251 160.958 102.405 161.236 102.601 161.46C102.797 161.679 103.03 161.845 103.301 161.957C103.572 162.064 103.875 162.118 104.211 162.118C104.524 162.118 104.792 162.083 105.016 162.013C105.245 161.938 105.441 161.859 105.604 161.775C105.767 161.691 105.903 161.614 106.01 161.544C106.122 161.469 106.218 161.432 106.297 161.432C106.4 161.432 106.479 161.472 106.535 161.551L106.885 162.006C106.731 162.193 106.547 162.356 106.332 162.496C106.117 162.631 105.886 162.743 105.639 162.832C105.396 162.921 105.144 162.986 104.883 163.028C104.622 163.075 104.363 163.098 104.106 163.098C103.616 163.098 103.163 163.016 102.748 162.853C102.337 162.685 101.98 162.442 101.677 162.125C101.378 161.803 101.145 161.406 100.977 160.935C100.809 160.464 100.725 159.922 100.725 159.311C100.725 158.816 100.8 158.354 100.949 157.925C101.103 157.496 101.322 157.125 101.607 156.812C101.892 156.495 102.239 156.247 102.65 156.07C103.061 155.888 103.523 155.797 104.036 155.797ZM104.064 156.714C103.462 156.714 102.988 156.889 102.643 157.239C102.298 157.584 102.083 158.065 101.999 158.681H105.856C105.856 158.392 105.816 158.128 105.737 157.89C105.658 157.647 105.541 157.44 105.387 157.267C105.233 157.09 105.044 156.954 104.82 156.861C104.601 156.763 104.349 156.714 104.064 156.714ZM108.571 163V155.909H109.285C109.42 155.909 109.513 155.935 109.565 155.986C109.616 156.037 109.651 156.126 109.67 156.252L109.754 157.358C109.996 156.863 110.295 156.478 110.65 156.203C111.009 155.923 111.429 155.783 111.91 155.783C112.106 155.783 112.283 155.806 112.442 155.853C112.6 155.895 112.747 155.956 112.883 156.035L112.722 156.966C112.689 157.083 112.617 157.141 112.505 157.141C112.439 157.141 112.339 157.12 112.204 157.078C112.068 157.031 111.879 157.008 111.637 157.008C111.203 157.008 110.839 157.134 110.545 157.386C110.255 157.638 110.013 158.004 109.817 158.485V163H108.571ZM125.373 163H124.323C124.202 163 124.104 162.97 124.029 162.909C123.955 162.848 123.899 162.771 123.861 162.678L122.923 160.256H118.422L117.484 162.678C117.452 162.762 117.396 162.837 117.316 162.902C117.237 162.967 117.139 163 117.022 163H115.972L119.983 152.969H121.362L125.373 163ZM118.8 159.276H122.545L120.97 155.195C120.868 154.943 120.767 154.628 120.669 154.25C120.618 154.441 120.567 154.619 120.515 154.782C120.469 154.941 120.422 155.081 120.375 155.202L118.8 159.276ZM126.44 165.401V155.909H127.182C127.359 155.909 127.471 155.995 127.518 156.168L127.623 157.008C127.926 156.639 128.272 156.343 128.659 156.119C129.051 155.895 129.501 155.783 130.01 155.783C130.416 155.783 130.785 155.862 131.116 156.021C131.447 156.175 131.73 156.406 131.963 156.714C132.196 157.017 132.376 157.395 132.502 157.848C132.628 158.301 132.691 158.821 132.691 159.409C132.691 159.932 132.621 160.419 132.481 160.872C132.341 161.32 132.14 161.71 131.879 162.041C131.618 162.368 131.296 162.627 130.913 162.818C130.535 163.005 130.108 163.098 129.632 163.098C129.193 163.098 128.818 163.026 128.505 162.881C128.197 162.736 127.924 162.531 127.686 162.265V165.401H126.44ZM129.597 156.791C129.191 156.791 128.834 156.884 128.526 157.071C128.223 157.258 127.943 157.521 127.686 157.862V161.292C127.915 161.6 128.164 161.817 128.435 161.943C128.71 162.069 129.016 162.132 129.352 162.132C130.01 162.132 130.516 161.896 130.871 161.425C131.226 160.954 131.403 160.282 131.403 159.409C131.403 158.947 131.361 158.55 131.277 158.219C131.198 157.888 131.081 157.617 130.927 157.407C130.773 157.192 130.584 157.036 130.36 156.938C130.136 156.84 129.882 156.791 129.597 156.791ZM134.165 165.401V155.909H134.907C135.084 155.909 135.196 155.995 135.243 156.168L135.348 157.008C135.651 156.639 135.996 156.343 136.384 156.119C136.776 155.895 137.226 155.783 137.735 155.783C138.141 155.783 138.509 155.862 138.841 156.021C139.172 156.175 139.454 156.406 139.688 156.714C139.921 157.017 140.101 157.395 140.227 157.848C140.353 158.301 140.416 158.821 140.416 159.409C140.416 159.932 140.346 160.419 140.206 160.872C140.066 161.32 139.865 161.71 139.604 162.041C139.342 162.368 139.02 162.627 138.638 162.818C138.26 163.005 137.833 163.098 137.357 163.098C136.918 163.098 136.542 163.026 136.23 162.881C135.922 162.736 135.649 162.531 135.411 162.265V165.401H134.165ZM137.322 156.791C136.916 156.791 136.559 156.884 136.251 157.071C135.947 157.258 135.667 157.521 135.411 157.862V161.292C135.639 161.6 135.889 161.817 136.16 161.943C136.435 162.069 136.741 162.132 137.077 162.132C137.735 162.132 138.241 161.896 138.596 161.425C138.95 160.954 139.128 160.282 139.128 159.409C139.128 158.947 139.086 158.55 139.002 158.219C138.922 157.888 138.806 157.617 138.652 157.407C138.498 157.192 138.309 157.036 138.085 156.938C137.861 156.84 137.606 156.791 137.322 156.791Z" fill="#B2ADCC"/>
<g clip-path="url(#clip0)">
<path d="M131.076 97.4903C130.882 97.4363 130.687 97.389 130.5 97.3215C129.367 96.9229 128.69 95.9029 128.63 94.5114C128.563 92.9375 129.434 91.6338 130.795 91.3433C133.254 90.8232 134.694 92.6538 134.46 94.8086C134.299 96.2744 133.569 97.0648 132.128 97.443C132.108 97.4498 132.095 97.4701 132.074 97.4836C131.746 97.4903 131.411 97.4903 131.076 97.4903ZM133.214 94.356C133.14 94.0183 133.093 93.6468 132.966 93.309C132.724 92.6673 132.215 92.3498 131.532 92.3566C130.875 92.3633 130.386 92.6943 130.138 93.3225C129.877 93.9845 129.87 94.6668 130.098 95.3355C130.332 96.0245 130.868 96.396 131.565 96.396C132.269 96.3893 132.791 96.0178 133.019 95.3152C133.113 95.0248 133.147 94.7073 133.214 94.356Z" fill="#B2ADCC"/>
<path d="M80.5513 97.4902C80.5245 97.47 80.4977 97.443 80.4709 97.4362C79.2982 97.1998 78.5611 96.4905 78.273 95.3354C77.9647 94.0925 78.1524 92.9307 79.0905 91.9985C80.0085 91.0933 81.6368 90.992 82.6888 91.735C83.2517 92.1336 83.56 92.674 83.6404 93.4035C83.245 93.4035 82.8765 93.4103 82.5146 93.3968C82.4476 93.3968 82.3672 93.2887 82.3337 93.2144C82.1193 92.6942 81.7239 92.4173 81.1811 92.37C80.5915 92.3227 80.0889 92.5254 79.7941 93.0658C79.3384 93.9169 79.3317 94.795 79.7673 95.6529C80.0487 96.2068 80.6451 96.4703 81.2683 96.3892C81.8914 96.3014 82.2265 95.9096 82.3739 95.3287C82.394 95.2544 82.4141 95.1801 82.4409 95.0855C82.843 95.0855 83.2517 95.0855 83.6605 95.0855C83.694 96.146 82.8966 97.1457 81.8043 97.4227C81.7172 97.443 81.6368 97.4767 81.5564 97.5038C81.2214 97.4902 80.8863 97.4902 80.5513 97.4902Z" fill="#B2ADCC"/>
<path d="M61.1187 91.4109C62.7336 91.4109 64.3485 91.4109 65.9835 91.4109C65.9835 91.7756 65.9835 92.1201 65.9835 92.4984C65.3938 92.4984 64.8242 92.4984 64.2212 92.4984C64.2212 94.1264 64.2212 95.7205 64.2212 97.335C63.7789 97.335 63.3634 97.335 62.9145 97.335C62.9145 95.7273 62.9145 94.1399 62.9145 92.4917C62.298 92.4917 61.7083 92.4917 61.1254 92.4917C61.1187 92.1337 61.1187 91.7689 61.1187 91.4109Z" fill="#B2ADCC"/>
<path d="M110.062 74.9626C111.831 78.2793 113.573 81.5419 115.335 84.8451C115.208 84.8586 115.114 84.8721 115.021 84.8721C112.608 84.8721 110.196 84.8721 107.784 84.8789C107.542 84.8789 107.435 84.791 107.328 84.5884C105.679 81.4879 104.018 78.3941 102.376 75.2868C102.235 75.0166 102.074 74.9356 101.78 74.9423C100.54 74.9558 99.3002 74.9491 98.0606 74.9491C97.94 74.9491 97.8193 74.9491 97.6786 74.9491C97.6786 72.7942 97.6786 70.6732 97.6786 68.5184C101.23 68.5184 104.761 68.5184 108.326 68.5184C108.326 67.3025 108.326 66.1204 108.326 64.9112C104.326 64.9112 100.332 64.9112 96.3049 64.9112C96.3049 71.5648 96.3049 78.1982 96.3049 84.8518C93.8792 84.8518 91.4937 84.8518 89.068 84.8518C89.068 78.2185 89.068 71.5851 89.068 64.918C86.2 64.918 83.3722 64.918 80.5043 64.918C80.5043 71.5648 80.5043 78.1982 80.5043 84.8518C78.0651 84.8518 75.6729 84.8518 73.2472 84.8518C73.2472 78.1982 73.2472 71.5648 73.2472 64.8977C70.3993 64.8977 67.5917 64.8977 64.7505 64.8977C64.7505 62.6281 64.7505 60.3787 64.7505 58.0887C64.8644 58.0887 64.985 58.0887 65.1056 58.0887C80.0821 58.0887 95.0586 58.0887 110.035 58.0887C112.642 58.0887 114.685 59.7032 115.215 62.1957C115.289 62.5537 115.322 62.932 115.322 63.3035C115.329 65.4314 115.329 67.5592 115.329 69.687C115.329 72.6051 113.225 74.814 110.323 74.9423C110.256 74.9423 110.189 74.9491 110.062 74.9626Z" fill="#B2ADCC"/>
<path d="M135.907 73.9358C135.907 68.6602 135.907 63.3913 135.907 58.0955C138.346 58.0955 140.752 58.0955 143.178 58.0955C143.178 67.012 143.178 75.9083 143.178 84.8518C143.077 84.8586 142.97 84.8721 142.869 84.8721C140.424 84.8721 137.978 84.8721 135.532 84.8788C135.297 84.8788 135.177 84.791 135.049 84.6086C131.491 79.2722 127.933 73.9358 124.375 68.5994C124.328 68.5251 124.274 68.4575 124.167 68.2954C124.167 73.8683 124.167 79.3465 124.167 84.8518C121.715 84.8518 119.309 84.8518 116.89 84.8518C116.89 75.942 116.89 67.039 116.89 58.1022C117.011 58.0955 117.145 58.0819 117.272 58.0819C119.818 58.0819 122.365 58.0887 124.911 58.0752C125.166 58.0752 125.313 58.1562 125.447 58.3657C128.885 63.5264 132.322 68.6872 135.76 73.848C135.787 73.8818 135.813 73.9223 135.84 73.9561C135.86 73.9493 135.887 73.9426 135.907 73.9358Z" fill="#B2ADCC"/>
<path d="M122.733 95.4436C123.095 94.0386 123.43 92.7281 123.772 91.3974C124.134 91.3974 124.482 91.3839 124.824 91.4109C124.911 91.4177 125.032 91.5528 125.052 91.6541C125.347 92.7957 125.628 93.944 125.916 95.0856C125.943 95.1937 125.976 95.3018 126.03 95.4977C126.365 94.0859 126.687 92.7552 127.002 91.4177C127.424 91.4177 127.833 91.4177 128.288 91.4177C127.752 93.4036 127.23 95.3626 126.7 97.3418C126.278 97.3418 125.856 97.3418 125.387 97.3418C125.065 96.0516 124.737 94.7479 124.408 93.4374C124.382 93.4374 124.362 93.4374 124.335 93.4374C124.013 94.7411 123.698 96.0381 123.377 97.3485C122.934 97.3485 122.512 97.3485 122.043 97.3485C121.527 95.3896 121.004 93.4171 120.468 91.4042C120.877 91.4042 121.259 91.3907 121.634 91.4177C121.708 91.4244 121.809 91.5595 121.835 91.6541C122.11 92.7754 122.365 93.9035 122.633 95.0316C122.653 95.1397 122.68 95.241 122.733 95.4436Z" fill="#B2ADCC"/>
<path d="M108.152 95.2612C108.152 93.9913 108.152 92.7214 108.152 91.4244C108.554 91.4244 108.936 91.4244 109.345 91.4244C109.345 93.3766 109.345 95.3423 109.345 97.3553C108.956 97.3553 108.561 97.3688 108.166 97.3418C108.078 97.335 107.978 97.2067 107.918 97.1121C107.214 95.9908 106.517 94.8627 105.82 93.7414C105.767 93.6536 105.7 93.5658 105.579 93.4914C105.579 94.7681 105.579 96.0381 105.579 97.335C105.157 97.335 104.768 97.335 104.366 97.335C104.366 95.3626 104.366 93.4036 104.366 91.3974C104.762 91.3974 105.143 91.3839 105.532 91.4109C105.633 91.4177 105.747 91.546 105.807 91.6541C106.504 92.7619 107.194 93.8832 107.891 94.9978C107.951 95.0991 108.018 95.2004 108.078 95.3018C108.099 95.2815 108.125 95.2747 108.152 95.2612Z" fill="#B2ADCC"/>
<path d="M140.403 97.3552C140.095 97.3552 139.76 97.3417 139.425 97.3619C139.217 97.3754 139.144 97.2809 139.123 97.1052C139.076 96.727 139.036 96.3487 138.989 95.9636C138.902 95.2882 138.654 95.0517 137.991 95.0382C137.576 95.0247 137.167 95.0382 136.704 95.0382C136.704 95.8083 136.704 96.5648 136.704 97.3417C136.242 97.3417 135.827 97.3417 135.384 97.3417C135.384 95.3692 135.384 93.4035 135.384 91.4041C135.599 91.4041 135.793 91.4041 135.987 91.4041C136.892 91.4041 137.797 91.3906 138.701 91.4108C139.941 91.4446 140.698 92.647 140.169 93.7818C140.028 94.0858 139.733 94.3222 139.505 94.5856C140.068 94.8153 140.196 95.3625 140.242 95.9569C140.296 96.4095 140.35 96.8621 140.403 97.3552ZM136.711 92.4241C136.711 92.9915 136.711 93.5251 136.711 94.079C137.261 94.079 137.797 94.1128 138.319 94.0723C138.829 94.0317 139.036 93.7278 139.009 93.1874C138.983 92.701 138.741 92.4511 138.246 92.4308C137.75 92.4105 137.247 92.4241 136.711 92.4241Z" fill="#B2ADCC"/>
<path d="M66.6938 91.3973C67.3102 91.3973 67.9066 91.3973 68.5097 91.3973C69.0123 91.3973 69.5148 91.3906 70.0174 91.4041C70.788 91.4243 71.3978 91.9039 71.5787 92.5997C71.7797 93.39 71.5184 94.0385 70.8282 94.4708C70.8014 94.4911 70.7813 94.5181 70.7478 94.5451C71.4313 94.8221 71.5184 95.4165 71.572 96.038C71.6122 96.4635 71.6591 96.8823 71.7127 97.3417C71.3777 97.3417 70.989 97.3484 70.6138 97.3349C70.5535 97.3349 70.4597 97.2133 70.4463 97.1323C70.3859 96.7675 70.3457 96.396 70.3055 96.0312C70.2184 95.2679 69.9638 95.0315 69.2066 95.0247C68.8179 95.018 68.4293 95.0247 68.0071 95.0247C68.0071 95.8083 68.0071 96.5581 68.0071 97.3282C67.5515 97.3282 67.136 97.3282 66.7005 97.3282C66.6938 95.3625 66.6938 93.3968 66.6938 91.3973ZM68.0071 94.052C68.6102 94.052 69.1798 94.0858 69.7427 94.0385C70.1313 94.0115 70.2988 93.7345 70.3122 93.2955C70.3256 92.8159 70.1849 92.5186 69.7963 92.4781C69.2066 92.4241 68.6102 92.4646 68.0071 92.4646C68.0071 92.9982 68.0071 93.5184 68.0071 94.052Z" fill="#B2ADCC"/>
<path d="M96.037 91.4177C97.2164 91.4177 98.3756 91.3839 99.5349 91.4312C100.225 91.4582 100.788 92.0188 100.922 92.6606C101.083 93.4441 100.821 94.0723 100.171 94.4776C100.145 94.4979 100.118 94.5182 100.078 94.5587C100.62 94.7884 100.815 95.2342 100.868 95.7746C100.922 96.2947 100.982 96.8216 101.043 97.362C100.721 97.362 100.352 97.3755 99.9905 97.3552C99.9168 97.3485 99.7962 97.2404 99.7828 97.1661C99.7225 96.8554 99.7024 96.5447 99.6555 96.2339C99.622 96.0043 99.6153 95.7408 99.5081 95.5517C99.3942 95.3558 99.1797 95.1194 98.9921 95.0991C98.456 95.0383 97.9066 95.0788 97.3303 95.0788C97.3303 95.8354 97.3303 96.5852 97.3303 97.3485C96.888 97.3485 96.4793 97.3485 96.0504 97.3485C96.037 95.3761 96.037 93.4104 96.037 91.4177ZM97.3303 94.0588C97.9267 94.0588 98.4828 94.0926 99.0323 94.0453C99.4679 94.0115 99.6488 93.7211 99.6488 93.2347C99.6488 92.7686 99.4411 92.4714 99.0122 92.4376C98.4627 92.3971 97.9066 92.4309 97.337 92.4309C97.3303 92.9848 97.3303 93.5184 97.3303 94.0588Z" fill="#B2ADCC"/>
<path d="M143.446 94.6735C143.218 94.9166 143.004 95.1058 142.836 95.3219C142.756 95.4233 142.715 95.5854 142.715 95.7137C142.702 96.2474 142.709 96.7878 142.709 97.3349C142.26 97.3349 141.844 97.3349 141.415 97.3349C141.415 95.3625 141.415 93.4035 141.415 91.4176C141.831 91.4176 142.253 91.4176 142.702 91.4176C142.702 92.1944 142.702 92.9645 142.702 93.8088C142.829 93.694 142.903 93.64 142.963 93.5724C143.587 92.9104 144.203 92.2484 144.84 91.6C144.947 91.4919 145.141 91.4176 145.295 91.4041C145.717 91.3771 146.14 91.3973 146.595 91.3973C145.805 92.1741 145.047 92.9239 144.283 93.6737C145.175 94.9369 146.006 96.1123 146.883 97.3552C146.327 97.3552 145.831 97.3619 145.335 97.3484C145.255 97.3484 145.161 97.2336 145.101 97.1458C144.558 96.3419 144.022 95.5313 143.446 94.6735Z" fill="#B2ADCC"/>
<path d="M87.4732 93.667C88.3711 94.9437 89.2087 96.1191 90.0798 97.3552C89.5236 97.3552 89.0278 97.3688 88.5319 97.3417C88.4448 97.335 88.3376 97.2134 88.2773 97.1188C87.7345 96.3217 87.2051 95.5179 86.6356 94.6735C86.3943 94.9167 86.1732 95.1329 85.9722 95.3693C85.9119 95.4436 85.9052 95.5787 85.8985 95.68C85.8918 96.2204 85.8985 96.7608 85.8985 97.3282C85.4629 97.3282 85.0475 97.3282 84.5985 97.3282C84.5985 95.376 84.5985 93.4171 84.5985 91.4244C85.0072 91.4244 85.4227 91.4244 85.8851 91.4244C85.8851 92.1945 85.8851 92.978 85.8851 93.8629C86.1196 93.613 86.2871 93.4374 86.4479 93.2685C86.9706 92.7146 87.4866 92.1539 88.0226 91.6135C88.1299 91.5055 88.3175 91.4244 88.4783 91.4109C88.9005 91.3839 89.3226 91.4041 89.7582 91.4041C88.9943 92.1607 88.2371 92.9105 87.4732 93.667Z" fill="#B2ADCC"/>
<path d="M90.6159 97.3417C90.6159 95.349 90.6159 93.3968 90.6159 91.4176C92.0968 91.4176 93.5576 91.4176 95.0452 91.4176C95.0452 91.7756 95.0452 92.1201 95.0452 92.4984C94.0066 92.4984 92.9813 92.4984 91.9427 92.4984C91.9427 92.9307 91.9427 93.3292 91.9427 93.7683C92.8875 93.7683 93.8324 93.7683 94.7906 93.7683C94.7906 94.1196 94.7906 94.4303 94.7906 94.7816C93.8458 94.7816 92.9076 94.7816 91.9427 94.7816C91.9427 95.2882 91.9427 95.7543 91.9427 96.2474C92.9947 96.2474 94.0334 96.2474 95.0921 96.2474C95.0921 96.6257 95.0921 96.9769 95.0921 97.3417C93.6045 97.3417 92.1236 97.3417 90.6159 97.3417Z" fill="#B2ADCC"/>
<path d="M111.858 92.4782C111.858 92.9375 111.858 93.336 111.858 93.7684C112.809 93.7684 113.754 93.7684 114.712 93.7684C114.712 94.1129 114.712 94.4236 114.712 94.7748C113.767 94.7748 112.829 94.7748 111.864 94.7748C111.864 95.2815 111.864 95.7476 111.864 96.2474C112.916 96.2474 113.962 96.2474 115.027 96.2474C115.027 96.6257 115.027 96.9634 115.027 97.3282C113.533 97.3282 112.045 97.3282 110.538 97.3282C110.538 95.3558 110.538 93.3901 110.538 91.4109C112.019 91.4109 113.473 91.4109 114.96 91.4109C114.96 91.7554 114.96 92.0999 114.96 92.4714C113.935 92.4782 112.916 92.4782 111.858 92.4782Z" fill="#B2ADCC"/>
<path d="M72.0748 97.3552C72.3361 96.6527 72.5841 96.011 72.8253 95.3625C73.2876 94.1331 73.7567 92.9104 74.2124 91.6743C74.2928 91.4581 74.3933 91.3771 74.6211 91.3906C74.9629 91.4176 75.3917 91.296 75.6263 91.4581C75.8608 91.6203 75.9211 92.0593 76.0417 92.3836C76.618 93.9304 77.1943 95.4706 77.7705 97.0175C77.804 97.112 77.8375 97.2066 77.8912 97.3484C77.4489 97.3484 77.0468 97.3552 76.6381 97.3417C76.5778 97.3417 76.4974 97.2201 76.4639 97.139C76.3499 96.8486 76.2762 96.5379 76.1489 96.2541C76.102 96.1528 75.9546 96.038 75.8474 96.038C75.2577 96.0177 74.668 96.0177 74.0716 96.038C73.9711 96.038 73.8371 96.1461 73.7902 96.2406C73.6562 96.5379 73.5758 96.8553 73.4485 97.1526C73.4083 97.2404 73.2876 97.3417 73.2005 97.3484C72.8521 97.3687 72.4969 97.3552 72.0748 97.3552ZM75.0165 92.9577C74.9897 92.9577 74.9696 92.9577 74.9428 92.9577C74.7015 93.64 74.4603 94.3222 74.2124 95.0315C74.7417 95.0315 75.2175 95.0315 75.7335 95.0315C75.4855 94.3222 75.251 93.64 75.0165 92.9577Z" fill="#B2ADCC"/>
<path d="M117.252 92.4984C116.622 92.4984 116.066 92.4984 115.483 92.4984C115.483 92.1404 115.483 91.7959 115.483 91.4311C117.084 91.4311 118.693 91.4311 120.321 91.4311C120.321 91.7756 120.321 92.1066 120.321 92.4781C119.751 92.4781 119.175 92.4781 118.559 92.4781C118.559 94.1196 118.559 95.7205 118.559 97.3417C118.11 97.3417 117.701 97.3417 117.245 97.3417C117.252 95.734 117.252 94.1331 117.252 92.4984Z" fill="#B2ADCC"/>
</g>
<defs>
<filter id="filter0_d" x="0.000976562" y="0" width="208" height="188" filterUnits="userSpaceOnUse" color-interpolation-filters="sRGB">
<feFlood flood-opacity="0" result="BackgroundImageFix"/>
<feColorMatrix in="SourceAlpha" type="matrix" values="0 0 0 0 0 0 0 0 0 0 0 0 0 0 0 0 0 0 127 0"/>
<feOffset dy="4"/>
<feGaussianBlur stdDeviation="2"/>
<feColorMatrix type="matrix" values="0 0 0 0 0 0 0 0 0 0 0 0 0 0 0 0 0 0 0.25 0"/>
<feBlend mode="normal" in2="BackgroundImageFix" result="effect1_dropShadow"/>
<feBlend mode="normal" in="SourceGraphic" in2="effect1_dropShadow" result="shape"/>
</filter>
<clipPath id="clip0">
<rect width="90" height="90" fill="white" transform="translate(59.001 33)"/>
</clipPath>
</defs>
</svg>
