<svg width="208" height="188" viewBox="0 0 208 188" fill="none" xmlns="http://www.w3.org/2000/svg">
<g filter="url(#filter0_d)">
<rect x="4.00098" width="200" height="180" fill="#332E4D"/>
</g>
<path d="M47.018 157.988C47.018 158.739 46.899 159.423 46.661 160.039C46.423 160.655 46.087 161.182 45.653 161.621C45.219 162.06 44.6963 162.4 44.085 162.643C43.4783 162.881 42.8063 163 42.069 163H38.324V152.969H42.069C42.8063 152.969 43.4783 153.09 44.085 153.333C44.6963 153.571 45.219 153.912 45.653 154.355C46.087 154.794 46.423 155.321 46.661 155.937C46.899 156.553 47.018 157.237 47.018 157.988ZM45.625 157.988C45.625 157.372 45.541 156.821 45.373 156.336C45.205 155.851 44.967 155.44 44.659 155.104C44.351 154.768 43.9776 154.511 43.539 154.334C43.1003 154.157 42.6103 154.068 42.069 154.068H39.682V161.901H42.069C42.6103 161.901 43.1003 161.812 43.539 161.635C43.9776 161.458 44.351 161.203 44.659 160.872C44.967 160.536 45.205 160.125 45.373 159.64C45.541 159.155 45.625 158.604 45.625 157.988ZM53.3307 158.681C53.3307 158.392 53.2887 158.128 53.2047 157.89C53.1253 157.647 53.0063 157.44 52.8477 157.267C52.6937 157.09 52.5047 156.954 52.2807 156.861C52.0567 156.763 51.8023 156.714 51.5177 156.714C50.9203 156.714 50.4467 156.889 50.0967 157.239C49.7513 157.584 49.5367 158.065 49.4527 158.681H53.3307ZM54.3387 162.006C54.1847 162.193 54.0003 162.356 53.7857 162.496C53.571 162.631 53.34 162.743 53.0927 162.832C52.85 162.921 52.598 162.986 52.3367 163.028C52.0753 163.075 51.8163 163.098 51.5597 163.098C51.0697 163.098 50.617 163.016 50.2017 162.853C49.791 162.685 49.434 162.442 49.1307 162.125C48.832 161.803 48.5987 161.406 48.4307 160.935C48.2627 160.464 48.1787 159.922 48.1787 159.311C48.1787 158.816 48.2533 158.354 48.4027 157.925C48.5567 157.496 48.776 157.125 49.0607 156.812C49.3453 156.495 49.693 156.247 50.1037 156.07C50.5143 155.888 50.9763 155.797 51.4897 155.797C51.9143 155.797 52.3063 155.869 52.6657 156.014C53.0297 156.154 53.3423 156.359 53.6037 156.63C53.8697 156.896 54.0773 157.227 54.2267 157.624C54.376 158.016 54.4507 158.464 54.4507 158.968C54.4507 159.164 54.4297 159.295 54.3877 159.36C54.3457 159.425 54.2663 159.458 54.1497 159.458H49.4107C49.4247 159.906 49.4853 160.296 49.5927 160.627C49.7047 160.958 49.8587 161.236 50.0547 161.46C50.2507 161.679 50.484 161.845 50.7547 161.957C51.0253 162.064 51.3287 162.118 51.6647 162.118C51.9773 162.118 52.2457 162.083 52.4697 162.013C52.6983 161.938 52.8943 161.859 53.0577 161.775C53.221 161.691 53.3563 161.614 53.4637 161.544C53.5757 161.469 53.6713 161.432 53.7507 161.432C53.8533 161.432 53.9327 161.472 53.9887 161.551L54.3387 162.006ZM61.9068 155.909L59.0158 163H57.8958L55.0048 155.909H56.0198C56.1224 155.909 56.2064 155.935 56.2718 155.986C56.3371 156.037 56.3814 156.098 56.4048 156.168L58.2038 160.732C58.2598 160.905 58.3088 161.073 58.3508 161.236C58.3928 161.399 58.4324 161.563 58.4698 161.726C58.5071 161.563 58.5468 161.399 58.5888 161.236C58.6308 161.073 58.6821 160.905 58.7428 160.732L60.5628 156.168C60.5908 156.093 60.6374 156.033 60.7028 155.986C60.7681 155.935 60.8451 155.909 60.9338 155.909H61.9068ZM67.6041 158.681C67.6041 158.392 67.5621 158.128 67.4781 157.89C67.3988 157.647 67.2798 157.44 67.1211 157.267C66.9671 157.09 66.7781 156.954 66.5541 156.861C66.3301 156.763 66.0758 156.714 65.7911 156.714C65.1938 156.714 64.7201 156.889 64.3701 157.239C64.0248 157.584 63.8101 158.065 63.7261 158.681H67.6041ZM68.6121 162.006C68.4581 162.193 68.2738 162.356 68.0591 162.496C67.8444 162.631 67.6134 162.743 67.3661 162.832C67.1234 162.921 66.8714 162.986 66.6101 163.028C66.3488 163.075 66.0898 163.098 65.8331 163.098C65.3431 163.098 64.8904 163.016 64.4751 162.853C64.0644 162.685 63.7074 162.442 63.4041 162.125C63.1054 161.803 62.8721 161.406 62.7041 160.935C62.5361 160.464 62.4521 159.922 62.4521 159.311C62.4521 158.816 62.5268 158.354 62.6761 157.925C62.8301 157.496 63.0494 157.125 63.3341 156.812C63.6188 156.495 63.9664 156.247 64.3771 156.07C64.7878 155.888 65.2498 155.797 65.7631 155.797C66.1878 155.797 66.5798 155.869 66.9391 156.014C67.3031 156.154 67.6158 156.359 67.8771 156.63C68.1431 156.896 68.3508 157.227 68.5001 157.624C68.6494 158.016 68.7241 158.464 68.7241 158.968C68.7241 159.164 68.7031 159.295 68.6611 159.36C68.6191 159.425 68.5398 159.458 68.4231 159.458H63.6841C63.6981 159.906 63.7588 160.296 63.8661 160.627C63.9781 160.958 64.1321 161.236 64.3281 161.46C64.5241 161.679 64.7574 161.845 65.0281 161.957C65.2988 162.064 65.6021 162.118 65.9381 162.118C66.2508 162.118 66.5191 162.083 66.7431 162.013C66.9718 161.938 67.1678 161.859 67.3311 161.775C67.4944 161.691 67.6298 161.614 67.7371 161.544C67.8491 161.469 67.9448 161.432 68.0241 161.432C68.1268 161.432 68.2061 161.472 68.2621 161.551L68.6121 162.006ZM71.5426 152.689V163H70.2966V152.689H71.5426ZM76.5522 155.797C77.0702 155.797 77.5368 155.883 77.9522 156.056C78.3675 156.229 78.7222 156.474 79.0162 156.791C79.3102 157.108 79.5342 157.493 79.6882 157.946C79.8468 158.394 79.9262 158.896 79.9262 159.451C79.9262 160.011 79.8468 160.515 79.6882 160.963C79.5342 161.411 79.3102 161.794 79.0162 162.111C78.7222 162.428 78.3675 162.673 77.9522 162.846C77.5368 163.014 77.0702 163.098 76.5522 163.098C76.0295 163.098 75.5582 163.014 75.1382 162.846C74.7228 162.673 74.3682 162.428 74.0742 162.111C73.7802 161.794 73.5538 161.411 73.3952 160.963C73.2412 160.515 73.1642 160.011 73.1642 159.451C73.1642 158.896 73.2412 158.394 73.3952 157.946C73.5538 157.493 73.7802 157.108 74.0742 156.791C74.3682 156.474 74.7228 156.229 75.1382 156.056C75.5582 155.883 76.0295 155.797 76.5522 155.797ZM76.5522 162.125C77.2522 162.125 77.7748 161.892 78.1202 161.425C78.4655 160.954 78.6382 160.298 78.6382 159.458C78.6382 158.613 78.4655 157.955 78.1202 157.484C77.7748 157.013 77.2522 156.777 76.5522 156.777C76.1975 156.777 75.8872 156.838 75.6212 156.959C75.3598 157.08 75.1405 157.255 74.9632 157.484C74.7905 157.713 74.6598 157.995 74.5712 158.331C74.4872 158.662 74.4452 159.038 74.4452 159.458C74.4452 160.298 74.6178 160.954 74.9632 161.425C75.3132 161.892 75.8428 162.125 76.5522 162.125ZM82.7595 161.292C82.9882 161.6 83.2379 161.817 83.5085 161.943C83.7792 162.069 84.0825 162.132 84.4185 162.132C85.0812 162.132 85.5899 161.896 85.9445 161.425C86.2992 160.954 86.4765 160.282 86.4765 159.409C86.4765 158.947 86.4345 158.55 86.3505 158.219C86.2712 157.888 86.1545 157.617 86.0005 157.407C85.8465 157.192 85.6575 157.036 85.4335 156.938C85.2095 156.84 84.9552 156.791 84.6705 156.791C84.2645 156.791 83.9075 156.884 83.5995 157.071C83.2962 157.258 83.0162 157.521 82.7595 157.862V161.292ZM82.6965 157.008C82.9952 156.639 83.3405 156.343 83.7325 156.119C84.1245 155.895 84.5725 155.783 85.0765 155.783C85.4872 155.783 85.8582 155.862 86.1895 156.021C86.5209 156.175 86.8032 156.406 87.0365 156.714C87.2699 157.017 87.4495 157.395 87.5755 157.848C87.7015 158.301 87.7645 158.821 87.7645 159.409C87.7645 159.932 87.6945 160.419 87.5545 160.872C87.4145 161.32 87.2115 161.71 86.9455 162.041C86.6842 162.368 86.3622 162.627 85.9795 162.818C85.6015 163.005 85.1745 163.098 84.6985 163.098C84.2645 163.098 83.8912 163.026 83.5785 162.881C83.2705 162.732 82.9975 162.526 82.7595 162.265V165.401H81.5065V155.909H82.2555C82.4329 155.909 82.5425 155.995 82.5845 156.168L82.6965 157.008ZM94.1002 158.681C94.1002 158.392 94.0582 158.128 93.9742 157.89C93.8949 157.647 93.7759 157.44 93.6172 157.267C93.4632 157.09 93.2742 156.954 93.0502 156.861C92.8262 156.763 92.5719 156.714 92.2872 156.714C91.6899 156.714 91.2162 156.889 90.8662 157.239C90.5209 157.584 90.3062 158.065 90.2222 158.681H94.1002ZM95.1082 162.006C94.9542 162.193 94.7699 162.356 94.5552 162.496C94.3405 162.631 94.1095 162.743 93.8622 162.832C93.6195 162.921 93.3675 162.986 93.1062 163.028C92.8449 163.075 92.5859 163.098 92.3292 163.098C91.8392 163.098 91.3865 163.016 90.9712 162.853C90.5605 162.685 90.2035 162.442 89.9002 162.125C89.6015 161.803 89.3682 161.406 89.2002 160.935C89.0322 160.464 88.9482 159.922 88.9482 159.311C88.9482 158.816 89.0229 158.354 89.1722 157.925C89.3262 157.496 89.5455 157.125 89.8302 156.812C90.1149 156.495 90.4625 156.247 90.8732 156.07C91.2839 155.888 91.7459 155.797 92.2592 155.797C92.6839 155.797 93.0759 155.869 93.4352 156.014C93.7992 156.154 94.1119 156.359 94.3732 156.63C94.6392 156.896 94.8469 157.227 94.9962 157.624C95.1455 158.016 95.2202 158.464 95.2202 158.968C95.2202 159.164 95.1992 159.295 95.1572 159.36C95.1152 159.425 95.0359 159.458 94.9192 159.458H90.1802C90.1942 159.906 90.2549 160.296 90.3622 160.627C90.4742 160.958 90.6282 161.236 90.8242 161.46C91.0202 161.679 91.2535 161.845 91.5242 161.957C91.7949 162.064 92.0982 162.118 92.4342 162.118C92.7469 162.118 93.0152 162.083 93.2392 162.013C93.4679 161.938 93.6639 161.859 93.8272 161.775C93.9905 161.691 94.1259 161.614 94.2332 161.544C94.3452 161.469 94.4409 161.432 94.5202 161.432C94.6229 161.432 94.7022 161.472 94.7582 161.551L95.1082 162.006ZM97.9337 157.33C98.1577 156.845 98.433 156.467 98.7597 156.196C99.0863 155.921 99.4853 155.783 99.9567 155.783C100.106 155.783 100.248 155.799 100.384 155.832C100.524 155.865 100.647 155.916 100.755 155.986L100.664 156.917C100.636 157.034 100.566 157.092 100.454 157.092C100.388 157.092 100.293 157.078 100.167 157.05C100.041 157.022 99.8983 157.008 99.7397 157.008C99.5157 157.008 99.315 157.041 99.1377 157.106C98.965 157.171 98.8087 157.269 98.6687 157.4C98.5333 157.526 98.4097 157.685 98.2977 157.876C98.1903 158.063 98.0923 158.277 98.0037 158.52V163H96.7507V155.909H97.4647C97.6 155.909 97.6933 155.935 97.7447 155.986C97.796 156.037 97.831 156.126 97.8497 156.252L97.9337 157.33ZM105.939 157.078C105.883 157.181 105.797 157.232 105.68 157.232C105.61 157.232 105.531 157.206 105.442 157.155C105.354 157.104 105.244 157.048 105.113 156.987C104.987 156.922 104.836 156.863 104.658 156.812C104.481 156.756 104.271 156.728 104.028 156.728C103.818 156.728 103.629 156.756 103.461 156.812C103.293 156.863 103.149 156.936 103.027 157.029C102.911 157.122 102.82 157.232 102.754 157.358C102.694 157.479 102.663 157.612 102.663 157.757C102.663 157.939 102.715 158.091 102.817 158.212C102.925 158.333 103.065 158.438 103.237 158.527C103.41 158.616 103.606 158.695 103.825 158.765C104.045 158.83 104.269 158.903 104.497 158.982C104.731 159.057 104.957 159.141 105.176 159.234C105.396 159.327 105.592 159.444 105.764 159.584C105.937 159.724 106.075 159.897 106.177 160.102C106.285 160.303 106.338 160.545 106.338 160.83C106.338 161.157 106.28 161.46 106.163 161.74C106.047 162.015 105.874 162.256 105.645 162.461C105.417 162.662 105.137 162.82 104.805 162.937C104.474 163.054 104.091 163.112 103.657 163.112C103.163 163.112 102.715 163.033 102.313 162.874C101.912 162.711 101.571 162.503 101.291 162.251L101.585 161.775C101.623 161.714 101.667 161.668 101.718 161.635C101.77 161.602 101.835 161.586 101.914 161.586C101.998 161.586 102.087 161.619 102.18 161.684C102.274 161.749 102.386 161.822 102.516 161.901C102.652 161.98 102.815 162.053 103.006 162.118C103.198 162.183 103.436 162.216 103.72 162.216C103.963 162.216 104.175 162.186 104.357 162.125C104.539 162.06 104.691 161.973 104.812 161.866C104.934 161.759 105.022 161.635 105.078 161.495C105.139 161.355 105.169 161.206 105.169 161.047C105.169 160.851 105.116 160.69 105.008 160.564C104.906 160.433 104.768 160.324 104.595 160.235C104.423 160.142 104.224 160.062 104 159.997C103.781 159.927 103.555 159.855 103.321 159.78C103.093 159.705 102.866 159.621 102.642 159.528C102.423 159.43 102.227 159.309 102.054 159.164C101.882 159.019 101.742 158.842 101.634 158.632C101.532 158.417 101.48 158.158 101.48 157.855C101.48 157.584 101.536 157.325 101.648 157.078C101.76 156.826 101.924 156.607 102.138 156.42C102.353 156.229 102.617 156.077 102.929 155.965C103.242 155.853 103.599 155.797 104 155.797C104.467 155.797 104.885 155.872 105.253 156.021C105.627 156.166 105.949 156.366 106.219 156.623L105.939 157.078ZM118.784 160.928C118.859 160.928 118.924 160.958 118.98 161.019L119.519 161.6C119.108 162.076 118.609 162.447 118.021 162.713C117.438 162.979 116.731 163.112 115.9 163.112C115.181 163.112 114.528 162.988 113.94 162.741C113.352 162.489 112.85 162.139 112.435 161.691C112.02 161.238 111.698 160.697 111.469 160.067C111.24 159.437 111.126 158.744 111.126 157.988C111.126 157.232 111.245 156.539 111.483 155.909C111.721 155.279 112.055 154.738 112.484 154.285C112.918 153.832 113.436 153.482 114.038 153.235C114.64 152.983 115.305 152.857 116.033 152.857C116.747 152.857 117.377 152.971 117.923 153.2C118.469 153.429 118.95 153.739 119.365 154.131L118.917 154.754C118.889 154.801 118.852 154.84 118.805 154.873C118.763 154.901 118.705 154.915 118.63 154.915C118.546 154.915 118.443 154.871 118.322 154.782C118.201 154.689 118.042 154.586 117.846 154.474C117.65 154.362 117.405 154.262 117.111 154.173C116.817 154.08 116.455 154.033 116.026 154.033C115.508 154.033 115.034 154.124 114.605 154.306C114.176 154.483 113.805 154.742 113.492 155.083C113.184 155.424 112.944 155.839 112.771 156.329C112.598 156.819 112.512 157.372 112.512 157.988C112.512 158.613 112.601 159.171 112.778 159.661C112.96 160.151 113.205 160.566 113.513 160.907C113.826 161.243 114.192 161.5 114.612 161.677C115.037 161.854 115.494 161.943 115.984 161.943C116.283 161.943 116.551 161.927 116.789 161.894C117.032 161.857 117.253 161.801 117.454 161.726C117.659 161.651 117.848 161.558 118.021 161.446C118.198 161.329 118.373 161.192 118.546 161.033C118.625 160.963 118.705 160.928 118.784 160.928ZM122.053 156.854C122.356 156.532 122.692 156.275 123.061 156.084C123.429 155.893 123.854 155.797 124.335 155.797C124.722 155.797 125.063 155.862 125.357 155.993C125.655 156.119 125.903 156.301 126.099 156.539C126.299 156.772 126.451 157.055 126.554 157.386C126.656 157.717 126.708 158.084 126.708 158.485V163H125.455V158.485C125.455 157.948 125.331 157.533 125.084 157.239C124.841 156.94 124.47 156.791 123.971 156.791C123.602 156.791 123.257 156.88 122.935 157.057C122.617 157.234 122.323 157.475 122.053 157.778V163H120.8V152.689H122.053V156.854ZM132.449 159.808C131.875 159.827 131.385 159.873 130.979 159.948C130.578 160.018 130.249 160.111 129.992 160.228C129.74 160.345 129.556 160.482 129.439 160.641C129.327 160.8 129.271 160.977 129.271 161.173C129.271 161.36 129.301 161.521 129.362 161.656C129.423 161.791 129.504 161.903 129.607 161.992C129.714 162.076 129.838 162.139 129.978 162.181C130.123 162.218 130.277 162.237 130.44 162.237C130.659 162.237 130.86 162.216 131.042 162.174C131.224 162.127 131.394 162.062 131.553 161.978C131.716 161.894 131.87 161.794 132.015 161.677C132.164 161.56 132.309 161.427 132.449 161.278V159.808ZM128.424 156.91C128.816 156.532 129.238 156.25 129.691 156.063C130.144 155.876 130.645 155.783 131.196 155.783C131.593 155.783 131.945 155.848 132.253 155.979C132.561 156.11 132.82 156.292 133.03 156.525C133.24 156.758 133.399 157.041 133.506 157.372C133.613 157.703 133.667 158.067 133.667 158.464V163H133.114C132.993 163 132.899 162.981 132.834 162.944C132.769 162.902 132.717 162.823 132.68 162.706L132.54 162.034C132.353 162.207 132.171 162.361 131.994 162.496C131.817 162.627 131.63 162.739 131.434 162.832C131.238 162.921 131.028 162.988 130.804 163.035C130.585 163.086 130.34 163.112 130.069 163.112C129.794 163.112 129.535 163.075 129.292 163C129.049 162.921 128.837 162.804 128.655 162.65C128.478 162.496 128.335 162.302 128.228 162.069C128.125 161.831 128.074 161.551 128.074 161.229C128.074 160.949 128.151 160.681 128.305 160.424C128.459 160.163 128.709 159.932 129.054 159.731C129.399 159.53 129.85 159.367 130.405 159.241C130.96 159.11 131.642 159.036 132.449 159.017V158.464C132.449 157.913 132.33 157.498 132.092 157.218C131.854 156.933 131.506 156.791 131.049 156.791C130.741 156.791 130.482 156.831 130.272 156.91C130.067 156.985 129.887 157.071 129.733 157.169C129.584 157.262 129.453 157.349 129.341 157.428C129.234 157.503 129.126 157.54 129.019 157.54C128.935 157.54 128.863 157.519 128.802 157.477C128.741 157.43 128.69 157.374 128.648 157.309L128.424 156.91ZM136.853 152.689V163H135.607V152.689H136.853ZM140.162 152.689V163H138.916V152.689H140.162ZM146.928 158.681C146.928 158.392 146.886 158.128 146.802 157.89C146.723 157.647 146.604 157.44 146.445 157.267C146.291 157.09 146.102 156.954 145.878 156.861C145.654 156.763 145.4 156.714 145.115 156.714C144.518 156.714 144.044 156.889 143.694 157.239C143.349 157.584 143.134 158.065 143.05 158.681H146.928ZM147.936 162.006C147.782 162.193 147.598 162.356 147.383 162.496C147.169 162.631 146.938 162.743 146.69 162.832C146.448 162.921 146.196 162.986 145.934 163.028C145.673 163.075 145.414 163.098 145.157 163.098C144.667 163.098 144.215 163.016 143.799 162.853C143.389 162.685 143.032 162.442 142.728 162.125C142.43 161.803 142.196 161.406 142.028 160.935C141.86 160.464 141.776 159.922 141.776 159.311C141.776 158.816 141.851 158.354 142 157.925C142.154 157.496 142.374 157.125 142.658 156.812C142.943 156.495 143.291 156.247 143.701 156.07C144.112 155.888 144.574 155.797 145.087 155.797C145.512 155.797 145.904 155.869 146.263 156.014C146.627 156.154 146.94 156.359 147.201 156.63C147.467 156.896 147.675 157.227 147.824 157.624C147.974 158.016 148.048 158.464 148.048 158.968C148.048 159.164 148.027 159.295 147.985 159.36C147.943 159.425 147.864 159.458 147.747 159.458H143.008C143.022 159.906 143.083 160.296 143.19 160.627C143.302 160.958 143.456 161.236 143.652 161.46C143.848 161.679 144.082 161.845 144.352 161.957C144.623 162.064 144.926 162.118 145.262 162.118C145.575 162.118 145.843 162.083 146.067 162.013C146.296 161.938 146.492 161.859 146.655 161.775C146.819 161.691 146.954 161.614 147.061 161.544C147.173 161.469 147.269 161.432 147.348 161.432C147.451 161.432 147.53 161.472 147.586 161.551L147.936 162.006ZM150.755 156.938C150.909 156.765 151.072 156.609 151.245 156.469C151.417 156.329 151.599 156.21 151.791 156.112C151.987 156.009 152.192 155.932 152.407 155.881C152.626 155.825 152.862 155.797 153.114 155.797C153.501 155.797 153.842 155.862 154.136 155.993C154.434 156.119 154.682 156.301 154.878 156.539C155.078 156.772 155.23 157.055 155.333 157.386C155.435 157.717 155.487 158.084 155.487 158.485V163H154.234V158.485C154.234 157.948 154.11 157.533 153.863 157.239C153.62 156.94 153.249 156.791 152.75 156.791C152.381 156.791 152.036 156.88 151.714 157.057C151.396 157.234 151.102 157.475 150.832 157.778V163H149.579V155.909H150.328C150.505 155.909 150.615 155.995 150.657 156.168L150.755 156.938ZM159.856 159.535C160.108 159.535 160.33 159.5 160.521 159.43C160.713 159.36 160.874 159.262 161.004 159.136C161.135 159.01 161.233 158.861 161.298 158.688C161.364 158.511 161.396 158.317 161.396 158.107C161.396 157.673 161.263 157.328 160.997 157.071C160.736 156.814 160.356 156.686 159.856 156.686C159.352 156.686 158.967 156.814 158.701 157.071C158.44 157.328 158.309 157.673 158.309 158.107C158.309 158.317 158.342 158.511 158.407 158.688C158.477 158.861 158.578 159.01 158.708 159.136C158.839 159.262 159 159.36 159.191 159.43C159.383 159.5 159.604 159.535 159.856 159.535ZM162.103 163.385C162.103 163.212 162.054 163.072 161.956 162.965C161.858 162.858 161.725 162.774 161.557 162.713C161.394 162.652 161.203 162.61 160.983 162.587C160.764 162.559 160.531 162.538 160.283 162.524C160.041 162.51 159.793 162.496 159.541 162.482C159.289 162.468 159.047 162.445 158.813 162.412C158.552 162.533 158.337 162.687 158.169 162.874C158.006 163.056 157.924 163.271 157.924 163.518C157.924 163.677 157.964 163.824 158.043 163.959C158.127 164.099 158.253 164.218 158.421 164.316C158.589 164.419 158.799 164.498 159.051 164.554C159.308 164.615 159.609 164.645 159.954 164.645C160.29 164.645 160.591 164.615 160.857 164.554C161.123 164.493 161.347 164.407 161.529 164.295C161.716 164.183 161.858 164.05 161.956 163.896C162.054 163.742 162.103 163.572 162.103 163.385ZM163.37 156.189V156.651C163.37 156.805 163.272 156.903 163.076 156.945L162.271 157.05C162.43 157.358 162.509 157.699 162.509 158.072C162.509 158.417 162.442 158.732 162.306 159.017C162.176 159.297 161.994 159.537 161.76 159.738C161.527 159.939 161.247 160.093 160.92 160.2C160.594 160.307 160.239 160.361 159.856 160.361C159.525 160.361 159.212 160.321 158.918 160.242C158.769 160.335 158.655 160.436 158.575 160.543C158.496 160.646 158.456 160.751 158.456 160.858C158.456 161.026 158.524 161.154 158.659 161.243C158.799 161.327 158.981 161.388 159.205 161.425C159.429 161.462 159.684 161.486 159.968 161.495C160.258 161.504 160.552 161.521 160.85 161.544C161.154 161.563 161.448 161.598 161.732 161.649C162.022 161.7 162.278 161.784 162.502 161.901C162.726 162.018 162.906 162.179 163.041 162.384C163.181 162.589 163.251 162.855 163.251 163.182C163.251 163.485 163.174 163.779 163.02 164.064C162.871 164.349 162.654 164.601 162.369 164.82C162.085 165.044 161.735 165.221 161.319 165.352C160.909 165.487 160.444 165.555 159.926 165.555C159.408 165.555 158.956 165.504 158.568 165.401C158.181 165.298 157.859 165.161 157.602 164.988C157.346 164.815 157.152 164.615 157.021 164.386C156.895 164.162 156.832 163.926 156.832 163.679C156.832 163.329 156.942 163.033 157.161 162.79C157.381 162.547 157.682 162.354 158.064 162.209C157.854 162.116 157.686 161.992 157.56 161.838C157.439 161.679 157.378 161.467 157.378 161.201C157.378 161.098 157.397 160.993 157.434 160.886C157.472 160.774 157.528 160.664 157.602 160.557C157.682 160.445 157.777 160.34 157.889 160.242C158.001 160.144 158.132 160.058 158.281 159.983C157.931 159.787 157.658 159.528 157.462 159.206C157.266 158.879 157.168 158.501 157.168 158.072C157.168 157.727 157.234 157.414 157.364 157.134C157.5 156.849 157.686 156.609 157.924 156.413C158.162 156.212 158.445 156.058 158.771 155.951C159.103 155.844 159.464 155.79 159.856 155.79C160.164 155.79 160.451 155.825 160.717 155.895C160.983 155.96 161.226 156.058 161.445 156.189H163.37ZM169.296 158.681C169.296 158.392 169.254 158.128 169.17 157.89C169.09 157.647 168.971 157.44 168.813 157.267C168.659 157.09 168.47 156.954 168.246 156.861C168.022 156.763 167.767 156.714 167.483 156.714C166.885 156.714 166.412 156.889 166.062 157.239C165.716 157.584 165.502 158.065 165.418 158.681H169.296ZM170.304 162.006C170.15 162.193 169.965 162.356 169.751 162.496C169.536 162.631 169.305 162.743 169.058 162.832C168.815 162.921 168.563 162.986 168.302 163.028C168.04 163.075 167.781 163.098 167.525 163.098C167.035 163.098 166.582 163.016 166.167 162.853C165.756 162.685 165.399 162.442 165.096 162.125C164.797 161.803 164.564 161.406 164.396 160.935C164.228 160.464 164.144 159.922 164.144 159.311C164.144 158.816 164.218 158.354 164.368 157.925C164.522 157.496 164.741 157.125 165.026 156.812C165.31 156.495 165.658 156.247 166.069 156.07C166.479 155.888 166.941 155.797 167.455 155.797C167.879 155.797 168.271 155.869 168.631 156.014C168.995 156.154 169.307 156.359 169.569 156.63C169.835 156.896 170.042 157.227 170.192 157.624C170.341 158.016 170.416 158.464 170.416 158.968C170.416 159.164 170.395 159.295 170.353 159.36C170.311 159.425 170.231 159.458 170.115 159.458H165.376C165.39 159.906 165.45 160.296 165.558 160.627C165.67 160.958 165.824 161.236 166.02 161.46C166.216 161.679 166.449 161.845 166.72 161.957C166.99 162.064 167.294 162.118 167.63 162.118C167.942 162.118 168.211 162.083 168.435 162.013C168.663 161.938 168.859 161.859 169.023 161.775C169.186 161.691 169.321 161.614 169.429 161.544C169.541 161.469 169.636 161.432 169.716 161.432C169.818 161.432 169.898 161.472 169.954 161.551L170.304 162.006Z" fill="#B2ADCC"/>
<g clip-path="url(#clip0)">
<path fill-rule="evenodd" clip-rule="evenodd" d="M112.746 51.5L111.718 54.7865L111.744 69.9551H115.572V71.9775H117.627L119.683 69.9551H123.279L129.959 63.382V51.5H112.746ZM128.161 62.3708L125.335 65.1517H120.71L118.141 67.6798V65.1517H114.287V53.2697H128.161V62.3708ZM123.536 56.5562H125.335V61.6124H123.536V56.5562ZM118.912 56.5562H120.71V61.6124H118.912V56.5562ZM140.75 80.0674V91.9494L134.07 96.5H129.959V94.4775L126.876 96.5H123.279V94.4775L120.967 96.5H114.287L112.232 94.4775L111.718 96.5L105.835 96.4747L103.497 94.4775L103.24 96.5L96.5597 96.4747L96.3028 94.4775L94.5043 96.4747L84.2275 96.5L82.1721 95.4888V96.5H76.5199L70.3538 92.7079L66.5 88.9157V72.2303H74.4645L78.3183 76.0225H95.7889V72.2303H110.176V76.0225H113.773V78.0449L115.829 76.0225H120.196L124.05 72.2303H132.272V76.0225H136.639L140.75 80.0674ZM76.5199 77.7921H72.923V74H68.2984V88.1573L71.1246 91.191H76.5199V86.3876H72.923V82.3427H76.5199V77.7921ZM95.7889 77.7921H91.1644V86.3876H89.3659V77.7921H84.9983V86.3876H83.1998V77.7921H78.3183V91.191H92.7059L95.7889 88.1573V77.7921ZM101.955 77.7921H97.5874V91.191H101.955V77.7921ZM101.955 74H97.5874V76.0225H101.955V74ZM111.975 77.7921H108.378V74H103.753V88.1573L106.58 91.191H111.975V86.3876H108.378V82.3427H111.975V77.7921ZM123.793 77.7921H116.599L113.773 80.573V88.1573L116.856 91.191H123.793V86.3876H118.655V82.3427H123.793V77.7921ZM138.952 80.573L135.869 77.7921H130.473V74H125.592V91.191H130.473V82.3427H134.07V91.191H138.952V80.573Z" fill="#B2ADCC"/>
</g>
<defs>
<filter id="filter0_d" x="0.000976562" y="0" width="208" height="188" filterUnits="userSpaceOnUse" color-interpolation-filters="sRGB">
<feFlood flood-opacity="0" result="BackgroundImageFix"/>
<feColorMatrix in="SourceAlpha" type="matrix" values="0 0 0 0 0 0 0 0 0 0 0 0 0 0 0 0 0 0 127 0"/>
<feOffset dy="4"/>
<feGaussianBlur stdDeviation="2"/>
<feColorMatrix type="matrix" values="0 0 0 0 0 0 0 0 0 0 0 0 0 0 0 0 0 0 0.25 0"/>
<feBlend mode="normal" in2="BackgroundImageFix" result="effect1_dropShadow"/>
<feBlend mode="normal" in="SourceGraphic" in2="effect1_dropShadow" result="shape"/>
</filter>
<clipPath id="clip0">
<rect width="90" height="90" fill="white" transform="translate(59 29)"/>
</clipPath>
</defs>
</svg>
