<svg width="145" height="115" fill="none" xmlns="http://www.w3.org/2000/svg"><path d="M31.322 40.647l11.999 2.033 2.89.49-1.229 7.196-11.45-1.94C31.57 63.675 47.79 70.547 56.145 72.078l-1.512 8.856S37.436 75.612 31.526 66.88c-3.738-5.521-5.317-14.805-5.976-20.989-.347-3.255 2.544-5.791 5.772-5.244zm83.024 14.07l-11.999-2.033-2.89-.49-1.229 7.195 11.45 1.94c-3.208 15.04-20.796 16.182-29.19 14.874l-1.511 8.856s17.995.642 26.47-5.651c5.36-3.98 9.932-12.221 12.606-17.84 1.408-2.957-.479-6.304-3.707-6.851z" fill="#6C5C99"/><path opacity=".5" d="M114.346 54.717l-11.999-2.033-2.89-.49-1.229 7.195 11.45 1.94c-3.208 15.04-20.796 16.182-29.19 14.874l-1.511 8.856s17.995.642 26.47-5.651c5.36-3.98 9.932-12.221 12.606-17.84 1.408-2.957-.479-6.304-3.707-6.851z" fill="#403366"/><path d="M44.655 99.177c8.187-.253 12.886-6.474 14.212-9.552l6.67 1.13-2.76 16.163-20.231-3.429 2.109-4.313z" fill="#6C5C99"/><path d="M82.338 105.563c-7.642-2.936-10.013-10.354-10.243-13.696l-6.67-1.13-2.759 16.162 20.231 3.429-.559-4.765z" fill="#6C5C99"/><path opacity=".5" d="M82.338 105.563c-7.642-2.936-10.013-10.354-10.243-13.696l-6.67-1.13-2.759 16.162 20.231 3.429-.559-4.765z" fill="#403366"/><path opacity=".5" d="M44.673 99.066l-2.127 4.423 40.35 6.839-.577-4.654-37.646-6.608z" fill="#403366"/><path d="M55.655 74.272l24.456 4.145-1.392 8.151a6.34 6.34 0 0 1-7.308 5.183L59.44 89.72a6.322 6.322 0 0 1-5.176-7.298l1.391-8.15z" fill="#6C5C99"/><path opacity=".5" d="M87.55 76.375l-39.35-6.67s2.95 5.132 6.11 7.757c4.027 3.344 9.326 4.998 12.55 5.544 3.224.546 9.49.014 14.057-1.946 3.331-1.43 6.633-4.685 6.633-4.685z" fill="#403366"/><path d="M43.791 40.595l58.026 9.834-1.096 6.419c-2.735 16.02-17.942 26.805-33.965 24.09-16.024-2.716-26.796-17.904-24.06-33.924l1.095-6.419z" fill="#6C5C99"/><path opacity=".5" d="M81.262 49.566l-3.78-.641 1.044 6.262a7.012 7.012 0 0 1-1.6 5.72l-7.016 8.168a7.016 7.016 0 0 0-1.594 3.391l-1.79 10.483s4.298.956 11.106-.737c6.81-1.694 13.801-8.483 13.801-8.483s5.164-4.25 7.318-10.036c2.155-5.786 2.707-11.16 2.707-11.16l-20.196-2.968z" fill="#403366"/><path opacity=".5" d="M99.087 47.005L47.32 38.232a3.543 3.543 0 0 0-3.11 1c-2.015 2.037-.904 5.496 1.92 5.974l51.766 8.773c2.771.47 4.961-2.323 3.841-4.9a3.532 3.532 0 0 0-2.65-2.074z" fill="#403366"/><path d="M100.706 40.331l-52.849-8.957a6.186 6.186 0 0 0-7.13 5.057 6.168 6.168 0 0 0 5.051 7.12l52.849 8.957a6.187 6.187 0 0 0 7.13-5.056 6.168 6.168 0 0 0-5.051-7.121z" fill="#6C5C99"/><path opacity=".5" d="M100.595 40.312L74.671 35.92l-2.08 12.177 25.925 4.394a6.186 6.186 0 0 0 7.129-5.057 6.167 6.167 0 0 0-5.05-7.12z" fill="#403366"/><path d="M45.357 43.48l9.305-10.952 7.892 1.337-8.97 11.01-8.227-1.394z" fill="#8E7CBF"/><path d="M59.381 51.78l14.026-9.127L83.28 55.83 68.625 70.66l-9.244-18.88z" fill="url(#paint0_linear)"/><path opacity=".2" d="M66.73 60.316l8.833-8.185 1.403 1.832-9.204 8.35-1.031-1.997z" fill="#F4F2FF"/><path d="M72.48 48.077l.945-5.535 9.967 13.308-4.747.334-6.164-8.107z" fill="#E6004C"/><path opacity=".2" d="M75.563 52.13l2.329-3.591 1.495 1.962-2.421 3.462-1.403-1.832z" fill="#F4F2FF"/><path d="M72.48 48.077l.945-5.535-14.044 9.239 4.35 1.99 8.75-5.694z" fill="url(#paint1_linear)"/><path opacity=".5" d="M83.392 55.85l-4.747.334-9.245 9.938-.794 4.65L83.392 55.85z" fill="url(#paint2_linear)"/><path opacity=".7" d="M59.362 51.891l4.387 1.769 5.65 12.462-.756 4.428-9.28-18.659z" fill="url(#paint3_linear)"/><path d="M47.376 49.746c-.21 5.242-.029 14.234 8.55 20.927" stroke="#8E7CBF" stroke-width="2.261" stroke-linecap="round"/><ellipse rx="1.353" ry="1.348" transform="rotate(9.619 -404.284 393.63) skewX(-.07)" fill="#8E7CBF"/><path d="M62.258.151c-3.66-.858-7.749 2.145-9.335 3.754 2.562 5.72 12.447 12.514 10.8 10.726-1.319-1.43-1.526-10.249-1.465-14.48z" fill="#6C5C99"/><path d="M12.796 21.28C7.808 22.296 3.9 16.562 2.048 13.928c0 0-1.853 1.47-2.038 7.352-.185 5.881 2.112 16.652 12.786 12.682 10.673-3.97 16.553-1.655 18.159 0-1.297-9.925-6.49-15.06-18.16-12.682z" fill="#8E7CBF"/><path d="M30.955 33.962c-1.297-9.926-6.49-15.06-18.16-12.683-1.226 1.455-2.944 6.027 0 12.683 10.674-3.97 16.554-1.655 18.16 0zm81.02-5.618l1.402-5.747 7.408.99 3.004 7.333c.4 1.783.32 4.796-.801 5.747-1.121.951-7.809-5.152-11.013-8.323z" fill="#6C5C99"/><path d="M114.006 16.174c-7.703-1.842-15.307 6.674-18.146 11.163 21.775-7.796 27.712.413 27.959 5.493-.062-4.784-2.111-14.813-9.813-16.655z" fill="#8E7CBF"/><path transform="rotate(-15.107 240.395 24.215) skewX(.107)" fill="url(#paint4_linear)" d="M0 0h6.988v2.985H0z"/><path transform="rotate(-4.982 684.8 -1487.993) skewX(.037)" fill="url(#paint5_linear)" d="M0 0h12.981v2.985H0z"/><ellipse opacity=".5" cx="37.377" cy="14.708" rx="1.498" ry="1.492" fill="#E6004C"/><ellipse opacity=".5" cx="122.321" cy="83.069" rx="1.498" ry="1.492" fill="#E6004C"/><ellipse opacity=".5" cx="80.383" cy="21.389" rx="1.498" ry="1.492" fill="#E6004C"/><ellipse opacity=".5" cx="16.476" cy="48.25" rx="1.498" ry="1.492" fill="#E6004C"/><ellipse opacity=".5" cx="93.863" cy="93.515" rx=".999" ry=".995" fill="#E6004C"/><ellipse opacity=".5" cx="96.858" cy=".995" rx=".999" ry=".995" fill="#E6004C"/><defs><linearGradient id="paint0_linear" x1="73.182" y1="43.298" x2="65.751" y2="87.146" gradientUnits="userSpaceOnUse"><stop stop-color="#E6004C"/><stop offset="1" stop-color="#E6004C" stop-opacity="0"/></linearGradient><linearGradient id="paint1_linear" x1="66.762" y1="50.753" x2="72.633" y2="44.325" gradientUnits="userSpaceOnUse"><stop stop-color="#E6004C"/><stop offset="1" stop-color="#E6004C" stop-opacity="0"/></linearGradient><linearGradient id="paint2_linear" x1="78.033" y1="51.398" x2="74.578" y2="71.784" gradientUnits="userSpaceOnUse"><stop stop-color="#E6004C"/><stop offset="1" stop-color="#E6004C" stop-opacity="0"/></linearGradient><linearGradient id="paint3_linear" x1="65.997" y1="49.541" x2="62.61" y2="69.528" gradientUnits="userSpaceOnUse"><stop stop-color="#E6004C"/><stop offset="1" stop-color="#E6004C" stop-opacity="0"/></linearGradient><linearGradient id="paint4_linear" x1="7.661" y1="2.255" x2=".616" y2="3.452" gradientUnits="userSpaceOnUse"><stop stop-color="#E6004C" stop-opacity="0"/><stop offset="1" stop-color="#E6004C"/></linearGradient><linearGradient id="paint5_linear" x1="-1.742" y1="2.718" x2="12.855" y2="1.987" gradientUnits="userSpaceOnUse"><stop stop-color="#E6004D" stop-opacity="0"/><stop offset="1" stop-color="#E6004D"/></linearGradient></defs></svg>