<svg width="216" height="98" fill="none" xmlns="http://www.w3.org/2000/svg"><g clip-path="url(#clip0)"><path d="M97.452 26h21.036l9.015 95H89.437l8.015-95z" fill="#8E7CBF"/><path d="M125.5 101.5L124 84s-6.932-2.861-15.73-2.861S92.5 84 92.5 84L91 101.5s7.197-2.795 17.27-2.795 17.23 2.795 17.23 2.795zM123 72l-1.5-15s-5.61-2.593-13.23-2.593c-7.621 0-13.323 2.093-13.323 2.093L93.945 72s5.6-2.068 14.325-2.068C116.994 69.932 123 72 123 72z" fill="#6C5C99"/><path d="M121.492 30.147c0 1.023-.83 1.853-1.853 1.853H97.301a1.853 1.853 0 0 1-1.854-1.853V27h26.045v3.147z" fill="#403366"/><path fill="#8E7CBF" d="M100.875 14.182h14.537v11.711h-14.537z"/><path d="M107.266 6.672a1.018 1.018 0 0 1 1.406 0l8.979 8.573c.665.635.216 1.755-.703 1.755H98.99c-.918 0-1.367-1.12-.703-1.755l8.979-8.573zM91.441 49.037c0-1.125.912-2.037 2.037-2.037h28.984c1.125 0 2.037.912 2.037 2.037V54H91.441v-4.963z" fill="#6C5C99"/><rect x="123.496" y="28" width="30.052" height="3" rx="1.5" transform="rotate(-180 123.496 28)" fill="#6C5C99"/><path d="M86.76 54.003A.764.764 0 0 1 87.485 53h40.963c.521 0 .889.509.726 1.003l-1.144 3.472a.764.764 0 0 1-.725.525H88.629a.764.764 0 0 1-.725-.525l-1.144-3.472z" fill="#403366"/><path d="M118.473 18.627l98.169-13.864v29l-98.169-11.448v-3.688z" fill="url(#paint0_linear)" fill-opacity=".7"/><path d="M97.809 18.627L-.361 4.763v29l98.17-11.448v-3.688z" fill="url(#paint1_linear)" fill-opacity=".7"/><ellipse cx="107.969" cy="2.5" rx="2.504" ry="2.5" fill="#6C5C99"/><path d="M105.465 39.005a3.005 3.005 0 1 1 6.01 0V44h-6.01v-4.995zm0 35a3.005 3.005 0 1 1 6.01 0V79h-6.01v-4.995z" fill="#403366"/></g><defs><linearGradient id="paint0_linear" x1="118.473" y1="20.535" x2="211.415" y2="21.027" gradientUnits="userSpaceOnUse"><stop stop-color="#E6004D" stop-opacity="0"/><stop offset=".329" stop-color="#E6004D"/><stop offset="1" stop-color="#E6004C" stop-opacity="0"/></linearGradient><linearGradient id="paint1_linear" x1="97.809" y1="20.535" x2="4.866" y2="21.027" gradientUnits="userSpaceOnUse"><stop stop-color="#E6004D" stop-opacity="0"/><stop offset=".329" stop-color="#E6004D"/><stop offset="1" stop-color="#E6004C" stop-opacity="0"/></linearGradient><clipPath id="clip0"><path fill="#fff" d="M0 0h217v98H0z"/></clipPath></defs></svg>