<svg width="80" height="82" viewBox="0 0 80 82" fill="none" xmlns="http://www.w3.org/2000/svg">
<path d="M39.213 13.8503H49.4868L52.7593 1.77563H39.213V13.8503Z" fill="#8E7CBF"/>
<path d="M39.9259 13.8503H29.9225L26.3796 1.77563H39.9259V13.8503Z" fill="#8E7CBF"/>
<path opacity="0.4" d="M59.3075 8.96479L56.7879 14.1771C70.4528 19.8176 79.8519 32.1324 79.8519 46.4164C79.8519 66.0341 61.9764 81.9375 39.9259 81.9375C17.8755 81.9375 0 66.0341 0 46.4164C0 32.1324 9.39909 19.8176 23.064 14.1771L20.5444 8.96479V8.77174C20.5444 7.59892 29.2218 6.64819 39.9259 6.64819C50.6301 6.64819 59.3075 7.59892 59.3075 8.77174V8.96479Z" fill="#6C5C99"/>
<path opacity="0.7" d="M6.58486 42.6027C6.20594 44.326 5.81519 46.1033 5.81519 47.92C5.81519 63.8126 20.9774 76.696 39.6809 76.696C58.3845 76.696 73.5467 63.8126 73.5467 47.92C73.5467 46.1033 73.4577 43.9848 73.0788 42.2615L6.58486 42.6027Z" fill="url(#paint0_linear)"/>
<path d="M73.08 42.2615C73.08 44.3923 58.608 45.5159 40.1013 45.5159C21.5946 45.5159 6.59204 44.0849 6.59204 42.3197C6.59204 40.5544 21.5946 39.1234 40.1013 39.1234C58.608 39.1234 73.08 40.4962 73.08 42.2615Z" fill="#AC033B"/>
<ellipse rx="2.28526" ry="2.27813" transform="matrix(-1 0 0 1 51.7072 65.2964)" fill="#7F0D46"/>
<ellipse rx="3.94727" ry="3.93495" transform="matrix(-1 0 0 1 37.1643 65.2965)" fill="#7F0D46"/>
<ellipse rx="3.94727" ry="3.93495" transform="matrix(-1 0 0 1 57.9382 54.527)" fill="#7F0D46"/>
<ellipse cx="46.3053" cy="57.0124" rx="2.28526" ry="2.27813" fill="#7F0D46"/>
<path d="M25.0369 21.5842C21.4601 22.7415 18.8752 24.6126 17.0379 26.5108M11.9272 34.4372L13.1481 31.8586" stroke="#B2A1E6" stroke-width="3.32402" stroke-linecap="round" stroke-linejoin="round"/>
<path d="M52.7009 1.77569C52.7009 2.75638 46.7994 3.55138 39.5196 3.55138C32.2398 3.55138 26.3384 2.75638 26.3384 1.77569C26.3384 0.795004 32.2398 0 39.5196 0C51.2759 0 52.7009 0.795004 52.7009 1.77569Z" fill="#403366"/>
<defs>
<linearGradient id="paint0_linear" x1="39.6809" y1="42.6027" x2="39.4784" y2="80.4514" gradientUnits="userSpaceOnUse">
<stop stop-color="#FF0055"/>
<stop offset="1" stop-color="#FF0055" stop-opacity="0"/>
</linearGradient>
</defs>
</svg>
