<svg width="145" height="115" viewBox="0 0 145 115" fill="none" xmlns="http://www.w3.org/2000/svg">
<path d="M31.3221 40.6468L43.3209 42.6803L46.211 43.1701L44.9824 50.3659L33.5329 48.4255C31.5697 63.6754 47.7892 70.5477 56.1444 72.0776L54.6323 80.934C54.6323 80.934 37.4363 75.6115 31.5258 66.8802C27.7881 61.3587 26.2087 52.0748 25.5498 45.8911C25.203 42.6364 28.094 40.0997 31.3221 40.6468Z" fill="#6C5C99"/>
<path d="M114.346 54.717L102.347 52.6835L99.4569 52.1936L98.2283 59.3895L109.678 61.3299C106.47 76.3688 88.8816 77.5115 80.4886 76.203L78.9765 85.0594C78.9765 85.0594 96.9717 85.701 105.447 79.4078C110.807 75.4281 115.379 67.1867 118.053 61.5678C119.461 58.6105 117.574 55.2641 114.346 54.717Z" fill="#6C5C99"/>
<path opacity="0.5" d="M114.346 54.717L102.347 52.6835L99.4569 52.1936L98.2283 59.3895L109.678 61.3299C106.47 76.3688 88.8816 77.5115 80.4886 76.203L78.9765 85.0594C78.9765 85.0594 96.9717 85.701 105.447 79.4078C110.807 75.4281 115.379 67.1867 118.053 61.5678C119.461 58.6105 117.574 55.2641 114.346 54.717Z" fill="#403366"/>
<path d="M44.6549 99.1765C52.8417 98.9237 57.541 92.7033 58.8672 89.6248L65.5368 90.7551L62.7772 106.918L42.546 103.489L44.6549 99.1765Z" fill="#6C5C99"/>
<path d="M82.3384 105.563C74.696 102.627 72.3254 95.209 72.0954 91.8667L65.4258 90.7363L62.6662 106.899L82.8973 110.328L82.3384 105.563Z" fill="#6C5C99"/>
<path opacity="0.5" d="M82.3384 105.563C74.696 102.627 72.3254 95.209 72.0954 91.8667L65.4258 90.7363L62.6662 106.899L82.8973 110.328L82.3384 105.563Z" fill="#403366"/>
<path opacity="0.5" d="M44.6735 99.0657L42.5457 103.489L82.8969 110.328L82.3191 105.674L44.6735 99.0657Z" fill="#403366"/>
<path d="M55.6553 74.2725L80.1105 78.4171L78.7189 86.568C78.1304 90.0146 74.8587 92.335 71.4113 91.7508L59.44 89.7219C55.9927 89.1377 53.6751 85.87 54.2636 82.4234L55.6553 74.2725Z" fill="#6C5C99"/>
<path opacity="0.5" d="M87.5505 76.3746L48.1997 69.7056C48.1997 69.7056 51.1499 74.8374 54.3099 77.4617C58.3373 80.8063 63.6362 82.4595 66.8598 83.0058C70.0835 83.5522 76.3507 83.0196 80.9173 81.0597C84.2484 79.6301 87.5505 76.3746 87.5505 76.3746Z" fill="#403366"/>
<path d="M43.7913 40.5952L101.817 50.4292L100.721 56.8479C97.9858 72.8679 82.7789 83.6533 66.7556 80.9377C50.7322 78.2221 39.9601 63.0339 42.6953 47.0139L43.7913 40.5952Z" fill="#6C5C99"/>
<path opacity="0.5" d="M81.262 49.5655L77.4825 48.925L78.5256 55.187C78.8668 57.2356 78.2811 59.3309 76.9266 60.9076L69.9103 69.0753C69.0813 70.0404 68.5302 71.2125 68.3162 72.466L66.5263 82.9492C66.5263 82.9492 70.8237 83.9053 77.6324 82.2115C84.4411 80.5177 91.4334 73.7292 91.4334 73.7292C91.4334 73.7292 96.597 69.4785 98.7515 63.6926C100.906 57.9067 101.458 52.5326 101.458 52.5326L81.262 49.5655Z" fill="#403366"/>
<path opacity="0.5" d="M99.087 47.0049L47.3199 38.2316C46.1827 38.0389 45.0222 38.4125 44.2104 39.2328C42.1951 41.2692 43.306 44.7276 46.1291 45.206L97.8962 53.9793C100.667 54.449 102.857 51.656 101.737 49.0797C101.261 47.9848 100.265 47.2045 99.087 47.0049Z" fill="#403366"/>
<path d="M100.706 40.331L47.8574 31.3744C44.4939 30.8044 41.3019 33.0683 40.7277 36.431C40.1536 39.7938 42.4148 42.9819 45.7782 43.5519L98.6269 52.5085C101.99 53.0786 105.182 50.8146 105.757 47.4519C106.331 44.0892 104.07 40.901 100.706 40.331Z" fill="#6C5C99"/>
<path opacity="0.5" d="M100.595 40.3121L74.6709 35.9186L72.5917 48.0961L98.5159 52.4896C101.879 53.0597 105.071 50.7957 105.645 47.433C106.22 44.0703 103.958 40.8821 100.595 40.3121Z" fill="#403366"/>
<path d="M45.3573 43.4806L54.6619 32.5276L62.5543 33.8652L53.5832 44.8747L45.3573 43.4806Z" fill="#8E7CBF"/>
<path d="M59.3812 51.7804L73.4068 42.6527L83.2807 55.8308L68.6246 70.661L59.3812 51.7804Z" fill="url(#paint0_linear)"/>
<path opacity="0.2" d="M66.7308 60.3161L75.5628 52.1308L76.9656 53.9632L67.7623 62.3135L66.7308 60.3161Z" fill="#F4F2FF"/>
<path d="M72.4805 48.0773L73.4255 42.5421L83.3917 55.8498L78.6451 56.1844L72.4805 48.0773Z" fill="#E6004C"/>
<path opacity="0.2" d="M75.5631 52.1309L77.892 48.5388L79.3871 50.5008L76.9658 53.9633L75.5631 52.1309Z" fill="#F4F2FF"/>
<path d="M72.4805 48.0773L73.4255 42.5421L59.3811 51.7805L63.7308 53.7707L72.4805 48.0773Z" fill="url(#paint1_linear)"/>
<path opacity="0.5" d="M83.3918 55.8497L78.6453 56.1844L69.3996 66.1222L68.6057 70.7718L83.3918 55.8497Z" fill="url(#paint2_linear)"/>
<path opacity="0.7" d="M59.3621 51.8912L63.7495 53.66L69.3994 66.1222L68.6433 70.5504L59.3621 51.8912Z" fill="url(#paint3_linear)"/>
<path d="M47.3757 49.746C47.1669 54.9883 47.3474 63.9797 55.9265 70.6734" stroke="#8E7CBF" stroke-width="2.26107" stroke-linecap="round"/>
<ellipse rx="1.35294" ry="1.34768" transform="matrix(0.985941 0.167094 -0.168304 0.985735 60.0895 73.0875)" fill="#8E7CBF"/>
<path d="M62.2581 0.151192C58.5971 -0.706889 54.509 2.29639 52.9226 3.90529C55.4853 9.62584 65.3699 16.419 63.7225 14.6313C62.4045 13.2012 62.1971 4.382 62.2581 0.151192Z" fill="#6C5C99"/>
<path d="M12.7956 21.2796C7.8077 22.296 3.90133 16.5622 2.04835 13.9277C2.04835 13.9277 0.195381 15.3981 0.0100837 21.2796C-0.175214 27.1611 2.12247 37.9316 12.7956 33.9616C23.4687 29.9916 29.3488 32.3074 30.9547 33.9616C29.6577 24.0366 24.4642 18.9019 12.7956 21.2796Z" fill="#8E7CBF"/>
<path d="M30.9548 33.9615C29.6577 24.0365 24.4643 18.9019 12.7956 21.2795C11.5688 22.7338 9.85131 27.3062 12.7956 33.9615C23.4688 29.9915 29.3489 32.3074 30.9548 33.9615Z" fill="#6C5C99"/>
<path d="M111.975 28.3439L113.377 22.597L120.785 23.5879L123.789 30.92C124.189 32.7035 124.109 35.7157 122.988 36.6669C121.867 37.6181 115.179 31.5145 111.975 28.3439Z" fill="#6C5C99"/>
<path d="M114.006 16.1745C106.303 14.3318 98.699 22.8484 95.8599 27.3371C117.635 19.541 123.572 27.7505 123.819 32.8298C123.757 28.0458 121.708 18.0172 114.006 16.1745Z" fill="#8E7CBF"/>
<rect width="6.98801" height="2.98528" transform="matrix(0.965439 -0.260629 0.262438 0.964949 1.99707 63.4907)" fill="url(#paint4_linear)"/>
<rect width="12.9807" height="2.98461" transform="matrix(0.996222 -0.0868417 0.0874837 0.996166 131.807 53.8475)" fill="url(#paint5_linear)"/>
<ellipse opacity="0.5" cx="37.3772" cy="14.7077" rx="1.49781" ry="1.49226" fill="#E6004C"/>
<ellipse opacity="0.5" cx="122.321" cy="83.0693" rx="1.49781" ry="1.49226" fill="#E6004C"/>
<ellipse opacity="0.5" cx="80.3826" cy="21.3891" rx="1.49781" ry="1.49226" fill="#E6004C"/>
<ellipse opacity="0.5" cx="16.4758" cy="48.2498" rx="1.49781" ry="1.49226" fill="#E6004C"/>
<ellipse opacity="0.5" cx="93.8628" cy="93.5151" rx="0.99854" ry="0.994841" fill="#E6004C"/>
<ellipse opacity="0.5" cx="96.8584" cy="0.994841" rx="0.99854" ry="0.994841" fill="#E6004C"/>
<defs>
<linearGradient id="paint0_linear" x1="73.1822" y1="43.2981" x2="65.751" y2="87.1463" gradientUnits="userSpaceOnUse">
<stop stop-color="#E6004C"/>
<stop offset="1" stop-color="#E6004C" stop-opacity="0"/>
</linearGradient>
<linearGradient id="paint1_linear" x1="66.7622" y1="50.7533" x2="72.6335" y2="44.3249" gradientUnits="userSpaceOnUse">
<stop stop-color="#E6004C"/>
<stop offset="1" stop-color="#E6004C" stop-opacity="0"/>
</linearGradient>
<linearGradient id="paint2_linear" x1="78.0328" y1="51.3978" x2="74.5778" y2="71.7839" gradientUnits="userSpaceOnUse">
<stop stop-color="#E6004C"/>
<stop offset="1" stop-color="#E6004C" stop-opacity="0"/>
</linearGradient>
<linearGradient id="paint3_linear" x1="65.9968" y1="49.5415" x2="62.6096" y2="69.5278" gradientUnits="userSpaceOnUse">
<stop stop-color="#E6004C"/>
<stop offset="1" stop-color="#E6004C" stop-opacity="0"/>
</linearGradient>
<linearGradient id="paint4_linear" x1="7.66133" y1="2.25493" x2="0.616315" y2="3.45212" gradientUnits="userSpaceOnUse">
<stop stop-color="#E6004C" stop-opacity="0"/>
<stop offset="1" stop-color="#E6004C"/>
</linearGradient>
<linearGradient id="paint5_linear" x1="-1.74214" y1="2.7176" x2="12.855" y2="1.98749" gradientUnits="userSpaceOnUse">
<stop stop-color="#E6004D" stop-opacity="0"/>
<stop offset="1" stop-color="#E6004D"/>
</linearGradient>
</defs>
</svg>
