<svg width="216" height="98" viewBox="0 0 216 98" fill="none" xmlns="http://www.w3.org/2000/svg">
<g clip-path="url(#clip0)">
<path d="M97.4523 26H118.488L127.503 121H89.4375L97.4523 26Z" fill="#8E7CBF"/>
<path d="M125.5 101.5L124 84C124 84 117.068 81.1388 108.27 81.1388C99.4719 81.1388 92.5 84 92.5 84L91 101.5C91 101.5 98.1968 98.7053 108.27 98.7053C118.343 98.7053 125.5 101.5 125.5 101.5Z" fill="#6C5C99"/>
<path d="M123 72L121.5 57C121.5 57 115.89 54.4071 108.27 54.4071C100.649 54.4071 94.947 56.5 94.947 56.5L93.9453 72C93.9453 72 99.5448 69.9321 108.27 69.9321C116.994 69.9321 123 72 123 72Z" fill="#6C5C99"/>
<path d="M121.492 30.1466C121.492 31.1702 120.662 32 119.639 32L97.3006 32C96.277 32 95.4472 31.1702 95.4472 30.1466L95.4472 27L121.492 27L121.492 30.1466Z" fill="#403366"/>
<rect x="100.875" y="14.1824" width="14.5366" height="11.711" fill="#8E7CBF"/>
<path d="M107.266 6.67153C107.659 6.29574 108.279 6.29574 108.672 6.67153L117.651 15.2451C118.316 15.8795 117.867 17 116.948 17H98.9903C98.0717 17 97.6226 15.8795 98.287 15.2451L107.266 6.67153Z" fill="#6C5C99"/>
<path d="M91.4414 49.0367C91.4414 47.9119 92.3533 47 93.4781 47H122.462C123.587 47 124.499 47.9119 124.499 49.0367V54H91.4414V49.0367Z" fill="#6C5C99"/>
<rect x="123.496" y="28" width="30.0519" height="3" rx="1.5" transform="rotate(-180 123.496 28)" fill="#6C5C99"/>
<path d="M86.76 54.0027C86.5972 53.5087 86.9652 53 87.4854 53H128.448C128.969 53 129.337 53.5087 129.174 54.0027L128.03 57.4752C127.927 57.7884 127.634 58 127.305 58H88.6292C88.2995 58 88.0069 57.7884 87.9038 57.4752L86.76 54.0027Z" fill="#403366"/>
<path d="M118.473 18.6266L216.642 4.76257V33.7626L118.473 22.3152V18.6266Z" fill="url(#paint0_linear)" fill-opacity="0.7"/>
<path d="M97.8086 18.6266L-0.361046 4.76257V33.7626L97.8086 22.3152V18.6266Z" fill="url(#paint1_linear)" fill-opacity="0.7"/>
<ellipse cx="107.969" cy="2.5" rx="2.50433" ry="2.5" fill="#6C5C99"/>
<path d="M105.465 39.0052C105.465 37.3455 106.81 36 108.47 36C110.13 36 111.475 37.3455 111.475 39.0052V44H105.465V39.0052Z" fill="#403366"/>
<path d="M105.465 74.0052C105.465 72.3455 106.81 71 108.47 71C110.13 71 111.475 72.3455 111.475 74.0052V79H105.465V74.0052Z" fill="#403366"/>
</g>
<defs>
<linearGradient id="paint0_linear" x1="118.473" y1="20.5345" x2="211.415" y2="21.0271" gradientUnits="userSpaceOnUse">
<stop stop-color="#E6004D" stop-opacity="0"/>
<stop offset="0.329419" stop-color="#E6004D"/>
<stop offset="1" stop-color="#E6004C" stop-opacity="0"/>
</linearGradient>
<linearGradient id="paint1_linear" x1="97.8086" y1="20.5345" x2="4.86607" y2="21.0271" gradientUnits="userSpaceOnUse">
<stop stop-color="#E6004D" stop-opacity="0"/>
<stop offset="0.329419" stop-color="#E6004D"/>
<stop offset="1" stop-color="#E6004C" stop-opacity="0"/>
</linearGradient>
<clipPath id="clip0">
<rect width="217" height="98" fill="white"/>
</clipPath>
</defs>
</svg>
