<svg width="326" height="220" fill="none" xmlns="http://www.w3.org/2000/svg"><path fill-rule="evenodd" clip-rule="evenodd" d="M305.508 117.438a18.155 18.155 0 0 1-.56 2.194l1.9.614c.25-.769.459-1.58.622-2.435l-1.962-.373zm-1.399 4.283c-.34.699-.717 1.346-1.125 1.945l1.653 1.119c.461-.678.888-1.408 1.27-2.196l-1.798-.868zm1.769-8.838c.013.801-.011 1.565-.069 2.294l1.992.157c.062-.795.088-1.622.074-2.483l-1.997.032zm9.813-29.337c-.442.096-.87.2-1.282.314l.531 1.92c.374-.102.765-.198 1.173-.285l-.422-1.949zm-10.082 25.872c.053.393.098.778.135 1.157l1.988-.194c-.04-.403-.087-.813-.143-1.229l-.171-1.25-1.979.27.17 1.246zm-.817-6.268c.092.831.197 1.672.308 2.52l1.981-.259c-.111-.84-.214-1.666-.303-2.479l-1.986.218zm7.095-18.407a13.76 13.76 0 0 0-2.369 1.319l1.148 1.63c.589-.412 1.26-.789 2.025-1.124l-.804-1.825zm-7.431 13.279c.004.843.041 1.704.102 2.579l1.993-.139a37.763 37.763 0 0 1-.097-2.45l-1.998.01zm3.008-10.115a10.806 10.806 0 0 0-1.524 2.31l1.793.878a8.846 8.846 0 0 1 1.244-1.887l-1.513-1.301zm-2.452 4.87a17.632 17.632 0 0 0-.444 2.628l1.988.192c.08-.82.208-1.6.393-2.334l-1.937-.486z" fill="#6C5C99"/><ellipse rx="1.995" ry="2.743" transform="matrix(-.72617 .68751 .6893 .72447 317.21 81.798)" fill="#6C5C99"/><ellipse rx="1.997" ry="2.741" transform="rotate(-156.763 167.953 10.667) skewX(-.103)" fill="#6C5C99"/><rect width="2.491" height="7.99" rx="1.246" transform="matrix(-.17592 -.9844 -.98455 .17508 322.16 84.62)" fill="#403366"/><rect y="21.35" width="286.09" height="165.403" rx="2.088" fill="#332E4D"/><path fill="#403366" d="M177.924 212.167h-57.22v-22.961h57.22z"/><path fill="#161326" d="M120.705 212.167h-7.518v-22.961h7.518z"/><path d="M72.673 218.432a6.265 6.265 0 0 1 6.265-6.265h129.26a6.265 6.265 0 0 1 6.265 6.265v1.234H72.673v-1.234z" fill="#201C33"/><rect x="6.265" y="21.35" width="286.09" height="165.403" rx="2.088" fill="#403366"/><path fill="#161326" d="M13.956 28.321h270.895V180.57H13.956z"/><rect x="25.394" y="38.867" width="94.754" height="112.995" rx="2.154" fill="#F4F2FF"/><rect x="60.28" y="108.038" width="53.838" height="37.808" rx="1.292" fill="#E6004C"/><path fill="#F4F2FF" d="M73.474 132.984l1.218 1.219-5.491 5.491-1.219-1.218z"/><path fill="#F4F2FF" d="M69.2 132.984l-1.218 1.218 5.491 5.492 1.219-1.219z"/><path d="M35.299 61.934v18.605c0 .476.386.862.861.862h77.096a.86.86 0 0 0 .861-.862V63.8a.861.861 0 0 0-1.381-.686l-14.955 11.33a.861.861 0 0 1-1.338-.417l-1.941-5.873a.861.861 0 0 0-1.192-.505l-10.683 5.149a.861.861 0 0 1-1.2-.532l-1.702-5.749a.861.861 0 0 0-1.34-.446l-10.091 7.525a.861.861 0 0 1-1.192-.158l-7.434-9.43a.861.861 0 0 0-1.251-.108l-10.688 9.59a.861.861 0 0 1-1.246-.101L36.83 61.394c-.51-.633-1.532-.273-1.532.54z" fill="#E6004C"/><ellipse cx="112.179" cy="48.104" rx="1.938" ry="1.933" fill="#E6004C"/><ellipse cx="106.158" cy="48.104" rx="1.938" ry="1.933" fill="#E6004C"/><ellipse cx="100.12" cy="48.104" rx="1.938" ry="1.933" fill="#E6004C"/><rect x="40.898" y="47.03" width="20.674" height="2.578" rx="1.289" fill="#E6004C"/><path d="M31.423 86.127V59.706a.646.646 0 1 1 1.292 0v25.111h80.748a.655.655 0 1 1 0 1.31h-82.04z" fill="#E6004C"/><rect x="31.423" y="89.564" width="25.411" height="15.037" rx="1.292" fill="#E6004C"/><rect x="60.28" y="89.564" width="24.981" height="15.037" rx="1.292" fill="#E6004C"/><rect x="88.706" y="89.564" width="25.411" height="15.037" rx="1.292" fill="#E6004C"/><rect x="31.423" y="108.038" width="25.411" height="37.808" rx="1.292" fill="#E6004C"/><path d="M34.162 46.72l-1.275-.98.172 1.994-.534.756.242.722c.258.103.5.24.706.43.034-.206.069-.55.103-.688l-.413.086c.138-.842.5-1.632 1-2.32z" fill="#E6004C"/><path d="M34.592 48.662l-.982-.498c.207.533.276.602.982.498zm2.12-.928l.173-1.993c-1.206.91-1.585 1.048-2.033 2.182l.62-.12c-.775.808-1.24 1.89-1.327 2.733l.156.36h1.188c.19-.43.466-1.288 1.516-1.684l.242-.722-.535-.756zm-1.826 2.75l-.379-.55h.758l-.379.55zm.276-1.822l.982-.498c-.207.533-.276.601-.982.498z" fill="#E6004C"/><path d="M79.11 136.18c1.135.045 2.684.185 4.313.077m8.41-8.24c-.178 1.56-.544 2.832-1.048 3.867m14.633-16.541c-2.014.243-2.7.409-4.528 1.045M85.795 135.89c1.337-.35 2.62-.978 3.666-2.075m2.738-7.946c.366-1.578.917-2.927 1.617-4.082m1.467-1.932c1.11-1.179 2.428-2.077 3.882-2.765" stroke="#F4F2FF" stroke-width="1.723"/><path d="M41.76 99.876V94.29l4.744 2.94-4.744 2.646zm28.426 0V94.29l4.744 2.94-4.745 2.646zm28.857 0V94.29l4.744 2.94-4.744 2.646z" fill="#F4F2FF"/><ellipse cx="36.806" cy="117.706" rx="1.077" ry="1.074" fill="#F4F2FF"/><ellipse cx="36.806" cy="124.151" rx="1.077" ry="1.074" fill="#F4F2FF"/><rect x="40.036" y="123.077" width="12.06" height="2.148" rx="1.074" fill="#F4F2FF"/><rect x="40.036" y="116.632" width="12.06" height="2.148" rx="1.074" fill="#F4F2FF"/><ellipse cx="36.806" cy="130.595" rx="1.077" ry="1.074" fill="#F4F2FF"/><rect x="40.036" y="129.521" width="12.06" height="2.148" rx="1.074" fill="#F4F2FF"/><ellipse cx="36.806" cy="137.04" rx="1.077" ry="1.074" fill="#F4F2FF"/><rect x="40.036" y="135.966" width="12.06" height="2.148" rx="1.074" fill="#F4F2FF"/><path d="M140.145 41.313l7.495 5.931c-2.937 4.163-5.064 8.95-5.874 14.048l2.43-.52c-.121.5-.243 1.449-.364 2.398a58.056 58.056 0 0 1-.243 1.765c-1.216-1.145-2.633-1.977-4.153-2.602l-1.417-4.37 3.139-4.58-1.013-12.07z" fill="#D3CFE5"/><path d="M150.172 59.003l-5.773-3.018c1.215 3.226 1.62 3.642 5.773 3.018z" fill="#D3CFE5"/><path fill-rule="evenodd" clip-rule="evenodd" d="M163.642 41.313l-1.013 12.07 3.14 4.58-1.418 4.37c-5.628 2.18-7.474 6.692-8.6 9.445-.11.27-.214.521-.313.753h-6.988l-.911-2.185c.506-5.1 3.241-11.655 7.798-16.546l-3.646.728c2.241-5.844 4.188-7.318 9.087-11.026.858-.65 1.807-1.367 2.864-2.19zm-13.977 25.39l2.229 3.33 2.228-3.33h-4.457zm3.849-7.7l5.773-3.018c-1.216 3.226-1.621 3.642-5.773 3.018z" fill="#D3CFE5"/><path fill="#201C33" stroke="#332E4C" stroke-width=".42" d="M130.532 61.532h16.395v16.354h-16.395z"/><path d="M136.58 65.706l1.147 1.564c-3.866 2.68-2.09 6.202-.248 7.258-1.746-2.321.804-4.739 1.937-5.211l1.5 1.815.853-5.426h-5.189z" fill="#E6004C"/><path d="M214.988 21.35c3.778-9.75 13.275-16.665 24.394-16.665 2.197 0 4.331.27 6.37.778A26.087 26.087 0 0 0 231.018.935c-12.498 0-22.947 8.738-25.528 20.415h9.498z" fill="#201C33"/><path d="M227.463 100.51h-5.019a2.504 2.504 0 0 0-2.509 2.5 2.504 2.504 0 0 0 2.509 2.499h5.019v-4.999z" fill="#251F48"/><path d="M252.138 88.545c5.901-2.955 10.037-9.823 10.037-17.825 0-8-4.136-14.869-10.037-17.824v-1.549h-6.273v.002l-.21-.002c-9.123 0-16.519 8.674-16.519 19.373 0 10.7 7.396 19.374 16.519 19.374.07 0 .14 0 .21-.002v.002h6.273v-1.549z" fill="#201C33"/><path d="M236.204 105.509h-9.629a2.5 2.5 0 1 1 0-4.999h9.629c6.968 0 12.692-5.306 13.325-12.083h5.034c-.645 9.542-8.618 17.082-18.359 17.082z" fill="#403366"/><ellipse cx="251.929" cy="70.721" rx="16.52" ry="19.373" fill="#403366"/><path d="M263.963 70.72c0 8.083-5.461 14.372-11.903 14.372s-11.903-6.29-11.903-14.371c0-8.082 5.461-14.372 11.903-14.372s11.903 6.29 11.903 14.372z" fill="#161326" stroke="#5F5980" stroke-width="1.671"/><path d="M242.244 16.637c2.715 4.594 3.988 11.255 3.988 14.285v39.802c0 2.307 1.887 4.177 4.194 4.177s4.193-1.87 4.193-4.177V27.152c0-1.666-1.426-9.98-1.724-11.56l-10.651 1.045z" fill="#161326"/><path d="M222.488 4.695c-2.189 0-4.107.313-6.138.823 4.179-2.865 9.026-4.583 14.471-4.583 14.383 0 26.042 11.691 26.042 26.113v43.464a4.167 4.167 0 0 1-8.333 0V30.81c0-14.422-11.66-26.114-26.042-26.114z" fill="#403366"/><path fill-rule="evenodd" clip-rule="evenodd" d="M239.187 12.558c-3.226-3.584-8.16-6.763-15.548-6.563-5.426.147-9.428 2.67-12.256 5.846-2.845 3.196-4.442 6.787-5.057 9.397h-2.089c.683-2.898 2.479-7.295 5.587-10.786 3.126-3.511 7.64-6.378 13.759-6.544 8.113-.22 13.604 3.307 17.156 7.253 3.527 3.918 5.409 8.566 5.891 10.077h-2.506a23.57 23.57 0 0 0-4.937-8.68z" fill="#161326"/><rect x="215.096" y="98.708" width="16.289" height="8.771" rx="4.385" fill="#0D0A1A"/><rect x="213.472" y="98.708" width="15.454" height="8.771" rx="4.385" fill="#201C33"/><path d="M79.052 218.432a6.265 6.265 0 0 1 6.265-6.265h129.26a6.265 6.265 0 0 1 6.265 6.265v1.234H79.052v-1.234z" fill="#403366"/><path d="M287.862 195.314h29.936v24.392h-29.936v-24.392z" fill="#6C5C99"/><path fill="#332E4D" d="M300.798 156.467h3.696v31.456h-3.696z"/><path d="M317.647 172.296c3.811-3.385 4.074-9.296 4.074-9.296s-5.917-.422-9.729 2.963c-3.811 3.385-4.074 9.296-4.074 9.296s5.917.422 9.729-2.963z" fill="#403366"/><path d="M307.92 175.258c.15.01 5.963.378 9.726-2.964 3.753-3.333 4.065-9.117 4.073-9.292l-13.799 12.256zm-19.952-2.962c-3.812-3.385-4.074-9.296-4.074-9.296s5.917-.422 9.728 2.963c3.812 3.385 4.074 9.296 4.074 9.296s-5.917.422-9.728-2.963z" fill="#6C5C99"/><path d="M297.694 175.258c-.15.01-5.963.378-9.726-2.964-3.753-3.333-4.065-9.117-4.073-9.292l13.799 12.256z" fill="#201C33"/><path fill-rule="evenodd" clip-rule="evenodd" d="M302.493 139.611c0 .035.038.056.068.038a.044.044 0 0 1 .047 0 .045.045 0 0 0 .069-.038v-.007a.05.05 0 0 1 .023-.042l15.464-9.612c.98-.609 2.278-.181 2.57.934.396 1.515.607 3.104.607 4.742 0 10.308-8.356 18.664-18.663 18.664-10.308 0-18.664-8.356-18.664-18.664 0-1.599.201-3.152.579-4.633.287-1.122 1.589-1.555 2.572-.944l15.305 9.514a.049.049 0 0 1 .023.041v.007z" fill="#332E4C"/><mask id="a" maskUnits="userSpaceOnUse" x="284" y="128" width="38" height="27"><path fill-rule="evenodd" clip-rule="evenodd" d="M302.493 139.322l.091-.058.093.058v-.115l17.249-10.723a18.606 18.606 0 0 1 1.415 7.142c0 10.307-8.356 18.663-18.663 18.663-10.308 0-18.664-8.356-18.664-18.663 0-2.495.489-4.875 1.377-7.05l17.102 10.631v.115z" fill="#7360AC"/></mask><g mask="url(#a)" fill="#8E7CBF"><circle cx="309.779" cy="151.518" r="3.141"/><circle cx="318.648" cy="144.866" r="3.141"/><circle cx="287.973" cy="145.604" r="3.141"/><circle cx="300.355" cy="148.376" r="2.957"/><circle cx="294.996" cy="137.474" r="3.881"/><circle cx="311.073" cy="138.028" r="3.696"/></g><path d="M303.409 144.437l18.453-10.844c-.192-1.419-.907-3.014-1.312-3.976l-17.9 10.279v.11l-.096-.055-.096.055v-.11l-18.055-10.368c-.436 1.022-1.119 2.592-1.347 3.696l18.458 11.2a1.848 1.848 0 0 0 1.895.013z" fill="#100B26"/><path d="M292.995 123.989l-4.3 3.523 3.511 2.212 1.381-5.357a.37.37 0 0 0-.592-.378zm4.435 4.069l-3.191 2.662 2.759 1.769 1.027-4.057a.37.37 0 0 0-.595-.374zm14.808-4.069l4.3 3.523-3.511 2.212-1.381-5.357a.37.37 0 0 1 .592-.378zm-4.435 4.069l3.191 2.662-2.759 1.769-1.027-4.057a.37.37 0 0 1 .595-.374z" fill="#B2ADCC"/><path d="M282.969 127.065a2.771 2.771 0 0 1 3.825-.856l15.783 10.013 15.782-10.013a2.771 2.771 0 1 1 2.97 4.682l-17.164 10.889a2.763 2.763 0 0 1-1.588.43 2.764 2.764 0 0 1-1.589-.43l-17.164-10.889a2.773 2.773 0 0 1-.855-3.826zm1.197 59.748h36.589v6.283h-36.589v-6.283z" fill="#6C5C99"/><path fill="#332E4D" d="M287.862 195.314h5.544v24.392h-5.544zm-3.696-8.501h5.544v6.283h-5.544z"/></svg>