<svg width="90" height="90" fill="none" xmlns="http://www.w3.org/2000/svg"><path fill-rule="evenodd" clip-rule="evenodd" d="M58.867 42.5c.356-1.168.96-4.378 1.008-6.667.036-1.535-.225-3.848-.57-5.913a46.113 46.113 0 0 0-.545-2.726c-.308-1.334-1.126-3.576-2.23-5.406-.747-1.227-1.612-2.183-2.538-2.903a16.215 16.215 0 0 0-4.044-2.278 16.457 16.457 0 0 0-2.17-.649c-1.791-.413-3.95-.39-5.824 0-.676.154-1.423.378-2.158.661a16.217 16.217 0 0 0-4.044 2.278c-.925.72-1.791 1.676-2.538 2.903-1.104 1.83-1.922 4.072-2.242 5.394-.166.743-.38 1.71-.546 2.726-.356 2.053-.616 4.366-.58 5.9.047 2.29.651 5.5 1.007 6.669.166.543.985 2.36 1.898 3.977a50.652 50.652 0 0 0 2.182 3.458l3.12 4.343s2.146 2.702 4.518 3.883c.724.318 1.518.543 2.325.543.77 0 1.553-.225 2.265-.543 2.384-1.18 4.519-3.883 4.519-3.883l3.107-4.331s1.139-1.63 2.182-3.458c.914-1.617 1.732-3.435 1.898-3.977zm-20.115-1.9c.866.756 1.578 1.676 2.159 2.632 1.456 2.368 2.15 4.886 2.431 5.908.063.227.105.38.13.442-.343.035-1.968.177-3.89-.402-1.565-.472-3.344-1.51-4.684-2.82a10.423 10.423 0 0 1-2.68-4.438c-.499-1.711-.487-3.434-.463-4 .283.148.668.194 1.167.254.648.078 1.49.18 2.557.56 1.079.39 2.538 1.239 3.273 1.864zm18.06-2.424c.5-.06.882-.106 1.166-.255.035.567.047 2.302-.451 4.001-.486 1.64-1.459 3.258-2.68 4.438-1.353 1.31-3.12 2.337-4.685 2.809-1.922.578-3.546.436-3.89.4.02-.055.056-.186.107-.377.263-.978.955-3.551 2.443-5.96.58-.956 1.28-1.888 2.158-2.632.736-.625 2.194-1.475 3.274-1.864 1.071-.38 1.912-.482 2.559-.56zM4.831 68.672h-.9l-2.248 4.947h.9l.764-1.691h2.069l.81 1.691h.899L4.83 68.672zm-1.17 2.537l.72-1.522.675 1.522H3.662z" fill="#B2ADCC"/><path d="M12.792 68.714h.72V72.9h3.418l-.765.634h-3.373v-4.82zm9.76 0h.855v4.82h-.855v-4.82zm9.94 2.072l-.72.634h-1.35v-.634h2.07z" fill="#B2ADCC"/><path d="M29.164 73.577h3.778v-.72h-2.969v-3.424h2.969v-.719h-3.778v4.863zm58.379-2.791l-.675.634h-1.35v-.634h2.025zM56.42 68.714l-1.215 3.763-1.44-3.467-.09-.296h-.54l-.134.296-1.44 3.51-1.214-3.806h-.764l1.574 4.863h.765l1.484-3.637 1.484 3.594v.043h.765v-.043l1.529-4.82h-.765z" fill="#B2ADCC"/><path fill-rule="evenodd" clip-rule="evenodd" d="M65.055 68.672h.9l2.338 4.947h-.9l-.81-1.691h-2.068l-.765 1.691h-.9l2.205-4.947zm.45 1.015l-.675 1.522h1.394l-.72-1.522z" fill="#B2ADCC"/><path d="M77.917 71.23h.001a.62.62 0 0 0 .09-.063c.225-.254.405-.592.405-.973 0-.719-.54-1.438-1.53-1.438h-2.878v4.863h.765v-4.228h2.114c.63 0 .9.422.9.845 0 .212-.09.423-.226.592-.135.17-.36.254-.63.254H74.95v.592h1.529l1.259 1.987h.81l-1.305-2.114c.225-.042.45-.169.585-.254a.61.61 0 0 1 .089-.062zm-38.139-2.516l3.283 3.933v-3.933h.764v4.863h-.764l-3.283-3.933v3.933h-.81v-4.863h.81zm48.26 0h-3.823v4.863h3.823v-.72h-2.969v-3.424h2.969v-.719z" fill="#B2ADCC"/></svg>