<svg width="90" height="90" fill="none" xmlns="http://www.w3.org/2000/svg"><path d="M74.365 60.379c-1.472-.384-3.112-.288-4.487.408-1.568.767-2.677 2.327-2.943 4.03-.169 1.247-.072 2.543.507 3.67a5.497 5.497 0 0 0 3.69 2.903c.58-1.032 1.158-2.04 1.689-3.095-.676-.072-1.4-.216-1.882-.72-.554-.6-.651-1.51-.506-2.278.217-.984 1.182-1.68 2.17-1.68.99-.048 1.979.624 2.244 1.608.265.84-.097 1.703-.482 2.422a1106.788 1106.788 0 0 0-5.114 9.092c1.326 0 2.677.024 4.004 0 .989-1.727 1.93-3.478 2.894-5.205.7-1.32 1.496-2.567 2.002-3.983.459-1.247.362-2.638-.072-3.862a5.502 5.502 0 0 0-3.714-3.31zm1.567-9.596c2.292-2.927 3.16-6.885 2.364-10.507-.796-3.79-3.425-7.125-6.923-8.804-3.835-1.943-8.635-1.751-12.35.408-3.136 1.775-5.427 4.942-6.15 8.468 2.484 1.223 5.017 2.375 7.55 3.55-.242-1.583.216-3.262 1.326-4.438a5.254 5.254 0 0 1 4.125-1.655c1.543.096 3.063.888 3.956 2.16a5.122 5.122 0 0 1 .916 3.813c-.241 1.608-1.302 3.047-2.75 3.79a5.265 5.265 0 0 1-3.618.456c-.748-.168-1.423-.551-2.123-.863-4.245-2.015-8.514-3.958-12.76-5.998 2.123-4.461 4.27-8.9 6.393-13.361 1.664-3.167 1.785-7.077.482-10.388-1.206-3.094-3.69-5.685-6.73-7.029-2.484-1.127-5.33-1.415-8.008-.863-2.774.576-5.38 2.063-7.212 4.222-2.003 2.303-3.136 5.326-3.112 8.372a13.081 13.081 0 0 0 2.653 7.749c1.858 2.447 4.656 4.198 7.695 4.798.217-.384.386-.768.579-1.152.989-2.111 2.026-4.198 2.99-6.31-.675.073-1.374.097-2.05-.071-1.35-.312-2.58-1.176-3.304-2.351-.772-1.247-.989-2.83-.53-4.222.482-1.56 1.736-2.855 3.304-3.359a5.366 5.366 0 0 1 3.908.192c1.35.624 2.412 1.848 2.822 3.263a5.079 5.079 0 0 1-.217 3.43c-2.195 4.582-4.366 9.188-6.585 13.746-4.825-2.207-9.6-4.51-14.4-6.74-4.029-1.704-8.926-1.128-12.471 1.415a12.75 12.75 0 0 0-5.042 7.364c-.723 2.855-.41 5.925.844 8.588 1.279 2.735 3.57 4.966 6.32 6.213 2.678 1.224 5.813 1.488 8.66.744 3.473-.864 6.537-3.262 8.2-6.429.556-1.08 1.038-2.207 1.207-3.43-2.509-1.152-4.993-2.351-7.502-3.503.049.552.097 1.128 0 1.68-.217 1.343-.965 2.614-2.098 3.406a5.317 5.317 0 0 1-4.197.887 5.291 5.291 0 0 1-3.33-2.303c-.65-1.007-.94-2.254-.747-3.454.217-1.631 1.279-3.143 2.774-3.886a5.264 5.264 0 0 1 3.618-.456c.603.144 1.158.432 1.713.696 11.047 5.181 22.07 10.363 33.094 15.545.724.311 1.4.72 2.147.96 1.35.455 2.774.719 4.173.695 4.028.072 7.984-1.871 10.396-5.038zM17.704 62.85c.65.335 1.085.96 1.399 1.607h3.015c-.241-1.415-1.158-2.639-2.316-3.455-1.568-1.055-3.642-1.271-5.403-.647a5.727 5.727 0 0 0-3.256 2.878 5.8 5.8 0 0 0-.025 5.014c.604 1.248 1.665 2.28 2.943 2.807 1.737.743 3.811.648 5.452-.312a5.595 5.595 0 0 0 2.629-3.574h-3.015c-.386.791-1.037 1.511-1.93 1.75-1.061.313-2.291-.071-2.967-.935-1.085-1.271-1.061-3.358.12-4.582.797-.911 2.268-1.175 3.354-.551zm8.635 6.045v-8.9c-1.013 0-2.002-.024-3.015.024.024 3.838 0 7.676 0 11.515h6.44c.024-.864 0-1.751 0-2.615-1.133-.024-2.291-.024-3.425-.024zm37.219-7.509c-1.013-1.007-2.46-1.343-3.86-1.367-1.495-.024-2.99 0-4.486-.024-.024 3.838 0 7.7 0 11.539h4.125c1.568 0 3.232-.36 4.39-1.464 1.182-1.103 1.616-2.782 1.568-4.366.048-1.607-.555-3.238-1.737-4.318zm-1.52 5.998c-.24.647-.796 1.2-1.495 1.391-.748.24-1.544.144-2.316.144v-6.333c.94.024 1.978-.12 2.822.408.724.407 1.11 1.247 1.206 2.039.121.767.073 1.607-.217 2.35zm-10.902-7.365v8.9c-1.11.024-2.244 0-3.353 0-.386 0-.844-.048-1.134-.36-.458-.432-.482-1.103-.506-1.68-.025-2.302 0-4.581 0-6.884h-2.967v6.573c0 .888 0 1.823.41 2.663.386.743.965 1.415 1.736 1.799.941.456 2.002.552 3.04.504h5.427V60.019a24.458 24.458 0 0 0-2.653 0zm-12.254.576c-1.206-.6-2.63-.744-3.956-.504a5.583 5.583 0 0 0-3.377 2.039c-.892 1.031-1.278 2.423-1.278 3.766a5.41 5.41 0 0 0 1.616 3.862c1.254 1.296 3.136 1.92 4.92 1.728 1.713-.144 3.353-1.08 4.318-2.495 1.013-1.44 1.255-3.359.724-5.038-.482-1.44-1.592-2.687-2.967-3.358zm-.048 6.717c-.362.72-.99 1.343-1.785 1.559-1.086.36-2.34 0-3.088-.864-1.061-1.2-1.11-3.166-.12-4.438.434-.528 1.037-.911 1.712-1.031.869-.168 1.81.048 2.46.647 1.207.984 1.52 2.783.82 4.127z" fill="#B2ADCC"/></svg>