<svg width="116" height="86" fill="none" xmlns="http://www.w3.org/2000/svg"><path d="M50.478 22.447c2.369-6.127 8.324-10.473 15.296-10.473 1.378 0 2.716.17 3.994.49a16.333 16.333 0 0 0-9.239-2.846c-7.836 0-14.388 5.49-16.007 12.83h5.956z" fill="#332E4D"/><path d="M58.3 72.193h-3.146a1.572 1.572 0 0 0 0 3.142h3.147v-3.142z" fill="#403366"/><path d="M63.781 75.335h-6.034a1.57 1.57 0 1 1 0-3.142h6.034c4.37 0 7.959-3.334 8.355-7.593h3.157c-.404 5.996-5.404 10.735-11.512 10.735z" fill="#5F5980"/><ellipse cx="57.486" cy="41.167" rx="24.487" ry="24.48" fill="#8E7CBF"/><mask id="a" maskUnits="userSpaceOnUse" x="32" y="16" width="50" height="50"><ellipse cx="57.486" cy="41.167" rx="24.487" ry="24.48" fill="#201C33"/></mask><g mask="url(#a)" fill="#403366"><rect x="24.837" y="31.55" width="25.653" height="9.617" rx="4.809"/><rect x="32.214" y="54.913" width="25.665" height="7.069" rx="3.535"/><rect x="64.191" y="46.996" width="25.653" height="9.617" rx="4.809"/><rect x="60.983" y="19.893" width="25.653" height="9.617" rx="4.809"/><rect x="16.239" y="39.989" width="25.653" height="5.537" rx="2.769"/><rect x="73.81" y="42.916" width="25.653" height="5.537" rx="2.769"/></g><path d="M73.771 64.674c3.7-1.857 6.294-6.173 6.294-11.201 0-5.028-2.593-9.344-6.294-11.202v-.973h-3.933v.001h-.131c-5.721 0-10.359 5.45-10.359 12.174 0 6.724 4.638 12.174 10.359 12.174h4.064v-.973z" fill="#332E4D"/><ellipse cx="73.641" cy="53.473" rx="10.358" ry="12.175" fill="#5F5980"/><path d="M81.19 53.473c0 5.081-3.427 9.035-7.466 9.035-4.04 0-7.467-3.954-7.467-9.035 0-5.082 3.427-9.035 7.466-9.035 4.04 0 7.467 3.953 7.467 9.035z" fill="#161326" stroke="#E6004C" stroke-width="1.043"/><path d="M67.569 19.436c1.702 2.88 2.5 7.056 2.5 8.955v24.95a2.628 2.628 0 0 0 2.63 2.62 2.627 2.627 0 0 0 2.63-2.62V26.029c0-1.045-.895-6.256-1.082-7.246l-6.678.654z" fill="#161326"/><path d="M55.18 11.981c-1.372 0-2.575.196-3.849.517 2.621-1.8 5.66-2.88 9.075-2.88 9.018 0 16.329 7.347 16.329 16.41v27.326a2.612 2.612 0 0 1-2.613 2.606 2.612 2.612 0 0 1-2.612-2.606V28.39c0-9.063-7.311-16.41-16.33-16.41z" fill="#5F5980"/><rect x="48.161" y="70.884" width="10.214" height="5.498" rx="2.749" fill="#0D0A1A"/><rect x="47.142" y="70.884" width="9.69" height="5.498" rx="2.749" fill="#332E4D"/><path fill-rule="evenodd" clip-rule="evenodd" d="M65.652 16.88c-2.023-2.247-5.117-4.24-9.75-4.115-3.402.093-5.911 1.673-7.684 3.665-1.785 2.003-2.786 4.254-3.172 5.89h-1.31c.43-1.816 1.555-4.572 3.504-6.76 1.96-2.202 4.79-4 8.627-4.103 5.087-.138 8.53 2.073 10.758 4.546 2.212 2.456 3.392 5.37 3.694 6.317h-1.572a14.778 14.778 0 0 0-3.095-5.44z" fill="#161326"/><path d="M44 20.745l2.488-1.44c-.219 1.222-.655 3.692-.655 3.797 0 .104-1.833.043-2.75 0L44 20.745z" fill="#797399"/></svg>