<svg width="121" height="86" fill="none" xmlns="http://www.w3.org/2000/svg"><g clip-path="url(#clip0)"><path d="M59.632 35.45l9.225-11.115-13.337-11.07-5.789 6.973 9.9 15.211z" fill="#8E7CBF"/><path d="M71.424 44.612l9.226-11.115 13.337 11.07-5.811 7.003-16.752-6.958z" fill="#6C5C99"/><rect x="87.222" y="52.718" width="12.037" height="2.889" rx="1.444" transform="rotate(-50.306 87.222 52.718)" fill="#8E7CBF"/><rect x="46.532" y="19.57" width="12.037" height="2.889" rx="1.444" transform="rotate(-50.306 46.532 19.57)" fill="#B2A1E6"/><path d="M59.632 35.45l9.437-11.37L91.804 6.35c.564-.44 1.491-.527 2.047-.066L65.56 40.369l-5.928-4.92z" fill="#8E7CBF"/><path d="M71.487 45.29l9.433-11.364 13.256-25.58c.351-.677.23-1.6-.325-2.061L65.56 40.37l5.927 4.92z" fill="#6C5C99"/><path d="M67.364 48.75l14.145-17.042a2.408 2.408 0 0 1 3.705 3.075L71.07 51.825l-3.705-3.075z" fill="#8E7CBF"/><path d="M53.285 37.064l14.146-17.042a2.407 2.407 0 0 1 3.705 3.075L56.99 40.14l-3.705-3.076z" fill="#B2A1E6"/><path d="M64.1 50.42l3.264-1.67 3.704 3.075-1.04 3.516-5.928-4.92zM50.021 38.735l3.264-1.67 3.705 3.075-1.041 3.516-5.928-4.92z" fill="#6C5C99"/><path d="M74.163 26.235l3.229-3.89a2.648 2.648 0 1 1 4.075 3.383l-3.229 3.89-4.075-3.383z" fill="#161326"/><path d="M91.651 13.22l-4.189-3.478 4.219-3.467c.533-.416 1.474-.568 2.17.01s.726 1.469.403 2.135l-2.603 4.8z" fill="#403366"/><path opacity=".2" fill="#F05" d="M65.211 51.343l3.705 3.075-43.667 52.609-3.705-3.075zM51.133 39.658l3.705 3.075L11.17 95.342l-3.705-3.076z"/><path d="M49.6 42.258c.712-.857 1.952-1.001 2.77-.322.819.68.905 1.925.194 2.782-.71.856-4.3 2.164-4.187 2.03 0 0 .512-3.634 1.223-4.49z" fill="#F05"/><ellipse cx="51.156" cy="43.432" rx=".964" ry=".941" transform="rotate(-138.972 51.156 43.432)" fill="#B2A1E6"/><path d="M63.679 53.943c.711-.856 1.951-1 2.77-.321.818.68.905 1.925.194 2.781-.712.857-4.3 2.165-4.188 2.03 0 0 .513-3.633 1.224-4.49z" fill="#F05"/><circle cx="65.218" cy="55.104" r=".963" transform="rotate(-140.306 65.218 55.104)" fill="#B2A1E6"/></g><defs><clipPath id="clip0"><path fill="#fff" d="M0 0h104v77.037H0z"/></clipPath></defs></svg>