<svg width="116" height="86" fill="none" xmlns="http://www.w3.org/2000/svg"><g clip-path="url(#clip0)"><path d="M92.902 33.547L76.939 49.032l-1.611 1.556H24.801l16.842-17.04h51.258z" fill="#E6004C"/><path d="M42.231 33.535l-1.525 1.48-15.683 15.32c-1.452-2.96-2.396-6.735-2.396-10.88 0-8.585 3.775-15.69 8.713-16.874.508-.074.944-.148 1.452-.148.654 0 1.38.074 2.033.296 3.413 1.184 6.172 5.329 7.406 10.806z" fill="#201C33"/><path d="M92.902 33.547L76.94 49.032l-1.391 1.334c-1.465-2.964-2.416-6.742-2.416-10.892 0-1.555.146-3.037.366-4.445.073-.519.146-1.037.293-1.482h19.111z" fill="#7F0D46"/><path d="M42.226 33.652c-1.18-5.535-4.128-9.723-7.593-10.92-.663-.224-1.4-.299-2.063-.299h50.86c.221 0 .516 0 .737.075 4.128.449 7.593 5.01 8.92 11.144H42.226zm50.676 16.936h-68.1v20.745h68.1V50.588z" fill="#6C5C99"/><path d="M46.038 50.588H24.802v20.745h21.236V50.588z" fill="#201C33"/><path d="M38.538 50.623c6.492-6.73 24.56-16.15 44.891 0H38.538z" fill="#A34857"/></g><g clip-path="url(#clip1)" fill="#201C33"><path d="M68.087 61.674c1.726 0 3.126-1.444 3.126-3.224 0-1.781-1.4-3.225-3.126-3.225s-3.125 1.444-3.125 3.225c0 1.78 1.4 3.224 3.125 3.224z"/><path d="M68.087 61.1v5.919h-2.611l1.284-6.273 1.327.354zm0 0v5.919h2.569l-1.284-6.273-1.285.354z"/></g><path d="M93.111 50.623L109 14.667H7l18.017 35.956H93.11z" fill="url(#paint0_linear)"/><defs><linearGradient id="paint0_linear" x1="62.83" y1="49.328" x2="65.493" y2="10.801" gradientUnits="userSpaceOnUse"><stop stop-color="#E6004D" stop-opacity=".47"/><stop offset="1" stop-color="#141126" stop-opacity="0"/></linearGradient><clipPath id="clip0"><path fill="#fff" transform="translate(13.818 22.433)" d="M0 0h90.067v48.9H0z"/></clipPath><clipPath id="clip1"><path fill="#fff" transform="translate(64.393 54.362)" d="M0 0h7.103v13.52H0z"/></clipPath></defs></svg>