<svg width="124" height="86" fill="none" xmlns="http://www.w3.org/2000/svg"><g clip-path="url(#clip0)"><path d="M55.899 52.871a1.923 1.923 0 0 1 3.465-1.666l2.11 4.389a1.923 1.923 0 0 1-3.464 1.667l-2.111-4.39z" fill="#797399"/><path d="M39.457 61.055a6.1 6.1 0 0 1 3.38-6.452c3.682-1.771 8.03.507 8.67 4.542l2.2 13.881a6.1 6.1 0 0 1-3.381 6.452c-3.682 1.771-8.03-.507-8.67-4.542l-2.2-13.88z" fill="#6C5C99"/><rect x="33.043" y="56.358" width="50.947" height="7.505" rx="3.753" transform="rotate(-25.687 33.043 56.358)" fill="#403366"/><rect x="24.469" y="44.632" width="61.52" height="15.737" rx="5" transform="rotate(-25.687 24.47 44.632)" fill="#6C5C99"/><path d="M50.24 32.236l15.377-7.395 1.638 3.405a3 3 0 0 1-1.403 4.004l-9.97 4.795a3 3 0 0 1-4.003-1.403l-1.638-3.406z" fill="#8E7CBF"/><ellipse cx="46.872" cy="69.587" rx="1.923" ry="1.937" transform="rotate(-25.687 46.872 69.587)" fill="#8E7CBF"/><path fill="#403366" d="M31.182 41.403l1.733-.833 3.463 7.199-1.733.834zm4.116-1.98l1.733-.833 3.463 7.2-1.733.833zM81.38 21.02l5.413-2.604 2.624 5.455-5.414 2.604zm-11.818-1.838l5.414-2.604 1.47 3.054-5.415 2.604z"/><path d="M106.532 9.917l-18.895 10.25 1.21 2.515 19.802-8.363-2.117-4.402z" fill="url(#paint0_linear)"/></g><defs><linearGradient id="paint0_linear" x1="87.296" y1="22.654" x2="107.032" y2="13.352" gradientUnits="userSpaceOnUse"><stop stop-color="#E6004C"/><stop offset="1" stop-color="#E6004C" stop-opacity="0"/></linearGradient><clipPath id="clip0"><path fill="#fff" transform="scale(-1 1) rotate(25.687 -58.182 -224.836)" d="M0 0h89v46H0z"/></clipPath></defs></svg>