<svg width="116" height="86" fill="none" xmlns="http://www.w3.org/2000/svg"><path d="M45.497 13.362a6.422 6.422 0 0 0-2.23-.064 4.98 4.98 0 0 0-1.124.303C42.339 11.406 43.71 7 43.71 7s1.406 4.175 1.786 6.362zm25.839 7.348c.213-.051.424-.09.626-.116a4.98 4.98 0 0 1 2.498.35c-.044-2.447-.535-6.098-.535-6.098s-1.782 3.567-2.59 5.865z" fill="#B2A1E6"/><path d="M72.969 21.998a3.624 3.624 0 0 0-4.004 3.061l-1.438 10.877v4.404c0 2.705-2.04 4.907-4.78 4.907-1.827 0-3.38-1.044-4.187-2.545-.37.232-.762.426-.762.426.057 1.462-.565 3.239-1.68 4.145 1.76 1.566 3.258 3.964 3.258 7.536a.755.755 0 0 1-1.51 0c0-3.351-1.5-5.442-3.167-6.755a4.676 4.676 0 0 1-.51.14l-7.956 1.874-.346-1.47 7.974-1.878a3.105 3.105 0 0 0 2.364-3.786l-.001-.004-.001-.005a3.102 3.102 0 0 0-3.782-2.366l-.006.001-9.153 1.727v.004l-1.38.344a2.502 2.502 0 0 0-1.792 3.16c1.017 3.321 2.737 8.826 3.173 9.533 1.086 1.813 2.174 3.004 4.52 3.004h17.73c3.26 0 6.006-2.38 6.464-5.612l4.06-26.81c.23-1.871-1.143-3.628-3.088-3.912z" fill="#6C5C99"/><path d="M43.104 40.708l6.306-1.135v-6.53c0-.472.068-.927.195-1.356l-1.898-14.003c-.229-1.927-2.021-3.338-3.966-3.111-1.945.226-3.375 1.927-3.146 3.854l2.51 22.281zm7.816-1.407l1.17-.21a4.616 4.616 0 0 1 5.32 2.618 3.358 3.358 0 0 0 .555-1.872v-6.794c0-1.868-1.585-3.397-3.523-3.397-1.937 0-3.522 1.529-3.522 3.397v6.258zm11.826 4.436c-1.799 0-3.27-1.528-3.27-3.397v-6.793c0-1.869 1.471-3.397 3.27-3.397 1.8 0 3.271 1.528 3.271 3.397v6.794c0 1.924-1.417 3.396-3.27 3.396z" fill="#6C5C99"/><path d="M65.618 65.43l-.001-.002-.007-.015.008.017z" fill="#403366"/><path fill-rule="evenodd" clip-rule="evenodd" d="M48.367 60.459v-.617h18.829c.327 1.165 1.245 4.055 2.622 5.306.296.27.328.778-.055.892-.492.147-1.084.206-1.635.052.325.843.725 1.576 1.2 2.059.281.285.3.776-.087.88-.648.175-1.531.302-2.216.12v7.801c0 .337-.29.59-.581.424-1.45-.83-2.34-2.827-2.492-3.777-1.185 1.338-.708 2.772-.08 4.053.174.353-.096.75-.47.63-2.2-.706-3.185-3.325-3.415-4.683-.588 3.41-1.968 4.612-3.122 4.853-.39.082-.546-.375-.304-.693 1.665-2.185.456-4.024-1.374-3.796-1.344.383-.938 1.93-.554 2.939.132.346-.13.702-.487.6-2.09-.598-2.827-2.777-2.75-3.903-.596 2.482-2.279 3.464-3.659 3.685-.466.075-.599-.543-.32-.924.746-1.017.955-2.31.987-3.434v-4.403c-.744.254-1.597.202-2.225.024-.385-.11-.36-.615-.079-.9 1.4-1.422 2.142-5.007 2.267-7.189zm6.58 3.409a.755.755 0 1 0-1.51 0c0 .77-.003 1.629-.17 2.383-.17.758-.466 1.242-.923 1.47a.755.755 0 1 0 .676 1.351c1.053-.526 1.51-1.552 1.72-2.493.207-.93.207-1.943.207-2.68v-.031zm5.032 2.264a.755.755 0 0 0-.755.755c0 .72.143 1.42.277 1.924a9.334 9.334 0 0 0 .252.8l.012.032.007.018.006.015.002.005v.002h.001a.755.755 0 0 0 1.402-.56l-.003-.007a1.36 1.36 0 0 1-.006-.017l-.006-.016a7.956 7.956 0 0 1-.208-.66c-.117-.44-.226-.998-.226-1.536a.755.755 0 0 0-.755-.755zm3.277-3.177a.755.755 0 0 1 .655-.843l1.706 3.318v.001l.001.001c.098.22.178.803-.154 1.052a.755.755 0 0 1-1.057-.15c-.02-.028 0-.001 0-.001l-.001-.002-.002-.002-.005-.006-.012-.017a3.792 3.792 0 0 1-.147-.229 5.939 5.939 0 0 1-.33-.649 8.96 8.96 0 0 1-.654-2.473zm2.362 2.475v.003-.001c.028.047-.034-.08-.008-.019-.2-.459-.742-1.73-.856-2.646a.755.755 0 0 0-.843-.655l1.706 3.316v.002l.001.002v-.002z" fill="#403366"/><path d="M54.245 44.961c-.113.003-.225.062-.282.063-1.923.384-2.84-2.496-.982-3.276.112-.06.226-.062.338-.121 1.75-.55 7.324-.22 7.324-.22s-4.649 3.004-6.398 3.554zm6.74-3.876v-.29c.117-2.026 3.169-2.142 3.463-.173.018.124.053.174.058.347.059 1.854-1.643 7.298-1.643 7.298s-1.82-5.329-1.878-7.182z" fill="#B2A1E6"/><path fill-rule="evenodd" clip-rule="evenodd" d="M86.229 17.91a1.75 1.75 0 1 0 3.06 1.698 1.75 1.75 0 0 0-3.06-1.698zm-1.53-.85a3.5 3.5 0 1 0 6.12 3.398 3.5 3.5 0 0 0-6.12-3.398z" fill="#E6004C"/><path d="M74.419 3.57l-2.295-1.275-.85 1.53 2.295 1.274-1.274 2.295 1.53.85 1.274-2.295 2.295 1.274.85-1.53-2.295-1.274 1.274-2.295-1.53-.85-1.274 2.295z" fill="#E6004C"/></svg>