<svg width="116" height="86" fill="none" xmlns="http://www.w3.org/2000/svg"><path fill-rule="evenodd" clip-rule="evenodd" d="M61.615 3.453l1.648.004-.002.768.685.001-.002.766.698.002-.006 2.556-1.383-.004v.001l.685.002-.002.767-.686-.002-.002.767-.73-.002-.001.741-.683-.002-.002.792-.698-.002-.002.767-.932-.003.002-.766-.728-.002.002-.792-.67-.002.003-1.508h-.002l-.001.767-.7-.002.002-.767-.698-.002.002-.766.699.001-.7-.002.007-2.554.002-.767.699.002-.002.765.004-1.532 1.632.004-.002.766.697.002-.002.766.702.002.002-.765h.463l.002-.767zm-4.198 1.524l-.006 2.555-.7-.002.007-2.555.7.002z" fill="#E6004C"/><path fill-rule="evenodd" clip-rule="evenodd" d="M55.293 17.967a5.997 5.997 0 0 0-1.975-.505v16.764a.705.705 0 1 1-1.41 0V17.454a5.998 5.998 0 0 0-1.975.469v16.303a.705.705 0 0 1-1.41 0V18.77a6.02 6.02 0 0 0-2.257 4.704V38.21c0 .54.063 1.08.258 1.582.15.387.356.824.588 1.064.288.298.78.775 1.294 1.266a6.13 6.13 0 0 1 1.911 4.516l-.356 24.556c-.018 1.274.3 2.618 1.337 3.359.414.295.875.501 1.315.436.377-.057.74-.312 1.049-.616.719-.705.93-1.745.94-2.752l.25-25.774c.011-1.23.374-2.447 1.192-3.365.421-.473.877-.913 1.223-1.062.628-.269 1.083-.986 1.362-1.566.257-.535.329-1.133.325-1.727l-.096-14.692a6.019 6.019 0 0 0-2.155-4.582v15.374a.705.705 0 1 1-1.41 0v-16.26zM65.448 50.8v20.386c0 1.28.343 2.619 1.392 3.352.405.283.855.486 1.288.45.373-.03.746-.24 1.077-.508.904-.73 1.18-1.943 1.18-3.105v-50.51c0-2.694-2.062-5.172-4.361-3.77-1.02.622-2.049 1.612-2.935 3.13-.436.746-.603 1.614-.603 2.479v25.134c0 .818.663 1.48 1.48 1.48.819 0 1.482.664 1.482 1.482z" fill="#6C5C99"/><path d="M54.684 64.106l-4.63 4.63c0 1.347-.14 1.965 0 2.947l4.63-4.63v-2.947zm7.998-25.676l7.576-10.102V33.8l-7.576 9.681v-5.05z" fill="#8E7CBF"/><path d="M46.266 18.57a1.128 1.128 0 1 1 2.257 0v16.925h-2.257V18.57zm3.666-.987a.987.987 0 1 1 1.975 0v17.066h-1.975V17.583zm3.386 0a.987.987 0 1 1 1.974 0v17.066h-1.974V17.583zm3.385.987a1.128 1.128 0 1 1 2.257 0v16.925h-2.257V18.57z" fill="#6C5C99"/></svg>