<svg width="116" height="86" fill="none" xmlns="http://www.w3.org/2000/svg"><path d="M57.462 22.274h7.739l2.465-9.11H57.462v9.11z" fill="#8E7CBF"/><path d="M58 22.274h-7.536l-2.668-9.11h10.203v9.11z" fill="#8E7CBF"/><path opacity=".4" d="M72.598 18.588l-1.897 3.932c10.293 4.255 17.372 13.545 17.372 24.32 0 14.8-13.464 26.798-30.074 26.798S27.925 61.64 27.925 46.84c0-10.776 7.08-20.066 17.373-24.32L43.4 18.587v-.146c0-.884 6.537-1.602 14.6-1.602 8.062 0 14.598.718 14.598 1.602v.146z" fill="#B2A1E6"/><path opacity=".7" d="M32.885 43.964c-.285 1.3-.58 2.64-.58 4.011 0 11.99 11.421 21.708 25.51 21.708 14.088 0 25.509-9.719 25.509-21.708 0-1.37-.067-2.968-.352-4.269l-50.087.258z" fill="url(#paint0_linear)"/><path d="M82.973 43.706c0 1.608-10.901 2.456-24.841 2.456-13.94 0-25.241-1.08-25.241-2.412 0-1.331 11.3-2.41 25.24-2.41 13.94 0 24.842 1.035 24.842 2.366z" fill="#AC033B"/><ellipse rx="1.724" ry="1.719" transform="matrix(-1 0 0 1 66.975 61.084)" fill="#7F0D46"/><ellipse rx="2.978" ry="2.968" transform="matrix(-1 0 0 1 56.004 61.084)" fill="#7F0D46"/><ellipse rx="2.978" ry="2.968" transform="matrix(-1 0 0 1 71.675 52.96)" fill="#7F0D46"/><ellipse cx="62.9" cy="54.834" rx="1.724" ry="1.719" fill="#7F0D46"/><path d="M46.855 28.108c-2.698.873-4.648 2.284-6.034 3.716m-3.856 5.98l.921-1.945" stroke="#B2A1E6" stroke-width="2.508" stroke-linecap="round" stroke-linejoin="round"/><path d="M67.724 13.165c0 .74-4.452 1.34-9.943 1.34-5.492 0-9.944-.6-9.944-1.34 0-.74 4.452-1.34 9.944-1.34 8.868 0 9.943.6 9.943 1.34z" fill="#403366"/><defs><linearGradient id="paint0_linear" x1="57.815" y1="43.964" x2="57.662" y2="72.516" gradientUnits="userSpaceOnUse"><stop stop-color="#F05"/><stop offset="1" stop-color="#F05" stop-opacity="0"/></linearGradient></defs></svg>