<svg width="423" height="115" fill="none" xmlns="http://www.w3.org/2000/svg"><path d="M184.041 98.969V109h-1.19v-7.371c0-.098.003-.203.007-.315l.028-.343-3.444 6.272c-.107.21-.27.315-.49.315h-.196c-.219 0-.382-.105-.49-.315l-3.514-6.3c.028.247.042.476.042.686V109h-1.19V98.969h1.001c.122 0 .215.012.28.035.066.023.129.089.189.196l3.465 6.174c.056.112.11.229.161.35.056.121.108.245.154.371.047-.126.096-.25.147-.371.052-.126.108-.245.168-.357l3.402-6.167c.056-.107.117-.173.182-.196a.942.942 0 0 1 .287-.035h1.001zm6.798 5.712c0-.289-.042-.553-.126-.791a1.668 1.668 0 0 0-.357-.623 1.507 1.507 0 0 0-.567-.406 1.885 1.885 0 0 0-.763-.147c-.597 0-1.071.175-1.421.525-.345.345-.56.826-.644 1.442h3.878zm1.008 3.325a2.42 2.42 0 0 1-.553.49 3.527 3.527 0 0 1-.693.336 4.034 4.034 0 0 1-.756.196c-.261.047-.52.07-.777.07-.49 0-.942-.082-1.358-.245a3.092 3.092 0 0 1-1.071-.728 3.418 3.418 0 0 1-.7-1.19c-.168-.471-.252-1.013-.252-1.624 0-.495.075-.957.224-1.386.154-.429.374-.8.658-1.113a2.962 2.962 0 0 1 1.043-.742 3.388 3.388 0 0 1 1.386-.273c.425 0 .817.072 1.176.217.364.14.677.345.938.616.266.266.474.597.623.994.15.392.224.84.224 1.344 0 .196-.021.327-.063.392-.042.065-.121.098-.238.098h-4.739c.014.448.075.838.182 1.169.112.331.266.609.462.833.196.219.43.385.7.497.271.107.574.161.91.161.313 0 .581-.035.805-.105a4.039 4.039 0 0 0 .994-.469.547.547 0 0 1 .287-.112c.103 0 .182.04.238.119l.35.455zm2.819-5.068c.154-.173.317-.329.49-.469a3.16 3.16 0 0 1 .546-.357 2.849 2.849 0 0 1 1.323-.315c.387 0 .728.065 1.022.196.299.126.546.308.742.546.201.233.352.516.455.847.103.331.154.698.154 1.099V109h-1.253v-4.515c0-.537-.124-.952-.371-1.246-.243-.299-.614-.448-1.113-.448-.369 0-.714.089-1.036.266a3.436 3.436 0 0 0-.882.721V109h-1.253v-7.091h.749c.177 0 .287.086.329.259l.098.77zm8.712 6.174c-.56 0-.992-.156-1.295-.469-.299-.313-.448-.763-.448-1.351v-4.34h-.854a.287.287 0 0 1-.189-.063c-.051-.047-.077-.117-.077-.21v-.497l1.162-.147.287-2.191a.295.295 0 0 1 .091-.168.28.28 0 0 1 .196-.07h.63v2.443h2.051v.903h-2.051v4.256c0 .299.072.52.217.665a.757.757 0 0 0 .56.217c.131 0 .243-.016.336-.049.098-.037.182-.077.252-.119.07-.042.128-.079.175-.112.051-.037.096-.056.133-.056.065 0 .124.04.175.119l.364.595a2.374 2.374 0 0 1-.777.476 2.686 2.686 0 0 1-.938.168zm5.788-7.315c.518 0 .985.086 1.4.259.416.173.77.418 1.064.735.294.317.518.702.672 1.155.159.448.238.95.238 1.505a4.5 4.5 0 0 1-.238 1.512 3.187 3.187 0 0 1-.672 1.148 3.003 3.003 0 0 1-1.064.735 3.703 3.703 0 0 1-1.4.252 3.78 3.78 0 0 1-1.414-.252 3.012 3.012 0 0 1-1.064-.735c-.294-.317-.52-.7-.679-1.148a4.634 4.634 0 0 1-.231-1.512c0-.555.077-1.057.231-1.505.159-.453.385-.838.679-1.155a3.012 3.012 0 0 1 1.064-.735c.42-.173.892-.259 1.414-.259zm0 6.328c.7 0 1.223-.233 1.568-.7.346-.471.518-1.127.518-1.967 0-.845-.172-1.503-.518-1.974-.345-.471-.868-.707-1.568-.707-.354 0-.665.061-.931.182a1.76 1.76 0 0 0-.658.525 2.43 2.43 0 0 0-.392.847 4.596 4.596 0 0 0-.126 1.127c0 .84.173 1.496.518 1.967.35.467.88.7 1.589.7zm6.138-4.795c.224-.485.499-.863.826-1.134.326-.275.725-.413 1.197-.413.149 0 .291.016.427.049.14.033.263.084.371.154l-.091.931c-.028.117-.098.175-.21.175-.066 0-.161-.014-.287-.042a1.98 1.98 0 0 0-.427-.042 1.74 1.74 0 0 0-.602.098 1.404 1.404 0 0 0-.469.294 2.068 2.068 0 0 0-.371.476 4.03 4.03 0 0 0-.294.644V109h-1.253v-7.091h.714c.135 0 .228.026.28.077.051.051.086.14.105.266l.084 1.078zm5.232-1.421V109h-1.246v-7.091h1.246zm.266-2.226a.776.776 0 0 1-.077.343.934.934 0 0 1-.196.28.885.885 0 0 1-.287.189.842.842 0 0 1-.343.07.849.849 0 0 1-.616-.259 1.03 1.03 0 0 1-.189-.28.862.862 0 0 1 0-.686.888.888 0 0 1 .189-.287.88.88 0 0 1 .273-.196.854.854 0 0 1 .343-.07c.122 0 .236.023.343.07a.824.824 0 0 1 .287.196c.084.08.15.175.196.287a.776.776 0 0 1 .077.343zm2.958 3.255c.154-.173.317-.329.49-.469.172-.14.354-.259.546-.357a2.849 2.849 0 0 1 1.323-.315c.387 0 .728.065 1.022.196.298.126.546.308.742.546.2.233.352.516.455.847.102.331.154.698.154 1.099V109h-1.253v-4.515c0-.537-.124-.952-.371-1.246-.243-.299-.614-.448-1.113-.448-.369 0-.714.089-1.036.266a3.403 3.403 0 0 0-.882.721V109h-1.253v-7.091h.749c.177 0 .287.086.329.259l.098.77zm9.101 2.597c.252 0 .474-.035.665-.105.192-.07.353-.168.483-.294.131-.126.229-.275.294-.448.066-.177.098-.371.098-.581 0-.434-.133-.779-.399-1.036-.261-.257-.641-.385-1.141-.385-.504 0-.889.128-1.155.385-.261.257-.392.602-.392 1.036 0 .21.033.404.098.581.07.173.171.322.301.448.131.126.292.224.483.294.192.07.413.105.665.105zm2.247 3.85a.598.598 0 0 0-.147-.42.985.985 0 0 0-.399-.252 2.334 2.334 0 0 0-.574-.126 9.948 9.948 0 0 0-.7-.063l-.742-.042a8.642 8.642 0 0 1-.728-.07 1.96 1.96 0 0 0-.644.462.935.935 0 0 0-.126 1.085c.084.14.21.259.378.357.168.103.378.182.63.238.257.061.558.091.903.091.336 0 .637-.03.903-.091s.49-.147.672-.259a1.26 1.26 0 0 0 .427-.399.932.932 0 0 0 .147-.511zm1.267-7.196v.462c0 .154-.098.252-.294.294l-.805.105c.159.308.238.649.238 1.022a2.165 2.165 0 0 1-.749 1.666 2.422 2.422 0 0 1-.84.462 3.395 3.395 0 0 1-1.064.161c-.331 0-.644-.04-.938-.119a1.243 1.243 0 0 0-.343.301.515.515 0 0 0-.119.315c0 .168.068.296.203.385.14.084.322.145.546.182.224.037.479.061.763.07.29.009.584.026.882.049.304.019.598.054.882.105.29.051.546.135.77.252.224.117.404.278.539.483.14.205.21.471.21.798 0 .303-.077.597-.231.882a2.296 2.296 0 0 1-.651.756 3.258 3.258 0 0 1-1.05.532c-.41.135-.875.203-1.393.203s-.97-.051-1.358-.154a3.194 3.194 0 0 1-.966-.413 1.832 1.832 0 0 1-.581-.602 1.422 1.422 0 0 1-.189-.707c0-.35.11-.646.329-.889.22-.243.521-.436.903-.581a1.336 1.336 0 0 1-.504-.371c-.121-.159-.182-.371-.182-.637 0-.103.019-.208.056-.315a1.33 1.33 0 0 1 .168-.329 1.835 1.835 0 0 1 .679-.574 2.189 2.189 0 0 1-.819-.777 2.163 2.163 0 0 1-.294-1.134c0-.345.066-.658.196-.938a2.08 2.08 0 0 1 .56-.721 2.51 2.51 0 0 1 .847-.462 3.517 3.517 0 0 1 1.085-.161c.308 0 .595.035.861.105.266.065.509.163.728.294h1.925z" fill="#797399"/><g clip-path="url(#clip0)"><path d="M182 23.776L195.236 6H229v67h-47V23.776z" fill="#6C5C99"/><path d="M194.412 62.588v-9.176h3.176v9.176h-3.176z" fill="#8E7CBF" stroke="#8E7CBF" stroke-width=".824"/><path d="M217 18l-2.311 2.739L217 18z" fill="#8E7CBF"/><path d="M193 49c7.796-4.882 20.5-13 24-31m0 0l1.03 3.552M217 18l-2.311 2.739" stroke="#8E7CBF" stroke-width=".742" stroke-linecap="round"/><path d="M201.412 62.588V49.412h4.176v13.176h-4.176zm7 0V42.412h4.176v20.176h-4.176zm8 0V32.412h4.176v30.176h-4.176z" fill="#8E7CBF" stroke="#8E7CBF" stroke-width=".824"/><path d="M196 24h-14l14-18v18z" fill="#8E7CBF"/></g><path d="M352.182 98.969V109h-1.19v-7.371c0-.098.002-.203.007-.315l.028-.343-3.444 6.272c-.107.21-.271.315-.49.315h-.196c-.219 0-.383-.105-.49-.315l-3.514-6.3c.028.247.042.476.042.686V109h-1.19V98.969h1.001a.88.88 0 0 1 .28.035c.065.023.128.089.189.196l3.465 6.174c.056.112.11.229.161.35.056.121.107.245.154.371.047-.126.096-.25.147-.371a3.46 3.46 0 0 1 .168-.357l3.402-6.167c.056-.107.117-.173.182-.196a.942.942 0 0 1 .287-.035h1.001zm5.041 2.828c.518 0 .985.086 1.4.259.415.173.77.418 1.064.735.294.317.518.702.672 1.155.159.448.238.95.238 1.505a4.5 4.5 0 0 1-.238 1.512 3.187 3.187 0 0 1-.672 1.148 3.012 3.012 0 0 1-1.064.735 3.703 3.703 0 0 1-1.4.252c-.523 0-.994-.084-1.414-.252a3.012 3.012 0 0 1-1.064-.735c-.294-.317-.52-.7-.679-1.148a4.634 4.634 0 0 1-.231-1.512c0-.555.077-1.057.231-1.505.159-.453.385-.838.679-1.155a3.012 3.012 0 0 1 1.064-.735 3.68 3.68 0 0 1 1.414-.259zm0 6.328c.7 0 1.223-.233 1.568-.7.345-.471.518-1.127.518-1.967 0-.845-.173-1.503-.518-1.974-.345-.471-.868-.707-1.568-.707-.355 0-.665.061-.931.182a1.752 1.752 0 0 0-.658.525 2.413 2.413 0 0 0-.392.847 4.596 4.596 0 0 0-.126 1.127c0 .84.173 1.496.518 1.967.35.467.88.7 1.589.7zm6.13-5.187c.154-.173.318-.329.49-.469a3.16 3.16 0 0 1 .546-.357 2.854 2.854 0 0 1 1.323-.315c.388 0 .728.065 1.022.196.299.126.546.308.742.546.201.233.353.516.455.847.103.331.154.698.154 1.099V109h-1.253v-4.515c0-.537-.123-.952-.371-1.246-.242-.299-.613-.448-1.113-.448a2.12 2.12 0 0 0-1.036.266 3.436 3.436 0 0 0-.882.721V109h-1.253v-7.091h.749c.178 0 .287.086.329.259l.098.77zm11.377 1.743c0-.289-.042-.553-.126-.791a1.668 1.668 0 0 0-.357-.623 1.507 1.507 0 0 0-.567-.406 1.885 1.885 0 0 0-.763-.147c-.597 0-1.071.175-1.421.525-.345.345-.56.826-.644 1.442h3.878zm1.008 3.325a2.42 2.42 0 0 1-.553.49 3.582 3.582 0 0 1-.693.336 4.075 4.075 0 0 1-.756.196c-.261.047-.52.07-.777.07-.49 0-.943-.082-1.358-.245a3.074 3.074 0 0 1-1.071-.728 3.403 3.403 0 0 1-.7-1.19c-.168-.471-.252-1.013-.252-1.624 0-.495.075-.957.224-1.386.154-.429.373-.8.658-1.113a2.953 2.953 0 0 1 1.043-.742 3.388 3.388 0 0 1 1.386-.273c.425 0 .817.072 1.176.217.364.14.677.345.938.616.266.266.474.597.623.994.149.392.224.84.224 1.344 0 .196-.021.327-.063.392-.042.065-.121.098-.238.098h-4.739c.014.448.075.838.182 1.169.112.331.266.609.462.833.196.219.429.385.7.497.271.107.574.161.91.161.313 0 .581-.035.805-.105a4.039 4.039 0 0 0 .994-.469.547.547 0 0 1 .287-.112c.103 0 .182.04.238.119l.35.455zm8.168.994h-1.246v-6.048h-3.654v4.256c0 .299.072.52.217.665a.757.757 0 0 0 .56.217c.131 0 .243-.016.336-.049.098-.037.182-.077.252-.119.07-.042.128-.079.175-.112.051-.037.096-.056.133-.056.065 0 .124.04.175.119l.364.595a2.374 2.374 0 0 1-.777.476 2.686 2.686 0 0 1-.938.168c-.56 0-.992-.156-1.295-.469-.299-.313-.448-.763-.448-1.351v-4.34h-.854a.287.287 0 0 1-.189-.063c-.051-.047-.077-.117-.077-.21v-.497l1.162-.154.287-2.184a.295.295 0 0 1 .091-.168.28.28 0 0 1 .196-.07h.63v2.443h4.9V109zm.308-9.366a.863.863 0 0 1-.273.616.91.91 0 0 1-.28.189.845.845 0 0 1-.343.07.845.845 0 0 1-.616-.259.845.845 0 0 1-.259-.616c0-.121.023-.236.07-.343a.888.888 0 0 1 .189-.287.858.858 0 0 1 .273-.196.85.85 0 0 1 .343-.07.85.85 0 0 1 .623.266.83.83 0 0 1 .196.287.79.79 0 0 1 .077.343zm6.632 2.807a.722.722 0 0 1-.049.259.66.66 0 0 1-.119.217l-3.843 5.11h3.878V109h-5.341v-.518a.84.84 0 0 1 .168-.448l3.864-5.145h-3.815v-.98h5.257v.532zm5.28 3.367c-.574.019-1.064.065-1.47.14-.401.07-.73.163-.987.28-.252.117-.436.254-.553.413a.902.902 0 0 0-.168.532c0 .187.03.348.091.483a.955.955 0 0 0 .245.336c.107.084.231.147.371.189.145.037.299.056.462.056.219 0 .42-.021.602-.063.182-.047.352-.112.511-.196.163-.084.317-.184.462-.301.149-.117.294-.25.434-.399v-1.47zm-4.025-2.898c.392-.378.814-.66 1.267-.847.453-.187.954-.28 1.505-.28.397 0 .749.065 1.057.196.308.131.567.313.777.546.21.233.369.516.476.847.107.331.161.695.161 1.092V109h-.553a.575.575 0 0 1-.28-.056c-.065-.042-.117-.121-.154-.238l-.14-.672a7.558 7.558 0 0 1-.546.462 3.364 3.364 0 0 1-.56.336 3.016 3.016 0 0 1-.63.203 3.246 3.246 0 0 1-.735.077 2.62 2.62 0 0 1-.777-.112 1.869 1.869 0 0 1-.637-.35 1.698 1.698 0 0 1-.427-.581 2.103 2.103 0 0 1-.154-.84c0-.28.077-.548.231-.805.154-.261.404-.492.749-.693.345-.201.796-.364 1.351-.49.555-.131 1.237-.205 2.044-.224v-.553c0-.551-.119-.966-.357-1.246-.238-.285-.586-.427-1.043-.427-.308 0-.567.04-.777.119a2.786 2.786 0 0 0-.539.259c-.149.093-.28.18-.392.259a.559.559 0 0 1-.322.112.372.372 0 0 1-.217-.063.667.667 0 0 1-.154-.168l-.224-.399zm13.625 6.09h-1.246v-6.048h-3.654v4.256c0 .299.073.52.217.665a.758.758 0 0 0 .56.217c.131 0 .243-.016.336-.049.098-.037.182-.077.252-.119.07-.042.129-.079.175-.112.052-.037.096-.056.133-.056.066 0 .124.04.175.119l.364.595a2.353 2.353 0 0 1-.777.476 2.686 2.686 0 0 1-.938.168c-.56 0-.991-.156-1.295-.469-.298-.313-.448-.763-.448-1.351v-4.34h-.854a.291.291 0 0 1-.189-.063c-.051-.047-.077-.117-.077-.21v-.497l1.162-.154.287-2.184a.3.3 0 0 1 .091-.168.282.282 0 0 1 .196-.07h.63v2.443h4.9V109zm.308-9.366a.776.776 0 0 1-.077.343.848.848 0 0 1-.196.273.898.898 0 0 1-.623.259.849.849 0 0 1-.616-.259.862.862 0 0 1-.189-.959.888.888 0 0 1 .189-.287.88.88 0 0 1 .273-.196.854.854 0 0 1 .343-.07.847.847 0 0 1 .623.266c.084.08.15.175.196.287a.776.776 0 0 1 .077.343zm4.728 2.163c.518 0 .985.086 1.4.259.415.173.77.418 1.064.735.294.317.518.702.672 1.155.159.448.238.95.238 1.505a4.5 4.5 0 0 1-.238 1.512 3.187 3.187 0 0 1-.672 1.148 3.012 3.012 0 0 1-1.064.735 3.703 3.703 0 0 1-1.4.252c-.523 0-.994-.084-1.414-.252a3.012 3.012 0 0 1-1.064-.735c-.294-.317-.52-.7-.679-1.148a4.634 4.634 0 0 1-.231-1.512c0-.555.077-1.057.231-1.505.159-.453.385-.838.679-1.155a3.012 3.012 0 0 1 1.064-.735 3.68 3.68 0 0 1 1.414-.259zm0 6.328c.7 0 1.223-.233 1.568-.7.345-.471.518-1.127.518-1.967 0-.845-.173-1.503-.518-1.974-.345-.471-.868-.707-1.568-.707-.355 0-.665.061-.931.182a1.752 1.752 0 0 0-.658.525 2.413 2.413 0 0 0-.392.847 4.596 4.596 0 0 0-.126 1.127c0 .84.173 1.496.518 1.967.35.467.88.7 1.589.7zm6.13-5.187c.154-.173.318-.329.49-.469a3.16 3.16 0 0 1 .546-.357 2.854 2.854 0 0 1 1.323-.315c.388 0 .728.065 1.022.196.299.126.546.308.742.546.201.233.353.516.455.847.103.331.154.698.154 1.099V109h-1.253v-4.515c0-.537-.123-.952-.371-1.246-.242-.299-.613-.448-1.113-.448a2.12 2.12 0 0 0-1.036.266 3.436 3.436 0 0 0-.882.721V109h-1.253v-7.091h.749c.178 0 .287.086.329.259l.098.77z" fill="#797399"/><circle cx="381" cy="46" r="21.5" fill="#403366" stroke="#6C5C99" stroke-width="5"/><path d="M382.599 59.327v-3.575c3.865-.419 4.96-2.32 4.96-6.024 0-3.833-.193-4.896-5.701-6.442-3.06-.837-3.189-.902-3.189-2.963 0-2.126.644-2.48 2.867-2.48 1.578 0 3.704.225 5.25.547l.419-3.382c-1.16-.29-2.609-.483-3.801-.547v-3.608h-3.253v3.608c-4.059.322-5.412 2.093-5.412 5.765 0 4.059.58 5.218 5.444 6.378 3.285.773 3.446 1.127 3.446 3.157 0 2.029-.386 2.673-3.092 2.673-1.9 0-3.768-.419-5.218-.87l-.708 3.221c1.449.548 3.156.902 4.767.999v3.543h3.221z" fill="#8E7CBF"/><rect x="379" y="1" width="4" height="15" rx="2" fill="#8E7CBF"/><rect x="389" y="9" width="4" height="11" rx="2" fill="#8E7CBF"/><rect x="369" y="9" width="4" height="11" rx="2" fill="#8E7CBF"/><g clip-path="url(#clip1)"><path d="M44.872 10.14c-2.144-.69-4.467.41-5.189 2.458l-4.774 13.54c-.721 2.048.431 4.268 2.575 4.959 2.144.69 4.467-.41 5.19-2.457l4.773-13.54c.722-2.049-.43-4.269-2.575-4.96z" fill="#403366"/><path d="M23.48 8.978c-2.02.92-2.877 3.23-1.915 5.16l6.359 12.756c.962 1.93 3.379 2.748 5.399 1.828 2.02-.92 2.877-3.23 1.915-5.16L28.88 10.805c-.962-1.93-3.38-2.748-5.4-1.828z" fill="#6C5C99"/><path d="M39.658 10.325c-.181-2.122-2.129-3.702-4.35-3.529-2.223.173-3.877 2.034-3.696 4.156l1.196 14.034c.181 2.122 2.129 3.702 4.35 3.529 2.223-.174 3.877-2.034 3.696-4.156l-1.196-14.034z" fill="#6C5C99"/><path d="M32.542 8.693c-1.918 2.037-4.743.936-5.542.319l3.144 13.108 4.796-3.24-2.398-10.187zm-5.862 15.99c-1.765 1.918-6.096 7.209-9.613 12.39-3.516 5.182-23.663 34.384 17.35 34.92 41.015.536 20.868-29.738 17.351-34.92-3.058-4.505-7.847-10.472-9.613-12.39l-7.737-2.704-7.737 2.704c2.34-2.543-.045 1.412 0 0z" fill="#6C5C99"/><path d="M32.261 14.732c-.35-.957-1.447-1.46-2.448-1.124-1.001.335-1.529 1.383-1.178 2.34l2.435 6.636c.35.956 1.447 1.46 2.448 1.124 1.001-.336 1.529-1.383 1.178-2.34l-2.435-6.636z" fill="#403366"/><path d="M44.786 22.506H25.042c-1.136 0-2.057.88-2.057 1.964 0 1.085.921 1.964 2.057 1.964h19.744c1.136 0 2.057-.88 2.057-1.964 0-1.085-.92-1.964-2.057-1.964z" fill="#8E7CBF"/></g><path d="M2.836 109H1.478V98.969h1.358V109zm3.339-6.062a4.18 4.18 0 0 1 .49-.469c.172-.14.354-.259.546-.357a2.85 2.85 0 0 1 1.323-.315c.387 0 .728.065 1.022.196a1.9 1.9 0 0 1 .742.546c.2.233.352.516.455.847a3.7 3.7 0 0 1 .154 1.099V109H9.654v-4.515c0-.537-.124-.952-.371-1.246-.243-.299-.614-.448-1.113-.448-.369 0-.714.089-1.036.266a3.425 3.425 0 0 0-.882.721V109H4.999v-7.091h.749c.177 0 .287.086.329.259l.098.77zm12.556-1.029L15.84 109h-1.12l-2.891-7.091h1.015a.384.384 0 0 1 .385.259l1.799 4.564c.056.173.105.341.147.504.042.163.082.327.119.49.037-.163.077-.327.119-.49.042-.163.093-.331.154-.504l1.82-4.564a.385.385 0 0 1 .14-.182.365.365 0 0 1 .231-.077h.973zm5.697 2.772c0-.289-.042-.553-.126-.791a1.676 1.676 0 0 0-.357-.623 1.507 1.507 0 0 0-.567-.406 1.886 1.886 0 0 0-.763-.147c-.597 0-1.07.175-1.42.525-.346.345-.56.826-.645 1.442h3.878zm1.008 3.325a2.42 2.42 0 0 1-.553.49 3.565 3.565 0 0 1-.693.336 4.062 4.062 0 0 1-.756.196 4.38 4.38 0 0 1-.777.07c-.49 0-.942-.082-1.358-.245a3.08 3.08 0 0 1-1.07-.728 3.408 3.408 0 0 1-.7-1.19c-.169-.471-.253-1.013-.253-1.624 0-.495.075-.957.224-1.386.154-.429.374-.8.658-1.113a2.953 2.953 0 0 1 1.043-.742 3.388 3.388 0 0 1 1.386-.273c.425 0 .817.072 1.176.217.364.14.677.345.938.616.266.266.474.597.623.994.15.392.224.84.224 1.344 0 .196-.02.327-.063.392-.042.065-.121.098-.238.098h-4.739c.014.448.075.838.182 1.169.112.331.266.609.462.833.196.219.43.385.7.497.271.107.574.161.91.161.313 0 .581-.035.805-.105a4.067 4.067 0 0 0 .994-.469.546.546 0 0 1 .287-.112c.103 0 .182.04.238.119l.35.455zm5.773-4.928a.276.276 0 0 1-.26.154.491.491 0 0 1-.237-.077 4.432 4.432 0 0 0-.33-.168 2.511 2.511 0 0 0-.454-.175 2.101 2.101 0 0 0-.63-.084c-.21 0-.4.028-.567.084a1.352 1.352 0 0 0-.434.217 1.016 1.016 0 0 0-.273.329.877.877 0 0 0-.091.399.68.68 0 0 0 .154.455c.107.121.247.226.42.315.172.089.368.168.588.238.22.065.443.138.672.217.233.075.46.159.679.252.22.093.415.21.588.35.172.14.31.313.413.518.107.201.16.443.16.728 0 .327-.058.63-.174.91a2.03 2.03 0 0 1-.518.721 2.532 2.532 0 0 1-.84.476 3.442 3.442 0 0 1-1.148.175 3.62 3.62 0 0 1-1.344-.238 3.454 3.454 0 0 1-1.022-.623l.294-.476a.427.427 0 0 1 .133-.14.356.356 0 0 1 .196-.049c.084 0 .172.033.266.098.093.065.205.138.336.217.135.079.298.152.49.217.191.065.43.098.714.098.243 0 .455-.03.637-.091a1.38 1.38 0 0 0 .455-.259.974.974 0 0 0 .266-.371c.06-.14.09-.289.09-.448a.719.719 0 0 0-.16-.483 1.228 1.228 0 0 0-.413-.329 3.041 3.041 0 0 0-.595-.238l-.68-.217a9.45 9.45 0 0 1-.678-.252 2.483 2.483 0 0 1-.588-.364 1.689 1.689 0 0 1-.42-.532 1.79 1.79 0 0 1-.154-.777c0-.271.056-.53.168-.777a1.87 1.87 0 0 1 .49-.658 2.38 2.38 0 0 1 .79-.455c.314-.112.67-.168 1.072-.168.466 0 .884.075 1.253.224.373.145.695.345.966.602l-.28.455zm4.103 6.034c-.56 0-.991-.156-1.295-.469-.298-.313-.448-.763-.448-1.351v-4.34h-.854a.289.289 0 0 1-.189-.063c-.05-.047-.077-.117-.077-.21v-.497l1.162-.147.287-2.191a.297.297 0 0 1 .091-.168.28.28 0 0 1 .196-.07h.63v2.443h2.051v.903h-2.05v4.256c0 .299.072.52.216.665a.757.757 0 0 0 .56.217c.131 0 .243-.016.336-.049.098-.037.182-.077.252-.119.07-.042.129-.079.175-.112.052-.037.096-.056.133-.056.066 0 .124.04.175.119l.364.595a2.366 2.366 0 0 1-.777.476 2.687 2.687 0 0 1-.938.168zm2.841-.112v-7.091h.749c.177 0 .287.086.329.259l.091.728a3.59 3.59 0 0 1 .882-.791 2.089 2.089 0 0 1 1.134-.308c.476 0 .861.133 1.155.399.299.266.513.625.644 1.078.103-.257.233-.478.392-.665a2.301 2.301 0 0 1 1.183-.728c.229-.056.46-.084.693-.084.373 0 .705.061.994.182.294.117.541.289.742.518.205.229.362.511.469.847.107.331.161.712.161 1.141V109h-1.253v-4.515c0-.555-.121-.975-.364-1.26-.243-.289-.593-.434-1.05-.434-.205 0-.401.037-.588.112-.182.07-.343.175-.483.315-.14.14-.252.317-.336.532a2.06 2.06 0 0 0-.119.735V109h-1.253v-4.515c0-.569-.114-.994-.343-1.274-.229-.28-.562-.42-1.001-.42-.308 0-.593.084-.854.252a2.765 2.765 0 0 0-.721.672V109h-1.253zm16.258-4.319c0-.289-.042-.553-.126-.791a1.676 1.676 0 0 0-.357-.623 1.507 1.507 0 0 0-.567-.406 1.886 1.886 0 0 0-.763-.147c-.598 0-1.071.175-1.421.525-.346.345-.56.826-.644 1.442h3.878zm1.008 3.325a2.44 2.44 0 0 1-.553.49 3.56 3.56 0 0 1-.693.336 4.058 4.058 0 0 1-.756.196 4.38 4.38 0 0 1-.777.07c-.49 0-.943-.082-1.358-.245a3.08 3.08 0 0 1-1.071-.728 3.409 3.409 0 0 1-.7-1.19c-.168-.471-.252-1.013-.252-1.624 0-.495.074-.957.224-1.386.154-.429.373-.8.658-1.113a2.954 2.954 0 0 1 1.043-.742c.41-.182.872-.273 1.386-.273.424 0 .816.072 1.176.217.364.14.676.345.938.616.266.266.473.597.623.994.15.392.224.84.224 1.344 0 .196-.021.327-.063.392-.042.065-.122.098-.238.098h-4.74c.015.448.075.838.183 1.169.112.331.266.609.462.833.196.219.43.385.7.497.27.107.574.161.91.161.312 0 .58-.035.805-.105a4.067 4.067 0 0 0 .994-.469.546.546 0 0 1 .287-.112c.102 0 .182.04.238.119l.35.455zm2.818-5.068c.154-.173.318-.329.49-.469a3.16 3.16 0 0 1 .546-.357 2.851 2.851 0 0 1 1.323-.315c.388 0 .728.065 1.022.196a1.9 1.9 0 0 1 .742.546c.2.233.353.516.455.847a3.7 3.7 0 0 1 .154 1.099V109h-1.253v-4.515c0-.537-.123-.952-.37-1.246-.243-.299-.614-.448-1.114-.448a2.12 2.12 0 0 0-1.036.266 3.426 3.426 0 0 0-.882.721V109h-1.253v-7.091h.75c.177 0 .286.086.328.259l.098.77zm8.712 6.174c-.56 0-.992-.156-1.295-.469-.298-.313-.448-.763-.448-1.351v-4.34h-.854a.289.289 0 0 1-.189-.063c-.051-.047-.077-.117-.077-.21v-.497l1.162-.147.287-2.191a.297.297 0 0 1 .091-.168.28.28 0 0 1 .196-.07h.63v2.443h2.051v.903h-2.05v4.256c0 .299.072.52.216.665a.756.756 0 0 0 .56.217c.13 0 .243-.016.336-.049.098-.037.182-.077.252-.119.07-.042.129-.079.175-.112.051-.037.096-.056.133-.056.066 0 .124.04.175.119l.364.595a2.368 2.368 0 0 1-.777.476 2.688 2.688 0 0 1-.938.168z" fill="#797399"/><defs><clipPath id="clip0"><path fill="#fff" transform="translate(174)" d="M0 0h62v72H0z"/></clipPath><clipPath id="clip1"><path fill="#fff" transform="translate(4)" d="M0 0h62v72H0z"/></clipPath></defs></svg>