<svg width="90" height="90" fill="none" xmlns="http://www.w3.org/2000/svg"><path d="M45.753 9c-6.872-.03-13.71 2.628-18.45 7.203-4.603 4.328-7.21 10.357-7.04 16.385.067 6.523 3.385 12.891 8.801 17.127 4.57 3.617 10.63 5.657 16.689 5.657v-9.614c-5.18-.031-10.291-2.628-12.83-6.77-2.945-4.514-2.607-10.573.846-14.809 2.708-3.493 7.312-5.533 11.984-5.564V9zm23.053 19.013H46.092v9.583h12.254v11.222h10.46V28.013zM30.181 76.548c0 1.36 1.185 2.412 2.64 2.412 1.49 0 2.64-1.02 2.607-2.412h2.336c0 2.535-2.167 4.452-4.942 4.452-2.776 0-4.943-1.948-4.943-4.452h2.302z" fill="#B2ADCC"/><path fill-rule="evenodd" clip-rule="evenodd" d="M37.696 67.614v1.67l-.677.247c.508.618.745 1.453.745 2.287 0 2.535-2.167 4.452-4.942 4.452-2.776 0-4.943-1.947-4.943-4.451 0-2.535 2.167-4.452 4.943-4.452.575 0 1.15.093 1.658.247h3.216zm-7.515 4.173c0 1.392 1.185 2.443 2.64 2.443 1.49 0 2.675-1.051 2.64-2.443 0-1.36-1.15-2.41-2.64-2.41-1.489 0-2.64 1.05-2.64 2.41z" fill="#B2ADCC"/><path d="M16.302 75.992H14V64.059h2.302v11.933z" fill="#B2ADCC"/><path fill-rule="evenodd" clip-rule="evenodd" d="M17.182 71.819c0-2.535 2.167-4.452 4.942-4.452 2.776 0 4.977 1.916 4.943 4.451 0 2.535-2.167 4.452-4.943 4.452-2.775 0-4.942-1.947-4.942-4.451zm2.302-.032c0 1.392 1.185 2.443 2.64 2.443 1.49 0 2.675-1.051 2.64-2.443 0-1.36-1.15-2.41-2.64-2.41-1.49 0-2.64 1.05-2.64 2.41z" fill="#B2ADCC"/><path d="M41.014 75.992h-2.302v-8.378h2.302v8.378zm23.662-5.534c-.61-.618-1.388-1.082-2.37-1.082-1.49 0-2.606 1.051-2.606 2.411s1.15 2.412 2.606 2.412c.982 0 1.794-.464 2.37-1.082l1.591 1.453c-.914 1.02-2.302 1.67-3.927 1.67-2.776 0-4.942-1.948-4.942-4.453 0-2.535 2.166-4.451 4.942-4.451 1.625 0 3.047.65 3.927 1.67l-1.591 1.452zm4.739-2.04c.677-.65 1.659-1.051 2.776-1.051 2.166 0 3.757 1.39 3.791 3.679v4.946H73.68v-4.544c0-1.299-.71-2.04-2.03-2.04-1.389 0-2.235.834-2.235 2.04v4.544h-2.302V64.059h2.302v4.359z" fill="#B2ADCC"/><path fill-rule="evenodd" clip-rule="evenodd" d="M47.073 71.85c0-2.566 2.099-4.483 4.84-4.483 2.777 0 4.706 1.916 4.706 4.73v.494h-7.142c.338 1.113 1.286 1.762 2.538 1.762 1.05 0 1.862-.463 2.607-1.112l1.523 1.39c-1.083 1.052-2.539 1.608-4.197 1.608-2.945 0-4.875-1.855-4.875-4.39zm4.773-2.66c-1.219 0-2.133.619-2.437 1.732h4.807c-.271-1.113-1.185-1.731-2.37-1.731zm24.374-2.782c.169 0 .304.062.304.217 0 .154-.068.216-.17.216l.204.31h-.136l-.203-.31h-.169v.31h-.101v-.743h.27zm-.17.093v.248h.17c.135 0 .202-.031.202-.124 0-.062-.067-.124-.203-.124h-.169z" fill="#B2ADCC"/><path fill-rule="evenodd" clip-rule="evenodd" d="M75.407 66.78c0-.372.372-.712.812-.712.44 0 .813.34.779.711 0 .402-.339.742-.779.742s-.812-.34-.812-.742zm.102 0c0 .37.304.649.71.649.407 0 .711-.279.677-.65 0-.34-.304-.618-.677-.618-.406 0-.71.278-.71.618z" fill="#B2ADCC"/><path d="M38.34 65.234c0-.773.642-1.391 1.489-1.391.88 0 1.557.618 1.523 1.39 0 .743-.643 1.36-1.523 1.36-.813 0-1.49-.587-1.49-1.36zm4.874-.186h2.302v2.566h1.252v1.855h-1.252v6.523h-2.302v-6.523h-1.219v-1.855h1.22v-2.566z" fill="#B2ADCC"/></svg>