<svg width="90" height="90" fill="none" xmlns="http://www.w3.org/2000/svg"><path d="M66.603 36.566c-.75 1.289-1.483 2.556-2.222 3.824-.362-.238-.72-.481-1.087-.709-.952-.59-1.988-.931-3.08-1.086-1.002-.14-2.003-.16-2.995.093-2.257.569-3.74 2.287-4.082 4.698-.169 1.21-.13 2.401.253 3.56.53 1.614 1.577 2.722 3.11 3.322 1.29.502 2.613.559 3.962.32a7.337 7.337 0 0 0 2.123-.698c.075-.041.159-.155.159-.238.01-.998.005-2.002.005-3.037h-4.86v-3.876h9.482c.005.073.015.156.015.238v9.314c0 .14-.01.249-.143.352-1.131.88-2.406 1.47-3.735 1.93-1.736.606-3.517.963-5.352.88-2.54-.12-4.865-.895-6.825-2.634-1.7-1.51-2.728-3.44-3.164-5.723-.174-.895-.258-1.8-.238-2.716.04-1.708.352-3.359 1.096-4.89 1.056-2.179 2.688-3.741 4.836-4.72 1.25-.569 2.554-.869 3.908-.972a12.597 12.597 0 0 1 5.109.652 11.726 11.726 0 0 1 3.725 2.116zm20.831-.005c-.744 1.283-1.488 2.556-2.222 3.824-.441-.285-.858-.59-1.31-.838a8.316 8.316 0 0 0-3.53-1.02c-.903-.057-1.791-.015-2.664.259-1.453.46-2.58 1.35-3.204 2.8-.923 2.142-.903 4.3.173 6.39.576 1.117 1.503 1.852 2.64 2.287 1.616.62 3.253.59 4.895.103.416-.124.813-.31 1.215-.486.07-.031.153-.14.153-.217.01-1.01.005-2.018.005-3.053H78.73v-3.881h9.478c.005.093.01.181.01.274v9.262c0 .145-.01.264-.149.373-1.126.875-2.39 1.464-3.71 1.92-1.706.595-3.447.952-5.252.885-2.58-.094-4.936-.87-6.93-2.624-1.477-1.299-2.46-2.95-2.985-4.895a12.514 12.514 0 0 1-.432-3.565c.04-1.708.352-3.358 1.101-4.885 1.146-2.339 2.922-3.953 5.268-4.9 1.641-.662 3.343-.895 5.084-.812a12.17 12.17 0 0 1 4.578 1.123c.947.445 1.81 1.009 2.643 1.676zM1.782 44.783c.005-2.038.397-3.834 1.265-5.505.898-1.729 2.163-3.09 3.804-4.073 1.394-.833 2.892-1.283 4.489-1.407 2.172-.166 4.226.274 6.125 1.381 1.508.88 2.713 2.106 3.611 3.654a11.152 11.152 0 0 1 1.448 4.517 12.06 12.06 0 0 1-.396 4.59c-.55 1.914-1.543 3.539-2.976 4.858a9.839 9.839 0 0 1-4.623 2.401c-1.349.3-2.703.337-4.072.125a9.99 9.99 0 0 1-4.558-1.94 9.93 9.93 0 0 1-2.797-3.318 11.345 11.345 0 0 1-1.32-5.283zM12.208 50.6c.253-.02.51-.036.764-.072 1.989-.28 3.417-1.377 4.24-3.286.521-1.206.63-2.478.412-3.782-.263-1.589-.972-2.903-2.257-3.82-1.23-.874-2.604-1.132-4.077-.905-1.21.187-2.256.725-3.08 1.661-1.359 1.542-1.77 3.384-1.433 5.413.466 2.866 2.663 4.786 5.43 4.791zm17.572-1.046v5.568h-4.9V34.077h.229c3.387 0 6.78-.036 10.167.016 1.964.026 3.73.698 5.134 2.199.927.993 1.483 2.2 1.71 3.555.125.73.21 1.485.194 2.225-.034 1.857-.575 3.534-1.78 4.947-1.116 1.303-2.52 2.07-4.152 2.375a9.992 9.992 0 0 1-1.666.155c-1.548.02-3.09.005-4.638.005h-.297zm.06-4.512h4.34c.11 0 .218.005.322-.01 1.216-.192 2.128-.833 2.495-2.086.382-1.298.214-2.525-.744-3.534-.654-.688-1.498-.859-2.385-.864-1.255-.01-2.51 0-3.765 0-.09 0-.174.005-.263.01v6.484zm14.483 10.525c-.992-.021-1.81-.228-2.415-.983-.353-.435-.506-.958-.56-1.511-.075-.714.009-1.413.341-2.044.367-.704.968-1.113 1.712-1.268.738-.155 1.482-.14 2.187.16.704.3 1.195.823 1.423 1.6.253.858.248 1.702-.109 2.53-.382.884-1.091 1.288-1.959 1.448-.238.047-.476.052-.62.068z" fill="#B2ADCC"/></svg>