<svg width="90" height="90" fill="none" xmlns="http://www.w3.org/2000/svg"><path d="M72.075 64.49c-.195-.054-.39-.101-.577-.168-1.132-.4-1.809-1.42-1.87-2.81-.066-1.575.805-2.878 2.165-3.169 2.46-.52 3.9 1.31 3.665 3.466-.16 1.465-.89 2.256-2.331 2.634-.02.007-.034.027-.054.04-.328.007-.663.007-.998.007zm2.137-3.134c-.074-.338-.12-.71-.248-1.047-.241-.642-.75-.96-1.434-.952-.656.006-1.146.337-1.394.965a2.854 2.854 0 0 0-.04 2.014c.235.689.77 1.06 1.468 1.06.703-.007 1.226-.378 1.454-1.08.094-.291.127-.609.194-.96zM21.55 64.49c-.027-.02-.054-.047-.08-.054-1.173-.236-1.91-.946-2.198-2.1-.309-1.243-.121-2.405.817-3.337.918-.906 2.546-1.007 3.598-.264.563.399.871.939.952 1.669-.395 0-.764.006-1.126-.007-.067 0-.147-.108-.18-.183-.215-.52-.61-.797-1.153-.844-.59-.047-1.093.155-1.387.696-.456.85-.463 1.729-.027 2.587.281.554.878.817 1.5.736.624-.088.959-.48 1.106-1.06.02-.075.04-.149.067-.243h1.22c.034 1.06-.764 2.06-1.856 2.337-.087.02-.168.054-.248.08-.335-.013-.67-.013-1.005-.013zM2.117 58.41h4.865v1.088H5.22v4.837H3.913v-4.843h-1.79c-.006-.358-.006-.723-.006-1.081zM51.06 41.963l5.274 9.882c-.127.014-.221.027-.315.027-2.412 0-4.825 0-7.237.007-.241 0-.348-.088-.456-.29-1.648-3.101-3.31-6.195-4.952-9.302-.14-.27-.301-.351-.596-.345-1.24.014-2.48.007-3.719.007h-.382v-6.43h10.648V31.91H37.303v19.94h-7.236V31.919h-8.564v19.934h-7.257V31.898H5.749v-6.81h45.285c2.606 0 4.65 1.615 5.18 4.108.073.358.107.736.107 1.108.006 2.127.006 4.255.006 6.383 0 2.918-2.104 5.127-5.005 5.255-.067 0-.134.007-.262.02zm25.846-1.027v-15.84h7.27v26.756c-.1.007-.207.02-.308.02-2.446 0-4.892 0-7.337.007-.235 0-.356-.088-.483-.27l-10.674-16.01c-.047-.074-.101-.141-.208-.304v16.557h-7.277v-26.75c.12-.006.254-.02.382-.02 2.546 0 5.092.007 7.639-.007.254 0 .402.081.536.29l10.312 15.483c.027.034.054.074.08.108.02-.007.048-.013.068-.02zM63.732 62.444c.362-1.405.697-2.716 1.038-4.047.362 0 .71-.013 1.053.014.087.007.207.142.227.243.295 1.142.577 2.29.865 3.432.026.108.06.216.114.412.335-1.412.656-2.743.971-4.08h1.287c-.536 1.986-1.059 3.945-1.588 5.924h-1.314c-.321-1.29-.65-2.594-.978-3.905h-.074c-.321 1.304-.636 2.601-.958 3.912h-1.333c-.516-1.96-1.039-3.932-1.575-5.945.409 0 .79-.013 1.166.014.074.006.174.142.2.236.276 1.121.53 2.25.798 3.378.02.108.047.209.1.412zm-14.582-.183v-3.837h1.194v5.931c-.39 0-.785.014-1.18-.013-.087-.007-.188-.135-.248-.23-.703-1.121-1.4-2.25-2.097-3.37a.705.705 0 0 0-.241-.25v3.843h-1.213v-5.938c.395 0 .777-.013 1.166.014.1.007.214.135.274.243.697 1.108 1.388 2.23 2.084 3.344.06.101.128.203.188.304.02-.02.047-.027.074-.04zm32.252 2.094c-.308 0-.644-.013-.978.007-.208.013-.282-.081-.302-.257-.047-.378-.087-.756-.134-1.141-.087-.676-.335-.912-.998-.926-.416-.013-.825 0-1.287 0v2.304h-1.32v-5.938h.603c.904 0 1.81-.013 2.714.007 1.24.034 1.997 1.236 1.467 2.37-.14.305-.435.541-.663.805.563.23.69.776.737 1.37.054.453.107.906.16 1.4zm-3.692-4.93v1.654c.55 0 1.085.034 1.608-.007.51-.04.717-.344.69-.885-.027-.486-.268-.736-.764-.756-.496-.02-.998-.007-1.534-.007zM7.692 58.397h1.816c.503 0 1.005-.006 1.508.007.77.02 1.38.5 1.561 1.196.201.79-.06 1.438-.75 1.87-.027.021-.047.048-.08.075.683.277.77.871.823 1.493.04.426.088.844.141 1.304-.335 0-.723.006-1.099-.007-.06 0-.154-.122-.167-.203-.06-.365-.1-.736-.14-1.1-.088-.764-.343-1-1.1-1.007-.389-.007-.777 0-1.2 0v2.303H7.7c-.007-1.966-.007-3.931-.007-5.93zm1.314 2.655c.603 0 1.172.034 1.735-.014.389-.026.556-.303.57-.742.013-.48-.127-.777-.516-.818-.59-.054-1.186-.013-1.79-.013v1.587zm28.03-2.634c1.179 0 2.338-.034 3.497.013.69.027 1.253.588 1.387 1.23.161.783-.1 1.411-.75 1.817a.733.733 0 0 0-.094.08c.543.23.737.676.79 1.217.054.52.115 1.047.175 1.587-.322 0-.69.014-1.052-.007-.074-.007-.194-.115-.208-.189-.06-.31-.08-.621-.127-.932-.034-.23-.04-.493-.147-.682-.114-.196-.329-.433-.516-.453-.536-.06-1.086-.02-1.662-.02v2.27h-1.28c-.013-1.973-.013-3.939-.013-5.931zm1.293 2.64c.596 0 1.152.035 1.702-.013.435-.033.616-.324.616-.81 0-.466-.207-.764-.636-.797-.55-.04-1.106-.007-1.675-.007-.007.554-.007 1.087-.007 1.628zm46.115.615c-.228.244-.442.433-.61.649a.677.677 0 0 0-.12.392c-.013.533-.007 1.074-.007 1.62h-1.293v-5.916h1.287v2.39c.127-.114.2-.168.26-.236.624-.662 1.24-1.324 1.877-1.972a.798.798 0 0 1 .456-.196c.422-.027.844-.007 1.3-.007-.79.777-1.548 1.527-2.312 2.277l2.6 3.681c-.556 0-1.052.007-1.548-.007-.08 0-.174-.114-.234-.202-.543-.804-1.08-1.615-1.656-2.473zm-55.972-1.006c.898 1.277 1.735 2.452 2.606 3.688-.556 0-1.052.014-1.547-.013-.088-.007-.195-.129-.255-.223-.543-.797-1.072-1.601-1.642-2.446-.241.244-.462.46-.663.696-.06.075-.067.21-.074.311-.007.54 0 1.08 0 1.648h-1.3v-5.904h1.287v2.439c.234-.25.402-.426.563-.594.522-.554 1.038-1.115 1.574-1.655a.787.787 0 0 1 .456-.203c.422-.027.844-.007 1.28-.007l-2.285 2.263zm3.142 3.675v-5.924h4.43v1.08H32.94v1.27h2.848v1.014H32.94v1.465h3.15v1.095h-4.477zm21.242-4.864v1.29h2.855v1.007h-2.848v1.472h3.163v1.081h-4.49v-5.917h4.423v1.06c-1.026.007-2.044.007-3.103.007zm-39.783 4.877c.262-.702.51-1.344.75-1.993.463-1.229.932-2.452 1.388-3.688.08-.216.18-.297.409-.283.341.027.77-.095 1.005.067.234.162.295.601.415.926.576 1.547 1.153 3.087 1.73 4.633.033.095.066.19.12.332-.443 0-.845.006-1.253-.007-.06 0-.141-.122-.175-.203-.113-.29-.187-.601-.314-.885-.047-.101-.195-.216-.302-.216-.59-.02-1.18-.02-1.776 0-.1 0-.234.108-.281.203-.134.297-.215.614-.342.912-.04.087-.16.189-.248.195-.348.02-.704.007-1.126.007zm2.942-4.397h-.074c-.24.682-.482 1.364-.73 2.074h1.521c-.248-.71-.482-1.392-.717-2.074zm42.235-.46h-1.769v-1.067h4.838v1.047h-1.762v4.864h-1.313c.007-1.608.007-3.209.007-4.844z" fill="#B2ADCC"/></svg>