<svg width="90" height="90" fill="none" xmlns="http://www.w3.org/2000/svg"><path fill-rule="evenodd" clip-rule="evenodd" d="M55.627 18.731l-1.198 3.792.03 17.502h4.46v2.334h2.395l2.394-2.334h4.19l7.783-7.584v-13.71H55.627zm17.959 12.543l-3.293 3.209h-5.387L61.912 37.4v-2.917h-4.49v-13.71h16.164v10.501zm-5.388-6.709h2.095v5.834h-2.095v-5.834zm-5.388 0h2.096v5.834H62.81v-5.834zm25.443 27.128v13.71l-7.782 5.251h-4.79V68.32l-3.592 2.334H67.9V68.32l-2.694 2.334h-7.782l-2.395-2.334-.599 2.334-6.854-.03-2.724-2.304-.3 2.334-7.782-.03-.3-2.304-2.095 2.305-11.973.029-2.394-1.167v1.167h-6.585l-7.184-4.376-4.49-4.375V42.651h9.28l4.489 4.375h20.354v-4.375h16.762v4.375h4.19v2.334l2.395-2.334h5.089l4.49-4.375h9.578v4.375h5.089l4.789 4.667zm-74.831-2.625h-4.19v-4.375h-5.39v16.335l3.293 3.5h6.286v-5.542h-4.19v-4.667h4.19v-5.251zm22.45 0h-5.389v9.918h-2.095v-9.918h-5.089v9.918h-2.095v-9.918h-5.687v15.46h16.762l3.592-3.5v-11.96zm7.183 0h-5.089v15.46h5.089v-15.46zm0-4.375h-5.089v2.333h5.089v-2.334zm11.673 4.375h-4.19v-4.375H45.15v16.335l3.293 3.5h6.285v-5.542h-4.19v-4.667h4.19v-5.251zm13.77 0h-8.382l-3.292 3.209v8.75l3.592 3.501h8.082v-5.542H62.51v-4.667h5.986v-5.251zm17.66 3.209l-3.592-3.209H76.28v-4.375h-5.687v19.835h5.687v-10.21h4.19v10.21h5.688V52.277z" fill="#B2ADCC"/></svg>