<svg width="33" height="32" viewBox="0 0 33 32" fill="none" xmlns="http://www.w3.org/2000/svg">
<rect width="33" height="32" fill="#161326"/>
<path d="M5.91606 2L12.6679 7.13C10.0219 10.73 8.10584 14.87 7.37591 19.28L9.56569 18.83C9.4562 19.262 9.34672 20.0828 9.23723 20.9036C9.16424 21.4508 9.09124 21.998 9.01825 22.43C7.92336 21.44 6.64598 20.72 5.27737 20.18L4 16.4L6.82847 12.44L5.91606 2Z" fill="#F4F2FF"/>
<path d="M14.9489 17.3L9.74817 14.69C10.8431 17.48 11.208 17.84 14.9489 17.3Z" fill="#F4F2FF"/>
<path fill-rule="evenodd" clip-rule="evenodd" d="M27.0839 2L26.1715 12.44L29 16.4L27.7226 20.18C22.6526 22.0656 20.9897 25.9677 19.975 28.3486C19.8758 28.5814 19.7828 28.7996 19.6934 29H13.3978L12.5766 27.11C13.0328 22.7 15.4964 17.03 19.6022 12.8L16.3175 13.43C18.3362 8.37534 20.0906 7.10058 24.5043 3.89362C25.2774 3.33193 26.132 2.71094 27.0839 2ZM14.4927 23.96L16.5 26.84L18.5073 23.96H14.4927ZM17.9599 17.3L23.1606 14.69C22.0657 17.48 21.7007 17.84 17.9599 17.3Z" fill="#F4F2FF"/>
</svg>
