<svg width="32" height="32" viewBox="0 0 32 32" fill="none" xmlns="http://www.w3.org/2000/svg">
<path d="M5.83942 2L12.3212 7.13C9.78102 10.73 7.94161 14.87 7.24088 19.28L9.34306 18.83C9.23796 19.262 9.13285 20.0828 9.02774 20.9036C8.95767 21.4508 8.88759 21.998 8.81752 22.43C7.76642 21.44 6.54015 20.72 5.22628 20.18L4 16.4L6.71533 12.44L5.83942 2Z" fill="#D3CFE5"/>
<path d="M14.5109 17.3L9.51825 14.69C10.5693 17.48 10.9197 17.84 14.5109 17.3Z" fill="#D3CFE5"/>
<path fill-rule="evenodd" clip-rule="evenodd" d="M26.1606 2L25.2847 12.44L28 16.4L26.7737 20.18C21.9065 22.0656 20.3101 25.9677 19.336 28.3486C19.2408 28.5814 19.1515 28.7996 19.0657 29H13.0219L12.2336 27.11C12.6715 22.7 15.0365 17.03 18.9781 12.8L15.8248 13.43C17.7628 8.37534 19.447 7.10058 23.6841 3.89362C24.4263 3.33193 25.2467 2.71094 26.1606 2ZM14.073 23.96L16 26.84L17.927 23.96H14.073ZM17.4015 17.3L22.3942 14.69C21.3431 17.48 20.9927 17.84 17.4015 17.3Z" fill="#D3CFE5"/>
</svg>
