<svg width="208" height="62" viewBox="0 0 208 62" fill="none" xmlns="http://www.w3.org/2000/svg">
<path fill-rule="evenodd" clip-rule="evenodd" d="M78.5783 41.7714C83.0787 41.7714 86.1453 39.0852 86.1453 34.7398H86.1055V27.4316C86.1055 23.1257 83.0787 20.4 78.5385 20.4C73.6 20.4 70.9714 23.1257 70.9714 27.4316V34.7398C70.9714 39.0852 74.0779 41.7714 78.5783 41.7714ZM78.5385 37.7026C76.7064 37.7026 75.5913 36.5175 75.5913 34.6608V27.5501C75.5913 25.6935 76.7064 24.5084 78.5385 24.5084C80.3705 24.5084 81.4856 25.6935 81.4856 27.5501V34.6608C81.4856 36.5175 80.3705 37.7026 78.5385 37.7026Z" fill="#F4F2FF"/>
<path d="M98.133 41.4948L103.709 20.716H99.0491L95.7833 34.8187L92.5175 20.716H87.6188L93.1547 41.4948H98.133Z" fill="#F4F2FF"/>
<path d="M110.36 32.9621V37.3865H119.122V41.4948H105.74V20.716H118.803V24.8243H110.36V28.9327H117.847V32.9621H110.36Z" fill="#F4F2FF"/>
<path fill-rule="evenodd" clip-rule="evenodd" d="M129.317 34.1472L132.065 41.4948H137.083L133.818 33.0411C135.729 31.8955 136.924 29.8808 136.924 27.2735C136.924 23.3232 133.858 20.716 129.676 20.716H121.949V41.4948H126.569V34.1472H129.317ZM126.569 30.1178V24.7453H129.198C131.07 24.7453 132.225 25.7724 132.225 27.3921C132.225 29.0907 131.07 30.1178 129.198 30.1178H126.569Z" fill="#F4F2FF"/>
<path d="M159.984 20.716L155.722 41.4948H151.461L149.151 28.4191L146.841 41.4948H142.58L138.278 20.716H142.938L144.929 33.5941L147.12 20.716H151.381L153.572 33.6336L155.563 20.716H159.984Z" fill="#F4F2FF"/>
<path fill-rule="evenodd" clip-rule="evenodd" d="M169.263 41.7714C173.764 41.7714 176.83 39.0852 176.83 34.7398V27.4316C176.83 23.1257 173.803 20.4 169.263 20.4C164.325 20.4 161.696 23.0862 161.696 27.4316V34.7398C161.696 39.0457 164.763 41.7714 169.263 41.7714ZM169.223 37.7026C167.391 37.7026 166.276 36.5175 166.276 34.6608V27.5501C166.276 25.6935 167.391 24.5084 169.223 24.5084C171.055 24.5084 172.171 25.6935 172.171 27.5501V34.6608C172.171 36.5175 171.055 37.7026 169.223 37.7026Z" fill="#F4F2FF"/>
<path d="M184.636 37.3865H192.442V41.4948H180.016V20.716H184.636V37.3865Z" fill="#F4F2FF"/>
<path d="M199.014 41.4948V33.5546H206.501V29.4462H199.014V24.8243H207.457V20.716H194.394V41.4948H199.014Z" fill="#F4F2FF"/>
<path d="M11.6221 4.28036L23.9201 14.0136C19.1006 20.844 15.6106 28.6989 14.2811 37.0661L18.2696 36.2123C18.0702 37.0319 17.8708 38.5892 17.6714 40.1465C17.5384 41.1848 17.4055 42.223 17.2725 43.0426C15.2782 41.1643 12.9516 39.7982 10.4588 38.7737L8.13213 31.6018L13.284 24.0884L11.6221 4.28036Z" fill="#F4F2FF"/>
<path d="M28.0748 33.3094L18.602 28.3574C20.5963 33.6509 21.261 34.3339 28.0748 33.3094Z" fill="#F4F2FF"/>
<path fill-rule="evenodd" clip-rule="evenodd" d="M50.1779 4.28036L48.516 24.0884L53.6678 31.6018L51.3412 38.7737C42.1066 42.3513 39.0776 49.7548 37.2295 54.2721C37.0488 54.7138 36.8794 55.1278 36.7166 55.508H25.2496L23.7539 51.9221C24.5848 43.5549 29.0719 32.7971 36.5504 24.7714L30.5676 25.9667C34.2445 16.3764 37.44 13.9578 45.4793 7.87316C46.8873 6.80745 48.444 5.62924 50.1779 4.28036ZM27.2438 45.9455L30.9 51.4098L34.5561 45.9455H27.2438ZM33.559 33.3094L43.0318 28.3574C41.0375 33.6509 40.3727 34.3339 33.559 33.3094Z" fill="#F4F2FF"/>
</svg>
