<svg width="120" height="120" viewBox="0 0 120 120" fill="none" xmlns="http://www.w3.org/2000/svg">
<path d="M21.8978 7.5L46.2044 26.7375C36.6788 40.2375 29.781 55.7625 27.1533 72.3L35.0365 70.6125C34.6423 72.2325 34.2482 75.3104 33.854 78.3884C33.5912 80.4404 33.3285 82.4925 33.0657 84.1125C29.1241 80.4 24.5255 77.7 19.5985 75.675L15 61.5L25.1825 46.65L21.8978 7.5Z" fill="#F4F2FF"/>
<path d="M54.4161 64.875L35.6934 55.0875C39.635 65.55 40.9489 66.9 54.4161 64.875Z" fill="#F4F2FF"/>
<path fill-rule="evenodd" clip-rule="evenodd" d="M98.1022 7.5L94.8175 46.65L105 61.5L100.401 75.675C82.1495 82.7461 76.1629 97.3789 72.5101 106.307C72.153 107.18 71.8181 107.999 71.4963 108.75H48.8321L45.8759 101.662C47.5182 85.125 56.3869 63.8625 71.1679 48L59.3431 50.3625C66.6104 31.4075 72.9262 26.6272 88.8155 14.6011C91.5985 12.4947 94.6752 10.166 98.1022 7.5ZM52.7737 89.85L60 100.65L67.2263 89.85H52.7737ZM65.2555 64.875L83.9781 55.0875C80.0365 65.55 78.7226 66.9 65.2555 64.875Z" fill="#F4F2FF"/>
</svg>
