<svg width="784" height="678" viewBox="0 0 784 678" fill="none" xmlns="http://www.w3.org/2000/svg">
<path fill-rule="evenodd" clip-rule="evenodd" d="M139.483 576.125C158.296 576.125 171.116 565.048 171.116 547.13H170.949V516.995C170.949 499.24 158.296 488 139.317 488C118.672 488 107.684 499.24 107.684 516.995V547.13C107.684 565.048 120.67 576.125 139.483 576.125ZM139.317 559.347C131.658 559.347 126.997 554.46 126.997 546.804V517.484C126.997 509.828 131.658 504.941 139.317 504.941C146.975 504.941 151.637 509.828 151.637 517.484V546.804C151.637 554.46 146.975 559.347 139.317 559.347Z" fill="#F4F2FF"/>
<path d="M221.228 574.984L244.536 489.303H225.057L211.405 547.456L197.753 489.303H177.276L200.417 574.984H221.228Z" fill="#F4F2FF"/>
<path d="M272.34 539.8V558.044H308.967V574.984H253.027V489.303H307.635V506.244H272.34V523.185H303.639V539.8H272.34Z" fill="#F4F2FF"/>
<path fill-rule="evenodd" clip-rule="evenodd" d="M351.588 544.686L363.076 574.984H384.053L370.401 540.125C378.393 535.401 383.387 527.094 383.387 516.343C383.387 500.054 370.568 489.303 353.086 489.303H320.788V574.984H340.1V544.686H351.588ZM340.1 528.071V505.918H351.089C358.913 505.918 363.742 510.153 363.742 516.832C363.742 523.836 358.913 528.071 351.089 528.071H340.1Z" fill="#F4F2FF"/>
<path d="M479.783 489.303L461.969 574.984H444.155L434.499 521.067L424.842 574.984H407.028L389.048 489.303H408.527L416.851 542.406L426.008 489.303H443.822L452.979 542.569L461.303 489.303H479.783Z" fill="#F4F2FF"/>
<path fill-rule="evenodd" clip-rule="evenodd" d="M518.574 576.125C537.388 576.125 550.207 565.048 550.207 547.13V516.995C550.207 499.24 537.554 488 518.574 488C497.93 488 486.942 499.077 486.942 516.995V547.13C486.942 564.885 499.761 576.125 518.574 576.125ZM518.408 559.347C510.75 559.347 506.088 554.46 506.088 546.804V517.484C506.088 509.828 510.75 504.941 518.408 504.941C526.066 504.941 530.728 509.828 530.728 517.484V546.804C530.728 554.46 526.066 559.347 518.408 559.347Z" fill="#F4F2FF"/>
<path d="M582.839 558.044H615.47V574.984H563.526V489.303H582.839V558.044Z" fill="#F4F2FF"/>
<path d="M642.941 574.984V542.243H674.241V525.302H642.941V506.244H678.237V489.303H623.629V574.984H642.941Z" fill="#F4F2FF"/>
<path d="M291.029 119.875L355.442 170.854C330.199 206.629 311.92 247.771 304.956 291.595L325.847 287.123C324.802 291.416 323.758 299.573 322.713 307.729C322.017 313.167 321.32 318.605 320.624 322.898C310.179 313.06 297.993 305.905 284.936 300.539L272.75 262.975L299.734 223.623L291.029 119.875Z" fill="#F4F2FF"/>
<path d="M377.203 271.919L327.588 245.982C338.033 273.708 341.515 277.285 377.203 271.919Z" fill="#F4F2FF"/>
<path fill-rule="evenodd" clip-rule="evenodd" d="M492.971 119.875L484.266 223.623L511.25 262.975L499.064 300.539C450.696 319.277 434.832 358.054 425.152 381.714C424.205 384.027 423.318 386.196 422.465 388.188H362.405L354.571 369.406C358.923 325.581 382.425 269.236 421.595 227.2L390.259 233.461C409.517 183.23 426.255 170.562 468.361 138.693C475.736 133.111 483.889 126.94 492.971 119.875ZM372.85 338.102L392 366.723L411.15 338.102H372.85ZM405.927 271.919L455.542 245.982C445.097 273.707 441.615 277.285 405.927 271.919Z" fill="#F4F2FF"/>
</svg>
