<svg width="969" height="426" viewBox="0 0 969 426" fill="none" xmlns="http://www.w3.org/2000/svg">
<path fill-rule="evenodd" clip-rule="evenodd" d="M390.257 253C406.975 253 418.366 243.07 418.366 227.007H418.218V199.993C418.218 184.076 406.975 174 390.109 174C371.764 174 362 184.076 362 199.993V227.007C362 243.07 373.54 253 390.257 253ZM390.109 237.959C383.304 237.959 379.161 233.579 379.161 226.715V200.431C379.161 193.567 383.304 189.187 390.109 189.187C396.914 189.187 401.057 193.567 401.057 200.431V226.715C401.057 233.579 396.914 237.959 390.109 237.959Z" fill="#F4F2FF"/>
<path d="M462.897 251.978L483.609 175.168H466.299L454.168 227.299L442.037 175.168H423.84L444.404 251.978H462.897Z" fill="#F4F2FF"/>
<path d="M508.315 220.436V236.791H540.862V251.978H491.154V175.168H539.679V190.355H508.315V205.541H536.128V220.436H508.315Z" fill="#F4F2FF"/>
<path fill-rule="evenodd" clip-rule="evenodd" d="M578.736 224.817L588.944 251.978H607.585L595.453 220.728C602.555 216.493 606.993 209.046 606.993 199.408C606.993 184.806 595.601 175.168 580.067 175.168H551.367V251.978H568.528V224.817H578.736ZM568.528 209.922V190.063H578.292C585.245 190.063 589.536 193.859 589.536 199.846C589.536 206.125 585.245 209.922 578.292 209.922H568.528Z" fill="#F4F2FF"/>
<path d="M692.652 175.168L676.822 251.978H660.992L652.411 203.643L643.831 251.978H628.001L612.023 175.168H629.332L636.729 222.772L644.866 175.168H660.696L668.833 222.918L676.23 175.168H692.652Z" fill="#F4F2FF"/>
<path fill-rule="evenodd" clip-rule="evenodd" d="M727.122 253C743.84 253 755.231 243.07 755.231 227.007V199.993C755.231 184.076 743.988 174 727.122 174C708.777 174 699.013 183.93 699.013 199.993V227.007C699.013 242.924 710.405 253 727.122 253ZM726.974 237.959C720.169 237.959 716.026 233.579 716.026 226.715V200.431C716.026 193.567 720.169 189.187 726.974 189.187C733.78 189.187 737.922 193.567 737.922 200.431V226.715C737.922 233.579 733.78 237.959 726.974 237.959Z" fill="#F4F2FF"/>
<path d="M784.228 236.791H813.225V251.978H767.067V175.168H784.228V236.791Z" fill="#F4F2FF"/>
<path d="M837.636 251.978V222.626H865.449V207.44H837.636V190.355H869V175.168H820.475V251.978H837.636Z" fill="#F4F2FF"/>
<path d="M141.241 114.125L187.018 150.356C169.078 175.781 156.088 205.019 151.139 236.165L165.985 232.987C165.243 236.038 164.501 241.835 163.758 247.632C163.264 251.496 162.769 255.361 162.274 258.412C154.85 251.42 146.19 246.335 136.911 242.521L128.25 215.825L147.427 187.858L141.241 114.125Z" fill="#F4F2FF"/>
<path d="M202.484 222.181L167.223 203.748C174.646 223.453 177.12 225.995 202.484 222.181Z" fill="#F4F2FF"/>
<path fill-rule="evenodd" clip-rule="evenodd" d="M284.759 114.125L278.573 187.858L297.75 215.825L289.089 242.521C254.715 255.839 243.44 283.397 236.561 300.212C235.888 301.856 235.258 303.397 234.651 304.812H191.967L186.4 291.464C189.493 260.319 206.195 220.274 234.033 190.4L211.763 194.849C225.45 159.151 237.344 150.148 267.269 127.499C272.511 123.532 278.305 119.146 284.759 114.125ZM199.391 269.217L213 289.558L226.609 269.217H199.391ZM222.898 222.181L258.159 203.748C250.735 223.452 248.261 225.995 222.898 222.181Z" fill="#F4F2FF"/>
</svg>
