<svg width="216" height="160" fill="none" xmlns="http://www.w3.org/2000/svg"><path fill="#332E4D" d="M0 0h216v160H0z"/><path d="M70.322 42.333c0 1.112-.105 2.2-.305 3.253C75 45.712 79 49.786 79 54.792c0 4.53-3.277 8.298-7.593 9.065V64h-45.56v-.105C19.727 63.099 15 57.871 15 51.542c0-6.88 5.585-12.459 12.475-12.459 3.109 0 5.952 1.136 8.137 3.015C35.738 32.634 43.459 25 52.966 25c9.585 0 17.356 7.76 17.356 17.333zm123.254 53.778c0 1.74-.162 3.44-.472 5.088 7.708.197 13.896 6.568 13.896 14.398 0 7.087-5.069 12.979-11.746 14.179V130H124.78v-.164c-9.468-1.246-16.78-9.422-16.78-19.322 0-10.762 8.639-19.486 19.297-19.486 4.809 0 9.208 1.777 12.587 4.716C140.078 80.94 152.023 69 166.729 69c14.827 0 26.847 12.138 26.847 27.111z" fill="#201C33"/><path fill-rule="evenodd" clip-rule="evenodd" d="M47.84 57.501l62.952 77.884a1.989 1.989 0 0 0 3.094.025l72.648-88.132c.557-.675.039-1.689-.834-1.634l-136.469 8.54c-1.677.103-2.495 2.078-1.39 3.317z" fill="#F4F2FF"/><path d="M67 81l-6.661 33.988c-.33 1.683 1.486 2.942 2.978 2.064L85.499 104 186 46.5 67 81z" fill="#B2A1E6"/><path d="M33.216 105L19 114.151m27.999 12.265l-14.216 9.151m7.323-19.859L20.28 128.471" stroke="#E6004C" stroke-width="2" stroke-linecap="round"/></svg>