<svg width="216" height="179" fill="none" xmlns="http://www.w3.org/2000/svg"><path d="M165.672 166.414c14.178-18.522.686-101.528-3.43-101.3-1.644.092-8.035-.543-9.604 2.059 4.315 9.832 14.635 61.968 9.604 82.32-.971 3.928-7.622 11.204-10.747 10.518v9.147c1.906.61 9.329 3.59 14.177-2.744z" fill="#403366"/><path d="M162.7 65.343l-6.632 5.946-1.372 1.143-12.119-9.604c2.515-2.363 9.558-3.476 11.205-3.659 1.646-.183 8.46 5.336 8.918 6.174z" fill="#6C5C99"/><path d="M57.207 21.074c-19.208 15.732-11.205 32.47-4.802 38.873h86.893V21.074c-7.317-2.927-20.428 1.22-26.068 3.659-11.525-8.415-31.023-3.506-39.33 0-3.66-3.476-12.654-3.888-16.693-3.659z" fill="#58468A"/><path d="M139.527 60.176c7.208-.378 10.061-5.488 6.631-7.775 10.245-22.5.764-30.891-6.631-31.327-17.072-1.007-15.7 39.925 0 39.102z" fill="#403366"/><path d="M146.158 52.401c3.43 2.287.577 7.397-6.631 7.775-15.7.823-17.072-40.109 0-39.102 7.395.436 16.876 8.826 6.631 31.327zm0 0c-9.983 5.625-18.673-14.269-9.755-22.272 5.945-5.335 16.236 3.201 7.775 16.006-1.437 2.176-8.095-.916-3.887-9.832" stroke="#6C5C99" stroke-width=".457"/><rect x="71.69" y="58.941" width="84.607" height="117.992" rx="15.549" fill="#554977"/><rect x="46.995" y="58.941" width="84.607" height="117.992" rx="15.549" fill="#6C5C99"/><rect x="43.336" y="58.941" width="87.808" height="51.221" rx="6.86" fill="#8E7CBF"/><path d="M78.991 64.943l4.679 3.666c-1.834 2.573-3.161 5.53-3.667 8.682l1.517-.321c-.076.308-.151.895-.227 1.481-.051.391-.102.782-.152 1.091-.759-.707-1.644-1.222-2.592-1.608l-.885-2.7 1.96-2.83-.633-7.46z" fill="#403366"/><path d="M85.25 75.876l-3.603-1.865c.758 1.994 1.011 2.251 3.603 1.865z" fill="#403366"/><path fill-rule="evenodd" clip-rule="evenodd" d="M93.66 64.943l-.633 7.46 1.96 2.83-.885 2.701c-3.514 1.348-4.666 4.136-5.369 5.837-.069.167-.133.323-.195.466h-4.362l-.57-1.35c.317-3.152 2.024-7.204 4.869-10.226l-2.276.45c1.398-3.612 2.614-4.523 5.673-6.815.535-.401 1.127-.845 1.787-1.353zm-8.726 15.692l1.391 2.058 1.391-2.058h-2.782zm2.403-4.759l3.603-1.865c-.758 1.994-1.011 2.251-3.603 1.865z" fill="#403366"/><path d="M63.001 31.272l4.345 1.6c1.677-.685 5.625-1.966 8.003-1.6m-8.46 6.631c-1.144-.457-3.98-1.509-6.174-2.058m6.631 7.546c1.524.458 5.534 1.098 9.375 0m-17.15 10.29h14.406m28.583-22.409l4.345 1.6c1.677-.685 5.625-1.966 8.003-1.6m-8.46 6.631c-1.144-.457-3.979-1.509-6.174-2.058m6.631 7.546c1.524.458 5.534 1.098 9.375 0m-17.15 10.29h14.406" stroke="#403366" stroke-width=".915" stroke-linecap="round"/><path d="M64.83 35.16c.858-16.007 10.976-11.205 10.976-11.205s-1.243.477-1.601.914c-1.46 1.784-3.475 6.482-3.658 10.519-1.83 40.474-1.83 91.238-1.83 91.238H63c-.076-25.763 1.408-83.62 1.83-91.467zm39.791 0c.859-16.007 10.519-11.205 10.519-11.205s-.785.477-1.143.914c-1.46 1.784-3.475 6.482-3.658 10.519-1.829 40.474-1.829 91.238-1.829 91.238h-5.718c-.076-25.763 1.408-83.62 1.829-91.467z" fill="#6C5C99"/><path fill="#58468A" d="M59.8 116.107h11.891v6.403H59.8zm39.788 0h11.891v6.403H99.588z"/><rect x="57.056" y="136.23" width="62.655" height="33.385" rx="8.689" fill="#6C5C99"/><rect x="51.568" y="136.23" width="62.655" height="33.385" rx="8.689" fill="#8E7CBF"/><path opacity=".5" stroke="#403366" stroke-width="2.287" stroke-dasharray="3.2 3.2" d="M57.056 143.776h47.563M141.143 59v47.563"/><circle opacity=".4" cx="65.288" cy="159.097" r="7.317" fill="#6C5C99"/><circle opacity=".7" cx="65.288" cy="159.097" r="5.031" fill="#6C5C99"/><rect opacity=".7" x="140.748" y="113.821" width="19.665" height="50.307" rx="8.689" fill="#403366"/><rect x="145.321" y="113.821" width="15.092" height="50.307" rx="7.546" fill="#403366"/><ellipse cx="156.068" cy="130.742" rx="1.601" ry="2.287" fill="#6C5C99"/><ellipse cx="156.068" cy="138.517" rx="1.601" ry="2.287" fill="#6C5C99"/><rect x="170" y="32" width="2" height="12" rx="1" fill="#E6004C"/><rect x="177" y="37" width="2" height="12" rx="1" transform="rotate(90 177 37)" fill="#E6004C"/><rect x="25" y="71" width="2" height="12" rx="1" fill="#E6004C"/><rect x="32" y="76" width="2" height="12" rx="1" transform="rotate(90 32 76)" fill="#E6004C"/><rect x="154.5" y="7" width="1" height="6" rx=".5" fill="#E6004C"/><rect x="158" y="9.5" width="1" height="6" rx=".5" transform="rotate(90 158 9.5)" fill="#E6004C"/></svg>