<svg width="24" height="24" fill="none" xmlns="http://www.w3.org/2000/svg"><path d="M3.777 12.518a.5.5 0 0 0-.777.416v2.798a.5.5 0 0 0 .223.416l8.5 5.667a.5.5 0 0 0 .554 0l8.5-5.667a.5.5 0 0 0 .223-.416v-2.798a.5.5 0 0 0-.777-.416l-7.946 5.297a.5.5 0 0 1-.554 0l-7.946-5.297z" fill="#797399"/><path d="M11.552 1.908a.5.5 0 0 1 .896 0l1.493 3.025a.5.5 0 0 0 .376.273l3.338.485a.5.5 0 0 1 .277.853l-2.415 2.354a.5.5 0 0 0-.144.443l.57 3.324a.5.5 0 0 1-.725.527l-2.985-1.57a.5.5 0 0 0-.466 0l-2.985 1.57a.5.5 0 0 1-.725-.527l.57-3.324a.5.5 0 0 0-.144-.443L6.068 6.544a.5.5 0 0 1 .277-.853l3.338-.485a.5.5 0 0 0 .376-.273l1.493-3.025z" fill="#797399"/></svg>