<svg width="208" height="188" fill="none" xmlns="http://www.w3.org/2000/svg"><g filter="url(#filter0_d)"><path fill="#332E4D" d="M4 0h200v180H4z"/></g><g clip-path="url(#clip0)" fill="#B2ADCC"><path d="M130.293 89.448c-1.293-.341-2.733-.256-3.941.362-1.377.683-2.352 2.069-2.585 3.583-.148 1.108-.064 2.26.445 3.262a4.839 4.839 0 0 0 3.242 2.58c.508-.917 1.017-1.812 1.483-2.75-.594-.064-1.229-.192-1.653-.64-.487-.533-.572-1.344-.445-2.026.191-.874 1.038-1.493 1.907-1.493.869-.042 1.737.555 1.97 1.43.234.745-.084 1.513-.423 2.153a948 948 0 0 0-4.492 8.082c1.165 0 2.352.021 3.517 0 .869-1.536 1.695-3.092 2.543-4.628.614-1.172 1.313-2.281 1.758-3.54.403-1.108.318-2.345-.063-3.432a4.853 4.853 0 0 0-3.263-2.943zm1.377-8.53c2.013-2.601 2.775-6.12 2.076-9.34-.699-3.368-3.008-6.332-6.081-7.825-3.368-1.727-7.585-1.557-10.848.362-2.754 1.578-4.767 4.393-5.402 7.528 2.182 1.087 4.407 2.11 6.631 3.156-.212-1.408.191-2.9 1.166-3.945a4.586 4.586 0 0 1 3.623-1.472c1.356.086 2.69.79 3.474 1.92.7.959.996 2.217.806 3.39-.212 1.429-1.145 2.708-2.416 3.369a4.575 4.575 0 0 1-3.178.405c-.657-.15-1.25-.49-1.865-.767-3.729-1.792-7.479-3.519-11.208-5.331 1.865-3.967 3.75-7.911 5.615-11.878 1.462-2.814 1.568-6.29.424-9.233-1.06-2.75-3.242-5.053-5.912-6.248-2.182-1.002-4.682-1.258-7.034-.767-2.436.512-4.725 1.834-6.335 3.753a11.392 11.392 0 0 0-2.733 7.442c.021 2.452.847 4.925 2.33 6.887a11.323 11.323 0 0 0 6.759 4.265c.191-.341.339-.683.509-1.024.869-1.876 1.78-3.731 2.627-5.608-.593.064-1.208.085-1.801-.064a4.692 4.692 0 0 1-2.903-2.09c-.678-1.108-.868-2.516-.466-3.752.424-1.387 1.526-2.538 2.903-2.986a4.66 4.66 0 0 1 3.432.17 4.672 4.672 0 0 1 2.479 2.9 4.566 4.566 0 0 1-.19 3.05c-1.928 4.073-3.835 8.167-5.785 12.219-4.237-1.962-8.432-4.01-12.648-5.992-3.539-1.514-7.84-1.003-10.954 1.258-2.204 1.556-3.793 3.923-4.429 6.546a11.56 11.56 0 0 0 .742 7.634 11.403 11.403 0 0 0 5.551 5.523 11.402 11.402 0 0 0 7.606.66c3.051-.767 5.742-2.9 7.204-5.714.487-.96.911-1.962 1.06-3.05-2.204-1.023-4.386-2.089-6.59-3.113.042.491.085 1.003 0 1.493-.19 1.194-.847 2.325-1.843 3.028a4.627 4.627 0 0 1-3.687.79 4.648 4.648 0 0 1-2.924-2.048 4.462 4.462 0 0 1-.656-3.07c.19-1.45 1.122-2.794 2.436-3.455a4.576 4.576 0 0 1 3.178-.405c.53.128 1.017.384 1.505.618 9.703 4.606 19.386 9.212 29.069 13.818.635.277 1.229.64 1.886.853 1.186.405 2.436.64 3.665.618 3.538.064 7.013-1.663 9.132-4.478zM80.523 91.644c.572.299.954.853 1.229 1.429H84.4c-.212-1.258-1.017-2.346-2.034-3.07-1.377-.94-3.199-1.131-4.746-.577a5.05 5.05 0 0 0-2.86 2.56 5.21 5.21 0 0 0-.021 4.456c.53 1.109 1.462 2.026 2.585 2.495 1.525.66 3.347.576 4.788-.277a4.97 4.97 0 0 0 2.31-3.178h-2.649c-.339.704-.91 1.344-1.695 1.557-.932.277-2.013-.064-2.606-.832-.953-1.13-.932-2.985.106-4.072.7-.81 1.992-1.045 2.945-.49zm7.585 5.374v-7.911c-.89 0-1.758-.022-2.648.021.02 3.412 0 6.824 0 10.235h5.657c.021-.767 0-1.556 0-2.324-.996-.021-2.013-.021-3.009-.021zm32.693-6.675c-.89-.895-2.162-1.194-3.39-1.215-1.314-.021-2.628 0-3.941-.021-.022 3.411 0 6.844 0 10.256h3.623c1.377 0 2.839-.32 3.856-1.3 1.038-.981 1.419-2.474 1.377-3.881.042-1.429-.487-2.879-1.525-3.839zm-1.335 5.331c-.212.576-.699 1.066-1.314 1.237-.657.213-1.356.128-2.034.128v-5.63c.826.022 1.737-.106 2.479.363.636.363.975 1.109 1.059 1.813.106.682.064 1.428-.19 2.09zm-9.577-6.546v7.91c-.975.022-1.97 0-2.945 0-.339 0-.742-.042-.996-.319-.402-.384-.424-.98-.445-1.493-.021-2.047 0-4.072 0-6.12h-2.606v5.843c0 .79 0 1.62.36 2.367.339.661.848 1.258 1.526 1.6.826.405 1.758.49 2.669.447h4.768V89.128a21.22 21.22 0 0 0-2.331 0zm-10.763.512c-1.06-.533-2.31-.661-3.475-.448a4.894 4.894 0 0 0-2.966 1.812c-.784.917-1.123 2.154-1.123 3.348a4.84 4.84 0 0 0 1.42 3.433c1.101 1.152 2.754 1.706 4.322 1.536 1.504-.128 2.945-.96 3.792-2.218.89-1.28 1.102-2.985.636-4.478a5.234 5.234 0 0 0-2.606-2.985zm-.043 5.97c-.317.64-.868 1.194-1.567 1.386-.954.32-2.056 0-2.713-.767-.932-1.067-.974-2.815-.105-3.945.38-.47.91-.81 1.504-.917.763-.15 1.589.042 2.161.576 1.06.874 1.335 2.473.72 3.667z"/></g><path d="M68.672 154.537a.532.532 0 0 1-.14.161.296.296 0 0 1-.175.049c-.08 0-.173-.04-.28-.119a4.206 4.206 0 0 0-.406-.259 2.931 2.931 0 0 0-.581-.266 2.477 2.477 0 0 0-.82-.119 2.37 2.37 0 0 0-.804.126 1.71 1.71 0 0 0-.581.329c-.154.14-.27.306-.35.497-.08.187-.12.39-.12.609 0 .28.068.513.204.7.14.182.322.338.546.469.228.131.485.245.77.343.29.093.583.191.882.294.303.103.597.219.882.35.29.126.546.287.77.483.228.196.41.436.546.721.14.285.21.635.21 1.05 0 .439-.075.852-.224 1.239-.15.383-.369.716-.658 1.001a3.01 3.01 0 0 1-1.057.672 3.867 3.867 0 0 1-1.421.245 4.386 4.386 0 0 1-1.778-.35 4.221 4.221 0 0 1-1.365-.959l.392-.644a.496.496 0 0 1 .133-.126.324.324 0 0 1 .182-.056c.06 0 .128.026.203.077.08.047.168.107.266.182s.21.156.336.245a2.845 2.845 0 0 0 .98.434c.205.047.436.07.693.07.322 0 .609-.044.86-.133a1.82 1.82 0 0 0 .638-.371c.177-.163.312-.357.406-.581.093-.224.14-.474.14-.749 0-.303-.07-.551-.21-.742a1.662 1.662 0 0 0-.54-.49 3.642 3.642 0 0 0-.77-.329 104.49 104.49 0 0 0-.881-.28 9.995 9.995 0 0 1-.882-.336 2.84 2.84 0 0 1-.77-.49 2.302 2.302 0 0 1-.546-.749c-.136-.303-.203-.677-.203-1.12 0-.355.067-.698.203-1.029.14-.331.34-.625.602-.882a2.98 2.98 0 0 1 .973-.616c.387-.154.83-.231 1.33-.231a4.2 4.2 0 0 1 1.526.266 3.6 3.6 0 0 1 1.218.77l-.33.644zm4.039 8.575c-.56 0-.992-.156-1.295-.469-.299-.313-.448-.763-.448-1.351v-4.34h-.854a.289.289 0 0 1-.19-.063c-.05-.047-.076-.117-.076-.21v-.497l1.162-.147.287-2.191a.279.279 0 0 1 .287-.238h.63v2.443h2.05v.903h-2.05v4.256c0 .299.072.52.217.665a.756.756 0 0 0 .56.217c.13 0 .243-.016.336-.049.098-.037.182-.077.252-.119.07-.042.128-.079.175-.112.051-.037.096-.056.133-.056.065 0 .123.04.175.119l.364.595a2.368 2.368 0 0 1-.777.476 2.688 2.688 0 0 1-.938.168zm6.683-3.304c-.574.019-1.064.065-1.47.14-.4.07-.73.163-.987.28-.251.117-.436.254-.552.413a.902.902 0 0 0-.169.532c0 .187.03.348.092.483.06.135.142.247.244.336.108.084.231.147.371.189.145.037.3.056.462.056.22 0 .42-.021.602-.063a2.33 2.33 0 0 0 .512-.196c.163-.084.317-.184.462-.301.149-.117.293-.25.433-.399v-1.47zm-4.025-2.898c.392-.378.815-.66 1.267-.847a3.91 3.91 0 0 1 1.505-.28c.397 0 .75.065 1.057.196.309.131.568.313.778.546.21.233.368.516.475.847.108.331.162.695.162 1.092V163h-.553a.575.575 0 0 1-.28-.056c-.066-.042-.117-.121-.154-.238l-.14-.672a7.43 7.43 0 0 1-.547.462 3.38 3.38 0 0 1-.56.336 3.016 3.016 0 0 1-.63.203 3.243 3.243 0 0 1-.734.077c-.276 0-.535-.037-.778-.112a1.872 1.872 0 0 1-.636-.35 1.697 1.697 0 0 1-.427-.581 2.108 2.108 0 0 1-.155-.84c0-.28.078-.548.231-.805.154-.261.404-.492.75-.693.345-.201.795-.364 1.35-.49.556-.131 1.237-.205 2.044-.224v-.553c0-.551-.119-.966-.357-1.246-.238-.285-.585-.427-1.043-.427-.308 0-.567.04-.776.119a2.775 2.775 0 0 0-.54.259c-.149.093-.28.18-.391.259a.559.559 0 0 1-.323.112.372.372 0 0 1-.216-.063.672.672 0 0 1-.154-.168l-.224-.399zM88.996 163H87.75v-6.048h-3.654v4.256c0 .299.072.52.217.665a.757.757 0 0 0 .56.217 1.018 1.018 0 0 0 .588-.168c.07-.042.128-.079.175-.112.051-.037.095-.056.133-.056.065 0 .123.04.175.119l.364.595a2.366 2.366 0 0 1-.777.476 2.687 2.687 0 0 1-.938.168c-.56 0-.992-.156-1.295-.469-.299-.313-.448-.763-.448-1.351v-4.34h-.854a.289.289 0 0 1-.19-.063c-.05-.047-.076-.117-.076-.21v-.497l1.162-.154.287-2.184a.279.279 0 0 1 .287-.238h.63v2.443h4.9V163zm.308-9.366a.857.857 0 0 1-.273.616.908.908 0 0 1-.28.189.845.845 0 0 1-.343.07.846.846 0 0 1-.616-.259.852.852 0 0 1-.259-.616c0-.121.023-.236.07-.343a.876.876 0 0 1 .189-.287.872.872 0 0 1 .273-.196.846.846 0 0 1 .343-.07.845.845 0 0 1 .623.266c.084.079.15.175.196.287a.784.784 0 0 1 .077.343zm5.869 3.444a.276.276 0 0 1-.26.154.491.491 0 0 1-.237-.077 4.432 4.432 0 0 0-.33-.168 2.511 2.511 0 0 0-.454-.175 2.101 2.101 0 0 0-.63-.084c-.21 0-.4.028-.567.084a1.352 1.352 0 0 0-.434.217 1.016 1.016 0 0 0-.273.329.877.877 0 0 0-.091.399.68.68 0 0 0 .154.455c.107.121.247.226.42.315.172.089.368.168.588.238.219.065.443.138.672.217.233.075.46.159.679.252.219.093.415.21.588.35.172.14.31.313.413.518.107.201.16.443.16.728 0 .327-.058.63-.174.91a2.03 2.03 0 0 1-.518.721 2.532 2.532 0 0 1-.84.476 3.442 3.442 0 0 1-1.148.175 3.62 3.62 0 0 1-1.344-.238 3.454 3.454 0 0 1-1.022-.623l.294-.476a.427.427 0 0 1 .133-.14.356.356 0 0 1 .196-.049c.084 0 .172.033.266.098.093.065.205.138.336.217a2.24 2.24 0 0 0 1.204.315c.242 0 .455-.03.637-.091a1.39 1.39 0 0 0 .455-.259.974.974 0 0 0 .266-.371c.06-.14.09-.289.09-.448a.719.719 0 0 0-.16-.483 1.228 1.228 0 0 0-.413-.329 3.041 3.041 0 0 0-.595-.238l-.68-.217a9.45 9.45 0 0 1-.678-.252 2.483 2.483 0 0 1-.588-.364 1.689 1.689 0 0 1-.42-.532 1.79 1.79 0 0 1-.154-.777c0-.271.056-.53.168-.777a1.87 1.87 0 0 1 .49-.658 2.38 2.38 0 0 1 .79-.455 3.17 3.17 0 0 1 1.072-.168c.466 0 .884.075 1.253.224.373.145.695.345.966.602l-.28.455zm8.506 5.922h-1.246v-6.048h-3.654v4.256c0 .299.073.52.217.665a.757.757 0 0 0 .56.217c.131 0 .243-.016.336-.049.098-.037.182-.077.252-.119.07-.042.129-.079.175-.112.052-.037.096-.056.133-.056.066 0 .124.04.175.119l.364.595a2.353 2.353 0 0 1-.777.476 2.684 2.684 0 0 1-.938.168c-.56 0-.991-.156-1.295-.469-.298-.313-.448-.763-.448-1.351v-4.34h-.854a.289.289 0 0 1-.189-.063c-.051-.047-.077-.117-.077-.21v-.497l1.162-.154.287-2.184a.279.279 0 0 1 .287-.238h.63v2.443h4.9V163zm.308-9.366a.776.776 0 0 1-.077.343.848.848 0 0 1-.196.273.898.898 0 0 1-.623.259.849.849 0 0 1-.616-.259.862.862 0 0 1-.189-.959.885.885 0 0 1 .189-.287.886.886 0 0 1 .273-.196.849.849 0 0 1 .343-.07.842.842 0 0 1 .623.266c.084.079.15.175.196.287a.776.776 0 0 1 .077.343zm6.674 3.535a.54.54 0 0 1-.112.119.25.25 0 0 1-.154.042.426.426 0 0 1-.231-.084 3.136 3.136 0 0 0-.315-.196 2.22 2.22 0 0 0-.455-.189 2.04 2.04 0 0 0-.658-.091c-.35 0-.658.063-.924.189-.266.121-.49.299-.672.532a2.527 2.527 0 0 0-.406.847 4.333 4.333 0 0 0-.133 1.113c0 .429.049.812.147 1.148.098.331.236.611.413.84.182.224.399.397.651.518.257.117.544.175.861.175.304 0 .553-.035.749-.105a2.21 2.21 0 0 0 .483-.245 4.19 4.19 0 0 0 .322-.238.406.406 0 0 1 .259-.112c.103 0 .182.04.238.119l.35.455a2.483 2.483 0 0 1-.525.49c-.196.135-.408.25-.637.343a3.48 3.48 0 0 1-.707.196 4.502 4.502 0 0 1-.756.063c-.443 0-.856-.082-1.239-.245a2.841 2.841 0 0 1-.987-.707 3.371 3.371 0 0 1-.658-1.148 4.68 4.68 0 0 1-.238-1.547c0-.527.073-1.015.217-1.463.15-.448.364-.833.644-1.155a2.953 2.953 0 0 1 1.043-.763c.416-.182.892-.273 1.428-.273.5 0 .938.082 1.316.245.383.159.721.385 1.015.679l-.329.448zm5.881-.091a.276.276 0 0 1-.259.154.489.489 0 0 1-.238-.077 4.64 4.64 0 0 0-.329-.168 2.52 2.52 0 0 0-.455-.175 2.108 2.108 0 0 0-.63-.084c-.21 0-.399.028-.567.084a1.349 1.349 0 0 0-.434.217 1.009 1.009 0 0 0-.273.329.873.873 0 0 0-.091.399c0 .182.051.334.154.455.107.121.247.226.42.315.172.089.368.168.588.238.219.065.443.138.672.217.233.075.459.159.679.252.219.093.415.21.588.35a1.566 1.566 0 0 1 .574 1.246c0 .327-.059.63-.175.91a2.03 2.03 0 0 1-.518.721 2.538 2.538 0 0 1-.84.476 3.445 3.445 0 0 1-1.148.175c-.495 0-.943-.079-1.344-.238a3.445 3.445 0 0 1-1.022-.623l.294-.476a.417.417 0 0 1 .133-.14.354.354 0 0 1 .196-.049c.084 0 .172.033.266.098.093.065.205.138.336.217a2.24 2.24 0 0 0 1.204.315c.242 0 .455-.03.637-.091a1.39 1.39 0 0 0 .455-.259.977.977 0 0 0 .266-.371c.06-.14.091-.289.091-.448a.72.72 0 0 0-.161-.483 1.238 1.238 0 0 0-.413-.329 3.049 3.049 0 0 0-.595-.238l-.679-.217a9.396 9.396 0 0 1-.679-.252 2.455 2.455 0 0 1-.588-.364 1.68 1.68 0 0 1-.42-.532 1.786 1.786 0 0 1-.154-.777c0-.271.056-.53.168-.777a1.87 1.87 0 0 1 .49-.658c.214-.191.478-.343.791-.455a3.16 3.16 0 0 1 1.071-.168c.466 0 .884.075 1.253.224.373.145.695.345.966.602l-.28.455zm10.665 2.198l-1.575-4.081a8.816 8.816 0 0 1-.294-.938 7.742 7.742 0 0 1-.301.945l-1.575 4.074h3.745zm2.828 3.724h-1.05a.447.447 0 0 1-.294-.091.558.558 0 0 1-.168-.231l-.938-2.422h-4.501l-.938 2.422a.492.492 0 0 1-.161.224.451.451 0 0 1-.294.098h-1.05l4.011-10.031h1.372l4.01 10.031zm2.251-1.708c.229.308.478.525.749.651s.574.189.91.189c.663 0 1.171-.236 1.526-.707s.532-1.143.532-2.016c0-.462-.042-.859-.126-1.19a2.243 2.243 0 0 0-.35-.812 1.364 1.364 0 0 0-.567-.469 1.885 1.885 0 0 0-.763-.147c-.406 0-.763.093-1.071.28a3.11 3.11 0 0 0-.84.791v3.43zm-.063-4.284a3.673 3.673 0 0 1 1.036-.889 2.66 2.66 0 0 1 1.344-.336c.411 0 .782.079 1.113.238.331.154.614.385.847.693.233.303.413.681.539 1.134.126.453.189.973.189 1.561 0 .523-.07 1.01-.21 1.463-.14.448-.343.838-.609 1.169a2.842 2.842 0 0 1-.966.777 2.85 2.85 0 0 1-1.281.28c-.434 0-.807-.072-1.12-.217a2.685 2.685 0 0 1-.819-.616v3.136h-1.253v-9.492h.749c.177 0 .287.086.329.259l.112.84zm7.911 4.284c.228.308.478.525.749.651.27.126.574.189.91.189.662 0 1.171-.236 1.526-.707.354-.471.532-1.143.532-2.016 0-.462-.042-.859-.126-1.19a2.26 2.26 0 0 0-.35-.812 1.364 1.364 0 0 0-.567-.469 1.888 1.888 0 0 0-.763-.147c-.406 0-.763.093-1.071.28a3.08 3.08 0 0 0-.84.791v3.43zm-.063-4.284a3.659 3.659 0 0 1 1.036-.889 2.66 2.66 0 0 1 1.344-.336c.41 0 .781.079 1.113.238.331.154.613.385.847.693.233.303.413.681.539 1.134.126.453.189.973.189 1.561 0 .523-.07 1.01-.21 1.463-.14.448-.343.838-.609 1.169a2.861 2.861 0 0 1-.966.777 2.85 2.85 0 0 1-1.281.28c-.434 0-.808-.072-1.12-.217a2.685 2.685 0 0 1-.819-.616v3.136h-1.253v-9.492h.749c.177 0 .287.086.329.259l.112.84z" fill="#B2ADCC"/><defs><filter id="filter0_d" x="0" y="0" width="208" height="188" filterUnits="userSpaceOnUse" color-interpolation-filters="sRGB"><feFlood flood-opacity="0" result="BackgroundImageFix"/><feColorMatrix in="SourceAlpha" values="0 0 0 0 0 0 0 0 0 0 0 0 0 0 0 0 0 0 127 0"/><feOffset dy="4"/><feGaussianBlur stdDeviation="2"/><feColorMatrix values="0 0 0 0 0 0 0 0 0 0 0 0 0 0 0 0 0 0 0.25 0"/><feBlend in2="BackgroundImageFix" result="effect1_dropShadow"/><feBlend in="SourceGraphic" in2="effect1_dropShadow" result="shape"/></filter><clipPath id="clip0"><path fill="#fff" transform="translate(59 29)" d="M0 0h90v90H0z"/></clipPath></defs></svg>