<svg width="208" height="188" fill="none" xmlns="http://www.w3.org/2000/svg"><g filter="url(#filter0_d)"><path fill="#332E4D" d="M4 0h200v180H4z"/></g><path d="M71.422 81.103c2.2 10.974 17.05 12.853 31.268 11.386 8.737-.903 19.192-4.116 25.493-7.944l.063 5.406c-6.945 3.885-16.978 6.455-24.654 7.282-19.405 2.091-32.186-3.378-34.678-13.285-1.961-7.723 1.198-14.317 7.104-19.567l.022 1.914c-3.27 3.617-5.693 9.39-4.618 14.808zm12.361-21.856c20.483-12.665 52.485-12 56.05 4.265 1.91 8.724-4.238 15.929-10.292 18.215l-.046-3.904c5.021-3.037 7.792-8.25 6.837-13.207-2.842-14.996-32.053-14.718-52.533-3.992l-.016-1.377z" fill="#B2ADCC"/><path d="M123.033 61.33l3.729-.043.236 20.307c-2.796-.23-3.751-1.896-3.773-3.823l-.192-16.441zM82.43 67.81l-3.742.044.125 10.747c.023 1.94.99 3.593 3.787 3.823l-.17-14.614zm-3.806-5.462l3.728-.043.041 3.503-3.728.044-.041-3.504zm26.307 19.64c-3.02.036-4.321-2.026-4.345-4.078l-.167-14.264 3.704-.043.046 3.94 2.78-.032.035 2.953-2.781.033.083 7.144c.01.838.42 1.297 1.292 1.286l1.504-.017.036 3.053-2.187.025z" fill="#B2ADCC"/><path fill-rule="evenodd" clip-rule="evenodd" d="M114.972 79.056c-2.081.024-3.284-1.332-3.311-3.203l9.391-.11-.016-1.325c-.048-4.142-2.36-7.268-6.303-7.222-3.893.045-6.82 2.77-6.764 7.537.065 5.567 3.475 7.442 7.014 7.401 2.717-.032 4.236-.925 5.686-2.369l-2.313-2.125c-.937.937-1.741 1.397-3.384 1.416zm-3.005-7.298c.407-.868 1.373-1.53 2.636-1.545 1.896-.022 2.635 1.496 2.729 3.059l-5.701.066c.018-.65.102-1.052.336-1.58z" fill="#B2ADCC"/><path d="M92.499 70.646c1.087-.013 1.535.507 1.546 1.37l.117 10.123 3.704-.043-.118-10.135c-.024-2.052-1.15-4.316-4.399-4.278l-7.634.089.169 14.464 3.703-.044-.134-11.51 3.046-.036z" fill="#B2ADCC"/><path fill-rule="evenodd" clip-rule="evenodd" d="M131.187 63.587l.279-.003c.05 0 .062-.026.062-.038a.1.1 0 0 0-.006-.025.074.074 0 0 1-.007-.025l-.4-.659c.202-.077.327-.216.324-.479l-.001-.025c-.005-.425-.272-.56-.739-.554a2.6 2.6 0 0 0-.455.03c-.088.014-.113.051-.112.139l.018 1.589c.001.025.026.062.064.062l.253-.003c.038 0 .063-.038.062-.063l-.007-.626.177-.002a.1.1 0 0 1 .051.024l.386.621c.001.026.026.038.051.038zm-.447-1.496c.24-.003.355.058.357.234v.025c.002.175-.111.251-.351.254l-.12-.005a3.019 3.019 0 0 0-.12-.005l-.006-.5.24-.003z" fill="#B2ADCC"/><path fill-rule="evenodd" clip-rule="evenodd" d="M129.319 62.733c.01.814.675 1.456 1.496 1.447.822-.01 1.484-.668 1.475-1.481-.01-.801-.688-1.456-1.509-1.447a1.466 1.466 0 0 0-1.462 1.481zm.253-.003a1.223 1.223 0 0 1 1.212-1.24 1.235 1.235 0 0 1 1.253 1.212c.007.663-.542 1.22-1.225 1.228a1.213 1.213 0 0 1-1.24-1.2z" fill="#B2ADCC"/><path d="M70.26 161.859V163h-5.692v-10.031h1.351v8.89h4.34zm5.446-3.178c0-.289-.042-.553-.126-.791a1.679 1.679 0 0 0-.357-.623 1.507 1.507 0 0 0-.567-.406 1.886 1.886 0 0 0-.763-.147c-.598 0-1.071.175-1.421.525-.346.345-.56.826-.644 1.442h3.878zm1.008 3.325a2.44 2.44 0 0 1-.553.49 3.565 3.565 0 0 1-.693.336 4.062 4.062 0 0 1-.756.196c-.262.047-.52.07-.777.07-.49 0-.943-.082-1.358-.245a3.08 3.08 0 0 1-1.071-.728 3.408 3.408 0 0 1-.7-1.19c-.168-.471-.252-1.013-.252-1.624 0-.495.074-.957.224-1.386.154-.429.373-.8.658-1.113a2.952 2.952 0 0 1 1.043-.742c.41-.182.872-.273 1.386-.273.424 0 .816.072 1.176.217.364.14.676.345.938.616.266.266.473.597.623.994.149.392.224.84.224 1.344 0 .196-.021.327-.063.392-.042.065-.122.098-.238.098h-4.74c.015.448.075.838.183 1.169.112.331.266.609.462.833.196.219.429.385.7.497.27.107.574.161.91.161.312 0 .58-.035.805-.105a4.076 4.076 0 0 0 .994-.469.546.546 0 0 1 .287-.112c.102 0 .182.04.238.119l.35.455zm5.485-2.198c-.574.019-1.064.065-1.47.14-.401.07-.73.163-.987.28-.252.117-.436.254-.553.413a.902.902 0 0 0-.168.532c0 .187.03.348.091.483.06.135.142.247.245.336.108.084.231.147.371.189.145.037.299.056.462.056.22 0 .42-.021.602-.063.182-.047.352-.112.511-.196a2.68 2.68 0 0 0 .462-.301c.15-.117.294-.25.434-.399v-1.47zm-4.025-2.898c.392-.378.814-.66 1.267-.847.453-.187.954-.28 1.505-.28.397 0 .75.065 1.057.196.308.131.567.313.777.546.21.233.369.516.476.847.108.331.161.695.161 1.092V163h-.553a.575.575 0 0 1-.28-.056c-.065-.042-.117-.121-.154-.238l-.14-.672a7.389 7.389 0 0 1-.546.462 3.376 3.376 0 0 1-.56.336 3.016 3.016 0 0 1-.63.203 3.25 3.25 0 0 1-.735.077 2.62 2.62 0 0 1-.777-.112 1.873 1.873 0 0 1-.637-.35 1.7 1.7 0 0 1-.427-.581 2.11 2.11 0 0 1-.154-.84c0-.28.077-.548.231-.805.154-.261.404-.492.75-.693.344-.201.795-.364 1.35-.49.555-.131 1.237-.205 2.044-.224v-.553c0-.551-.119-.966-.357-1.246-.238-.285-.585-.427-1.043-.427-.308 0-.567.04-.777.119a2.778 2.778 0 0 0-.539.259c-.15.093-.28.18-.392.259a.558.558 0 0 1-.322.112.372.372 0 0 1-.217-.063.674.674 0 0 1-.154-.168l-.224-.399zm11.761.686c-.233-.313-.485-.53-.756-.651a2.13 2.13 0 0 0-.91-.189c-.658 0-1.164.236-1.519.707s-.532 1.143-.532 2.016c0 .462.04.859.12 1.19.079.327.195.597.35.812.153.21.342.364.566.462.224.098.478.147.763.147.41 0 .768-.093 1.071-.28.308-.187.59-.45.847-.791v-3.423zm1.246-4.907V163h-.742c-.177 0-.29-.086-.336-.259l-.112-.861a3.86 3.86 0 0 1-1.036.882c-.387.224-.835.336-1.344.336-.406 0-.775-.077-1.106-.231a2.334 2.334 0 0 1-.847-.693c-.233-.303-.413-.681-.539-1.134a5.84 5.84 0 0 1-.189-1.561c0-.523.07-1.008.21-1.456.14-.453.34-.845.602-1.176.261-.331.581-.59.96-.777a2.844 2.844 0 0 1 1.287-.287c.434 0 .805.075 1.113.224.313.145.59.348.833.609v-3.927h1.246zM98.383 163h-1.358v-10.031h1.358V163zm3.339-6.062c.154-.173.317-.329.49-.469.172-.14.354-.259.546-.357a2.849 2.849 0 0 1 1.323-.315c.387 0 .728.065 1.022.196.298.126.546.308.742.546.2.233.352.516.455.847.102.331.154.698.154 1.099V163h-1.253v-4.515c0-.537-.124-.952-.371-1.246-.243-.299-.614-.448-1.113-.448-.369 0-.714.089-1.036.266a3.403 3.403 0 0 0-.882.721V163h-1.253v-7.091h.749c.177 0 .287.086.329.259l.098.77zm12.556-1.029L111.387 163h-1.12l-2.891-7.091h1.015a.383.383 0 0 1 .385.259l1.799 4.564c.056.173.105.341.147.504.042.163.082.327.119.49.037-.163.077-.327.119-.49.042-.163.093-.331.154-.504l1.82-4.564a.387.387 0 0 1 .14-.182.363.363 0 0 1 .231-.077h.973zm5.697 2.772c0-.289-.042-.553-.126-.791a1.668 1.668 0 0 0-.357-.623 1.507 1.507 0 0 0-.567-.406 1.885 1.885 0 0 0-.763-.147c-.597 0-1.071.175-1.421.525-.345.345-.56.826-.644 1.442h3.878zm1.008 3.325a2.42 2.42 0 0 1-.553.49 3.527 3.527 0 0 1-.693.336 4.034 4.034 0 0 1-.756.196c-.261.047-.52.07-.777.07-.49 0-.942-.082-1.358-.245a3.092 3.092 0 0 1-1.071-.728 3.418 3.418 0 0 1-.7-1.19c-.168-.471-.252-1.013-.252-1.624 0-.495.075-.957.224-1.386.154-.429.374-.8.658-1.113a2.962 2.962 0 0 1 1.043-.742 3.388 3.388 0 0 1 1.386-.273c.425 0 .817.072 1.176.217.364.14.677.345.938.616.266.266.474.597.623.994.15.392.224.84.224 1.344 0 .196-.021.327-.063.392-.042.065-.121.098-.238.098h-4.739c.014.448.075.838.182 1.169.112.331.266.609.462.833.196.219.43.385.7.497.271.107.574.161.91.161.313 0 .581-.035.805-.105a4.039 4.039 0 0 0 .994-.469.547.547 0 0 1 .287-.112c.103 0 .182.04.238.119l.35.455zm5.773-4.928a.276.276 0 0 1-.259.154.489.489 0 0 1-.238-.077 4.64 4.64 0 0 0-.329-.168 2.52 2.52 0 0 0-.455-.175 2.108 2.108 0 0 0-.63-.084c-.21 0-.399.028-.567.084a1.349 1.349 0 0 0-.434.217 1.009 1.009 0 0 0-.273.329.873.873 0 0 0-.091.399c0 .182.051.334.154.455.107.121.247.226.42.315.172.089.368.168.588.238.219.065.443.138.672.217.233.075.459.159.679.252.219.093.415.21.588.35a1.566 1.566 0 0 1 .574 1.246c0 .327-.059.63-.175.91a2.03 2.03 0 0 1-.518.721 2.538 2.538 0 0 1-.84.476 3.445 3.445 0 0 1-1.148.175c-.495 0-.943-.079-1.344-.238a3.445 3.445 0 0 1-1.022-.623l.294-.476a.417.417 0 0 1 .133-.14.354.354 0 0 1 .196-.049c.084 0 .172.033.266.098.093.065.205.138.336.217a2.24 2.24 0 0 0 1.204.315c.242 0 .455-.03.637-.091a1.39 1.39 0 0 0 .455-.259.977.977 0 0 0 .266-.371c.06-.14.091-.289.091-.448a.72.72 0 0 0-.161-.483 1.238 1.238 0 0 0-.413-.329 3.049 3.049 0 0 0-.595-.238l-.679-.217a9.396 9.396 0 0 1-.679-.252 2.455 2.455 0 0 1-.588-.364 1.68 1.68 0 0 1-.42-.532 1.786 1.786 0 0 1-.154-.777c0-.271.056-.53.168-.777a1.87 1.87 0 0 1 .49-.658c.214-.191.478-.343.791-.455a3.16 3.16 0 0 1 1.071-.168c.466 0 .884.075 1.253.224.373.145.695.345.966.602l-.28.455zm4.103 6.034c-.56 0-.991-.156-1.295-.469-.298-.313-.448-.763-.448-1.351v-4.34h-.854a.291.291 0 0 1-.189-.063c-.051-.047-.077-.117-.077-.21v-.497l1.162-.147.287-2.191a.3.3 0 0 1 .091-.168.28.28 0 0 1 .196-.07h.63v2.443h2.051v.903h-2.051v4.256c0 .299.073.52.217.665a.758.758 0 0 0 .56.217c.131 0 .243-.016.336-.049.098-.037.182-.077.252-.119.07-.042.129-.079.175-.112.052-.037.096-.056.133-.056.066 0 .124.04.175.119l.364.595a2.353 2.353 0 0 1-.777.476 2.686 2.686 0 0 1-.938.168zm5.789-7.315c.518 0 .985.086 1.4.259.415.173.77.418 1.064.735.294.317.518.702.672 1.155.159.448.238.95.238 1.505a4.5 4.5 0 0 1-.238 1.512 3.187 3.187 0 0 1-.672 1.148 3.012 3.012 0 0 1-1.064.735 3.703 3.703 0 0 1-1.4.252c-.523 0-.994-.084-1.414-.252a3.012 3.012 0 0 1-1.064-.735c-.294-.317-.52-.7-.679-1.148a4.634 4.634 0 0 1-.231-1.512c0-.555.077-1.057.231-1.505.159-.453.385-.838.679-1.155a3.012 3.012 0 0 1 1.064-.735 3.68 3.68 0 0 1 1.414-.259zm0 6.328c.7 0 1.223-.233 1.568-.7.345-.471.518-1.127.518-1.967 0-.845-.173-1.503-.518-1.974-.345-.471-.868-.707-1.568-.707-.355 0-.665.061-.931.182a1.752 1.752 0 0 0-.658.525 2.413 2.413 0 0 0-.392.847 4.596 4.596 0 0 0-.126 1.127c0 .84.173 1.496.518 1.967.35.467.88.7 1.589.7zm6.137-4.795c.224-.485.5-.863.826-1.134.327-.275.726-.413 1.197-.413.15 0 .292.016.427.049.14.033.264.084.371.154l-.091.931c-.028.117-.098.175-.21.175-.065 0-.161-.014-.287-.042a1.974 1.974 0 0 0-.427-.042c-.224 0-.424.033-.602.098a1.414 1.414 0 0 0-.469.294 2.096 2.096 0 0 0-.371.476 4.214 4.214 0 0 0-.294.644V163h-1.253v-7.091h.714c.136 0 .229.026.28.077.052.051.087.14.105.266l.084 1.078z" fill="#B2ADCC"/><defs><filter id="filter0_d" x="0" y="0" width="208" height="188" filterUnits="userSpaceOnUse" color-interpolation-filters="sRGB"><feFlood flood-opacity="0" result="BackgroundImageFix"/><feColorMatrix in="SourceAlpha" values="0 0 0 0 0 0 0 0 0 0 0 0 0 0 0 0 0 0 127 0"/><feOffset dy="4"/><feGaussianBlur stdDeviation="2"/><feColorMatrix values="0 0 0 0 0 0 0 0 0 0 0 0 0 0 0 0 0 0 0.25 0"/><feBlend in2="BackgroundImageFix" result="effect1_dropShadow"/><feBlend in="SourceGraphic" in2="effect1_dropShadow" result="shape"/></filter></defs></svg>