<svg width="208" height="188" fill="none" xmlns="http://www.w3.org/2000/svg"><g filter="url(#filter0_d)"><path fill="#332E4D" d="M4 0h200v180H4z"/></g><path d="M49.73 157.365h.512c.177 0 .32-.021.427-.063a.802.802 0 0 0 .294-.231l3.339-3.78a.81.81 0 0 1 .294-.252.906.906 0 0 1 .378-.07h1.148l-3.822 4.319a2.259 2.259 0 0 1-.273.28c-.084.07-.175.128-.273.175.126.042.24.105.343.189a1.6 1.6 0 0 1 .3.315l3.99 4.753h-1.175c-.089 0-.166-.005-.231-.014a.742.742 0 0 1-.161-.056.854.854 0 0 1-.126-.091 1.4 1.4 0 0 1-.098-.126l-3.458-3.983a.803.803 0 0 0-.301-.245c-.108-.051-.271-.077-.49-.077h-.616V163H48.38v-10.031h1.35v4.396zm11.838 1.316c0-.289-.042-.553-.126-.791a1.679 1.679 0 0 0-.357-.623 1.507 1.507 0 0 0-.567-.406 1.886 1.886 0 0 0-.763-.147c-.597 0-1.071.175-1.421.525-.345.345-.56.826-.644 1.442h3.878zm1.008 3.325a2.42 2.42 0 0 1-.553.49 3.565 3.565 0 0 1-.693.336 4.062 4.062 0 0 1-.756.196c-.261.047-.52.07-.777.07-.49 0-.943-.082-1.358-.245a3.08 3.08 0 0 1-1.071-.728 3.408 3.408 0 0 1-.7-1.19c-.168-.471-.252-1.013-.252-1.624 0-.495.075-.957.224-1.386.154-.429.373-.8.658-1.113a2.952 2.952 0 0 1 1.043-.742c.41-.182.873-.273 1.386-.273.425 0 .817.072 1.176.217.364.14.677.345.938.616.266.266.474.597.623.994.15.392.224.84.224 1.344 0 .196-.021.327-.063.392-.042.065-.121.098-.238.098h-4.739c.014.448.075.838.182 1.169.112.331.266.609.462.833.196.219.43.385.7.497.27.107.574.161.91.161.313 0 .581-.035.805-.105a4.076 4.076 0 0 0 .994-.469.546.546 0 0 1 .287-.112c.103 0 .182.04.238.119l.35.455zm7.583-6.097l-3.955 9.184a.632.632 0 0 1-.161.224c-.061.056-.157.084-.287.084h-.924l1.295-2.814-2.926-6.678h1.078c.107 0 .191.028.252.084.065.051.11.11.133.175l1.897 4.466c.074.196.137.401.189.616.065-.219.135-.427.21-.623l1.84-4.459a.386.386 0 0 1 .14-.182.384.384 0 0 1 .232-.077h.987zm2.353 5.383c.23.308.479.525.75.651.275.126.576.189.903.189.667 0 1.178-.236 1.532-.707.355-.471.532-1.174.532-2.107 0-.868-.158-1.505-.475-1.911-.313-.411-.761-.616-1.345-.616-.406 0-.76.093-1.064.28-.298.187-.576.45-.832.791v3.43zm0-4.361a3.664 3.664 0 0 1 1.008-.826 2.688 2.688 0 0 1 1.303-.308c.415 0 .788.079 1.12.238.335.159.62.39.853.693.234.299.411.663.532 1.092.126.429.19.912.19 1.449 0 .574-.07 1.097-.21 1.568-.14.471-.344.875-.61 1.211-.26.331-.58.59-.958.777a2.9 2.9 0 0 1-1.274.273c-.467 0-.861-.086-1.183-.259a2.628 2.628 0 0 1-.834-.749l-.063.644c-.037.177-.144.266-.322.266h-.804v-10.311h1.252v4.242zm9.57-1.134c.518 0 .985.086 1.4.259.416.173.77.418 1.064.735.294.317.518.702.672 1.155.16.448.238.95.238 1.505a4.5 4.5 0 0 1-.238 1.512 3.187 3.187 0 0 1-.672 1.148 3.008 3.008 0 0 1-1.064.735 3.704 3.704 0 0 1-1.4.252 3.78 3.78 0 0 1-1.414-.252 3.01 3.01 0 0 1-1.064-.735 3.27 3.27 0 0 1-.679-1.148 4.634 4.634 0 0 1-.23-1.512c0-.555.076-1.057.23-1.505.16-.453.385-.838.68-1.155a3.01 3.01 0 0 1 1.063-.735c.42-.173.892-.259 1.414-.259zm0 6.328c.7 0 1.223-.233 1.568-.7.346-.471.518-1.127.518-1.967 0-.845-.172-1.503-.518-1.974-.345-.471-.868-.707-1.568-.707a2.23 2.23 0 0 0-.93.182 1.755 1.755 0 0 0-.659.525 2.415 2.415 0 0 0-.392.847 4.596 4.596 0 0 0-.126 1.127c0 .84.173 1.496.518 1.967.35.467.88.7 1.59.7zm8.798-2.317c-.574.019-1.064.065-1.47.14-.401.07-.73.163-.987.28-.252.117-.436.254-.553.413a.902.902 0 0 0-.168.532c0 .187.03.348.09.483a.958.958 0 0 0 .246.336c.107.084.23.147.37.189.145.037.3.056.463.056.22 0 .42-.021.602-.063a2.68 2.68 0 0 0 .973-.497c.15-.117.294-.25.434-.399v-1.47zm-4.025-2.898c.392-.378.814-.66 1.267-.847.453-.187.954-.28 1.505-.28.397 0 .749.065 1.057.196.308.131.567.313.777.546.21.233.368.516.476.847.107.331.16.695.16 1.092V163h-.552a.575.575 0 0 1-.28-.056c-.066-.042-.117-.121-.154-.238l-.14-.672a7.43 7.43 0 0 1-.546.462 3.376 3.376 0 0 1-.56.336 3.016 3.016 0 0 1-.63.203 3.25 3.25 0 0 1-.735.077 2.62 2.62 0 0 1-.777-.112 1.872 1.872 0 0 1-.637-.35 1.698 1.698 0 0 1-.427-.581 2.108 2.108 0 0 1-.154-.84c0-.28.077-.548.23-.805.155-.261.404-.492.75-.693.345-.201.796-.364 1.35-.49.556-.131 1.238-.205 2.045-.224v-.553c0-.551-.12-.966-.357-1.246-.238-.285-.586-.427-1.043-.427-.308 0-.567.04-.777.119a2.778 2.778 0 0 0-.54.259c-.148.093-.28.18-.391.259a.559.559 0 0 1-.322.112.372.372 0 0 1-.217-.063.672.672 0 0 1-.154-.168l-.224-.399zm8.324.42c.224-.485.5-.863.826-1.134.327-.275.726-.413 1.197-.413.15 0 .291.016.427.049.14.033.263.084.37.154l-.09.931c-.028.117-.098.175-.21.175-.066 0-.161-.014-.287-.042a1.976 1.976 0 0 0-.427-.042 1.74 1.74 0 0 0-.602.098 1.407 1.407 0 0 0-.47.294 2.088 2.088 0 0 0-.37.476 4.157 4.157 0 0 0-.294.644V163h-1.253v-7.091h.714c.135 0 .229.026.28.077.051.051.086.14.105.266l.084 1.078zm8.263.266c-.233-.313-.485-.53-.756-.651a2.132 2.132 0 0 0-.91-.189c-.658 0-1.164.236-1.519.707s-.532 1.143-.532 2.016c0 .462.04.859.119 1.19.08.327.196.597.35.812.154.21.343.364.567.462.224.098.478.147.763.147.411 0 .768-.093 1.071-.28.308-.187.59-.45.847-.791v-3.423zm1.246-4.907V163h-.742c-.177 0-.289-.086-.336-.259l-.112-.861a3.86 3.86 0 0 1-1.036.882c-.387.224-.835.336-1.344.336-.406 0-.775-.077-1.106-.231a2.332 2.332 0 0 1-.847-.693c-.233-.303-.413-.681-.539-1.134a5.84 5.84 0 0 1-.189-1.561c0-.523.07-1.008.21-1.456.14-.453.34-.845.602-1.176.261-.331.581-.59.959-.777a2.845 2.845 0 0 1 1.288-.287c.434 0 .805.075 1.113.224.313.145.59.348.833.609v-3.927h1.246zm7.202 1.386v3.507h4.123v1.106h-4.123V163h-1.358v-10.031h6.181v1.106h-4.823zm10.395 4.606c0-.289-.042-.553-.126-.791a1.695 1.695 0 0 0-.357-.623 1.507 1.507 0 0 0-.567-.406 1.888 1.888 0 0 0-.763-.147c-.598 0-1.071.175-1.421.525-.346.345-.56.826-.644 1.442h3.878zm1.008 3.325a2.44 2.44 0 0 1-.553.49 3.582 3.582 0 0 1-.693.336 4.075 4.075 0 0 1-.756.196c-.262.047-.521.07-.777.07-.49 0-.943-.082-1.358-.245a3.074 3.074 0 0 1-1.071-.728 3.403 3.403 0 0 1-.7-1.19c-.168-.471-.252-1.013-.252-1.624 0-.495.074-.957.224-1.386.154-.429.373-.8.658-1.113a2.944 2.944 0 0 1 1.043-.742c.41-.182.872-.273 1.386-.273.424 0 .816.072 1.176.217.364.14.676.345.938.616.266.266.473.597.623.994.149.392.224.84.224 1.344 0 .196-.021.327-.063.392-.042.065-.122.098-.238.098h-4.739c.014.448.074.838.182 1.169.112.331.266.609.462.833.196.219.429.385.7.497.27.107.574.161.91.161.312 0 .581-.035.805-.105a4.134 4.134 0 0 0 .994-.469.544.544 0 0 1 .287-.112c.102 0 .182.04.238.119l.35.455zm5.485-2.198c-.574.019-1.064.065-1.47.14-.401.07-.73.163-.987.28-.252.117-.436.254-.553.413a.902.902 0 0 0-.168.532c0 .187.031.348.091.483a.968.968 0 0 0 .245.336c.108.084.231.147.371.189.145.037.299.056.462.056.22 0 .42-.021.602-.063a2.635 2.635 0 0 0 .973-.497c.15-.117.294-.25.434-.399v-1.47zm-4.025-2.898c.392-.378.815-.66 1.267-.847a3.91 3.91 0 0 1 1.505-.28c.397 0 .749.065 1.057.196.308.131.567.313.777.546.21.233.369.516.476.847.108.331.161.695.161 1.092V163h-.553a.578.578 0 0 1-.28-.056c-.065-.042-.116-.121-.154-.238l-.14-.672a7.15 7.15 0 0 1-.546.462 3.364 3.364 0 0 1-.56.336 3.016 3.016 0 0 1-.63.203 3.246 3.246 0 0 1-.735.077 2.62 2.62 0 0 1-.777-.112 1.878 1.878 0 0 1-.637-.35 1.71 1.71 0 0 1-.427-.581 2.12 2.12 0 0 1-.154-.84c0-.28.077-.548.231-.805.154-.261.404-.492.749-.693.346-.201.796-.364 1.351-.49.556-.131 1.237-.205 2.044-.224v-.553c0-.551-.119-.966-.357-1.246-.238-.285-.585-.427-1.043-.427-.308 0-.567.04-.777.119a2.786 2.786 0 0 0-.539.259c-.149.093-.28.18-.392.259a.556.556 0 0 1-.322.112.372.372 0 0 1-.217-.063.686.686 0 0 1-.154-.168l-.224-.399zm9.223 6.202c-.56 0-.992-.156-1.295-.469-.299-.313-.448-.763-.448-1.351v-4.34h-.854a.287.287 0 0 1-.189-.063c-.052-.047-.077-.117-.077-.21v-.497l1.162-.147.287-2.191a.277.277 0 0 1 .287-.238h.63v2.443h2.051v.903h-2.051v4.256c0 .299.072.52.217.665a.755.755 0 0 0 .56.217 1.018 1.018 0 0 0 .588-.168c.07-.042.128-.079.175-.112.051-.037.095-.056.133-.056.065 0 .123.04.175.119l.364.595a2.374 2.374 0 0 1-.777.476 2.69 2.69 0 0 1-.938.168zm8.671-7.203V163h-.742c-.177 0-.289-.086-.336-.259l-.098-.763a3.95 3.95 0 0 1-1.036.826 2.744 2.744 0 0 1-1.316.308 2.63 2.63 0 0 1-1.029-.189 2.086 2.086 0 0 1-.742-.546 2.345 2.345 0 0 1-.455-.847 3.865 3.865 0 0 1-.147-1.099v-4.522h1.246v4.522c0 .537.121.952.364 1.246.247.294.623.441 1.127.441.369 0 .712-.086 1.029-.259.322-.177.618-.42.889-.728v-5.222h1.246zm3.159 1.421c.224-.485.499-.863.826-1.134.326-.275.725-.413 1.197-.413.149 0 .291.016.427.049.14.033.263.084.371.154l-.091.931c-.028.117-.098.175-.21.175-.066 0-.161-.014-.287-.042a1.98 1.98 0 0 0-.427-.042 1.74 1.74 0 0 0-.602.098 1.404 1.404 0 0 0-.469.294 2.068 2.068 0 0 0-.371.476 4.03 4.03 0 0 0-.294.644V163h-1.253v-7.091h.714c.135 0 .228.026.28.077.051.051.086.14.105.266l.084 1.078zm8.375 1.351c0-.289-.042-.553-.126-.791a1.668 1.668 0 0 0-.357-.623 1.507 1.507 0 0 0-.567-.406 1.885 1.885 0 0 0-.763-.147c-.597 0-1.071.175-1.421.525-.345.345-.56.826-.644 1.442h3.878zm1.008 3.325a2.42 2.42 0 0 1-.553.49 3.527 3.527 0 0 1-.693.336 4.034 4.034 0 0 1-.756.196c-.261.047-.52.07-.777.07-.49 0-.942-.082-1.358-.245a3.092 3.092 0 0 1-1.071-.728 3.418 3.418 0 0 1-.7-1.19c-.168-.471-.252-1.013-.252-1.624 0-.495.075-.957.224-1.386.154-.429.374-.8.658-1.113a2.962 2.962 0 0 1 1.043-.742 3.388 3.388 0 0 1 1.386-.273c.425 0 .817.072 1.176.217.364.14.677.345.938.616.266.266.474.597.623.994.15.392.224.84.224 1.344 0 .196-.021.327-.063.392-.042.065-.121.098-.238.098h-4.739c.014.448.075.838.182 1.169.112.331.266.609.462.833.196.219.43.385.7.497.271.107.574.161.91.161.313 0 .581-.035.805-.105a4.039 4.039 0 0 0 .994-.469.547.547 0 0 1 .287-.112c.103 0 .182.04.238.119l.35.455zm5.773-4.928a.276.276 0 0 1-.259.154.489.489 0 0 1-.238-.077 4.64 4.64 0 0 0-.329-.168 2.52 2.52 0 0 0-.455-.175 2.108 2.108 0 0 0-.63-.084c-.21 0-.399.028-.567.084a1.349 1.349 0 0 0-.434.217 1.009 1.009 0 0 0-.273.329.873.873 0 0 0-.091.399c0 .182.051.334.154.455.107.121.247.226.42.315.172.089.368.168.588.238.219.065.443.138.672.217.233.075.459.159.679.252.219.093.415.21.588.35a1.566 1.566 0 0 1 .574 1.246c0 .327-.059.63-.175.91a2.03 2.03 0 0 1-.518.721 2.538 2.538 0 0 1-.84.476 3.445 3.445 0 0 1-1.148.175c-.495 0-.943-.079-1.344-.238a3.445 3.445 0 0 1-1.022-.623l.294-.476a.417.417 0 0 1 .133-.14.354.354 0 0 1 .196-.049c.084 0 .172.033.266.098.093.065.205.138.336.217a2.24 2.24 0 0 0 1.204.315c.242 0 .455-.03.637-.091a1.39 1.39 0 0 0 .455-.259.977.977 0 0 0 .266-.371c.06-.14.091-.289.091-.448a.72.72 0 0 0-.161-.483 1.238 1.238 0 0 0-.413-.329 3.049 3.049 0 0 0-.595-.238l-.679-.217a9.396 9.396 0 0 1-.679-.252 2.455 2.455 0 0 1-.588-.364 1.68 1.68 0 0 1-.42-.532 1.786 1.786 0 0 1-.154-.777c0-.271.056-.53.168-.777a1.87 1.87 0 0 1 .49-.658c.214-.191.478-.343.791-.455a3.16 3.16 0 0 1 1.071-.168c.466 0 .884.075 1.253.224.373.145.695.345.966.602l-.28.455zM104.753 38c-6.872-.03-13.71 2.628-18.45 7.203-4.603 4.328-7.21 10.357-7.04 16.385.067 6.523 3.385 12.891 8.801 17.127 4.57 3.617 10.63 5.657 16.689 5.657v-9.615c-5.18-.03-10.291-2.627-12.83-6.77-2.945-4.513-2.606-10.572.846-14.808 2.708-3.493 7.312-5.533 11.984-5.564V38zm23.053 19.013h-22.715v9.583h12.255v11.222h10.46V57.013zm-38.625 48.535c0 1.361 1.185 2.412 2.64 2.412 1.49 0 2.64-1.021 2.607-2.412h2.336c0 2.535-2.167 4.452-4.942 4.452-2.776 0-4.943-1.948-4.943-4.452h2.302z" fill="#B2ADCC"/><path fill-rule="evenodd" clip-rule="evenodd" d="M96.696 96.614v1.67l-.677.247c.508.618.745 1.453.745 2.287 0 2.535-2.167 4.452-4.942 4.452-2.776 0-4.943-1.947-4.943-4.452 0-2.534 2.167-4.451 4.943-4.451.575 0 1.15.093 1.658.247h3.216zm-7.515 4.174c0 1.391 1.185 2.442 2.64 2.442 1.49 0 2.675-1.051 2.64-2.442 0-1.36-1.15-2.412-2.64-2.412-1.489 0-2.64 1.051-2.64 2.412z" fill="#B2ADCC"/><path d="M75.302 104.992H73V93.059h2.302v11.933z" fill="#B2ADCC"/><path fill-rule="evenodd" clip-rule="evenodd" d="M76.182 100.818c0-2.534 2.166-4.451 4.942-4.451 2.776 0 4.977 1.916 4.943 4.451 0 2.535-2.167 4.452-4.943 4.452-2.775 0-4.942-1.947-4.942-4.452zm2.302-.03c0 1.391 1.185 2.442 2.64 2.442 1.49 0 2.675-1.051 2.64-2.442 0-1.36-1.15-2.412-2.64-2.412-1.49 0-2.64 1.051-2.64 2.412z" fill="#B2ADCC"/><path d="M100.014 104.992h-2.302v-8.378h2.302v8.378zm23.662-5.534c-.609-.618-1.388-1.082-2.37-1.082-1.489 0-2.606 1.051-2.606 2.412 0 1.36 1.151 2.411 2.606 2.411.982 0 1.794-.464 2.37-1.082l1.591 1.453c-.914 1.02-2.302 1.669-3.927 1.669-2.776 0-4.942-1.947-4.942-4.451 0-2.535 2.166-4.452 4.942-4.452 1.625 0 3.047.65 3.927 1.67l-1.591 1.452zm4.739-2.04c.677-.65 1.659-1.051 2.776-1.051 2.167 0 3.758 1.39 3.791 3.679v4.946h-2.302v-4.545c0-1.298-.71-2.04-2.031-2.04-1.388 0-2.234.835-2.234 2.04v4.545h-2.302V93.059h2.302v4.359z" fill="#B2ADCC"/><path fill-rule="evenodd" clip-rule="evenodd" d="M106.073 100.849c0-2.566 2.099-4.482 4.841-4.482 2.776 0 4.705 1.916 4.705 4.73v.494h-7.143c.339 1.113 1.287 1.762 2.539 1.762 1.05 0 1.862-.463 2.607-1.113l1.523 1.392c-1.083 1.051-2.539 1.607-4.197 1.607-2.945 0-4.875-1.855-4.875-4.39zm4.773-2.658c-1.219 0-2.133.618-2.437 1.73h4.807c-.271-1.112-1.185-1.73-2.37-1.73zm24.373-2.783c.17 0 .305.062.305.217 0 .154-.068.216-.169.216l.203.31h-.136l-.203-.31h-.169v.31h-.101v-.743h.27zm-.169.093v.248h.169c.136 0 .203-.031.203-.124 0-.062-.067-.124-.203-.124h-.169z" fill="#B2ADCC"/><path fill-rule="evenodd" clip-rule="evenodd" d="M134.407 95.78c0-.372.372-.712.812-.712.44 0 .813.34.779.711 0 .402-.339.742-.779.742s-.812-.34-.812-.742zm.101 0c0 .37.305.649.711.649.407 0 .711-.279.677-.65 0-.34-.304-.618-.677-.618-.406 0-.711.278-.711.618z" fill="#B2ADCC"/><path d="M97.34 94.234c0-.773.642-1.391 1.489-1.391.88 0 1.557.618 1.523 1.39 0 .743-.643 1.36-1.523 1.36-.813 0-1.49-.587-1.49-1.36zm4.874-.186h2.302v2.566h1.252v1.855h-1.252v6.523h-2.302v-6.523h-1.219v-1.855h1.219v-2.566z" fill="#B2ADCC"/><defs><filter id="filter0_d" x="0" y="0" width="208" height="188" filterUnits="userSpaceOnUse" color-interpolation-filters="sRGB"><feFlood flood-opacity="0" result="BackgroundImageFix"/><feColorMatrix in="SourceAlpha" values="0 0 0 0 0 0 0 0 0 0 0 0 0 0 0 0 0 0 127 0"/><feOffset dy="4"/><feGaussianBlur stdDeviation="2"/><feColorMatrix values="0 0 0 0 0 0 0 0 0 0 0 0 0 0 0 0 0 0 0.25 0"/><feBlend in2="BackgroundImageFix" result="effect1_dropShadow"/><feBlend in="SourceGraphic" in2="effect1_dropShadow" result="shape"/></filter></defs></svg>