<svg width="208" height="188" fill="none" xmlns="http://www.w3.org/2000/svg"><g filter="url(#filter0_d)"><path fill="#332E4D" d="M4 0h200v180H4z"/></g><path d="M68.507 154.537a.608.608 0 0 1-.133.161.316.316 0 0 1-.182.049c-.079 0-.172-.04-.28-.119a3.39 3.39 0 0 0-.399-.259 2.931 2.931 0 0 0-.58-.266 2.451 2.451 0 0 0-.82-.119 2.37 2.37 0 0 0-.805.126 1.7 1.7 0 0 0-.588.329 1.37 1.37 0 0 0-.35.497 1.542 1.542 0 0 0-.119.609c0 .28.068.513.203.7.14.182.322.338.546.469.229.13.486.245.77.343.29.093.584.191.882.294.304.102.598.219.882.35.29.126.546.287.77.483.229.196.411.436.546.721.14.284.21.634.21 1.05 0 .438-.074.851-.224 1.239a2.828 2.828 0 0 1-.658 1.001 3.038 3.038 0 0 1-1.057.672 3.867 3.867 0 0 1-1.42.245 4.418 4.418 0 0 1-1.779-.35 4.221 4.221 0 0 1-1.365-.959l.392-.644a.466.466 0 0 1 .133-.126.317.317 0 0 1 .182-.056c.098 0 .21.053.336.161.126.102.283.217.47.343.19.126.42.242.685.35.271.102.6.154.987.154.322 0 .61-.045.861-.133a1.83 1.83 0 0 0 .637-.371 1.63 1.63 0 0 0 .406-.581c.094-.224.14-.474.14-.749 0-.304-.07-.551-.21-.742a1.65 1.65 0 0 0-.539-.49 3.592 3.592 0 0 0-.77-.329 43.365 43.365 0 0 0-.882-.28 10.24 10.24 0 0 1-.882-.336 2.9 2.9 0 0 1-.763-.49 2.313 2.313 0 0 1-.546-.749c-.135-.304-.203-.677-.203-1.12a2.7 2.7 0 0 1 .203-1.029c.14-.332.341-.626.602-.882.262-.257.584-.462.966-.616a3.583 3.583 0 0 1 1.33-.231c.56 0 1.071.088 1.533.266.462.177.866.434 1.211.77l-.329.644zm4.24 8.575c-.56 0-.993-.157-1.296-.469-.298-.313-.448-.763-.448-1.351v-4.34h-.854a.289.289 0 0 1-.189-.063c-.051-.047-.077-.117-.077-.21v-.497l1.162-.147.287-2.191c.01-.07.04-.126.091-.168a.279.279 0 0 1 .196-.07h.63v2.443h2.03v.903h-2.03v4.256c0 .298.073.52.217.665a.76.76 0 0 0 .56.217c.13 0 .243-.017.336-.049.098-.038.182-.077.252-.119.07-.042.129-.08.175-.112.052-.038.096-.056.133-.056.066 0 .124.039.175.119l.364.595c-.215.2-.474.359-.777.476a2.687 2.687 0 0 1-.938.168zm8.28-.112h-.552a.664.664 0 0 1-.294-.056c-.075-.038-.124-.117-.147-.238l-.14-.658a9.065 9.065 0 0 1-.546.455c-.177.13-.364.242-.56.336a3.075 3.075 0 0 1-.63.203 3.59 3.59 0 0 1-.735.07 2.65 2.65 0 0 1-.777-.112 1.697 1.697 0 0 1-1.05-.931 2.108 2.108 0 0 1-.154-.84c0-.28.077-.549.23-.805.155-.262.402-.493.743-.693.345-.201.795-.364 1.35-.49.556-.131 1.235-.206 2.038-.224v-.553c0-.551-.12-.966-.357-1.246-.233-.285-.581-.427-1.043-.427-.303 0-.56.039-.77.119a2.718 2.718 0 0 0-.54.259c-.148.093-.28.179-.391.259a.566.566 0 0 1-.322.112.405.405 0 0 1-.224-.063.57.57 0 0 1-.147-.168l-.224-.399a4.037 4.037 0 0 1 1.267-.847c.452-.187.954-.28 1.505-.28.397 0 .749.065 1.057.196.308.13.567.312.777.546.21.233.368.515.476.847.107.331.16.695.16 1.092V163zm-3.233-.763c.22 0 .42-.021.602-.063.182-.047.352-.11.51-.189a2.74 2.74 0 0 0 .463-.301c.15-.117.294-.25.434-.399v-1.477a9.78 9.78 0 0 0-1.463.14 4 4 0 0 0-.98.28c-.252.116-.436.254-.553.413a.9.9 0 0 0-.168.532c0 .186.03.347.09.483a.958.958 0 0 0 .246.336c.103.084.224.147.364.189.14.037.291.056.455.056zm7.27.875c-.56 0-.991-.157-1.294-.469-.3-.313-.448-.763-.448-1.351v-4.34h-.854a.289.289 0 0 1-.19-.063c-.05-.047-.076-.117-.076-.21v-.497l1.162-.147.287-2.191a.279.279 0 0 1 .287-.238h.63v2.443h2.03v.903h-2.03v4.256c0 .298.072.52.217.665a.76.76 0 0 0 .56.217c.13 0 .242-.017.336-.049.098-.038.182-.077.252-.119.07-.042.128-.08.175-.112a.23.23 0 0 1 .133-.056c.065 0 .123.039.175.119l.364.595c-.215.2-.474.359-.777.476a2.688 2.688 0 0 1-.938.168zm4.46-7.203V163h-1.246v-7.091h1.246zm.28-2.226a.789.789 0 0 1-.077.343.96.96 0 0 1-.196.28.91.91 0 0 1-.28.189.862.862 0 0 1-.686 0 1.035 1.035 0 0 1-.28-.189 1.032 1.032 0 0 1-.189-.28.854.854 0 0 1-.07-.343c0-.122.023-.236.07-.343a.876.876 0 0 1 .19-.287.845.845 0 0 1 .623-.266.845.845 0 0 1 .622.266c.084.079.15.175.196.287a.782.782 0 0 1 .077.343zm5.976 3.395a.277.277 0 0 1-.259.154.491.491 0 0 1-.238-.077 3.76 3.76 0 0 0-.329-.168 2.437 2.437 0 0 0-.455-.175 2.101 2.101 0 0 0-.63-.084c-.21 0-.399.028-.567.084a1.333 1.333 0 0 0-.434.217 1.019 1.019 0 0 0-.273.329.878.878 0 0 0-.09.399c0 .182.05.333.153.455.108.121.248.226.42.315.173.088.369.168.588.238.22.065.444.137.672.217.234.074.46.158.68.252.219.093.415.21.587.35.173.14.31.312.413.518.108.2.161.443.161.728 0 .326-.058.63-.175.91-.116.275-.29.515-.518.721-.228.2-.508.359-.84.476a3.468 3.468 0 0 1-1.148.175c-.494 0-.942-.08-1.344-.238a3.475 3.475 0 0 1-1.022-.623l.294-.476a.418.418 0 0 1 .133-.14.37.37 0 0 1 .203-.049c.084 0 .173.032.266.098.094.065.206.137.336.217.136.079.297.151.483.217.192.065.43.098.714.098.243 0 .455-.031.637-.091a1.4 1.4 0 0 0 .455-.259.98.98 0 0 0 .266-.371c.06-.14.091-.29.091-.448a.718.718 0 0 0-.16-.483 1.215 1.215 0 0 0-.414-.329 2.978 2.978 0 0 0-.595-.238l-.679-.217a9.467 9.467 0 0 1-.679-.252 2.516 2.516 0 0 1-.588-.364 1.691 1.691 0 0 1-.42-.532 1.791 1.791 0 0 1-.154-.777c0-.271.056-.53.168-.777.112-.252.276-.472.49-.658.215-.192.479-.343.791-.455.313-.112.67-.168 1.071-.168a3.3 3.3 0 0 1 1.253.224c.374.144.696.345.966.602l-.28.455zm4.16 6.034c-.56 0-.992-.157-1.295-.469-.3-.313-.448-.763-.448-1.351v-4.34h-.854a.289.289 0 0 1-.19-.063c-.05-.047-.076-.117-.076-.21v-.497l1.162-.147.287-2.191a.279.279 0 0 1 .287-.238h.63v2.443h2.03v.903h-2.03v4.256c0 .298.072.52.217.665a.76.76 0 0 0 .56.217c.13 0 .242-.017.336-.049.098-.038.182-.077.252-.119.07-.042.128-.08.175-.112.051-.038.095-.056.133-.056.065 0 .123.039.175.119l.364.595c-.215.2-.474.359-.777.476a2.69 2.69 0 0 1-.938.168zm4.459-7.203V163h-1.246v-7.091h1.246zm.28-2.226a.779.779 0 0 1-.077.343.947.947 0 0 1-.476.469.866.866 0 0 1-.966-.189.866.866 0 0 1-.189-.966.885.885 0 0 1 .189-.287.849.849 0 0 1 .623-.266.842.842 0 0 1 .623.266c.084.079.15.175.196.287a.773.773 0 0 1 .077.343zm6.753 3.486a.54.54 0 0 1-.112.119.264.264 0 0 1-.161.042.426.426 0 0 1-.231-.084 2.426 2.426 0 0 0-.77-.385 2.04 2.04 0 0 0-.658-.091 2.12 2.12 0 0 0-.917.189c-.266.121-.49.298-.672.532a2.517 2.517 0 0 0-.406.847 4.333 4.333 0 0 0-.133 1.113c0 .429.049.812.147 1.148.098.331.236.611.413.84.178.224.392.396.644.518.257.116.544.175.861.175.304 0 .553-.035.749-.105.196-.075.36-.157.49-.245a4.19 4.19 0 0 0 .322-.238.38.38 0 0 1 .252-.112c.108 0 .187.039.238.119l.35.455a2.727 2.727 0 0 1-1.155.833 4.157 4.157 0 0 1-1.463.259c-.443 0-.856-.082-1.239-.245a2.854 2.854 0 0 1-.987-.707 3.478 3.478 0 0 1-.665-1.148 4.684 4.684 0 0 1-.238-1.547c0-.528.073-1.015.217-1.463.15-.448.364-.833.644-1.155a2.935 2.935 0 0 1 1.05-.763c.416-.182.892-.273 1.428-.273.495 0 .934.081 1.316.245.383.158.721.385 1.015.679l-.329.448zm5.758-.091a.277.277 0 0 1-.259.154.492.492 0 0 1-.238-.077 3.635 3.635 0 0 0-.329-.168 2.42 2.42 0 0 0-.455-.175 2.099 2.099 0 0 0-.63-.084c-.21 0-.399.028-.567.084a1.339 1.339 0 0 0-.434.217 1.034 1.034 0 0 0-.273.329.886.886 0 0 0-.091.399c0 .182.052.333.154.455.108.121.248.226.42.315.173.088.369.168.588.238.22.065.444.137.672.217.234.074.46.158.679.252.22.093.416.21.588.35.173.14.311.312.413.518.108.2.161.443.161.728 0 .326-.058.63-.175.91a2.014 2.014 0 0 1-.518.721c-.228.2-.508.359-.84.476a3.467 3.467 0 0 1-1.148.175c-.494 0-.942-.08-1.344-.238a3.479 3.479 0 0 1-1.022-.623l.294-.476a.427.427 0 0 1 .133-.14.372.372 0 0 1 .203-.049c.084 0 .173.032.266.098.094.065.206.137.336.217.136.079.297.151.483.217.192.065.43.098.714.098.243 0 .455-.031.637-.091.182-.066.334-.152.455-.259a.974.974 0 0 0 .266-.371c.061-.14.091-.29.091-.448a.715.715 0 0 0-.161-.483 1.206 1.206 0 0 0-.413-.329 2.964 2.964 0 0 0-.595-.238l-.679-.217a9.575 9.575 0 0 1-.679-.252 2.529 2.529 0 0 1-.588-.364 1.709 1.709 0 0 1-.42-.532 1.8 1.8 0 0 1-.154-.777c0-.271.056-.53.168-.777.112-.252.276-.472.49-.658.215-.192.479-.343.791-.455.313-.112.67-.168 1.071-.168.467 0 .885.074 1.253.224.374.144.696.345.966.602l-.28.455zM130.357 163h-1.05a.453.453 0 0 1-.294-.091.558.558 0 0 1-.168-.231l-.938-2.422h-4.501l-.938 2.422a.557.557 0 0 1-.168.224.451.451 0 0 1-.294.098h-1.05l4.011-10.031h1.379L130.357 163zm-6.573-3.724h3.745l-1.575-4.081a7.571 7.571 0 0 1-.301-.945c-.052.191-.103.368-.154.532a6.241 6.241 0 0 1-.14.42l-1.575 4.074zm7.639 6.125v-9.492h.742c.178 0 .29.086.336.259l.105.84a3.815 3.815 0 0 1 1.036-.889 2.676 2.676 0 0 1 1.351-.336c.406 0 .775.079 1.106.238.332.154.614.385.847.693.234.303.413.681.539 1.134.126.452.189.973.189 1.561 0 .522-.07 1.01-.21 1.463-.14.448-.34.837-.602 1.169a2.866 2.866 0 0 1-.966.777c-.378.186-.805.28-1.281.28-.438 0-.814-.073-1.127-.217a2.548 2.548 0 0 1-.819-.616v3.136h-1.246zm3.157-8.61c-.406 0-.763.093-1.071.28-.303.186-.583.45-.84.791v3.43c.229.308.479.525.749.651.276.126.581.189.917.189.658 0 1.165-.236 1.519-.707.355-.472.532-1.144.532-2.016 0-.462-.042-.859-.126-1.19a2.236 2.236 0 0 0-.35-.812 1.364 1.364 0 0 0-.567-.469 1.885 1.885 0 0 0-.763-.147zm4.568 8.61v-9.492h.742c.177 0 .289.086.336.259l.105.84a3.8 3.8 0 0 1 1.036-.889 2.674 2.674 0 0 1 1.351-.336c.406 0 .775.079 1.106.238.331.154.614.385.847.693.233.303.413.681.539 1.134.126.452.189.973.189 1.561 0 .522-.07 1.01-.21 1.463-.14.448-.341.837-.602 1.169a2.866 2.866 0 0 1-.966.777c-.378.186-.805.28-1.281.28-.439 0-.814-.073-1.127-.217a2.548 2.548 0 0 1-.819-.616v3.136h-1.246zm3.157-8.61c-.406 0-.763.093-1.071.28-.303.186-.583.45-.84.791v3.43c.229.308.478.525.749.651.275.126.581.189.917.189.658 0 1.164-.236 1.519-.707.355-.472.532-1.144.532-2.016 0-.462-.042-.859-.126-1.19a2.236 2.236 0 0 0-.35-.812 1.364 1.364 0 0 0-.567-.469 1.885 1.885 0 0 0-.763-.147z" fill="#B2ADCC"/><g clip-path="url(#clip0)" fill="#B2ADCC"><path d="M119.436 67.606c-.617 1.077-1.222 2.136-1.831 3.195-.298-.2-.593-.402-.895-.593a6.439 6.439 0 0 0-2.539-.907c-.825-.117-1.651-.134-2.468.078-1.86.475-3.082 1.91-3.365 3.925-.138 1.011-.106 2.005.209 2.974.437 1.348 1.3 2.273 2.563 2.775 1.063.419 2.154.467 3.266.268a5.98 5.98 0 0 0 1.749-.584c.062-.034.131-.13.131-.199.008-.834.004-1.672.004-2.537h-4.006v-3.238h7.816c.004.06.012.13.012.2v7.78c0 .117-.008.207-.118.294-.932.735-1.983 1.227-3.078 1.612-1.431.506-2.898.804-4.411.735-2.093-.1-4.01-.748-5.624-2.2-1.402-1.262-2.249-2.875-2.608-4.781a10.78 10.78 0 0 1-.196-2.27c.032-1.426.29-2.805.903-4.084.871-1.82 2.215-3.126 3.985-3.943 1.03-.475 2.105-.726 3.221-.812a10.254 10.254 0 0 1 4.211.544 9.635 9.635 0 0 1 3.069 1.768zm17.168-.004c-.613 1.072-1.226 2.135-1.831 3.194-.364-.237-.707-.492-1.079-.7a6.784 6.784 0 0 0-2.911-.851c-.744-.048-1.475-.013-2.195.216-1.197.384-2.125 1.128-2.64 2.338-.76 1.79-.744 3.592.143 5.339.474.933 1.238 1.547 2.174 1.91 1.333.52 2.682.493 4.035.087.343-.104.67-.26 1.001-.407.058-.025.127-.116.127-.181.008-.843.004-1.686.004-2.55h-4.002v-3.242h7.812c.004.077.008.15.008.229v7.737c0 .121-.008.22-.123.311-.928.731-1.97 1.224-3.057 1.604-1.406.497-2.841.796-4.329.74-2.125-.078-4.067-.727-5.71-2.192-1.218-1.085-2.028-2.464-2.461-4.09a10.59 10.59 0 0 1-.356-2.978c.033-1.426.291-2.805.908-4.08.944-1.954 2.407-3.303 4.341-4.094 1.353-.553 2.755-.748 4.19-.679a9.922 9.922 0 0 1 3.772.938 10.83 10.83 0 0 1 2.179 1.401zM66.016 74.47c.004-1.702.327-3.202 1.042-4.599.74-1.443 1.782-2.58 3.135-3.402a8.28 8.28 0 0 1 3.7-1.175c1.79-.139 3.482.229 5.048 1.154 1.242.735 2.236 1.76 2.975 3.052a9.407 9.407 0 0 1 1.194 3.773 10.24 10.24 0 0 1-.327 3.835c-.454 1.599-1.271 2.956-2.453 4.058a8.072 8.072 0 0 1-3.81 2.006 8.856 8.856 0 0 1-3.355.104 8.177 8.177 0 0 1-3.757-1.621 8.261 8.261 0 0 1-2.305-2.77 9.582 9.582 0 0 1-1.087-4.414zm8.592 4.86c.208-.018.42-.03.63-.061 1.638-.234 2.816-1.15 3.494-2.745.43-1.007.52-2.07.34-3.16-.217-1.327-.802-2.425-1.86-3.19-1.014-.73-2.147-.947-3.36-.757-.998.156-1.86.606-2.539 1.388-1.12 1.288-1.46 2.827-1.181 4.522.384 2.394 2.195 3.998 4.476 4.002zm14.482-.874v4.651h-4.038v-17.58h.188c2.791 0 5.587-.03 8.38.013 1.618.022 3.073.584 4.23 1.837.764.83 1.222 1.837 1.41 2.97.102.61.172 1.24.16 1.859-.03 1.551-.475 2.952-1.468 4.132-.92 1.09-2.077 1.73-3.421 1.984-.45.087-.916.121-1.374.13-1.275.017-2.546.004-3.822.004h-.245zm.05-3.77h3.576c.09 0 .18.005.265-.008 1.002-.16 1.754-.696 2.056-1.742.315-1.085.176-2.11-.613-2.952-.54-.575-1.234-.718-1.966-.722-1.034-.009-2.068 0-3.102 0-.074 0-.143.004-.217.008v5.417zm11.935 8.794c-.818-.018-1.492-.191-1.99-.822-.291-.363-.418-.8-.463-1.262-.061-.597.008-1.18.282-1.708.303-.588.797-.93 1.411-1.059.609-.13 1.222-.117 1.802.134.581.25.985.687 1.173 1.336.209.717.205 1.422-.09 2.114-.314.739-.899 1.076-1.614 1.21-.196.039-.393.043-.511.056z"/></g><defs><filter id="filter0_d" x="0" y="0" width="208" height="188" filterUnits="userSpaceOnUse" color-interpolation-filters="sRGB"><feFlood flood-opacity="0" result="BackgroundImageFix"/><feColorMatrix in="SourceAlpha" values="0 0 0 0 0 0 0 0 0 0 0 0 0 0 0 0 0 0 127 0"/><feOffset dy="4"/><feGaussianBlur stdDeviation="2"/><feColorMatrix values="0 0 0 0 0 0 0 0 0 0 0 0 0 0 0 0 0 0 0.25 0"/><feBlend in2="BackgroundImageFix" result="effect1_dropShadow"/><feBlend in="SourceGraphic" in2="effect1_dropShadow" result="shape"/></filter><clipPath id="clip0"><path fill="#fff" transform="translate(59 29)" d="M0 0h90v90H0z"/></clipPath></defs></svg>