<svg width="208" height="188" fill="none" xmlns="http://www.w3.org/2000/svg"><g filter="url(#filter0_d)"><path fill="#332E4D" d="M4.001 0h200v180h-200z"/></g><path d="M131.962 77.306c0-2.114-.942-3.759-2.903-4.699-.314-.156-.549-.313-.628-.705a25.228 25.228 0 0 0-4.472-10.416c-.157-.156-.392-.313-.235-.548.941-1.253-.079-1.958-.785-2.741-8.003-7.754-17.496-10.025-28.166-6.736-4.473 1.41-8.239 3.995-11.377 7.44-.47.47-.706 1.019-.314 1.567.314.47.157.705-.157 1.018a25.65 25.65 0 0 0-4.393 10.181c-.079.47-.314.705-.706.862-1.57.783-2.511 2.036-2.747 3.76-.156 1.017 0 2.035-.078 2.975v2.35c0 3.446 2.354 5.639 5.806 5.482.863-.078 1.334-.47 1.334-1.253.078-2.271.078-4.543.078-6.735 0-2.428-.078-4.856.392-7.284 2.59-13.784 18.438-21.302 30.835-14.489 7.375 4.073 11.219 10.416 11.376 18.875.078 3.133 0 6.265 0 9.398 0 .783.235 1.41 1.02 1.566 2.668.549 5.492-1.331 5.963-4.072.314-1.958.157-3.838.157-5.796zm-23.538 13.55c.471.078.942.156 1.491.234 1.412.157 2.903.392 4.315.47 1.962.078 3.452-.548 4.551-1.723 1.334-1.488 1.961-3.21 1.883-5.09-.079-1.958-1.805-3.055-4.08-2.663-2.04.391-3.845 1.174-5.728 1.88-1.647.626-3.138 1.41-4.315 2.505-1.726 1.645-.784 3.681 1.883 4.386zm-6.433-2.428c.078-.47 0-.94-.079-1.332a3.967 3.967 0 0 0-.706-1.253c-1.098-1.645-2.51-3.133-4.001-4.386a19.05 19.05 0 0 0-2.511-1.88c-1.883-1.33-3.452-2.114-3.452-2.114-2.275-1.175-4.394 0-4.943 2.584-.628 2.898-.157 5.718 1.49 8.224 1.1 1.723 2.747 2.584 4.787 2.74 1.255.158 2.51.158 3.766.314 1.02 0 2.04.078 3.06-.235 1.333-.47 2.353-1.253 2.589-2.663zm23.066 2.427c-.313-.235-.784-.078-.941.314-.157.47-.392 1.253-.785 2.114-.863 2.115-2.197 3.838-3.766 5.248-1.961 1.879-4.393 3.132-6.669 4.072-.549.235-1.177.47-1.726.627a5.806 5.806 0 0 1-1.098.313c-.157.078-.314.078-.549.156-.314.079-.706.157-1.02.235h-.079c-.157 0-.314.079-.471.079h-.078l-.941.235h-.079c-.157 0-.235.078-.392.078h-.079c-.314.078-.549.078-.784.157h-.079c-.078 0-.235 0-.314.078h-.078c-.157 0-.235 0-.314.078-.078 0-.235 0-.314.079h-.392c-.785.078-1.177.078-1.255.156-9.73 1.018 2.432 3.133 11.612 1.567h.078c.235 0 .392-.079.628-.157.157 0 .392-.078.549-.157.157 0 .314-.078.392-.078.079 0 .157-.078.236-.078 1.255-.314 2.353-.705 3.295-1.175 5.649-2.741 6.198-7.284 6.198-7.284.157-.861.314-1.88.235-2.976.236-1.253-.313-3.054-1.02-3.68zm-48.481 67.133a5.82 5.82 0 0 1-.357 2.072 4.75 4.75 0 0 1-1.008 1.617 4.533 4.533 0 0 1-1.568 1.057 5.299 5.299 0 0 1-2.016.371 5.3 5.3 0 0 1-2.016-.371 4.55 4.55 0 0 1-1.56-1.057 4.75 4.75 0 0 1-1.009-1.617 5.82 5.82 0 0 1-.357-2.072c0-.751.12-1.44.357-2.065a4.733 4.733 0 0 1 1.008-1.624 4.512 4.512 0 0 1 1.561-1.064 5.207 5.207 0 0 1 2.016-.378c.738 0 1.41.126 2.016.378a4.495 4.495 0 0 1 1.568 1.064c.434.453.77.994 1.008 1.624.238.625.357 1.314.357 2.065zm-1.393 0c0-.616-.084-1.169-.252-1.659a3.473 3.473 0 0 0-.714-1.239 3.074 3.074 0 0 0-1.12-.784 3.802 3.802 0 0 0-1.47-.273c-.536 0-1.024.091-1.463.273a3.142 3.142 0 0 0-1.127.784 3.473 3.473 0 0 0-.714 1.239 5.098 5.098 0 0 0-.252 1.659c0 .616.084 1.169.252 1.659.168.485.406.898.714 1.239.313.336.689.595 1.127.777a3.88 3.88 0 0 0 1.463.266c.542 0 1.032-.089 1.47-.266a3.118 3.118 0 0 0 1.12-.777c.308-.341.546-.754.714-1.239.168-.49.252-1.043.252-1.659zm9.09-2.079L81.384 163h-1.12l-2.891-7.091h1.015a.383.383 0 0 1 .385.259l1.799 4.564c.056.173.105.341.147.504.042.163.082.327.119.49.037-.163.077-.327.119-.49.042-.163.093-.331.154-.504l1.82-4.564a.386.386 0 0 1 .14-.182.365.365 0 0 1 .23-.077h.974zm5.698 2.772c0-.289-.042-.553-.126-.791a1.679 1.679 0 0 0-.357-.623 1.507 1.507 0 0 0-.567-.406 1.886 1.886 0 0 0-.763-.147c-.597 0-1.07.175-1.42.525-.346.345-.56.826-.645 1.442h3.878zm1.008 3.325a2.42 2.42 0 0 1-.553.49 3.565 3.565 0 0 1-.693.336 4.062 4.062 0 0 1-.756.196c-.261.047-.52.07-.777.07-.49 0-.942-.082-1.358-.245a3.08 3.08 0 0 1-1.07-.728 3.408 3.408 0 0 1-.7-1.19c-.169-.471-.253-1.013-.253-1.624 0-.495.075-.957.224-1.386.154-.429.374-.8.658-1.113a2.952 2.952 0 0 1 1.043-.742c.41-.182.873-.273 1.386-.273.425 0 .817.072 1.176.217.364.14.677.345.938.616.266.266.474.597.623.994.15.392.224.84.224 1.344 0 .196-.02.327-.063.392-.042.065-.121.098-.238.098h-4.739c.014.448.075.838.182 1.169.112.331.266.609.462.833.196.219.43.385.7.497.27.107.574.161.91.161.313 0 .581-.035.805-.105a4.076 4.076 0 0 0 .994-.469.546.546 0 0 1 .287-.112c.103 0 .182.04.238.119l.35.455zm2.826-4.676c.224-.485.5-.863.826-1.134.326-.275.725-.413 1.197-.413.15 0 .291.016.427.049.14.033.263.084.37.154l-.09.931c-.028.117-.098.175-.21.175-.066 0-.161-.014-.287-.042a1.976 1.976 0 0 0-.427-.042 1.74 1.74 0 0 0-.602.098 1.407 1.407 0 0 0-.47.294 2.085 2.085 0 0 0-.37.476 4.138 4.138 0 0 0-.294.644V163h-1.253v-7.091h.714c.135 0 .228.026.28.077.051.051.086.14.105.266l.084 1.078zm5.204-4.641V163h-1.246v-10.311h1.246zm5.864 7.119c-.574.019-1.064.065-1.47.14-.401.07-.73.163-.987.28-.252.117-.436.254-.553.413a.902.902 0 0 0-.168.532c0 .187.03.348.091.483a.955.955 0 0 0 .245.336c.107.084.231.147.371.189.145.037.299.056.462.056.219 0 .42-.021.602-.063.182-.047.352-.112.511-.196.163-.084.317-.184.462-.301.149-.117.294-.25.434-.399v-1.47zm-4.025-2.898c.392-.378.814-.66 1.267-.847.453-.187.954-.28 1.505-.28.397 0 .749.065 1.057.196.308.131.567.313.777.546.21.233.369.516.476.847.107.331.161.695.161 1.092V163h-.553a.575.575 0 0 1-.28-.056c-.065-.042-.117-.121-.154-.238l-.14-.672a7.558 7.558 0 0 1-.546.462 3.364 3.364 0 0 1-.56.336 3.016 3.016 0 0 1-.63.203 3.246 3.246 0 0 1-.735.077 2.62 2.62 0 0 1-.777-.112 1.869 1.869 0 0 1-.637-.35 1.698 1.698 0 0 1-.427-.581 2.103 2.103 0 0 1-.154-.84c0-.28.077-.548.231-.805.154-.261.404-.492.749-.693.345-.201.796-.364 1.351-.49.555-.131 1.237-.205 2.044-.224v-.553c0-.551-.119-.966-.357-1.246-.238-.285-.586-.427-1.043-.427-.308 0-.567.04-.777.119a2.786 2.786 0 0 0-.539.259c-.149.093-.28.18-.392.259a.559.559 0 0 1-.322.112.372.372 0 0 1-.217-.063.667.667 0 0 1-.154-.168l-.224-.399zm13.095-1.001l-3.955 9.184a.636.636 0 0 1-.161.224c-.061.056-.156.084-.287.084h-.924l1.295-2.814-2.926-6.678h1.078c.107 0 .191.028.252.084.065.051.11.11.133.175l1.897 4.466c.075.196.138.401.189.616.065-.219.135-.427.21-.623l1.841-4.459a.387.387 0 0 1 .14-.182.384.384 0 0 1 .231-.077h.987zm9.497 3.367l-1.575-4.081a7.491 7.491 0 0 1-.147-.42c-.051-.163-.1-.336-.147-.518a7.571 7.571 0 0 1-.301.945l-1.575 4.074h3.745zm2.828 3.724h-1.05a.451.451 0 0 1-.294-.091.558.558 0 0 1-.168-.231l-.938-2.422h-4.501l-.938 2.422a.492.492 0 0 1-.161.224.448.448 0 0 1-.294.098h-1.05l4.011-10.031h1.372L126.268 163zm2.251-1.708c.229.308.479.525.749.651.271.126.574.189.91.189.663 0 1.172-.236 1.526-.707.355-.471.532-1.143.532-2.016 0-.462-.042-.859-.126-1.19a2.243 2.243 0 0 0-.35-.812 1.364 1.364 0 0 0-.567-.469 1.885 1.885 0 0 0-.763-.147c-.406 0-.763.093-1.071.28a3.11 3.11 0 0 0-.84.791v3.43zm-.063-4.284a3.673 3.673 0 0 1 1.036-.889 2.66 2.66 0 0 1 1.344-.336c.411 0 .782.079 1.113.238.332.154.614.385.847.693.234.303.413.681.539 1.134.126.453.189.973.189 1.561 0 .523-.07 1.01-.21 1.463-.14.448-.343.838-.609 1.169a2.842 2.842 0 0 1-.966.777 2.85 2.85 0 0 1-1.281.28c-.434 0-.807-.072-1.12-.217a2.685 2.685 0 0 1-.819-.616v3.136h-1.253v-9.492h.749c.178 0 .287.086.329.259l.112.84zm7.911 4.284c.229.308.478.525.749.651s.574.189.91.189c.663 0 1.171-.236 1.526-.707s.532-1.143.532-2.016c0-.462-.042-.859-.126-1.19a2.243 2.243 0 0 0-.35-.812 1.364 1.364 0 0 0-.567-.469 1.885 1.885 0 0 0-.763-.147c-.406 0-.763.093-1.071.28a3.11 3.11 0 0 0-.84.791v3.43zm-.063-4.284a3.673 3.673 0 0 1 1.036-.889 2.66 2.66 0 0 1 1.344-.336c.411 0 .782.079 1.113.238.331.154.614.385.847.693.233.303.413.681.539 1.134.126.453.189.973.189 1.561 0 .523-.07 1.01-.21 1.463-.14.448-.343.838-.609 1.169a2.842 2.842 0 0 1-.966.777 2.85 2.85 0 0 1-1.281.28c-.434 0-.807-.072-1.12-.217a2.685 2.685 0 0 1-.819-.616v3.136h-1.253v-9.492h.749c.177 0 .287.086.329.259l.112.84z" fill="#B2ADCC"/><defs><filter id="filter0_d" x=".001" y="0" width="208" height="188" filterUnits="userSpaceOnUse" color-interpolation-filters="sRGB"><feFlood flood-opacity="0" result="BackgroundImageFix"/><feColorMatrix in="SourceAlpha" values="0 0 0 0 0 0 0 0 0 0 0 0 0 0 0 0 0 0 127 0"/><feOffset dy="4"/><feGaussianBlur stdDeviation="2"/><feColorMatrix values="0 0 0 0 0 0 0 0 0 0 0 0 0 0 0 0 0 0 0.25 0"/><feBlend in2="BackgroundImageFix" result="effect1_dropShadow"/><feBlend in="SourceGraphic" in2="effect1_dropShadow" result="shape"/></filter></defs></svg>