<svg width="208" height="188" fill="none" xmlns="http://www.w3.org/2000/svg"><g filter="url(#filter0_d)"><path fill="#332E4D" d="M4.001 0h200v180h-200z"/></g><path d="M75.185 152.969v1.141h-3.241V163h-1.358v-8.89H67.33v-1.141h7.854zM75.293 163v-7.091h.714c.136 0 .23.026.28.077.052.051.087.14.105.266l.085 1.106c.242-.495.54-.88.895-1.155.36-.28.78-.42 1.26-.42.197 0 .374.023.532.07.16.042.306.103.442.182l-.161.931c-.033.117-.105.175-.217.175-.066 0-.166-.021-.301-.063a1.799 1.799 0 0 0-.568-.07c-.433 0-.797.126-1.091.378-.29.252-.532.618-.728 1.099V163h-1.247zm10.595 0h-.553a.665.665 0 0 1-.294-.056c-.075-.037-.123-.117-.147-.238l-.14-.658c-.187.168-.369.32-.546.455a3.376 3.376 0 0 1-.56.336 3.016 3.016 0 0 1-.63.203 3.52 3.52 0 0 1-.735.07 2.62 2.62 0 0 1-.777-.112 1.698 1.698 0 0 1-1.05-.931 2.108 2.108 0 0 1-.154-.84c0-.28.077-.548.231-.805.154-.261.401-.492.742-.693.346-.201.796-.364 1.351-.49.555-.131 1.234-.205 2.037-.224v-.553c0-.551-.119-.966-.357-1.246-.233-.285-.58-.427-1.043-.427-.303 0-.56.04-.77.119a2.778 2.778 0 0 0-.539.259c-.15.093-.28.18-.392.259a.559.559 0 0 1-.322.112.405.405 0 0 1-.224-.063.57.57 0 0 1-.147-.168l-.224-.399c.392-.378.815-.66 1.267-.847.453-.187.954-.28 1.505-.28.397 0 .75.065 1.057.196.308.131.567.313.777.546.21.233.369.516.476.847.108.331.161.695.161 1.092V163zm-3.234-.763c.22 0 .42-.021.602-.063.182-.047.353-.11.511-.189.163-.084.318-.184.462-.301.15-.117.294-.25.434-.399v-1.477a9.914 9.914 0 0 0-1.463.14 4 4 0 0 0-.98.28c-.252.117-.436.254-.553.413a.902.902 0 0 0-.168.532c0 .187.03.348.091.483.06.135.142.247.245.336.103.084.224.147.364.189.14.037.292.056.455.056zm9.959-5.068a.564.564 0 0 1-.112.119.265.265 0 0 1-.161.042.426.426 0 0 1-.231-.084 2.426 2.426 0 0 0-.77-.385 2.044 2.044 0 0 0-.658-.091 2.12 2.12 0 0 0-.917.189c-.266.121-.49.299-.672.532a2.508 2.508 0 0 0-.406.847 4.302 4.302 0 0 0-.133 1.113c0 .429.049.812.147 1.148.098.331.236.611.413.84.177.224.392.397.644.518.257.117.544.175.86.175.304 0 .554-.035.75-.105.196-.075.36-.156.49-.245a4.25 4.25 0 0 0 .322-.238.38.38 0 0 1 .252-.112c.107 0 .187.04.238.119l.35.455a2.718 2.718 0 0 1-1.155.833c-.462.173-.95.259-1.463.259a3.14 3.14 0 0 1-1.24-.245 2.841 2.841 0 0 1-.986-.707 3.456 3.456 0 0 1-.665-1.148 4.662 4.662 0 0 1-.238-1.547c0-.527.072-1.015.217-1.463.15-.448.364-.833.644-1.155a2.93 2.93 0 0 1 1.05-.763c.415-.182.891-.273 1.428-.273.495 0 .933.082 1.316.245.383.159.72.385 1.015.679l-.33.448zm2.993-4.48v6.069h.322a.66.66 0 0 0 .231-.035.712.712 0 0 0 .203-.161l2.24-2.401c.07-.075.14-.135.21-.182a.495.495 0 0 1 .28-.07h1.134l-2.61 2.779a2.384 2.384 0 0 1-.197.21c-.06.061-.13.114-.21.161.084.056.159.121.224.196.07.07.135.152.196.245l2.772 3.5h-1.12a.593.593 0 0 1-.266-.056.758.758 0 0 1-.203-.189l-2.33-2.905a.514.514 0 0 0-.21-.189.772.772 0 0 0-.316-.049h-.35V163h-1.253v-10.311h1.253zm8.43 3.108c.425 0 .817.072 1.176.217.359.14.67.345.931.616.261.266.464.597.609.994.149.392.224.84.224 1.344 0 .196-.021.327-.063.392-.042.065-.121.098-.238.098h-4.718c.009.448.07.838.182 1.169.112.331.266.609.462.833.196.219.429.385.7.497.271.107.574.161.91.161.313 0 .581-.035.805-.105a4.039 4.039 0 0 0 .994-.469.547.547 0 0 1 .287-.112c.103 0 .182.04.238.119l.35.455a2.42 2.42 0 0 1-.553.49 3.582 3.582 0 0 1-.693.336 4.075 4.075 0 0 1-.756.196c-.261.047-.52.07-.777.07-.49 0-.943-.082-1.358-.245a3.074 3.074 0 0 1-1.071-.728 3.403 3.403 0 0 1-.7-1.19c-.168-.471-.252-1.013-.252-1.624 0-.495.075-.957.224-1.386.154-.429.373-.8.658-1.113a2.953 2.953 0 0 1 1.043-.742 3.388 3.388 0 0 1 1.386-.273zm.028.917c-.602 0-1.076.175-1.421.525-.345.345-.56.826-.644 1.442h3.857c0-.289-.04-.553-.119-.791a1.725 1.725 0 0 0-.35-.623 1.507 1.507 0 0 0-.567-.406 1.834 1.834 0 0 0-.756-.147zm4.507 6.286v-7.091h.714c.135 0 .228.026.28.077.051.051.086.14.105.266l.084 1.106c.242-.495.541-.88.896-1.155a1.99 1.99 0 0 1 1.26-.42c.196 0 .373.023.532.07.158.042.305.103.441.182l-.161.931c-.033.117-.105.175-.217.175-.066 0-.166-.021-.301-.063a1.805 1.805 0 0 0-.567-.07c-.434 0-.798.126-1.092.378-.29.252-.532.618-.728 1.099V163h-1.246zm16.802 0h-1.05a.451.451 0 0 1-.294-.091.576.576 0 0 1-.168-.231l-.938-2.422h-4.501l-.938 2.422a.533.533 0 0 1-.168.224.448.448 0 0 1-.294.098h-1.05l4.011-10.031h1.379L125.373 163zm-6.573-3.724h3.745l-1.575-4.081a7.742 7.742 0 0 1-.301-.945c-.051.191-.102.369-.154.532a5.023 5.023 0 0 1-.14.42l-1.575 4.074zm7.64 6.125v-9.492h.742c.177 0 .289.086.336.259l.105.84a3.8 3.8 0 0 1 1.036-.889 2.674 2.674 0 0 1 1.351-.336c.406 0 .775.079 1.106.238.331.154.614.385.847.693.233.303.413.681.539 1.134.126.453.189.973.189 1.561 0 .523-.07 1.01-.21 1.463-.14.448-.341.838-.602 1.169a2.842 2.842 0 0 1-.966.777 2.85 2.85 0 0 1-1.281.28c-.439 0-.814-.072-1.127-.217a2.548 2.548 0 0 1-.819-.616v3.136h-1.246zm3.157-8.61c-.406 0-.763.093-1.071.28a3.11 3.11 0 0 0-.84.791v3.43c.229.308.478.525.749.651.275.126.581.189.917.189.658 0 1.164-.236 1.519-.707s.532-1.143.532-2.016c0-.462-.042-.859-.126-1.19a2.243 2.243 0 0 0-.35-.812 1.364 1.364 0 0 0-.567-.469 1.885 1.885 0 0 0-.763-.147zm4.568 8.61v-9.492h.742c.177 0 .289.086.336.259l.105.84a3.786 3.786 0 0 1 1.036-.889 2.674 2.674 0 0 1 1.351-.336c.406 0 .774.079 1.106.238.331.154.613.385.847.693.233.303.413.681.539 1.134.126.453.189.973.189 1.561 0 .523-.07 1.01-.21 1.463-.14.448-.341.838-.602 1.169a2.861 2.861 0 0 1-.966.777 2.85 2.85 0 0 1-1.281.28c-.439 0-.815-.072-1.127-.217a2.548 2.548 0 0 1-.819-.616v3.136h-1.246zm3.157-8.61c-.406 0-.763.093-1.071.28a3.08 3.08 0 0 0-.84.791v3.43c.228.308.478.525.749.651.275.126.581.189.917.189.658 0 1.164-.236 1.519-.707.354-.471.532-1.143.532-2.016 0-.462-.042-.859-.126-1.19a2.26 2.26 0 0 0-.35-.812 1.364 1.364 0 0 0-.567-.469 1.888 1.888 0 0 0-.763-.147z" fill="#B2ADCC"/><g clip-path="url(#clip0)" fill="#B2ADCC"><path d="M131.076 97.49c-.194-.054-.389-.101-.576-.168-1.133-.4-1.81-1.42-1.87-2.81-.067-1.575.804-2.878 2.165-3.169 2.459-.52 3.899 1.31 3.665 3.466-.161 1.465-.891 2.256-2.332 2.634-.02.007-.033.027-.054.04-.328.007-.663.007-.998.007zm2.138-3.134c-.074-.338-.121-.71-.248-1.047-.242-.642-.751-.96-1.434-.952-.657.006-1.146.337-1.394.966a2.855 2.855 0 0 0-.04 2.013c.234.689.77 1.06 1.467 1.06.704-.007 1.226-.378 1.454-1.08.094-.291.128-.609.195-.96zM80.551 97.49c-.026-.02-.053-.047-.08-.054-1.173-.236-1.91-.946-2.198-2.1-.308-1.243-.12-2.405.818-3.337.918-.906 2.546-1.007 3.598-.264.563.399.871.939.951 1.668-.395 0-.764.007-1.125-.006-.067 0-.148-.108-.181-.183-.215-.52-.61-.797-1.153-.844-.59-.047-1.092.155-1.387.696-.456.85-.462 1.729-.027 2.587.282.554.878.817 1.501.736.623-.088.959-.48 1.106-1.06.02-.075.04-.149.067-.243h1.22c.033 1.06-.764 2.06-1.857 2.337-.087.02-.167.054-.248.08-.335-.013-.67-.013-1.005-.013zm-19.432-6.08h4.865v1.088H64.22v4.837h-1.307v-4.843h-1.789c-.006-.358-.006-.723-.006-1.081zm48.943-16.447l5.273 9.882c-.127.014-.221.027-.314.027-2.413 0-4.825 0-7.237.007-.242 0-.349-.088-.456-.29-1.649-3.101-3.31-6.195-4.952-9.302-.141-.27-.302-.351-.596-.345-1.24.014-2.48.007-3.72.007h-.381v-6.43h10.647V64.91H96.305v19.94h-7.237V64.919h-8.564v19.934h-7.257V64.898h-8.496v-6.81h45.284c2.607 0 4.65 1.615 5.18 4.108.074.358.107.736.107 1.108.007 2.127.007 4.255.007 6.383 0 2.918-2.104 5.127-5.006 5.255-.067 0-.134.007-.261.02zm25.845-1.027v-15.84h7.271v26.756c-.101.007-.208.02-.309.02-2.445 0-4.891 0-7.337.007-.235 0-.355-.088-.483-.27l-10.674-16.01c-.047-.074-.101-.142-.208-.304v16.557h-7.277v-26.75c.121-.006.255-.02.382-.02 2.546 0 5.093.007 7.639-.007.255 0 .402.081.536.29l10.313 15.483c.027.034.053.074.08.108l.067-.02zm-13.174 21.508c.362-1.405.697-2.716 1.039-4.047.362 0 .71-.013 1.052.014.087.007.208.142.228.243.295 1.142.576 2.29.864 3.432.027.108.06.216.114.412.335-1.412.657-2.743.972-4.08h1.286c-.536 1.986-1.058 3.945-1.588 5.924h-1.313c-.322-1.29-.65-2.594-.979-3.905h-.073c-.322 1.304-.637 2.601-.958 3.912h-1.334c-.516-1.96-1.039-3.932-1.575-5.945.409 0 .791-.013 1.166.014.074.006.175.141.201.236.275 1.121.53 2.25.798 3.378.02.108.047.209.1.412zm-14.581-.183v-3.837h1.193v5.931c-.389 0-.784.014-1.179-.013-.088-.007-.188-.135-.248-.23-.704-1.121-1.401-2.25-2.098-3.37a.696.696 0 0 0-.241-.25v3.843h-1.213v-5.938c.396 0 .777-.013 1.166.014.101.007.215.135.275.243.697 1.108 1.387 2.23 2.084 3.344.06.101.127.202.187.304.021-.02.047-.027.074-.04zm32.251 2.094c-.308 0-.643-.013-.978.007-.208.013-.281-.081-.302-.257-.047-.378-.087-.756-.134-1.141-.087-.676-.335-.912-.998-.926-.415-.013-.824 0-1.287 0v2.304h-1.32v-5.938h.603c.905 0 1.81-.013 2.714.007 1.24.034 1.997 1.236 1.468 2.37-.141.305-.436.541-.664.805.563.23.691.776.737 1.37.054.453.108.906.161 1.4zm-3.692-4.93v1.654c.55 0 1.086.034 1.608-.007.51-.04.717-.344.69-.885-.026-.486-.268-.736-.763-.756-.496-.02-.999-.007-1.535-.007zm-70.017-1.028h1.816c.502 0 1.005-.006 1.507.007.771.02 1.38.5 1.562 1.196.2.79-.06 1.439-.75 1.87-.028.021-.048.048-.081.075.683.277.77.871.824 1.493.04.425.087.844.14 1.304-.334 0-.723.006-1.098-.007-.06 0-.154-.122-.168-.203-.06-.365-.1-.736-.14-1.1-.088-.764-.342-1-1.1-1.007-.388-.007-.777 0-1.199 0v2.303h-1.306c-.007-1.966-.007-3.931-.007-5.93zm1.313 2.655c.603 0 1.173.034 1.736-.014.388-.026.556-.303.57-.742.013-.48-.128-.777-.517-.818-.59-.054-1.186-.013-1.789-.013v1.587zm28.03-2.634c1.18 0 2.339-.034 3.498.013.69.027 1.253.588 1.387 1.23.161.783-.101 1.411-.751 1.817-.026.02-.053.04-.093.08.542.23.737.676.79 1.217.054.52.114 1.047.175 1.587-.322 0-.691.014-1.053-.007-.073-.007-.194-.115-.207-.189-.06-.31-.08-.621-.127-.932-.034-.23-.04-.493-.148-.682-.114-.196-.328-.433-.516-.453-.536-.06-1.085-.02-1.662-.02v2.27h-1.28c-.013-1.973-.013-3.939-.013-5.931zm1.293 2.64c.597 0 1.153.035 1.702-.013.436-.034.617-.324.617-.81 0-.466-.208-.764-.637-.797-.55-.04-1.105-.007-1.675-.007-.007.554-.007 1.087-.007 1.628zm46.116.616c-.228.243-.442.432-.61.648a.68.68 0 0 0-.121.392c-.013.533-.006 1.074-.006 1.62h-1.294v-5.916h1.287v2.39c.127-.114.201-.168.261-.236.624-.662 1.24-1.324 1.877-1.972a.795.795 0 0 1 .455-.196c.422-.027.845-.007 1.3-.007-.79.777-1.548 1.527-2.312 2.277l2.6 3.681c-.556 0-1.052.007-1.548-.007-.08 0-.174-.114-.234-.202-.543-.804-1.079-1.615-1.655-2.472zm-55.973-1.007c.898 1.277 1.736 2.452 2.607 3.688-.556 0-1.052.014-1.548-.013-.087-.007-.194-.129-.255-.223-.543-.797-1.072-1.601-1.641-2.445-.242.243-.463.459-.664.695-.06.075-.067.21-.073.311-.007.54 0 1.08 0 1.648h-1.3v-5.904h1.286v2.439c.235-.25.402-.426.563-.594.523-.554 1.039-1.115 1.575-1.656a.787.787 0 0 1 .455-.202c.422-.027.845-.007 1.28-.007-.764.757-1.52 1.507-2.285 2.263zm3.143 3.675v-5.924h4.43v1.08h-3.103v1.27h2.848v1.014h-2.848v1.465h3.15v1.095h-4.477zm21.242-4.864v1.29h2.854v1.007h-2.848v1.472h3.163v1.081h-4.489v-5.917h4.422v1.06c-1.025.007-2.044.007-3.102.007zm-39.783 4.877c.261-.702.51-1.344.75-1.993.463-1.229.932-2.452 1.387-3.688.08-.216.181-.297.41-.283.34.027.77-.095 1.004.067.235.162.295.601.416.926l1.728 4.633c.034.095.068.19.121.331-.442 0-.844.007-1.253-.006-.06 0-.14-.122-.174-.203-.114-.29-.188-.601-.315-.885-.047-.101-.194-.216-.302-.216-.59-.02-1.179-.02-1.775 0-.1 0-.235.108-.282.203-.134.297-.214.614-.342.912-.04.087-.16.189-.247.195-.349.02-.704.007-1.126.007zm2.941-4.397h-.073a378.63 378.63 0 0 0-.73 2.073h1.52c-.248-.709-.482-1.391-.717-2.073zm42.236-.46h-1.769v-1.067h4.838v1.047h-1.762v4.864h-1.314c.007-1.608.007-3.209.007-4.844z"/></g><defs><filter id="filter0_d" x=".001" y="0" width="208" height="188" filterUnits="userSpaceOnUse" color-interpolation-filters="sRGB"><feFlood flood-opacity="0" result="BackgroundImageFix"/><feColorMatrix in="SourceAlpha" values="0 0 0 0 0 0 0 0 0 0 0 0 0 0 0 0 0 0 127 0"/><feOffset dy="4"/><feGaussianBlur stdDeviation="2"/><feColorMatrix values="0 0 0 0 0 0 0 0 0 0 0 0 0 0 0 0 0 0 0.25 0"/><feBlend in2="BackgroundImageFix" result="effect1_dropShadow"/><feBlend in="SourceGraphic" in2="effect1_dropShadow" result="shape"/></filter><clipPath id="clip0"><path fill="#fff" transform="translate(59.001 33)" d="M0 0h90v90H0z"/></clipPath></defs></svg>