<svg width="208" height="188" fill="none" xmlns="http://www.w3.org/2000/svg"><g filter="url(#filter0_d)"><path fill="#332E4D" d="M4.001 0h200v180h-200z"/></g><path d="M47.018 157.988c0 .751-.119 1.435-.357 2.051a4.552 4.552 0 0 1-1.008 1.582 4.521 4.521 0 0 1-1.568 1.022 5.477 5.477 0 0 1-2.016.357h-3.745v-10.031h3.745c.737 0 1.41.121 2.016.364a4.398 4.398 0 0 1 1.568 1.022c.434.439.77.966 1.008 1.582.238.616.357 1.3.357 2.051zm-1.393 0c0-.616-.084-1.167-.252-1.652a3.485 3.485 0 0 0-.714-1.232 3.042 3.042 0 0 0-1.12-.77 3.897 3.897 0 0 0-1.47-.266h-2.387v7.833h2.387a3.9 3.9 0 0 0 1.47-.266 3.086 3.086 0 0 0 1.12-.763c.308-.336.546-.747.714-1.232.168-.485.252-1.036.252-1.652zm7.706.693c0-.289-.042-.553-.126-.791a1.679 1.679 0 0 0-.357-.623 1.507 1.507 0 0 0-.567-.406 1.886 1.886 0 0 0-.763-.147c-.598 0-1.071.175-1.421.525-.346.345-.56.826-.644 1.442h3.878zm1.008 3.325a2.44 2.44 0 0 1-.553.49 3.565 3.565 0 0 1-.693.336 4.062 4.062 0 0 1-.756.196c-.262.047-.52.07-.777.07-.49 0-.943-.082-1.358-.245a3.08 3.08 0 0 1-1.071-.728 3.408 3.408 0 0 1-.7-1.19c-.168-.471-.252-1.013-.252-1.624 0-.495.074-.957.224-1.386.154-.429.373-.8.658-1.113a2.952 2.952 0 0 1 1.043-.742c.41-.182.872-.273 1.386-.273.424 0 .816.072 1.176.217.364.14.676.345.938.616.266.266.473.597.623.994.149.392.224.84.224 1.344 0 .196-.021.327-.063.392-.042.065-.122.098-.238.098h-4.74c.015.448.075.838.183 1.169.112.331.266.609.462.833.196.219.429.385.7.497.27.107.574.161.91.161.312 0 .58-.035.805-.105a4.076 4.076 0 0 0 .994-.469.546.546 0 0 1 .287-.112c.102 0 .182.04.238.119l.35.455zm7.568-6.097L59.016 163h-1.12l-2.891-7.091h1.015a.384.384 0 0 1 .385.259l1.799 4.564c.056.173.105.341.147.504.042.163.081.327.119.49.037-.163.077-.327.119-.49.042-.163.093-.331.154-.504l1.82-4.564a.385.385 0 0 1 .14-.182.365.365 0 0 1 .23-.077h.974zm5.697 2.772c0-.289-.042-.553-.126-.791a1.676 1.676 0 0 0-.357-.623 1.507 1.507 0 0 0-.567-.406 1.886 1.886 0 0 0-.763-.147c-.597 0-1.07.175-1.42.525-.346.345-.56.826-.645 1.442h3.878zm1.008 3.325a2.42 2.42 0 0 1-.553.49 3.565 3.565 0 0 1-.693.336 4.062 4.062 0 0 1-.756.196 4.38 4.38 0 0 1-.777.07c-.49 0-.943-.082-1.358-.245a3.08 3.08 0 0 1-1.07-.728 3.408 3.408 0 0 1-.7-1.19c-.169-.471-.253-1.013-.253-1.624 0-.495.075-.957.224-1.386.154-.429.373-.8.658-1.113a2.953 2.953 0 0 1 1.043-.742c.41-.182.873-.273 1.386-.273.425 0 .817.072 1.176.217.364.14.677.345.938.616.266.266.474.597.623.994.15.392.224.84.224 1.344 0 .196-.02.327-.063.392-.042.065-.121.098-.238.098h-4.739c.014.448.075.838.182 1.169.112.331.266.609.462.833.196.219.43.385.7.497.27.107.574.161.91.161.313 0 .581-.035.805-.105a4.067 4.067 0 0 0 .994-.469.546.546 0 0 1 .287-.112c.103 0 .182.04.238.119l.35.455zm2.93-9.317V163h-1.245v-10.311h1.246zm5.01 3.108c.518 0 .985.086 1.4.259.416.173.77.418 1.064.735.294.317.518.702.672 1.155.159.448.238.95.238 1.505 0 .56-.08 1.064-.238 1.512a3.187 3.187 0 0 1-.672 1.148 3.01 3.01 0 0 1-1.064.735 3.705 3.705 0 0 1-1.4.252c-.523 0-.994-.084-1.414-.252a3.008 3.008 0 0 1-1.064-.735c-.294-.317-.52-.7-.679-1.148a4.634 4.634 0 0 1-.23-1.512c0-.555.076-1.057.23-1.505.159-.453.385-.838.68-1.155a3.008 3.008 0 0 1 1.063-.735 3.68 3.68 0 0 1 1.414-.259zm0 6.328c.7 0 1.223-.233 1.568-.7.346-.471.518-1.127.518-1.967 0-.845-.172-1.503-.518-1.974-.345-.471-.868-.707-1.568-.707a2.23 2.23 0 0 0-.93.182 1.755 1.755 0 0 0-.659.525 2.411 2.411 0 0 0-.392.847 4.596 4.596 0 0 0-.126 1.127c0 .84.173 1.496.518 1.967.35.467.88.7 1.59.7zm6.207-.833c.23.308.479.525.75.651.27.126.573.189.91.189.662 0 1.17-.236 1.526-.707.354-.471.532-1.143.532-2.016a4.89 4.89 0 0 0-.127-1.19 2.248 2.248 0 0 0-.35-.812 1.364 1.364 0 0 0-.567-.469 1.886 1.886 0 0 0-.763-.147c-.406 0-.763.093-1.07.28a3.1 3.1 0 0 0-.84.791v3.43zm-.063-4.284a3.669 3.669 0 0 1 1.037-.889 2.66 2.66 0 0 1 1.343-.336c.411 0 .782.079 1.114.238.33.154.613.385.847.693.233.303.412.681.538 1.134.126.453.19.973.19 1.561 0 .523-.07 1.01-.21 1.463-.14.448-.344.838-.61 1.169a2.848 2.848 0 0 1-.965.777 2.85 2.85 0 0 1-1.282.28c-.433 0-.807-.072-1.12-.217a2.685 2.685 0 0 1-.819-.616v3.136h-1.252v-9.492h.748c.178 0 .288.086.33.259l.112.84zm11.404 1.673c0-.289-.042-.553-.126-.791a1.676 1.676 0 0 0-.357-.623 1.507 1.507 0 0 0-.567-.406 1.886 1.886 0 0 0-.763-.147c-.597 0-1.07.175-1.42.525-.346.345-.56.826-.645 1.442H94.1zm1.008 3.325a2.42 2.42 0 0 1-.553.49 3.565 3.565 0 0 1-.693.336 4.062 4.062 0 0 1-.756.196 4.38 4.38 0 0 1-.777.07c-.49 0-.942-.082-1.358-.245a3.08 3.08 0 0 1-1.07-.728 3.408 3.408 0 0 1-.7-1.19c-.169-.471-.253-1.013-.253-1.624 0-.495.075-.957.224-1.386.154-.429.374-.8.658-1.113a2.953 2.953 0 0 1 1.043-.742c.41-.182.873-.273 1.386-.273.425 0 .817.072 1.176.217.364.14.677.345.938.616.266.266.474.597.623.994.15.392.224.84.224 1.344 0 .196-.02.327-.063.392-.042.065-.121.098-.238.098H90.18c.014.448.075.838.182 1.169.112.331.266.609.462.833.196.219.43.385.7.497.27.107.574.161.91.161.313 0 .581-.035.805-.105a4.067 4.067 0 0 0 .994-.469.546.546 0 0 1 .287-.112c.103 0 .182.04.238.119l.35.455zm2.826-4.676c.224-.485.499-.863.826-1.134.326-.275.725-.413 1.197-.413.149 0 .291.016.427.049.14.033.263.084.371.154l-.091.931c-.028.117-.098.175-.21.175-.066 0-.161-.014-.287-.042a1.98 1.98 0 0 0-.427-.042 1.74 1.74 0 0 0-.602.098 1.407 1.407 0 0 0-.47.294 2.085 2.085 0 0 0-.37.476 4.138 4.138 0 0 0-.294.644V163H96.75v-7.091h.714c.135 0 .228.026.28.077.051.051.086.14.105.266l.084 1.078zm8.005-.252a.275.275 0 0 1-.259.154.492.492 0 0 1-.238-.077 4.241 4.241 0 0 0-.329-.168 2.491 2.491 0 0 0-.455-.175 2.099 2.099 0 0 0-.63-.084c-.21 0-.399.028-.567.084a1.36 1.36 0 0 0-.434.217 1.034 1.034 0 0 0-.273.329.886.886 0 0 0-.091.399c0 .182.052.334.154.455.108.121.248.226.42.315.173.089.369.168.588.238.22.065.444.138.672.217.234.075.46.159.679.252.22.093.416.21.588.35.173.14.311.313.413.518.108.201.161.443.161.728 0 .327-.058.63-.175.91a2.006 2.006 0 0 1-.518.721 2.518 2.518 0 0 1-.84.476 3.441 3.441 0 0 1-1.148.175c-.494 0-.942-.079-1.344-.238a3.458 3.458 0 0 1-1.022-.623l.294-.476a.438.438 0 0 1 .133-.14.359.359 0 0 1 .196-.049.47.47 0 0 1 .266.098c.094.065.206.138.336.217.136.079.299.152.49.217.192.065.43.098.714.098.243 0 .455-.03.637-.091a1.38 1.38 0 0 0 .455-.259.967.967 0 0 0 .266-.371c.061-.14.091-.289.091-.448a.715.715 0 0 0-.161-.483 1.218 1.218 0 0 0-.413-.329 3.024 3.024 0 0 0-.595-.238l-.679-.217a9.575 9.575 0 0 1-.679-.252 2.495 2.495 0 0 1-.588-.364 1.709 1.709 0 0 1-.42-.532 1.8 1.8 0 0 1-.154-.777c0-.271.056-.53.168-.777.112-.252.276-.471.49-.658.215-.191.479-.343.791-.455.313-.112.67-.168 1.071-.168.467 0 .885.075 1.253.224.374.145.696.345.966.602l-.28.455zm12.845 3.85c.075 0 .14.03.196.091l.539.581c-.411.476-.91.847-1.498 1.113-.583.266-1.29.399-2.121.399a5.012 5.012 0 0 1-1.96-.371 4.37 4.37 0 0 1-1.505-1.05 4.799 4.799 0 0 1-.966-1.624 6.046 6.046 0 0 1-.343-2.079c0-.756.119-1.449.357-2.079a4.795 4.795 0 0 1 1.001-1.624 4.478 4.478 0 0 1 1.554-1.05 5.117 5.117 0 0 1 1.995-.378c.714 0 1.344.114 1.89.343a4.76 4.76 0 0 1 1.442.931l-.448.623a.384.384 0 0 1-.112.119.312.312 0 0 1-.175.042c-.084 0-.187-.044-.308-.133a3.589 3.589 0 0 0-1.211-.609c-.294-.093-.656-.14-1.085-.14-.518 0-.992.091-1.421.273-.429.177-.8.436-1.113.777a3.64 3.64 0 0 0-.721 1.246 4.963 4.963 0 0 0-.259 1.659c0 .625.089 1.183.266 1.673.182.49.427.905.735 1.246.313.336.679.593 1.099.77.425.177.882.266 1.372.266.299 0 .567-.016.805-.049.243-.037.464-.093.665-.168.205-.075.394-.168.567-.28.177-.117.352-.254.525-.413a.362.362 0 0 1 .238-.105zm3.269-4.074a3.746 3.746 0 0 1 1.008-.77 2.728 2.728 0 0 1 1.274-.287c.387 0 .728.065 1.022.196.298.126.546.308.742.546.2.233.352.516.455.847.102.331.154.698.154 1.099V163h-1.253v-4.515c0-.537-.124-.952-.371-1.246-.243-.299-.614-.448-1.113-.448-.369 0-.714.089-1.036.266a3.403 3.403 0 0 0-.882.721V163H120.8v-10.311h1.253v4.165zm10.396 2.954c-.574.019-1.064.065-1.47.14-.401.07-.73.163-.987.28-.252.117-.436.254-.553.413a.902.902 0 0 0-.168.532c0 .187.03.348.091.483a.955.955 0 0 0 .245.336c.107.084.231.147.371.189.145.037.299.056.462.056.219 0 .42-.021.602-.063.182-.047.352-.112.511-.196.163-.084.317-.184.462-.301.149-.117.294-.25.434-.399v-1.47zm-4.025-2.898c.392-.378.814-.66 1.267-.847.453-.187.954-.28 1.505-.28.397 0 .749.065 1.057.196.308.131.567.313.777.546.21.233.369.516.476.847.107.331.161.695.161 1.092V163h-.553a.575.575 0 0 1-.28-.056c-.065-.042-.117-.121-.154-.238l-.14-.672a7.558 7.558 0 0 1-.546.462 3.364 3.364 0 0 1-.56.336 3.016 3.016 0 0 1-.63.203 3.246 3.246 0 0 1-.735.077 2.62 2.62 0 0 1-.777-.112 1.869 1.869 0 0 1-.637-.35 1.698 1.698 0 0 1-.427-.581 2.103 2.103 0 0 1-.154-.84c0-.28.077-.548.231-.805.154-.261.404-.492.749-.693.345-.201.796-.364 1.351-.49.555-.131 1.237-.205 2.044-.224v-.553c0-.551-.119-.966-.357-1.246-.238-.285-.586-.427-1.043-.427-.308 0-.567.04-.777.119a2.786 2.786 0 0 0-.539.259c-.149.093-.28.18-.392.259a.559.559 0 0 1-.322.112.372.372 0 0 1-.217-.063.667.667 0 0 1-.154-.168l-.224-.399zm8.429-4.221V163h-1.246v-10.311h1.246zm3.309 0V163h-1.246v-10.311h1.246zm6.766 5.992c0-.289-.042-.553-.126-.791a1.668 1.668 0 0 0-.357-.623 1.507 1.507 0 0 0-.567-.406 1.885 1.885 0 0 0-.763-.147c-.597 0-1.071.175-1.421.525-.345.345-.56.826-.644 1.442h3.878zm1.008 3.325a2.42 2.42 0 0 1-.553.49 3.527 3.527 0 0 1-.693.336 4.034 4.034 0 0 1-.756.196c-.261.047-.52.07-.777.07-.49 0-.942-.082-1.358-.245a3.092 3.092 0 0 1-1.071-.728 3.418 3.418 0 0 1-.7-1.19c-.168-.471-.252-1.013-.252-1.624 0-.495.075-.957.224-1.386.154-.429.374-.8.658-1.113a2.962 2.962 0 0 1 1.043-.742 3.388 3.388 0 0 1 1.386-.273c.425 0 .817.072 1.176.217.364.14.677.345.938.616.266.266.474.597.623.994.15.392.224.84.224 1.344 0 .196-.021.327-.063.392-.042.065-.121.098-.238.098h-4.739c.014.448.075.838.182 1.169.112.331.266.609.462.833.196.219.43.385.7.497.271.107.574.161.91.161.313 0 .581-.035.805-.105a4.039 4.039 0 0 0 .994-.469.547.547 0 0 1 .287-.112c.103 0 .182.04.238.119l.35.455zm2.819-5.068c.154-.173.317-.329.49-.469.172-.14.354-.259.546-.357a2.849 2.849 0 0 1 1.323-.315c.387 0 .728.065 1.022.196.298.126.546.308.742.546.2.233.352.516.455.847.102.331.154.698.154 1.099V163h-1.253v-4.515c0-.537-.124-.952-.371-1.246-.243-.299-.614-.448-1.113-.448-.369 0-.714.089-1.036.266a3.403 3.403 0 0 0-.882.721V163h-1.253v-7.091h.749c.177 0 .287.086.329.259l.098.77zm9.101 2.597c.252 0 .474-.035.665-.105.192-.07.353-.168.483-.294.131-.126.229-.275.294-.448.066-.177.098-.371.098-.581 0-.434-.133-.779-.399-1.036-.261-.257-.641-.385-1.141-.385-.504 0-.889.128-1.155.385-.261.257-.392.602-.392 1.036 0 .21.033.404.098.581.07.173.171.322.301.448.131.126.292.224.483.294.192.07.413.105.665.105zm2.247 3.85a.598.598 0 0 0-.147-.42.985.985 0 0 0-.399-.252 2.334 2.334 0 0 0-.574-.126 9.948 9.948 0 0 0-.7-.063l-.742-.042a8.642 8.642 0 0 1-.728-.07 1.96 1.96 0 0 0-.644.462.935.935 0 0 0-.126 1.085c.084.14.21.259.378.357.168.103.378.182.63.238.257.061.558.091.903.091.336 0 .637-.03.903-.091s.49-.147.672-.259a1.26 1.26 0 0 0 .427-.399.932.932 0 0 0 .147-.511zm1.267-7.196v.462c0 .154-.098.252-.294.294l-.805.105c.159.308.238.649.238 1.022a2.165 2.165 0 0 1-.749 1.666 2.422 2.422 0 0 1-.84.462 3.395 3.395 0 0 1-1.064.161c-.331 0-.644-.04-.938-.119a1.243 1.243 0 0 0-.343.301.515.515 0 0 0-.119.315c0 .168.068.296.203.385.14.084.322.145.546.182.224.037.479.061.763.07.29.009.584.026.882.049.304.019.598.054.882.105.29.051.546.135.77.252.224.117.404.278.539.483.14.205.21.471.21.798 0 .303-.077.597-.231.882a2.296 2.296 0 0 1-.651.756 3.258 3.258 0 0 1-1.05.532c-.41.135-.875.203-1.393.203s-.97-.051-1.358-.154a3.194 3.194 0 0 1-.966-.413 1.832 1.832 0 0 1-.581-.602 1.422 1.422 0 0 1-.189-.707c0-.35.11-.646.329-.889.22-.243.521-.436.903-.581a1.336 1.336 0 0 1-.504-.371c-.121-.159-.182-.371-.182-.637 0-.103.019-.208.056-.315a1.33 1.33 0 0 1 .168-.329 1.835 1.835 0 0 1 .679-.574 2.189 2.189 0 0 1-.819-.777 2.163 2.163 0 0 1-.294-1.134c0-.345.066-.658.196-.938a2.08 2.08 0 0 1 .56-.721 2.51 2.51 0 0 1 .847-.462 3.517 3.517 0 0 1 1.085-.161c.308 0 .595.035.861.105.266.065.509.163.728.294h1.925zm5.926 2.492c0-.289-.042-.553-.126-.791a1.695 1.695 0 0 0-.357-.623 1.507 1.507 0 0 0-.567-.406 1.888 1.888 0 0 0-.763-.147c-.598 0-1.071.175-1.421.525-.346.345-.56.826-.644 1.442h3.878zm1.008 3.325a2.44 2.44 0 0 1-.553.49 3.582 3.582 0 0 1-.693.336 4.075 4.075 0 0 1-.756.196c-.262.047-.521.07-.777.07-.49 0-.943-.082-1.358-.245a3.074 3.074 0 0 1-1.071-.728 3.403 3.403 0 0 1-.7-1.19c-.168-.471-.252-1.013-.252-1.624 0-.495.074-.957.224-1.386.154-.429.373-.8.658-1.113a2.944 2.944 0 0 1 1.043-.742c.41-.182.872-.273 1.386-.273.424 0 .816.072 1.176.217.364.14.676.345.938.616.266.266.473.597.623.994.149.392.224.84.224 1.344 0 .196-.021.327-.063.392-.042.065-.122.098-.238.098h-4.739c.014.448.074.838.182 1.169.112.331.266.609.462.833.196.219.429.385.7.497.27.107.574.161.91.161.312 0 .581-.035.805-.105a4.134 4.134 0 0 0 .994-.469.544.544 0 0 1 .287-.112c.102 0 .182.04.238.119l.35.455z" fill="#B2ADCC"/><g clip-path="url(#clip0)"><path fill-rule="evenodd" clip-rule="evenodd" d="M112.746 51.5l-1.028 3.286.026 15.17h3.828v2.022h2.055l2.056-2.023h3.596l6.68-6.573V51.5h-17.213zm15.415 10.87l-2.826 2.782h-4.625l-2.569 2.528v-2.528h-3.854V53.27h13.874v9.1zm-4.625-5.814h1.799v5.056h-1.799v-5.056zm-4.624 0h1.798v5.056h-1.798v-5.056zm21.838 23.511V91.95l-6.68 4.551h-4.111v-2.022l-3.083 2.022h-3.597v-2.022l-2.312 2.022h-6.68l-2.055-2.022-.514 2.022-5.883-.025-2.338-1.997-.257 2.022-6.68-.025-.257-1.997-1.799 1.997-10.276.025-2.056-1.011v1.01H76.52l-6.166-3.792-3.854-3.792V72.23h7.965l3.853 3.792h17.47V72.23h14.388v3.792h3.597v2.023l2.056-2.023h4.367l3.854-3.792h8.222v3.792h4.367l4.111 4.045zm-64.23-2.275h-3.597V74h-4.625v14.157l2.827 3.034h5.395v-4.803h-3.597v-4.045h3.597v-4.55zm19.269 0h-4.625v8.596h-1.798v-8.596h-4.368v8.596H83.2v-8.596h-4.882v13.399h14.388l3.083-3.034V77.792zm6.166 0h-4.368v13.399h4.368V77.792zm0-3.792h-4.368v2.022h4.368V74zm10.02 3.792h-3.597V74h-4.625v14.157l2.827 3.034h5.395v-4.803h-3.597v-4.045h3.597v-4.55zm11.818 0h-7.194l-2.826 2.781v7.584l3.083 3.034h6.937v-4.803h-5.138v-4.045h5.138v-4.55zm15.159 2.781l-3.083-2.78h-5.396V74h-4.881v17.191h4.881v-8.848h3.597v8.848h4.882V80.573z" fill="#B2ADCC"/></g><defs><filter id="filter0_d" x=".001" y="0" width="208" height="188" filterUnits="userSpaceOnUse" color-interpolation-filters="sRGB"><feFlood flood-opacity="0" result="BackgroundImageFix"/><feColorMatrix in="SourceAlpha" values="0 0 0 0 0 0 0 0 0 0 0 0 0 0 0 0 0 0 127 0"/><feOffset dy="4"/><feGaussianBlur stdDeviation="2"/><feColorMatrix values="0 0 0 0 0 0 0 0 0 0 0 0 0 0 0 0 0 0 0.25 0"/><feBlend in2="BackgroundImageFix" result="effect1_dropShadow"/><feBlend in="SourceGraphic" in2="effect1_dropShadow" result="shape"/></filter><clipPath id="clip0"><path fill="#fff" transform="translate(59 29)" d="M0 0h90v90H0z"/></clipPath></defs></svg>